<svg xmlns="http://www.w3.org/2000/svg" width="20" height="20" viewBox="0 0 20 20">
<path d="M19.688 10c0 5.352-4.336 9.688-9.688 9.688s-9.688-4.336-9.688-9.688 4.336-9.688 9.688-9.688 9.688 4.336 9.688 9.688zM14.078 8.871l-2.828 2.949v-7.133c0-0.52-0.418-0.938-0.938-0.938h-0.625c-0.52 0-0.938 0.418-0.938 0.938v7.133l-2.828-2.949c-0.363-0.379-0.969-0.387-1.34-0.016l-0.426 0.43c-0.367 0.367-0.367 0.961 0 1.324l5.18 5.184c0.367 0.367 0.961 0.367 1.324 0l5.184-5.184c0.367-0.367 0.367-0.961 0-1.324l-0.426-0.43c-0.371-0.371-0.977-0.363-1.34 0.016z"></path>
</svg>
