<svg xmlns="http://www.w3.org/2000/svg" width="23" height="20" viewBox="0 0 23 20">
<path d="M0.507 13.75h1.265c0.852 4.013 5.335 6.25 9.478 6.25 4.15 0 8.627-2.241 9.478-6.25h1.265c0.418 0 0.627-0.505 0.331-0.8l-2.618-2.618c-0.183-0.183-0.48-0.183-0.663 0l-2.618 2.618c-0.295 0.295-0.086 0.8 0.331 0.8h1.373c-0.793 2.122-3.319 3.382-5.63 3.672v-7.422h2.031c0.259 0 0.469-0.21 0.469-0.469v-1.563c0-0.259-0.21-0.469-0.469-0.469h-2.031v-0.214c1.456-0.515 2.5-1.903 2.5-3.536 0-2.041-1.656-3.722-3.696-3.75-2.096-0.029-3.804 1.661-3.804 3.75 0 1.633 1.044 3.021 2.5 3.536v0.214h-2.031c-0.259 0-0.469 0.21-0.469 0.469v1.563c0 0.259 0.21 0.469 0.469 0.469h2.031v7.422c-2.302-0.289-4.837-1.55-5.63-3.672h1.373c0.418 0 0.627-0.505 0.331-0.8l-2.618-2.618c-0.183-0.183-0.48-0.183-0.663 0l-2.618 2.618c-0.295 0.295-0.086 0.8 0.331 0.8zM11.25 2.5c0.689 0 1.25 0.561 1.25 1.25s-0.561 1.25-1.25 1.25-1.25-0.561-1.25-1.25 0.561-1.25 1.25-1.25z"></path>
</svg>
