<svg xmlns="http://www.w3.org/2000/svg" width="20" height="20" viewBox="0 0 20 20">
<path d="M18.68 13.051l-5.555-3.051 5.555-3.051c0.461-0.253 0.623-0.835 0.361-1.291l-0.761-1.318c-0.263-0.455-0.848-0.605-1.298-0.333l-5.419 3.286 0.136-6.336c0.011-0.526-0.412-0.958-0.937-0.958h-1.522c-0.526 0-0.949 0.432-0.937 0.958l0.136 6.336-5.419-3.286c-0.449-0.272-1.035-0.122-1.298 0.333l-0.761 1.318c-0.263 0.455-0.1 1.037 0.361 1.291l5.555 3.050-5.555 3.051c-0.461 0.253-0.623 0.835-0.361 1.291l0.761 1.318c0.263 0.455 0.848 0.605 1.298 0.333l5.419-3.286-0.136 6.336c-0.011 0.526 0.412 0.958 0.937 0.958h1.522c0.526 0 0.949-0.432 0.937-0.958l-0.136-6.336 5.419 3.286c0.449 0.272 1.035 0.122 1.298-0.333l0.761-1.318c0.263-0.455 0.1-1.037-0.361-1.29z"></path>
</svg>
