<svg xmlns="http://www.w3.org/2000/svg" width="18" height="20" viewBox="0 0 18 20">
<path d="M11.25 1.719v1.563c0 0.345-0.28 0.625-0.625 0.625h-10c-0.345 0-0.625-0.28-0.625-0.625v-1.563c0-0.345 0.28-0.625 0.625-0.625h10c0.345 0 0.625 0.28 0.625 0.625zM0 6.719v1.563c0 0.345 0.28 0.625 0.625 0.625h16.25c0.345 0 0.625-0.28 0.625-0.625v-1.563c0-0.345-0.28-0.625-0.625-0.625h-16.25c-0.345 0-0.625 0.28-0.625 0.625zM0.625 18.906h16.25c0.345 0 0.625-0.28 0.625-0.625v-1.563c0-0.345-0.28-0.625-0.625-0.625h-16.25c-0.345 0-0.625 0.28-0.625 0.625v1.563c0 0.345 0.28 0.625 0.625 0.625zM10.625 11.094h-10c-0.345 0-0.625 0.28-0.625 0.625v1.563c0 0.345 0.28 0.625 0.625 0.625h10c0.345 0 0.625-0.28 0.625-0.625v-1.563c0-0.345-0.28-0.625-0.625-0.625z"></path>
</svg>
