<svg xmlns="http://www.w3.org/2000/svg" width="20" height="20" viewBox="0 0 20 20">
<path d="M18.125 2.5h-16.25c-1.036 0-1.875 0.839-1.875 1.875v11.25c0 1.036 0.839 1.875 1.875 1.875h16.25c1.036 0 1.875-0.839 1.875-1.875v-11.25c0-1.036-0.839-1.875-1.875-1.875zM6.875 5.625c1.51 0 2.734 1.224 2.734 2.734s-1.224 2.734-2.734 2.734-2.734-1.224-2.734-2.734 1.224-2.734 2.734-2.734zM11.25 13.555c0 0.453-0.367 0.82-0.82 0.82h-7.109c-0.453 0-0.82-0.367-0.82-0.82v-0.633c0-0.753 0.512-1.409 1.243-1.592l1.219-0.305c0.995 0.715 2.547 0.921 3.827 0l1.219 0.305c0.73 0.183 1.243 0.839 1.243 1.592v0.633zM17.5 12.031c0 0.259-0.21 0.469-0.469 0.469h-4.063c-0.259 0-0.469-0.21-0.469-0.469v-0.313c0-0.259 0.21-0.469 0.469-0.469h4.063c0.259 0 0.469 0.21 0.469 0.469v0.313zM17.5 9.531c0 0.259-0.21 0.469-0.469 0.469h-4.063c-0.259 0-0.469-0.21-0.469-0.469v-0.313c0-0.259 0.21-0.469 0.469-0.469h4.063c0.259 0 0.469 0.21 0.469 0.469v0.313zM17.5 7.031c0 0.259-0.21 0.469-0.469 0.469h-4.063c-0.259 0-0.469-0.21-0.469-0.469v-0.313c0-0.259 0.21-0.469 0.469-0.469h4.063c0.259 0 0.469 0.21 0.469 0.469v0.313z"></path>
</svg>
