<svg xmlns="http://www.w3.org/2000/svg" width="18" height="20" viewBox="0 0 18 20">
<path d="M8.762 10.664l-5.313 5.313c-0.367 0.367-0.961 0.367-1.324 0l-0.883-0.883c-0.367-0.367-0.367-0.961 0-1.324l3.766-3.766-3.766-3.766c-0.367-0.367-0.367-0.961 0-1.324l0.879-0.891c0.367-0.367 0.961-0.367 1.324 0l5.312 5.312c0.371 0.367 0.371 0.961 0.004 1.328zM16.262 9.336l-5.313-5.313c-0.367-0.367-0.961-0.367-1.324 0l-0.883 0.883c-0.367 0.367-0.367 0.961 0 1.324l3.766 3.766-3.766 3.766c-0.367 0.367-0.367 0.961 0 1.324l0.883 0.883c0.367 0.367 0.961 0.367 1.324 0l5.313-5.313c0.367-0.359 0.367-0.953 0-1.32z"></path>
</svg>
