<svg xmlns="http://www.w3.org/2000/svg" width="25" height="20" viewBox="0 0 25 20">
<path d="M11.349 7.384c-0.793-0.396-1.724-0.437-2.529-0.152 1.664 0 2.782 0.8 3.343 1.976 0.335 0.699-0.201 1.487-0.923 1.487 0.72 0 1.258 0.787 0.923 1.487-0.575 1.205-1.802 1.986-3.137 1.986-0.022 0-3.69-0.337-3.69-0.337l-2.594 1.303c-0.367 0.183-0.774 0.015-0.933-0.304l-1.737-3.474c-0.163-0.337-0.043-0.738 0.271-0.923l2.268-1.292 1.606-2.898c0.25-2.236 1.357-4.288 3.115-5.731 0.445-0.369 1.107-0.304 1.465 0.141 0.369 0.445 0.304 1.096-0.141 1.465-0.488 0.412-0.923 0.879-1.27 1.389 0.847-0.575 1.823-0.966 2.898-1.096 0.575-0.076 1.096 0.326 1.161 0.901 0.076 0.575-0.326 1.096-0.901 1.161-0.63 0.076-1.216 0.293-1.726 0.597 1.020-0.223 2.293-0.123 3.441 0.434 0.521 0.261 0.738 0.879 0.477 1.4-0.25 0.51-0.879 0.727-1.389 0.478zM10.286 10.098c-0.239-0.488-0.716-0.792-1.259-0.792-0.001 0-0.003 0-0.004 0-0.765 0-1.385 0.62-1.385 1.385 0 0.002 0 0.003 0 0.005v-0c0 0.837 0.696 1.389 1.389 1.389 0.543 0 1.020-0.304 1.259-0.792 0.174-0.369 0.532-0.586 0.912-0.597-0.38-0.011-0.738-0.228-0.912-0.597zM24.927 8.644c0.163 0.337 0.043 0.738-0.271 0.923l-2.268 1.292-1.606 2.898c-0.25 2.236-1.357 4.288-3.115 5.731-0.427 0.356-1.086 0.318-1.465-0.141-0.369-0.445-0.304-1.096 0.141-1.465 0.488-0.412 0.923-0.879 1.27-1.389-0.847 0.575-1.823 0.966-2.898 1.096-0.391 0.098-1.076-0.22-1.161-0.901-0.076-0.575 0.326-1.096 0.901-1.161 0.63-0.076 1.216-0.293 1.726-0.597-1.020 0.223-2.293 0.123-3.441-0.434-0.521-0.261-0.738-0.879-0.477-1.4 0.25-0.51 0.879-0.727 1.389-0.478 0.793 0.396 1.724 0.437 2.529 0.152-1.664 0-2.782-0.8-3.343-1.976-0.335-0.699 0.201-1.487 0.923-1.487-0.72 0-1.258-0.787-0.923-1.487 0.548-1.148 1.72-1.988 3.202-1.986l3.625 0.337 2.594-1.303c0.367-0.184 0.775-0.014 0.933 0.304l1.737 3.474zM15.973 7.916c-0.543 0-1.020 0.304-1.259 0.792-0.174 0.369-0.532 0.586-0.912 0.597 0.38 0.011 0.738 0.228 0.912 0.597 0.239 0.488 0.716 0.792 1.259 0.792 0.001 0 0.003 0 0.004 0 0.765 0 1.385-0.62 1.385-1.385 0-0.002 0-0.003 0-0.005v0c0-0.837-0.696-1.389-1.389-1.389z"></path>
</svg>
