<svg xmlns="http://www.w3.org/2000/svg" width="20" height="20" viewBox="0 0 20 20">
<path d="M10 0.313c-5.354 0-9.688 4.333-9.688 9.688s4.333 9.688 9.688 9.688c1.881 0 3.724-0.552 5.289-1.571 0.469-0.305 0.571-0.949 0.217-1.382l-0.398-0.486c-0.3-0.366-0.827-0.456-1.226-0.2-1.152 0.739-2.504 1.139-3.883 1.139-3.963 0-7.188-3.224-7.188-7.187s3.224-7.188 7.188-7.188c3.912 0 7.188 2.251 7.188 6.25 0 1.515-0.824 3.115-2.272 3.269-0.678-0.018-0.661-0.502-0.526-1.173l0.915-4.731c0.112-0.578-0.331-1.116-0.92-1.116h-1.757c0 0 0 0-0 0-0.271 0-0.494 0.204-0.524 0.466l-0 0.002-0 0.004c-0.574-0.699-1.58-0.851-2.343-0.851-2.913 0-5.384 2.431-5.384 5.916 0 2.551 1.437 4.136 3.75 4.136 1.054 0 2.241-0.611 2.929-1.497 0.372 1.332 1.586 1.332 2.762 1.332 4.254 0 5.871-2.797 5.871-5.758 0-5.326-4.296-8.75-9.688-8.75zM9.153 12.204c-0.869 0-1.409-0.61-1.409-1.593 0-1.758 1.202-2.841 2.29-2.841 0.871 0 1.391 0.595 1.391 1.593 0 1.76-1.323 2.841-2.272 2.841z"></path>
</svg>
