<svg xmlns="http://www.w3.org/2000/svg" width="25" height="20" viewBox="0 0 25 20">
<path d="M23.125 0h-12.5c-1.036 0-1.875 0.839-1.875 1.875v1.875h-1.723c-0.518 0-0.987 0.21-1.326 0.549l-3.902 3.902c-0.339 0.339-0.549 0.808-0.549 1.326v0 4.223h-0.313c-0.518 0-0.938 0.42-0.938 0.938v0.625c0 0.518 0.42 0.938 0.938 0.938h1.563c0 2.071 1.679 3.75 3.75 3.75s3.75-1.679 3.75-3.75h5c0 2.071 1.679 3.75 3.75 3.75s3.75-1.679 3.75-3.75h1.563c0.518 0 0.938-0.42 0.938-0.938v-13.438c0-1.036-0.839-1.875-1.875-1.875zM6.25 18.125c-1.034 0-1.875-0.841-1.875-1.875s0.841-1.875 1.875-1.875 1.875 0.841 1.875 1.875-0.841 1.875-1.875 1.875zM8.75 10h-5.625v-0.473l3.902-3.902h1.723v4.375zM18.75 18.125c-1.034 0-1.875-0.841-1.875-1.875s0.841-1.875 1.875-1.875 1.875 0.841 1.875 1.875-0.841 1.875-1.875 1.875zM20 6.875v1.25c0 0.259-0.21 0.469-0.469 0.469h-2.188v2.188c0 0.259-0.21 0.469-0.469 0.469h-1.25c-0.259 0-0.469-0.21-0.469-0.469v-2.188h-2.188c-0.259 0-0.469-0.21-0.469-0.469v-1.25c0-0.259 0.21-0.469 0.469-0.469h2.188v-2.188c0-0.259 0.21-0.469 0.469-0.469h1.25c0.259 0 0.469 0.21 0.469 0.469v2.188h2.188c0.259 0 0.469 0.21 0.469 0.469z"></path>
</svg>
