<svg xmlns="http://www.w3.org/2000/svg" width="20" height="20" viewBox="0 0 20 20">
<path d="M6.364 9.325l0.345 1.197h-1l0.353-1.197c0.050-0.173 0.104-0.39 0.151-0.596 0.048 0.205 0.101 0.423 0.151 0.595zM12.867 8.071h-0.567v3.859h0.567c1.163 0 1.804-0.691 1.804-1.944 0-1.259-0.683-1.914-1.804-1.914zM20 4.375v11.25c0 1.036-0.839 1.875-1.875 1.875h-16.25c-1.036 0-1.875-0.839-1.875-1.875v-11.25c0-1.036 0.839-1.875 1.875-1.875h16.25c1.036 0 1.875 0.839 1.875 1.875zM9.588 13.13l-2.23-6.563c-0.065-0.186-0.239-0.318-0.444-0.318h-1.402c-0.205 0-0.379 0.131-0.443 0.315l-0.001 0.003-2.23 6.563c-0.103 0.304 0.123 0.62 0.444 0.62h1.138c0.213 0 0.393-0.142 0.45-0.336l0.001-0.003 0.335-1.168h2.007l0.343 1.171c0.059 0.196 0.238 0.337 0.45 0.337 0 0 0 0 0 0h1.14c0.321 0 0.547-0.316 0.444-0.62zM16.803 9.985c0-2.304-1.481-3.735-3.866-3.735h-2.241c-0.259 0-0.469 0.21-0.469 0.469v6.563c0 0.259 0.21 0.469 0.469 0.469h2.241c2.384 0 3.866-1.443 3.866-3.765z"></path>
</svg>
