<svg xmlns="http://www.w3.org/2000/svg" width="20" height="20" viewBox="0 0 20 20">
<path d="M13.758 16.632l-3.094 3.094c-0.366 0.366-0.96 0.366-1.326 0l-3.094-3.094c-0.591-0.591-0.172-1.6 0.663-1.6h1.999l-0-3.938h-3.938v1.999c0 0.835-1.010 1.254-1.6 0.663l-3.094-3.094c-0.366-0.366-0.366-0.96 0-1.326l3.094-3.094c0.591-0.591 1.6-0.172 1.6 0.663v2.001h3.938v-3.938h-2.001c-0.835 0-1.254-1.010-0.663-1.6l3.094-3.094c0.366-0.366 0.96-0.366 1.326 0l3.094 3.094c0.591 0.591 0.172 1.6-0.663 1.6h-1.999v3.938h3.938v-1.999c0-0.835 1.010-1.254 1.6-0.663l3.094 3.094c0.366 0.366 0.366 0.96 0 1.326l-3.094 3.094c-0.591 0.591-1.6 0.172-1.6-0.663v-2.001h-3.938v3.938h2.001c0.835 0 1.254 1.010 0.663 1.6z"></path>
</svg>
