<svg xmlns="http://www.w3.org/2000/svg" width="20" height="20" viewBox="0 0 20 20">
<path d="M19.063 5h-18.125c-0.518 0-0.938-0.42-0.938-0.938v-1.875c0-0.518 0.42-0.938 0.938-0.938h18.125c0.518 0 0.938 0.42 0.938 0.938v1.875c0 0.518-0.42 0.938-0.938 0.938zM18.75 17.813v-10.625c0-0.518-0.42-0.938-0.938-0.938h-15.625c-0.518 0-0.938 0.42-0.938 0.938v10.625c0 0.518 0.42 0.938 0.938 0.938h15.625c0.518 0 0.938-0.42 0.938-0.938zM12.031 10h-4.063c-0.259 0-0.469-0.21-0.469-0.469v-0.313c0-0.259 0.21-0.469 0.469-0.469h4.063c0.259 0 0.469 0.21 0.469 0.469v0.313c0 0.259-0.21 0.469-0.469 0.469z"></path>
</svg>
