<svg xmlns="http://www.w3.org/2000/svg" width="18" height="20" viewBox="0 0 18 20">
<path d="M13.75 1.719v1.563c0 0.345-0.28 0.625-0.625 0.625h-8.75c-0.345 0-0.625-0.28-0.625-0.625v-1.563c0-0.345 0.28-0.625 0.625-0.625h8.75c0.345 0 0.625 0.28 0.625 0.625zM0.625 8.906h16.25c0.345 0 0.625-0.28 0.625-0.625v-1.563c0-0.345-0.28-0.625-0.625-0.625h-16.25c-0.345 0-0.625 0.28-0.625 0.625v1.563c0 0.345 0.28 0.625 0.625 0.625zM0.625 18.906h16.25c0.345 0 0.625-0.28 0.625-0.625v-1.563c0-0.345-0.28-0.625-0.625-0.625h-16.25c-0.345 0-0.625 0.28-0.625 0.625v1.563c0 0.345 0.28 0.625 0.625 0.625zM13.125 11.094h-8.75c-0.345 0-0.625 0.28-0.625 0.625v1.563c0 0.345 0.28 0.625 0.625 0.625h8.75c0.345 0 0.625-0.28 0.625-0.625v-1.563c0-0.345-0.28-0.625-0.625-0.625z"></path>
</svg>
