<svg xmlns="http://www.w3.org/2000/svg" width="20" height="20" viewBox="0 0 20 20">
<path d="M10 19.688c-5.352 0-9.688-4.336-9.688-9.688s4.336-9.688 9.688-9.688 9.688 4.336 9.688 9.688-4.336 9.688-9.688 9.688zM11.129 14.078l-2.949-2.828h7.133c0.52 0 0.938-0.418 0.938-0.938v-0.625c0-0.52-0.418-0.938-0.938-0.938h-7.133l2.949-2.828c0.379-0.363 0.387-0.969 0.016-1.34l-0.43-0.426c-0.367-0.367-0.961-0.367-1.324 0l-5.184 5.18c-0.367 0.367-0.367 0.961 0 1.324l5.184 5.184c0.367 0.367 0.961 0.367 1.324 0l0.43-0.426c0.371-0.371 0.363-0.977-0.016-1.34z"></path>
</svg>
