<svg xmlns="http://www.w3.org/2000/svg" width="20" height="20" viewBox="0 0 20 20">
<path d="M10 0.313c5.352 0 9.688 4.336 9.688 9.688s-4.336 9.688-9.688 9.688-9.688-4.336-9.688-9.688 4.336-9.688 9.688-9.688zM8.871 5.922l2.949 2.828h-7.133c-0.52 0-0.938 0.418-0.938 0.938v0.625c0 0.52 0.418 0.938 0.938 0.938h7.133l-2.949 2.828c-0.379 0.363-0.387 0.969-0.016 1.34l0.43 0.426c0.367 0.367 0.961 0.367 1.324 0l5.184-5.18c0.367-0.367 0.367-0.961 0-1.324l-5.184-5.188c-0.367-0.367-0.961-0.367-1.324 0l-0.43 0.426c-0.371 0.375-0.363 0.98 0.016 1.344z"></path>
</svg>
