<svg xmlns="http://www.w3.org/2000/svg" width="20" height="20" viewBox="0 0 20 20">
<path d="M8.438 10.156c0 0.604-0.49 1.094-1.094 1.094s-1.094-0.49-1.094-1.094c0-1.723 1.402-3.125 3.125-3.125s3.125 1.402 3.125 3.125c0 0.604-0.49 1.094-1.094 1.094s-1.094-0.49-1.094-1.094c0-0.517-0.421-0.938-0.938-0.938s-0.938 0.421-0.938 0.938zM9.375 3.281c-3.791 0-6.875 3.084-6.875 6.875 0 0.604 0.49 1.094 1.094 1.094s1.094-0.49 1.094-1.094c0-2.585 2.103-4.688 4.688-4.688s4.688 2.103 4.688 4.688c0 2.936-2.774 2.747-2.812 5.61l-0 0.015c0 1.12-0.911 2.031-2.031 2.031-0.604 0-1.094 0.49-1.094 1.094s0.49 1.094 1.094 1.094c2.323 0 4.214-1.888 4.219-4.21 0.023-1.345 2.813-1.884 2.813-5.634 0-3.791-3.084-6.875-6.875-6.875zM6.25 12.5c-0.69 0-1.25 0.56-1.25 1.25s0.56 1.25 1.25 1.25 1.25-0.56 1.25-1.25-0.56-1.25-1.25-1.25zM1.25 17.5c-0.69 0-1.25 0.56-1.25 1.25s0.56 1.25 1.25 1.25 1.25-0.56 1.25-1.25-0.56-1.25-1.25-1.25zM20 10.157c0-0.059-0-0.118-0.002-0.177-0.073-4.49-2.961-8.477-7.186-9.921-0.572-0.195-1.193 0.11-1.389 0.681s0.11 1.193 0.681 1.389c3.356 1.147 5.649 4.317 5.706 7.889l0 0.007c0.001 0.044 0.001 0.087 0.001 0.131 0 0.604 0.49 1.094 1.094 1.094s1.094-0.49 1.094-1.094zM5.975 17.15l-3.125-3.125-1.326 1.326 3.125 3.125 1.326-1.326z"></path>
</svg>
