<svg xmlns="http://www.w3.org/2000/svg" width="18" height="20" viewBox="0 0 18 20">
<path d="M8.738 9.336l5.313-5.313c0.367-0.367 0.961-0.367 1.324 0l0.883 0.883c0.367 0.367 0.367 0.961 0 1.324l-3.762 3.77 3.766 3.766c0.367 0.367 0.367 0.961 0 1.324l-0.883 0.887c-0.367 0.367-0.961 0.367-1.324 0l-5.313-5.313c-0.371-0.367-0.371-0.961-0.004-1.328zM1.238 10.664l5.313 5.313c0.367 0.367 0.961 0.367 1.324 0l0.883-0.883c0.367-0.367 0.367-0.961 0-1.324l-3.762-3.77 3.766-3.766c0.367-0.367 0.367-0.961 0-1.324l-0.883-0.887c-0.367-0.367-0.961-0.367-1.324 0l-5.313 5.313c-0.371 0.367-0.371 0.961-0.004 1.328z"></path>
</svg>
