<svg xmlns="http://www.w3.org/2000/svg" width="13" height="20" viewBox="0 0 13 20">
<path d="M6.914 9.988l5.313 5.313c0.367 0.367 0.367 0.961 0 1.324l-0.883 0.883c-0.367 0.367-0.961 0.367-1.324 0l-3.77-3.762-3.766 3.766c-0.367 0.367-0.961 0.367-1.324 0l-0.887-0.883c-0.367-0.367-0.367-0.961 0-1.324l5.313-5.313c0.367-0.371 0.961-0.371 1.328-0.004zM5.586 2.488l-5.313 5.313c-0.367 0.367-0.367 0.961 0 1.324l0.883 0.883c0.367 0.367 0.961 0.367 1.324 0l3.766-3.766 3.766 3.766c0.367 0.367 0.961 0.367 1.324 0l0.883-0.883c0.367-0.367 0.367-0.961 0-1.324l-5.313-5.313c-0.359-0.367-0.953-0.367-1.32 0z"></path>
</svg>
