<svg xmlns="http://www.w3.org/2000/svg" width="20" height="20" viewBox="0 0 20 20">
<path d="M0.313 10c0-5.352 4.336-9.688 9.688-9.688s9.688 4.336 9.688 9.688-4.336 9.688-9.688 9.688-9.688-4.336-9.688-9.688zM5.922 11.129l2.828-2.949v7.133c0 0.52 0.418 0.938 0.938 0.938h0.625c0.52 0 0.938-0.418 0.938-0.938v-7.133l2.828 2.949c0.363 0.379 0.969 0.387 1.34 0.016l0.426-0.43c0.367-0.367 0.367-0.961 0-1.324l-5.18-5.184c-0.367-0.367-0.961-0.367-1.324 0l-5.188 5.184c-0.367 0.367-0.367 0.961 0 1.324l0.426 0.43c0.375 0.371 0.98 0.363 1.344-0.016z"></path>
</svg>
