<svg xmlns="http://www.w3.org/2000/svg" width="25" height="20" viewBox="0 0 25 20">
<path d="M13.75 17.5h6.563c0.518 0 0.938 0.42 0.938 0.938v0.625c0 0.518-0.42 0.938-0.938 0.938h-15.625c-0.518 0-0.938-0.42-0.938-0.938v-0.625c0-0.518 0.42-0.938 0.938-0.938h6.563v-11.511c-0.919-0.402-1.608-1.232-1.812-2.239h-4.75c-0.518 0-0.938-0.42-0.938-0.938v-0.625c0-0.518 0.42-0.938 0.938-0.938h5.312c0.57-0.759 1.478-1.25 2.5-1.25s1.93 0.491 2.5 1.25h5.312c0.518 0 0.938 0.42 0.938 0.938v0.625c0 0.518-0.42 0.938-0.938 0.938h-4.75c-0.204 1.007-0.893 1.837-1.812 2.239v11.511zM24.999 13.125c0-0.632 0.052-0.341-3.322-7.090-0.689-1.379-2.664-1.381-3.354 0-3.403 6.807-3.322 6.478-3.322 7.090h-0.001c0 1.726 2.239 3.125 5 3.125s5-1.399 5-3.125h-0.001zM20 6.875l2.813 5.625h-5.625l2.813-5.625zM9.999 13.125c0-0.632 0.052-0.341-3.322-7.090-0.689-1.379-2.664-1.381-3.354 0-3.403 6.807-3.322 6.478-3.322 7.090h-0.001c0 1.726 2.239 3.125 5 3.125s5-1.399 5-3.125h-0.001zM5 6.875l2.813 5.625h-5.625l2.813-5.625z"></path>
</svg>
