<svg xmlns="http://www.w3.org/2000/svg" width="18" height="20" viewBox="0 0 18 20">
<path d="M17.5 14.063v-13.125c0-0.52-0.418-0.938-0.938-0.938h-12.813c-2.070 0-3.75 1.68-3.75 3.75v12.5c0 2.070 1.68 3.75 3.75 3.75h12.813c0.52 0 0.938-0.418 0.938-0.938v-0.625c0-0.293-0.137-0.559-0.348-0.73-0.164-0.602-0.164-2.316 0-2.918 0.211-0.168 0.348-0.434 0.348-0.727zM5 5.234c0-0.129 0.105-0.234 0.234-0.234h8.281c0.129 0 0.234 0.105 0.234 0.234v0.781c0 0.129-0.105 0.234-0.234 0.234h-8.281c-0.129 0-0.234-0.105-0.234-0.234v-0.781zM5 7.734c0-0.129 0.105-0.234 0.234-0.234h8.281c0.129 0 0.234 0.105 0.234 0.234v0.781c0 0.129-0.105 0.234-0.234 0.234h-8.281c-0.129 0-0.234-0.105-0.234-0.234v-0.781zM14.898 17.5h-11.148c-0.691 0-1.25-0.559-1.25-1.25 0-0.688 0.563-1.25 1.25-1.25h11.148c-0.074 0.668-0.074 1.832 0 2.5z"></path>
</svg>
