<svg xmlns="http://www.w3.org/2000/svg" width="15" height="20" viewBox="0 0 15 20">
<path d="M14.85 19.955c-0.046 0.028-0.102 0.045-0.162 0.045-0.113 0-0.211-0.060-0.266-0.149l-0.001-0.001-4.896-8.064c0.203-0.082 0.373-0.208 0.504-0.368l0.002-0.002 4.924 8.11c0.028 0.046 0.045 0.102 0.045 0.162 0 0.113-0.060 0.211-0.149 0.266l-0.001 0.001zM5.578 12.279l-1.271 3.496 1.411 3.449c0.261 0.639 0.991 0.945 1.63 0.684s0.945-0.991 0.684-1.63l-2.454-5.998zM3.75 3.438c0.949 0 1.719-0.769 1.719-1.719s-0.769-1.719-1.719-1.719-1.719 0.769-1.719 1.719 0.769 1.719 1.719 1.719zM9.798 10.044l-4.688-5.938c-0.185-0.234-0.459-0.356-0.736-0.356v-0.001l-1.25 0.001c-0.279 0-0.555 0.123-0.74 0.361l-2.385 3.066v3.738c0 0.526 0.43 0.968 0.956 0.958 0.509-0.010 0.919-0.426 0.919-0.937v-3.116l0.625-0.804v5.496l-2.112 5.808c-0.236 0.649 0.099 1.366 0.748 1.602s1.366-0.099 1.602-0.748l2.575-7.082v-4.187l-1.227-1.555c-0.021-0.026-0.034-0.060-0.034-0.097 0-0.086 0.070-0.156 0.156-0.156 0.049 0 0.094 0.023 0.122 0.059l0 0 3.996 5.048c0.357 0.452 0.952 0.443 1.317 0.155 0.407-0.321 0.475-0.911 0.155-1.317z"></path>
</svg>
