<svg xmlns="http://www.w3.org/2000/svg" width="19" height="20" viewBox="0 0 19 20">
<path d="M14.395 14.215l1.125-0.543c0.434 0.895 1.016 1.688 1.723 2.379 1.328-1.66 2.129-3.762 2.129-6.051 0-2.285-0.797-4.383-2.117-6.039-0.695 0.676-1.273 1.449-1.703 2.324l-1.121-0.551c0.5-1.016 1.172-1.914 1.984-2.695-1.742-1.684-4.109-2.727-6.727-2.727-2.613 0-4.98 1.039-6.723 2.723 0.809 0.777 1.48 1.676 1.98 2.688l-1.121 0.551c-0.43-0.871-1.004-1.645-1.699-2.32-1.328 1.66-2.125 3.758-2.125 6.047s0.797 4.387 2.125 6.043c0.711-0.691 1.297-1.484 1.73-2.383l1.125 0.543c-0.504 1.043-1.184 1.965-2.012 2.762 1.738 1.684 4.105 2.723 6.719 2.723 2.609 0 4.973-1.035 6.715-2.715-0.824-0.797-1.504-1.715-2.008-2.758zM5.477 12.965l-1.191-0.383c0.582-1.812 0.496-3.664-0.023-5.234l1.188-0.391c0.586 1.781 0.703 3.902 0.027 6.008zM13.926 6.973l1.188 0.391c-0.516 1.566-0.605 3.418-0.023 5.234l-1.191 0.383c-0.676-2.109-0.559-4.23 0.027-6.008z"></path>
</svg>
