<svg xmlns="http://www.w3.org/2000/svg" width="20" height="20" viewBox="0 0 20 20">
<path d="M0 17.5v-15h0.703v15h-0.703zM1.049 17.489v-14.989h0.357v14.989h-0.357zM2.109 17.489v-14.989h0.346v14.989h-0.346zM3.862 17.489v-14.989h0.346v14.989h-0.346zM5.268 17.489v-14.989h0.692v14.989h-0.692zM7.020 17.489v-14.989h0.346v14.989h-0.346zM7.723 17.489v-14.989h0.346v14.989h-0.346zM8.426 17.489v-14.989h0.346v14.989h-0.346zM9.821 17.489v-14.989h0.703v14.989h-0.703zM11.574 17.489v-14.989h0.703v14.989h-0.703zM12.98 17.489v-14.989h0.703v14.989h-0.703zM14.386 17.489v-14.989h0.703v14.989h-0.703zM15.435 17.489v-14.989h0.703v14.989h-0.703zM17.199 17.489v-14.989h1.049v14.989h-1.049zM18.594 17.489v-14.989h0.357v14.989h-0.357zM19.297 17.5v-15h0.703v15h-0.703z"></path>
</svg>
