<svg xmlns="http://www.w3.org/2000/svg" width="20" height="20" viewBox="0 0 20 20">
<path d="M20 5.938v3.125c0 0.518-0.42 0.938-0.938 0.938h-0.313v6.563c0 0.518-0.42 0.938-0.938 0.938h-0.313v1.563c0 0.518-0.42 0.938-0.938 0.938h-1.875c-0.518 0-0.938-0.42-0.938-0.938v-1.563h-7.5v1.563c0 0.518-0.42 0.938-0.938 0.938h-1.875c-0.518 0-0.938-0.42-0.938-0.938v-1.563h-0.313c-0.518 0-0.938-0.42-0.938-0.938v-6.563h-0.313c-0.518 0-0.938-0.42-0.938-0.938v-3.125c0-0.518 0.42-0.938 0.938-0.938h0.313v-1.875c0-1.726 3.918-3.125 8.75-3.125s8.75 1.399 8.75 3.125v1.875h0.313c0.518 0 0.938 0.42 0.938 0.938zM4.375 12.5c-0.863 0-1.563 0.7-1.563 1.563s0.7 1.563 1.563 1.563 1.563-0.7 1.563-1.563-0.7-1.563-1.563-1.563zM15.625 12.5c-0.863 0-1.563 0.7-1.563 1.563s0.7 1.563 1.563 1.563 1.563-0.7 1.563-1.563-0.7-1.563-1.563-1.563zM16.875 10.313v-5.625c0-0.518-0.42-0.938-0.938-0.938h-11.875c-0.518 0-0.938 0.42-0.938 0.938v5.625c0 0.518 0.42 0.938 0.938 0.938h11.875c0.518 0 0.938-0.42 0.938-0.938z"></path>
</svg>
