<svg xmlns="http://www.w3.org/2000/svg" width="18" height="20" viewBox="0 0 18 20">
<path d="M14.375 3.75h-1.875v-1.563c0-0.518-0.42-0.938-0.938-0.938h-10.625c-0.518 0-0.938 0.42-0.938 0.938v15.625c0 0.518 0.42 0.938 0.938 0.938h10.625c0.518 0 0.938-0.42 0.938-0.938v-1.645l3.149-1.405c1.125-0.502 1.851-1.622 1.851-2.854v-5.034c0-1.723-1.402-3.125-3.125-3.125zM15 11.909c-0 0.253-0.15 0.471-0.366 0.569l-0.004 0.002-2.13 0.951v-7.18h1.875c0.345 0 0.625 0.28 0.625 0.625v5.034zM8.125 15c-0.345 0-0.625-0.28-0.625-0.625v-8.75c0-0.345 0.28-0.625 0.625-0.625s0.625 0.28 0.625 0.625v8.75c0 0.345-0.28 0.625-0.625 0.625zM4.375 15c-0.345 0-0.625-0.28-0.625-0.625v-8.75c0-0.345 0.28-0.625 0.625-0.625s0.625 0.28 0.625 0.625v8.75c0 0.345-0.28 0.625-0.625 0.625z"></path>
</svg>
