<svg xmlns="http://www.w3.org/2000/svg" width="23" height="20" viewBox="0 0 23 20">
<path d="M3.051 14.299c-1.178 1.178-0.343 3.201 1.326 3.201h4.373c0 1.381 1.119 2.5 2.5 2.5s2.5-1.119 2.5-2.5h1.277l-10.033-8.852c-0.086 3.792-1.111 4.819-1.943 5.652zM10.313 17.5c0 0.517 0.421 0.938 0.938 0.938 0.173 0 0.313 0.14 0.313 0.313s-0.14 0.313-0.313 0.313v0c-0.862 0-1.563-0.701-1.563-1.563h0.625zM22.262 19.208l-0.42 0.472c-0.348 0.391-0.951 0.428-1.345 0.083l-20.173-17.639c-0.395-0.345-0.432-0.942-0.084-1.333l0.42-0.472c0.348-0.391 0.951-0.428 1.345-0.083l4.446 3.887c0.938-1.124 2.264-1.914 3.771-2.164-0.138-0.198-0.221-0.443-0.221-0.708 0-0.001 0-0.001 0-0.002v0c0-0.69 0.56-1.25 1.25-1.25s1.25 0.56 1.25 1.25c0 0.264-0.082 0.508-0.221 0.71 2.962 0.491 5.221 3.064 5.221 6.165 0 4.223 1.079 5.305 1.949 6.174 0.475 0.475 0.622 1.085 0.521 1.645l2.208 1.931c0.395 0.345 0.432 0.942 0.084 1.333z"></path>
</svg>
