<svg xmlns="http://www.w3.org/2000/svg" width="15" height="20" viewBox="0 0 15 20">
<path d="M11.906 9.527c1.314-0.724 2.096-2.116 2.096-3.738 0-1.884-1.025-3.423-2.681-4.069-0.964-0.391-1.913-0.469-3.131-0.469h-7.252c-0.345 0-0.625 0.28-0.625 0.625v1.291c0 0.345 0.28 0.625 0.625 0.625h1.293v12.443h-1.293c-0.345 0-0.625 0.28-0.625 0.625v1.266c0 0.345 0.28 0.625 0.625 0.625h7.644c0.945 0 1.751-0.050 2.612-0.296 1.991-0.595 3.494-2.413 3.494-4.781 0-2.038-1.038-3.581-2.782-4.145zM5.555 3.938h2.635c0.636 0 1.076 0.079 1.466 0.262 0.618 0.331 0.973 1.035 0.973 1.931 0 1.368-0.794 2.218-2.071 2.218h-3.002v-4.412zM9.955 15.87c-0.396 0.158-0.886 0.192-1.227 0.192h-3.173v-5.049h3.296c1.549 0 2.463 0.991 2.463 2.463 0 1.11-0.534 2.050-1.359 2.394z"></path>
</svg>
