<svg xmlns="http://www.w3.org/2000/svg" width="19" height="20" viewBox="0 0 19 20">
<path d="M9.688 0.313c-5.352 0-9.688 4.336-9.688 9.688s4.336 9.688 9.688 9.688 9.688-4.336 9.688-9.688-4.336-9.688-9.688-9.688zM4.688 7.5c-0.691 0-1.25-0.559-1.25-1.25s0.559-1.25 1.25-1.25 1.25 0.559 1.25 1.25-0.559 1.25-1.25 1.25zM7.188 3.75c0-0.691 0.559-1.25 1.25-1.25s1.25 0.559 1.25 1.25-0.559 1.25-1.25 1.25-1.25-0.559-1.25-1.25zM9.063 9.375c-0.691 0-1.25-0.559-1.25-1.25s0.559-1.25 1.25-1.25 1.25 0.559 1.25 1.25-0.559 1.25-1.25 1.25z"></path>
</svg>
