<svg xmlns="http://www.w3.org/2000/svg" width="20" height="20" viewBox="0 0 20 20">
<path d="M7.5 4.063h-3.75v-1.875c0-0.518 0.42-0.938 0.938-0.938h1.875c0.518 0 0.938 0.42 0.938 0.938v1.875zM16.25 2.188c0-0.518-0.42-0.938-0.938-0.938h-1.875c-0.518 0-0.938 0.42-0.938 0.938v1.875h3.75v-1.875zM0 17.813c0 0.518 0.42 0.938 0.938 0.938h4.688c0.518 0 0.938-0.42 0.938-0.938v-0.625h-6.563v0.625zM3.438 5c-0.518 0-0.938 0.42-0.938 0.938 0 4.063-2.5 4.688-2.5 10.313h6.563v-4.063c0-0.518 0.42-0.938 0.938-0.938v-6.25h-4.063zM13.438 17.813c0 0.518 0.42 0.938 0.938 0.938h4.688c0.518 0 0.938-0.42 0.938-0.938v-0.625h-6.563v0.625zM8.438 5v6.25h3.125v-6.25h-3.125zM13.438 16.25h6.563c0-5.625-2.5-6.25-2.5-10.313 0-0.518-0.42-0.938-0.938-0.938h-4.063v6.25c0.518 0 0.938 0.42 0.938 0.938v4.063z"></path>
</svg>
