<svg xmlns="http://www.w3.org/2000/svg" width="20" height="20" viewBox="0 0 20 20">
<path d="M20 11.285c-0.019 0.681-0.594 1.215-1.276 1.215h-2.162v0.625c0 0.854-0.191 1.663-0.531 2.388l2.353 2.353c0.488 0.488 0.488 1.28 0 1.768s-1.28 0.488-1.768 0l-2.138-2.138c-0.967 0.784-2.199 1.254-3.54 1.254v-9.531c0-0.259-0.21-0.469-0.469-0.469h-0.938c-0.259 0-0.469 0.21-0.469 0.469v9.531c-1.342 0-2.574-0.47-3.54-1.254l-2.138 2.138c-0.488 0.488-1.28 0.488-1.768 0s-0.488-1.28 0-1.768l2.353-2.353c-0.341-0.725-0.531-1.534-0.531-2.388v-0.625h-2.161c-0.681 0-1.257-0.534-1.276-1.215-0.019-0.706 0.547-1.285 1.249-1.285h2.188v-2.295l-1.821-1.821c-0.488-0.488-0.488-1.28 0-1.768s1.28-0.488 1.768 0l2.134 2.134h8.964l2.134-2.134c0.488-0.488 1.28-0.488 1.768 0s0.488 1.28 0 1.768l-1.821 1.821v2.295h2.188c0.702 0 1.269 0.579 1.25 1.285zM10.039 0c-2.416 0-4.375 1.959-4.375 4.375h8.75c0-2.416-1.959-4.375-4.375-4.375z"></path>
</svg>
