<svg xmlns="http://www.w3.org/2000/svg" width="20" height="20" viewBox="0 0 20 20">
<path d="M10 2.813c3.972 0 7.188 3.215 7.188 7.188s-3.215 7.188-7.188 7.188c-3.972 0-7.188-3.215-7.188-7.188s3.215-7.188 7.188-7.188zM10 0.313c-5.35 0-9.688 4.337-9.688 9.688s4.337 9.688 9.688 9.688 9.688-4.337 9.688-9.688-4.337-9.688-9.688-9.688zM10 7.5c1.379 0 2.5 1.121 2.5 2.5s-1.121 2.5-2.5 2.5-2.5-1.121-2.5-2.5 1.121-2.5 2.5-2.5zM10 5c-2.761 0-5 2.239-5 5s2.239 5 5 5 5-2.239 5-5-2.239-5-5-5z"></path>
</svg>
