<svg xmlns="http://www.w3.org/2000/svg" width="19" height="20" viewBox="0 0 19 20">
<path d="M8.293 0.402c-1.711 0.246-3.367 0.941-4.773 2.102l3.023 3.023c1.086-1.398 1.691-3.172 1.75-5.125zM9.688 8.672l6.168-6.168c-1.656-1.367-3.656-2.090-5.684-2.191-0.047 2.496-0.84 4.777-2.293 6.551l1.809 1.809zM2.191 3.832c-1.16 1.406-1.855 3.063-2.102 4.773 1.953-0.059 3.73-0.664 5.125-1.75l-3.023-3.023zM12.824 11.809c1.77-1.449 4.051-2.242 6.551-2.293-0.102-2.027-0.824-4.027-2.191-5.684l-6.168 6.168 1.809 1.809zM9.688 11.328l-6.168 6.168c1.656 1.363 3.656 2.090 5.684 2.191 0.051-2.5 0.844-4.781 2.293-6.551l-1.809-1.809zM17.184 16.168c1.16-1.406 1.855-3.063 2.102-4.773-1.957 0.063-3.73 0.668-5.125 1.75l3.023 3.023zM6.551 8.191c-1.773 1.453-4.055 2.25-6.551 2.293 0.102 2.027 0.824 4.027 2.191 5.684l6.168-6.168-1.809-1.809zM11.082 19.598c1.711-0.246 3.367-0.941 4.773-2.102l-3.023-3.023c-1.082 1.395-1.688 3.172-1.75 5.125z"></path>
</svg>
