<svg xmlns="http://www.w3.org/2000/svg" width="18" height="20" viewBox="0 0 18 20">
<path d="M16.949 14.299c-0.869-0.869-1.949-1.951-1.949-6.174 0-3.101-2.259-5.675-5.221-6.165 0.138-0.198 0.221-0.443 0.221-0.708 0-0.001 0-0.001 0-0.002v0c0-0.69-0.56-1.25-1.25-1.25s-1.25 0.56-1.25 1.25c0 0.264 0.082 0.508 0.221 0.71-2.962 0.491-5.221 3.064-5.221 6.165 0 4.223-1.080 5.305-1.949 6.174-1.178 1.178-0.343 3.201 1.326 3.201h4.373c0 1.381 1.119 2.5 2.5 2.5s2.5-1.119 2.5-2.5h4.373c1.666 0 2.506-2.021 1.326-3.201zM8.75 18.438c0.173 0 0.313 0.14 0.313 0.313s-0.14 0.313-0.313 0.313v0c-0.862 0-1.563-0.701-1.563-1.563h0.625c0 0.517 0.421 0.938 0.938 0.938z"></path>
</svg>
