<svg xmlns="http://www.w3.org/2000/svg" width="18" height="20" viewBox="0 0 18 20">
<path d="M17.5 15c-1.095 0-1.221-1.25-2.91-1.25-1.696 0-1.829 1.25-2.92 1.25-1.082 0-1.229-1.25-2.92-1.25-1.674 0-1.844 1.25-2.91 1.25-1.1 0-1.219-1.25-2.92-1.25s-1.822 1.25-2.92 1.25v-3.125c0-1.035 0.84-1.875 1.875-1.875h0.625v-5.625h2.5v5.625h2.5v-5.625h2.5v5.625h2.5v-5.625h2.5v5.625h0.625c1.035 0 1.875 0.84 1.875 1.875v3.125zM17.5 20h-17.5v-3.75c1.694 0 1.827-1.25 2.92-1.25 1.092 0 1.221 1.25 2.92 1.25 1.674 0 1.844-1.25 2.91-1.25 1.1 0 1.219 1.25 2.92 1.25 1.694 0 1.827-1.25 2.92-1.25 1.074 0 1.221 1.25 2.91 1.25v3.75zM3.75 3.75c-0.693 0-1.25-0.557-1.25-1.25 0-1.211 1.25-0.898 1.25-2.5 0.469 0 1.25 1.152 1.25 2.188s-0.557 1.563-1.25 1.563zM8.75 3.75c-0.693 0-1.25-0.557-1.25-1.25 0-1.211 1.25-0.898 1.25-2.5 0.469 0 1.25 1.152 1.25 2.188s-0.557 1.563-1.25 1.563zM13.75 3.75c-0.693 0-1.25-0.557-1.25-1.25 0-1.211 1.25-0.898 1.25-2.5 0.469 0 1.25 1.152 1.25 2.188s-0.557 1.563-1.25 1.563z"></path>
</svg>
