<svg xmlns="http://www.w3.org/2000/svg" width="20" height="20" viewBox="0 0 20 20">
<path d="M19.063 10h-15.938v-5.625c0-0.689 0.561-1.25 1.25-1.25 0.443 0 0.833 0.232 1.055 0.581-0.644 0.985-0.574 2.327 0.267 3.244-0.163 0.184-0.157 0.465 0.019 0.642l0.442 0.442c0.183 0.183 0.48 0.183 0.663 0l3.712-3.712c0.183-0.183 0.183-0.48 0-0.663l-0.442-0.442c-0.176-0.176-0.458-0.182-0.642-0.019-0.701-0.643-1.652-0.837-2.507-0.6-0.565-0.813-1.505-1.347-2.568-1.347-1.723 0-3.125 1.402-3.125 3.125v5.625h-0.313c-0.518 0-0.938 0.42-0.938 0.938v0.625c0 0.518 0.42 0.938 0.938 0.938h0.313v1.25c0 1.111 0.483 2.108 1.25 2.795v1.268c0 0.518 0.42 0.938 0.938 0.938h0.625c0.518 0 0.938-0.42 0.938-0.938v-0.313h10v0.313c0 0.518 0.42 0.938 0.938 0.938h0.625c0.518 0 0.938-0.42 0.938-0.938v-1.268c0.767-0.687 1.25-1.684 1.25-2.795v-1.25h0.313c0.518 0 0.938-0.42 0.938-0.938v-0.625c0-0.518-0.42-0.938-0.938-0.938z"></path>
</svg>
