<svg xmlns="http://www.w3.org/2000/svg" width="18" height="20" viewBox="0 0 18 20">
<path d="M17.031 18.75h-0.781v-17.813c0-0.518-0.42-0.938-0.938-0.938h-13.125c-0.518 0-0.938 0.42-0.938 0.938v17.813h-0.781c-0.259 0-0.469 0.21-0.469 0.469v0.781h17.5v-0.781c0-0.259-0.21-0.469-0.469-0.469zM5 2.969c0-0.259 0.21-0.469 0.469-0.469h1.563c0.259 0 0.469 0.21 0.469 0.469v1.563c0 0.259-0.21 0.469-0.469 0.469h-1.563c-0.259 0-0.469-0.21-0.469-0.469v-1.563zM5 6.719c0-0.259 0.21-0.469 0.469-0.469h1.563c0.259 0 0.469 0.21 0.469 0.469v1.563c0 0.259-0.21 0.469-0.469 0.469h-1.563c-0.259 0-0.469-0.21-0.469-0.469v-1.563zM7.031 12.5h-1.563c-0.259 0-0.469-0.21-0.469-0.469v-1.563c0-0.259 0.21-0.469 0.469-0.469h1.563c0.259 0 0.469 0.21 0.469 0.469v1.563c0 0.259-0.21 0.469-0.469 0.469zM10 18.75h-2.5v-3.281c0-0.259 0.21-0.469 0.469-0.469h1.563c0.259 0 0.469 0.21 0.469 0.469v3.281zM12.5 12.031c0 0.259-0.21 0.469-0.469 0.469h-1.563c-0.259 0-0.469-0.21-0.469-0.469v-1.563c0-0.259 0.21-0.469 0.469-0.469h1.563c0.259 0 0.469 0.21 0.469 0.469v1.563zM12.5 8.281c0 0.259-0.21 0.469-0.469 0.469h-1.563c-0.259 0-0.469-0.21-0.469-0.469v-1.563c0-0.259 0.21-0.469 0.469-0.469h1.563c0.259 0 0.469 0.21 0.469 0.469v1.563zM12.5 4.531c0 0.259-0.21 0.469-0.469 0.469h-1.563c-0.259 0-0.469-0.21-0.469-0.469v-1.563c0-0.259 0.21-0.469 0.469-0.469h1.563c0.259 0 0.469 0.21 0.469 0.469v1.563z"></path>
</svg>
