<svg xmlns="http://www.w3.org/2000/svg" width="20" height="20" viewBox="0 0 20 20">
<path d="M12.5 11.25h7.5v5.625c0 1.036-0.839 1.875-1.875 1.875h-16.25c-1.036 0-1.875-0.839-1.875-1.875v-5.625h7.5v0.781c0 0.259 0.21 0.469 0.469 0.469h4.063c0.259 0 0.469-0.21 0.469-0.469v-0.781zM20 6.875v3.125h-20v-3.125c0-1.036 0.839-1.875 1.875-1.875h3.125v-1.875c0-1.036 0.839-1.875 1.875-1.875h6.25c1.036 0 1.875 0.839 1.875 1.875v1.875h3.125c1.036 0 1.875 0.839 1.875 1.875zM12.5 3.75h-5v1.25h5v-1.25z"></path>
</svg>
