<svg xmlns="http://www.w3.org/2000/svg" width="20" height="20" viewBox="0 0 20 20">
<path d="M17.207 3.457l-2.031 2.031 1.035 1.035c0.367 0.367 0.367 0.961 0 1.324l-0.68 0.68c0.461 1.020 0.719 2.152 0.719 3.344 0 4.488-3.637 8.125-8.125 8.125s-8.125-3.633-8.125-8.121 3.637-8.125 8.125-8.125c1.191 0 2.324 0.258 3.344 0.719l0.68-0.68c0.367-0.367 0.961-0.367 1.324 0l1.035 1.035 2.031-2.031 0.668 0.664zM19.531 2.344h-0.938c-0.258 0-0.469 0.211-0.469 0.469s0.211 0.469 0.469 0.469h0.938c0.258 0 0.469-0.211 0.469-0.469s-0.211-0.469-0.469-0.469zM17.188 0c-0.258 0-0.469 0.211-0.469 0.469v0.938c0 0.258 0.211 0.469 0.469 0.469s0.469-0.211 0.469-0.469v-0.938c0-0.258-0.211-0.469-0.469-0.469zM18.512 2.148l0.664-0.664c0.184-0.184 0.184-0.48 0-0.664s-0.48-0.184-0.664 0l-0.664 0.664c-0.184 0.184-0.184 0.48 0 0.664 0.188 0.184 0.484 0.184 0.664 0zM15.863 2.148c0.184 0.184 0.48 0.184 0.664 0s0.184-0.48 0-0.664l-0.664-0.664c-0.184-0.184-0.48-0.184-0.664 0s-0.184 0.48 0 0.664l0.664 0.664zM18.512 3.477c-0.184-0.184-0.48-0.184-0.664 0s-0.184 0.48 0 0.664l0.664 0.664c0.184 0.184 0.48 0.184 0.664 0s0.184-0.48 0-0.664l-0.664-0.664zM4.375 10.625c0-1.379 1.121-2.5 2.5-2.5 0.344 0 0.625-0.281 0.625-0.625s-0.281-0.625-0.625-0.625c-2.066 0-3.75 1.684-3.75 3.75 0 0.344 0.281 0.625 0.625 0.625s0.625-0.281 0.625-0.625z"></path>
</svg>
