<svg xmlns="http://www.w3.org/2000/svg" width="23" height="20" viewBox="0 0 23 20">
<path d="M22.5 8.75c0-0.816-0.522-1.51-1.25-1.768v-4.482c0-1.381-1.119-2.5-2.5-2.5-2.538 2.188-5.548 5-10.625 5h-6.25c-1.036 0-1.875 0.839-1.875 1.875v3.75c0 1.036 0.839 1.875 1.875 1.875h1.69c-0.732 2.525 0.097 4.546 0.735 6.541 0.066 0.208 0.203 0.386 0.388 0.503 0.812 0.514 2.67 0.612 3.663 0.201 0.627-0.259 0.78-1.071 0.294-1.544-0.723-0.704-1.177-1.442-0.773-2.377 0.025-0.056 0.039-0.122 0.039-0.19 0-0.099-0.030-0.191-0.081-0.267l0.001 0.002c-0.637-0.964-0.14-2.426 1.114-2.842 4.587 0.283 7.407 2.907 9.806 4.975 1.381 0 2.5-1.119 2.5-2.5v-4.482c0.728-0.258 1.25-0.952 1.25-1.768zM18.75 14.213c-2.133-1.757-4.884-3.63-8.75-4.101v-2.724c3.866-0.47 6.617-2.344 8.75-4.101v10.926z"></path>
</svg>
