<svg xmlns="http://www.w3.org/2000/svg" width="25" height="20" viewBox="0 0 25 20">
<path d="M20.020 7.5c-0.64-0.002-1.251 0.115-1.814 0.332l-3.034-4.889c-0.168-0.268-0.462-0.443-0.797-0.443-0 0-0 0-0 0h-2.5c-0.345 0-0.625 0.28-0.625 0.625v0.625c0 0.345 0.28 0.625 0.625 0.625h1.978l0.582 0.938h-4.435v-0.625c0-0.345-0.28-0.625-0.625-0.625h-3.416c-0.525 0-0.968 0.43-0.958 0.955 0.009 0.51 0.425 0.92 0.937 0.92h1.903l-1.149 1.856c-0.525-0.189-1.090-0.292-1.679-0.294-2.743-0.007-4.996 2.227-5.012 4.97-0.016 2.775 2.229 5.030 5 5.030 2.33 0 4.287-1.593 4.842-3.75h2.033c0.335 0 0.629-0.176 0.795-0.44l0.002-0.004 3.358-5.424 0.584 0.94c-0.994 0.916-1.617 2.23-1.614 3.689 0.006 2.689 2.262 4.963 4.95 4.989 2.758 0.027 5.007-2.18 5.049-4.922 0.042-2.771-2.208-5.067-4.98-5.078zM7.295 10.382c0.38 0.411 0.651 0.924 0.767 1.493h-1.692l0.924-1.493zM5 15.625c-1.723 0-3.125-1.402-3.125-3.125s1.402-3.125 3.125-3.125c0.229 0 0.453 0.026 0.668 0.073l-1.778 2.871c-0.386 0.623 0.063 1.431 0.797 1.431h3.176c-0.483 1.103-1.584 1.875-2.863 1.875zM11.353 11.875h-1.392c-0.155-1.24-0.764-2.34-1.656-3.126l0.967-1.561h4.982l-2.902 4.688zM19.832 15.621c-1.603-0.085-2.893-1.394-2.954-2.998-0.032-0.825 0.259-1.583 0.755-2.159l1.736 2.796c0.182 0.293 0.567 0.383 0.861 0.201l0.531-0.33c0.293-0.182 0.383-0.567 0.201-0.861l-1.737-2.799c0.232-0.062 0.499-0.098 0.774-0.098 0.001 0 0.001 0 0.002 0h-0c1.723 0 3.125 1.402 3.125 3.125-0 1.779-1.494 3.215-3.293 3.121z"></path>
</svg>
