<svg xmlns="http://www.w3.org/2000/svg" width="20" height="20" viewBox="0 0 20 20">
<path d="M10 10v2.5h-2.5v-2.5h2.5zM10 0h-2.5v2.5h2.5v-2.5zM10 10h2.5v-2.5h-2.5v2.5zM15 0h-2.5v2.5h2.5v-2.5zM15 20h2.5v-2.5h-2.5v2.5zM20 17.5v-2.5h-2.5v2.5h2.5zM5 20h2.5v-2.5h-2.5v2.5zM5 0h-2.5v2.5h2.5v-2.5zM20 7.5v-2.5h-2.5v2.5h2.5zM20 12.5v-2.5h-2.5v2.5h2.5zM0 20h2.5v-2.5h-2.5v2.5zM0 2.5v2.5h2.5v-2.5h-2.5zM0 7.5v2.5h2.5v-2.5h-2.5zM0 12.5v2.5h2.5v-2.5h-2.5zM10 20h2.5v-2.5h-2.5v2.5zM7.5 15v2.5h2.5v-2.5h-2.5zM10 7.5v-2.5h-2.5v2.5h2.5zM2.5 15v2.5h2.5v-2.5h-2.5zM5 10h-2.5v2.5h2.5v-2.5zM15 15h2.5v-2.5h-2.5v2.5zM20 0h-2.5v2.5h2.5v-2.5zM15 10h2.5v-2.5h-2.5v2.5zM15 2.5v2.5h2.5v-2.5h-2.5zM12.5 15v2.5h2.5v-2.5h-2.5zM5 12.5v2.5h2.5v-2.5h-2.5zM10 12.5v2.5h2.5v-2.5h-2.5zM7.5 7.5h-2.5v2.5h2.5v-2.5zM5 5h-2.5v2.5h2.5v-2.5zM12.5 12.5h2.5v-2.5h-2.5v2.5zM7.5 5v-2.5h-2.5v2.5h2.5zM12.5 5v-2.5h-2.5v2.5h2.5zM12.5 7.5h2.5v-2.5h-2.5v2.5z"></path>
</svg>
