<svg xmlns="http://www.w3.org/2000/svg" width="20" height="20" viewBox="0 0 20 20">
<path d="M17.375 11.371l1.665 0.961c0.19 0.11 0.278 0.337 0.213 0.546-0.432 1.392-1.171 2.65-2.136 3.695-0.086 0.093-0.209 0.151-0.345 0.151-0.086 0-0.167-0.023-0.237-0.064l0.002 0.001-1.663-0.961c-0.672 0.578-1.46 1.044-2.321 1.356l-0.052 0.016v1.921c0 0 0 0 0 0 0 0.223-0.155 0.409-0.363 0.457l-0.003 0.001c-1.365 0.307-2.832 0.322-4.266 0-0.214-0.048-0.367-0.238-0.367-0.458v-1.921c-0.914-0.328-1.702-0.794-2.383-1.381l0.010 0.008-1.663 0.961c-0.067 0.039-0.148 0.063-0.235 0.063-0.136 0-0.259-0.058-0.344-0.151l-0-0c-0.966-1.045-1.704-2.303-2.136-3.695-0.065-0.21 0.023-0.437 0.213-0.546l1.665-0.961c-0.080-0.412-0.125-0.886-0.125-1.371s0.046-0.959 0.133-1.418l-0.007 0.047-1.665-0.961c-0.19-0.11-0.278-0.337-0.213-0.546 0.432-1.392 1.171-2.65 2.136-3.695 0.086-0.093 0.209-0.151 0.345-0.151 0.086 0 0.167 0.023 0.237 0.064l-0.002-0.001 1.663 0.961c0.672-0.578 1.46-1.044 2.321-1.356l0.052-0.016v-1.921c0 0 0 0 0 0 0-0.223 0.155-0.409 0.363-0.457l0.003-0.001c1.365-0.307 2.832-0.323 4.266-0 0.214 0.048 0.367 0.238 0.367 0.458v1.921c0.914 0.328 1.702 0.794 2.383 1.381l-0.010-0.008 1.663-0.961c0.067-0.039 0.148-0.063 0.235-0.063 0.136 0 0.259 0.058 0.344 0.151l0 0c0.966 1.045 1.704 2.303 2.136 3.695 0.065 0.21-0.023 0.437-0.213 0.546l-1.665 0.961c0.080 0.412 0.125 0.886 0.125 1.371s-0.046 0.959-0.133 1.418l0.007-0.047zM13.125 10c0-1.723-1.402-3.125-3.125-3.125s-3.125 1.402-3.125 3.125 1.402 3.125 3.125 3.125 3.125-1.402 3.125-3.125z"></path>
</svg>
