<svg xmlns="http://www.w3.org/2000/svg" width="15" height="20" viewBox="0 0 15 20">
<path d="M3.173 8.399c-0.011 1.715-0.15 5.197-1.298 9.101h11.249c-1.148-3.891-1.287-7.379-1.298-9.101l1.774-1.653c0.092-0.086 0.149-0.208 0.149-0.343 0-0 0-0 0-0v0-4.685c0-0.259-0.21-0.469-0.469-0.469h-1.563c-0.259 0-0.469 0.21-0.469 0.469v1.719h-1.875v-1.719c0-0.259-0.21-0.469-0.469-0.469h-2.813c-0.259 0-0.469 0.21-0.469 0.469v1.719h-1.875v-1.719c0-0.259-0.21-0.469-0.469-0.469h-1.562c-0.259 0-0.469 0.21-0.469 0.469v4.685c0 0.13 0.054 0.254 0.149 0.343l1.774 1.653zM6.25 10c0-0.69 0.56-1.25 1.25-1.25s1.25 0.56 1.25 1.25v2.5h-2.5v-2.5zM15 18.594v0.938c0 0.259-0.21 0.469-0.469 0.469h-14.063c-0.259 0-0.469-0.21-0.469-0.469v-0.938c0-0.259 0.21-0.469 0.469-0.469h14.063c0.259 0 0.469 0.21 0.469 0.469z"></path>
</svg>
