<svg xmlns="http://www.w3.org/2000/svg" width="20" height="20" viewBox="0 0 20 20">
<path d="M18.125 2.5h-16.25c-1.035 0-1.875 0.84-1.875 1.875v11.25c0 1.035 0.84 1.875 1.875 1.875h16.25c1.035 0 1.875-0.84 1.875-1.875v-11.25c0-1.035-0.84-1.875-1.875-1.875zM8.52 11.238c0.109-0.098 0.277-0.082 0.359 0.035l0.762 1.082c0.066 0.094 0.059 0.219-0.020 0.301-2.094 2.219-6.75 1.254-6.75-2.652 0-3.801 4.754-4.668 6.738-2.738 0.082 0.078 0.098 0.125 0.039 0.223l-0.684 1.191c-0.074 0.121-0.242 0.156-0.355 0.066-1.594-1.25-3.695-0.582-3.695 1.219 0.004 1.875 1.996 2.754 3.605 1.273zM15.957 11.238c0.109-0.098 0.277-0.082 0.359 0.035l0.762 1.082c0.066 0.094 0.059 0.219-0.020 0.301-2.090 2.223-6.746 1.254-6.746-2.652 0-3.801 4.754-4.668 6.738-2.738 0.082 0.078 0.098 0.125 0.039 0.223l-0.684 1.191c-0.074 0.121-0.242 0.156-0.355 0.066-1.594-1.25-3.695-0.582-3.695 1.219 0 1.875 1.992 2.754 3.602 1.273z"></path>
</svg>
