<svg xmlns="http://www.w3.org/2000/svg" width="20" height="20" viewBox="0 0 20 20">
<path d="M20 5.625v11.25c0 1.035-0.84 1.875-1.875 1.875h-16.25c-1.035 0-1.875-0.84-1.875-1.875v-11.25c0-1.035 0.84-1.875 1.875-1.875h3.438l0.48-1.285c0.273-0.73 0.973-1.215 1.754-1.215h4.902c0.781 0 1.48 0.484 1.754 1.215l0.484 1.285h3.438c1.035 0 1.875 0.84 1.875 1.875zM14.688 11.25c0-2.586-2.102-4.688-4.688-4.688s-4.688 2.102-4.688 4.688 2.102 4.688 4.688 4.688 4.688-2.102 4.688-4.688zM13.438 11.25c0 1.895-1.543 3.438-3.438 3.438s-3.438-1.543-3.438-3.438 1.543-3.438 3.438-3.438 3.438 1.543 3.438 3.438z"></path>
</svg>
