<svg xmlns="http://www.w3.org/2000/svg" width="25" height="20" viewBox="0 0 25 20">
<path d="M20.004 7.461l-0.32 0.559c-0.117 0.207-0.367 0.293-0.59 0.211-0.461-0.172-0.883-0.418-1.254-0.727-0.18-0.148-0.227-0.41-0.109-0.613l0.32-0.559c-0.27-0.313-0.48-0.676-0.621-1.070h-0.645c-0.234 0-0.438-0.168-0.477-0.402-0.078-0.469-0.082-0.961 0-1.449 0.039-0.234 0.242-0.406 0.477-0.406h0.645c0.141-0.395 0.352-0.758 0.621-1.070l-0.32-0.559c-0.117-0.203-0.074-0.465 0.109-0.613 0.371-0.309 0.797-0.555 1.254-0.727 0.223-0.082 0.473 0.004 0.59 0.211l0.32 0.559c0.41-0.074 0.828-0.074 1.238 0l0.32-0.559c0.117-0.207 0.367-0.293 0.59-0.211 0.461 0.172 0.883 0.418 1.254 0.727 0.18 0.148 0.227 0.41 0.109 0.613l-0.32 0.559c0.27 0.313 0.48 0.676 0.621 1.070h0.645c0.234 0 0.438 0.168 0.477 0.402 0.078 0.469 0.082 0.961 0 1.449-0.039 0.234-0.242 0.406-0.477 0.406h-0.645c-0.141 0.395-0.352 0.758-0.621 1.070l0.32 0.559c0.117 0.203 0.074 0.465-0.109 0.613-0.371 0.309-0.797 0.555-1.254 0.727-0.223 0.082-0.473-0.004-0.59-0.211l-0.32-0.559c-0.406 0.074-0.828 0.074-1.238 0zM19.594 5.164c1.504 1.156 3.219-0.559 2.063-2.063-1.504-1.16-3.219 0.559-2.063 2.063zM15.090 11.176l1.316 0.656c0.395 0.227 0.566 0.707 0.41 1.137-0.348 0.945-1.031 1.813-1.664 2.57-0.289 0.348-0.789 0.434-1.184 0.207l-1.137-0.656c-0.625 0.535-1.352 0.961-2.145 1.238v1.313c0 0.453-0.324 0.844-0.77 0.922-0.961 0.164-1.969 0.172-2.965 0-0.449-0.078-0.781-0.465-0.781-0.922v-1.313c-0.793-0.281-1.52-0.703-2.145-1.238l-1.137 0.652c-0.391 0.227-0.895 0.141-1.184-0.207-0.633-0.758-1.301-1.625-1.648-2.566-0.156-0.426 0.016-0.906 0.41-1.137l1.301-0.656c-0.152-0.816-0.152-1.656 0-2.477l-1.301-0.66c-0.395-0.227-0.57-0.707-0.41-1.133 0.348-0.945 1.016-1.813 1.648-2.57 0.289-0.348 0.789-0.434 1.184-0.207l1.137 0.656c0.625-0.535 1.352-0.961 2.145-1.238v-1.316c0-0.449 0.32-0.84 0.766-0.918 0.961-0.164 1.973-0.172 2.969-0.004 0.449 0.078 0.781 0.465 0.781 0.922v1.313c0.793 0.281 1.52 0.703 2.145 1.238l1.137-0.656c0.391-0.227 0.895-0.141 1.184 0.207 0.633 0.758 1.297 1.625 1.645 2.57 0.156 0.426 0.004 0.906-0.391 1.137l-1.316 0.656c0.152 0.82 0.152 1.66 0 2.48zM10.496 12c2.313-3.008-1.121-6.441-4.129-4.129-2.313 3.008 1.121 6.441 4.129 4.129zM20.004 19.137l-0.32 0.559c-0.117 0.207-0.367 0.293-0.59 0.211-0.461-0.172-0.883-0.418-1.254-0.727-0.18-0.148-0.227-0.41-0.109-0.613l0.32-0.559c-0.27-0.313-0.48-0.676-0.621-1.070h-0.645c-0.234 0-0.438-0.168-0.477-0.402-0.078-0.469-0.082-0.961 0-1.449 0.039-0.234 0.242-0.406 0.477-0.406h0.645c0.141-0.395 0.352-0.758 0.621-1.070l-0.32-0.559c-0.117-0.203-0.074-0.465 0.109-0.613 0.371-0.309 0.797-0.555 1.254-0.727 0.223-0.082 0.473 0.004 0.59 0.211l0.32 0.559c0.41-0.074 0.828-0.074 1.238 0l0.32-0.559c0.117-0.207 0.367-0.293 0.59-0.211 0.461 0.172 0.883 0.418 1.254 0.727 0.18 0.148 0.227 0.41 0.109 0.613l-0.32 0.559c0.27 0.313 0.48 0.676 0.621 1.070h0.645c0.234 0 0.438 0.168 0.477 0.402 0.078 0.469 0.082 0.961 0 1.449-0.039 0.234-0.242 0.406-0.477 0.406h-0.645c-0.141 0.395-0.352 0.758-0.621 1.070l0.32 0.559c0.117 0.203 0.074 0.465-0.109 0.613-0.371 0.309-0.797 0.555-1.254 0.727-0.223 0.082-0.473-0.004-0.59-0.211l-0.32-0.559c-0.406 0.074-0.828 0.074-1.238 0zM19.594 16.836c1.504 1.156 3.219-0.559 2.063-2.063-1.504-1.156-3.219 0.559-2.063 2.063z"></path>
</svg>
