<svg xmlns="http://www.w3.org/2000/svg" width="18" height="20" viewBox="0 0 18 20">
<path d="M17.363 16.501c0.183 0.183 0.183 0.48 0 0.663-1.281 1.281-3.359 1.281-4.64 0l-4.512-4.512-0.971 0.971c0.168 0.426 0.261 0.891 0.261 1.377 0 2.071-1.679 3.75-3.75 3.75s-3.75-1.679-3.75-3.75 1.679-3.75 3.75-3.75c0.177 0 0.351 0.013 0.522 0.036l1.286-1.286-1.286-1.286c-0.171 0.024-0.345 0.036-0.522 0.036-2.071 0-3.75-1.679-3.75-3.75s1.679-3.75 3.75-3.75 3.75 1.679 3.75 3.75c0 0.486-0.093 0.951-0.261 1.377l0.971 0.971 4.512-4.512c1.281-1.281 3.359-1.281 4.64 0 0.183 0.183 0.183 0.48 0 0.663l-6.501 6.501 6.501 6.501zM3.75 3.75c-0.689 0-1.25 0.561-1.25 1.25s0.561 1.25 1.25 1.25 1.25-0.561 1.25-1.25-0.561-1.25-1.25-1.25zM3.75 13.75c-0.689 0-1.25 0.561-1.25 1.25s0.561 1.25 1.25 1.25 1.25-0.561 1.25-1.25-0.561-1.25-1.25-1.25zM8.125 9.531c-0.259 0-0.469 0.21-0.469 0.469s0.21 0.469 0.469 0.469 0.469-0.21 0.469-0.469-0.21-0.469-0.469-0.469z"></path>
</svg>
