<svg xmlns="http://www.w3.org/2000/svg" width="18" height="20" viewBox="0 0 18 20">
<path d="M17.031 6.25h-16.563c-0.258 0-0.469-0.211-0.469-0.469v-1.406c0-1.035 0.84-1.875 1.875-1.875h1.875v-2.031c0-0.258 0.211-0.469 0.469-0.469h1.563c0.258 0 0.469 0.211 0.469 0.469v2.031h5v-2.031c0-0.258 0.211-0.469 0.469-0.469h1.563c0.258 0 0.469 0.211 0.469 0.469v2.031h1.875c1.035 0 1.875 0.84 1.875 1.875v1.406c0 0.258-0.211 0.469-0.469 0.469zM0.469 7.5h16.563c0.258 0 0.469 0.211 0.469 0.469v10.156c0 1.035-0.84 1.875-1.875 1.875h-13.75c-1.035 0-1.875-0.84-1.875-1.875v-10.156c0-0.258 0.211-0.469 0.469-0.469zM12.813 12.969c0-0.258-0.211-0.469-0.469-0.469h-2.344v-2.344c0-0.258-0.211-0.469-0.469-0.469h-1.563c-0.258 0-0.469 0.211-0.469 0.469v2.344h-2.344c-0.258 0-0.469 0.211-0.469 0.469v1.563c0 0.258 0.211 0.469 0.469 0.469h2.344v2.344c0 0.258 0.211 0.469 0.469 0.469h1.563c0.258 0 0.469-0.211 0.469-0.469v-2.344h2.344c0.258 0 0.469-0.211 0.469-0.469v-1.563z"></path>
</svg>
