<svg xmlns="http://www.w3.org/2000/svg" width="20" height="20" viewBox="0 0 20 20">
<path d="M7.806 8.501c0.129 0 0.234 0.105 0.234 0.234v0l-0 0.811c0 0.129-0.105 0.234-0.234 0.234v0h-1.008c0 1.239-0.084 3.758 0.68 5.986h-4.954c0.779-2.273 0.681-4.859 0.681-5.986h-1.009c-0.129 0-0.234-0.105-0.234-0.234v0l0-0.811c0-0.129 0.105-0.234 0.234-0.234v0h5.611zM1.623 4.496l1.351 3.714h4.052l1.35-3.714c0.111-0.306-0.115-0.629-0.441-0.629h-1.999v-1.18h0.843c0.129 0 0.234-0.105 0.234-0.234v0-0.874c0-0.129-0.105-0.234-0.234-0.234v0h-1.108v-1.109c0-0.129-0.105-0.234-0.234-0.234v0h-0.874c-0.129 0-0.234 0.105-0.234 0.234v0 1.109h-1.109c-0.129 0-0.234 0.105-0.234 0.234v0 0.874c0 0.129 0.105 0.234 0.234 0.234v0h0.843v1.18h-1.999c-0.325 0-0.552 0.323-0.441 0.629zM8.698 17.389v-1.096c0-0.129-0.105-0.234-0.234-0.234v0h-6.928c-0.129 0-0.234 0.105-0.234 0.234v0 1.096l-0.865 0.553c-0.065 0.042-0.108 0.115-0.108 0.197 0 0 0 0 0 0v0 1.625c0 0.129 0.105 0.234 0.234 0.234v0h8.874c0.129 0 0.234-0.105 0.234-0.234v0-1.625c0 0 0-0 0-0 0-0.083-0.043-0.155-0.107-0.197l-0.001-0.001-0.865-0.553zM12.237 11.756l0.972 0.663c0.004 0.708-0.007 2.496-0.465 4.474h5.763c-0.458-1.972-0.468-3.763-0.464-4.474l0.971-0.662c0.040-0.027 0.066-0.073 0.066-0.124 0-0 0-0 0-0v0-2.731c0-0.083-0.067-0.151-0.151-0.151v0h-1.080c-0.083 0-0.151 0.067-0.151 0.151v0 1.231h-0.888v-1.231c0-0.083-0.067-0.151-0.151-0.151-0 0-0 0-0 0h-2.067c-0.083 0-0.151 0.067-0.151 0.151v0 1.231h-0.888v-1.231c0-0.083-0.067-0.151-0.151-0.151v0h-1.080c-0.083 0-0.151 0.067-0.151 0.151v0 2.731c0 0 0 0 0 0 0 0.051 0.026 0.097 0.065 0.124l0.001 0zM15.033 13.783c0-0.327 0.265-0.592 0.592-0.592s0.592 0.265 0.592 0.592v1.184h-1.184v-1.184zM19.712 18.362l-0.534-0.416v-0.607c0-0.083-0.067-0.151-0.151-0.151v0h-6.804c-0.083 0-0.151 0.067-0.151 0.151v0 0.607l-0.534 0.416c-0.036 0.028-0.058 0.071-0.058 0.119 0 0 0 0 0 0v0 1.369c0 0.083 0.067 0.151 0.151 0.151v0h7.988c0.083 0 0.151-0.067 0.151-0.151v-1.369c-0-0.048-0.023-0.091-0.058-0.119l-0-0z"></path>
</svg>
