<svg xmlns="http://www.w3.org/2000/svg" width="25" height="20" viewBox="0 0 25 20">
<path d="M25 13.75c0 2.761-2.239 5-5 5h-14.375c-3.107 0-5.625-2.518-5.625-5.625 0-2.452 1.569-4.537 3.758-5.307-0.005-0.095-0.008-0.206-0.008-0.318v-0c0-3.452 2.798-6.25 6.25-6.25 2.316 0 4.338 1.26 5.417 3.131 0.596-0.399 1.312-0.631 2.083-0.631 2.071 0 3.75 1.679 3.75 3.75 0 0.476-0.089 0.931-0.251 1.35 2.282 0.463 4.001 2.481 4.001 4.9zM15.366 11.25h-2.554v-4.375c0-0.345-0.28-0.625-0.625-0.625h-1.875c-0.345 0-0.625 0.28-0.625 0.625v4.375h-2.554c-0.557 0-0.836 0.673-0.442 1.067l4.116 4.116c0.244 0.244 0.64 0.244 0.884 0l4.116-4.116c0.394-0.394 0.115-1.067-0.442-1.067z"></path>
</svg>
