<svg xmlns="http://www.w3.org/2000/svg" width="18" height="20" viewBox="0 0 18 20">
<path d="M12.5 17.5v1.563c0 0.518-0.42 0.938-0.938 0.938h-10.625c-0.518 0-0.938-0.42-0.938-0.938v-14.375c0-0.518 0.42-0.938 0.938-0.938h2.813v11.563c0 1.206 0.981 2.188 2.188 2.188h6.563zM12.5 4.063v-4.063h-6.563c-0.518 0-0.938 0.42-0.938 0.938v14.375c0 0.518 0.42 0.938 0.938 0.938h10.625c0.518 0 0.938-0.42 0.938-0.938v-10.313h-4.063c-0.516 0-0.938-0.422-0.938-0.938zM17.225 2.85l-2.576-2.576c-0.17-0.17-0.404-0.275-0.663-0.275h-0.237v3.75h3.75v-0.237c0-0.259-0.105-0.493-0.275-0.663v0z"></path>
</svg>
