<svg xmlns="http://www.w3.org/2000/svg" width="23" height="20" viewBox="0 0 23 20">
<path d="M0 16.875c0 1.035 0.84 1.875 1.875 1.875h18.75c1.035 0 1.875-0.84 1.875-1.875v-6.875h-22.5v6.875zM7.5 14.219c0-0.258 0.211-0.469 0.469-0.469h5.313c0.258 0 0.469 0.211 0.469 0.469v1.563c0 0.258-0.211 0.469-0.469 0.469h-5.313c-0.258 0-0.469-0.211-0.469-0.469v-1.563zM2.5 14.219c0-0.258 0.211-0.469 0.469-0.469h2.813c0.258 0 0.469 0.211 0.469 0.469v1.563c0 0.258-0.211 0.469-0.469 0.469h-2.813c-0.258 0-0.469-0.211-0.469-0.469v-1.563zM22.5 3.125v1.875h-22.5v-1.875c0-1.035 0.84-1.875 1.875-1.875h18.75c1.035 0 1.875 0.84 1.875 1.875z"></path>
</svg>
