<svg xmlns="http://www.w3.org/2000/svg" width="20" height="20" viewBox="0 0 20 20">
<path d="M19.531 6.563h-2.141l-0.307-0.818c-0.359-0.958-0.993-1.772-1.834-2.354s-1.825-0.89-2.848-0.89h-4.803c-1.023 0-2.007 0.308-2.848 0.89s-1.475 1.396-1.834 2.354l-0.307 0.818h-2.141c-0.32 0-0.546 0.313-0.445 0.617l0.313 0.938c0.064 0.188 0.239 0.321 0.445 0.321h1.126l-0.002 0.005c-0.764 0.428-1.28 1.244-1.28 2.182v1.875c0 0.634 0.236 1.212 0.625 1.653v2.41c0 0.518 0.42 0.938 0.938 0.938h1.875c0.518 0 0.938-0.42 0.938-0.938v-1.563h10v1.563c0 0.518 0.42 0.938 0.938 0.938h1.875c0.518 0 0.938-0.42 0.938-0.938v-2.41c0.389-0.441 0.625-1.019 0.625-1.653v-1.875c0-0.938-0.516-1.754-1.28-2.182l-0.002-0.005h1.126c0.206 0 0.381-0.133 0.444-0.317l0.001-0.003 0.313-0.938c0.101-0.304-0.125-0.617-0.445-0.617zM5.258 6.622c0.364-0.97 1.305-1.622 2.341-1.622h4.803c1.036 0 1.977 0.652 2.341 1.622l0.564 1.503h-10.611l0.564-1.503zM3.438 12.813c-0.69 0-1.25-0.56-1.25-1.25s0.56-1.25 1.25-1.25 1.875 1.185 1.875 1.875-1.185 0.625-1.875 0.625zM16.563 12.813c-0.69 0-1.875 0.065-1.875-0.625s1.185-1.875 1.875-1.875 1.25 0.56 1.25 1.25c0 0.69-0.56 1.25-1.25 1.25z"></path>
</svg>
