<svg xmlns="http://www.w3.org/2000/svg" width="13" height="20" viewBox="0 0 13 20">
<path d="M4.811 3.042c-0.617-0.209-1.061-0.792-1.061-1.48 0-0.863 0.7-1.563 1.563-1.563h1.867c0.863 0 1.563 0.7 1.563 1.563 0 0.685-0.441 1.267-1.055 1.478 0.937 0.651 1.898 1.83 2.684 3.205l-4.71 4.71c-0.042 0.042-0.069 0.101-0.069 0.166s0.026 0.123 0.069 0.166l0.552 0.552c0.042 0.042 0.101 0.069 0.166 0.069s0.123-0.026 0.166-0.069l4.428-4.427c0.694 1.496 1.147 3.103 1.147 4.464 0 2.101-0.894 2.96-2.283 3.361v2.264h-7.174v-2.264c-1.388-0.4-2.283-1.26-2.283-3.361 0-3.048 2.277-7.335 4.43-8.833zM12.5 19.531v-0.938c0-0.259-0.21-0.469-0.469-0.469h-11.563c-0.259 0-0.469 0.21-0.469 0.469v0.938c0 0.259 0.21 0.469 0.469 0.469h11.563c0.259 0 0.469-0.21 0.469-0.469z"></path>
</svg>
