<svg xmlns="http://www.w3.org/2000/svg" width="18" height="20" viewBox="0 0 18 20">
<path d="M16.25 18.594v0.938c0 0.259-0.21 0.469-0.469 0.469h-14.063c-0.259 0-0.469-0.21-0.469-0.469v-0.938c0-0.259 0.21-0.469 0.469-0.469h14.063c0.259 0 0.469 0.21 0.469 0.469zM15.936 5.938h-6.249v-1.875h1.953c0.129 0 0.234-0.105 0.234-0.234v0-1.406c0-0.129-0.105-0.234-0.234-0.234v0h-1.953v-1.953c0-0.129-0.105-0.234-0.234-0.234v0h-1.406c-0.129 0-0.234 0.105-0.234 0.234v0 1.953h-1.953c-0.129 0-0.234 0.105-0.234 0.234v0 1.406c0 0.129 0.105 0.234 0.234 0.234v0h1.953v1.875h-6.249c-1.077 0-1.831 1.064-1.474 2.080l3.332 9.482h10.658l3.332-9.482c0.357-1.016-0.397-2.080-1.474-2.080z"></path>
</svg>
