<svg xmlns="http://www.w3.org/2000/svg" width="23" height="20" viewBox="0 0 23 20">
<path d="M19.716 12.5h-11.451l0.256 1.25h10.485c0.602 0 1.048 0.559 0.914 1.145l-0.216 0.948c0.73 0.354 1.234 1.103 1.234 1.969 0 1.219-0.997 2.205-2.22 2.187-1.165-0.017-2.123-0.962-2.154-2.127-0.017-0.636 0.238-1.213 0.656-1.623h-8.189c0.405 0.397 0.657 0.95 0.657 1.563 0 1.243-1.036 2.243-2.292 2.185-1.115-0.052-2.022-0.953-2.080-2.067-0.045-0.861 0.408-1.619 1.096-2.015l-2.744-13.415h-2.73c-0.518 0-0.938-0.42-0.938-0.938v-0.625c0-0.518 0.42-0.938 0.938-0.938h4.005c0.445 0 0.829 0.313 0.918 0.75l0.358 1.75h15.343c0.602 0 1.048 0.559 0.914 1.145l-1.847 8.125c-0.097 0.427-0.476 0.73-0.914 0.73zM15.743 7.5h-1.681v-2.344c0-0.259-0.21-0.469-0.469-0.469h-0.938c-0.259 0-0.469 0.21-0.469 0.469v2.344h-1.681c-0.418 0-0.627 0.505-0.331 0.8l2.618 2.618c0.183 0.183 0.48 0.183 0.663 0l2.618-2.618c0.295-0.295 0.086-0.8-0.331-0.8z"></path>
</svg>
