<svg xmlns="http://www.w3.org/2000/svg" width="23" height="20" viewBox="0 0 23 20">
<path d="M11.25 0.48v8.895h8.895c0.27 0 0.48-0.227 0.469-0.496-0.25-4.781-4.082-8.617-8.867-8.867-0.27-0.012-0.496 0.199-0.496 0.469zM21.59 11.25c0.27 0 0.48 0.227 0.469 0.496-0.109 2.078-0.906 4.125-2.391 5.773-0.18 0.199-0.492 0.211-0.684 0.020l-6.289-6.289h8.895zM15.664 16.914c0.188 0.188 0.184 0.5-0.016 0.676-1.664 1.5-3.867 2.41-6.281 2.41-5.164-0.004-9.375-4.227-9.367-9.395 0.008-5.004 3.938-9.086 8.879-9.344 0.27-0.016 0.496 0.199 0.496 0.469v8.895l6.289 6.289z"></path>
</svg>
