<svg xmlns="http://www.w3.org/2000/svg" width="20" height="20" viewBox="0 0 20 20">
<path d="M19.086 9.773l-3.773-1.414v-4.238c0-0.586-0.363-1.109-0.914-1.316l-3.906-1.465c-0.316-0.121-0.668-0.121-0.988 0l-3.906 1.465c-0.551 0.207-0.914 0.73-0.914 1.316v4.238l-3.773 1.414c-0.547 0.207-0.91 0.73-0.91 1.316v4.301c0 0.531 0.301 1.020 0.777 1.258l3.906 1.953c0.395 0.199 0.863 0.199 1.258 0l4.059-2.031 4.059 2.031c0.395 0.199 0.863 0.199 1.258 0l3.906-1.953c0.477-0.238 0.777-0.727 0.777-1.258v-4.301c0-0.586-0.363-1.109-0.914-1.316zM13.984 8.391l-3.32 1.246v-2.664l3.32-1.445v2.863zM6.016 4.066l3.984-1.492 3.984 1.492v0.023l-3.984 1.617-3.984-1.617v-0.023zM9.297 15.438l-3.32 1.66v-3.090l3.32-1.516v2.945zM9.297 11.063l-3.984 1.617-3.984-1.617v-0.023l3.984-1.492 3.984 1.492v0.023zM18.672 15.438l-3.32 1.66v-3.090l3.32-1.516v2.945zM18.672 11.063l-3.984 1.617-3.984-1.617v-0.023l3.984-1.492 3.984 1.492v0.023z"></path>
</svg>
