<svg xmlns="http://www.w3.org/2000/svg" width="18" height="20" viewBox="0 0 18 20">
<path d="M17.031 6.25h-16.563c-0.259 0-0.469-0.21-0.469-0.469v-1.406c0-1.036 0.839-1.875 1.875-1.875h1.875v-2.031c0-0.259 0.21-0.469 0.469-0.469h1.563c0.259 0 0.469 0.21 0.469 0.469v2.031h5v-2.031c0-0.259 0.21-0.469 0.469-0.469h1.563c0.259 0 0.469 0.21 0.469 0.469v2.031h1.875c1.036 0 1.875 0.839 1.875 1.875v1.406c0 0.259-0.21 0.469-0.469 0.469zM0.469 7.5h16.563c0.259 0 0.469 0.21 0.469 0.469v10.156c0 1.036-0.839 1.875-1.875 1.875h-13.75c-1.036 0-1.875-0.839-1.875-1.875v-10.156c0-0.259 0.21-0.469 0.469-0.469zM13.488 11.248l-1.1-1.109c-0.182-0.184-0.479-0.185-0.663-0.003l-4.142 4.109-1.796-1.811c-0.182-0.184-0.479-0.185-0.663-0.003l-1.109 1.1c-0.184 0.182-0.185 0.479-0.003 0.663l3.227 3.253c0.182 0.184 0.479 0.185 0.663 0.003l5.584-5.539c0.184-0.182 0.185-0.479 0.003-0.663z"></path>
</svg>
