<svg xmlns="http://www.w3.org/2000/svg" width="20" height="20" viewBox="0 0 20 20">
<path d="M19.531 8.75h-1.186c-0.543-3.659-3.436-6.552-7.095-7.095v-1.186c0-0.259-0.21-0.469-0.469-0.469h-1.563c-0.259 0-0.469 0.21-0.469 0.469v1.186c-3.659 0.543-6.552 3.436-7.095 7.095h-1.186c-0.259 0-0.469 0.21-0.469 0.469v1.563c0 0.259 0.21 0.469 0.469 0.469h1.186c0.543 3.659 3.436 6.552 7.095 7.095v1.186c0 0.259 0.21 0.469 0.469 0.469h1.563c0.259 0 0.469-0.21 0.469-0.469v-1.186c3.659-0.543 6.552-3.436 7.095-7.095h1.186c0.259 0 0.469-0.21 0.469-0.469v-1.563c0-0.259-0.21-0.469-0.469-0.469zM11.25 15.806v-1.587c0-0.259-0.21-0.469-0.469-0.469h-1.563c-0.259 0-0.469 0.21-0.469 0.469v1.587c-2.272-0.484-4.071-2.281-4.556-4.556h1.587c0.259 0 0.469-0.21 0.469-0.469v-1.563c0-0.259-0.21-0.469-0.469-0.469h-1.587c0.484-2.272 2.281-4.071 4.556-4.556v1.587c0 0.259 0.21 0.469 0.469 0.469h1.563c0.259 0 0.469-0.21 0.469-0.469v-1.587c2.272 0.484 4.071 2.281 4.556 4.556h-1.587c-0.259 0-0.469 0.21-0.469 0.469v1.563c0 0.259 0.21 0.469 0.469 0.469h1.587c-0.484 2.272-2.281 4.071-4.556 4.556zM11.25 10c0 0.69-0.56 1.25-1.25 1.25s-1.25-0.56-1.25-1.25c0-0.69 0.56-1.25 1.25-1.25s1.25 0.56 1.25 1.25z"></path>
</svg>
