<svg xmlns="http://www.w3.org/2000/svg" width="25" height="20" viewBox="0 0 25 20">
<path d="M10.895 19.98l-2.383-0.691c-0.25-0.070-0.391-0.332-0.32-0.582l5.332-18.367c0.070-0.25 0.332-0.391 0.582-0.32l2.383 0.691c0.25 0.070 0.391 0.332 0.32 0.582l-5.332 18.367c-0.074 0.25-0.332 0.395-0.582 0.32zM6.441 15.598l1.699-1.812c0.18-0.191 0.168-0.496-0.031-0.672l-3.539-3.113 3.539-3.113c0.199-0.176 0.215-0.48 0.031-0.672l-1.699-1.813c-0.176-0.188-0.473-0.199-0.664-0.020l-5.629 5.273c-0.199 0.184-0.199 0.5 0 0.684l5.629 5.277c0.191 0.18 0.488 0.172 0.664-0.020zM19.223 15.621l5.629-5.277c0.199-0.184 0.199-0.5 0-0.684l-5.629-5.281c-0.188-0.176-0.484-0.168-0.664 0.020l-1.699 1.813c-0.18 0.191-0.168 0.496 0.031 0.672l3.539 3.117-3.539 3.113c-0.199 0.176-0.215 0.48-0.031 0.672l1.699 1.813c0.176 0.191 0.473 0.199 0.664 0.023z"></path>
</svg>
