<svg xmlns="http://www.w3.org/2000/svg" width="18" height="20" viewBox="0 0 18 20">
<path d="M17.031 7.5h-4.844c-0.52 0-0.938-0.418-0.938-0.938v-4.844c0-0.258 0.211-0.469 0.469-0.469h1.563c0.258 0 0.469 0.211 0.469 0.469v3.281h3.281c0.258 0 0.469 0.211 0.469 0.469v1.563c0 0.258-0.211 0.469-0.469 0.469zM6.25 6.563v-4.844c0-0.258-0.211-0.469-0.469-0.469h-1.563c-0.258 0-0.469 0.211-0.469 0.469v3.281h-3.281c-0.258 0-0.469 0.211-0.469 0.469v1.563c0 0.258 0.211 0.469 0.469 0.469h4.844c0.52 0 0.938-0.418 0.938-0.938zM6.25 18.281v-4.844c0-0.52-0.418-0.938-0.938-0.938h-4.844c-0.258 0-0.469 0.211-0.469 0.469v1.563c0 0.258 0.211 0.469 0.469 0.469h3.281v3.281c0 0.258 0.211 0.469 0.469 0.469h1.563c0.258 0 0.469-0.211 0.469-0.469zM13.75 18.281v-3.281h3.281c0.258 0 0.469-0.211 0.469-0.469v-1.563c0-0.258-0.211-0.469-0.469-0.469h-4.844c-0.52 0-0.938 0.418-0.938 0.938v4.844c0 0.258 0.211 0.469 0.469 0.469h1.563c0.258 0 0.469-0.211 0.469-0.469z"></path>
</svg>
