<svg xmlns="http://www.w3.org/2000/svg" width="20" height="20" viewBox="0 0 20 20">
<path d="M19.063 13.75h-1.563v-9.48l2.227-2.227c0.367-0.367 0.367-0.961 0-1.324l-0.441-0.445c-0.367-0.367-0.961-0.367-1.324 0l-2.227 2.227h-9.484v-1.563c0-0.52-0.418-0.938-0.938-0.938h-1.875c-0.52 0-0.938 0.418-0.938 0.938v1.563h-1.563c-0.52 0-0.938 0.418-0.938 0.938v1.875c0 0.52 0.418 0.938 0.938 0.938h1.563v10.313c0 0.52 0.418 0.938 0.938 0.938h10.313v1.563c0 0.52 0.418 0.938 0.938 0.938h1.875c0.52 0 0.938-0.418 0.938-0.938v-1.563h1.563c0.52 0 0.938-0.418 0.938-0.938v-1.875c0-0.52-0.418-0.938-0.938-0.938zM11.98 6.25l-5.73 5.73v-5.73h5.73zM8.020 13.75l5.73-5.73v5.73h-5.73z"></path>
</svg>
