<svg xmlns="http://www.w3.org/2000/svg" width="18" height="20" viewBox="0 0 18 20">
<path d="M17.031 6.25h-16.563c-0.258 0-0.469-0.211-0.469-0.469v-1.406c0-1.035 0.84-1.875 1.875-1.875h1.875v-2.031c0-0.258 0.211-0.469 0.469-0.469h1.563c0.258 0 0.469 0.211 0.469 0.469v2.031h5v-2.031c0-0.258 0.211-0.469 0.469-0.469h1.563c0.258 0 0.469 0.211 0.469 0.469v2.031h1.875c1.035 0 1.875 0.84 1.875 1.875v1.406c0 0.258-0.211 0.469-0.469 0.469zM0.469 7.5h16.563c0.258 0 0.469 0.211 0.469 0.469v10.156c0 1.035-0.84 1.875-1.875 1.875h-13.75c-1.035 0-1.875-0.84-1.875-1.875v-10.156c0-0.258 0.211-0.469 0.469-0.469zM10.52 13.75l1.879-1.879c0.184-0.184 0.184-0.48 0-0.664l-1.105-1.105c-0.184-0.184-0.48-0.184-0.664 0l-1.879 1.879-1.879-1.879c-0.184-0.184-0.48-0.184-0.664 0l-1.105 1.105c-0.184 0.184-0.184 0.48 0 0.664l1.879 1.879-1.879 1.879c-0.184 0.184-0.184 0.48 0 0.664l1.105 1.105c0.184 0.184 0.48 0.184 0.664 0l1.879-1.879 1.879 1.879c0.184 0.184 0.48 0.184 0.664 0l1.105-1.105c0.184-0.184 0.184-0.48 0-0.664l-1.879-1.879z"></path>
</svg>
