<svg xmlns="http://www.w3.org/2000/svg" width="20" height="20" viewBox="0 0 20 20">
<path d="M10 0.313c-5.35 0-9.688 4.337-9.688 9.688s4.337 9.688 9.688 9.688 9.688-4.337 9.688-9.688-4.337-9.688-9.688-9.688zM14.576 13.858c-0.062 0.073-1.554 1.786-4.291 1.786-3.308 0-5.644-2.471-5.644-5.686 0-3.176 2.422-5.602 5.616-5.602 2.616 0 3.983 1.458 4.040 1.52 0.076 0.083 0.123 0.195 0.123 0.317 0 0.095-0.028 0.182-0.076 0.256l0.001-0.002-0.874 1.354c-0.158 0.245-0.499 0.287-0.712 0.090-0.009-0.008-1.036-0.933-2.417-0.933-1.801 0-2.887 1.312-2.887 2.972 0 1.547 0.997 3.113 2.901 3.113 1.512 0 2.55-1.107 2.56-1.118 0.2-0.217 0.549-0.197 0.723 0.041l0.959 1.311c0.056 0.076 0.090 0.173 0.090 0.277 0 0.116-0.042 0.223-0.112 0.305l0.001-0.001z"></path>
</svg>
