<svg xmlns="http://www.w3.org/2000/svg" width="18" height="20" viewBox="0 0 18 20">
<path d="M0.469 7.5h16.563c0.258 0 0.469 0.211 0.469 0.469v10.156c0 1.035-0.84 1.875-1.875 1.875h-13.75c-1.035 0-1.875-0.84-1.875-1.875v-10.156c0-0.258 0.211-0.469 0.469-0.469zM17.5 5.781v-1.406c0-1.035-0.84-1.875-1.875-1.875h-1.875v-2.031c0-0.258-0.211-0.469-0.469-0.469h-1.563c-0.258 0-0.469 0.211-0.469 0.469v2.031h-5v-2.031c0-0.258-0.211-0.469-0.469-0.469h-1.563c-0.258 0-0.469 0.211-0.469 0.469v2.031h-1.875c-1.035 0-1.875 0.84-1.875 1.875v1.406c0 0.258 0.211 0.469 0.469 0.469h16.563c0.258 0 0.469-0.211 0.469-0.469z"></path>
</svg>
