<svg xmlns="http://www.w3.org/2000/svg" width="20" height="20" viewBox="0 0 20 20">
<path d="M19.531 15c0.258 0 0.469 0.211 0.469 0.469v1.563c0 0.258-0.211 0.469-0.469 0.469h-19.063c-0.258 0-0.469-0.211-0.469-0.469v-14.063c0-0.258 0.211-0.469 0.469-0.469h1.563c0.258 0 0.469 0.211 0.469 0.469v12.031h17.031zM17.813 3.75h-4.375c-0.836 0-1.254 1.012-0.664 1.602l1.285 1.285-2.813 2.848-2.172-2.172c-0.184-0.184-0.477-0.184-0.66 0l-4.648 4.602c-0.184 0.18-0.188 0.477-0.008 0.66l1.113 1.148c0.184 0.188 0.484 0.191 0.668 0.004l3.207-3.207 2.168 2.168c0.184 0.184 0.48 0.184 0.664 0l4.266-4.266 1.305 1.305c0.59 0.59 1.602 0.172 1.602-0.664v-4.375c0-0.52-0.418-0.938-0.938-0.938z"></path>
</svg>
