<svg xmlns="http://www.w3.org/2000/svg" width="20" height="20" viewBox="0 0 20 20">
<path d="M17.915 9.997l1.796-1.758c0.535-0.507 0.286-1.408-0.417-1.576l-2.447-0.625 0.69-2.422c0.195-0.697-0.462-1.354-1.159-1.159l-2.422 0.69-0.624-2.448c-0.165-0.691-1.076-0.944-1.575-0.417l-1.757 1.81-1.757-1.81c-0.493-0.522-1.408-0.283-1.575 0.417l-0.624 2.448-2.422-0.69c-0.697-0.195-1.354 0.462-1.159 1.159l0.69 2.422-2.447 0.625c-0.703 0.168-0.952 1.069-0.417 1.576l1.796 1.758-1.796 1.758c-0.535 0.507-0.286 1.408 0.417 1.576l2.447 0.625-0.69 2.422c-0.195 0.697 0.462 1.354 1.159 1.159l2.422-0.69 0.624 2.448c0.173 0.726 1.082 0.938 1.575 0.417l1.757-1.797 1.757 1.797c0.488 0.527 1.406 0.292 1.575-0.417l0.624-2.448 2.422 0.69c0.697 0.195 1.354-0.462 1.159-1.159l-0.69-2.422 2.447-0.625c0.703-0.168 0.952-1.069 0.417-1.576l-1.796-1.758z"></path>
</svg>
