<svg xmlns="http://www.w3.org/2000/svg" width="13" height="20" viewBox="0 0 13 20">
<path d="M10.313 17.5h-8.125s2.344-1.67 2.344-6.875h-1.25c-0.259 0-0.469-0.21-0.469-0.469v-0.938c0-0.259 0.21-0.469 0.469-0.469h1.571c-1.113-0.525-1.883-1.657-1.883-2.969 0-1.812 1.469-3.281 3.281-3.281s3.281 1.469 3.281 3.281c0 1.312-0.77 2.444-1.883 2.969h1.571c0.259 0 0.469 0.21 0.469 0.469v0.938c0 0.259-0.21 0.469-0.469 0.469h-1.25c0 5.205 2.344 6.875 2.344 6.875zM11.406 18.125h-10.313c-0.259 0-0.469 0.21-0.469 0.469v0.938c0 0.259 0.21 0.469 0.469 0.469h10.313c0.259 0 0.469-0.21 0.469-0.469v-0.938c0-0.259-0.21-0.469-0.469-0.469z"></path>
</svg>
