<svg xmlns="http://www.w3.org/2000/svg" width="20" height="20" viewBox="0 0 20 20">
<path d="M1.875 1.25c-1.035 0-1.875 0.84-1.875 1.875v13.75c0 1.035 0.84 1.875 1.875 1.875h16.25c1.035 0 1.875-0.84 1.875-1.875v-13.75c0-1.035-0.84-1.875-1.875-1.875h-16.25zM1.875 2.5h4.141c0.129 0 0.234 0.105 0.234 0.234v0.781c0 0.129-0.105 0.234-0.234 0.234h-4.531c-0.129 0-0.234-0.105-0.234-0.234v-0.391c0-0.344 0.281-0.625 0.625-0.625zM18.516 6.25h-17.031c-0.129 0-0.234-0.105-0.234-0.234v-1.406c0-0.129 0.105-0.234 0.234-0.234h5.391l1.18-1.77c0.043-0.066 0.117-0.105 0.195-0.105h9.875c0.344 0 0.625 0.281 0.625 0.625v2.891c0 0.129-0.105 0.234-0.234 0.234zM10 16.563c-2.586 0-4.688-2.102-4.688-4.688s2.102-4.688 4.688-4.688 4.688 2.102 4.688 4.688-2.102 4.688-4.688 4.688zM10 8.438c-1.895 0-3.438 1.543-3.438 3.438s1.543 3.438 3.438 3.438 3.438-1.543 3.438-3.438-1.543-3.438-3.438-3.438zM8.125 12.5c-0.344 0-0.625-0.281-0.625-0.625 0-1.379 1.121-2.5 2.5-2.5 0.344 0 0.625 0.281 0.625 0.625s-0.281 0.625-0.625 0.625c-0.688 0-1.25 0.563-1.25 1.25 0 0.344-0.281 0.625-0.625 0.625z"></path>
</svg>
