<svg xmlns="http://www.w3.org/2000/svg" width="15" height="20" viewBox="0 0 15 20">
<path d="M15 5.625c0-1.727-1.398-3.125-3.125-3.125s-3.125 1.398-3.125 3.125c0 1.422 0.949 2.621 2.246 3-0.023 0.629-0.164 1.113-0.43 1.441-0.602 0.75-1.926 0.875-3.328 1.004-1.102 0.102-2.242 0.211-3.176 0.66v-5.625c1.27-0.398 2.187-1.582 2.187-2.98 0-1.727-1.398-3.125-3.125-3.125s-3.125 1.398-3.125 3.125c0 1.398 0.918 2.582 2.188 2.98v7.785c-1.27 0.402-2.188 1.586-2.188 2.984 0 1.727 1.398 3.125 3.125 3.125s3.125-1.398 3.125-3.125c0-1.328-0.828-2.465-2-2.914 0.121-0.203 0.305-0.383 0.582-0.523 0.633-0.32 1.578-0.406 2.582-0.5 1.648-0.152 3.516-0.328 4.617-1.695 0.547-0.68 0.824-1.555 0.844-2.652 1.234-0.422 2.125-1.59 2.125-2.965zM3.125 2.5c0.344 0 0.625 0.281 0.625 0.625s-0.281 0.625-0.625 0.625-0.625-0.281-0.625-0.625 0.281-0.625 0.625-0.625zM3.125 17.5c-0.344 0-0.625-0.281-0.625-0.625s0.281-0.625 0.625-0.625 0.625 0.281 0.625 0.625-0.281 0.625-0.625 0.625zM11.875 5c0.344 0 0.625 0.281 0.625 0.625s-0.281 0.625-0.625 0.625-0.625-0.281-0.625-0.625 0.281-0.625 0.625-0.625z"></path>
</svg>
