<svg xmlns="http://www.w3.org/2000/svg" width="20" height="20" viewBox="0 0 20 20">
<path d="M19.688 10c0 5.35-4.337 9.688-9.688 9.688s-9.688-4.337-9.688-9.688 4.337-9.688 9.688-9.688 9.688 4.337 9.688 9.688zM12.010 4.72l-4.009 3.819c-0.127 0.121-0.22 0.277-0.263 0.452l-0.001 0.006-1.303 5.382c-0.222 0.916 0.89 1.536 1.558 0.899l4.009-3.819c0.127-0.121 0.22-0.277 0.263-0.452l0.001-0.006 1.303-5.382c0.219-0.906-0.882-1.543-1.558-0.899zM10 8.75c-0.69 0-1.25 0.56-1.25 1.25s0.56 1.25 1.25 1.25 1.25-0.56 1.25-1.25-0.56-1.25-1.25-1.25z"></path>
</svg>
