<svg xmlns="http://www.w3.org/2000/svg" width="20" height="20" viewBox="0 0 20 20">
<path d="M17.031 20h-14.063c-0.259 0-0.469-0.21-0.469-0.469v-0.938c0-0.259 0.21-0.469 0.469-0.469h14.063c0.259 0 0.469 0.21 0.469 0.469v0.938c0 0.259-0.21 0.469-0.469 0.469zM9.984 0c-1.208 0-2.188 0.979-2.188 2.188s0.979 2.188 2.188 2.188 2.188-0.979 2.188-2.188-0.979-2.188-2.188-2.188zM17.974 6.040c-0.225-0.119-0.505-0.036-0.628 0.186-0.337 0.606-0.889 1.477-1.721 1.477-1.122 0-1.196-0.774-1.238-2.248-0.007-0.254-0.215-0.456-0.469-0.456h-1.602c-0.202 0-0.381 0.13-0.445 0.322-0.347 1.043-1.018 1.601-1.872 1.601s-1.525-0.558-1.872-1.601c-0.064-0.192-0.243-0.322-0.445-0.322h-1.602c-0.254 0-0.461 0.202-0.469 0.456-0.041 1.47-0.115 2.248-1.238 2.248-0.808 0-1.321-0.79-1.735-1.485-0.128-0.214-0.401-0.29-0.621-0.174l-1.53 0.808c-0.15 0.080-0.25 0.236-0.25 0.415 0 0.064 0.013 0.125 0.036 0.18l-0.001-0.003 4.102 10.057h11.25l4.102-10.057c0.022-0.052 0.035-0.113 0.035-0.177 0-0.179-0.1-0.334-0.247-0.413l-0.003-0.001-1.537-0.811z"></path>
</svg>
