<svg xmlns="http://www.w3.org/2000/svg" width="18" height="20" viewBox="0 0 18 20">
<path d="M15.625 18.75h-13.75c-1.036 0-1.875-0.839-1.875-1.875v-13.75c0-1.036 0.839-1.875 1.875-1.875h13.75c1.036 0 1.875 0.839 1.875 1.875v13.75c0 1.036-0.839 1.875-1.875 1.875zM7.629 14.92l7.187-7.188c0.244-0.244 0.244-0.64 0-0.884l-0.884-0.884c-0.244-0.244-0.64-0.244-0.884 0l-5.862 5.862-2.737-2.737c-0.244-0.244-0.64-0.244-0.884 0l-0.884 0.884c-0.244 0.244-0.244 0.64 0 0.884l4.063 4.063c0.244 0.244 0.64 0.244 0.884 0z"></path>
</svg>
