<svg xmlns="http://www.w3.org/2000/svg" width="23" height="20" viewBox="0 0 23 20">
<path d="M8.75 14.018c-1.469 0-2.853-0.264-4.068-0.73-1.226 0.959-2.729 1.543-4.327 1.711-0.010 0.001-0.023 0.002-0.035 0.002h-0c-0.146 0-0.278-0.098-0.313-0.237-0.038-0.155 0.082-0.25 0.2-0.363 0.587-0.564 1.298-1.007 1.576-2.902-1.119-1.072-1.783-2.411-1.783-3.864 0-3.526 3.918-6.384 8.75-6.384s8.75 2.858 8.75 6.384c-0 3.529-3.918 6.384-8.75 6.384zM22.307 18.204c-0.545-0.513-1.205-0.916-1.463-2.638 2.688-2.522 2.038-6.13-1.472-8.088 0.001 0.052 0.003 0.104 0.003 0.156 0 4.785-5.062 8.453-11.104 8.251 1.489 1.209 3.671 1.972 6.104 1.972 1.364 0 2.649-0.24 3.777-0.664 1.138 0.872 2.534 1.403 4.018 1.555 0.148 0.015 0.288-0.077 0.323-0.214 0.036-0.141-0.076-0.227-0.186-0.33z"></path>
</svg>
