<svg xmlns="http://www.w3.org/2000/svg" width="20" height="20" viewBox="0 0 20 20">
<path d="M9.34 0.246l-8.125 3.047c-0.73 0.273-1.215 0.977-1.215 1.758v8.793c0 0.711 0.402 1.359 1.035 1.676l8.125 4.063c0.527 0.266 1.148 0.266 1.676 0l8.125-4.063c0.637-0.316 1.035-0.969 1.035-1.676v-8.793c0-0.781-0.484-1.48-1.215-1.754l-8.125-3.047c-0.422-0.164-0.891-0.164-1.316-0.004zM10 2.672l7.5 2.813v0.043l-7.5 3.047-7.5-3.047v-0.043l7.5-2.813zM11.25 16.578v-5.816l6.25-2.539v5.23l-6.25 3.125z"></path>
</svg>
