<svg xmlns="http://www.w3.org/2000/svg" width="15" height="20" viewBox="0 0 15 20">
<path d="M13.75 8.75v8.75h-12.5v-1.819c0-1.184 0.669-2.266 1.727-2.795l2.236-1.118c0.619-0.315 1.036-0.947 1.036-1.677 0 0 0 0 0-0v0-1.966l-0.864 0.432c-0.242 0.123-0.421 0.342-0.489 0.605l-0.001 0.007-0.462 1.849c-0.038 0.147-0.142 0.265-0.278 0.32l-0.003 0.001-1.156 0.462c-0.052 0.021-0.111 0.034-0.174 0.034-0.069 0-0.134-0.015-0.193-0.042l0.003 0.001-2.353-1.046c-0.165-0.075-0.278-0.238-0.278-0.428 0 0 0-0 0-0v0-6.182c0-0.249 0.099-0.487 0.275-0.663l0.35-0.35-0.555-1.11c-0.044-0.086-0.070-0.188-0.070-0.296 0-0 0-0 0-0v0c0-0.259 0.21-0.469 0.469-0.469h5.781c4.142 0 7.5 3.358 7.5 7.5zM14.531 18.125h-14.063c-0.259 0-0.469 0.21-0.469 0.469v0.938c0 0.259 0.21 0.469 0.469 0.469h14.063c0.259 0 0.469-0.21 0.469-0.469v-0.938c0-0.259-0.21-0.469-0.469-0.469zM2.031 5c-0.431 0-0.781 0.35-0.781 0.781s0.35 0.781 0.781 0.781 0.781-0.35 0.781-0.781-0.35-0.781-0.781-0.781z"></path>
</svg>
