<svg xmlns="http://www.w3.org/2000/svg" width="20" height="20" viewBox="0 0 20 20">
<path d="M11.25 1.526v0.651c0 0.422 0.284 0.787 0.691 0.901 3.028 0.846 5.247 3.623 5.247 6.923 0 3.972-3.215 7.188-7.188 7.188s-7.188-3.215-7.188-7.188c0-3.3 2.218-6.077 5.247-6.923 0.407-0.114 0.691-0.479 0.691-0.901v-0.65c0-0.614-0.579-1.061-1.174-0.908-4.193 1.080-7.287 4.898-7.264 9.434 0.028 5.354 4.355 9.647 9.708 9.635 5.341-0.011 9.667-4.344 9.667-9.687 0-4.517-3.091-8.312-7.274-9.384-0.59-0.151-1.164 0.3-1.164 0.91z"></path>
</svg>
