<svg xmlns="http://www.w3.org/2000/svg" width="15" height="20" viewBox="0 0 15 20">
<path d="M15 4.375v13.75c0 1.036-0.839 1.875-1.875 1.875h-11.25c-1.036 0-1.875-0.839-1.875-1.875v-13.75c0-1.036 0.839-1.875 1.875-1.875h3.125c0-1.379 1.121-2.5 2.5-2.5s2.5 1.121 2.5 2.5h3.125c1.036 0 1.875 0.839 1.875 1.875zM7.5 1.563c-0.518 0-0.938 0.42-0.938 0.938s0.42 0.938 0.938 0.938 0.938-0.42 0.938-0.938-0.42-0.938-0.938-0.938zM11.25 6.016v-0.781c0-0.129-0.105-0.234-0.234-0.234v0h-7.031c-0.129 0-0.234 0.105-0.234 0.234v0 0.781c0 0.129 0.105 0.234 0.234 0.234v0h7.031c0.129 0 0.234-0.105 0.234-0.234v0z"></path>
</svg>
