<svg xmlns="http://www.w3.org/2000/svg" width="15" height="20" viewBox="0 0 15 20">
<path d="M4.688 2.813c0-1.553 1.259-2.813 2.813-2.813s2.813 1.259 2.813 2.813c0 1.553-1.259 2.813-2.813 2.813s-2.813-1.259-2.813-2.813zM14.634 2.866c-0.488-0.488-1.28-0.488-1.768 0l-3.384 3.384h-3.964l-3.384-3.384c-0.488-0.488-1.28-0.488-1.768 0s-0.488 1.28 0 1.768l3.696 3.696v10.42c0 0.69 0.56 1.25 1.25 1.25h0.625c0.69 0 1.25-0.56 1.25-1.25v-4.375h0.625v4.375c0 0.69 0.56 1.25 1.25 1.25h0.625c0.69 0 1.25-0.56 1.25-1.25v-10.42l3.696-3.696c0.488-0.488 0.488-1.28 0-1.768z"></path>
</svg>
