<svg xmlns="http://www.w3.org/2000/svg" width="13" height="20" viewBox="0 0 13 20">
<path d="M4.43 6.616c0-0.912 0.841-1.501 2.143-1.501 1.044 0 2.114 0.479 2.987 1.107 0.23 0.165 0.552 0.092 0.687-0.157l0.92-1.701c0.103-0.191 0.062-0.429-0.101-0.573-0.948-0.839-2.31-1.332-3.566-1.477v-1.845c0-0.259-0.21-0.469-0.469-0.469h-1.563c-0.259 0-0.469 0.21-0.469 0.469v1.947c-2.29 0.519-3.801 2.184-3.801 4.244 0 4.826 7.217 4.329 7.217 6.618 0 0.774-0.637 1.608-2.036 1.608-1.201 0-2.458-0.62-3.432-1.402-0.207-0.167-0.511-0.129-0.67 0.084l-1.187 1.589c-0.142 0.19-0.12 0.455 0.051 0.619 0.939 0.899 2.314 1.612 3.857 1.874v1.883c0 0.259 0.21 0.469 0.469 0.469h1.563c0.259 0 0.469-0.21 0.469-0.469v-1.853c2.567-0.399 4.148-2.312 4.148-4.551 0-4.675-7.217-4.051-7.217-6.511z"></path>
</svg>
