<svg xmlns="http://www.w3.org/2000/svg" width="20" height="20" viewBox="0 0 20 20">
<path d="M8.438 10.156c0 0.604-0.49 1.094-1.094 1.094s-1.094-0.49-1.094-1.094c0-1.723 1.402-3.125 3.125-3.125s3.125 1.402 3.125 3.125c0 0.604-0.49 1.094-1.094 1.094s-1.094-0.49-1.094-1.094c0-0.517-0.421-0.938-0.938-0.938s-0.938 0.421-0.938 0.938zM9.375 3.281c-3.791 0-6.875 3.084-6.875 6.875 0 0.604 0.49 1.094 1.094 1.094s1.094-0.49 1.094-1.094c0-2.585 2.103-4.688 4.688-4.688s4.688 2.103 4.688 4.688c0 2.936-2.774 2.747-2.812 5.61l-0 0.015c0 1.12-0.911 2.031-2.031 2.031-0.604 0-1.094 0.49-1.094 1.094s0.49 1.094 1.094 1.094c2.323 0 4.214-1.888 4.219-4.21 0.023-1.345 2.813-1.884 2.813-5.634 0-3.791-3.084-6.875-6.875-6.875zM19.863 1.242l-1.105-1.105c-0.183-0.183-0.48-0.183-0.663 0l-3.4 3.4c-0.183 0.183-0.183 0.48 0 0.663l1.105 1.105c0.183 0.183 0.48 0.183 0.663 0l3.4-3.4c0.183-0.183 0.183-0.48 0-0.663zM6.6 12.295c-0.183-0.183-0.48-0.183-0.663 0l-5.8 5.8c-0.183 0.183-0.183 0.48 0 0.663l1.105 1.105c0.183 0.183 0.48 0.183 0.663 0l5.8-5.8c0.183-0.183 0.183-0.48 0-0.663l-1.105-1.105z"></path>
</svg>
