<svg xmlns="http://www.w3.org/2000/svg" width="20" height="20" viewBox="0 0 20 20">
<path d="M8.438 0h3.125c0.52 0 0.938 0.418 0.938 0.938v6.563h3.426c0.695 0 1.043 0.84 0.551 1.332l-5.941 5.945c-0.293 0.293-0.773 0.293-1.066 0l-5.949-5.945c-0.492-0.492-0.145-1.332 0.551-1.332h3.43v-6.563c0-0.52 0.418-0.938 0.938-0.938zM20 14.688v4.375c0 0.52-0.418 0.938-0.938 0.938h-18.125c-0.52 0-0.938-0.418-0.938-0.938v-4.375c0-0.52 0.418-0.938 0.938-0.938h5.73l1.914 1.914c0.785 0.785 2.051 0.785 2.836 0l1.914-1.914h5.73c0.52 0 0.938 0.418 0.938 0.938zM15.156 18.125c0-0.43-0.352-0.781-0.781-0.781s-0.781 0.352-0.781 0.781 0.352 0.781 0.781 0.781 0.781-0.352 0.781-0.781zM17.656 18.125c0-0.43-0.352-0.781-0.781-0.781s-0.781 0.352-0.781 0.781 0.352 0.781 0.781 0.781 0.781-0.352 0.781-0.781z"></path>
</svg>
