<svg xmlns="http://www.w3.org/2000/svg" width="18" height="20" viewBox="0 0 18 20">
<path d="M17.5 2.857v1.786c0 1.574-3.919 2.857-8.75 2.857s-8.75-1.283-8.75-2.857v-1.786c0-1.574 3.919-2.857 8.75-2.857s8.75 1.283 8.75 2.857zM17.5 6.875v4.018c0 1.574-3.919 2.857-8.75 2.857s-8.75-1.283-8.75-2.857v-4.018c1.88 1.295 5.321 1.897 8.75 1.897s6.87-0.603 8.75-1.897zM17.5 13.125v4.018c0 1.574-3.919 2.857-8.75 2.857s-8.75-1.283-8.75-2.857v-4.018c1.88 1.295 5.321 1.897 8.75 1.897s6.87-0.603 8.75-1.897z"></path>
</svg>
