<svg xmlns="http://www.w3.org/2000/svg" width="18" height="20" viewBox="0 0 18 20">
<path d="M15.625 1.25h-13.75c-1.036 0-1.875 0.839-1.875 1.875v13.75c0 1.036 0.839 1.875 1.875 1.875h13.75c1.036 0 1.875-0.839 1.875-1.875v-13.75c0-1.036-0.839-1.875-1.875-1.875zM6.958 10.238c-3.542-2.571-3.506-2.577-4.458-3.318v-0.983c0-0.518 0.42-0.938 0.938-0.938h10.625c0.518 0 0.938 0.42 0.938 0.938v0.983c-0.952 0.741-0.915 0.747-4.458 3.318-0.41 0.299-1.226 1.020-1.792 1.011-0.567 0.009-1.382-0.712-1.792-1.012zM15 8.507v5.556c0 0.518-0.42 0.938-0.938 0.938h-10.625c-0.518 0-0.938-0.42-0.938-0.938v-5.556c0.545 0.422 1.302 0.986 3.723 2.743 0.553 0.404 1.483 1.256 2.527 1.25 1.050 0.005 1.994-0.861 2.528-1.251 2.42-1.756 3.177-2.321 3.722-2.742z"></path>
</svg>
