<svg xmlns="http://www.w3.org/2000/svg" width="23" height="20" viewBox="0 0 23 20">
<path d="M11.199 15.312l1.273 1.818c-0.366 0.037-0.791 0.057-1.221 0.058h-0c-4.68 0-8.788-2.498-10.99-6.236-0.163-0.272-0.26-0.601-0.26-0.952s0.096-0.68 0.264-0.96l-0.005 0.009c0.938-1.592 2.223-2.96 3.751-4.005l2.23 3.185c-0.196 0.554-0.303 1.151-0.303 1.772 0 2.919 2.349 5.284 5.261 5.312zM22.24 10.952c-1.237 2.099-3.076 3.807-5.28 4.901l0 0.001 1.62 2.313c0.297 0.424 0.194 1.009-0.23 1.305l-0.512 0.359c-0.424 0.297-1.009 0.194-1.305-0.23l-12.613-17.766c-0.297-0.424-0.194-1.009 0.23-1.305l0.512-0.359c0.424-0.297 1.009-0.194 1.305 0.23l1.994 2.837c1.050-0.277 2.152-0.424 3.289-0.424 4.68 0 8.788 2.498 10.99 6.236 0.163 0.272 0.26 0.601 0.26 0.952s-0.096 0.68-0.264 0.96l0.005-0.009zM16.563 10c0-2.936-2.376-5.313-5.313-5.313-0.701 0-1.369 0.136-1.982 0.382l0.754 1.057c1.011-0.319 2.15-0.241 3.141 0.289h-0.001c-0.924 0-1.673 0.749-1.673 1.673s0.748 1.673 1.673 1.673c0.924 0 1.673-0.749 1.673-1.673v-0.001c0.721 1.347 0.637 3.044-0.322 4.334v0l0.754 1.057c0.808-0.932 1.296-2.148 1.296-3.479zM10.235 13.935l-3.029-4.326c-0.196 2.046 1.145 3.842 3.029 4.326z"></path>
</svg>
