<svg xmlns="http://www.w3.org/2000/svg" width="23" height="20" viewBox="0 0 23 20">
<path d="M22.24 9.048c-2.203-3.738-6.31-6.236-10.99-6.236-4.682 0-8.789 2.5-10.99 6.236-0.163 0.272-0.26 0.601-0.26 0.952s0.096 0.68 0.264 0.96l-0.005-0.009c2.203 3.738 6.31 6.236 10.99 6.236 4.682 0 8.789-2.5 10.99-6.236 0.163-0.272 0.26-0.601 0.26-0.952s-0.096-0.68-0.264-0.96l0.005 0.009zM11.25 15.313c-2.936 0-5.313-2.376-5.313-5.313s2.376-5.313 5.313-5.313c2.936 0 5.313 2.376 5.313 5.313s-2.376 5.313-5.313 5.313zM15.313 10c0 2.244-1.819 4.063-4.063 4.063s-4.063-1.819-4.063-4.063c0-0.692 0.173-1.343 0.478-1.913l-0 0.001c0 0.924 0.749 1.673 1.673 1.673s1.673-0.749 1.673-1.673c0-0.924-0.749-1.673-1.673-1.673l-0.001 0c0.57-0.305 1.221-0.478 1.913-0.478 2.244 0 4.063 1.819 4.063 4.062z"></path>
</svg>
