<svg xmlns="http://www.w3.org/2000/svg" width="18" height="20" viewBox="0 0 18 20">
<path d="M17.504 13.438v4.375c0 0.52-0.418 0.938-0.938 0.938h-4.375c-0.836 0-1.254-1.012-0.664-1.602l1.414-1.414-4.191-4.188-4.188 4.191 1.414 1.41c0.59 0.59 0.172 1.602-0.664 1.602h-4.375c-0.52 0-0.938-0.418-0.938-0.938v-4.375c0-0.836 1.012-1.254 1.602-0.664l1.414 1.414 4.191-4.188-4.191-4.191-1.414 1.418c-0.59 0.59-1.602 0.172-1.602-0.664v-4.375c0-0.52 0.418-0.938 0.938-0.938h4.375c0.836 0 1.254 1.012 0.664 1.602l-1.414 1.414 4.188 4.187 4.191-4.191-1.414-1.41c-0.59-0.59-0.172-1.602 0.664-1.602h4.375c0.52 0 0.938 0.418 0.938 0.938v4.375c0 0.836-1.012 1.254-1.602 0.664l-1.414-1.414-4.191 4.187 4.191 4.191 1.414-1.414c0.59-0.594 1.602-0.176 1.602 0.66z"></path>
</svg>
