<svg xmlns="http://www.w3.org/2000/svg" width="20" height="20" viewBox="0 0 20 20">
<path d="M0 6.563v-0.625c0-0.518 0.42-0.938 0.938-0.938h14.063v-1.875c0-0.835 1.012-1.252 1.6-0.663l3.125 3.125c0.366 0.366 0.366 0.96 0 1.326l-3.125 3.125c-0.587 0.586-1.6 0.175-1.6-0.663v-1.875h-14.063c-0.518 0-0.938-0.42-0.938-0.938zM19.063 12.5h-14.063v-1.875c0-0.833-1.010-1.253-1.6-0.663l-3.125 3.125c-0.366 0.366-0.366 0.96 0 1.326l3.125 3.125c0.587 0.587 1.6 0.174 1.6-0.663v-1.875h14.063c0.518 0 0.938-0.42 0.938-0.938v-0.625c0-0.518-0.42-0.938-0.938-0.938z"></path>
</svg>
