<svg xmlns="http://www.w3.org/2000/svg" width="20" height="20" viewBox="0 0 20 20">
<path d="M19.688 10c0 5.351-4.338 9.688-9.688 9.688s-9.688-4.336-9.688-9.688c0-5.348 4.338-9.688 9.688-9.688s9.688 4.339 9.688 9.688zM10 11.953c-0.992 0-1.797 0.804-1.797 1.797s0.804 1.797 1.797 1.797 1.797-0.804 1.797-1.797-0.804-1.797-1.797-1.797zM8.294 5.494l0.29 5.313c0.014 0.249 0.219 0.443 0.468 0.443h1.896c0.249 0 0.454-0.195 0.468-0.443l0.29-5.313c0.015-0.269-0.199-0.494-0.468-0.494h-2.476c-0.269 0-0.483 0.226-0.468 0.494z"></path>
</svg>
