<svg xmlns="http://www.w3.org/2000/svg" width="20" height="20" viewBox="0 0 20 20">
<path d="M6.929 8.072l-5.404 5.404c-0.17 0.17-0.275 0.404-0.275 0.663v2.424l-1.25 2.188 1.25 1.25 2.188-1.25h2.424c0.248 0 0.487-0.099 0.663-0.275l5.404-5.404-5-5zM15.74 9.262l0.662 0.662c0.366 0.366 0.366 0.96 0 1.326l-1.601 1.6c-0.363 0.364-0.957 0.369-1.326 0l-6.326-6.326c-0.366-0.366-0.366-0.96 0-1.326l1.6-1.6c0.363-0.364 0.957-0.369 1.326 0l0.664 0.664 3.227-3.227c1.375-1.375 3.613-1.387 5 0 1.582 1.878 1.159 3.841 0 5l-3.227 3.227z"></path>
</svg>
