<svg xmlns="http://www.w3.org/2000/svg" width="23" height="20" viewBox="0 0 23 20">
<path d="M22.247 17.188c0.721 1.25-0.184 2.812-1.624 2.812h-18.746c-1.443 0-2.344-1.565-1.624-2.812l9.373-16.251c0.721-1.25 2.528-1.248 3.248 0l9.373 16.251zM11.25 13.828c-0.992 0-1.797 0.804-1.797 1.797s0.804 1.797 1.797 1.797 1.797-0.804 1.797-1.797-0.804-1.797-1.797-1.797zM9.544 7.369l0.29 5.313c0.014 0.249 0.219 0.443 0.468 0.443h1.896c0.249 0 0.454-0.195 0.468-0.443l0.29-5.313c0.015-0.269-0.199-0.494-0.468-0.494h-2.476c-0.269 0-0.483 0.226-0.468 0.494z"></path>
</svg>
