<svg xmlns="http://www.w3.org/2000/svg" width="20" height="20" viewBox="0 0 20 20">
<path d="M19.621 7.453c0.152-0.121 0.379-0.008 0.379 0.184v7.988c0 1.035-0.84 1.875-1.875 1.875h-16.25c-1.035 0-1.875-0.84-1.875-1.875v-7.984c0-0.195 0.223-0.305 0.379-0.184 0.875 0.68 2.035 1.543 6.020 4.438 0.824 0.602 2.215 1.867 3.602 1.859 1.395 0.012 2.813-1.281 3.605-1.859 3.984-2.895 5.141-3.762 6.016-4.441zM10 12.5c0.906 0.016 2.211-1.141 2.867-1.617 5.184-3.762 5.578-4.090 6.773-5.027 0.227-0.176 0.359-0.449 0.359-0.738v-0.742c0-1.035-0.84-1.875-1.875-1.875h-16.25c-1.035 0-1.875 0.84-1.875 1.875v0.742c0 0.289 0.133 0.559 0.359 0.738 1.195 0.934 1.59 1.266 6.773 5.027 0.656 0.477 1.961 1.633 2.867 1.617z"></path>
</svg>
