<svg xmlns="http://www.w3.org/2000/svg" width="20" height="20" viewBox="0 0 20 20">
<path d="M20 18.125c0 1.036-0.839 1.875-1.875 1.875h-16.25c-1.036 0-1.875-0.839-1.875-1.875v-10.284c0-0.597 0.279-1.129 0.714-1.473l0.004-0.003c0.973-0.763 1.777-1.381 6.414-4.747 0.657-0.479 1.961-1.632 2.868-1.619 0.906-0.014 2.211 1.14 2.868 1.618 4.636 3.365 5.442 3.984 6.414 4.747 0.439 0.346 0.718 0.878 0.718 1.476v0 10.284zM17.435 10.445c-0.1-0.146-0.301-0.179-0.443-0.074-0.892 0.659-2.166 1.59-4.124 3.011-0.657 0.479-1.961 1.632-2.868 1.618-0.907 0.013-2.209-1.138-2.868-1.618-1.958-1.421-3.232-2.352-4.124-3.011-0.142-0.105-0.343-0.071-0.443 0.074l-0.354 0.515c-0.034 0.049-0.055 0.111-0.055 0.177 0 0.103 0.050 0.194 0.126 0.251l0.001 0.001c0.894 0.66 2.166 1.589 4.113 3.003 0.792 0.577 2.208 1.868 3.604 1.858 1.395 0.009 2.811-1.28 3.604-1.858 1.947-1.413 3.219-2.343 4.113-3.003 0.077-0.058 0.127-0.149 0.127-0.251 0-0.066-0.021-0.128-0.056-0.178l0.001 0.001-0.354-0.515z"></path>
</svg>
