<svg xmlns="http://www.w3.org/2000/svg" width="23" height="20" viewBox="0 0 23 20">
<path d="M22.5 0.938v4.999c0 0.838-1.014 1.249-1.6 0.663l-1.395-1.395-9.513 9.513c-0.366 0.366-0.96 0.366-1.326 0l-0.884-0.884c-0.366-0.366-0.366-0.96 0-1.326l9.513-9.513-1.395-1.395c-0.589-0.589-0.172-1.6 0.663-1.6h4.999c0.518 0 0.938 0.42 0.938 0.938zM15.9 10.578l-0.625 0.625c-0.17 0.17-0.275 0.404-0.275 0.663 0 0 0 0 0 0v0 5.634h-12.5v-12.5h10.313c0.259-0 0.493-0.105 0.663-0.275l0.625-0.625c0.591-0.591 0.172-1.6-0.663-1.6h-11.563c-1.036 0-1.875 0.839-1.875 1.875v13.75c0 1.036 0.839 1.875 1.875 1.875h13.75c1.036 0 1.875-0.839 1.875-1.875v-6.884c0-0.835-1.010-1.254-1.6-0.663z"></path>
</svg>
