<svg xmlns="http://www.w3.org/2000/svg" width="23" height="20" viewBox="0 0 23 20">
<path d="M15.727 3.25l3.523 3.523c0.148 0.148 0.148 0.391 0 0.539l-8.531 8.531-3.625 0.402c-0.484 0.055-0.895-0.355-0.84-0.84l0.402-3.625 8.531-8.531c0.148-0.148 0.391-0.148 0.539 0zM22.055 2.355l-1.906-1.906c-0.594-0.594-1.559-0.594-2.156 0l-1.383 1.383c-0.148 0.148-0.148 0.391 0 0.539l3.523 3.523c0.148 0.148 0.391 0.148 0.539 0l1.383-1.383c0.594-0.598 0.594-1.563 0-2.156zM15 13.523v3.977h-12.5v-12.5h8.977c0.125 0 0.242-0.051 0.332-0.137l1.563-1.563c0.297-0.297 0.086-0.801-0.332-0.801h-11.164c-1.035 0-1.875 0.84-1.875 1.875v13.75c0 1.035 0.84 1.875 1.875 1.875h13.75c1.035 0 1.875-0.84 1.875-1.875v-6.164c0-0.418-0.504-0.625-0.801-0.332l-1.563 1.563c-0.086 0.090-0.137 0.207-0.137 0.332z"></path>
</svg>
