<svg xmlns="http://www.w3.org/2000/svg" width="18" height="20" viewBox="0 0 18 20">
<path d="M17.5 3.125v13.75c0 1.036-0.839 1.875-1.875 1.875h-13.75c-1.036 0-1.875-0.839-1.875-1.875v-13.75c0-1.036 0.839-1.875 1.875-1.875h13.75c1.036 0 1.875 0.839 1.875 1.875zM14.063 3.75h-4.374c-0.833 0-1.253 1.010-0.663 1.6l1.249 1.249-7.638 7.638c-0.183 0.183-0.183 0.48 0 0.663l1.212 1.212c0.183 0.183 0.48 0.183 0.663 0l7.638-7.638 1.25 1.25c0.587 0.587 1.6 0.175 1.6-0.663v-4.374c0-0.518-0.42-0.937-0.938-0.937z"></path>
</svg>
