<svg xmlns="http://www.w3.org/2000/svg" width="13" height="20" viewBox="0 0 13 20">
<path d="M12.137 16.163c-0.051-0.259-0.306-0.425-0.563-0.366-0.418 0.095-1.071 0.211-1.774 0.211-2.217 0-3.982-1.359-4.745-3.338h4.441c0.222 0 0.409-0.155 0.457-0.363l0.001-0.003 0.249-1.108c0.066-0.293-0.157-0.572-0.457-0.572h-5.244c-0.047-0.56-0.055-1.105 0.005-1.65h5.726c0 0 0 0 0 0 0.223 0 0.41-0.156 0.457-0.365l0.001-0.003 0.254-1.162c0.064-0.292-0.159-0.569-0.458-0.569h-5.401c0.806-1.757 2.449-2.931 4.594-2.931 0.566 0 1.116 0.088 1.479 0.162 0.243 0.050 0.482-0.098 0.547-0.337l0.468-1.733c0.071-0.263-0.096-0.532-0.364-0.583-0.473-0.090-1.235-0.203-2.058-0.203-3.796 0-6.86 2.354-7.991 5.625h-1.292c-0.259 0-0.469 0.21-0.469 0.469v1.162c0 0.259 0.21 0.469 0.469 0.469h0.843c-0.039 0.532-0.046 1.144-0.007 1.65h-0.835c-0.259 0-0.469 0.21-0.469 0.469v1.108c0 0.259 0.21 0.469 0.469 0.469h1.176c0.978 3.529 4.029 6.080 8.106 6.080 1.027 0 1.897-0.177 2.387-0.304 0.241-0.062 0.392-0.301 0.343-0.545l-0.344-1.738z"></path>
</svg>
