<svg xmlns="http://www.w3.org/2000/svg" width="15" height="20" viewBox="0 0 15 20">
<path d="M8.75 5.313v-5.313h-2.484v1.25h-1.25v-1.25h-4.078c-0.52 0-0.938 0.418-0.938 0.938v18.125c0 0.52 0.418 0.938 0.938 0.938h13.125c0.52 0 0.938-0.418 0.938-0.938v-12.813h-5.313c-0.516 0-0.938-0.422-0.938-0.938zM3.746 1.25h1.25v1.25h-1.25v-1.25zM5.008 16.25c-1.297 0-2.266-1.188-2.008-2.457l0.766-3.793v-1.25h1.25v-1.25h-1.25v-1.25h1.25v-1.25h-1.25v-1.25h1.25v-1.25h1.25v1.25h-1.25v1.25h1.25v1.25h-1.25v1.25h1.25v1.25h-1.25v1.25h0.863c0.223 0 0.418 0.16 0.461 0.379l0.676 3.426c0.25 1.266-0.719 2.445-2.008 2.445zM6.285 14.18c0 0.582-0.566 1.055-1.266 1.055s-1.27-0.469-1.27-1.055c0-0.582 0.566-1.055 1.266-1.055s1.27 0.473 1.27 1.055zM15 4.762v0.238h-5v-5h0.238c0.25 0 0.488 0.098 0.664 0.273l3.824 3.828c0.176 0.176 0.273 0.414 0.273 0.66z"></path>
</svg>
