<svg xmlns="http://www.w3.org/2000/svg" width="20" height="20" viewBox="0 0 20 20">
<path d="M5 5.625v12.5c0 1.036-0.839 1.875-1.875 1.875h-1.25c-1.036 0-1.875-0.839-1.875-1.875v-12.5c0-1.036 0.839-1.875 1.875-1.875h1.25c1.036 0 1.875 0.839 1.875 1.875zM20 8.125v10c0 1.036-0.839 1.875-1.875 1.875h-10.625c-1.036 0-1.875-0.839-1.875-1.875v-16.563c0-0.863 0.7-1.563 1.563-1.563h8.103c0 0 0 0 0 0 0.431 0 0.822 0.175 1.105 0.458l1.897 1.897c0.283 0.283 0.458 0.673 0.458 1.105v0 2.897c0.728 0.257 1.25 0.952 1.25 1.768zM7.5 7.5h9.375v-3.75h-0.938c-0.516 0-0.938-0.422-0.938-0.938v-0.938h-7.5v5.625zM11.25 15.469c0-0.259-0.21-0.469-0.469-0.469h-1.563c-0.259 0-0.469 0.21-0.469 0.469v1.563c0 0.259 0.21 0.469 0.469 0.469h1.563c0.259 0 0.469-0.21 0.469-0.469v-1.563zM11.25 10.469c0-0.259-0.21-0.469-0.469-0.469h-1.563c-0.259 0-0.469 0.21-0.469 0.469v1.563c0 0.259 0.21 0.469 0.469 0.469h1.563c0.259 0 0.469-0.21 0.469-0.469v-1.563zM16.25 15.469c0-0.259-0.21-0.469-0.469-0.469h-1.563c-0.259 0-0.469 0.21-0.469 0.469v1.563c0 0.259 0.21 0.469 0.469 0.469h1.563c0.259 0 0.469-0.21 0.469-0.469v-1.563zM16.25 10.469c0-0.259-0.21-0.469-0.469-0.469h-1.563c-0.259 0-0.469 0.21-0.469 0.469v1.563c0 0.259 0.21 0.469 0.469 0.469h1.563c0.259 0 0.469-0.21 0.469-0.469v-1.563z"></path>
</svg>
