<svg xmlns="http://www.w3.org/2000/svg" width="15" height="20" viewBox="0 0 15 20">
<path d="M15 4.763v0.237h-5v-5h0.237c0.259 0 0.493 0.105 0.663 0.275l3.826 3.826c0.17 0.17 0.275 0.404 0.275 0.663v0zM9.688 6.25c-0.516 0-0.938-0.422-0.938-0.938v-5.313h-7.813c-0.518 0-0.938 0.42-0.938 0.938v18.125c0 0.518 0.42 0.938 0.938 0.938h13.125c0.518 0 0.938-0.42 0.938-0.938v-12.813h-5.313zM4.396 6.875c1.036 0 1.875 0.839 1.875 1.875s-0.839 1.875-1.875 1.875-1.875-0.839-1.875-1.875 0.839-1.875 1.875-1.875zM12.521 16.25h-10l0.019-1.894 1.544-1.544c0.183-0.183 0.461-0.164 0.644 0.019l1.544 1.544 4.044-4.044c0.183-0.183 0.48-0.183 0.663 0l1.544 1.544v4.375z"></path>
</svg>
