<svg xmlns="http://www.w3.org/2000/svg" width="15" height="20" viewBox="0 0 15 20">
<path d="M8.75 5.313v-5.313h-7.813c-0.52 0-0.938 0.418-0.938 0.938v18.125c0 0.52 0.418 0.938 0.938 0.938h13.125c0.52 0 0.938-0.418 0.938-0.938v-12.813h-5.313c-0.516 0-0.938-0.422-0.938-0.938zM6.25 15.781c0 0.418-0.504 0.625-0.801 0.332l-1.387-1.426h-1.094c-0.258 0-0.469-0.211-0.469-0.469v-2.188c0-0.258 0.211-0.469 0.469-0.469h1.094l1.387-1.426c0.297-0.297 0.801-0.086 0.801 0.332v5.313zM7.547 13.922c0.355-0.363 0.355-0.941 0-1.305-0.863-0.891 0.477-2.195 1.344-1.309 1.063 1.090 1.063 2.828 0 3.922-0.852 0.871-2.223-0.406-1.344-1.309zM10.906 9.348c2.125 2.184 2.125 5.656 0 7.844-0.852 0.875-2.227-0.402-1.344-1.309 1.414-1.453 1.418-3.77 0-5.227-0.863-0.891 0.48-2.199 1.344-1.309zM15 4.762v0.238h-5v-5h0.238c0.25 0 0.488 0.098 0.664 0.273l3.824 3.828c0.176 0.176 0.273 0.414 0.273 0.66z"></path>
</svg>
