<svg xmlns="http://www.w3.org/2000/svg" width="20" height="20" viewBox="0 0 20 20">
<path d="M19.063 2.5h-0.313v0.781c0 0.258-0.211 0.469-0.469 0.469h-1.563c-0.258 0-0.469-0.211-0.469-0.469v-0.781h-12.5v0.781c0 0.258-0.211 0.469-0.469 0.469h-1.563c-0.258 0-0.469-0.211-0.469-0.469v-0.781h-0.313c-0.52 0-0.938 0.418-0.938 0.938v13.125c0 0.52 0.418 0.938 0.938 0.938h0.313v-0.781c0-0.258 0.211-0.469 0.469-0.469h1.563c0.258 0 0.469 0.211 0.469 0.469v0.781h12.5v-0.781c0-0.258 0.211-0.469 0.469-0.469h1.563c0.258 0 0.469 0.211 0.469 0.469v0.781h0.313c0.52 0 0.938-0.418 0.938-0.938v-13.125c0-0.52-0.418-0.938-0.938-0.938zM3.75 14.531c0 0.258-0.211 0.469-0.469 0.469h-1.563c-0.258 0-0.469-0.211-0.469-0.469v-1.563c0-0.258 0.211-0.469 0.469-0.469h1.563c0.258 0 0.469 0.211 0.469 0.469v1.563zM3.75 10.781c0 0.258-0.211 0.469-0.469 0.469h-1.563c-0.258 0-0.469-0.211-0.469-0.469v-1.563c0-0.258 0.211-0.469 0.469-0.469h1.563c0.258 0 0.469 0.211 0.469 0.469v1.563zM3.75 7.031c0 0.258-0.211 0.469-0.469 0.469h-1.563c-0.258 0-0.469-0.211-0.469-0.469v-1.563c0-0.258 0.211-0.469 0.469-0.469h1.563c0.258 0 0.469 0.211 0.469 0.469v1.563zM14.375 15.156c0 0.258-0.211 0.469-0.469 0.469h-7.813c-0.258 0-0.469-0.211-0.469-0.469v-3.75c0-0.258 0.211-0.469 0.469-0.469h7.813c0.258 0 0.469 0.211 0.469 0.469v3.75zM14.375 8.594c0 0.258-0.211 0.469-0.469 0.469h-7.813c-0.258 0-0.469-0.211-0.469-0.469v-3.75c0-0.258 0.211-0.469 0.469-0.469h7.813c0.258 0 0.469 0.211 0.469 0.469v3.75zM18.75 14.531c0 0.258-0.211 0.469-0.469 0.469h-1.563c-0.258 0-0.469-0.211-0.469-0.469v-1.563c0-0.258 0.211-0.469 0.469-0.469h1.563c0.258 0 0.469 0.211 0.469 0.469v1.563zM18.75 10.781c0 0.258-0.211 0.469-0.469 0.469h-1.563c-0.258 0-0.469-0.211-0.469-0.469v-1.563c0-0.258 0.211-0.469 0.469-0.469h1.563c0.258 0 0.469 0.211 0.469 0.469v1.563zM18.75 7.031c0 0.258-0.211 0.469-0.469 0.469h-1.563c-0.258 0-0.469-0.211-0.469-0.469v-1.563c0-0.258 0.211-0.469 0.469-0.469h1.563c0.258 0 0.469 0.211 0.469 0.469v1.563z"></path>
</svg>
