<svg xmlns="http://www.w3.org/2000/svg" width="20" height="20" viewBox="0 0 20 20">
<path d="M13.655 3.859c-2.093 0-3.822-1.359-6.454-1.359-0.975 0-1.848 0.171-2.658 0.469 0.091-0.232 0.144-0.5 0.144-0.781 0-0.049-0.002-0.097-0.005-0.145l0 0.007c-0.069-1.111-0.98-2.002-2.092-2.047-1.25-0.051-2.279 0.947-2.279 2.186 0 0.743 0.371 1.399 0.938 1.795v15.080c0 0.518 0.42 0.938 0.938 0.938h0.625c0.518 0 0.938-0.42 0.938-0.938v-3.688c1.106-0.471 2.484-0.864 4.47-0.864 2.093 0 3.822 1.359 6.454 1.359 1.882 0 3.385-0.636 4.785-1.596 0.339-0.232 0.541-0.618 0.541-1.030v-9.496c0-0.914-0.948-1.518-1.777-1.133-1.341 0.623-2.986 1.244-4.568 1.244z"></path>
</svg>
