<svg xmlns="http://www.w3.org/2000/svg" width="15" height="20" viewBox="0 0 15 20">
<path d="M15 4.763v0.237h-5v-5h0.237c0.249 0 0.487 0.099 0.663 0.275l3.826 3.826c0.17 0.17 0.275 0.404 0.275 0.663v0zM8.75 5.313v-5.313h-7.813c-0.518 0-0.938 0.42-0.938 0.938v18.125c0 0.518 0.42 0.938 0.938 0.938h13.125c0.518 0 0.938-0.42 0.938-0.938v-12.813h-5.313c-0.516 0-0.938-0.422-0.938-0.938zM12.5 10.938v4.374c0 0.838-1.013 1.25-1.6 0.663l-2.15-2.149v1.487c0 0.518-0.42 0.938-0.938 0.938h-4.375c-0.518 0-0.938-0.42-0.938-0.938v-4.375c0-0.518 0.42-0.938 0.938-0.938h4.375c0.518 0 0.938 0.42 0.938 0.938v1.487l2.15-2.149c0.586-0.586 1.6-0.175 1.6 0.663z"></path>
</svg>
