<svg xmlns="http://www.w3.org/2000/svg" width="20" height="20" viewBox="0 0 20 20">
<path d="M18.223 2.614c0.829-0.385 1.777 0.22 1.777 1.133v9.496c0 0.411-0.202 0.797-0.541 1.030-1.4 0.96-2.904 1.596-4.785 1.596-2.632 0-4.361-1.359-6.454-1.359-1.986 0-3.364 0.393-4.47 0.864v3.688c0 0.518-0.42 0.938-0.938 0.938h-0.625c-0.518 0-0.938-0.42-0.938-0.938v-15.080c-0.567-0.395-0.938-1.052-0.938-1.795 0-1.238 1.029-2.236 2.279-2.186 1.112 0.045 2.023 0.936 2.092 2.047 0.020 0.326-0.032 0.637-0.14 0.92 0.81-0.298 1.683-0.469 2.658-0.469 2.632 0 4.361 1.359 6.454 1.359 1.582 0 3.227-0.621 4.568-1.244zM3.75 5.259v2.754c1.133-0.417 1.999-0.696 2.875-0.817v-2.796c-0.918 0.085-1.58 0.382-2.875 0.859zM12.375 5.618c-1.032-0.182-1.949-0.546-2.875-0.834v2.634c0.944 0.262 1.858 0.642 2.875 0.871v-2.671zM6.625 7.196v2.736c1.281-0.116 2.106-0.025 2.875 0.148v-2.662c-0.986-0.275-1.82-0.368-2.875-0.222zM9.5 12.752c1.029 0.182 1.943 0.544 2.875 0.834v-2.633c-0.948-0.264-1.857-0.643-2.875-0.872v2.671zM3.75 13.363c0.923-0.328 1.867-0.541 2.875-0.647v-2.785c-1.020 0.092-1.85 0.314-2.875 0.678v2.754zM18.125 4.707c-0.832 0.346-1.82 0.689-2.875 0.878v2.809c1.067-0.17 1.954-0.551 2.875-0.933v-2.754zM18.125 12.909v-2.754c-0.867 0.555-1.905 0.883-2.875 1.016v2.796c0.979-0.093 1.894-0.431 2.875-1.059zM12.375 8.289v2.662c1.002 0.279 1.821 0.365 2.875 0.22v-2.778c-1.016 0.164-1.951 0.105-2.875-0.104z"></path>
</svg>
