<svg xmlns="http://www.w3.org/2000/svg" width="10" height="20" viewBox="0 0 10 20">
<path d="M5 0c1.381 0 2.5 1.119 2.5 2.5s-1.119 2.5-2.5 2.5c-1.381 0-2.5-1.119-2.5-2.5s1.119-2.5 2.5-2.5zM9.659 13.835l-1.875-7.5c-0.105-0.411-0.472-0.71-0.909-0.71h-0.444c-0.887 0.408-1.937 0.426-2.862 0h-0.444c-0.437 0-0.804 0.299-0.908 0.704l-0.001 0.007-1.875 7.5c-0.148 0.591 0.299 1.165 0.909 1.165h2.188v4.063c0 0.518 0.42 0.938 0.937 0.938h1.25c0.518 0 0.938-0.42 0.938-0.938v-4.063h2.188c0.609 0 1.057-0.573 0.909-1.165z"></path>
</svg>
