<svg xmlns="http://www.w3.org/2000/svg" width="18" height="20" viewBox="0 0 18 20">
<path d="M17.078 15.762l-4.578-7.363v-5.898h0.313c0.52 0 0.938-0.418 0.938-0.938v-0.625c0-0.52-0.418-0.938-0.938-0.938h-8.125c-0.52 0-0.938 0.418-0.938 0.938v0.625c0 0.52 0.418 0.938 0.938 0.938h0.313v5.898l-4.578 7.363c-1.145 1.84 0.176 4.238 2.348 4.238h11.961c2.176 0 3.492-2.402 2.348-4.238zM5.387 12.5l1.883-3.031c0.145-0.203 0.227-0.453 0.227-0.719v-6.25h2.5v6.25c0 0.27 0.086 0.516 0.227 0.719l1.883 3.031h-6.719z"></path>
</svg>
