<svg xmlns="http://www.w3.org/2000/svg" width="15" height="20" viewBox="0 0 15 20">
<path d="M8.75 5.313v-5.313h-7.813c-0.52 0-0.938 0.418-0.938 0.938v18.125c0 0.52 0.418 0.938 0.938 0.938h13.125c0.52 0 0.938-0.418 0.938-0.938v-12.813h-5.313c-0.516 0-0.938-0.422-0.938-0.938zM10.98 10h0.934c0.301 0 0.523 0.277 0.457 0.574l-1.484 6.563c-0.047 0.215-0.238 0.363-0.457 0.363h-1.484c-0.215 0-0.402-0.148-0.453-0.355-1.008-4.043-0.813-3.172-1-4.316h-0.020c-0.043 0.559-0.094 0.68-1 4.316-0.051 0.207-0.238 0.355-0.453 0.355h-1.449c-0.219 0-0.41-0.152-0.457-0.367l-1.477-6.563c-0.066-0.293 0.156-0.57 0.457-0.57h0.957c0.223 0 0.418 0.156 0.461 0.379 0.609 3.047 0.785 4.277 0.82 4.773 0.063-0.398 0.285-1.277 1.148-4.793 0.051-0.211 0.238-0.355 0.457-0.355h1.137c0.219 0 0.406 0.148 0.457 0.359 0.938 3.922 1.125 4.844 1.156 5.055-0.008-0.437-0.102-0.695 0.844-5.047 0.039-0.219 0.23-0.371 0.449-0.371zM15 4.762v0.238h-5v-5h0.238c0.25 0 0.488 0.098 0.664 0.273l3.824 3.828c0.176 0.176 0.273 0.414 0.273 0.66z"></path>
</svg>
