<svg xmlns="http://www.w3.org/2000/svg" width="19" height="20" viewBox="0 0 19 20">
<path d="M18.809 2.355c-0.188-0.711-0.746-1.27-1.457-1.461-0.934-0.25-2.391-0.547-4.094-0.582l6.117 6.125c-0.031-1.699-0.32-3.148-0.566-4.082zM0.566 17.645c0.188 0.711 0.746 1.27 1.457 1.461 0.934 0.25 2.391 0.547 4.094 0.582l-6.117-6.125c0.031 1.699 0.32 3.148 0.566 4.082zM0.164 11.070l8.445 8.461c5.176-0.758 9.719-4.637 10.605-10.602l-8.449-8.461c-5.176 0.758-9.719 4.637-10.602 10.602zM12.559 6.242c0.121-0.121 0.32-0.121 0.441 0l0.441 0.441c0.121 0.121 0.121 0.32 0 0.441l-1.105 1.105 1.105 1.105c0.121 0.121 0.121 0.32 0 0.441l-0.441 0.441c-0.121 0.121-0.32 0.121-0.441 0l-1.105-1.105-0.883 0.887 1.105 1.105c0.121 0.121 0.121 0.32 0 0.441l-0.441 0.441c-0.121 0.121-0.32 0.121-0.441 0l-1.105-1.105-0.883 0.883 1.105 1.105c0.121 0.121 0.121 0.32 0 0.441l-0.441 0.441c-0.121 0.121-0.32 0.121-0.441 0l-1.105-1.105-1.105 1.105c-0.121 0.121-0.32 0.121-0.441 0l-0.441-0.441c-0.121-0.121-0.121-0.32 0-0.441l1.105-1.105-1.105-1.102c-0.121-0.121-0.121-0.32 0-0.441l0.441-0.441c0.121-0.121 0.32-0.121 0.441 0l1.105 1.105 0.883-0.883-1.105-1.105c-0.121-0.121-0.121-0.32 0-0.441l0.441-0.441c0.121-0.121 0.32-0.121 0.441 0l1.105 1.105 0.883-0.883-1.105-1.105c-0.121-0.121-0.121-0.32 0-0.441l0.441-0.441c0.121-0.121 0.32-0.121 0.441 0l1.105 1.105 1.105-1.113z"></path>
</svg>
