<svg xmlns="http://www.w3.org/2000/svg" width="18" height="20" viewBox="0 0 18 20">
<path d="M5.938 16.25h-0.938l1.039-3.156h5.399l1.039 3.156h-0.914c-0.345 0-0.625 0.28-0.625 0.625v1.25c0 0.345 0.28 0.625 0.625 0.625h5.312c0.345 0 0.625-0.28 0.625-0.625v-1.25c0-0.345-0.28-0.625-0.625-0.625h-1.044l-5.069-14.58c-0.088-0.246-0.319-0.42-0.59-0.42 0 0 0 0-0 0h-2.842c0 0 0 0 0 0-0.272 0-0.503 0.173-0.589 0.415l-0.001 0.004-5.069 14.58h-1.044c-0.345 0-0.625 0.28-0.625 0.625v1.25c0 0.345 0.28 0.625 0.625 0.625h5.313c0.345 0 0.625-0.28 0.625-0.625v-1.25c0-0.345-0.28-0.625-0.625-0.625zM8.451 5.634c0.17-0.594 0.258-1.1 0.296-1.353 0.033 0.255 0.115 0.761 0.302 1.356l1.615 4.844h-3.852l1.639-4.846z"></path>
</svg>
