<svg xmlns="http://www.w3.org/2000/svg" width="15" height="20" viewBox="0 0 15 20">
<path d="M15 4.763v0.237h-5v-5h0.237c0.249 0 0.487 0.099 0.663 0.275l3.826 3.826c0.17 0.17 0.275 0.404 0.275 0.663v0zM9.688 6.25c-0.516 0-0.938-0.422-0.938-0.938v-5.313h-7.813c-0.518 0-0.938 0.42-0.938 0.938v18.125c0 0.518 0.42 0.938 0.938 0.938h13.125c0.518 0 0.938-0.42 0.938-0.938v-12.813h-5.313zM4.813 15.645c-0.039 0.041-0.093 0.067-0.154 0.067-0.056 0-0.107-0.022-0.144-0.057l0 0-2.534-2.375c-0.041-0.039-0.067-0.093-0.067-0.154s0.026-0.115 0.067-0.154l0-0 2.534-2.375c0.038-0.035 0.088-0.057 0.144-0.057 0.061 0 0.115 0.026 0.154 0.067l0 0 0.765 0.816c0.035 0.038 0.057 0.088 0.057 0.144 0 0.063-0.028 0.12-0.071 0.158l-0 0-1.592 1.401 1.592 1.401c0.044 0.039 0.072 0.095 0.072 0.158 0 0.056-0.022 0.107-0.057 0.144l0-0-0.765 0.816zM6.816 17.617l-1.072-0.311c-0.089-0.026-0.152-0.107-0.152-0.203 0-0.021 0.003-0.041 0.009-0.060l-0 0.001 2.4-8.267c0.026-0.089 0.107-0.152 0.203-0.152 0.021 0 0.041 0.003 0.060 0.009l-0.001-0 1.072 0.311c0.089 0.026 0.152 0.107 0.152 0.203 0 0.021-0.003 0.041-0.009 0.060l0-0.001-2.4 8.267c-0.026 0.089-0.107 0.152-0.202 0.152-0.021 0-0.041-0.003-0.060-0.009l0.001 0zM13.097 13.279l-2.534 2.375c-0.038 0.035-0.088 0.057-0.144 0.057-0.061 0-0.115-0.026-0.154-0.067l-0-0-0.765-0.816c-0.035-0.038-0.057-0.088-0.057-0.144 0-0.063 0.028-0.12 0.071-0.158l0-0 1.592-1.401-1.592-1.401c-0.044-0.039-0.072-0.095-0.072-0.158 0-0.056 0.022-0.107 0.057-0.144l-0 0 0.765-0.816c0.039-0.041 0.093-0.067 0.154-0.067 0.056 0 0.107 0.022 0.144 0.057l-0-0 2.534 2.375c0.041 0.039 0.067 0.093 0.067 0.154s-0.026 0.115-0.067 0.154l-0 0z"></path>
</svg>
