<svg xmlns="http://www.w3.org/2000/svg" width="15" height="20" viewBox="0 0 15 20">
<path d="M7.105 10.004c-0.195-0.625-0.191-1.832-0.078-1.832 0.328 0 0.297 1.441 0.078 1.832zM7.039 11.848c-0.301 0.789-0.676 1.691-1.109 2.449 0.715-0.273 1.523-0.672 2.457-0.855-0.496-0.375-0.973-0.914-1.348-1.594zM3.363 16.723c0 0.031 0.516-0.211 1.363-1.57-0.262 0.246-1.137 0.957-1.363 1.57zM9.688 6.25h5.313v12.813c0 0.52-0.418 0.938-0.938 0.938h-13.125c-0.52 0-0.938-0.418-0.938-0.938v-18.125c0-0.52 0.418-0.938 0.938-0.938h7.813v5.313c0 0.516 0.422 0.938 0.938 0.938zM9.375 12.961c-0.781-0.477-1.301-1.133-1.668-2.102 0.176-0.723 0.453-1.82 0.242-2.508-0.184-1.148-1.656-1.035-1.867-0.266-0.195 0.715-0.016 1.723 0.316 3.008-0.453 1.078-1.121 2.523-1.594 3.352-0.004 0-0.004 0.004-0.008 0.004-1.059 0.543-2.875 1.738-2.129 2.656 0.219 0.27 0.625 0.391 0.84 0.391 0.699 0 1.395-0.703 2.387-2.414 1.008-0.332 2.113-0.746 3.086-0.906 0.848 0.461 1.84 0.762 2.5 0.762 1.141 0 1.219-1.25 0.77-1.695-0.543-0.531-2.121-0.379-2.875-0.281zM14.727 4.102l-3.828-3.828c-0.176-0.176-0.414-0.273-0.664-0.273h-0.234v5h5v-0.238c0-0.246-0.098-0.484-0.273-0.66zM11.832 14.074c0.16-0.105-0.098-0.465-1.672-0.352 1.449 0.617 1.672 0.352 1.672 0.352z"></path>
</svg>
