<svg xmlns="http://www.w3.org/2000/svg" width="15" height="20" viewBox="0 0 15 20">
<path d="M8.75 5.313v-5.313h-7.813c-0.52 0-0.938 0.418-0.938 0.938v18.125c0 0.52 0.418 0.938 0.938 0.938h13.125c0.52 0 0.938-0.418 0.938-0.938v-12.813h-5.313c-0.516 0-0.938-0.422-0.938-0.938zM11.098 9.473l-2.348 3.652 2.348 3.652c0.199 0.313-0.023 0.723-0.395 0.723h-1.363c-0.172 0-0.332-0.094-0.414-0.246-0.766-1.414-1.426-2.684-1.426-2.684-0.25 0.578-0.391 0.781-1.43 2.688-0.082 0.152-0.238 0.246-0.41 0.246h-1.363c-0.371 0-0.594-0.41-0.395-0.723l2.355-3.652-2.355-3.652c-0.203-0.313 0.023-0.723 0.395-0.723h1.359c0.172 0 0.332 0.094 0.414 0.246 1.020 1.906 0.781 1.313 1.43 2.676 0 0 0.238-0.457 1.43-2.676 0.082-0.152 0.242-0.246 0.414-0.246h1.359c0.371-0.004 0.594 0.406 0.395 0.719zM15 4.762v0.238h-5v-5h0.238c0.25 0 0.488 0.098 0.664 0.273l3.824 3.828c0.176 0.176 0.273 0.414 0.273 0.66z"></path>
</svg>
