<svg xmlns="http://www.w3.org/2000/svg" width="25" height="20" viewBox="0 0 25 20">
<path d="M21.25 8.75l-5-0.625-1.875-0.625h-0.938l-4.564-5.781h1.543c0.456 0 0.833-0.103 0.833-0.234s-0.378-0.234-0.833-0.234h-4.479v0.469h0.625v6.406h-1.875l-2.604-3.125h-1.354l-0.417 0.417v2.708h0.312v0.625h1.875v0.104l-2.5 0.313v1.667l2.5 0.313v0.104h-1.875v0.625h-0.313v2.708l0.417 0.417h1.354l2.604-3.125h1.875v6.406h-0.625v0.469h4.479c0.456 0 0.833-0.103 0.833-0.234s-0.378-0.234-0.833-0.234h-1.543l4.564-5.781h0.938l1.875-0.625 5-0.625c3.75-0.833 3.75-1.038 3.75-1.25s0-0.417-3.75-1.25z"></path>
</svg>
