<svg xmlns="http://www.w3.org/2000/svg" width="20" height="20" viewBox="0 0 20 20">
<path d="M19.688 10c0 5.35-4.337 9.688-9.688 9.688s-9.688-4.337-9.688-9.688 4.337-9.688 9.688-9.688 9.688 4.337 9.688 9.688zM17.813 10l-0-0.011-1.018 0.888-2.448-2.285 0.643-3.295 1.34 0.12c-0.972-1.337-2.344-2.347-3.934-2.857l0.533 1.248-2.928 1.622-2.928-1.622 0.533-1.248c-1.587 0.509-2.96 1.518-3.934 2.857l1.35-0.12 0.633 3.295-2.448 2.285-1.018-0.888-0 0.011c0 1.68 0.527 3.279 1.503 4.609l0.301-1.324 3.326 0.408 1.418 3.040-1.168 0.695c1.57 0.513 3.293 0.514 4.866 0l-1.168-0.695 1.418-3.040 3.326-0.408 0.301 1.324c0.976-1.33 1.503-2.929 1.503-4.609zM8.121 12.718l-1.168-3.567 3.047-2.208 3.047 2.208-1.157 3.567h-3.769z"></path>
</svg>
