<svg xmlns="http://www.w3.org/2000/svg" width="15" height="20" viewBox="0 0 15 20">
<path d="M7.566 10.594c0.344 0 0.605 0.105 0.793 0.316 0.375 0.426 0.383 1.277-0.008 1.723-0.191 0.219-0.465 0.332-0.824 0.332h-1.051v-2.371h1.090zM14.727 4.102l-3.828-3.828c-0.176-0.176-0.414-0.273-0.664-0.273h-0.234v5h5v-0.238c0-0.246-0.098-0.484-0.273-0.66zM8.75 5.313v-5.313h-7.813c-0.52 0-0.938 0.418-0.938 0.938v18.125c0 0.52 0.418 0.938 0.938 0.938h13.125c0.52 0 0.938-0.418 0.938-0.938v-12.813h-5.313c-0.516 0-0.938-0.422-0.938-0.938zM10.82 11.766c0 3.527-3.469 3.031-4.34 3.031v2.234c0 0.258-0.211 0.469-0.469 0.469h-1.203c-0.258 0-0.469-0.211-0.469-0.469v-7.805c0-0.258 0.211-0.469 0.469-0.469h3.164c1.738 0 2.848 1.281 2.848 3.008z"></path>
</svg>
