<svg xmlns="http://www.w3.org/2000/svg" width="15" height="20" viewBox="0 0 15 20">
<path d="M8.75 5.313v-5.313h-7.813c-0.52 0-0.938 0.418-0.938 0.938v18.125c0 0.52 0.418 0.938 0.938 0.938h13.125c0.52 0 0.938-0.418 0.938-0.938v-12.813h-5.313c-0.516 0-0.938-0.422-0.938-0.938zM11.25 14.531c0 0.258-0.211 0.469-0.469 0.469h-6.563c-0.258 0-0.469-0.211-0.469-0.469v-0.313c0-0.258 0.211-0.469 0.469-0.469h6.563c0.258 0 0.469 0.211 0.469 0.469v0.313zM11.25 12.031c0 0.258-0.211 0.469-0.469 0.469h-6.563c-0.258 0-0.469-0.211-0.469-0.469v-0.313c0-0.258 0.211-0.469 0.469-0.469h6.563c0.258 0 0.469 0.211 0.469 0.469v0.313zM11.25 9.219v0.313c0 0.258-0.211 0.469-0.469 0.469h-6.563c-0.258 0-0.469-0.211-0.469-0.469v-0.313c0-0.258 0.211-0.469 0.469-0.469h6.563c0.258 0 0.469 0.211 0.469 0.469zM15 4.762v0.238h-5v-5h0.238c0.25 0 0.488 0.098 0.664 0.273l3.824 3.828c0.176 0.176 0.273 0.414 0.273 0.66z"></path>
</svg>
