<svg xmlns="http://www.w3.org/2000/svg" width="18" height="20" viewBox="0 0 18 20">
<path d="M16.954 1.028l-6.562 1.094c-0.443 0.074-0.392 0.526-0.392 0.69h-2.279c0.417-1.402-0.634-2.813-2.096-2.813-1.54 0-2.592 1.55-2.040 2.977-2.033 0.51-2.945 2.118-3.518 3.55-0.192 0.481 0.042 1.026 0.522 1.219s1.027-0.042 1.219-0.522c1.124-2.81 2.37-2.536 4.754-2.536v1.058c-1.623 0.424-2.813 1.923-2.813 3.677v9.64c0 0.518 0.42 0.938 0.938 0.938h5.625c0.518 0 0.938-0.42 0.938-0.938v-9.688c0-1.747-1.195-3.215-2.813-3.632v-1.056h1.563c0 0.116-0.067 0.614 0.392 0.69l6.562 1.094c0.286 0.048 0.546-0.173 0.546-0.462v-4.518c0-0.29-0.26-0.51-0.546-0.462zM5.625 2.813c-0.345 0-0.625-0.28-0.625-0.625s0.28-0.625 0.625-0.625 0.625 0.28 0.625 0.625-0.28 0.625-0.625 0.625z"></path>
</svg>
