<svg xmlns="http://www.w3.org/2000/svg" width="16" height="20" viewBox="0 0 16 20">
<path d="M3.75 16.25h8.75c0 0.691-0.559 1.25-1.25 1.25h-0.625c-0.691 0-1.25 0.559-1.25 1.25v0.781c0 0.258-0.211 0.469-0.469 0.469h-1.563c-0.258 0-0.469-0.211-0.469-0.469v-0.781c0-0.691-0.559-1.25-1.25-1.25h-0.625c-0.691 0-1.25-0.559-1.25-1.25zM16.25 8.125c0 2.898-1.523 5.438-3.809 6.875h-8.633c-2.285-1.438-3.809-3.977-3.809-6.875 0-4.488 3.637-8.125 8.125-8.125s8.125 3.637 8.125 8.125zM9.215 9.84c0.715 0 1.293-0.578 1.293-1.293 0-0.563-0.363-1.027-0.863-1.207 0.375 1.047-0.609 2.004-1.637 1.637 0.18 0.5 0.645 0.863 1.207 0.863zM11.133 11.672c0-0.562-0.363-1.027-0.863-1.207 0.375 1.047-0.609 2.004-1.637 1.637 0.18 0.5 0.645 0.863 1.207 0.863 0.715 0 1.293-0.582 1.293-1.293zM13.633 9.172c0-0.563-0.363-1.027-0.863-1.207 0.375 1.047-0.609 2.004-1.637 1.637 0.18 0.5 0.645 0.863 1.207 0.863 0.715 0 1.293-0.582 1.293-1.293z"></path>
</svg>
