<svg xmlns="http://www.w3.org/2000/svg" width="25" height="20" viewBox="0 0 25 20">
<path d="M18.75 3.75h-12.5c-3.453 0-6.25 2.797-6.25 6.25s2.797 6.25 6.25 6.25c1.75 0 3.328-0.719 4.461-1.875h3.574c1.133 1.156 2.715 1.875 4.461 1.875 3.453 0 6.25-2.797 6.25-6.25s-2.793-6.25-6.246-6.25zM10 10.781c0 0.258-0.211 0.469-0.469 0.469h-2.031v2.031c0 0.258-0.211 0.469-0.469 0.469h-1.563c-0.258 0-0.469-0.211-0.469-0.469v-2.031h-2.031c-0.258 0-0.469-0.211-0.469-0.469v-1.563c0-0.258 0.211-0.469 0.469-0.469h2.031v-2.031c0-0.258 0.211-0.469 0.469-0.469h1.563c0.258 0 0.469 0.211 0.469 0.469v2.031h2.031c0.258 0 0.469 0.211 0.469 0.469v1.563zM17.188 13.438c-1.035 0-1.875-0.84-1.875-1.875s0.84-1.875 1.875-1.875 1.875 0.84 1.875 1.875-0.84 1.875-1.875 1.875zM20.313 10.313c-1.035 0-1.875-0.84-1.875-1.875s0.84-1.875 1.875-1.875 1.875 0.84 1.875 1.875-0.84 1.875-1.875 1.875z"></path>
</svg>
