<svg xmlns="http://www.w3.org/2000/svg" width="20" height="20" viewBox="0 0 20 20">
<path d="M14.227 7.5h5.134c0.212 0.798 0.326 1.635 0.326 2.5s-0.114 1.702-0.326 2.5h-5.134c0.201-1.682 0.193-3.389 0-5zM7.235 13.75c0.417 2.097 1.296 4.395 2.739 5.937 0.009 0 0.017 0 0.026 0s0.017-0 0.026-0c1.446-1.545 2.323-3.844 2.739-5.937h-5.53zM14.037 6.25h4.898c-1.247-2.968-3.93-5.183-7.179-5.778 1.181 1.684 1.907 3.763 2.281 5.778zM12.969 7.5h-5.937c-0.209 1.637-0.209 3.361 0 5h5.937c0.209-1.637 0.209-3.361-0-5zM5.963 13.75h-4.898c1.247 2.968 3.93 5.183 7.179 5.778-1.181-1.685-1.907-3.764-2.281-5.778zM14.037 13.75c-0.374 2.016-1.1 4.094-2.281 5.778 3.249-0.595 5.932-2.811 7.179-5.778h-4.898zM12.765 6.25c-0.417-2.097-1.296-4.395-2.739-5.937-0.009 0-0.017-0-0.026-0s-0.017 0-0.026 0c-1.446 1.545-2.323 3.844-2.739 5.937h5.53zM0.639 7.5c-0.213 0.798-0.326 1.635-0.326 2.5s0.114 1.702 0.326 2.5h5.134c-0.193-1.611-0.201-3.318 0-5h-5.134zM5.963 6.25c0.374-2.016 1.1-4.094 2.281-5.778-3.249 0.595-5.932 2.811-7.179 5.778h4.898z"></path>
</svg>
