<svg xmlns="http://www.w3.org/2000/svg" width="20" height="20" viewBox="0 0 20 20">
<path d="M19.725 7.788l-0.884-0.884c-0.366-0.366-0.96-0.366-1.326 0l-0.221 0.221-4.419-4.419 0.221-0.221c0.366-0.366 0.366-0.96 0-1.326l-0.884-0.884c-0.366-0.366-0.96-0.366-1.326 0l-4.861 4.861c-0.366 0.366-0.366 0.96 0 1.326l0.884 0.884c0.366 0.366 0.96 0.366 1.326 0l0.221-0.221 1.547 1.547-3.166 3.166-0.221-0.221c-0.488-0.488-1.28-0.488-1.768 0l-4.482 4.482c-0.488 0.488-0.488 1.28 0 1.768l1.768 1.768c0.488 0.488 1.28 0.488 1.768 0l4.482-4.482c0.488-0.488 0.488-1.28 0-1.768l-0.221-0.221 3.166-3.166 1.547 1.547-0.221 0.221c-0.366 0.366-0.366 0.96 0 1.326l0.884 0.884c0.366 0.366 0.96 0.366 1.326 0l4.861-4.861c0.366-0.366 0.366-0.96 0-1.326z"></path>
</svg>
