<svg xmlns="http://www.w3.org/2000/svg" width="20" height="20" viewBox="0 0 20 20">
<path d="M19.063 7.5h-2.52c0.595-0.664 0.957-1.54 0.957-2.5 0-2.068-1.682-3.75-3.75-3.75-1.641 0-2.685 0.808-3.75 2.115-1.146-1.405-2.203-2.115-3.75-2.115-2.068 0-3.75 1.682-3.75 3.75 0 0.96 0.362 1.836 0.958 2.5h-2.52c-0.518 0-0.938 0.42-0.938 0.938v3.125c0 0.518 0.42 0.938 0.938 0.938h0.313v4.375c0 1.036 0.839 1.875 1.875 1.875h13.75c1.036 0 1.875-0.839 1.875-1.875v-4.375h0.313c0.518 0 0.938-0.42 0.938-0.938v-3.125c0-0.518-0.42-0.938-0.938-0.938zM10.938 6.25c0.938-2.188 2.161-2.5 2.813-2.5 0.689 0 1.25 0.561 1.25 1.25s-0.561 1.25-1.25 1.25h-2.813zM6.25 3.75c0.651 0 1.875 0.313 2.813 2.5h-2.813c-0.689 0-1.25-0.561-1.25-1.25s0.561-1.25 1.25-1.25zM8.125 8.75h3.75v7.188c0 0.518-0.42 0.938-0.938 0.938h-1.875c-0.518 0-0.938-0.42-0.938-0.938v-7.188z"></path>
</svg>
