<svg xmlns="http://www.w3.org/2000/svg" width="25" height="20" viewBox="0 0 25 20">
<path d="M24.331 7.774l-10.774 3.324c-0.317 0.097-0.68 0.152-1.057 0.152s-0.741-0.056-1.084-0.159l0.027 0.007-7.833-2.417c-0.335 0.447-0.43 0.9-0.466 1.497 0.363 0.219 0.606 0.617 0.606 1.072 0 0.467-0.256 0.874-0.635 1.088l0.633 4.808c0.025 0.187-0.121 0.353-0.31 0.353h-1.875c-0.189 0-0.334-0.166-0.31-0.353l0.633-4.808c-0.379-0.215-0.635-0.621-0.635-1.088 0-0.47 0.26-0.879 0.643-1.093 0.037-0.701 0.155-1.298 0.475-1.859l-1.699-0.524c-0.894-0.266-0.889-1.533 0-1.797l10.774-3.324c0.317-0.097 0.68-0.152 1.057-0.152s0.741 0.056 1.084 0.159l-0.027-0.007 10.774 3.324c0.894 0.266 0.889 1.533 0 1.797zM13.926 12.292l-0.008 0.003-0.008 0.002c-0.422 0.129-0.907 0.203-1.41 0.203s-0.988-0.074-1.445-0.212l0.035 0.009-0.008-0.002-5.903-1.822-0.492 3.277c0 1.381 3.498 2.5 7.813 2.5s7.813-1.119 7.813-2.5l-0.492-3.277-5.895 1.819z"></path>
</svg>
