<svg xmlns="http://www.w3.org/2000/svg" width="25" height="20" viewBox="0 0 25 20">
<path d="M2.813 4.375h-1.875c-0.518 0-0.938 0.42-0.938 0.938v8.125c0 0.518 0.42 0.938 0.938 0.938h1.875c0.518 0 0.938-0.42 0.938-0.938v-8.125c0-0.518-0.42-0.938-0.938-0.938zM1.875 13.281c-0.431 0-0.781-0.35-0.781-0.781s0.35-0.781 0.781-0.781 0.781 0.35 0.781 0.781-0.35 0.781-0.781 0.781zM24.063 4.375h-1.875c-0.518 0-0.938 0.42-0.938 0.938v8.125c0 0.518 0.42 0.938 0.938 0.938h1.875c0.518 0 0.938-0.42 0.938-0.938v-8.125c0-0.518-0.42-0.938-0.938-0.938zM23.125 13.281c-0.431 0-0.781-0.35-0.781-0.781s0.35-0.781 0.781-0.781 0.781 0.35 0.781 0.781-0.35 0.781-0.781 0.781zM18.982 3.62l1.643 1.878v7.002h-0.749c0.022-0.584-0.171-1.132-0.547-1.551l-3.161-3.864c0.114-0.125 0.108-0.319-0.015-0.436-0.11-0.105-0.277-0.114-0.396-0.030-0.016 0.012-2.357 2.458-2.357 2.458l-0.008 0.008c-0.934 1.051-2.583 1.024-3.482-0.055-0.605-0.726-0.597-1.773 0.018-2.491l2.6-3.034c0.531-0.62 1.321-1.006 2.187-1.006h1.799c0.982 0 1.864 0.432 2.465 1.116l0.003 0.004zM18.85 11.351c0.604 0.655 0.492 1.712-0.093 2.256-0.692 0.643-1.658 0.508-1.794 0.359 0.065 0.612-0.836 1.846-2.204 1.745-0.247 0.828-1.262 1.52-2.312 1.157-0.399 0.399-1.009 0.585-1.555 0.585-1.121 0-2.145-0.468-2.835-1.203l-3.683-3.75v-7.206l2.397-1.975c0.506-0.506 1.204-0.818 1.975-0.818h1.462c0.654 0 1.277 0.267 1.727 0.736l-2.483 2.897c-0.814 0.95-0.824 2.336-0.023 3.298 1.147 1.377 3.242 1.401 4.426 0.075l1.879-1.967 3.115 3.812z"></path>
</svg>
