<svg xmlns="http://www.w3.org/2000/svg" width="20" height="20" viewBox="0 0 20 20">
<path d="M20 5.031c0-1.028-0.815-1.888-1.843-1.906-1.050-0.018-1.907 0.829-1.907 1.875h-0.313v-1.219c0-1.028-0.815-1.888-1.843-1.906-1.050-0.018-1.907 0.829-1.907 1.875v1.25h-0.313v-1.844c0-1.028-0.815-1.888-1.843-1.906-1.050-0.018-1.907 0.829-1.907 1.875v1.875h-0.313v-1.219c0-1.028-0.815-1.888-1.843-1.906-1.050-0.018-1.907 0.829-1.907 1.875v5.313l-0.313-0.278v-1.879c0-1.028-0.815-1.888-1.843-1.906-1.050-0.018-1.907 0.829-1.907 1.875v2.596c0 0 0 0 0 0 0 1.113 0.485 2.113 1.255 2.799l0.004 0.003 4.362 3.877c0.387 0.345 0.629 0.845 0.629 1.401 0 0 0 0 0 0v0 0.26c0 0.518 0.42 0.938 0.938 0.938h9.375c0.518 0 0.938-0.42 0.938-0.938v-0.114c0-0.525 0.108-1.026 0.303-1.48l-0.009 0.024 1.912-4.542c0.186-0.43 0.294-0.93 0.294-1.455 0 0 0 0 0 0v0-5.215z"></path>
</svg>
