<svg xmlns="http://www.w3.org/2000/svg" width="15" height="20" viewBox="0 0 15 20">
<path d="M3.587 18.25v-5.829c-0.322 0.228-0.647 0.413-0.973 0.553-1.243 0.533-2.614-0.387-2.614-1.723 0-0.727 0.426-1.258 1.136-1.563 1.105-0.474 2.513-3.072 3.020-4.201 0.311-0.698 0.995-1.111 1.713-1.112l0-0h6.7c0.461 0 0.855 0.336 0.926 0.792 0.283 1.83 1.503 2.412 1.497 4.833-0 0.106 0.008 0.518 0.008 0.625 0 1.979-0.864 3.186-2.784 2.836-0.363 0.726-1.542 1.201-2.434 0.643-0.827 0.963-2.105 0.884-2.771 0.246v3.9c0 0.943-0.789 1.75-1.712 1.75-0.909 0-1.712-0.834-1.712-1.75zM4.375 2.813v-1.875c0-0.518 0.42-0.938 0.938-0.938h7.5c0.518 0 0.938 0.42 0.938 0.938v1.875c0 0.518-0.42 0.938-0.938 0.938h-7.5c-0.518 0-0.938-0.42-0.938-0.938zM12.656 1.875c0-0.431-0.35-0.781-0.781-0.781s-0.781 0.35-0.781 0.781 0.35 0.781 0.781 0.781 0.781-0.35 0.781-0.781z"></path>
</svg>
