<svg xmlns="http://www.w3.org/2000/svg" width="20" height="20" viewBox="0 0 20 20">
<path d="M0.425 12.367c0.591-0.628 1.58-0.658 2.209-0.067l2.367 2.227v-3.102l-1.524-6.704c-0.191-0.841 0.336-1.679 1.177-1.87s1.679 0.336 1.87 1.177l1.357 5.971h0.384l-1.858-8.087c-0.193-0.841 0.332-1.679 1.173-1.873s1.679 0.332 1.873 1.173l2.019 8.787h0.59l1.892-7.566c0.209-0.837 1.058-1.346 1.895-1.137s1.346 1.058 1.137 1.895l-1.702 6.809h0.433l1.202-5.049c0.2-0.839 1.042-1.358 1.882-1.158s1.358 1.042 1.158 1.882l-1.418 5.956c-0.065 0.261-0.102 0.56-0.102 0.869v0 1.645c0 0.38-0.057 0.747-0.162 1.092l0.007-0.027-1.022 3.449c-0.236 0.796-0.967 1.342-1.798 1.342h-8.464c0 0 0 0 0 0-0.498 0-0.95-0.194-1.286-0.51l0.001 0.001-5.222-4.915c-0.628-0.591-0.658-1.58-0.067-2.209z"></path>
</svg>
