<svg xmlns="http://www.w3.org/2000/svg" width="15" height="20" viewBox="0 0 15 20">
<path d="M5.299 0c0.923 0 1.712 0.807 1.712 1.75v3.9c0.666-0.638 1.944-0.717 2.771 0.246 0.892-0.558 2.071-0.084 2.434 0.643 1.92-0.351 2.784 0.857 2.784 2.836 0 0.107-0.008 0.519-0.008 0.625 0.007 2.421-1.213 3.004-1.497 4.833-0.071 0.456-0.464 0.792-0.926 0.792l-6.7-0c-0.717-0-1.402-0.414-1.713-1.112-0.508-1.128-1.916-3.727-3.020-4.201-0.711-0.305-1.136-0.835-1.136-1.563-0.001-1.337 1.371-2.256 2.614-1.723 0.327 0.14 0.651 0.325 0.973 0.553v-5.829c0-0.916 0.802-1.75 1.712-1.75zM5.313 16.25h7.5c0.518 0 0.938 0.42 0.938 0.938v1.875c0 0.518-0.42 0.938-0.938 0.938h-7.5c-0.518 0-0.938-0.42-0.938-0.938v-1.875c0-0.518 0.42-0.938 0.938-0.938zM11.875 17.344c-0.431 0-0.781 0.35-0.781 0.781s0.35 0.781 0.781 0.781 0.781-0.35 0.781-0.781-0.35-0.781-0.781-0.781z"></path>
</svg>
