<svg xmlns="http://www.w3.org/2000/svg" width="23" height="20" viewBox="0 0 23 20">
<path d="M1.871 10.039c-0.637-0.949-1.246-2.207-1.246-3.574 0-3.461 2.121-5.527 5.668-5.527 2.074 0 4.020 1.629 4.957 2.551 0.938-0.922 2.883-2.551 4.957-2.551 3.547 0 5.668 2.066 5.668 5.527 0 1.367-0.605 2.625-1.246 3.574h-4.691l-1.031-2.289c-0.184-0.348-0.688-0.332-0.844 0.027l-2.082 5.258-2.785-8.348c-0.145-0.414-0.73-0.418-0.883-0.008l-1.875 5.359h-4.566zM15.465 11.289c-0.176 0-0.336-0.098-0.414-0.25l-0.5-1.27-2.223 5.578c-0.172 0.387-0.73 0.367-0.871-0.035l-2.723-8.172-1.312 3.844c-0.066 0.184-0.242 0.305-0.438 0.305h-4.117c0.207 0.223-0.5-0.469 7.77 7.523 0.344 0.332 0.891 0.332 1.234 0 7.98-7.703 7.461-7.188 7.773-7.523h-4.18z"></path>
</svg>
