<svg xmlns="http://www.w3.org/2000/svg" width="15" height="20" viewBox="0 0 15 20">
<path d="M14.063 0h-13.125c-0.518 0-0.938 0.42-0.938 0.938v0.625c0 0.518 0.42 0.938 0.938 0.938 0 3.553 1.993 6.552 4.72 7.5-2.728 0.948-4.72 3.947-4.72 7.5-0.518 0-0.938 0.42-0.938 0.938v0.625c0 0.518 0.42 0.938 0.938 0.938h13.125c0.518 0 0.938-0.42 0.938-0.938v-0.625c0-0.518-0.42-0.938-0.938-0.938 0-3.553-1.993-6.552-4.72-7.5 2.728-0.948 4.72-3.947 4.72-7.5 0.518 0 0.938-0.42 0.938-0.938v-0.625c0-0.518-0.42-0.938-0.938-0.938zM11.13 15h-7.259c0.666-1.828 2.035-3.125 3.63-3.125s2.963 1.297 3.63 3.125zM11.131 5h-7.26c-0.277-0.76-0.433-1.611-0.433-2.5h8.125c0 0.891-0.156 1.742-0.432 2.5z"></path>
</svg>
