<svg xmlns="http://www.w3.org/2000/svg" width="20" height="20" viewBox="0 0 20 20">
<path d="M20 7.799c0 0.923-0.807 1.712-1.75 1.712h-3.9c0.638 0.666 0.717 1.944-0.246 2.771 0.558 0.892 0.084 2.071-0.643 2.434 0.351 1.92-0.857 2.784-2.836 2.784-0.107 0-0.519-0.008-0.625-0.008-2.421 0.007-3.004-1.213-4.833-1.497-0.456-0.071-0.792-0.464-0.792-0.926v-6.7l0-0c0-0.717 0.414-1.402 1.112-1.713 1.128-0.508 3.727-1.916 4.201-3.020 0.305-0.711 0.835-1.136 1.563-1.136 1.337-0.001 2.256 1.371 1.723 2.614-0.14 0.327-0.325 0.651-0.553 0.973h5.829c0.916 0 1.75 0.802 1.75 1.712zM3.75 7.813v7.5c0 0.518-0.42 0.938-0.938 0.938h-1.875c-0.518 0-0.938-0.42-0.938-0.938v-7.5c0-0.518 0.42-0.938 0.938-0.938h1.875c0.518 0 0.938 0.42 0.938 0.938zM2.656 14.375c0-0.431-0.35-0.781-0.781-0.781s-0.781 0.35-0.781 0.781 0.35 0.781 0.781 0.781 0.781-0.35 0.781-0.781z"></path>
</svg>
