<svg xmlns="http://www.w3.org/2000/svg" width="23" height="20" viewBox="0 0 23 20">
<path d="M19.063 12.215v5.598c0 0.52-0.418 0.938-0.938 0.938h-4.531c-0.258 0-0.469-0.211-0.469-0.469v-4.375c0-0.258-0.211-0.469-0.469-0.469h-2.813c-0.258 0-0.469 0.211-0.469 0.469v4.375c0 0.258-0.211 0.469-0.469 0.469h-4.531c-0.52 0-0.938-0.418-0.938-0.938v-5.598c0-0.141 0.063-0.273 0.172-0.363l7.344-6.047c0.172-0.141 0.422-0.141 0.598 0l7.344 6.047c0.105 0.090 0.168 0.223 0.168 0.363zM22.328 9.836l-3.266-2.691v-5.41c0-0.258-0.211-0.469-0.469-0.469h-2.188c-0.258 0-0.469 0.211-0.469 0.469v2.836l-3.496-2.879c-0.691-0.57-1.691-0.57-2.383 0l-9.887 8.145c-0.199 0.164-0.227 0.461-0.063 0.66l0.996 1.211c0.164 0.199 0.461 0.227 0.66 0.063l9.188-7.566c0.172-0.141 0.422-0.141 0.598 0l9.188 7.566c0.199 0.164 0.496 0.137 0.66-0.063l0.996-1.211c0.164-0.203 0.133-0.496-0.066-0.66z"></path>
</svg>
