<svg xmlns="http://www.w3.org/2000/svg" width="18" height="20" viewBox="0 0 18 20">
<path d="M17.5 3.125v13.75c0 1.036-0.839 1.875-1.875 1.875h-13.75c-1.036 0-1.875-0.839-1.875-1.875v-13.75c0-1.036 0.839-1.875 1.875-1.875h13.75c1.036 0 1.875 0.839 1.875 1.875zM13.125 5h-1.25c-0.345 0-0.625 0.28-0.625 0.625v3.125h-5v-3.125c0-0.345-0.28-0.625-0.625-0.625h-1.25c-0.345 0-0.625 0.28-0.625 0.625v8.75c0 0.345 0.28 0.625 0.625 0.625h1.25c0.345 0 0.625-0.28 0.625-0.625v-3.125h5v3.125c0 0.345 0.28 0.625 0.625 0.625h1.25c0.345 0 0.625-0.28 0.625-0.625v-8.75c0-0.345-0.28-0.625-0.625-0.625z"></path>
</svg>
