<svg xmlns="http://www.w3.org/2000/svg" width="18" height="20" viewBox="0 0 18 20">
<path d="M15.938 8.438c-0.863 0-1.563 0.7-1.563 1.563h-0.313v-1.25c0-0.863-0.7-1.563-1.563-1.563s-1.563 0.7-1.563 1.563v1.25h-0.313v-8.125c0-1.036-0.839-1.875-1.875-1.875s-1.875 0.839-1.875 1.875v8.125h-0.53l-2.724-6.936c-0.379-0.964-1.467-1.438-2.431-1.060s-1.438 1.467-1.060 2.431l2.921 7.435-1.214 0.972c-0.601 0.481-0.762 1.327-0.381 1.995l2.5 4.375c0.274 0.474 0.779 0.787 1.357 0.787 0 0 0 0 0 0h9.375c0.725 0 1.355-0.499 1.521-1.205l1.25-5.313c0.026-0.107 0.042-0.231 0.042-0.358 0-0 0-0 0-0v0-3.125c0-0.863-0.7-1.563-1.563-1.563z"></path>
</svg>
