<svg xmlns="http://www.w3.org/2000/svg" width="20" height="20" viewBox="0 0 20 20">
<path d="M10 1.25c-5.527 0-10 4.472-10 10v1.875c0 0 0 0 0 0 0 0.487 0.278 0.908 0.684 1.115l0.007 0.003 0.562 0.281c0.079 2.347 2.006 4.226 4.372 4.226h0.938c0.518 0 0.938-0.42 0.938-0.938v-6.875c0-0.518-0.42-0.938-0.938-0.938h-0.938c-1.224 0-2.331 0.503-3.125 1.314v-0.064c0-4.136 3.364-7.5 7.5-7.5s7.5 3.364 7.5 7.5v0.064c-0.794-0.81-1.901-1.314-3.125-1.314h-0.938c-0.518 0-0.938 0.42-0.938 0.938v6.875c0 0.518 0.42 0.938 0.938 0.938h0.938c2.366 0 4.294-1.879 4.372-4.226l0.562-0.281c0.413-0.21 0.691-0.631 0.691-1.118v0-1.875c0-5.527-4.473-10-10-10z"></path>
</svg>
