<svg xmlns="http://www.w3.org/2000/svg" width="20" height="20" viewBox="0 0 20 20">
<path d="M1.75 6.087h5.829c-0.228-0.322-0.413-0.647-0.553-0.973-0.533-1.243 0.387-2.614 1.723-2.614 0.727 0 1.258 0.426 1.563 1.136 0.474 1.105 3.072 2.513 4.201 3.020 0.698 0.311 1.111 0.995 1.112 1.713l0 0v6.7c0 0.461-0.336 0.855-0.792 0.926-1.83 0.283-2.412 1.503-4.833 1.497-0.106-0-0.518 0.008-0.625 0.008-1.979 0-3.186-0.864-2.836-2.784-0.726-0.363-1.201-1.542-0.643-2.434-0.963-0.827-0.884-2.105-0.246-2.771h-3.9c-0.943 0-1.75-0.789-1.75-1.712 0-0.909 0.834-1.712 1.75-1.712zM17.188 6.875h1.875c0.518 0 0.938 0.42 0.938 0.938v7.5c0 0.518-0.42 0.938-0.938 0.938h-1.875c-0.518 0-0.938-0.42-0.938-0.938v-7.5c0-0.518 0.42-0.938 0.938-0.938zM18.125 15.156c0.431 0 0.781-0.35 0.781-0.781s-0.35-0.781-0.781-0.781-0.781 0.35-0.781 0.781 0.35 0.781 0.781 0.781z"></path>
</svg>
