<svg xmlns="http://www.w3.org/2000/svg" width="18" height="20" viewBox="0 0 18 20">
<path d="M15.968 5c-0.876-0.017-1.593 0.717-1.593 1.593v3.407h-0.313v-6.883c0-0.876-0.717-1.61-1.593-1.593-0.849 0.016-1.532 0.709-1.532 1.562v6.914h-0.313v-8.407c0-0.876-0.717-1.61-1.593-1.593-0.849 0.016-1.532 0.709-1.532 1.562v8.438h-0.313v-6.844c0-0.876-0.717-1.61-1.593-1.593-0.849 0.016-1.532 0.709-1.532 1.562v9.218l-1.236-1.7c-0.508-0.698-1.485-0.852-2.183-0.345s-0.852 1.485-0.345 2.183l4.906 6.746c0.345 0.47 0.895 0.772 1.516 0.772h7.718c0.87 0 1.626-0.599 1.825-1.446l1.035-4.401c0.127-0.516 0.199-1.108 0.199-1.718v0-5.873c0-0.853-0.683-1.546-1.532-1.562z"></path>
</svg>
