<svg xmlns="http://www.w3.org/2000/svg" width="20" height="20" viewBox="0 0 20 20">
<path d="M8.438 17.188c0-0.863 0.7-1.563 1.563-1.563v-0.313h-1.25c-0.863 0-1.563-0.7-1.563-1.563s0.7-1.563 1.563-1.563h1.25v-0.313h-8.125c-1.036 0-1.875-0.839-1.875-1.875s0.839-1.875 1.875-1.875h8.125v-0.53l-6.936-2.724c-0.964-0.379-1.438-1.467-1.060-2.431s1.467-1.438 2.431-1.060l7.435 2.921 0.972-1.214c0.481-0.601 1.327-0.762 1.995-0.381l4.375 2.5c0.474 0.274 0.787 0.779 0.787 1.357v0 9.375c0 0.725-0.499 1.355-1.205 1.521l-5.313 1.25c-0.107 0.026-0.231 0.042-0.358 0.042-0 0-0 0-0 0h-3.125c-0.863 0-1.563-0.7-1.563-1.563z"></path>
</svg>
