<svg xmlns="http://www.w3.org/2000/svg" width="15" height="20" viewBox="0 0 15 20">
<path d="M14.063 2.5c0.518 0 0.938-0.42 0.938-0.938v-0.625c0-0.518-0.42-0.938-0.938-0.938h-13.125c-0.518 0-0.938 0.42-0.938 0.938v0.625c0 0.518 0.42 0.938 0.938 0.938 0 3.553 1.993 6.552 4.72 7.5-2.728 0.948-4.72 3.947-4.72 7.5-0.518 0-0.938 0.42-0.938 0.938v0.625c0 0.518 0.42 0.938 0.938 0.938h13.125c0.518 0 0.938-0.42 0.938-0.938v-0.625c0-0.518-0.42-0.938-0.938-0.938 0-3.553-1.993-6.552-4.72-7.5 2.728-0.948 4.72-3.947 4.72-7.5zM7.5 8.125c-2.257 0-4.063-2.598-4.063-5.625h8.125c0 3.045-1.817 5.625-4.063 5.625z"></path>
</svg>
