<svg xmlns="http://www.w3.org/2000/svg" width="18" height="20" viewBox="0 0 18 20">
<path d="M17.214 7.114l0.279-1.563c0.051-0.287-0.17-0.551-0.461-0.551h-2.922l0.571-3.199c0.051-0.287-0.17-0.551-0.461-0.551h-1.587c-0.23 0-0.421 0.165-0.461 0.383l-0 0.003-0.601 3.364h-3.853l0.571-3.199c0.051-0.287-0.17-0.551-0.461-0.551h-1.587c-0.23 0-0.421 0.165-0.461 0.383l-0 0.003-0.601 3.364h-3.090c-0.23 0-0.421 0.165-0.461 0.383l-0 0.003-0.279 1.563c-0.051 0.287 0.17 0.551 0.461 0.551h2.922l-0.893 5h-3.090c-0.23 0-0.421 0.165-0.461 0.383l-0 0.003-0.279 1.563c-0.051 0.287 0.17 0.551 0.461 0.551h2.922l-0.571 3.199c-0.051 0.287 0.17 0.551 0.461 0.551h1.587c0.23 0 0.421-0.165 0.461-0.383l0-0.003 0.601-3.364h3.853l-0.571 3.199c-0.051 0.287 0.17 0.551 0.461 0.551h1.587c0.23 0 0.421-0.165 0.461-0.383l0-0.003 0.601-3.364h3.090c0.23 0 0.421-0.165 0.461-0.383l0-0.003 0.279-1.563c0.051-0.287-0.17-0.551-0.461-0.551h-2.922l0.893-5h3.090c0.23 0 0.421-0.165 0.461-0.383l0-0.003zM10.23 12.5h-3.853l0.893-5h3.853l-0.893 5z"></path>
</svg>
