<svg xmlns="http://www.w3.org/2000/svg" width="18" height="20" viewBox="0 0 18 20">
<path d="M17.5 19.219v0.781h-17.5v-0.781c0-0.259 0.21-0.469 0.469-0.469h0.781v-14.063c0-0.518 0.42-0.938 0.938-0.938h3.438v-2.813c0-0.518 0.42-0.938 0.938-0.938h4.375c0.518 0 0.938 0.42 0.938 0.938v2.813h3.438c0.518 0 0.938 0.42 0.938 0.938v14.063h0.781c0.259 0 0.469 0.21 0.469 0.469zM12.031 7.5h-1.563c-0.259 0-0.469 0.21-0.469 0.469v1.563c0 0.259 0.21 0.469 0.469 0.469h1.563c0.259 0 0.469-0.21 0.469-0.469v-1.563c0-0.259-0.21-0.469-0.469-0.469zM5.469 10h1.563c0.259 0 0.469-0.21 0.469-0.469v-1.563c0-0.259-0.21-0.469-0.469-0.469h-1.563c-0.259 0-0.469 0.21-0.469 0.469v1.563c0 0.259 0.21 0.469 0.469 0.469zM9.531 15h-1.563c-0.259 0-0.469 0.21-0.469 0.469v3.281h2.5v-3.281c0-0.259-0.21-0.469-0.469-0.469zM12.031 11.25h-1.563c-0.259 0-0.469 0.21-0.469 0.469v1.563c0 0.259 0.21 0.469 0.469 0.469h1.563c0.259 0 0.469-0.21 0.469-0.469v-1.563c0-0.259-0.21-0.469-0.469-0.469zM7.5 11.719c0-0.259-0.21-0.469-0.469-0.469h-1.563c-0.259 0-0.469 0.21-0.469 0.469v1.563c0 0.259 0.21 0.469 0.469 0.469h1.563c0.259 0 0.469-0.21 0.469-0.469v-1.563zM7.109 3.75h1.016v1.016c0 0.129 0.105 0.234 0.234 0.234v0h0.781c0.129 0 0.234-0.105 0.234-0.234v0-1.016h1.016c0.129 0 0.234-0.105 0.234-0.234v0-0.781c0-0.129-0.105-0.234-0.234-0.234v0h-1.016v-1.016c0-0.129-0.105-0.234-0.234-0.234v0h-0.781c-0.129 0-0.234 0.105-0.234 0.234v0 1.016h-1.016c-0.129 0-0.234 0.105-0.234 0.234v0 0.781c0 0.129 0.105 0.234 0.234 0.234v0z"></path>
</svg>
