<svg xmlns="http://www.w3.org/2000/svg" width="23" height="20" viewBox="0 0 23 20">
<path d="M22.5 11.875v3.75c0 1.036-0.839 1.875-1.875 1.875h-18.75c-1.036 0-1.875-0.839-1.875-1.875v-3.75c0-1.036 0.839-1.875 1.875-1.875h18.75c1.036 0 1.875 0.839 1.875 1.875zM20.625 8.75c0.001 0 0.002 0 0.003 0 0.433 0 0.845 0.089 1.22 0.249l-0.020-0.008-3.771-5.656c-0.341-0.506-0.912-0.835-1.56-0.835h-10.493c-0.648 0-1.219 0.329-1.556 0.828l-0.004 0.007-3.771 5.656c0.354-0.152 0.767-0.241 1.199-0.241 0.001 0 0.002 0 0.003 0h18.75zM18.75 12.5c-0.69 0-1.25 0.56-1.25 1.25s0.56 1.25 1.25 1.25 1.25-0.56 1.25-1.25-0.56-1.25-1.25-1.25zM15 12.5c-0.69 0-1.25 0.56-1.25 1.25s0.56 1.25 1.25 1.25 1.25-0.56 1.25-1.25-0.56-1.25-1.25-1.25z"></path>
</svg>
