<svg xmlns="http://www.w3.org/2000/svg" width="23" height="20" viewBox="0 0 23 20">
<path d="M15 18.75h7.5v-4.54c0 0 0 0 0-0 0-0.743-0.216-1.435-0.588-2.018l0.009 0.015-6.369-10.084c-0.338-0.528-0.921-0.874-1.585-0.874h-13.029c-0.518 0-0.938 0.42-0.938 0.938v0.625c0 1.208 0.979 2.188 2.188 2.188h8.984c0.502 0 0.842 0.51 0.649 0.974l-0.836 2.007c-0.193 0.456-0.637 0.769-1.154 0.769h-4.83c-1.381 0-2.5 1.119-2.5 2.5v0.313c0 0.518 0.42 0.938 0.938 0.938h5.758c0 0 0 0 0 0 0.372 0 0.719 0.109 1.011 0.296l-0.007-0.004 4.365 2.766c0.264 0.169 0.436 0.46 0.436 0.792v0 2.401z"></path>
</svg>
