<svg xmlns="http://www.w3.org/2000/svg" width="20" height="20" viewBox="0 0 20 20">
<path d="M19.375 3.125v-1.25c0-0.345-0.28-0.625-0.625-0.625h-6.25c-0.345 0-0.625 0.28-0.625 0.625v1.25c0 0.345 0.28 0.625 0.625 0.625h1.47v5h-7.939v-5h1.47c0.345 0 0.625-0.28 0.625-0.625v-1.25c0-0.345-0.28-0.625-0.625-0.625h-6.25c-0.345 0-0.625 0.28-0.625 0.625v1.25c0 0.345 0.28 0.625 0.625 0.625h1.456v12.5h-1.456c-0.345 0-0.625 0.28-0.625 0.625v1.25c0 0.345 0.28 0.625 0.625 0.625h6.25c0.345 0 0.625-0.28 0.625-0.625v-1.25c0-0.345-0.28-0.625-0.625-0.625h-1.47v-5h7.939v5h-1.47c-0.345 0-0.625 0.28-0.625 0.625v1.25c0 0.345 0.28 0.625 0.625 0.625h6.25c0.345 0 0.625-0.28 0.625-0.625v-1.25c0-0.345-0.28-0.625-0.625-0.625h-1.456v-12.5h1.456c0.345 0 0.625-0.28 0.625-0.625z"></path>
</svg>
