<svg xmlns="http://www.w3.org/2000/svg" width="20" height="20" viewBox="0 0 20 20">
<path d="M19.688 9.982c0.010 5.338-4.343 9.702-9.68 9.706-2.305 0.002-4.423-0.802-6.087-2.145-0.433-0.349-0.465-0.998-0.072-1.391l0.44-0.44c0.336-0.336 0.873-0.373 1.246-0.077 1.226 0.973 2.777 1.554 4.466 1.554 3.973 0 7.188-3.215 7.188-7.188s-3.215-7.188-7.188-7.188c-1.907 0-3.639 0.741-4.925 1.95l1.983 1.983c0.394 0.394 0.115 1.067-0.442 1.067h-5.679c-0.345 0-0.625-0.28-0.625-0.625v-5.679c0-0.557 0.673-0.836 1.067-0.442l1.929 1.929c1.739-1.662 4.096-2.683 6.692-2.683 5.344 0 9.678 4.327 9.688 9.669zM12.621 13.059l0.384-0.493c0.318-0.409 0.244-0.998-0.164-1.316l-1.59-1.237v-4.076c0-0.518-0.42-0.938-0.938-0.938h-0.625c-0.518 0-0.938 0.42-0.938 0.938v5.299l2.555 1.987c0.409 0.318 0.998 0.244 1.316-0.164z"></path>
</svg>
