<svg xmlns="http://www.w3.org/2000/svg" width="18" height="20" viewBox="0 0 18 20">
<path d="M17.5 9.375v3.75c0 0.12-0.014 0.241-0.042 0.358l-1.25 5.313c-0.166 0.706-0.796 1.205-1.521 1.205h-8.125c-0.518-0-0.976-0.252-1.261-0.639l-0.003-0.004-5-6.875c-0.508-0.698-0.353-1.675 0.345-2.183s1.675-0.353 2.183 0.345l1.236 1.7v-10.781c0-0.863 0.7-1.563 1.563-1.563s1.563 0.7 1.563 1.563v7.813h0.313v-1.563c0-0.863 0.7-1.563 1.563-1.563s1.563 0.7 1.563 1.563v1.563h0.313v-0.938c0-0.863 0.7-1.563 1.563-1.563s1.563 0.7 1.563 1.563v0.938h0.313c0-0.863 0.7-1.563 1.563-1.563s1.563 0.7 1.563 1.563zM7.5 12.5h-0.313v3.75h0.313v-3.75zM10.938 12.5h-0.313v3.75h0.313v-3.75zM14.375 12.5h-0.313v3.75h0.313v-3.75z"></path>
</svg>
