<svg xmlns="http://www.w3.org/2000/svg" width="13" height="20" viewBox="0 0 13 20">
<path d="M7.998 16.25h-1.322l2.425-12.5h1.591c0.303 0 0.555-0.215 0.613-0.501l0.001-0.004 0.244-1.25c0.075-0.386-0.22-0.745-0.613-0.745h-6.24c-0.303 0-0.555 0.215-0.613 0.501l-0.001 0.004-0.244 1.25c-0.075 0.386 0.22 0.745 0.613 0.745h1.322l-2.425 12.5h-1.542c0 0 0 0-0 0-0.303 0-0.555 0.215-0.613 0.501l-0.001 0.004-0.244 1.25c-0.075 0.386 0.22 0.745 0.613 0.745h6.191c0 0 0 0 0 0 0.303 0 0.555-0.215 0.613-0.501l0.001-0.004 0.244-1.25c0.075-0.386-0.22-0.745-0.613-0.745z"></path>
</svg>
