<svg xmlns="http://www.w3.org/2000/svg" width="20" height="20" viewBox="0 0 20 20">
<path d="M10 0.313c-5.35 0-9.688 4.339-9.688 9.688 0 5.351 4.338 9.688 9.688 9.688s9.688-4.336 9.688-9.688c0-5.348-4.338-9.688-9.688-9.688zM10 4.609c0.906 0 1.641 0.735 1.641 1.641s-0.735 1.641-1.641 1.641-1.641-0.735-1.641-1.641 0.735-1.641 1.641-1.641zM12.188 14.531c0 0.259-0.21 0.469-0.469 0.469h-3.438c-0.259 0-0.469-0.21-0.469-0.469v-0.938c0-0.259 0.21-0.469 0.469-0.469h0.469v-2.5h-0.469c-0.259 0-0.469-0.21-0.469-0.469v-0.938c0-0.259 0.21-0.469 0.469-0.469h2.5c0.259 0 0.469 0.21 0.469 0.469v3.906h0.469c0.259 0 0.469 0.21 0.469 0.469v0.938z"></path>
</svg>
