<svg xmlns="http://www.w3.org/2000/svg" width="23" height="20" viewBox="0 0 23 20">
<path d="M22.185 9.528l-4.128-6.193c-0.341-0.506-0.912-0.835-1.56-0.835h-10.493c-0.648 0-1.219 0.329-1.556 0.828l-0.004 0.007-4.128 6.193c-0.197 0.292-0.315 0.652-0.315 1.040 0 0 0 0 0 0v0 5.057c0 1.036 0.839 1.875 1.875 1.875h18.75c1.036 0 1.875-0.839 1.875-1.875v-5.057c0 0 0-0 0-0 0-0.388-0.118-0.748-0.319-1.047l0.004 0.007zM6.338 5h9.824l3.333 5h-4.808l-1.25 2.5h-4.375l-1.25-2.5h-4.808l3.333-5z"></path>
</svg>
