<svg xmlns="http://www.w3.org/2000/svg" width="20" height="20" viewBox="0 0 20 20">
<path d="M18.125 2.5h-16.25c-1.036 0-1.875 0.839-1.875 1.875v11.25c0 1.036 0.839 1.875 1.875 1.875h16.25c1.036 0 1.875-0.839 1.875-1.875v-11.25c0-1.036-0.839-1.875-1.875-1.875zM10 13.672c0 0.388-0.315 0.703-0.703 0.703h-6.094c-0.388 0-0.703-0.315-0.703-0.703v-0.543c0-0.645 0.439-1.208 1.065-1.364l1.045-0.261c0.853 0.613 2.183 0.789 3.28 0l1.045 0.261c0.626 0.156 1.065 0.719 1.065 1.364v0.543zM3.906 9.219c0-1.294 1.049-2.344 2.344-2.344s2.344 1.049 2.344 2.344-1.049 2.344-2.344 2.344-2.344-1.049-2.344-2.344zM17.5 13.281c0 0.259-0.21 0.469-0.469 0.469h-5.313c-0.259 0-0.469-0.21-0.469-0.469v-0.313c0-0.259 0.21-0.469 0.469-0.469h5.313c0.259 0 0.469 0.21 0.469 0.469v0.313zM17.5 10.781c0 0.259-0.21 0.469-0.469 0.469h-5.313c-0.259 0-0.469-0.21-0.469-0.469v-0.313c0-0.259 0.21-0.469 0.469-0.469h5.313c0.259 0 0.469 0.21 0.469 0.469v0.313zM17.5 8.281c0 0.259-0.21 0.469-0.469 0.469h-5.313c-0.259 0-0.469-0.21-0.469-0.469v-0.313c0-0.259 0.21-0.469 0.469-0.469h5.313c0.259 0 0.469 0.21 0.469 0.469v0.313zM18.75 4.531c0 0.259-0.21 0.469-0.469 0.469h-16.563c-0.259 0-0.469-0.21-0.469-0.469v-0.313c0-0.259 0.21-0.469 0.469-0.469h16.563c0.259 0 0.469 0.21 0.469 0.469v0.313z"></path>
</svg>
