<svg xmlns="http://www.w3.org/2000/svg" width="8" height="20" viewBox="0 0 8 20">
<path d="M0.781 16.571h0.781v-5.643h-0.781c-0.431 0-0.781-0.35-0.781-0.781v-1.866c0-0.431 0.35-0.781 0.781-0.781h4.375c0.431 0 0.781 0.35 0.781 0.781v8.29h0.781c0.431 0 0.781 0.35 0.781 0.781v1.866c0 0.431-0.35 0.781-0.781 0.781h-5.938c-0.431 0-0.781-0.35-0.781-0.781v-1.866c0-0.431 0.35-0.781 0.781-0.781zM3.75 0c-1.553 0-2.813 1.259-2.813 2.813s1.259 2.813 2.813 2.813 2.813-1.259 2.813-2.813-1.259-2.813-2.813-2.813z"></path>
</svg>
