<svg xmlns="http://www.w3.org/2000/svg" width="20" height="20" viewBox="0 0 20 20">
<path d="M18.125 17.5h-16.25c-1.036 0-1.875-0.839-1.875-1.875v-11.25c0-1.036 0.839-1.875 1.875-1.875h16.25c1.036 0 1.875 0.839 1.875 1.875v11.25c0 1.036-0.839 1.875-1.875 1.875zM4.375 4.688c-1.208 0-2.188 0.979-2.188 2.188s0.979 2.188 2.188 2.188 2.188-0.979 2.188-2.188-0.979-2.188-2.188-2.188zM2.5 15h15v-4.375l-3.419-3.419c-0.183-0.183-0.48-0.183-0.663 0l-5.294 5.294-2.169-2.169c-0.183-0.183-0.48-0.183-0.663 0l-2.794 2.794v1.875z"></path>
</svg>
