<svg xmlns="http://www.w3.org/2000/svg" width="23" height="20" viewBox="0 0 23 20">
<path d="M18.75 16.25v0.625c0 1.036-0.839 1.875-1.875 1.875h-15c-1.036 0-1.875-0.839-1.875-1.875v-10c0-1.036 0.839-1.875 1.875-1.875h0.625v8.125c0 1.723 1.402 3.125 3.125 3.125h13.125zM22.5 13.125v-10c0-1.036-0.839-1.875-1.875-1.875h-15c-1.036 0-1.875 0.839-1.875 1.875v10c0 1.036 0.839 1.875 1.875 1.875h15c1.036 0 1.875-0.839 1.875-1.875zM10 5c0 1.036-0.839 1.875-1.875 1.875s-1.875-0.839-1.875-1.875 0.839-1.875 1.875-1.875 1.875 0.839 1.875 1.875zM6.25 10.625l2.169-2.169c0.183-0.183 0.48-0.183 0.663 0l1.544 1.544 5.294-5.294c0.183-0.183 0.48-0.183 0.663 0l3.419 3.419v4.375h-13.75v-1.875z"></path>
</svg>
