<svg xmlns="http://www.w3.org/2000/svg" width="23" height="20" viewBox="0 0 23 20">
<path d="M20.625 17.5h-18.75c-1.036 0-1.875-0.839-1.875-1.875v-11.25c0-1.036 0.839-1.875 1.875-1.875h18.75c1.036 0 1.875 0.839 1.875 1.875v11.25c0 1.036-0.839 1.875-1.875 1.875zM5 7.031v-1.563c0-0.259-0.21-0.469-0.469-0.469h-1.563c-0.259 0-0.469 0.21-0.469 0.469v1.563c0 0.259 0.21 0.469 0.469 0.469h1.563c0.259 0 0.469-0.21 0.469-0.469zM8.75 7.031v-1.563c0-0.259-0.21-0.469-0.469-0.469h-1.563c-0.259 0-0.469 0.21-0.469 0.469v1.563c0 0.259 0.21 0.469 0.469 0.469h1.563c0.259 0 0.469-0.21 0.469-0.469zM12.5 7.031v-1.563c0-0.259-0.21-0.469-0.469-0.469h-1.563c-0.259 0-0.469 0.21-0.469 0.469v1.563c0 0.259 0.21 0.469 0.469 0.469h1.563c0.259 0 0.469-0.21 0.469-0.469zM16.25 7.031v-1.563c0-0.259-0.21-0.469-0.469-0.469h-1.563c-0.259 0-0.469 0.21-0.469 0.469v1.563c0 0.259 0.21 0.469 0.469 0.469h1.563c0.259 0 0.469-0.21 0.469-0.469zM20 7.031v-1.563c0-0.259-0.21-0.469-0.469-0.469h-1.563c-0.259 0-0.469 0.21-0.469 0.469v1.563c0 0.259 0.21 0.469 0.469 0.469h1.563c0.259 0 0.469-0.21 0.469-0.469zM6.875 10.781v-1.563c0-0.259-0.21-0.469-0.469-0.469h-1.563c-0.259 0-0.469 0.21-0.469 0.469v1.563c0 0.259 0.21 0.469 0.469 0.469h1.563c0.259 0 0.469-0.21 0.469-0.469zM10.625 10.781v-1.563c0-0.259-0.21-0.469-0.469-0.469h-1.563c-0.259 0-0.469 0.21-0.469 0.469v1.563c0 0.259 0.21 0.469 0.469 0.469h1.563c0.259 0 0.469-0.21 0.469-0.469zM14.375 10.781v-1.563c0-0.259-0.21-0.469-0.469-0.469h-1.563c-0.259 0-0.469 0.21-0.469 0.469v1.563c0 0.259 0.21 0.469 0.469 0.469h1.563c0.259 0 0.469-0.21 0.469-0.469zM18.125 10.781v-1.563c0-0.259-0.21-0.469-0.469-0.469h-1.563c-0.259 0-0.469 0.21-0.469 0.469v1.563c0 0.259 0.21 0.469 0.469 0.469h1.563c0.259 0 0.469-0.21 0.469-0.469zM5 14.531v-1.563c0-0.259-0.21-0.469-0.469-0.469h-1.563c-0.259 0-0.469 0.21-0.469 0.469v1.563c0 0.259 0.21 0.469 0.469 0.469h1.563c0.259 0 0.469-0.21 0.469-0.469zM16.25 14.531v-1.563c0-0.259-0.21-0.469-0.469-0.469h-9.063c-0.259 0-0.469 0.21-0.469 0.469v1.563c0 0.259 0.21 0.469 0.469 0.469h9.063c0.259 0 0.469-0.21 0.469-0.469zM20 14.531v-1.563c0-0.259-0.21-0.469-0.469-0.469h-1.563c-0.259 0-0.469 0.21-0.469 0.469v1.563c0 0.259 0.21 0.469 0.469 0.469h1.563c0.259 0 0.469-0.21 0.469-0.469z"></path>
</svg>
