<svg xmlns="http://www.w3.org/2000/svg" width="20" height="20" viewBox="0 0 20 20">
<path d="M20 6.875c0 3.797-3.078 6.875-6.875 6.875-0.438 0-0.867-0.041-1.282-0.12l-0.938 1.055c-0.173 0.193-0.422 0.315-0.701 0.315-0 0-0 0-0 0h-1.454v1.563c0 0.518-0.42 0.938-0.938 0.938h-1.563v1.563c0 0.518-0.42 0.938-0.938 0.938h-4.375c-0.518 0-0.938-0.42-0.938-0.938v-3.049c0-0.249 0.099-0.487 0.275-0.663l6.32-6.32c-0.224-0.678-0.345-1.402-0.345-2.155 0-3.797 3.078-6.875 6.875-6.875 3.808-0 6.875 3.067 6.875 6.875zM13.125 5c0 1.036 0.839 1.875 1.875 1.875s1.875-0.839 1.875-1.875-0.839-1.875-1.875-1.875-1.875 0.839-1.875 1.875z"></path>
</svg>
