<svg xmlns="http://www.w3.org/2000/svg" width="25" height="20" viewBox="0 0 25 20">
<path d="M20 2.5v10h-15v-10h15zM20.625 0h-16.25c-1.035 0-1.875 0.84-1.875 1.875v11.25c0 1.035 0.84 1.875 1.875 1.875h16.25c1.035 0 1.875-0.84 1.875-1.875v-11.25c0-1.035-0.84-1.875-1.875-1.875zM24.531 16.25h-9.316c-0.117 0-0.215 0.082-0.23 0.199-0.094 0.594-0.609 1.051-1.234 1.051h-2.5c-0.625 0-1.141-0.457-1.234-1.051-0.020-0.113-0.117-0.199-0.23-0.199h-9.316c-0.258 0-0.469 0.211-0.469 0.469v1.406c0 1.035 0.84 1.875 1.875 1.875h21.25c1.035 0 1.875-0.84 1.875-1.875v-1.406c0-0.258-0.211-0.469-0.469-0.469z"></path>
</svg>
