<svg xmlns="http://www.w3.org/2000/svg" width="20" height="20" viewBox="0 0 20 20">
<path d="M19.103 0.897c-0.902-0.902-2.125-1.129-2.933-0.658-2.301 1.34-7.080-2.073-12.542 3.389s-2.048 10.241-3.388 12.542c-0.471 0.809-0.245 2.031 0.658 2.933s2.125 1.129 2.933 0.657c2.301-1.34 7.080 2.073 12.542-3.388s2.048-10.241 3.389-12.542c0.471-0.809 0.245-2.031-0.658-2.933zM9.527 3.731c-2.273 0.568-5.227 3.522-5.795 5.795-0.071 0.284-0.326 0.474-0.606 0.474-0.050 0-0.101-0.006-0.152-0.019-0.335-0.084-0.538-0.423-0.455-0.758 0.681-2.722 3.978-6.023 6.705-6.705 0.335-0.084 0.674 0.12 0.758 0.455s-0.12 0.674-0.455 0.758z"></path>
</svg>
