<svg xmlns="http://www.w3.org/2000/svg" width="20" height="20" viewBox="0 0 20 20">
<path d="M18.125 18.75h-16.25c-1.036 0-1.875-0.839-1.875-1.875v-13.75c0-1.036 0.839-1.875 1.875-1.875h16.25c1.036 0 1.875 0.839 1.875 1.875v13.75c0 1.036-0.839 1.875-1.875 1.875zM5 4.688c-0.863 0-1.563 0.7-1.563 1.563s0.7 1.563 1.563 1.563 1.563-0.7 1.563-1.563-0.7-1.563-1.563-1.563zM5 8.438c-0.863 0-1.563 0.7-1.563 1.563s0.7 1.563 1.563 1.563 1.563-0.7 1.563-1.563-0.7-1.563-1.563-1.563zM5 12.188c-0.863 0-1.563 0.7-1.563 1.563s0.7 1.563 1.563 1.563 1.563-0.7 1.563-1.563-0.7-1.563-1.563-1.563zM16.25 6.875v-1.25c0-0.259-0.21-0.469-0.469-0.469h-7.813c-0.259 0-0.469 0.21-0.469 0.469v1.25c0 0.259 0.21 0.469 0.469 0.469h7.813c0.259 0 0.469-0.21 0.469-0.469zM16.25 10.625v-1.25c0-0.259-0.21-0.469-0.469-0.469h-7.813c-0.259 0-0.469 0.21-0.469 0.469v1.25c0 0.259 0.21 0.469 0.469 0.469h7.813c0.259 0 0.469-0.21 0.469-0.469zM16.25 14.375v-1.25c0-0.259-0.21-0.469-0.469-0.469h-7.813c-0.259 0-0.469 0.21-0.469 0.469v1.25c0 0.259 0.21 0.469 0.469 0.469h7.813c0.259 0 0.469-0.21 0.469-0.469z"></path>
</svg>
