<svg xmlns="http://www.w3.org/2000/svg" width="23" height="20" viewBox="0 0 23 20">
<path d="M16.543 0c-3.281 0.012-5.918 2.715-5.918 5.996v2.754h-8.75c-1.035 0-1.875 0.84-1.875 1.875v7.5c0 1.035 0.84 1.875 1.875 1.875h13.75c1.035 0 1.875-0.84 1.875-1.875v-7.5c0-1.035-0.84-1.875-1.875-1.875h-1.875v-2.777c0-1.547 1.238-2.832 2.785-2.848 1.563-0.016 2.84 1.254 2.84 2.813v3.125c0 0.52 0.418 0.938 0.938 0.938h1.25c0.52 0 0.938-0.418 0.938-0.938v-3.125c0-3.281-2.676-5.949-5.957-5.938z"></path>
</svg>
