<svg xmlns="http://www.w3.org/2000/svg" width="20" height="20" viewBox="0 0 20 20">
<path d="M10 0.313c-5.35 0-9.688 4.337-9.688 9.688s4.337 9.688 9.688 9.688 9.688-4.337 9.688-9.688-4.337-9.688-9.688-9.688zM16.785 4.983l-2.477 2.477c-0.429-0.725-1.042-1.338-1.768-1.768l2.477-2.477c0.678 0.507 1.261 1.090 1.752 1.745l0.016 0.022zM10 13.75c-2.071 0-3.75-1.679-3.75-3.75s1.679-3.75 3.75-3.75 3.75 1.679 3.75 3.75-1.679 3.75-3.75 3.75zM4.983 3.215l2.477 2.477c-0.725 0.429-1.338 1.042-1.768 1.768l-2.477-2.477c0.507-0.678 1.090-1.261 1.745-1.752l0.022-0.016zM3.215 15.017l2.477-2.477c0.429 0.725 1.042 1.338 1.768 1.768l-2.477 2.477c-0.678-0.507-1.261-1.090-1.752-1.745l-0.016-0.022zM15.017 16.785l-2.477-2.477c0.725-0.429 1.338-1.042 1.768-1.768l2.477 2.477c-0.507 0.678-1.090 1.261-1.745 1.752l-0.022 0.016z"></path>
</svg>
