<svg xmlns="http://www.w3.org/2000/svg" width="20" height="20" viewBox="0 0 20 20">
<path d="M0.127 5.45c0-0.292 0.153-0.452 0.452-0.452h0.591v-1.558c0-0.202 0.021-0.41 0.021-0.41h-0.014s-0.069 0.104-0.111 0.146c-0.174 0.167-0.41 0.174-0.612-0.042l-0.216-0.243c-0.209-0.209-0.195-0.438 0.021-0.64l0.848-0.779c0.174-0.16 0.327-0.223 0.563-0.223h0.473c0.299 0 0.459 0.153 0.459 0.452v3.296h0.605c0.299 0 0.452 0.16 0.452 0.452v0.348c0 0.292-0.153 0.452-0.452 0.452h-2.629c-0.299 0-0.452-0.16-0.452-0.452v-0.348zM0.086 11.898c0-1.847 1.99-2.202 1.99-2.702 0-0.28-0.233-0.342-0.363-0.342-0.123 0-0.253 0.041-0.369 0.15-0.198 0.192-0.41 0.274-0.629 0.096l-0.335-0.267c-0.226-0.178-0.28-0.383-0.109-0.602 0.26-0.342 0.746-0.732 1.58-0.732 0.759 0 1.737 0.41 1.737 1.546 0 1.498-1.826 1.813-1.902 2.223h1.525c0.294 0 0.451 0.157 0.451 0.445v0.342c0 0.287-0.157 0.445-0.451 0.445h-2.654c-0.274 0-0.472-0.157-0.472-0.445v-0.157zM0.221 17.758l0.219-0.363c0.151-0.26 0.356-0.274 0.609-0.123 0.192 0.082 0.376 0.123 0.561 0.123 0.397 0 0.561-0.137 0.561-0.321 0-0.26-0.219-0.356-0.622-0.356h-0.185c-0.233 0-0.363-0.082-0.479-0.308l-0.041-0.075c-0.096-0.185-0.048-0.383 0.109-0.581l0.219-0.274c0.267-0.328 0.479-0.527 0.479-0.527v-0.014s-0.164 0.041-0.492 0.041h-0.506c-0.294 0-0.445-0.157-0.445-0.445v-0.342c0-0.294 0.151-0.445 0.445-0.445h2.285c0.294 0 0.445 0.157 0.445 0.445v0.13c0 0.226-0.055 0.383-0.198 0.554l-0.684 0.787c0.766 0.198 1.122 0.8 1.122 1.361 0 0.834-0.561 1.724-1.895 1.724-0.65 0-1.101-0.185-1.402-0.369-0.226-0.164-0.246-0.383-0.103-0.622zM5.625 5.156h13.75c0.345 0 0.625-0.28 0.625-0.625v-1.563c0-0.345-0.28-0.625-0.625-0.625h-13.75c-0.345 0-0.625 0.28-0.625 0.625v1.563c0 0.345 0.28 0.625 0.625 0.625zM5.625 11.406h13.75c0.345 0 0.625-0.28 0.625-0.625v-1.563c0-0.345-0.28-0.625-0.625-0.625h-13.75c-0.345 0-0.625 0.28-0.625 0.625v1.563c0 0.345 0.28 0.625 0.625 0.625zM5.625 17.656h13.75c0.345 0 0.625-0.28 0.625-0.625v-1.563c0-0.345-0.28-0.625-0.625-0.625h-13.75c-0.345 0-0.625 0.28-0.625 0.625v1.563c0 0.345 0.28 0.625 0.625 0.625z"></path>
</svg>
