<svg xmlns="http://www.w3.org/2000/svg" width="25" height="20" viewBox="0 0 25 20">
<path d="M11.875 16.25h-10.938c-0.518 0-0.938-0.42-0.938-0.938v-10.625c0-0.518 0.42-0.938 0.938-0.938h10.938v12.5zM7.161 13.413c0.059 0.196 0.238 0.337 0.45 0.337 0 0 0 0 0 0h0.893c0.321 0 0.547-0.316 0.444-0.62l-2.244-6.604c-0.065-0.186-0.239-0.318-0.444-0.318 0 0 0 0 0 0h-1.269c-0.205 0-0.379 0.131-0.443 0.315l-0.001 0.003-2.244 6.604c-0.103 0.304 0.123 0.62 0.444 0.62h0.891c0.213 0 0.393-0.142 0.45-0.336l0.001-0.003 0.356-1.242h2.352l0.365 1.245zM5.636 7.928s0.169 0.823 0.306 1.297l0.422 1.466h-1.487l0.432-1.466c0.137-0.475 0.306-1.297 0.306-1.297h0.021zM24.063 16.25h-10.938v-12.5h10.938c0.518 0 0.938 0.42 0.938 0.938v10.625c0 0.518-0.42 0.938-0.938 0.938zM22.656 7.344h-2.5v-0.625c0-0.259-0.21-0.469-0.469-0.469h-0.625c-0.259 0-0.469 0.21-0.469 0.469v0.625h-2.5c-0.259 0-0.469 0.21-0.469 0.469v0.625c0 0.259 0.21 0.469 0.469 0.469h4.457c-0.245 0.559-0.645 1.132-1.173 1.688-0.256-0.269-0.484-0.543-0.678-0.818-0.142-0.201-0.413-0.261-0.625-0.135l-0.538 0.321c-0.233 0.139-0.301 0.446-0.146 0.669 0.237 0.341 0.512 0.677 0.82 1.005-0.317 0.243-0.658 0.478-1.020 0.702-0.216 0.133-0.288 0.412-0.163 0.632l0.31 0.543c0.131 0.23 0.427 0.306 0.653 0.167 0.497-0.306 0.96-0.632 1.384-0.972 0.426 0.342 0.889 0.668 1.383 0.972 0.226 0.139 0.522 0.063 0.653-0.167l0.31-0.543c0.126-0.22 0.054-0.498-0.162-0.632-0.395-0.245-0.727-0.477-1.046-0.725l0.028 0.021c0.821-0.876 1.397-1.808 1.668-2.729h0.446c0.259 0 0.469-0.21 0.469-0.469v-0.625c0-0.259-0.21-0.469-0.469-0.469z"></path>
</svg>
