<svg xmlns="http://www.w3.org/2000/svg" width="23" height="20" viewBox="0 0 23 20">
<path d="M15.445 16.438c-1.695 0.844-3.59 1.344-5.5 1.344-3.211 0-5.902-1.566-5.902-1.566-0.629 0-1.383 2.535-2.473 2.535-1.055 0-1.57-0.938-1.57-1.504 0-1.293 2.484-2.301 2.484-3.020 0 0-0.488-0.828-0.488-2.313 0-3.953 3.176-6.773 6.742-7.941 2.574-0.844 8.047 0.137 9.793-1.504 0.691-0.633 1.031-1.219 2.086-1.219 1.418 0 1.883 3.641 1.883 4.699 0 4.332-2.129 8.066-7.055 10.488zM5.512 13.484c2.48-3.512 5.645-5.031 10.066-4.688 0.344 0.027 0.645-0.23 0.672-0.574s-0.23-0.645-0.574-0.672c-4.844-0.375-8.434 1.324-11.184 5.215-0.199 0.281-0.133 0.672 0.148 0.871s0.672 0.133 0.871-0.152z"></path>
</svg>
