<svg xmlns="http://www.w3.org/2000/svg" width="20" height="20" viewBox="0 0 20 20">
<path d="M12.758 7.242c2.334 2.336 2.302 6.082 0.014 8.382-0.004 0.005-0.009 0.010-0.014 0.014l-2.625 2.625c-2.315 2.315-6.082 2.315-8.397 0s-2.315-6.082 0-8.397l1.449-1.449c0.384-0.384 1.046-0.129 1.066 0.414 0.025 0.692 0.149 1.388 0.379 2.059 0.078 0.227 0.022 0.479-0.148 0.649l-0.511 0.511c-1.095 1.095-1.129 2.877-0.045 3.983 1.095 1.116 2.894 1.123 3.997 0.020l2.625-2.625c1.101-1.101 1.097-2.881 0-3.978-0.145-0.144-0.29-0.256-0.404-0.335-0.159-0.11-0.263-0.288-0.271-0.491l-0-0.001c-0.015-0.413 0.131-0.838 0.457-1.164l0.822-0.822c0.216-0.216 0.554-0.242 0.804-0.068 0.298 0.21 0.56 0.43 0.802 0.672v0zM18.264 1.736c-2.315-2.315-6.082-2.315-8.397 0l-2.625 2.625c-0.005 0.005-0.010 0.010-0.014 0.014-2.288 2.3-2.32 6.046 0.014 8.382 0.241 0.241 0.503 0.462 0.783 0.659l0.019 0.013c0.25 0.175 0.588 0.148 0.804-0.068l0.822-0.822c0.326-0.326 0.472-0.752 0.457-1.164-0.008-0.204-0.113-0.382-0.269-0.491l-0.002-0.001c-0.114-0.078-0.259-0.19-0.404-0.335-1.097-1.097-1.101-2.877 0-3.978l2.625-2.625c1.103-1.103 2.902-1.096 3.997 0.020 1.084 1.105 1.050 2.888-0.045 3.983l-0.511 0.511c-0.17 0.17-0.225 0.421-0.148 0.649 0.229 0.672 0.353 1.367 0.379 2.059 0.020 0.543 0.682 0.799 1.066 0.414l1.449-1.449c2.315-2.315 2.315-6.082 0-8.397z"></path>
</svg>
