<svg xmlns="http://www.w3.org/2000/svg" width="23" height="20" viewBox="0 0 23 20">
<path d="M22.24 9.048c-2.203-3.738-6.31-6.236-10.99-6.236-1.112 0-2.191 0.141-3.221 0.407l-2.061-2.819c-0.297-0.424-0.881-0.527-1.306-0.23l-0.512 0.359c-0.424 0.297-0.527 0.881-0.23 1.306l1.685 2.281c-2.11 1.031-4.033 2.709-5.343 4.931-0 0.001-0.001 0.001-0.001 0.002-0.342 0.581-0.35 1.31 0 1.904 1.504 2.552 3.896 4.526 6.752 5.521l-4.851-6.93c0.349-0.525 0.713-0.983 1.111-1.409l-0.006 0.006 6.252 8.93c0.52 0.074 1.121 0.117 1.731 0.117 0.476 0 0.947-0.026 1.409-0.076l-0.057 0.005-7.421-10.602c0.432-0.292 0.929-0.573 1.448-0.814l0.067-0.028 9.837 13.928c0.297 0.424 0.881 0.527 1.306 0.23l0.512-0.359c0.424-0.297 0.527-0.882 0.23-1.306l-1.685-2.281c2.233-1.093 4.095-2.814 5.344-4.934 0.163-0.272 0.26-0.601 0.26-0.952s-0.097-0.68-0.265-0.96l0.005 0.009zM15.235 13.513l-0.745-1.064c0.964-1.272 1.082-2.983 0.344-4.363v0.001c0 0.924-0.749 1.673-1.673 1.673-0.931 0-1.673-0.756-1.673-1.673 0-0.924 0.749-1.673 1.673-1.673h0.001c-0.967-0.518-2.091-0.611-3.106-0.3l-0.745-1.064c0.6-0.235 1.254-0.364 1.938-0.364 2.936 0 5.313 2.376 5.313 5.312 0 1.348-0.501 2.577-1.327 3.513z"></path>
</svg>
