<svg xmlns="http://www.w3.org/2000/svg" width="15" height="20" viewBox="0 0 15 20">
<path d="M14.531 10h-1.876c-0.247 0-0.468 0.192-0.468 0.439 0 3.936-3.196 5.811-6.563 5.811v-6.219l5.258-1.168c0.212-0.048 0.367-0.235 0.367-0.458v0-1.601c0-0.3-0.278-0.523-0.57-0.458l-5.055 1.123v-1.189l5.258-1.168c0.212-0.048 0.367-0.235 0.367-0.458v0-1.601c0-0.3-0.278-0.523-0.57-0.458l-5.055 1.123v-2.001c0-0.259-0.21-0.469-0.469-0.469h-2.188c-0.259 0-0.469 0.21-0.469 0.469v2.695l-2.133 0.474c-0.212 0.048-0.367 0.235-0.367 0.458v0 1.601c0 0.3 0.278 0.523 0.57 0.458l1.93-0.429v1.189l-2.133 0.474c-0.212 0.048-0.367 0.235-0.367 0.458v0 1.601c0 0.3 0.278 0.523 0.57 0.458l1.93-0.429v7.556c0 0.259 0.21 0.469 0.469 0.469h3.109c5.238 0 8.721-3.040 8.922-8.265 0.010-0.265-0.204-0.485-0.469-0.485z"></path>
</svg>
