<svg xmlns="http://www.w3.org/2000/svg" width="20" height="20" viewBox="0 0 20 20">
<path d="M3.75 3.75c0 1.036-0.839 1.875-1.875 1.875s-1.875-0.839-1.875-1.875 0.839-1.875 1.875-1.875 1.875 0.839 1.875 1.875zM1.875 8.125c-1.036 0-1.875 0.839-1.875 1.875s0.839 1.875 1.875 1.875 1.875-0.839 1.875-1.875-0.839-1.875-1.875-1.875zM1.875 14.375c-1.036 0-1.875 0.839-1.875 1.875s0.839 1.875 1.875 1.875 1.875-0.839 1.875-1.875-0.839-1.875-1.875-1.875zM5.625 5.156h13.75c0.345 0 0.625-0.28 0.625-0.625v-1.563c0-0.345-0.28-0.625-0.625-0.625h-13.75c-0.345 0-0.625 0.28-0.625 0.625v1.563c0 0.345 0.28 0.625 0.625 0.625zM5.625 11.406h13.75c0.345 0 0.625-0.28 0.625-0.625v-1.563c0-0.345-0.28-0.625-0.625-0.625h-13.75c-0.345 0-0.625 0.28-0.625 0.625v1.563c0 0.345 0.28 0.625 0.625 0.625zM5.625 17.656h13.75c0.345 0 0.625-0.28 0.625-0.625v-1.563c0-0.345-0.28-0.625-0.625-0.625h-13.75c-0.345 0-0.625 0.28-0.625 0.625v1.563c0 0.345 0.28 0.625 0.625 0.625z"></path>
</svg>
