<svg xmlns="http://www.w3.org/2000/svg" width="11" height="20" viewBox="0 0 11 20">
<path d="M11.25 8.125c0-1.727-0.777-3.27-2-4.301 0.098-0.070 0.191-0.148 0.281-0.227 0.965-0.828 1.555-1.906 1.688-3.078 0.035-0.277-0.184-0.52-0.465-0.52h-1.582c-0.227 0-0.418 0.16-0.461 0.383-0.094 0.488-0.375 0.949-0.809 1.32-0.598 0.516-1.406 0.797-2.277 0.797s-1.68-0.281-2.281-0.797c-0.434-0.371-0.711-0.832-0.809-1.32-0.043-0.223-0.234-0.383-0.457-0.383h-1.582c-0.281 0-0.5 0.242-0.465 0.52 0.133 1.176 0.719 2.254 1.688 3.082 0.090 0.078 0.184 0.152 0.281 0.227-1.223 1.027-2 2.57-2 4.297 0 2.676 1.871 4.918 4.375 5.484v2.016h-1.406c-0.258 0-0.469 0.211-0.469 0.469v1.563c0 0.258 0.211 0.469 0.469 0.469h1.406v1.406c0 0.258 0.211 0.469 0.469 0.469h1.563c0.258 0 0.469-0.211 0.469-0.469v-1.406h1.406c0.258 0 0.469-0.211 0.469-0.469v-1.563c0-0.258-0.211-0.469-0.469-0.469h-1.406v-2.016c2.504-0.566 4.375-2.809 4.375-5.484zM2.5 8.125c0-1.723 1.402-3.125 3.125-3.125s3.125 1.402 3.125 3.125-1.402 3.125-3.125 3.125-3.125-1.402-3.125-3.125z"></path>
</svg>
