<svg xmlns="http://www.w3.org/2000/svg" width="20" height="20" viewBox="0 0 20 20">
<path d="M6.41 6.25h-5.941c-0.258 0-0.469-0.211-0.469-0.469v-3.125c0-0.777 0.629-1.406 1.406-1.406h4.063c0.777 0 1.406 0.629 1.406 1.406v3.125c0.004 0.258-0.207 0.469-0.465 0.469zM20.004 5.781v-3.129c0-0.777-0.629-1.406-1.406-1.406h-4.063c-0.777 0-1.406 0.629-1.406 1.406v3.125c0 0.258 0.211 0.469 0.469 0.469h5.938c0.258 0.004 0.469-0.207 0.469-0.465zM13.598 7.5c-0.258 0-0.469 0.211-0.469 0.469v2.031c0 5.004-6.25 4.996-6.25 0v-2.031c0-0.258-0.211-0.469-0.469-0.469h-5.938c-0.262 0-0.469 0.211-0.469 0.473 0.004 0.836 0.023 1.574 0 2.082 0 5.883 5.32 9.633 10.031 9.633s9.965-3.75 9.965-9.637c-0.023-0.5-0.008-1.289 0-2.078 0-0.262-0.207-0.473-0.469-0.473h-5.934z"></path>
</svg>
