<svg xmlns="http://www.w3.org/2000/svg" width="20" height="20" viewBox="0 0 20 20">
<path d="M3.949 19.727l-3.676-3.676c-0.367-0.367-0.367-0.961 0-1.324l14.453-14.453c0.367-0.367 0.961-0.367 1.324 0l3.676 3.676c0.367 0.367 0.367 0.961 0 1.324l-14.453 14.453c-0.363 0.363-0.957 0.363-1.324 0zM11.875 6.219l1.906 1.906 3.512-3.512-1.906-1.906-3.512 3.512zM5.426 1.535l-0.457 0.93-1.023 0.148c-0.184 0.027-0.258 0.254-0.125 0.383l0.742 0.723-0.176 1.020c-0.031 0.184 0.16 0.324 0.324 0.238l0.914-0.484 0.914 0.48c0.164 0.086 0.355-0.055 0.324-0.238l-0.176-1.020 0.742-0.723c0.133-0.129 0.059-0.355-0.125-0.383l-1.023-0.148-0.457-0.93c-0.078-0.16-0.316-0.16-0.398 0.004zM9.242 0.727l-0.305 0.617-0.684 0.102c-0.121 0.020-0.172 0.168-0.082 0.254l0.492 0.48-0.117 0.68c-0.020 0.121 0.109 0.215 0.219 0.156l0.609-0.32 0.609 0.32c0.109 0.059 0.238-0.035 0.219-0.156l-0.117-0.68 0.492-0.48c0.090-0.086 0.039-0.238-0.082-0.254l-0.684-0.098-0.305-0.617c-0.055-0.117-0.211-0.117-0.266-0.004zM1.742 0.727l-0.305 0.617-0.684 0.102c-0.121 0.020-0.172 0.168-0.082 0.254l0.492 0.48-0.117 0.68c-0.020 0.121 0.109 0.215 0.219 0.156l0.609-0.32 0.609 0.32c0.109 0.059 0.238-0.035 0.219-0.156l-0.117-0.68 0.492-0.48c0.090-0.086 0.039-0.238-0.082-0.254l-0.684-0.098-0.305-0.617c-0.055-0.117-0.211-0.117-0.266-0.004zM17.992 9.457l-0.305 0.617-0.684 0.098c-0.121 0.020-0.172 0.168-0.082 0.254l0.492 0.48-0.117 0.68c-0.020 0.121 0.109 0.215 0.219 0.156l0.609-0.32 0.609 0.32c0.109 0.059 0.238-0.035 0.219-0.156l-0.117-0.68 0.492-0.48c0.090-0.086 0.039-0.238-0.082-0.254l-0.684-0.098-0.305-0.617c-0.055-0.109-0.211-0.109-0.266 0z"></path>
</svg>
