<svg xmlns="http://www.w3.org/2000/svg" width="15" height="20" viewBox="0 0 15 20">
<path d="M14.531 2.5h-3.086c-0.418 0-0.625 0.504-0.332 0.801l0.66 0.66-0.684 0.684-0.551-0.551c-0.184-0.184-0.48-0.184-0.664 0l-1.105 1.102c-0.184 0.184-0.184 0.48 0 0.664l0.551 0.551-0.703 0.703c-0.867-0.547-1.895-0.863-2.996-0.863-3.102 0-5.621 2.52-5.621 5.625s2.52 5.625 5.625 5.625 5.625-2.52 5.625-5.625c0-1.102-0.316-2.129-0.863-2.996l0.703-0.703 0.551 0.551c0.184 0.184 0.48 0.184 0.664 0l1.105-1.105c0.184-0.184 0.184-0.48 0-0.664l-0.551-0.551 0.684-0.684 0.66 0.66c0.297 0.297 0.801 0.086 0.801-0.332v-3.082c-0.004-0.258-0.215-0.469-0.473-0.469zM5.625 15c-1.723 0-3.125-1.402-3.125-3.125s1.402-3.125 3.125-3.125 3.125 1.402 3.125 3.125-1.402 3.125-3.125 3.125z"></path>
</svg>
