<svg xmlns="http://www.w3.org/2000/svg" width="20" height="20" viewBox="0 0 20 20">
<path d="M13.281 0h-3.086c-0.418 0-0.625 0.504-0.332 0.801l0.66 0.66-1.902 1.902c-0.867-0.547-1.895-0.863-2.996-0.863-3.105 0-5.625 2.52-5.625 5.625s2.52 5.625 5.625 5.625 5.625-2.52 5.625-5.625c0-1.102-0.316-2.129-0.863-2.996l1.902-1.902 0.66 0.66c0.094 0.094 0.215 0.137 0.328 0.137 0.242 0 0.473-0.188 0.473-0.469v-3.086c0-0.258-0.211-0.469-0.469-0.469zM5.625 11.25c-1.723 0-3.125-1.402-3.125-3.125s1.402-3.125 3.125-3.125 3.125 1.402 3.125 3.125-1.402 3.125-3.125 3.125zM19.531 6.246h-3.086c-0.418 0-0.625 0.504-0.332 0.801l0.66 0.66-1.902 1.902c-0.711-0.445-1.523-0.738-2.402-0.832-0.082 0.852-0.32 1.691-0.719 2.473 0.043 0 0.086-0.004 0.125-0.004 1.723 0 3.125 1.402 3.125 3.125s-1.402 3.125-3.125 3.125-3.125-1.402-3.125-3.125c0-0.043 0-0.086 0.004-0.125-0.781 0.398-1.621 0.641-2.473 0.719 0.297 2.832 2.688 5.035 5.594 5.035 3.105 0 5.625-2.52 5.625-5.625 0-1.102-0.316-2.129-0.863-2.996l1.902-1.902 0.66 0.66c0.094 0.094 0.211 0.137 0.328 0.137 0.242 0 0.473-0.188 0.473-0.469v-3.086c0-0.262-0.211-0.473-0.469-0.473z"></path>
</svg>
