<svg xmlns="http://www.w3.org/2000/svg" width="20" height="20" viewBox="0 0 20 20">
<path d="M3.75 18.75h12.5v-13.75h-1.25v-1.875c0-1.036-0.839-1.875-1.875-1.875h-6.25c-1.036 0-1.875 0.839-1.875 1.875v1.875h-1.25v13.75zM7.5 3.75h5v1.25h-5v-1.25zM20 6.875v10c0 1.036-0.839 1.875-1.875 1.875h-0.625v-13.75h0.625c1.036 0 1.875 0.839 1.875 1.875zM2.5 18.75h-0.625c-1.036 0-1.875-0.839-1.875-1.875v-10c0-1.036 0.839-1.875 1.875-1.875h0.625v13.75zM13.75 10.625v1.25c0 0.345-0.28 0.625-0.625 0.625h-1.875v1.875c0 0.345-0.28 0.625-0.625 0.625h-1.25c-0.345 0-0.625-0.28-0.625-0.625v-1.875h-1.875c-0.345 0-0.625-0.28-0.625-0.625v-1.25c0-0.345 0.28-0.625 0.625-0.625h1.875v-1.875c0-0.345 0.28-0.625 0.625-0.625h1.25c0.345 0 0.625 0.28 0.625 0.625v1.875h1.875c0.345 0 0.625 0.28 0.625 0.625z"></path>
</svg>
