<svg xmlns="http://www.w3.org/2000/svg" width="25" height="20" viewBox="0 0 25 20">
<path d="M25 4.688v10.625c0 0.518-0.42 0.938-0.938 0.938h-23.125c-0.518 0-0.938-0.42-0.938-0.938v-10.625c0-0.518 0.42-0.938 0.938-0.938h23.125c0.518 0 0.938 0.42 0.938 0.938zM3.75 15c0-1.381-1.119-2.5-2.5-2.5v2.5h2.5zM3.75 5h-2.5v2.5c1.381 0 2.5-1.119 2.5-2.5zM15.625 10c0-2.071-1.399-3.75-3.125-3.75s-3.125 1.679-3.125 3.75c0 2.071 1.399 3.75 3.125 3.75s3.125-1.678 3.125-3.75zM23.75 12.5c-1.381 0-2.5 1.119-2.5 2.5h2.5v-2.5zM23.75 5h-2.5c0 1.381 1.119 2.5 2.5 2.5v-2.5zM10.842 11.7c0-0.292 0.153-0.452 0.452-0.452h0.591v-1.558c0-0.202 0.021-0.41 0.021-0.41h-0.014s-0.069 0.104-0.111 0.146c-0.174 0.167-0.41 0.174-0.612-0.042l-0.216-0.243c-0.209-0.209-0.195-0.438 0.021-0.64l0.848-0.779c0.174-0.16 0.327-0.223 0.563-0.223h0.473c0.299 0 0.459 0.153 0.459 0.452v3.296h0.605c0.299 0 0.452 0.16 0.452 0.452v0.348c0 0.292-0.153 0.452-0.452 0.452h-2.629c-0.299 0-0.452-0.16-0.452-0.452v-0.348z"></path>
</svg>
