<svg xmlns="http://www.w3.org/2000/svg" width="23" height="20" viewBox="0 0 23 20">
<path d="M22.5 2.188v13.124c0 0 0 0 0 0 0 0.365-0.209 0.681-0.513 0.836l-0.005 0.002-5 2.5c-0.617 0.308-1.357-0.135-1.357-0.839v-13.124c0-0 0-0 0-0 0-0.365 0.209-0.681 0.513-0.836l0.005-0.002 5-2.5c0.617-0.308 1.357 0.135 1.357 0.839zM14.443 3.831l-5.625-2.5c-0.615-0.273-1.318 0.174-1.318 0.857v13.124c0 0.38 0.226 0.707 0.551 0.854l0.006 0.002 5.625 2.5c0.615 0.273 1.318-0.174 1.318-0.857v-13.124c0 0 0 0 0-0 0-0.38-0.226-0.707-0.551-0.854l-0.006-0.002zM5.518 1.35l-5 2.499c-0.31 0.157-0.518 0.474-0.518 0.838 0 0 0 0 0 0v0 13.124c0 0.703 0.74 1.147 1.357 0.839l5-2.499c0.31-0.157 0.518-0.474 0.518-0.838 0-0 0-0 0-0v0-13.124c0-0.703-0.74-1.147-1.357-0.839z"></path>
</svg>
