<svg xmlns="http://www.w3.org/2000/svg" width="11" height="20" viewBox="0 0 11 20">
<path d="M9.602 9.148c-0.777-0.777-1.727-1.281-2.727-1.508v-0.992h0.781c0.258 0 0.469-0.211 0.469-0.469v-1.563c0-0.258-0.211-0.469-0.469-0.469h-0.781v-0.969h0.934c0.418 0 0.625-0.504 0.332-0.801l-2.184-2.18c-0.184-0.184-0.48-0.184-0.664 0l-2.184 2.184c-0.297 0.297-0.086 0.801 0.332 0.801h0.934v0.965h-0.781c-0.258 0-0.469 0.211-0.469 0.469v1.563c0 0.258 0.211 0.469 0.469 0.469h0.781v0.992c-1 0.227-1.949 0.73-2.727 1.508-2.195 2.195-2.195 5.758 0 7.953s5.758 2.195 7.953 0c2.199-2.195 2.199-5.758 0-7.953zM7.836 15.336c-1.219 1.219-3.199 1.219-4.418 0s-1.219-3.199 0-4.418c1.219-1.219 3.199-1.219 4.418 0 1.219 1.215 1.219 3.199 0 4.418z"></path>
</svg>
