<svg xmlns="http://www.w3.org/2000/svg" width="20" height="20" viewBox="0 0 20 20">
<path d="M16.463 11.14l-1.775-1.775v-1.084c0-0.259 0.21-0.469 0.469-0.469h0.938c0.259 0 0.469 0.21 0.469 0.469v1.719c0 0.389-0.034 0.77-0.1 1.14zM13.75 3.75c0-2.071-1.679-3.75-3.75-3.75-1.272 0-2.397 0.634-3.075 1.603l6.825 6.825v-4.678zM19.725 17.958l-17.683-17.683c-0.366-0.366-0.96-0.366-1.326 0l-0.442 0.442c-0.366 0.366-0.366 0.96 0 1.326l5.975 5.975v1.937c0 2.074 1.697 3.807 3.77 3.796 0.571-0.003 1.112-0.134 1.596-0.366l0.693 0.693c-0.685 0.389-1.476 0.612-2.319 0.61-2.594-0.005-4.678-2.146-4.678-4.74v-1.666c0-0.259-0.21-0.469-0.469-0.469h-0.938c-0.259 0-0.469 0.21-0.469 0.469v1.719c0 3.3 2.449 6.039 5.625 6.495v1.786h-2.656c-0.259 0-0.469 0.21-0.469 0.469v0.781c0 0.259 0.21 0.469 0.469 0.469h7.188c0.259 0 0.469-0.21 0.469-0.469v-0.781c0-0.259-0.21-0.469-0.469-0.469h-2.656v-1.786c1.001-0.144 1.93-0.515 2.732-1.058l4.288 4.288c0.366 0.366 0.96 0.366 1.326 0l0.442-0.442c0.366-0.366 0.366-0.96 0-1.326z"></path>
</svg>
