<svg xmlns="http://www.w3.org/2000/svg" width="19" height="20" viewBox="0 0 19 20">
<path d="M18.602 9.668l-2.184-2.184c-0.297-0.297-0.801-0.086-0.801 0.332v0.934h-0.93v-0.781c0-0.258-0.211-0.469-0.469-0.469h-1.563c-0.258 0-0.469 0.211-0.469 0.469v0.781h-1.078c-0.227-1-0.73-1.949-1.508-2.727-2.195-2.195-5.758-2.195-7.953 0s-2.195 5.758 0 7.953c2.195 2.195 5.758 2.195 7.953 0 0.777-0.777 1.281-1.727 1.508-2.727h1.078v0.781c0 0.258 0.211 0.469 0.469 0.469h1.563c0.258 0 0.469-0.211 0.469-0.469v-0.781h0.934v0.934c0 0.418 0.504 0.625 0.801 0.332l2.184-2.184c0.18-0.184 0.18-0.48-0.004-0.664zM7.836 12.211c-1.219 1.219-3.199 1.219-4.418 0s-1.219-3.199 0-4.418c1.219-1.219 3.199-1.219 4.418 0 1.219 1.215 1.219 3.199 0 4.418z"></path>
</svg>
