<svg xmlns="http://www.w3.org/2000/svg" width="20" height="20" viewBox="0 0 20 20">
<path d="M16.25 1.875v16.25c0 1.036-0.839 1.875-1.875 1.875h-8.75c-1.036 0-1.875-0.839-1.875-1.875v-16.25c0-1.036 0.839-1.875 1.875-1.875h8.75c1.036 0 1.875 0.839 1.875 1.875zM20 4.141v0.469c0 0.129-0.105 0.234-0.234 0.234v0h-0.703v0.234c0 0.129-0.105 0.234-0.234 0.234v0h-1.641v-1.875h1.641c0.129 0 0.234 0.105 0.234 0.234v0 0.234h0.703c0.129 0 0.234 0.105 0.234 0.234v0zM20 7.891v0.469c0 0.129-0.105 0.234-0.234 0.234v0h-0.703v0.234c0 0.129-0.105 0.234-0.234 0.234v0h-1.641v-1.875h1.641c0.129 0 0.234 0.105 0.234 0.234v0 0.234h0.703c0.129 0 0.234 0.105 0.234 0.234v0zM20 11.641v0.469c0 0.129-0.105 0.234-0.234 0.234v0h-0.703v0.234c0 0.129-0.105 0.234-0.234 0.234v0h-1.641v-1.875h1.641c0.129 0 0.234 0.105 0.234 0.234v0 0.234h0.703c0.129 0 0.234 0.105 0.234 0.234v0zM20 15.391v0.469c0 0.129-0.105 0.234-0.234 0.234v0h-0.703v0.234c0 0.129-0.105 0.234-0.234 0.234v0h-1.641v-1.875h1.641c0.129 0 0.234 0.105 0.234 0.234v0 0.234h0.703c0.129 0 0.234 0.105 0.234 0.234v0zM1.172 14.688h1.641v1.875h-1.641c-0.129 0-0.234-0.105-0.234-0.234v0-0.234h-0.703c-0.129 0-0.234-0.105-0.234-0.234v0-0.469c0-0.129 0.105-0.234 0.234-0.234v0h0.703v-0.234c0-0.129 0.105-0.234 0.234-0.234v0zM1.172 10.938h1.641v1.875h-1.641c-0.129 0-0.234-0.105-0.234-0.234v0-0.234h-0.703c-0.129 0-0.234-0.105-0.234-0.234v0-0.469c0-0.129 0.105-0.234 0.234-0.234v0h0.703v-0.234c0-0.129 0.105-0.234 0.234-0.234v0zM1.172 7.188h1.641v1.875h-1.641c-0.129 0-0.234-0.105-0.234-0.234v0-0.234h-0.703c-0.129 0-0.234-0.105-0.234-0.234v0-0.469c0-0.129 0.105-0.234 0.234-0.234v0h0.703v-0.234c0-0.129 0.105-0.234 0.234-0.234v0zM1.172 3.438h1.641v1.875h-1.641c-0.129 0-0.234-0.105-0.234-0.234v0-0.234h-0.703c-0.129 0-0.234-0.105-0.234-0.234v0-0.469c0-0.129 0.105-0.234 0.234-0.234v0h0.703v-0.234c0-0.129 0.105-0.234 0.234-0.234v0z"></path>
</svg>
