<svg xmlns="http://www.w3.org/2000/svg" width="25" height="20" viewBox="0 0 25 20">
<path d="M20.037 7.5c-0.581-0.004-1.138 0.091-1.658 0.269l-1.286-2.144h3.219c0.518 0 0.938-0.42 0.938-0.938v-1.25c0-0.518-0.42-0.938-0.938-0.938h-1.77c-0.276 0-0.525 0.119-0.696 0.31l-0.001 0.001-1.465 1.627-0.89-1.483c-0.167-0.275-0.464-0.455-0.804-0.455 0 0 0 0 0 0h-3.125c-0.345 0-0.625 0.28-0.625 0.625v0.625c0 0.345 0.28 0.625 0.625 0.625h2.594l0.75 1.25h-6.004c-0.692-0.901-1.755-1.563-3.902-1.563h-2.166c-0.526 0-0.968 0.43-0.958 0.956 0.010 0.509 0.426 0.919 0.937 0.919h2.188c0.957 0 1.511 0.427 1.867 0.968l-0.441 0.802c-0.508-0.151-1.050-0.224-1.611-0.204-2.632 0.096-4.753 2.247-4.813 4.88-0.064 2.815 2.199 5.116 4.999 5.116 2.33 0 4.287-1.594 4.842-3.75h3.29c0.534 0 0.961-0.446 0.937-0.98-0.083-1.841 0.684-3.659 2.195-4.884l0.488 0.813c-1.080 0.924-1.762 2.3-1.751 3.835 0.018 2.717 2.234 4.94 4.951 4.965 2.798 0.026 5.072-2.246 5.048-5.043-0.023-2.718-2.244-4.937-4.963-4.957zM5 15.625c-1.723 0-3.125-1.402-3.125-3.125s1.402-3.125 3.125-3.125c0.166 0 0.328 0.013 0.487 0.038l-1.621 2.947c-0.343 0.624 0.109 1.389 0.821 1.389h3.176c-0.483 1.103-1.584 1.875-2.863 1.875zM20.17 15.62c-1.8 0.096-3.295-1.341-3.295-3.12 0-0.834 0.329-1.593 0.864-2.154l1.93 3.217c0.178 0.296 0.562 0.392 0.858 0.214l0.536-0.322c0.296-0.178 0.392-0.562 0.214-0.857l-1.897-3.161c0.186-0.039 0.4-0.062 0.619-0.062 0 0 0 0 0.001 0h-0c1.779 0 3.216 1.495 3.12 3.295-0.084 1.584-1.366 2.866-2.951 2.95z"></path>
</svg>
