<svg xmlns="http://www.w3.org/2000/svg" width="15" height="20" viewBox="0 0 15 20">
<path d="M3.75 10v-6.25c0-2.071 1.679-3.75 3.75-3.75s3.75 1.679 3.75 3.75v6.25c0 2.071-1.679 3.75-3.75 3.75s-3.75-1.679-3.75-3.75zM13.594 7.813h-0.938c-0.259 0-0.469 0.21-0.469 0.469v1.667c0 2.587-2.074 4.724-4.66 4.739-2.597 0.015-4.715-2.094-4.715-4.687v-1.719c0-0.259-0.21-0.469-0.469-0.469h-0.938c-0.259 0-0.469 0.21-0.469 0.469v1.719c0 3.3 2.449 6.039 5.625 6.495v1.786h-2.656c-0.259 0-0.469 0.21-0.469 0.469v0.781c0 0.259 0.21 0.469 0.469 0.469h7.188c0.259 0 0.469-0.21 0.469-0.469v-0.781c0-0.259-0.21-0.469-0.469-0.469h-2.656v-1.786c3.176-0.456 5.625-3.195 5.625-6.495v-1.719c0-0.259-0.21-0.469-0.469-0.469z"></path>
</svg>
