<svg xmlns="http://www.w3.org/2000/svg" width="20" height="20" viewBox="0 0 20 20">
<path d="M19.044 4.081l-1.894 1.894c-0.17 0.17-0.404 0.275-0.663 0.275-0 0-0 0-0 0h-14.299c-0.518 0-0.938-0.42-0.938-0.938v-3.125c0-0.518 0.42-0.938 0.938-0.938h6.25v-0.313c0-0.518 0.42-0.938 0.938-0.938h1.25c0.518 0 0.938 0.42 0.938 0.938v0.313h4.924c0.259 0 0.493 0.105 0.663 0.275l1.894 1.894c0.183 0.183 0.183 0.48 0 0.663zM8.438 14.375v4.688c0 0.518 0.42 0.938 0.938 0.938h1.25c0.518 0 0.938-0.42 0.938-0.938v-4.688h-3.125zM17.813 8.75h-6.25v-1.875h-3.125v1.875h-4.924c-0.259 0-0.493 0.105-0.663 0.275l-1.894 1.894c-0.183 0.183-0.183 0.48 0 0.663l1.894 1.894c0.17 0.17 0.404 0.275 0.663 0.275 0 0 0 0 0 0h14.299c0.518 0 0.938-0.42 0.938-0.938v-3.125c0-0.518-0.42-0.937-0.938-0.937z"></path>
</svg>
