<svg xmlns="http://www.w3.org/2000/svg" width="13" height="20" viewBox="0 0 13 20">
<path d="M7.5 11.751v6.751l-0.86 1.29c-0.186 0.278-0.594 0.278-0.78 0l-0.86-1.29v-6.751c0.376 0.079 0.808 0.125 1.25 0.125s0.874-0.045 1.291-0.132l-0.041 0.007zM6.25 0c3.107 0 5.625 2.518 5.625 5.625s-2.518 5.625-5.625 5.625-5.625-2.518-5.625-5.625 2.518-5.625 5.625-5.625zM3.125 5.313c0-1.551 1.262-2.813 2.813-2.813 0.173 0 0.313-0.14 0.313-0.313s-0.14-0.313-0.313-0.313v0c-1.895 0-3.438 1.542-3.438 3.438 0 0.173 0.14 0.313 0.313 0.313s0.313-0.14 0.313-0.313v0z"></path>
</svg>
