<svg xmlns="http://www.w3.org/2000/svg" width="23" height="20" viewBox="0 0 23 20">
<path d="M21.563 2.5h-18.125c-0.518 0-0.938 0.42-0.938 0.938v0.313h-1.563c-0.518 0-0.938 0.42-0.938 0.938v10.625c0 1.208 0.979 2.188 2.188 2.188h18.438c1.036 0 1.875-0.839 1.875-1.875v-12.188c0-0.518-0.42-0.938-0.938-0.938zM2.188 15.625c-0.173 0-0.313-0.14-0.313-0.313v0-9.688h0.625v9.688c0 0.173-0.14 0.313-0.313 0.313v0zM11.406 15h-5.938c-0.259 0-0.469-0.21-0.469-0.469v-0.313c0-0.259 0.21-0.469 0.469-0.469h5.938c0.259 0 0.469 0.21 0.469 0.469v0.313c0 0.259-0.21 0.469-0.469 0.469zM19.531 15h-5.938c-0.259 0-0.469-0.21-0.469-0.469v-0.313c0-0.259 0.21-0.469 0.469-0.469h5.938c0.259 0 0.469 0.21 0.469 0.469v0.313c0 0.259-0.21 0.469-0.469 0.469zM11.406 11.25h-5.938c-0.259 0-0.469-0.21-0.469-0.469v-0.313c0-0.259 0.21-0.469 0.469-0.469h5.938c0.259 0 0.469 0.21 0.469 0.469v0.313c0 0.259-0.21 0.469-0.469 0.469zM19.531 11.25h-5.938c-0.259 0-0.469-0.21-0.469-0.469v-0.313c0-0.259 0.21-0.469 0.469-0.469h5.938c0.259 0 0.469 0.21 0.469 0.469v0.313c0 0.259-0.21 0.469-0.469 0.469zM19.531 7.5h-14.063c-0.259 0-0.469-0.21-0.469-0.469v-1.563c0-0.259 0.21-0.469 0.469-0.469h14.063c0.259 0 0.469 0.21 0.469 0.469v1.563c0 0.259-0.21 0.469-0.469 0.469z"></path>
</svg>
