<svg xmlns="http://www.w3.org/2000/svg" width="20" height="20" viewBox="0 0 20 20">
<path d="M18.75 5v-1.25h0.781c0.259 0 0.469-0.21 0.469-0.469v-1.563c0-0.259-0.21-0.469-0.469-0.469h-1.563c-0.259 0-0.469 0.21-0.469 0.469v0.781h-15v-0.781c0-0.259-0.21-0.469-0.469-0.469h-1.563c-0.259 0-0.469 0.21-0.469 0.469v1.563c0 0.259 0.21 0.469 0.469 0.469h0.781v12.5h-0.781c-0.259 0-0.469 0.21-0.469 0.469v1.563c0 0.259 0.21 0.469 0.469 0.469h1.563c0.259 0 0.469-0.21 0.469-0.469v-0.781h15v0.781c0 0.259 0.21 0.469 0.469 0.469h1.563c0.259 0 0.469-0.21 0.469-0.469v-1.563c0-0.259-0.21-0.469-0.469-0.469h-0.781v-11.25zM3.75 10.781v-5.313c0-0.259 0.21-0.469 0.469-0.469h6.563c0.259 0 0.469 0.21 0.469 0.469v5.313c0 0.259-0.21 0.469-0.469 0.469h-6.563c-0.259 0-0.469-0.21-0.469-0.469zM16.25 14.531c0 0.259-0.21 0.469-0.469 0.469h-6.563c-0.259 0-0.469-0.21-0.469-0.469v-2.031h2.813c0.518 0 0.938-0.42 0.938-0.938v-2.813h3.281c0.259 0 0.469 0.21 0.469 0.469v5.313z"></path>
</svg>
