<svg xmlns="http://www.w3.org/2000/svg" width="18" height="20" viewBox="0 0 18 20">
<path d="M0 3.281v-1.563c0-0.345 0.28-0.625 0.625-0.625h16.25c0.345 0 0.625 0.28 0.625 0.625v1.563c0 0.345-0.28 0.625-0.625 0.625h-16.25c-0.345 0-0.625-0.28-0.625-0.625zM8.125 8.906h8.75c0.345 0 0.625-0.28 0.625-0.625v-1.563c0-0.345-0.28-0.625-0.625-0.625h-8.75c-0.345 0-0.625 0.28-0.625 0.625v1.563c0 0.345 0.28 0.625 0.625 0.625zM0.625 18.906h16.25c0.345 0 0.625-0.28 0.625-0.625v-1.563c0-0.345-0.28-0.625-0.625-0.625h-16.25c-0.345 0-0.625 0.28-0.625 0.625v1.563c0 0.345 0.28 0.625 0.625 0.625zM8.125 13.906h8.75c0.345 0 0.625-0.28 0.625-0.625v-1.563c0-0.345-0.28-0.625-0.625-0.625h-8.75c-0.345 0-0.625 0.28-0.625 0.625v1.563c0 0.345 0.28 0.625 0.625 0.625zM0.183 10.442l3.75 3.749c0.392 0.393 1.067 0.114 1.067-0.442v-7.499c0-0.56-0.677-0.832-1.067-0.442l-3.75 3.75c-0.244 0.244-0.244 0.64 0 0.884z"></path>
</svg>
