<svg xmlns="http://www.w3.org/2000/svg" width="23" height="20" viewBox="0 0 23 20">
<path d="M2.5 12.5v1.016c0 0.129-0.105 0.234-0.234 0.234v0h-2.031c-0.129 0-0.234-0.105-0.234-0.234v0-2.031c0-0.129 0.105-0.234 0.234-0.234v0h1.016v-7.5h-1.016c-0.129 0-0.234-0.105-0.234-0.234v0-2.031c0-0.129 0.105-0.234 0.234-0.234v0h2.031c0.129 0 0.234 0.105 0.234 0.234v0 1.016h11.25v-1.016c0-0.129 0.105-0.234 0.234-0.234v0h2.031c0.129 0 0.234 0.105 0.234 0.234v0 2.031c0 0.129-0.105 0.234-0.234 0.234v0h-1.016v7.5h1.016c0.129 0 0.234 0.105 0.234 0.234v0 2.031c0 0.129-0.105 0.234-0.234 0.234v0h-2.031c-0.129 0-0.234-0.105-0.234-0.234v0-1.016h-11.25zM21.25 10v-1.25h1.016c0.129 0 0.234-0.105 0.234-0.234v0-2.031c0-0.129-0.105-0.234-0.234-0.234v0h-2.031c-0.129 0-0.234 0.105-0.234 0.234v0 1.016h-4.063v2.813h0.313c0.518 0 0.938 0.42 0.938 0.938v2.5c0 0.518-0.42 0.938-0.938 0.938h-2.5c-0.518 0-0.938-0.42-0.938-0.938v-0.313h-5.313v2.813h-1.016c-0.129 0-0.234 0.105-0.234 0.234v0 2.031c0 0.129 0.105 0.234 0.234 0.234v0h2.031c0.129 0 0.234-0.105 0.234-0.234v0-1.016h11.25v1.016c0 0.129 0.105 0.234 0.234 0.234v0h2.031c0.129 0 0.234-0.105 0.234-0.234v0-2.031c0-0.129-0.105-0.234-0.234-0.234v0h-1.016v-6.25z"></path>
</svg>
