<svg xmlns="http://www.w3.org/2000/svg" width="18" height="20" viewBox="0 0 18 20">
<path d="M15.625 1.25h-13.75c-1.036 0-1.875 0.839-1.875 1.875v13.75c0 1.036 0.839 1.875 1.875 1.875h13.75c1.036 0 1.875-0.839 1.875-1.875v-13.75c0-1.036-0.839-1.875-1.875-1.875zM3.672 16.25c-0.275 0-0.51-0.19-0.571-0.454l-0.586-2.539c-0.010-0.040-0.015-0.085-0.015-0.132 0-0.24 0.145-0.447 0.351-0.537l0.004-0.001 2.734-1.172c0.068-0.030 0.147-0.047 0.231-0.047 0.182 0 0.345 0.083 0.453 0.214l0.001 0.001 1.211 1.48c1.912-0.897 3.449-2.455 4.327-4.327l-1.48-1.211c-0.132-0.108-0.215-0.271-0.215-0.454 0-0.083 0.017-0.163 0.049-0.235l-0.001 0.004 1.172-2.734c0.092-0.211 0.298-0.355 0.539-0.355 0.047 0 0.092 0.005 0.136 0.016l-0.004-0.001 2.539 0.586c0.262 0.062 0.454 0.294 0.454 0.571 0 0 0 0 0 0v0c0 6.261-5.076 11.328-11.328 11.328z"></path>
</svg>
