<svg xmlns="http://www.w3.org/2000/svg" width="15" height="20" viewBox="0 0 15 20">
<path d="M3.802 19.803c-5.073-5.073-5.066-13.291 0-18.357 0.223-0.223 0.567-0.259 0.831-0.095l2.532 1.583c0.191 0.121 0.316 0.33 0.316 0.569 0 0.090-0.018 0.176-0.050 0.254l0.002-0.004-1.266 3.165c-0.102 0.249-0.342 0.422-0.623 0.422-0.024 0-0.047-0.001-0.070-0.004l0.003 0-2.18-0.218c-0.822 2.276-0.805 4.784 0 7.012l2.18-0.218c0.020-0.002 0.043-0.003 0.067-0.003 0.281 0 0.522 0.173 0.622 0.418l0.002 0.004 1.266 3.165c0.030 0.074 0.048 0.16 0.048 0.249 0 0.239-0.125 0.449-0.313 0.568l-0.003 0.002-2.532 1.583c-0.101 0.064-0.224 0.102-0.356 0.102-0.185 0-0.353-0.075-0.475-0.197v0zM9.653 3.729c0.462 0.783 0.462 1.758 0 2.541-0.154 0.261-0.512 0.311-0.731 0.101l-0.233-0.224c-0.153-0.146-0.187-0.376-0.088-0.563 0.091-0.169 0.145-0.371 0.145-0.585s-0.054-0.415-0.148-0.592l0.003 0.007c-0.099-0.187-0.064-0.416 0.088-0.563l0.233-0.224c0.219-0.21 0.577-0.161 0.731 0.101zM13.239 0.167c2.349 2.797 2.347 6.87 0 9.665-0.175 0.208-0.489 0.224-0.686 0.036l-0.226-0.217c-0.178-0.171-0.194-0.45-0.036-0.64 1.941-2.326 1.939-5.701 0-8.024-0.158-0.189-0.142-0.469 0.036-0.64l0.226-0.217c0.196-0.188 0.511-0.172 0.686 0.036zM11.443 1.923c1.408 1.809 1.41 4.342 0 6.154-0.171 0.22-0.496 0.244-0.697 0.051l-0.227-0.218c-0.172-0.165-0.195-0.433-0.050-0.622 1.037-1.35 1.036-3.225 0-4.576-0.145-0.189-0.122-0.457 0.050-0.622l0.227-0.218c0.202-0.193 0.526-0.169 0.697 0.051z"></path>
</svg>
