<svg xmlns="http://www.w3.org/2000/svg" width="15" height="20" viewBox="0 0 15 20">
<path d="M10 5.625v-4.375c0-0.69 0.56-1.25 1.25-1.25s1.25 0.56 1.25 1.25v4.375h-2.5zM14.375 6.25h-13.75c-0.345 0-0.625 0.28-0.625 0.625v1.25c0 0.345 0.28 0.625 0.625 0.625h0.625v1.25c0 3.024 2.147 5.546 5 6.125v3.875h2.5v-3.875c2.853-0.579 5-3.101 5-6.125v-1.25h0.625c0.345 0 0.625-0.28 0.625-0.625v-1.25c0-0.345-0.28-0.625-0.625-0.625zM5 5.625v-4.375c0-0.69-0.56-1.25-1.25-1.25s-1.25 0.56-1.25 1.25v4.375h2.5z"></path>
</svg>
