<svg xmlns="http://www.w3.org/2000/svg" width="18" height="20" viewBox="0 0 18 20">
<path d="M15.625 1.25h-13.75c-1.035 0-1.875 0.84-1.875 1.875v13.75c0 1.035 0.84 1.875 1.875 1.875h13.75c1.035 0 1.875-0.84 1.875-1.875v-13.75c0-1.035-0.84-1.875-1.875-1.875zM14.375 11.094c0 0.258-0.211 0.469-0.469 0.469h-3.594v3.594c0 0.258-0.211 0.469-0.469 0.469h-2.188c-0.258 0-0.469-0.211-0.469-0.469v-3.594h-3.594c-0.258 0-0.469-0.211-0.469-0.469v-2.188c0-0.258 0.211-0.469 0.469-0.469h3.594v-3.594c0-0.258 0.211-0.469 0.469-0.469h2.188c0.258 0 0.469 0.211 0.469 0.469v3.594h3.594c0.258 0 0.469 0.211 0.469 0.469v2.188z"></path>
</svg>
