<svg xmlns="http://www.w3.org/2000/svg" width="18" height="20" viewBox="0 0 18 20">
<path d="M10.446 19.084c-0.201 0.743-0.96 0.916-1.696 0.916s-1.496-0.173-1.696-0.916c-0.299-1.111-0.804-3.893-0.804-5.188 0-1.373 1.216-1.709 2.5-1.709s2.5 0.336 2.5 1.709c0 1.287-0.503 4.069-0.804 5.188zM6.128 11.272c-0.73-0.715-1.17-1.726-1.124-2.836 0.080-1.942 1.656-3.514 3.599-3.589 2.135-0.083 3.898 1.63 3.898 3.747 0 1.048-0.432 1.997-1.128 2.678-0.104 0.102-0.094 0.273 0.025 0.359 0.364 0.264 0.643 0.599 0.829 0.991 0.068 0.143 0.254 0.182 0.369 0.074 1.126-1.056 1.818-2.57 1.778-4.241-0.072-2.977-2.484-5.399-5.461-5.483-3.176-0.090-5.788 2.467-5.788 5.623 0 1.616 0.685 3.074 1.779 4.101 0.115 0.108 0.301 0.069 0.369-0.074 0.186-0.391 0.466-0.726 0.829-0.991 0.118-0.086 0.129-0.256 0.025-0.359zM8.75 0c-4.836 0-8.75 3.913-8.75 8.75 0 3.515 2.055 6.471 4.912 7.867 0.169 0.083 0.362-0.060 0.333-0.246-0.093-0.606-0.17-1.209-0.211-1.732-0.006-0.072-0.045-0.136-0.105-0.176-1.852-1.242-3.069-3.36-3.054-5.756 0.023-3.759 3.097-6.822 6.857-6.832 3.799-0.010 6.893 3.078 6.893 6.875 0 2.419-1.256 4.55-3.15 5.776-0.039 0.548-0.12 1.195-0.22 1.845-0.029 0.186 0.164 0.329 0.333 0.246 2.85-1.394 4.912-4.345 4.912-7.867 0-4.836-3.913-8.75-8.75-8.75zM8.75 6.25c-1.381 0-2.5 1.119-2.5 2.5s1.119 2.5 2.5 2.5 2.5-1.119 2.5-2.5-1.119-2.5-2.5-2.5z"></path>
</svg>
