<svg xmlns="http://www.w3.org/2000/svg" width="20" height="20" viewBox="0 0 20 20">
<path d="M19.273 0.962l-4.063-0.937c-0.442-0.102-0.894 0.127-1.072 0.544l-1.875 4.375c-0.048 0.109-0.076 0.236-0.076 0.369 0 0.292 0.133 0.552 0.342 0.724l0.002 0.001 2.368 1.937c-1.405 2.995-3.865 5.489-6.924 6.924l-1.937-2.368c-0.173-0.211-0.434-0.344-0.726-0.344-0.133 0-0.26 0.028-0.375 0.078l0.006-0.002-4.375 1.875c-0.417 0.179-0.646 0.63-0.544 1.072l0.937 4.063c0.097 0.422 0.474 0.727 0.913 0.727 10.003 0 18.125-8.107 18.125-18.125 0-0.437-0.301-0.815-0.727-0.913z"></path>
</svg>
