<svg xmlns="http://www.w3.org/2000/svg" width="20" height="20" viewBox="0 0 20 20">
<path d="M3.329 12.928c-1.923 0-3.329-2.233-3.329-3.885 0-1.105 0.625-2.267 1.935-2.267 1.923 0 3.329 2.244 3.329 3.896 0 1.105-0.613 2.256-1.935 2.256zM16.923 17.075c0 1.447-1.25 1.675-2.476 1.675-1.611 0-2.909-1.025-4.447-1.025-1.611 0-2.981 1.014-4.724 1.014-1.166 0-2.2-0.376-2.2-1.663 0-2.7 3.978-6.711 6.923-6.711s6.923 4.022 6.923 6.711zM7.127 7.961c-1.947 0-3.125-2.324-3.125-3.919 0-1.276 0.697-2.791 2.248-2.791 1.959 0 3.125 2.324 3.125 3.919 0 1.276-0.697 2.791-2.248 2.791zM10.625 5.169c0-1.595 1.166-3.919 3.125-3.919 1.55 0 2.248 1.515 2.248 2.791 0 1.595-1.178 3.919-3.125 3.919-1.55 0-2.248-1.515-2.248-2.791zM20 9.043c0 1.652-1.406 3.885-3.329 3.885-1.322 0-1.935-1.151-1.935-2.256 0-1.652 1.406-3.896 3.329-3.896 1.31 0 1.935 1.162 1.935 2.267z"></path>
</svg>
