<svg xmlns="http://www.w3.org/2000/svg" width="18" height="20" viewBox="0 0 18 20">
<path d="M15.625 18.75h-13.75c-1.035 0-1.875-0.84-1.875-1.875v-13.75c0-1.035 0.84-1.875 1.875-1.875h13.75c1.035 0 1.875 0.84 1.875 1.875v13.75c0 1.035-0.84 1.875-1.875 1.875zM9.301 6.949l-5.301 5.301-0.246 2.23c-0.031 0.297 0.219 0.551 0.52 0.52l2.23-0.246 5.301-5.301c0.090-0.090 0.090-0.238 0-0.332l-2.168-2.168c-0.098-0.094-0.246-0.094-0.336-0.004zM13.477 6.449l-1.176-1.176c-0.367-0.367-0.961-0.367-1.324 0l-0.902 0.902c-0.090 0.090-0.090 0.238 0 0.332l2.168 2.168c0.090 0.090 0.238 0.090 0.332 0l0.902-0.902c0.363-0.363 0.363-0.957 0-1.324z"></path>
</svg>
