<svg xmlns="http://www.w3.org/2000/svg" width="20" height="20" viewBox="0 0 20 20">
<path d="M18.125 7.5h-0.625v-4.299c0-0.259-0.105-0.493-0.275-0.663l-2.263-2.263c-0.17-0.17-0.404-0.275-0.663-0.275h-10.862c-0.518 0-0.938 0.42-0.938 0.938v6.563h-0.625c-1.036 0-1.875 0.839-1.875 1.875v5.156c0 0.259 0.21 0.469 0.469 0.469h2.031v4.063c0 0.518 0.42 0.938 0.938 0.938h13.125c0.518 0 0.938-0.42 0.938-0.938v-4.063h2.031c0.259 0 0.469-0.21 0.469-0.469v-5.156c0-1.036-0.839-1.875-1.875-1.875zM15 17.5h-10v-3.75h10v3.75zM5 8.75v-6.25h7.5v1.563c0 0.516 0.422 0.938 0.938 0.938h1.563v3.75h-10zM16.875 11.563c-0.518 0-0.938-0.42-0.938-0.938s0.42-0.938 0.938-0.938 0.938 0.42 0.938 0.938-0.42 0.938-0.938 0.938z"></path>
</svg>
