<svg xmlns="http://www.w3.org/2000/svg" width="20" height="20" viewBox="0 0 20 20">
<path d="M19.449 5.551l-1.801 1.801c-0.184 0.184-0.48 0.184-0.664 0l-4.336-4.336c-0.184-0.184-0.184-0.48 0-0.664l1.801-1.801c0.73-0.73 1.918-0.73 2.652 0l2.348 2.348c0.734 0.73 0.734 1.918 0 2.652zM11.102 3.898l-10.258 10.258-0.828 4.746c-0.113 0.641 0.445 1.195 1.086 1.086l4.746-0.832 10.258-10.258c0.184-0.184 0.184-0.48 0-0.664l-4.336-4.336c-0.188-0.184-0.484-0.184-0.668 0zM4.848 13.277c-0.215-0.215-0.215-0.559 0-0.773l6.016-6.016c0.215-0.215 0.559-0.215 0.773 0s0.215 0.559 0 0.773l-6.016 6.016c-0.215 0.215-0.559 0.215-0.773 0zM3.438 16.563h1.875v1.418l-2.52 0.441-1.215-1.215 0.441-2.52h1.418v1.875z"></path>
</svg>
