<svg xmlns="http://www.w3.org/2000/svg" width="20" height="20" viewBox="0 0 20 20">
<path d="M10 0.313c-5.352 0-9.688 4.336-9.688 9.688s4.336 9.688 9.688 9.688 9.688-4.336 9.688-9.688-4.336-9.688-9.688-9.688zM15.625 11.094c0 0.258-0.211 0.469-0.469 0.469h-3.594v3.594c0 0.258-0.211 0.469-0.469 0.469h-2.188c-0.258 0-0.469-0.211-0.469-0.469v-3.594h-3.594c-0.258 0-0.469-0.211-0.469-0.469v-2.188c0-0.258 0.211-0.469 0.469-0.469h3.594v-3.594c0-0.258 0.211-0.469 0.469-0.469h2.188c0.258 0 0.469 0.211 0.469 0.469v3.594h3.594c0.258 0 0.469 0.211 0.469 0.469v2.188z"></path>
</svg>
