<svg xmlns="http://www.w3.org/2000/svg" width="23" height="20" viewBox="0 0 23 20">
<path d="M20.291 11.275c-1.622 0-2.324 1.234-3.205 1.234-2.343 0-0.21-6.885-0.21-6.885s-7.668 3.125-7.668-0.129c0-1.399 1.418-1.807 1.418-3.359 0-1.387-1.098-2.137-2.401-2.137-1.354 0-2.592 0.738-2.592 2.201 0 1.616 1.239 2.316 1.239 3.193 0 2.72-6.87 1.12-6.87 1.12v13.017s6.978 1.603 6.978-1.12c0-0.878-1.563-1.567-1.563-3.182 0-1.463 1.143-2.201 2.483-2.201 1.315 0 2.414 0.751 2.414 2.137 0 1.552-1.418 1.959-1.418 3.359 0 2.375 5.065 1.005 7.079 1.005 0 0-1.356-4.691 1.009-4.691 1.405 0 1.813 1.412 3.371 1.412 1.392 0 2.145-1.094 2.145-2.405 0-1.336-0.741-2.57-2.209-2.57z"></path>
</svg>
