<svg xmlns="http://www.w3.org/2000/svg" width="18" height="20" viewBox="0 0 18 20">
<path d="M5 7.188c0-1.206 0.981-2.188 2.188-2.188h5.313v-2.813c0-0.518-0.42-0.938-0.938-0.938h-3.149c-0.433-0.746-1.24-1.25-2.164-1.25s-1.731 0.504-2.164 1.25h-3.149c-0.518 0-0.938 0.42-0.938 0.938v13.125c0 0.518 0.42 0.938 0.938 0.938h4.063v-9.063zM6.25 1.563c0.518 0 0.938 0.42 0.938 0.938s-0.42 0.938-0.938 0.938-0.938-0.42-0.938-0.938 0.42-0.938 0.938-0.938zM13.438 11.25h4.063v7.813c0 0.518-0.42 0.938-0.938 0.938h-9.375c-0.518 0-0.938-0.42-0.938-0.938v-11.875c0-0.518 0.42-0.938 0.938-0.938h5.313v4.063c0 0.516 0.422 0.938 0.938 0.938zM17.5 9.763v0.237h-3.75v-3.75h0.237c0.259 0 0.493 0.105 0.663 0.275l2.576 2.576c0.17 0.17 0.275 0.404 0.275 0.663v0z"></path>
</svg>
