<svg xmlns="http://www.w3.org/2000/svg" width="20" height="20" viewBox="0 0 20 20">
<path d="M10 0.313c-5.352 0-9.688 4.336-9.688 9.688s4.336 9.688 9.688 9.688 9.688-4.336 9.688-9.688-4.336-9.688-9.688-9.688zM9.375 13.125c0 0.344-0.281 0.625-0.625 0.625h-1.875c-0.344 0-0.625-0.281-0.625-0.625v-6.25c0-0.344 0.281-0.625 0.625-0.625h1.875c0.344 0 0.625 0.281 0.625 0.625v6.25zM13.75 13.125c0 0.344-0.281 0.625-0.625 0.625h-1.875c-0.344 0-0.625-0.281-0.625-0.625v-6.25c0-0.344 0.281-0.625 0.625-0.625h1.875c0.344 0 0.625 0.281 0.625 0.625v6.25z"></path>
</svg>
