<svg xmlns="http://www.w3.org/2000/svg" width="13" height="20" viewBox="0 0 13 20">
<path d="M12.031 13.75h-1.777c-0.259 0-0.469 0.21-0.469 0.469v1.986h-4.785v-4.955h3.281c0.259 0 0.469-0.21 0.469-0.469v-1.563c0-0.259-0.21-0.469-0.469-0.469h-3.281v-2.483c0-1.26 0.959-2.23 2.414-2.23 0.924 0 1.792 0.449 2.252 0.736 0.201 0.126 0.464 0.080 0.613-0.105l1.113-1.387c0.165-0.206 0.128-0.508-0.083-0.667-0.64-0.483-2.068-1.364-3.968-1.364-3.199 0-5.466 2.060-5.466 4.92v2.58h-1.094c-0.259 0-0.469 0.21-0.469 0.469v1.563c0 0.259 0.21 0.469 0.469 0.469h1.094v5h-1.406c-0.259 0-0.469 0.21-0.469 0.469v1.563c0 0.259 0.21 0.469 0.469 0.469h11.563c0.259 0 0.469-0.21 0.469-0.469v-4.063c0-0.259-0.21-0.469-0.469-0.469z"></path>
</svg>
