<svg xmlns="http://www.w3.org/2000/svg" width="23" height="20" viewBox="0 0 23 20">
<path d="M18.438 7.813h-4.367l-4.070-7.589c-0.084-0.135-0.231-0.223-0.399-0.223h-2.257c-0.307 0-0.531 0.29-0.454 0.586l1.298 7.226h-4.291l-1.363-2.272c-0.083-0.137-0.232-0.228-0.402-0.228 0 0 0 0 0 0h-1.663c-0.296 0-0.518 0.271-0.46 0.561l0.825 4.127-0.825 4.127c-0.058 0.29 0.164 0.561 0.46 0.561l1.663-0c0.165 0 0.317-0.086 0.402-0.228l1.363-2.272h4.291l-1.298 7.226c-0.077 0.297 0.147 0.586 0.454 0.586h2.257c0.168 0 0.315-0.088 0.398-0.221l0.001-0.002 4.070-7.589h4.367c2.244 0 4.062-0.979 4.062-2.188s-1.819-2.188-4.063-2.188z"></path>
</svg>
