<svg xmlns="http://www.w3.org/2000/svg" width="20" height="20" viewBox="0 0 20 20">
<path d="M10.543 14.242c0.055 0.25 0.082 0.508 0.082 0.77 0 3.172-2.117 4.988-5.266 4.988-3.738 0-5.359-3.004-5.359-6.422 0.406 0.277 1.832 1.426 2.293 1.426 0.273 0 0.508-0.156 0.605-0.414 0.922-2.43 2.598-2.988 4.41-3.023 0.609 1.32 1.801 2.328 3.234 2.676zM17.992 0c-0.563 0-1.090 0.25-1.492 0.613-7.586 6.809-8.375 6.969-8.375 8.973 0 1.906 1.582 3.539 3.523 3.539 2.305 0 3.641-1.695 7.836-9.563 0.273-0.535 0.516-1.113 0.516-1.715 0-1.078-0.965-1.848-2.008-1.848z"></path>
</svg>
