<svg xmlns="http://www.w3.org/2000/svg" width="18" height="20" viewBox="0 0 18 20">
<path d="M4.375 8.75c2.418 0 4.375-1.957 4.375-4.375s-1.957-4.375-4.375-4.375-4.375 1.957-4.375 4.375 1.957 4.375 4.375 4.375zM4.375 2.5c1.035 0 1.875 0.84 1.875 1.875s-0.84 1.875-1.875 1.875-1.875-0.84-1.875-1.875 0.84-1.875 1.875-1.875zM13.125 11.25c-2.418 0-4.375 1.957-4.375 4.375s1.957 4.375 4.375 4.375 4.375-1.957 4.375-4.375-1.957-4.375-4.375-4.375zM13.125 17.5c-1.035 0-1.875-0.84-1.875-1.875s0.84-1.875 1.875-1.875 1.875 0.84 1.875 1.875-0.84 1.875-1.875 1.875zM15.324 0.008l1.234-0.004c0.758-0.004 1.207 0.852 0.77 1.477l-14.305 18.113c-0.171 0.242-0.45 0.398-0.766 0.398h-0l-1.305 0.004c-0.762 0-1.207-0.855-0.77-1.477l14.375-18.113c0.176-0.25 0.461-0.398 0.766-0.398z"></path>
</svg>
