<svg xmlns="http://www.w3.org/2000/svg" width="20" height="20" viewBox="0 0 20 20">
<path d="M15.625 2.113c2.461 1.758 4.063 4.633 4.063 7.887 0 5.344-4.328 9.676-9.668 9.688-5.332 0.012-9.699-4.336-9.707-9.672-0.004-3.254 1.598-6.137 4.055-7.898 0.457-0.324 1.094-0.188 1.367 0.301l0.617 1.098c0.23 0.41 0.121 0.93-0.258 1.211-1.621 1.203-2.656 3.109-2.656 5.27-0.004 3.605 2.91 6.566 6.562 6.566 3.578 0 6.586-2.898 6.563-6.605-0.012-2.023-0.965-3.977-2.66-5.234-0.379-0.281-0.484-0.801-0.254-1.207l0.617-1.098c0.273-0.484 0.906-0.629 1.359-0.305zM11.563 10.313v-9.375c0-0.52-0.418-0.938-0.938-0.938h-1.25c-0.52 0-0.938 0.418-0.938 0.938v9.375c0 0.52 0.418 0.938 0.938 0.938h1.25c0.52 0 0.938-0.418 0.938-0.938z"></path>
</svg>
