<svg xmlns="http://www.w3.org/2000/svg" width="18" height="20" viewBox="0 0 18 20">
<path d="M1.689 18.209c-2.282-2.355-2.24-6.153 0.054-8.499l8.194-8.381c1.731-1.771 4.545-1.771 6.276 0 1.714 1.754 1.717 4.583 0 6.339l-7.143 7.299c-1.166 1.193-3.072 1.176-4.218-0.039-1.104-1.171-1.069-3.026 0.057-4.178l5.615-5.736c0.241-0.247 0.637-0.251 0.884-0.009l0.893 0.874c0.247 0.241 0.251 0.637 0.009 0.884l-5.614 5.735c-0.193 0.197-0.205 0.525-0.025 0.715 0.171 0.181 0.439 0.184 0.613 0.006l7.143-7.299c0.766-0.784 0.766-2.060-0-2.844-0.75-0.767-1.951-0.767-2.701 0l-8.194 8.381c-1.358 1.389-1.379 3.637-0.047 5.012 1.329 1.371 3.476 1.373 4.807 0.011l6.721-6.875c0.241-0.247 0.637-0.251 0.884-0.010l0.894 0.874c0.247 0.241 0.251 0.637 0.010 0.884l-6.721 6.875c-2.327 2.38-6.092 2.352-8.389-0.019z"></path>
</svg>
