<svg xmlns="http://www.w3.org/2000/svg" width="15" height="20" viewBox="0 0 15 20">
<path d="M7.891 0c-3.118 0-5.137 1.277-6.723 3.556-0.288 0.413-0.199 0.98 0.202 1.284l1.685 1.278c0.405 0.307 0.982 0.235 1.299-0.162 0.978-1.226 1.704-1.932 3.233-1.932 1.202 0 2.688 0.773 2.688 1.939 0 0.881-0.727 1.333-1.914 1.999-1.384 0.776-3.215 1.741-3.215 4.156v0.382c0 0.518 0.42 0.938 0.938 0.938h2.831c0.518 0 0.938-0.42 0.938-0.938v-0.226c0-1.674 4.893-1.744 4.893-6.274 0-3.412-3.539-6-6.855-6zM7.5 14.588c-1.492 0-2.706 1.214-2.706 2.706s1.214 2.706 2.706 2.706 2.706-1.214 2.706-2.706-1.214-2.706-2.706-2.706z"></path>
</svg>
