<svg xmlns="http://www.w3.org/2000/svg" width="20" height="20" viewBox="0 0 20 20">
<path d="M0 16.875v-5c0-5.352 2.491-9.231 7.571-10.593 0.595-0.159 1.179 0.291 1.179 0.906v1.324c0 0.393-0.243 0.747-0.613 0.881-2.578 0.931-4.075 2.714-4.075 5.607h2.813c1.036 0 1.875 0.839 1.875 1.875v5c0 1.036-0.839 1.875-1.875 1.875h-5c-1.036 0-1.875-0.839-1.875-1.875zM13.125 18.75h5c1.036 0 1.875-0.839 1.875-1.875v-5c0-1.036-0.839-1.875-1.875-1.875h-2.813c0-2.893 1.497-4.675 4.075-5.607 0.369-0.133 0.613-0.488 0.613-0.881v-1.324c0-0.616-0.584-1.066-1.179-0.906-5.080 1.361-7.571 5.24-7.571 10.593v5c0 1.036 0.839 1.875 1.875 1.875z"></path>
</svg>
