<svg xmlns="http://www.w3.org/2000/svg" width="25" height="20" viewBox="0 0 25 20">
<path d="M10.020 8.469l3.387 4.266s-0.648 4-2.992 5.863c-2.34 1.863-10.414 1.332-10.414 1.332s0.148-0.902 0.43-2.164l3.695-4.383c0.156-0.184-0.035-0.453-0.258-0.371l-2.359 0.863c0.563-1.629 1.277-3.125 2.133-3.809 2.34-1.867 6.379-1.598 6.379-1.598zM19.316 13.742c-1.719 0-3.117 1.398-3.117 3.121s1.395 3.121 3.117 3.121c1.723 0 3.117-1.398 3.117-3.121 0-1.727-1.398-3.121-3.117-3.121zM24.863 1.211l-0.773-0.977c-0.215-0.27-0.605-0.313-0.875-0.102l-9.082 6.949-1.332-1.68c-0.199-0.25-0.59-0.203-0.727 0.086l-0.988 2.133 3.387 4.266 2.297-0.484c0.313-0.066 0.445-0.438 0.246-0.688l-1.332-1.676 9.082-6.949c0.27-0.215 0.313-0.609 0.098-0.879z"></path>
</svg>
