<svg xmlns="http://www.w3.org/2000/svg" width="20" height="20" viewBox="0 0 20 20">
<path d="M19.688 10c0 5.351-4.338 9.688-9.688 9.688s-9.688-4.336-9.688-9.688c0-5.348 4.338-9.688 9.688-9.688s9.688 4.339 9.688 9.688zM10.26 3.516c-2.129 0-3.487 0.897-4.553 2.491-0.138 0.206-0.092 0.485 0.106 0.635l1.355 1.028c0.203 0.154 0.493 0.118 0.651-0.083 0.698-0.885 1.176-1.398 2.238-1.398 0.798 0 1.785 0.514 1.785 1.287 0 0.585-0.483 0.885-1.271 1.327-0.919 0.515-2.135 1.156-2.135 2.76v0.156c0 0.259 0.21 0.469 0.469 0.469h2.188c0.259 0 0.469-0.21 0.469-0.469v-0.052c0-1.112 3.249-1.158 3.249-4.167 0-2.266-2.35-3.984-4.552-3.984zM10 13.203c-0.991 0-1.797 0.806-1.797 1.797s0.806 1.797 1.797 1.797 1.797-0.806 1.797-1.797c0-0.991-0.806-1.797-1.797-1.797z"></path>
</svg>
