<svg xmlns="http://www.w3.org/2000/svg" width="18" height="20" viewBox="0 0 18 20">
<path d="M15.625 1.25h-13.75c-1.036 0-1.875 0.839-1.875 1.875v13.75c0 1.036 0.839 1.875 1.875 1.875h13.75c1.036 0 1.875-0.839 1.875-1.875v-13.75c0-1.036-0.839-1.875-1.875-1.875zM4.375 16.25c-1.036 0-1.875-0.839-1.875-1.875s0.839-1.875 1.875-1.875 1.875 0.839 1.875 1.875-0.839 1.875-1.875 1.875zM10.529 16.25h-1.341c-0.235 0-0.432-0.181-0.447-0.415-0.204-3.127-2.705-5.622-5.825-5.825-0.234-0.015-0.415-0.212-0.415-0.447v-1.341c0-0.255 0.214-0.46 0.469-0.446 4.318 0.233 7.773 3.693 8.006 8.006 0.014 0.255-0.191 0.469-0.446 0.469zM14.553 16.25h-1.341c-0.241 0-0.437-0.191-0.446-0.431-0.219-5.333-4.5-9.616-9.834-9.834-0.241-0.010-0.431-0.206-0.431-0.446v-1.341c0-0.252 0.209-0.456 0.46-0.447 6.556 0.235 11.805 5.515 12.039 12.039 0.009 0.252-0.194 0.46-0.447 0.46z"></path>
</svg>
