<svg xmlns="http://www.w3.org/2000/svg" width="25" height="20" viewBox="0 0 25 20">
<path d="M24.596 13.422l-3.933 3.933c-0.366 0.366-0.96 0.366-1.326 0l-3.933-3.933c-0.366-0.366-0.366-0.96 0-1.326l0.423-0.423c0.374-0.374 0.982-0.365 1.344 0.019l1.579 1.672v-7.114h-7.326c-0.259-0-0.493-0.105-0.663-0.275l-0.625-0.625c-0.591-0.591-0.172-1.6 0.663-1.6h9.514c0.518 0 0.938 0.42 0.938 0.938v8.676l1.579-1.672c0.363-0.384 0.971-0.393 1.344-0.019l0.423 0.423c0.366 0.366 0.366 0.96-0 1.326zM14.239 14.025c-0.17-0.17-0.404-0.275-0.663-0.275-0 0-0 0-0 0h-7.326v-7.114l1.579 1.672c0.363 0.384 0.971 0.393 1.344 0.019l0.423-0.423c0.366-0.366 0.366-0.96 0-1.326l-3.933-3.933c-0.366-0.366-0.96-0.366-1.326 0l-3.933 3.933c-0.366 0.366-0.366 0.96 0 1.326l0.423 0.423c0.374 0.374 0.982 0.365 1.344-0.019l1.579-1.672v8.677c0 0.518 0.42 0.938 0.938 0.938h9.514c0.835 0 1.254-1.010 0.663-1.6l-0.625-0.625z"></path>
</svg>
