<svg xmlns="http://www.w3.org/2000/svg" width="20" height="20" viewBox="0 0 20 20">
<path d="M19.73 0.746c-0.051-0.238-0.238-0.426-0.477-0.477-1.258-0.27-2.242-0.27-3.223-0.27-4.031 0-6.449 2.156-8.254 5h-4.070c-0.711 0-1.359 0.402-1.676 1.035l-1.93 3.859c-0.313 0.625 0.141 1.355 0.84 1.355h3.715c-0.23 0.5-0.465 0.996-0.703 1.473-0.121 0.242-0.074 0.531 0.117 0.723l2.484 2.484c0.191 0.191 0.48 0.238 0.723 0.117 0.477-0.238 0.973-0.469 1.473-0.699v3.715c0 0.695 0.734 1.148 1.355 0.84l3.855-1.93c0.637-0.316 1.035-0.969 1.035-1.676v-4.078c2.836-1.809 5-4.234 5-8.246 0.004-0.984 0.004-1.969-0.266-3.227zM15.625 6.25c-1.035 0-1.875-0.84-1.875-1.875s0.84-1.875 1.875-1.875 1.875 0.84 1.875 1.875-0.84 1.875-1.875 1.875z"></path>
</svg>
