<svg xmlns="http://www.w3.org/2000/svg" width="18" height="20" viewBox="0 0 18 20">
<path d="M5.003 16.248c0 1.382-1.12 2.502-2.502 2.502s-2.502-1.12-2.502-2.502 1.12-2.502 2.502-2.502 2.502 1.12 2.502 2.502zM11.865 18.094c-0.326-6.039-5.163-10.882-11.209-11.209-0.357-0.019-0.656 0.267-0.656 0.625v1.878c0 0.329 0.254 0.604 0.582 0.626 4.368 0.285 7.87 3.777 8.155 8.155 0.021 0.328 0.297 0.582 0.626 0.582h1.878c0.357 0 0.644-0.299 0.625-0.656zM17.5 18.105c-0.328-9.134-7.677-16.525-16.855-16.855-0.353-0.013-0.645 0.272-0.645 0.625v1.878c0 0.337 0.267 0.611 0.604 0.625 7.468 0.306 13.462 6.301 13.768 13.768 0.014 0.337 0.288 0.604 0.625 0.604h1.878c0.353-0 0.638-0.292 0.625-0.645z"></path>
</svg>
