<svg xmlns="http://www.w3.org/2000/svg" width="23" height="20" viewBox="0 0 23 20">
<path d="M22.16 14.984l-5.367-11.93c-0.152-0.34-0.488-0.555-0.855-0.555h-3.754l0.074 0.734c0.027 0.277-0.188 0.516-0.465 0.516h-1.090c-0.277 0-0.496-0.242-0.465-0.516l0.074-0.734h-3.75c-0.367 0-0.703 0.215-0.855 0.555l-5.367 11.93c-0.215 0.477-0.34 1.016-0.34 1.578 0 0.52 0.418 0.938 0.938 0.938h8.344c-0.277 0-0.496-0.242-0.465-0.516l0.422-4.063c0.023-0.238 0.227-0.422 0.465-0.422h3.094c0.238 0 0.441 0.18 0.465 0.422l0.422 4.063c0.027 0.277-0.188 0.516-0.465 0.516h8.344c0.516 0 0.938-0.418 0.938-0.938 0-0.543-0.117-1.082-0.34-1.578zM9.949 6.047l0.129-1.25c0.023-0.238 0.227-0.422 0.465-0.422h1.414c0.238 0 0.441 0.18 0.465 0.422l0.129 1.25c0.027 0.277-0.188 0.516-0.465 0.516h-1.672c-0.277 0-0.496-0.242-0.465-0.516zM12.57 11.25h-2.641c-0.277 0-0.496-0.242-0.465-0.516l0.289-2.813c0.023-0.238 0.227-0.422 0.465-0.422h2.059c0.238 0 0.441 0.18 0.465 0.422l0.289 2.813c0.035 0.273-0.184 0.516-0.461 0.516z"></path>
</svg>
