<svg xmlns="http://www.w3.org/2000/svg" width="20" height="20" viewBox="0 0 20 20">
<path d="M7.209 10.231c0.126 0.547-0.474 0.962-0.94 0.671l-1.591-0.994-1.987 3.18c-0.519 0.83 0.081 1.913 1.059 1.913h2.031c0.259 0 0.469 0.21 0.469 0.469v1.563c0 0.259-0.21 0.469-0.469 0.469h-2.027c-2.943 0-4.738-3.244-3.18-5.738l1.985-3.179-1.591-0.994c-0.472-0.295-0.35-1.014 0.191-1.139l4.306-0.994c0.336-0.078 0.672 0.132 0.75 0.468l0.994 4.306zM11.059 3.085l1.613 2.581-1.591 0.994c-0.471 0.294-0.352 1.014 0.191 1.139l4.306 0.994c0.339 0.078 0.672-0.134 0.75-0.468l0.994-4.306c0.125-0.541-0.468-0.966-0.94-0.671l-1.589 0.993-1.612-2.581c-1.466-2.345-4.891-2.35-6.36 0l-0.702 1.124c-0.137 0.22-0.070 0.509 0.149 0.646l1.325 0.828c0.22 0.137 0.509 0.070 0.646-0.149l0.702-1.123c0.497-0.795 1.64-0.769 2.119-0.001zM19.425 11.762l-1.075-1.721c-0.137-0.22-0.426-0.286-0.646-0.149l-1.323 0.827c-0.22 0.137-0.286 0.426-0.149 0.646l1.077 1.723c0.518 0.829-0.080 1.912-1.060 1.912h-3.749v-1.874c0-0.555-0.674-0.835-1.067-0.442l-3.125 3.124c-0.244 0.244-0.244 0.64 0 0.884l3.125 3.125c0.391 0.391 1.067 0.117 1.067-0.442v-1.875h3.745c2.94 0 4.74-3.242 3.18-5.737z"></path>
</svg>
