<svg xmlns="http://www.w3.org/2000/svg" width="20" height="20" viewBox="0 0 20 20">
<path d="M10.018 0.313c2.589 0.005 4.939 1.025 6.674 2.683l1.395-1.395c0.591-0.591 1.6-0.172 1.6 0.663v5.237c0 0.518-0.42 0.938-0.938 0.938h-5.237c-0.835 0-1.254-1.010-0.663-1.6l1.631-1.631c-1.206-1.129-2.766-1.754-4.423-1.768-3.609-0.031-6.652 2.89-6.62 6.619 0.030 3.538 2.898 6.506 6.562 6.506 1.607 0 3.125-0.573 4.321-1.623 0.185-0.163 0.465-0.153 0.639 0.022l1.549 1.549c0.19 0.19 0.181 0.501-0.019 0.681-1.718 1.552-3.994 2.496-6.491 2.496-5.35 0-9.687-4.337-9.688-9.687-0-5.344 4.361-9.697 9.705-9.688z"></path>
</svg>
