<svg xmlns="http://www.w3.org/2000/svg" width="15" height="20" viewBox="0 0 15 20">
<path d="M9.35 12.5c3.325 0 5.65-2.323 5.65-5.661s-2.325-5.589-5.65-5.589h-6.381c-0.259 0-0.469 0.21-0.469 0.469v8.072h-2.031c-0.259 0-0.469 0.21-0.469 0.469v1.772c0 0.259 0.21 0.469 0.469 0.469h2.031v1.25h-2.031c-0.259 0-0.469 0.21-0.469 0.469v1.563c0 0.259 0.21 0.469 0.469 0.469h2.031v2.031c0 0.259 0.21 0.469 0.469 0.469h2.287c0.259 0 0.469-0.21 0.469-0.469v-2.031h6.306c0.259 0 0.469-0.21 0.469-0.469v-1.563c0-0.259-0.21-0.469-0.469-0.469h-6.306v-1.25h3.625zM5.725 3.935h3.075c1.825 0 2.925 1.137 2.925 2.903 0 1.79-1.1 2.952-2.975 2.952h-3.025v-5.855z"></path>
</svg>
