<svg xmlns="http://www.w3.org/2000/svg" width="13" height="20" viewBox="0 0 13 20">
<path d="M12.031 3.75c0.259 0 0.469-0.21 0.469-0.469v-1.563c0-0.259-0.21-0.469-0.469-0.469h-11.563c-0.259 0-0.469 0.21-0.469 0.469v1.748c0 0.259 0.21 0.469 0.469 0.469h3.331c1.067 0 1.885 0.389 2.382 1.065h-5.713c-0.259 0-0.469 0.21-0.469 0.469v1.563c0 0.259 0.21 0.469 0.469 0.469h6.201c-0.243 1.41-1.288 2.29-2.92 2.29h-3.281c-0.259 0-0.469 0.21-0.469 0.469v2.071c0 0.131 0.055 0.256 0.151 0.344l6.447 5.951c0.083 0.077 0.195 0.124 0.318 0.124h3.225c0.427 0 0.631-0.524 0.318-0.813l-5.894-5.44c2.988-0.091 5.123-2.086 5.403-4.996h2.063c0.259 0 0.469-0.21 0.469-0.469v-1.563c0-0.259-0.21-0.469-0.469-0.469h-2.293c-0.136-0.451-0.323-0.869-0.557-1.25h2.849z"></path>
</svg>
