<svg xmlns="http://www.w3.org/2000/svg" width="20" height="20" viewBox="0 0 20 20">
<path d="M11.147 8.104c0 0.727-0.384 1.111-1.111 1.111h-1.167v-2.193h0.913c1.12 0 1.364 0.343 1.364 1.082zM19.688 10c0 5.35-4.337 9.688-9.688 9.688s-9.688-4.337-9.688-9.688 4.337-9.688 9.688-9.688 9.688 4.337 9.688 9.688zM14.196 14.079c-1.825-3.313-1.691-3.072-1.746-3.163 0.915-0.593 1.482-1.679 1.482-2.91 0-2.119-1.23-3.486-4.121-3.486h-2.76c-0.518 0-0.938 0.42-0.938 0.937v9.074c0 0.518 0.42 0.938 0.938 0.938h0.882c0.518 0 0.937-0.42 0.937-0.938v-2.799h0.998l1.724 3.24c0.161 0.298 0.471 0.497 0.828 0.497h0.956c0.713-0 1.165-0.765 0.821-1.39z"></path>
</svg>
