<svg xmlns="http://www.w3.org/2000/svg" width="20" height="20" viewBox="0 0 20 20">
<path d="M19.544 0h-1.852c-0.268 0-0.481 0.224-0.468 0.491l0.155 3.233c-1.777-2.087-4.423-3.411-7.379-3.411-5.338 0-9.691 4.356-9.688 9.695 0.004 5.347 4.34 9.68 9.687 9.68 2.497 0 4.774-0.945 6.491-2.496 0.2-0.18 0.209-0.491 0.019-0.681l-1.327-1.327c-0.174-0.174-0.455-0.184-0.64-0.021-1.211 1.067-2.801 1.713-4.543 1.713-3.799 0-6.875-3.075-6.875-6.875s3.075-6.875 6.875-6.875c2.379 0 4.473 1.205 5.707 3.039l-3.966-0.19c-0.267-0.013-0.491 0.201-0.491 0.468v1.852c0 0.259 0.21 0.469 0.469 0.469h7.826c0.259 0 0.469-0.21 0.469-0.469v-7.825c0-0.259-0.21-0.469-0.469-0.469z"></path>
</svg>
