<svg xmlns="http://www.w3.org/2000/svg" width="23" height="20" viewBox="0 0 23 20">
<path d="M5.325 7.415l6.875-5.937c0.602-0.52 1.55-0.098 1.55 0.71v3.233c5.046 0.4 8.75 2.040 8.75 7.17 0 2.4-1.546 4.778-3.255 6.021-0.533 0.388-1.293-0.099-1.097-0.728 1.504-4.811-0.153-6.62-4.398-7.11v3.288c0 0.809-0.949 1.229-1.55 0.71l-6.875-5.937c-0.432-0.373-0.433-1.045 0-1.419zM0.325 8.835l6.875 5.937c0.601 0.519 1.55 0.099 1.55-0.71v-0.618l-4.242-3.663c-0.465-0.403-0.758-0.995-0.758-1.655 0-0 0-0.001 0-0.001v0c0-0 0-0.001 0-0.001 0-0.66 0.292-1.252 0.755-1.652l0.003-0.002 4.242-3.664v-0.618c0-0.807-0.948-1.229-1.55-0.71l-6.875 5.937c-0.433 0.374-0.432 1.046 0 1.419z"></path>
</svg>
