<svg xmlns="http://www.w3.org/2000/svg" width="20" height="20" viewBox="0 0 20 20">
<path d="M19.725 14.025c0.366 0.366 0.366 0.96 0 1.326l-3.125 3.124c-0.586 0.586-1.6 0.175-1.6-0.663v-1.562h-2.296c-0.135-0-0.257-0.057-0.342-0.149l-0-0-2.756-2.953 2.083-2.232 2.062 2.209h1.25v-1.562c0-0.837 1.013-1.25 1.6-0.663l3.125 3.124zM0.469 6.875h3.281l2.062 2.209 2.083-2.232-2.756-2.953c-0.086-0.092-0.208-0.149-0.343-0.149-0 0-0 0-0 0h-4.328c-0.259 0-0.469 0.21-0.469 0.469v2.188c0 0.259 0.21 0.469 0.469 0.469zM15 6.875v1.562c0 0.838 1.014 1.249 1.6 0.663l3.125-3.124c0.366-0.366 0.366-0.96 0-1.326l-3.125-3.124c-0.587-0.587-1.6-0.174-1.6 0.663v1.562h-2.296c-0.135 0-0.257 0.057-0.342 0.149l-0 0-8.611 9.226h-3.281c-0.259 0-0.469 0.21-0.469 0.469v2.188c0 0.259 0.21 0.469 0.469 0.469h4.328c0.13 0 0.254-0.054 0.343-0.149l8.611-9.226h1.25z"></path>
</svg>
