<svg xmlns="http://www.w3.org/2000/svg" width="18" height="20" viewBox="0 0 18 20">
<path d="M3.572 18.906c-0.012-0.626 0.512-1.138 1.138-1.138h2.433v-0.223h-4.917c-0.626 0-1.15-0.512-1.138-1.138 0.012-0.606 0.507-1.094 1.116-1.094h4.939v-0.223h-6.005c-0.626 0-1.15-0.512-1.138-1.138 0.012-0.606 0.507-1.094 1.116-1.094h6.027v-0.223h-4.889c-0.626 0-1.15-0.512-1.138-1.138 0.012-0.606 0.507-1.094 1.116-1.094h6.585l-1.214-0.883c-0.499-0.363-0.609-1.061-0.246-1.559s1.061-0.609 1.559-0.246l4.819 3.504c0.336 0.246 0.552 0.64 0.552 1.083v0 5.513c0 0.621-0.428 1.161-1.033 1.304l-3.143 0.74c-0.369 0.090-0.792 0.142-1.227 0.142h-4.195c-0.609-0-1.104-0.488-1.116-1.094zM6.433 10.089h1.423l-0.437-0.318c-0.726-0.528-0.793-1.597-0.124-2.208l-0.508-0.652c-0.384-0.494-1.111-0.593-1.597-0.199-0.471 0.382-0.552 1.072-0.178 1.553l1.421 1.825zM17.499 10.007l-0.195-5.955c-0.020-0.616-0.536-1.099-1.152-1.079s-1.099 0.536-1.079 1.152l0.049 1.501-4.045-5.195c-0.374-0.481-1.063-0.571-1.549-0.208-0.501 0.375-0.583 1.103-0.199 1.597l3.003 3.857-0.176 0.137-3.703-4.755c-0.374-0.481-1.063-0.571-1.549-0.208-0.501 0.375-0.583 1.103-0.199 1.597l3.689 4.738-0.176 0.137-3.034-3.897c-0.374-0.481-1.063-0.571-1.549-0.208-0.501 0.375-0.583 1.103-0.199 1.597l2.033 2.611c0.488-0.323 1.135-0.324 1.629 0.035l4.819 3.504c0.426 0.31 0.68 0.809 0.68 1.336v0.664l2.385-1.857c0.316-0.247 0.516-0.629 0.516-1.057 0-0.015-0-0.031-0.001-0.046l0 0.002z"></path>
</svg>
