<svg xmlns="http://www.w3.org/2000/svg" width="20" height="20" viewBox="0 0 20 20">
<path d="M18.75 6.25h-17.5c-0.69 0-1.25-0.56-1.25-1.25v-2.5c0-0.69 0.56-1.25 1.25-1.25h17.5c0.69 0 1.25 0.56 1.25 1.25v2.5c0 0.69-0.56 1.25-1.25 1.25zM16.875 2.813c-0.518 0-0.938 0.42-0.938 0.938s0.42 0.938 0.938 0.938 0.938-0.42 0.938-0.938-0.42-0.938-0.938-0.938zM14.375 2.813c-0.518 0-0.938 0.42-0.938 0.938s0.42 0.938 0.938 0.938 0.938-0.42 0.938-0.938-0.42-0.938-0.938-0.938zM18.75 12.5h-17.5c-0.69 0-1.25-0.56-1.25-1.25v-2.5c0-0.69 0.56-1.25 1.25-1.25h17.5c0.69 0 1.25 0.56 1.25 1.25v2.5c0 0.69-0.56 1.25-1.25 1.25zM16.875 9.063c-0.518 0-0.938 0.42-0.938 0.938s0.42 0.938 0.938 0.938 0.938-0.42 0.938-0.938-0.42-0.938-0.938-0.938zM14.375 9.063c-0.518 0-0.938 0.42-0.938 0.938s0.42 0.938 0.938 0.938 0.938-0.42 0.938-0.938-0.42-0.938-0.938-0.938zM18.75 18.75h-17.5c-0.69 0-1.25-0.56-1.25-1.25v-2.5c0-0.69 0.56-1.25 1.25-1.25h17.5c0.69 0 1.25 0.56 1.25 1.25v2.5c0 0.69-0.56 1.25-1.25 1.25zM16.875 15.313c-0.518 0-0.938 0.42-0.938 0.938s0.42 0.938 0.938 0.938 0.938-0.42 0.938-0.938-0.42-0.938-0.938-0.938zM14.375 15.313c-0.518 0-0.938 0.42-0.938 0.938s0.42 0.938 0.938 0.938 0.938-0.42 0.938-0.938-0.42-0.938-0.938-0.938z"></path>
</svg>
