<svg xmlns="http://www.w3.org/2000/svg" width="20" height="20" viewBox="0 0 20 20">
<path d="M19.688 10c0 5.35-4.337 9.688-9.688 9.688s-9.688-4.337-9.688-9.688 4.337-9.688 9.688-9.688 9.688 4.337 9.688 9.688zM14.901 12.943c0.448-0.694-0.6-1.375-1.050-0.679-2.087 3.228-5.614 3.23-7.702 0-0.449-0.695-1.499-0.016-1.050 0.679 2.579 3.989 7.219 3.995 9.801 0zM4.219 7.5c0 1.465 1.192 2.656 2.656 2.656s2.656-1.192 2.656-2.656-1.192-2.656-2.656-2.656-2.656 1.192-2.656 2.656zM10.488 7.5c0 1.454 1.183 2.637 2.637 2.637s2.637-1.183 2.637-2.637-1.183-2.637-2.637-2.637-2.637 1.183-2.637 2.637zM13.125 5.625c-0.001 0-0.002 0-0.003 0-0.322 0-0.626 0.082-0.89 0.225l0.010-0.005h0.001c0.426 0 0.772 0.346 0.772 0.772s-0.346 0.772-0.772 0.772-0.772-0.346-0.772-0.772v-0.001c-0.139 0.255-0.221 0.558-0.221 0.88 0 0.001 0 0.002 0 0.003v-0c0 1.036 0.839 1.875 1.875 1.875s1.875-0.839 1.875-1.875-0.839-1.875-1.875-1.875zM6.875 5.625c-0.001 0-0.002 0-0.003 0-0.322 0-0.626 0.082-0.89 0.225l0.010-0.005h0.001c0.426 0 0.772 0.346 0.772 0.772s-0.346 0.772-0.772 0.772-0.772-0.346-0.772-0.772v-0.001c-0.139 0.255-0.221 0.558-0.221 0.88 0 0.001 0 0.002 0 0.003v-0c0 1.036 0.839 1.875 1.875 1.875s1.875-0.839 1.875-1.875-0.839-1.875-1.875-1.875z"></path>
</svg>
