<svg xmlns="http://www.w3.org/2000/svg" width="25" height="20" viewBox="0 0 25 20">
<path d="M19.399 14.556l2.735-2.735c0.66-0.66 0.388-1.788-0.501-2.074l-1.633-0.525v-5.473c0-0.69-0.56-1.25-1.25-1.25h-2.5v-1.562c0-0.518-0.42-0.938-0.938-0.938h-5.625c-0.518 0-0.938 0.42-0.938 0.938v1.562h-2.5c-0.69 0-1.25 0.56-1.25 1.25v5.473l-1.633 0.525c-0.889 0.286-1.162 1.413-0.501 2.074l2.735 2.735c-0.686 1.705-2.258 2.944-4.663 2.944-0.518 0-0.938 0.42-0.938 0.938v0.625c0 0.518 0.42 0.938 0.938 0.938 2.384 0 4.199-0.805 5.596-2.32 0.563 1.36 1.905 2.32 3.466 2.32h5c1.562 0 2.903-0.96 3.466-2.32 1.397 1.515 3.212 2.32 5.596 2.32 0.518 0 0.938-0.42 0.938-0.938v-0.625c0-0.518-0.42-0.938-0.938-0.938-2.376 0-3.966-1.211-4.663-2.944zM7.5 5h10v3.419l-4.617-1.484c-0.114-0.038-0.246-0.060-0.382-0.060s-0.268 0.022-0.391 0.062l0.009-0.003-4.617 1.484v-3.419z"></path>
</svg>
