<svg xmlns="http://www.w3.org/2000/svg" width="20" height="20" viewBox="0 0 20 20">
<path d="M17.224 0.491l0.155 3.233c-1.777-2.087-4.423-3.412-7.379-3.412-4.734 0-8.674 3.395-9.52 7.884-0.054 0.288 0.168 0.554 0.461 0.554h1.917c0.218 0 0.405-0.15 0.456-0.362 0.724-3.021 3.44-5.263 6.685-5.263 2.379 0 4.473 1.205 5.707 3.039l-3.966-0.19c-0.267-0.013-0.491 0.201-0.491 0.468v1.852c0 0.259 0.21 0.469 0.469 0.469h7.826c0.259 0 0.469-0.21 0.469-0.469v-7.826c0-0.259-0.21-0.469-0.469-0.469h-1.852c-0.268 0-0.481 0.224-0.468 0.491zM10 16.875c-2.379 0-4.473-1.205-5.707-3.039l3.979 0.19c0.267 0.013 0.491-0.201 0.491-0.468v-1.852c0-0.259-0.21-0.469-0.469-0.469h-7.825c-0.259 0-0.469 0.21-0.469 0.469v7.825c0 0.259 0.21 0.469 0.469 0.469h1.851c0.268 0 0.482-0.224 0.468-0.492l-0.161-3.226c1.777 2.084 4.42 3.405 7.373 3.405 4.734 0 8.674-3.395 9.52-7.884 0.054-0.288-0.168-0.554-0.461-0.554h-1.917c-0.218 0-0.405 0.15-0.456 0.362-0.724 3.021-3.44 5.263-6.685 5.263z"></path>
</svg>
