<svg xmlns="http://www.w3.org/2000/svg" width="25" height="20" viewBox="0 0 25 20">
<path d="M24.063 12.5h-1.875v-1.875c0-0.862-0.701-1.563-1.563-1.563h-7.188v-1.563h1.875c0.518 0 0.938-0.42 0.938-0.938v-5.625c0-0.518-0.42-0.938-0.938-0.938h-5.625c-0.518 0-0.938 0.42-0.938 0.938v5.625c0 0.518 0.42 0.938 0.938 0.938h1.875v1.563h-7.188c-0.862 0-1.563 0.701-1.563 1.563v1.875h-1.875c-0.518 0-0.938 0.42-0.938 0.938v5.625c0 0.518 0.42 0.938 0.938 0.938h5.625c0.518 0 0.938-0.42 0.938-0.938v-5.625c0-0.518-0.42-0.938-0.938-0.938h-1.875v-1.563h6.875v1.563h-1.875c-0.518 0-0.938 0.42-0.938 0.938v5.625c0 0.518 0.42 0.938 0.938 0.938h5.625c0.518 0 0.938-0.42 0.938-0.938v-5.625c0-0.518-0.42-0.938-0.938-0.938h-1.875v-1.563h6.875v1.563h-1.875c-0.518 0-0.938 0.42-0.938 0.938v5.625c0 0.518 0.42 0.938 0.938 0.938h5.625c0.518 0 0.938-0.42 0.938-0.938v-5.625c0-0.518-0.42-0.938-0.938-0.938z"></path>
</svg>
