<svg xmlns="http://www.w3.org/2000/svg" width="23" height="20" viewBox="0 0 23 20">
<path d="M22.5 3.125v1.563c0 0.258-0.211 0.469-0.469 0.469h-15.781v0.313c0 0.52-0.418 0.938-0.938 0.938h-0.625c-0.52 0-0.938-0.418-0.938-0.938v-0.313h-3.281c-0.258 0-0.469-0.211-0.469-0.469v-1.563c0-0.258 0.211-0.469 0.469-0.469h3.281v-0.313c0-0.52 0.418-0.938 0.938-0.938h0.625c0.52 0 0.938 0.418 0.938 0.938v0.313h15.781c0.258 0 0.469 0.211 0.469 0.469zM22.031 8.906h-3.281v-0.313c0-0.52-0.418-0.938-0.938-0.938h-0.625c-0.52 0-0.938 0.418-0.938 0.938v0.313h-15.781c-0.258 0-0.469 0.211-0.469 0.469v1.563c0 0.258 0.211 0.469 0.469 0.469h15.781v0.313c0 0.52 0.418 0.938 0.938 0.938h0.625c0.52 0 0.938-0.418 0.938-0.938v-0.313h3.281c0.258 0 0.469-0.211 0.469-0.469v-1.563c0-0.258-0.211-0.469-0.469-0.469zM22.031 15.156h-10.781v-0.313c0-0.52-0.418-0.938-0.938-0.938h-0.625c-0.52 0-0.938 0.418-0.938 0.938v0.313h-8.281c-0.258 0-0.469 0.211-0.469 0.469v1.563c0 0.258 0.211 0.469 0.469 0.469h8.281v0.313c0 0.52 0.418 0.938 0.938 0.938h0.625c0.52 0 0.938-0.418 0.938-0.938v-0.313h10.781c0.258 0 0.469-0.211 0.469-0.469v-1.563c0-0.258-0.211-0.469-0.469-0.469z"></path>
</svg>
