<svg xmlns="http://www.w3.org/2000/svg" width="20" height="20" viewBox="0 0 20 20">
<path d="M15.221 5.297l-6.174 6.174c-0.366 0.366-0.96 0.366-1.326 0l-0.442-0.442c-0.366-0.366-0.366-0.96 0-1.326l0.004-0.004c-1.329-1.571-1.373-3.865-0.132-5.484-0.468-0.295-1.021-0.465-1.613-0.465-1.675 0-3.037 1.362-3.037 3.038v11.963h-2.5v-11.963c0-3.054 2.484-5.537 5.537-5.537 1.443 0 2.758 0.555 3.745 1.462 1.402-0.45 2.988-0.176 4.167 0.821l0.004-0.004c0.366-0.366 0.96-0.366 1.326 0l0.442 0.442c0.366 0.366 0.366 0.96 0 1.326zM15 8.125c0 0.345-0.28 0.625-0.625 0.625s-0.625-0.28-0.625-0.625 0.28-0.625 0.625-0.625 0.625 0.28 0.625 0.625zM16.25 8.125c0-0.345 0.28-0.625 0.625-0.625s0.625 0.28 0.625 0.625-0.28 0.625-0.625 0.625-0.625-0.28-0.625-0.625zM20 8.125c0 0.345-0.28 0.625-0.625 0.625s-0.625-0.28-0.625-0.625 0.28-0.625 0.625-0.625 0.625 0.28 0.625 0.625zM13.75 9.375c0 0.345-0.28 0.625-0.625 0.625s-0.625-0.28-0.625-0.625 0.28-0.625 0.625-0.625 0.625 0.28 0.625 0.625zM15.625 8.75c0.345 0 0.625 0.28 0.625 0.625s-0.28 0.625-0.625 0.625-0.625-0.28-0.625-0.625 0.28-0.625 0.625-0.625zM18.75 9.375c0 0.345-0.28 0.625-0.625 0.625s-0.625-0.28-0.625-0.625 0.28-0.625 0.625-0.625 0.625 0.28 0.625 0.625zM12.5 10.625c0 0.345-0.28 0.625-0.625 0.625s-0.625-0.28-0.625-0.625 0.28-0.625 0.625-0.625 0.625 0.28 0.625 0.625zM13.75 10.625c0-0.345 0.28-0.625 0.625-0.625s0.625 0.28 0.625 0.625-0.28 0.625-0.625 0.625-0.625-0.28-0.625-0.625zM17.5 10.625c0 0.345-0.28 0.625-0.625 0.625s-0.625-0.28-0.625-0.625 0.28-0.625 0.625-0.625 0.625 0.28 0.625 0.625zM12.5 11.875c0-0.345 0.28-0.625 0.625-0.625s0.625 0.28 0.625 0.625-0.28 0.625-0.625 0.625-0.625-0.28-0.625-0.625zM16.25 11.875c0 0.345-0.28 0.625-0.625 0.625s-0.625-0.28-0.625-0.625 0.28-0.625 0.625-0.625 0.625 0.28 0.625 0.625zM12.5 13.125c0 0.345-0.28 0.625-0.625 0.625s-0.625-0.28-0.625-0.625 0.28-0.625 0.625-0.625 0.625 0.28 0.625 0.625zM15 13.125c0 0.345-0.28 0.625-0.625 0.625s-0.625-0.28-0.625-0.625 0.28-0.625 0.625-0.625 0.625 0.28 0.625 0.625zM13.75 14.375c0 0.345-0.28 0.625-0.625 0.625s-0.625-0.28-0.625-0.625 0.28-0.625 0.625-0.625 0.625 0.28 0.625 0.625zM12.5 15.625c0 0.345-0.28 0.625-0.625 0.625s-0.625-0.28-0.625-0.625 0.28-0.625 0.625-0.625 0.625 0.28 0.625 0.625z"></path>
</svg>
