<svg xmlns="http://www.w3.org/2000/svg" width="20" height="20" viewBox="0 0 20 20">
<path d="M14.481 5.206c-1.221-1.143-2.806-1.77-4.487-1.769-3.026 0.003-5.638 2.077-6.359 4.955-0.052 0.209-0.239 0.357-0.455 0.357h-2.238c-0.293 0-0.515-0.266-0.461-0.554 0.845-4.488 4.786-7.884 9.52-7.884 2.596 0 4.953 1.021 6.692 2.683l1.395-1.395c0.591-0.591 1.6-0.172 1.6 0.663v5.237c0 0.518-0.42 0.938-0.938 0.938h-5.237c-0.835 0-1.254-1.010-0.663-1.6l1.631-1.631zM1.25 11.563h5.237c0.835 0 1.254 1.010 0.663 1.6l-1.631 1.631c1.221 1.143 2.806 1.77 4.487 1.769 3.024-0.003 5.637-2.076 6.359-4.955 0.052-0.209 0.239-0.357 0.455-0.357h2.238c0.293 0 0.515 0.266 0.461 0.554-0.845 4.488-4.786 7.884-9.52 7.884-2.596 0-4.953-1.021-6.692-2.683l-1.395 1.395c-0.591 0.591-1.6 0.172-1.6-0.663v-5.237c0-0.518 0.42-0.938 0.938-0.938z"></path>
</svg>
