<svg xmlns="http://www.w3.org/2000/svg" width="18" height="20" viewBox="0 0 18 20">
<path d="M16.951 5.076l-3.277-3.277c-0.339-0.339-0.808-0.549-1.326-0.549h-10.473c-1.036 0-1.875 0.839-1.875 1.875v13.75c0 1.036 0.839 1.875 1.875 1.875h13.75c1.036 0 1.875-0.839 1.875-1.875v-10.473c0-0.518-0.21-0.987-0.549-1.326v0zM8.75 16.25c-1.381 0-2.5-1.119-2.5-2.5s1.119-2.5 2.5-2.5 2.5 1.119 2.5 2.5c0 1.381-1.119 2.5-2.5 2.5zM12.5 4.355v3.927c0 0.259-0.21 0.469-0.469 0.469h-9.063c-0.259 0-0.469-0.21-0.469-0.469v-4.063c0-0.259 0.21-0.469 0.469-0.469h8.927c0.124 0 0.244 0.049 0.331 0.137l0.136 0.136c0.085 0.085 0.137 0.202 0.137 0.331 0 0 0 0 0 0v0z"></path>
</svg>
