<svg xmlns="http://www.w3.org/2000/svg" width="18" height="20" viewBox="0 0 18 20">
<path d="M12.063 4.445l-0.76-0.812c-0.177-0.189-0.167-0.485 0.022-0.662l1.697-1.591c0.084-0.079 0.196-0.127 0.321-0.127 0 0 0 0 0 0h1.234c0.259 0 0.469 0.21 0.469 0.469v4.964h1.002c0.259 0 0.469 0.21 0.469 0.469v1.13c0 0.259-0.21 0.469-0.469 0.469h-4.265c-0.259 0-0.469-0.21-0.469-0.469v-1.13c0-0.259 0.21-0.469 0.469-0.469h0.993v-2.263c-0.283 0.257-0.555 0.192-0.713 0.023zM10.869 13.764c0-1.276 0.932-2.631 2.66-2.631 1.494 0 3.103 1.127 3.103 3.603 0 2.003-1.259 4.132-3.593 4.132-0.697 0-1.193-0.139-1.506-0.265-0.226-0.091-0.343-0.342-0.27-0.574l0.361-1.152c0.079-0.254 0.353-0.39 0.604-0.301 0.509 0.18 1.089 0.206 1.488-0.162-1.513 0.198-2.847-0.991-2.847-2.649zM14.473 14.519c0-0.871-0.598-1.426-1.009-1.426-0.338 0-0.514 0.311-0.514 0.618 0 0.221 0.071 0.944 0.983 0.944 0.39 0 0.523-0.084 0.537-0.107 0.001-0.002 0.003-0.011 0.003-0.030zM6.874 14.375h-1.874v-12.5c0-0.345-0.28-0.625-0.625-0.625h-1.25c-0.345 0-0.625 0.28-0.625 0.625v12.5h-1.874c-0.555 0-0.835 0.674-0.442 1.067l3.124 3.125c0.244 0.244 0.64 0.244 0.884 0l3.124-3.125c0.393-0.393 0.114-1.067-0.442-1.067z"></path>
</svg>
