<svg xmlns="http://www.w3.org/2000/svg" width="18" height="20" viewBox="0 0 18 20">
<path d="M13.75 12.5c-0.883 0-1.695 0.305-2.336 0.816l-4.003-2.502c0.057-0.245 0.089-0.526 0.089-0.814s-0.032-0.569-0.094-0.839l0.005 0.025 4.003-2.502c0.641 0.511 1.452 0.816 2.336 0.816 2.071 0 3.75-1.679 3.75-3.75s-1.679-3.75-3.75-3.75-3.75 1.679-3.75 3.75c0 0.28 0.031 0.552 0.089 0.814l-4.003 2.502c-0.641-0.511-1.452-0.816-2.336-0.816-2.071 0-3.75 1.679-3.75 3.75s1.679 3.75 3.75 3.75c0.883 0 1.695-0.305 2.336-0.816l4.003 2.502c-0.057 0.244-0.089 0.525-0.089 0.813 0 0 0 0.001 0 0.001v-0c0 2.071 1.679 3.75 3.75 3.75s3.75-1.679 3.75-3.75-1.679-3.75-3.75-3.75z"></path>
</svg>
