<svg xmlns="http://www.w3.org/2000/svg" width="20" height="20" viewBox="0 0 20 20">
<path d="M19.375 11.25h-18.75c-0.345 0-0.625-0.28-0.625-0.625v-1.25c0-0.345 0.28-0.625 0.625-0.625h18.75c0.345 0 0.625 0.28 0.625 0.625v1.25c0 0.345-0.28 0.625-0.625 0.625zM10.99 11.875c1.065 0.505 1.817 1.12 1.817 2.197 0 1.293-1.132 2.097-2.954 2.097-1.263 0-3.003-0.472-3.003-1.729v-0.064c0-0.345-0.28-0.625-0.625-0.625h-1.782c-0.345 0-0.625 0.28-0.625 0.625v0.75c0 2.611 3.036 3.977 6.035 3.977 3.46 0 6.329-1.775 6.329-5.251 0-0.774-0.141-1.423-0.396-1.977h-4.796zM9.781 8.125c-1.266-0.528-2.22-1.131-2.22-2.331 0-1.325 1.207-1.852 2.538-1.852 1.666 0 2.538 0.648 2.538 1.288v0.082c0 0.345 0.28 0.625 0.625 0.625h1.782c0.345 0 0.625-0.28 0.625-0.625v-1.184c0-2.048-2.802-3.12-5.569-3.12-3.328 0-5.888 1.6-5.888 4.908 0 0.887 0.182 1.608 0.499 2.209h5.071z"></path>
</svg>
