<svg xmlns="http://www.w3.org/2000/svg" width="18" height="20" viewBox="0 0 18 20">
<path d="M17.5 3.125v13.75c0 1.036-0.839 1.875-1.875 1.875h-13.75c-1.036 0-1.875-0.839-1.875-1.875v-13.75c0-1.036 0.839-1.875 1.875-1.875h13.75c1.036 0 1.875 0.839 1.875 1.875zM11.875 11.563c-0.569 0-1.087 0.217-1.476 0.573l-2.655-1.593c0.043-0.163 0.068-0.35 0.068-0.543s-0.025-0.38-0.071-0.558l0.003 0.015 2.655-1.593c0.389 0.356 0.907 0.573 1.476 0.573 1.208 0 2.188-0.979 2.188-2.188s-0.979-2.188-2.188-2.188-2.188 0.979-2.188 2.188c0 0.187 0.024 0.369 0.068 0.543l-2.655 1.593c-0.389-0.356-0.907-0.573-1.476-0.573-1.208 0-2.188 0.979-2.188 2.188s0.979 2.188 2.188 2.188c0.569 0 1.087-0.217 1.476-0.573l2.655 1.593c-0.043 0.163-0.068 0.349-0.068 0.541 0 0 0 0.001 0 0.001v-0c0 1.208 0.979 2.188 2.188 2.188s2.188-0.979 2.188-2.188c-0-1.208-0.979-2.188-2.188-2.188z"></path>
</svg>
