<svg xmlns="http://www.w3.org/2000/svg" width="20" height="20" viewBox="0 0 20 20">
<path d="M20 6.875c0-1.393-1.139-2.52-2.537-2.5-1.336 0.019-2.433 1.108-2.463 2.444-0.021 0.949 0.487 1.78 1.249 2.221v4.398c0 2.24-1.963 4.063-4.375 4.063-2.345 0-4.265-1.723-4.37-3.877 2.847-0.583 4.995-3.107 4.995-6.123v-6.071c0-0.447-0.315-0.832-0.754-0.919l-2.457-0.491c-0.508-0.102-1.002 0.228-1.103 0.735l-0.123 0.613c-0.102 0.508 0.228 1.002 0.735 1.103l1.201 0.24v4.742c0 2.065-1.649 3.778-3.713 3.798-2.085 0.020-3.787-1.67-3.787-3.75v-4.79l1.201-0.24c0.508-0.102 0.837-0.595 0.735-1.103l-0.123-0.613c-0.102-0.508-0.595-0.837-1.103-0.735l-2.457 0.491c-0.438 0.088-0.754 0.472-0.754 0.919v6.071c0 3.019 2.152 5.545 5.003 6.125 0.104 3.532 3.147 6.375 6.872 6.375 3.791 0 6.875-2.944 6.875-6.563v-4.398c0.747-0.432 1.25-1.24 1.25-2.165zM17.5 6.25c0.345 0 0.625 0.28 0.625 0.625s-0.28 0.625-0.625 0.625-0.625-0.28-0.625-0.625 0.28-0.625 0.625-0.625z"></path>
</svg>
