<svg xmlns="http://www.w3.org/2000/svg" width="18" height="20" viewBox="0 0 18 20">
<path d="M13.75 6.25v-1.25c0-2.757-2.243-5-5-5s-5 2.243-5 5v1.25h-3.75v10.625c0 1.726 1.399 3.125 3.125 3.125h11.25c1.726 0 3.125-1.399 3.125-3.125v-10.625h-3.75zM6.25 5c0-1.379 1.121-2.5 2.5-2.5s2.5 1.121 2.5 2.5v1.25h-5v-1.25zM12.5 9.688c-0.518 0-0.938-0.42-0.938-0.938s0.42-0.938 0.938-0.938 0.938 0.42 0.938 0.938-0.42 0.938-0.938 0.938zM5 9.688c-0.518 0-0.938-0.42-0.938-0.938s0.42-0.938 0.938-0.938 0.938 0.42 0.938 0.938-0.42 0.938-0.938 0.938z"></path>
</svg>
