<svg xmlns="http://www.w3.org/2000/svg" width="20" height="20" viewBox="0 0 20 20">
<path d="M10.736 0.494l0.997 2.437c0.165 0.402 0.651 0.561 1.021 0.332l2.239-1.386c0.605-0.375 1.36 0.174 1.19 0.865l-0.626 2.558c-0.103 0.422 0.197 0.836 0.631 0.868l2.626 0.195c0.71 0.053 0.998 0.94 0.455 1.399l-2.010 1.701c-0.332 0.281-0.332 0.793 0 1.073l2.010 1.701c0.543 0.46 0.255 1.347-0.455 1.399l-2.626 0.195c-0.434 0.032-0.734 0.446-0.631 0.868l0.626 2.558c0.169 0.691-0.585 1.239-1.19 0.865l-2.239-1.386c-0.37-0.229-0.856-0.071-1.021 0.332l-0.997 2.437c-0.269 0.659-1.202 0.659-1.471 0l-0.997-2.437c-0.165-0.402-0.651-0.561-1.021-0.332l-2.239 1.386c-0.605 0.375-1.36-0.174-1.19-0.865l0.626-2.558c0.103-0.422-0.197-0.836-0.631-0.868l-2.626-0.195c-0.71-0.053-0.998-0.94-0.455-1.399l2.010-1.701c0.332-0.281 0.332-0.793 0-1.073l-2.010-1.701c-0.543-0.46-0.255-1.347 0.455-1.399l2.626-0.195c0.434-0.032 0.734-0.446 0.631-0.868l-0.626-2.558c-0.169-0.691 0.585-1.239 1.19-0.865l2.239 1.386c0.37 0.229 0.856 0.071 1.021-0.332l0.997-2.437c0.269-0.659 1.202-0.659 1.471 0zM15.313 10c0-2.929-2.383-5.313-5.313-5.313s-5.313 2.383-5.313 5.313 2.383 5.313 5.313 5.313c2.929 0 5.313-2.383 5.313-5.313zM14.063 10c0 2.24-1.822 4.063-4.063 4.063s-4.063-1.822-4.063-4.063 1.822-4.063 4.063-4.063 4.063 1.822 4.063 4.063z"></path>
</svg>
