<svg xmlns="http://www.w3.org/2000/svg" width="20" height="20" viewBox="0 0 20 20">
<path d="M19.414 10.664l-6.563 6.563c-0.586 0.586-1.602 0.176-1.602-0.664v-3.75h-5.313c-0.52 0-0.938-0.418-0.938-0.938v-3.75c0-0.52 0.418-0.938 0.938-0.938h5.313v-3.75c0-0.836 1.012-1.25 1.602-0.664l6.563 6.563c0.363 0.367 0.363 0.961 0 1.328zM7.5 17.031v-1.563c0-0.258-0.211-0.469-0.469-0.469h-3.281c-0.691 0-1.25-0.559-1.25-1.25v-7.5c0-0.691 0.559-1.25 1.25-1.25h3.281c0.258 0 0.469-0.211 0.469-0.469v-1.563c0-0.258-0.211-0.469-0.469-0.469h-3.281c-2.070 0-3.75 1.68-3.75 3.75v7.5c0 2.070 1.68 3.75 3.75 3.75h3.281c0.258 0 0.469-0.211 0.469-0.469z"></path>
</svg>
