<svg xmlns="http://www.w3.org/2000/svg" width="23" height="20" viewBox="0 0 23 20">
<path d="M20.63 11.77l1.847-8.125c0.133-0.587-0.313-1.145-0.914-1.145h-15.343l-0.358-1.75c-0.089-0.436-0.473-0.75-0.918-0.75h-4.005c-0.518 0-0.938 0.42-0.938 0.938v0.625c0 0.518 0.42 0.938 0.938 0.938h2.73l2.744 13.415c-0.656 0.378-1.099 1.085-1.099 1.897 0 1.208 0.979 2.188 2.188 2.188s2.188-0.979 2.188-2.188c0-0.612-0.252-1.165-0.657-1.563h8.189c-0.405 0.397-0.657 0.95-0.657 1.563 0 1.208 0.979 2.188 2.188 2.188s2.188-0.979 2.188-2.188c0-0.866-0.503-1.615-1.234-1.969l0.216-0.948c0.133-0.587-0.313-1.145-0.914-1.145h-10.485l-0.256-1.25h11.451c0.438 0 0.817-0.303 0.914-0.73z"></path>
</svg>
