<svg xmlns="http://www.w3.org/2000/svg" width="20" height="20" viewBox="0 0 20 20">
<path d="M11.875 1.875c0 1.036-0.839 1.875-1.875 1.875s-1.875-0.839-1.875-1.875 0.839-1.875 1.875-1.875 1.875 0.839 1.875 1.875zM10 16.25c-1.036 0-1.875 0.839-1.875 1.875s0.839 1.875 1.875 1.875 1.875-0.839 1.875-1.875-0.839-1.875-1.875-1.875zM18.125 8.125c-1.036 0-1.875 0.839-1.875 1.875s0.839 1.875 1.875 1.875 1.875-0.839 1.875-1.875-0.839-1.875-1.875-1.875zM3.75 10c0-1.036-0.839-1.875-1.875-1.875s-1.875 0.839-1.875 1.875 0.839 1.875 1.875 1.875 1.875-0.839 1.875-1.875zM4.255 13.87c-1.036 0-1.875 0.839-1.875 1.875s0.839 1.875 1.875 1.875 1.875-0.839 1.875-1.875c0-1.036-0.839-1.875-1.875-1.875zM15.745 13.87c-1.036 0-1.875 0.839-1.875 1.875s0.839 1.875 1.875 1.875 1.875-0.839 1.875-1.875c0-1.036-0.839-1.875-1.875-1.875zM4.255 2.38c-1.036 0-1.875 0.839-1.875 1.875s0.839 1.875 1.875 1.875 1.875-0.839 1.875-1.875-0.839-1.875-1.875-1.875z"></path>
</svg>
