<svg xmlns="http://www.w3.org/2000/svg" width="23" height="20" viewBox="0 0 23 20">
<path d="M22.206 6.932l-5.625 5.312c-0.593 0.56-1.581 0.145-1.581-0.682v-2.811c-5.647 0.038-8.030 1.372-6.437 6.693 0.175 0.585-0.502 1.038-0.977 0.677-1.522-1.156-2.899-3.368-2.899-5.6 0-5.623 4.594-6.738 10.313-6.77v-2.813c0-0.827 0.989-1.241 1.581-0.682l5.625 5.312c0.391 0.37 0.392 0.993 0 1.363zM15 14.81v2.69h-12.5v-12.5h1.989c0.133-0 0.253-0.055 0.338-0.144l0-0c0.584-0.608 1.259-1.089 1.993-1.472 0.435-0.227 0.274-0.884-0.217-0.884h-4.728c-1.036 0-1.875 0.839-1.875 1.875v13.75c0 1.036 0.839 1.875 1.875 1.875h13.75c1.036 0 1.875-0.839 1.875-1.875v-3.469c0-0.324-0.32-0.549-0.625-0.441-0.279 0.102-0.6 0.161-0.936 0.161-0.141 0-0.28-0.010-0.415-0.031l0.015 0.002c-0.284-0.041-0.539 0.176-0.539 0.463z"></path>
</svg>
