<svg xmlns="http://www.w3.org/2000/svg" width="20" height="20" viewBox="0 0 20 20">
<path d="M19.375 5c0 8.644-5.31 13.463-8.654 14.856-0.213 0.091-0.461 0.144-0.721 0.144s-0.508-0.053-0.733-0.149l0.012 0.005c-4.181-1.742-8.654-7.102-8.654-14.856 0 0 0 0 0 0 0-0.775 0.471-1.441 1.142-1.726l0.012-0.005 7.5-3.125c0.213-0.091 0.461-0.144 0.721-0.144s0.508 0.053 0.733 0.149l-0.012-0.005 7.5 3.125c0.683 0.29 1.154 0.955 1.154 1.731 0 0 0 0 0 0v0zM10 17.434l0.003 0.001c3.662-1.824 6.738-6.106 6.868-12.021l-6.87-2.863v14.882z"></path>
</svg>
