<svg xmlns="http://www.w3.org/2000/svg" width="18" height="20" viewBox="0 0 18 20">
<path d="M16.875 11.875c0 4.488-3.637 8.125-8.125 8.125s-8.125-3.637-8.125-8.125c0-4.063 2.98-7.43 6.875-8.027v-1.348h-1.094c-0.258 0-0.469-0.211-0.469-0.469v-1.563c0-0.258 0.211-0.469 0.469-0.469h4.688c0.258 0 0.469 0.211 0.469 0.469v1.563c0 0.258-0.211 0.469-0.469 0.469h-1.094v1.348c1.465 0.227 2.801 0.844 3.895 1.742l1.074-1.074c0.184-0.184 0.48-0.184 0.664 0l1.105 1.105c0.184 0.184 0.184 0.48 0 0.664l-1.172 1.172c0.828 1.266 1.309 2.785 1.309 4.418zM10 13.281v-5.918c0-0.258-0.211-0.469-0.469-0.469h-1.563c-0.258 0-0.469 0.211-0.469 0.469v5.918c0 0.258 0.211 0.469 0.469 0.469h1.563c0.258 0 0.469-0.211 0.469-0.469z"></path>
</svg>
