<svg xmlns="http://www.w3.org/2000/svg" width="20" height="20" viewBox="0 0 20 20">
<path d="M19.727 17.293l-3.895-3.895c-0.176-0.176-0.414-0.273-0.664-0.273h-0.637c1.078-1.379 1.719-3.113 1.719-5 0-4.488-3.637-8.125-8.125-8.125s-8.125 3.637-8.125 8.125 3.637 8.125 8.125 8.125c1.887 0 3.621-0.641 5-1.719v0.637c0 0.25 0.098 0.488 0.273 0.664l3.895 3.895c0.367 0.367 0.961 0.367 1.324 0l1.105-1.105c0.367-0.367 0.367-0.961 0.004-1.328zM8.125 13.125c-2.762 0-5-2.234-5-5 0-2.762 2.234-5 5-5 2.762 0 5 2.234 5 5 0 2.762-2.234 5-5 5z"></path>
</svg>
