<svg xmlns="http://www.w3.org/2000/svg" width="18" height="20" viewBox="0 0 18 20">
<path d="M17.376 11.783c0.078-0.134 0.124-0.296 0.124-0.468 0-0.069-0.007-0.137-0.022-0.202l0.001 0.006c-0.106-0.506-0.599-0.83-1.101-0.722l-3.414 0.978-2.652-1.376 2.652-1.376 3.414 0.978c0.501 0.108 0.994-0.216 1.101-0.722s-0.214-1.004-0.715-1.112l-1.855-0.279 2.073-1.209c0.444-0.259 0.596-0.832 0.34-1.281s-0.824-0.602-1.268-0.343l-2.073 1.209 0.688-1.762c0.158-0.492-0.108-1.021-0.596-1.181s-1.011 0.109-1.17 0.602l-0.868 3.476-2.359 1.376v-2.751l2.546-2.498c0.343-0.385 0.312-0.978-0.069-1.324s-0.968-0.315-1.311 0.070l-1.166 1.483v-2.418c0-0.518-0.416-0.938-0.928-0.938s-0.928 0.42-0.928 0.938v2.418l-1.166-1.483c-0.343-0.385-0.93-0.416-1.311-0.070s-0.412 0.939-0.069 1.324l2.546 2.498v2.751l-2.359-1.376-0.868-3.476c-0.158-0.492-0.682-0.762-1.17-0.602s-0.754 0.689-0.596 1.181l0.688 1.762-2.073-1.209c-0.444-0.259-1.011-0.105-1.268 0.343s-0.104 1.022 0.34 1.281l2.073 1.209-1.855 0.279c-0.501 0.108-0.822 0.605-0.715 1.112s0.599 0.83 1.101 0.722l3.414-0.978 2.652 1.376-2.652 1.376-3.414-0.978c-0.501-0.108-0.994 0.216-1.101 0.722s0.214 1.004 0.715 1.112l1.855 0.279-2.073 1.209c-0.444 0.259-0.596 0.832-0.34 1.281s0.824 0.602 1.268 0.343l2.073-1.209-0.688 1.762c-0.029 0.087-0.046 0.186-0.046 0.29 0 0.172 0.046 0.334 0.127 0.473l-0.002-0.005c0.111 0.193 0.29 0.348 0.517 0.422 0.487 0.16 1.011-0.109 1.17-0.602l0.868-3.476 2.359-1.376v2.751l-2.546 2.498c-0.343 0.385-0.312 0.978 0.069 1.324s0.968 0.315 1.311-0.070l1.166-1.483v2.418c0 0.518 0.416 0.937 0.928 0.937s0.928-0.42 0.928-0.938v-2.418l1.166 1.483c0.17 0.191 0.416 0.31 0.69 0.31 0 0 0 0 0 0h-0c0 0 0 0 0 0 0.239 0 0.457-0.091 0.621-0.241l-0.001 0.001c0.381-0.346 0.412-0.939 0.069-1.324l-2.546-2.498v-2.751l2.359 1.376 0.868 3.476c0.158 0.492 0.682 0.762 1.17 0.602s0.754-0.689 0.596-1.181l-0.688-1.762 2.073 1.209c0.444 0.259 1.011 0.105 1.268-0.343s0.104-1.022-0.34-1.281l-2.073-1.209 1.855-0.279c0.268-0.057 0.484-0.226 0.611-0.448z"></path>
</svg>
