<svg xmlns="http://www.w3.org/2000/svg" width="20" height="20" viewBox="0 0 20 20">
<path d="M0.184 4.558l3.124-3.125c0.244-0.244 0.64-0.244 0.884 0l3.124 3.125c0.393 0.393 0.113 1.067-0.442 1.067h-1.874v12.5c0 0.345-0.28 0.625-0.625 0.625h-1.25c-0.345 0-0.625-0.28-0.625-0.625v-12.5h-1.874c-0.556 0-0.834-0.674-0.442-1.067zM9.375 3.75h10c0.345 0 0.625-0.28 0.625-0.625v-1.25c0-0.345-0.28-0.625-0.625-0.625h-10c-0.345 0-0.625 0.28-0.625 0.625v1.25c0 0.345 0.28 0.625 0.625 0.625zM8.75 8.125v-1.25c0-0.345 0.28-0.625 0.625-0.625h7.5c0.345 0 0.625 0.28 0.625 0.625v1.25c0 0.345-0.28 0.625-0.625 0.625h-7.5c-0.345 0-0.625-0.28-0.625-0.625zM8.75 18.125v-1.25c0-0.345 0.28-0.625 0.625-0.625h2.5c0.345 0 0.625 0.28 0.625 0.625v1.25c0 0.345-0.28 0.625-0.625 0.625h-2.5c-0.345 0-0.625-0.28-0.625-0.625zM8.75 13.125v-1.25c0-0.345 0.28-0.625 0.625-0.625h5c0.345 0 0.625 0.28 0.625 0.625v1.25c0 0.345-0.28 0.625-0.625 0.625h-5c-0.345 0-0.625-0.28-0.625-0.625z"></path>
</svg>
