<svg xmlns="http://www.w3.org/2000/svg" width="20" height="20" viewBox="0 0 20 20">
<path d="M15.437 10c0.135-0.411 0.734-0.831 1.417-1.267 0.649-0.414 1.385-0.884 1.966-1.518 0.682-0.744 1.013-1.569 1.013-2.522 0-2.366-1.981-3.443-3.821-3.443-1.66 0-2.984 0.86-3.689 1.971-0.182 0.286-0.101 0.665 0.181 0.854l1.185 0.793c0.275 0.184 0.643 0.12 0.845-0.141 0.313-0.406 0.735-0.712 1.237-0.712 0.757 0 1.026 0.504 1.026 0.935 0 1.412-4.666 2.227-4.666 6.251 0 0.26 0.022 0.508 0.055 0.755 0.042 0.311 0.306 0.544 0.62 0.544h6.568c0.345 0 0.625-0.28 0.625-0.625v-1.25c0-0.345-0.28-0.625-0.625-0.625h-3.938zM10.625 16.25c0.345 0 0.625 0.28 0.625 0.625v1.25c0 0.345-0.28 0.625-0.625 0.625h-2.437c-0.222 0-0.417-0.115-0.527-0.29l-0.002-0.003-1.785-2.837c-0.090-0.131-0.173-0.272-0.242-0.399-0.064 0.127-0.142 0.271-0.229 0.413l-1.747 2.818c-0.112 0.179-0.308 0.296-0.531 0.296 0 0 0 0 0 0h-2.499c-0.345 0-0.625-0.28-0.625-0.625v-1.25c0-0.345 0.28-0.625 0.625-0.625h1.028l2.209-3.231-2.061-3.019h-1.176c-0.345 0-0.625-0.28-0.625-0.625v-1.25c0-0.345 0.28-0.625 0.625-0.625h2.688c0 0 0 0 0 0 0.224 0 0.421 0.118 0.531 0.296l0.002 0.003 1.558 2.544c0.081 0.138 0.158 0.28 0.224 0.405 0.069-0.127 0.153-0.272 0.244-0.412l1.575-2.54c0.112-0.179 0.308-0.296 0.531-0.296 0 0 0 0 0 0h2.647c0.345 0 0.625 0.28 0.625 0.625v1.25c0 0.345-0.28 0.625-0.625 0.625h-1.093l-2.058 2.956 2.291 3.294h0.86z"></path>
</svg>
