<svg xmlns="http://www.w3.org/2000/svg" width="18" height="20" viewBox="0 0 18 20">
<path d="M6.645 3.75h-3.52v14.531c0 0.259-0.21 0.469-0.469 0.469h-2.188c-0.259 0-0.469-0.21-0.469-0.469v-16.563c0-0.259 0.21-0.469 0.469-0.469h6.577c3.325 0 5.65 2.25 5.65 5.589v7.185c0 0.259-0.21 0.469-0.469 0.469h-1.719c-0.518 0-0.938-0.42-0.938-0.938v-6.901c0-1.766-1.1-2.903-2.925-2.903zM17.031 1.25h-2.188c-0.259 0-0.469 0.21-0.469 0.469v14.531h-3.52c-1.825 0-2.925-1.137-2.925-2.903v-6.901c0-0.518-0.42-0.938-0.938-0.938h-1.719c-0.259 0-0.469 0.21-0.469 0.469v7.185c0 3.339 2.325 5.589 5.65 5.589h6.577c0.259 0 0.469-0.21 0.469-0.469v-16.563c0-0.259-0.21-0.469-0.469-0.469z"></path>
</svg>
