<svg xmlns="http://www.w3.org/2000/svg" width="18" height="20" viewBox="0 0 18 20">
<path d="M17.5 3.75v10c0 2.024-2.407 3.75-5.079 3.75l2.46 1.942c0.232 0.183 0.102 0.558-0.194 0.558h-11.875c-0.296 0-0.425-0.375-0.194-0.558l2.46-1.942c-2.664 0-5.079-1.721-5.079-3.75v-10c0-2.071 2.5-3.75 5-3.75h7.5c2.539 0 5 1.679 5 3.75zM7.813 9.063v-4.375c0-0.518-0.42-0.938-0.938-0.938h-4.063c-0.518 0-0.938 0.42-0.938 0.938v4.375c0 0.518 0.42 0.938 0.938 0.938h4.063c0.518 0 0.938-0.42 0.938-0.938zM15.625 9.063v-4.375c0-0.518-0.42-0.938-0.938-0.938h-4.063c-0.518 0-0.938 0.42-0.938 0.938v4.375c0 0.518 0.42 0.938 0.938 0.938h4.063c0.518 0 0.938-0.42 0.938-0.938zM13.75 11.25c-1.036 0-1.875 0.839-1.875 1.875s0.839 1.875 1.875 1.875 1.875-0.839 1.875-1.875-0.839-1.875-1.875-1.875zM3.75 11.25c-1.036 0-1.875 0.839-1.875 1.875s0.839 1.875 1.875 1.875 1.875-0.839 1.875-1.875-0.839-1.875-1.875-1.875z"></path>
</svg>
