<svg xmlns="http://www.w3.org/2000/svg" width="23" height="20" viewBox="0 0 23 20">
<path d="M22.5 8.438v0.625c0 0.518-0.42 0.938-0.938 0.938h-0.313l-1.020 7.14c-0.132 0.924-0.923 1.61-1.856 1.61h-14.248c-0.933 0-1.724-0.686-1.856-1.61l-1.020-7.14h-0.312c-0.518 0-0.938-0.42-0.938-0.938v-0.625c0-0.518 0.42-0.938 0.938-0.938h2.631l4.171-5.735c0.406-0.558 1.188-0.682 1.746-0.276s0.682 1.188 0.276 1.746l-3.102 4.265h9.181l-3.102-4.265c-0.406-0.558-0.283-1.34 0.276-1.746s1.34-0.283 1.746 0.276l4.171 5.735h2.631c0.518 0 0.938 0.42 0.938 0.938zM12.188 15.313v-4.375c0-0.518-0.42-0.938-0.938-0.938s-0.938 0.42-0.938 0.938v4.375c0 0.518 0.42 0.938 0.938 0.938s0.938-0.42 0.938-0.938zM16.563 15.313v-4.375c0-0.518-0.42-0.938-0.938-0.938s-0.938 0.42-0.938 0.938v4.375c0 0.518 0.42 0.938 0.938 0.938s0.938-0.42 0.938-0.938zM7.813 15.313v-4.375c0-0.518-0.42-0.938-0.938-0.938s-0.938 0.42-0.938 0.938v4.375c0 0.518 0.42 0.938 0.938 0.938s0.938-0.42 0.938-0.938z"></path>
</svg>
