<svg xmlns="http://www.w3.org/2000/svg" width="25" height="20" viewBox="0 0 25 20">
<path d="M1.406 15h2.188c0.258 0 0.469 0.211 0.469 0.469v4.063c0 0.258-0.211 0.469-0.469 0.469h-2.188c-0.258 0-0.469-0.211-0.469-0.469v-4.063c0-0.258 0.211-0.469 0.469-0.469zM5.938 13.594v5.938c0 0.258 0.211 0.469 0.469 0.469h2.188c0.258 0 0.469-0.211 0.469-0.469v-5.938c0-0.258-0.211-0.469-0.469-0.469h-2.188c-0.258 0-0.469 0.211-0.469 0.469zM10.938 10.469v9.063c0 0.258 0.211 0.469 0.469 0.469h2.188c0.258 0 0.469-0.211 0.469-0.469v-9.063c0-0.258-0.211-0.469-0.469-0.469h-2.188c-0.258 0-0.469 0.211-0.469 0.469zM15.938 6.094v13.438c0 0.258 0.211 0.469 0.469 0.469h2.188c0.258 0 0.469-0.211 0.469-0.469v-13.438c0-0.258-0.211-0.469-0.469-0.469h-2.188c-0.258 0-0.469 0.211-0.469 0.469zM20.938 0.469v19.063c0 0.258 0.211 0.469 0.469 0.469h2.188c0.258 0 0.469-0.211 0.469-0.469v-19.063c0-0.258-0.211-0.469-0.469-0.469h-2.188c-0.258 0-0.469 0.211-0.469 0.469z"></path>
</svg>
