<svg xmlns="http://www.w3.org/2000/svg" width="18" height="20" viewBox="0 0 18 20">
<path d="M0.184 4.558l3.124-3.125c0.244-0.244 0.64-0.244 0.884 0l3.124 3.125c0.393 0.393 0.113 1.067-0.442 1.067h-1.874v12.5c0 0.345-0.28 0.625-0.625 0.625h-1.25c-0.345 0-0.625-0.28-0.625-0.625v-12.5h-1.874c-0.556 0-0.834-0.674-0.442-1.067zM11.968 8.41c-0.058 0.198-0.238 0.34-0.451 0.34h-1.395c-0.321 0-0.547-0.316-0.444-0.62l2.23-6.563c0.065-0.186 0.239-0.318 0.444-0.318 0 0 0 0 0 0h1.546c0.201 0 0.379 0.128 0.444 0.318l2.23 6.563c0.103 0.304-0.123 0.62-0.444 0.62h-1.396c0 0 0 0-0 0-0.212 0-0.391-0.141-0.449-0.333l-0.001-0.003-0.324-1.105h-1.674l-0.316 1.103zM12.861 5.336h0.522l-0.258-0.896-0.264 0.896zM13.352 16.56l2.635-3.738c0.054-0.075 0.086-0.169 0.086-0.27v0-0.833c0-0.259-0.21-0.469-0.469-0.469h-4.88c-0.259 0-0.469 0.21-0.469 0.469v1.13c0 0.259 0.21 0.469 0.469 0.469h2.206c-0.029 0.039-0.058 0.080-0.089 0.122l-2.625 3.719c-0.054 0.075-0.086 0.169-0.086 0.27 0 0 0 0 0 0v0 0.852c0 0.259 0.21 0.469 0.469 0.469h5.053c0.259 0 0.469-0.21 0.469-0.469v-1.13c0-0.259-0.21-0.469-0.469-0.469h-2.389c0.029-0.039 0.059-0.080 0.089-0.123z"></path>
</svg>
