<svg xmlns="http://www.w3.org/2000/svg" width="20" height="20" viewBox="0 0 20 20">
<path d="M11.875 7.5v1.25c0 0.258-0.211 0.469-0.469 0.469h-2.188v2.188c0 0.258-0.211 0.469-0.469 0.469h-1.25c-0.258 0-0.469-0.211-0.469-0.469v-2.188h-2.188c-0.258 0-0.469-0.211-0.469-0.469v-1.25c0-0.258 0.211-0.469 0.469-0.469h2.188v-2.188c0-0.258 0.211-0.469 0.469-0.469h1.25c0.258 0 0.469 0.211 0.469 0.469v2.188h2.188c0.258 0 0.469 0.211 0.469 0.469zM19.727 18.621l-1.105 1.105c-0.367 0.367-0.961 0.367-1.324 0l-3.898-3.895c-0.176-0.176-0.273-0.414-0.273-0.664v-0.637c-1.379 1.078-3.113 1.719-5 1.719-4.488 0-8.125-3.637-8.125-8.125s3.637-8.125 8.125-8.125 8.125 3.637 8.125 8.125c0 1.887-0.641 3.621-1.719 5h0.637c0.25 0 0.488 0.098 0.664 0.273l3.895 3.895c0.363 0.367 0.363 0.961 0 1.328zM13.438 8.125c0-2.938-2.375-5.313-5.313-5.313s-5.313 2.375-5.313 5.313 2.375 5.313 5.313 5.313 5.313-2.375 5.313-5.313z"></path>
</svg>
