<svg xmlns="http://www.w3.org/2000/svg" width="25" height="20" viewBox="0 0 25 20">
<path d="M23.149 8.135c-1.284-0.602-3.001-0.947-4.711-0.947h-11.159c-0.193-0.256-0.413-0.468-0.653-0.625h8.062c-5.736-1.182-6.117-5.313-10.937-5.313h-0v5h-0.625v-5c-1.036 0-1.875 1.119-1.875 2.5v2.5c-0.906 0-1.25 0.392-1.25 0.938v1.563c0 0.546 0.344 0.938 1.25 0.938v0.625c-0.906 0-1.25 0.392-1.25 0.938v1.563c0 0.546 0.344 0.938 1.25 0.938v2.5c0 1.381 0.839 2.5 1.875 2.5v-5h0.625v5h0c4.82 0 5.201-4.131 10.937-5.313h-8.062c0.24-0.157 0.46-0.369 0.653-0.625h11.159c1.71 0 3.427-0.345 4.711-0.947 1.159-0.543 1.851-1.241 1.851-1.865s-0.692-1.322-1.851-1.865zM19.063 11.563c-0.173 0-0.313-0.14-0.313-0.313v0-2.5c0-0.173 0.14-0.313 0.313-0.313v0c1.246 0 1.248 3.125 0 3.125z"></path>
</svg>
