<svg xmlns="http://www.w3.org/2000/svg" width="20" height="20" viewBox="0 0 20 20">
<path d="M7.5 2.5c0-1.381 1.119-2.5 2.5-2.5s2.5 1.119 2.5 2.5c0 1.381-1.119 2.5-2.5 2.5s-2.5-1.119-2.5-2.5zM11.875 5.625h-0.444c-0.887 0.408-1.937 0.426-2.862 0h-0.444c-1.036 0-1.875 0.839-1.875 1.875v4.063c0 0.518 0.42 0.938 0.938 0.938h0.625v4.063c0 0.518 0.42 0.938 0.938 0.938h2.5c0.518 0 0.938-0.42 0.938-0.938v-4.063h0.625c0.518 0 0.938-0.42 0.938-0.938v-4.063c0-1.036-0.839-1.875-1.875-1.875zM15.22 13.014c-0.276 0.45-0.66 0.81-1.117 1.048l-0.016 0.007c1.191 0.199 4.663 1.004 4.663 2.181 0 1.809-6.549 2.5-8.75 2.5-2.746 0-8.75-0.815-8.75-2.5 0-1.177 3.452-1.979 4.663-2.181-0.473-0.246-0.858-0.605-1.126-1.043l-0.007-0.012c-1.851 0.4-4.78 1.346-4.78 3.236 0 3.012 6.979 3.75 10 3.75 3.018 0 10-0.737 10-3.75 0-1.891-2.928-2.836-4.78-3.236z"></path>
</svg>
