<svg xmlns="http://www.w3.org/2000/svg" width="20" height="20" viewBox="0 0 20 20">
<path d="M10 0.313c-5.352 0-9.688 4.336-9.688 9.688s4.336 9.688 9.688 9.688 9.688-4.336 9.688-9.688-4.336-9.688-9.688-9.688zM14.75 12.543c0.184 0.184 0.184 0.48 0 0.664l-1.547 1.543c-0.184 0.184-0.48 0.184-0.664 0l-2.539-2.563-2.543 2.563c-0.184 0.184-0.48 0.184-0.664 0l-1.543-1.547c-0.184-0.184-0.184-0.48 0-0.664l2.563-2.539-2.563-2.543c-0.184-0.184-0.184-0.48 0-0.664l1.547-1.547c0.184-0.184 0.48-0.184 0.664 0l2.539 2.566 2.543-2.563c0.184-0.184 0.48-0.184 0.664 0l1.547 1.547c0.184 0.184 0.184 0.48 0 0.664l-2.566 2.539 2.562 2.543z"></path>
</svg>
