<svg xmlns="http://www.w3.org/2000/svg" width="20" height="20" viewBox="0 0 20 20">
<path d="M19.383 11.582c1.23-3.039 0.617-6.652-1.844-9.117-3.277-3.285-8.594-3.285-11.871 0l-2.188 2.191 8.262 8.262c1.801-2.426 5.137-3.023 7.641-1.336zM10.871 14.695l-8.609-8.605c-1.066 1.77-0.848 4.102 0.676 5.629l1.348 1.352-4.023 3.492c-0.336 0.293-0.355 0.809-0.039 1.125l2.086 2.090c0.313 0.316 0.828 0.297 1.121-0.039l3.488-4.035 1.395 1.395c0.77 0.77 1.742 1.191 2.746 1.301-0.277-0.664-0.43-1.391-0.43-2.152-0.004-0.539 0.098-1.055 0.242-1.551zM16.25 12.5c-2.070 0-3.75 1.68-3.75 3.75s1.68 3.75 3.75 3.75 3.75-1.68 3.75-3.75-1.68-3.75-3.75-3.75z"></path>
</svg>
