<svg xmlns="http://www.w3.org/2000/svg" width="18" height="20" viewBox="0 0 18 20">
<path d="M0 3.281v-1.094c0-0.52 0.418-0.938 0.938-0.938h4.375l0.367-0.73c0.156-0.32 0.48-0.52 0.836-0.52h4.465c0.355 0 0.68 0.199 0.84 0.52l0.367 0.73h4.375c0.52 0 0.938 0.418 0.938 0.938v1.094c0 0.258-0.211 0.469-0.469 0.469h-16.563c-0.258 0-0.469-0.211-0.469-0.469zM16.25 5.469v12.656c0 1.035-0.84 1.875-1.875 1.875h-11.25c-1.035 0-1.875-0.84-1.875-1.875v-12.656c0-0.258 0.211-0.469 0.469-0.469h14.063c0.258 0 0.469 0.211 0.469 0.469zM5.625 8.125c0-0.344-0.281-0.625-0.625-0.625s-0.625 0.281-0.625 0.625v8.75c0 0.344 0.281 0.625 0.625 0.625s0.625-0.281 0.625-0.625v-8.75zM9.375 8.125c0-0.344-0.281-0.625-0.625-0.625s-0.625 0.281-0.625 0.625v8.75c0 0.344 0.281 0.625 0.625 0.625s0.625-0.281 0.625-0.625v-8.75zM13.125 8.125c0-0.344-0.281-0.625-0.625-0.625s-0.625 0.281-0.625 0.625v8.75c0 0.344 0.281 0.625 0.625 0.625s0.625-0.281 0.625-0.625v-8.75z"></path>
</svg>
