<svg xmlns="http://www.w3.org/2000/svg" width="20" height="20" viewBox="0 0 20 20">
<path d="M5.833 2.188v3.125c0 0.518-0.42 0.938-0.938 0.938h-3.958c-0.518 0-0.938-0.42-0.938-0.938v-3.125c0-0.518 0.42-0.938 0.938-0.938h3.958c0.518 0 0.938 0.42 0.938 0.938zM12.917 11.563v-3.125c0-0.518-0.42-0.938-0.938-0.938h-3.958c-0.518 0-0.938 0.42-0.938 0.938v3.125c0 0.518 0.42 0.938 0.938 0.938h3.958c0.518 0 0.938-0.42 0.938-0.938zM14.167 2.188v3.125c0 0.518 0.42 0.938 0.938 0.938h3.958c0.518 0 0.938-0.42 0.938-0.938v-3.125c0-0.518-0.42-0.938-0.938-0.938h-3.958c-0.518 0-0.938 0.42-0.938 0.938zM12.917 5.313v-3.125c0-0.518-0.42-0.938-0.938-0.938h-3.958c-0.518 0-0.938 0.42-0.938 0.938v3.125c0 0.518 0.42 0.938 0.938 0.938h3.958c0.518 0 0.938-0.42 0.938-0.938zM4.896 7.5h-3.958c-0.518 0-0.938 0.42-0.938 0.938v3.125c0 0.518 0.42 0.938 0.938 0.938h3.958c0.518 0 0.938-0.42 0.938-0.938v-3.125c0-0.518-0.42-0.938-0.938-0.938zM0 14.688v3.125c0 0.518 0.42 0.938 0.938 0.938h3.958c0.518 0 0.938-0.42 0.938-0.938v-3.125c0-0.518-0.42-0.938-0.938-0.938h-3.958c-0.518 0-0.938 0.42-0.938 0.938zM15.104 12.5h3.958c0.518 0 0.938-0.42 0.938-0.938v-3.125c0-0.518-0.42-0.938-0.938-0.938h-3.958c-0.518 0-0.938 0.42-0.938 0.938v3.125c0 0.518 0.42 0.938 0.938 0.938zM15.104 18.75h3.958c0.518 0 0.938-0.42 0.938-0.938v-3.125c0-0.518-0.42-0.938-0.938-0.938h-3.958c-0.518 0-0.938 0.42-0.938 0.938v3.125c0 0.518 0.42 0.938 0.938 0.938zM7.083 14.688v3.125c0 0.518 0.42 0.938 0.938 0.938h3.958c0.518 0 0.938-0.42 0.938-0.938v-3.125c0-0.518-0.42-0.938-0.938-0.938h-3.958c-0.518 0-0.938 0.42-0.938 0.938z"></path>
</svg>
