<svg xmlns="http://www.w3.org/2000/svg" width="15" height="20" viewBox="0 0 15 20">
<path d="M12.621 17.227l2.105-2.105c0.367-0.367 0.367-0.957 0-1.324l-3.797-3.797 3.797-3.797c0.367-0.367 0.367-0.957 0-1.324l-2.105-2.105c-0.367-0.367-0.957-0.367-1.324 0l-3.797 3.797-3.797-3.797c-0.367-0.367-0.957-0.367-1.324 0l-2.105 2.105c-0.367 0.367-0.367 0.957 0 1.324l3.797 3.797-3.797 3.797c-0.367 0.367-0.367 0.957 0 1.324l2.105 2.105c0.367 0.367 0.957 0.367 1.324 0l3.797-3.797 3.797 3.797c0.363 0.363 0.957 0.363 1.324 0z"></path>
</svg>
