<svg xmlns="http://www.w3.org/2000/svg" width="19" height="20" viewBox="0 0 19 20">
<path d="M18.281 0h-3.086c-0.418 0-0.625 0.504-0.332 0.801l0.66 0.66-3.152 3.152c-0.867-0.547-1.895-0.863-2.996-0.863s-2.129 0.316-2.996 0.863l-0.645-0.645 0.773-0.773c0.184-0.184 0.184-0.48 0-0.664l-1.105-1.105c-0.184-0.184-0.48-0.184-0.664 0l-0.773 0.773-0.742-0.742 0.66-0.66c0.301-0.293 0.090-0.797-0.328-0.797h-3.086c-0.258 0-0.469 0.211-0.469 0.469v3.086c0 0.418 0.504 0.625 0.801 0.332l0.66-0.66 0.742 0.742-0.773 0.773c-0.184 0.184-0.184 0.48 0 0.664l1.105 1.105c0.184 0.184 0.48 0.184 0.664 0l0.773-0.773 0.645 0.645c-0.551 0.863-0.867 1.891-0.867 2.992 0 2.676 1.871 4.918 4.375 5.484v1.078h-1.406c-0.258 0-0.469 0.211-0.469 0.469v1.563c0 0.258 0.211 0.469 0.469 0.469h1.406v1.094c0 0.258 0.211 0.469 0.469 0.469h1.563c0.258 0 0.469-0.211 0.469-0.469v-1.094h1.406c0.258 0 0.469-0.211 0.469-0.469v-1.563c0-0.258-0.211-0.469-0.469-0.469h-1.406v-1.078c2.504-0.57 4.375-2.809 4.375-5.484 0-1.102-0.316-2.129-0.863-2.996l3.152-3.152 0.66 0.66c0.297 0.297 0.801 0.086 0.801-0.332v-3.086c0-0.258-0.211-0.469-0.469-0.469zM9.375 12.5c-1.723 0-3.125-1.402-3.125-3.125s1.402-3.125 3.125-3.125 3.125 1.402 3.125 3.125-1.402 3.125-3.125 3.125z"></path>
</svg>
