<svg xmlns="http://www.w3.org/2000/svg" width="20" height="20" viewBox="0 0 20 20">
<path d="M11.563 1.25h7.5c0.518 0 0.938 0.42 0.938 0.938v6.25c0 0.518-0.42 0.938-0.938 0.938h-7.5c-0.518 0-0.938-0.42-0.938-0.938v-6.25c0-0.518 0.42-0.938 0.938-0.938zM8.438 1.25h-7.5c-0.518 0-0.938 0.42-0.938 0.938v6.25c0 0.518 0.42 0.938 0.938 0.938h7.5c0.518 0 0.938-0.42 0.938-0.938v-6.25c0-0.518-0.42-0.938-0.938-0.938zM0 11.563v6.25c0 0.518 0.42 0.938 0.938 0.938h7.5c0.518 0 0.938-0.42 0.938-0.938v-6.25c0-0.518-0.42-0.938-0.938-0.938h-7.5c-0.518 0-0.938 0.42-0.938 0.938zM11.563 18.75h7.5c0.518 0 0.938-0.42 0.938-0.938v-6.25c0-0.518-0.42-0.938-0.938-0.938h-7.5c-0.518 0-0.938 0.42-0.938 0.938v6.25c0 0.518 0.42 0.938 0.938 0.938z"></path>
</svg>
