<svg xmlns="http://www.w3.org/2000/svg" width="25" height="20" viewBox="0 0 25 20">
<path d="M19.451 8.826l-8.277-8.277c-0.339-0.339-0.808-0.549-1.326-0.549h-7.973c-1.036 0-1.875 0.839-1.875 1.875v7.973c0 0.518 0.21 0.987 0.549 1.326l8.277 8.277c0.732 0.732 1.919 0.732 2.652 0l7.973-7.973c0.732-0.732 0.732-1.919 0-2.652zM4.375 6.25c-1.036 0-1.875-0.839-1.875-1.875s0.839-1.875 1.875-1.875 1.875 0.839 1.875 1.875-0.839 1.875-1.875 1.875zM24.451 11.477l-7.973 7.973c-0.732 0.732-1.919 0.732-2.652 0l-0.014-0.014 6.799-6.799c0.664-0.664 1.030-1.547 1.030-2.486s-0.366-1.822-1.030-2.486l-7.666-7.666h1.903c0.518 0 0.987 0.21 1.326 0.549l8.277 8.277c0.732 0.732 0.732 1.919 0 2.652z"></path>
</svg>
