<svg xmlns="http://www.w3.org/2000/svg" width="20" height="20" viewBox="0 0 20 20">
<path d="M0 2.188v9.375c0 0.518 0.42 0.938 0.938 0.938h3.125c0.518 0 0.938-0.42 0.938-0.938v-9.375c0-0.518-0.42-0.938-0.938-0.938h-3.125c-0.518 0-0.938 0.42-0.938 0.938zM1.563 10c0-0.518 0.42-0.938 0.938-0.938s0.938 0.42 0.938 0.938-0.42 0.938-0.938 0.938-0.938-0.42-0.938-0.938zM12.188 20c-0.788 0-1.152-1.535-1.325-2.258-0.203-0.846-0.414-1.721-0.992-2.301-1.268-1.27-1.934-2.889-3.481-4.418-0.086-0.085-0.139-0.203-0.139-0.333 0-0 0-0 0-0v0-8.35c0-0.256 0.205-0.464 0.46-0.469 0.618-0.011 1.433-0.355 2.057-0.632 1.24-0.552 2.784-1.239 4.67-1.239h0.111c1.671 0 3.647 0.016 4.444 1.162 0.328 0.471 0.408 1.056 0.24 1.743 0.637 0.666 0.979 1.909 0.64 2.92 0.685 0.915 0.748 2.193 0.364 3.104l0.004 0.004c0.465 0.467 0.763 1.221 0.759 1.922-0.006 1.186-1.022 2.269-2.326 2.269h-3.974c0.285 1.107 1.3 2.036 1.3 3.693 0 2.869-1.875 3.182-2.813 3.182z"></path>
</svg>
