<svg xmlns="http://www.w3.org/2000/svg" width="20" height="20" viewBox="0 0 20 20">
<path d="M8.125 5.156h11.25c0.344 0 0.625-0.281 0.625-0.625v-1.563c0-0.344-0.281-0.625-0.625-0.625h-11.25c-0.344 0-0.625 0.281-0.625 0.625v1.563c0 0.344 0.281 0.625 0.625 0.625zM8.125 11.406h11.25c0.344 0 0.625-0.281 0.625-0.625v-1.563c0-0.344-0.281-0.625-0.625-0.625h-11.25c-0.344 0-0.625 0.281-0.625 0.625v1.563c0 0.344 0.281 0.625 0.625 0.625zM8.125 17.656h11.25c0.344 0 0.625-0.281 0.625-0.625v-1.563c0-0.344-0.281-0.625-0.625-0.625h-11.25c-0.344 0-0.625 0.281-0.625 0.625v1.563c0 0.344 0.281 0.625 0.625 0.625zM2.5 14.375c-1.035 0-1.898 0.84-1.898 1.875s0.863 1.875 1.898 1.875 1.875-0.84 1.875-1.875-0.84-1.875-1.875-1.875zM6.113 2.695l-3.43 3.43c-0.184 0.184-0.504 0.184-0.688 0l-1.859-1.852c-0.184-0.184-0.184-0.48 0-0.664l0.613-0.613c0.184-0.184 0.48-0.184 0.664 0l0.887 0.863 2.488-2.473c0.184-0.184 0.48-0.184 0.664 0l0.664 0.645c0.18 0.184 0.18 0.48-0.004 0.664zM6.113 8.93l-3.434 3.434c-0.184 0.184-0.504 0.184-0.688 0l-1.855-1.855c-0.184-0.184-0.184-0.48 0-0.664l0.613-0.613c0.184-0.184 0.48-0.184 0.664 0l0.887 0.863 2.488-2.488c0.184-0.184 0.48-0.184 0.664 0l0.664 0.664c0.18 0.18 0.18 0.477-0.004 0.66z"></path>
</svg>
