<svg xmlns="http://www.w3.org/2000/svg" width="15" height="20" viewBox="0 0 15 20">
<path d="M14.739 14.665l-3.259-3.415h1.332c0.821 0 1.245-0.985 0.682-1.581l-3.229-3.419h1.297c0.816 0 1.244-0.975 0.687-1.575l-4.063-4.375c-0.371-0.399-1.003-0.4-1.374 0l-4.063 4.375c-0.555 0.598-0.132 1.575 0.687 1.575h1.297l-3.229 3.419c-0.564 0.597-0.139 1.581 0.682 1.581h1.332l-3.259 3.415c-0.568 0.595-0.146 1.585 0.678 1.585h4.687c0 1.281-0.437 1.924-1.328 2.637-0.46 0.368-0.199 1.113 0.39 1.113h5.625c0.589 0 0.851-0.745 0.39-1.113-0.772-0.618-1.328-1.237-1.328-2.637v-0h4.686c0.822 0 1.247-0.989 0.678-1.585z"></path>
</svg>
