<svg xmlns="http://www.w3.org/2000/svg" width="18" height="20" viewBox="0 0 18 20">
<path d="M15.625 0h-13.75c-1.035 0-1.875 0.84-1.875 1.875v16.25c0 1.035 0.84 1.875 1.875 1.875h13.75c1.035 0 1.875-0.84 1.875-1.875v-16.25c0-1.035-0.84-1.875-1.875-1.875zM8.75 18.75c-0.691 0-1.25-0.559-1.25-1.25s0.559-1.25 1.25-1.25 1.25 0.559 1.25 1.25-0.559 1.25-1.25 1.25zM15.625 14.531c0 0.258-0.211 0.469-0.469 0.469h-12.813c-0.258 0-0.469-0.211-0.469-0.469v-12.188c0-0.258 0.211-0.469 0.469-0.469h12.813c0.258 0 0.469 0.211 0.469 0.469v12.188z"></path>
</svg>
