<svg xmlns="http://www.w3.org/2000/svg" width="23" height="20" viewBox="0 0 23 20">
<path d="M5 6.25h12.5v7.5h-12.5v-7.5zM20.625 10c0 1.036 0.839 1.875 1.875 1.875v3.75c0 1.036-0.839 1.875-1.875 1.875h-18.75c-1.036 0-1.875-0.839-1.875-1.875v-3.75c1.036 0 1.875-0.839 1.875-1.875s-0.839-1.875-1.875-1.875v-3.75c0-1.036 0.839-1.875 1.875-1.875h18.75c1.036 0 1.875 0.839 1.875 1.875v3.75c-1.036 0-1.875 0.839-1.875 1.875zM18.75 5.938c0-0.518-0.42-0.938-0.938-0.938h-13.125c-0.518 0-0.938 0.42-0.938 0.938v8.125c0 0.518 0.42 0.938 0.938 0.938h13.125c0.518 0 0.938-0.42 0.938-0.938v-8.125z"></path>
</svg>
