<svg xmlns="http://www.w3.org/2000/svg" width="25" height="20" viewBox="0 0 25 20">
<path d="M10.077 10.663l-7.592 7.592c-0.366 0.366-0.96 0.366-1.326 0l-0.885-0.885c-0.366-0.366-0.366-0.958-0.002-1.324l6.016-6.045-6.016-6.045c-0.365-0.366-0.364-0.959 0.002-1.324l0.885-0.885c0.366-0.366 0.96-0.366 1.326 0l7.592 7.592c0.366 0.366 0.366 0.96 0 1.326zM25 17.813v-1.25c0-0.518-0.42-0.938-0.938-0.938h-11.875c-0.518 0-0.938 0.42-0.938 0.938v1.25c0 0.518 0.42 0.938 0.938 0.938h11.875c0.518 0 0.938-0.42 0.938-0.938z"></path>
</svg>
