<svg xmlns="http://www.w3.org/2000/svg" width="18" height="20" viewBox="0 0 18 20">
<path d="M0.625 1.25h16.25c0.345 0 0.625 0.28 0.625 0.625v3.75c0 0.345-0.28 0.625-0.625 0.625h-1.387c-0.345 0-0.625-0.28-0.625-0.625v-1.875h-4.639v5h1.338c0.345 0 0.625 0.28 0.625 0.625v1.25c0 0.345-0.28 0.625-0.625 0.625h-5.625c-0.345 0-0.625-0.28-0.625-0.625v-1.25c0-0.345 0.28-0.625 0.625-0.625h1.338v-5h-4.639v1.875c0 0.345-0.28 0.625-0.625 0.625h-1.387c-0.345 0-0.625-0.28-0.625-0.625v-3.75c0-0.345 0.28-0.625 0.625-0.625zM17.317 14.558l-3.125-3.125c-0.364-0.364-1.067-0.169-1.067 0.442v1.875h-8.75v-1.875c0-0.559-0.676-0.833-1.067-0.442l-3.125 3.125c-0.244 0.244-0.244 0.64 0 0.884l3.125 3.125c0.364 0.364 1.067 0.169 1.067-0.442v-1.875h8.75v1.875c0 0.559 0.676 0.833 1.067 0.442l3.125-3.125c0.244-0.244 0.244-0.64 0-0.884z"></path>
</svg>
