<svg xmlns="http://www.w3.org/2000/svg" width="20" height="20" viewBox="0 0 20 20">
<path d="M5.833 8.438v3.125c0 0.518-0.42 0.938-0.938 0.938h-3.958c-0.518 0-0.938-0.42-0.938-0.938v-3.125c0-0.518 0.42-0.938 0.938-0.938h3.958c0.518 0 0.938 0.42 0.938 0.938zM0 14.688v3.125c0 0.518 0.42 0.938 0.938 0.938h3.958c0.518 0 0.938-0.42 0.938-0.938v-3.125c0-0.518-0.42-0.938-0.938-0.938h-3.958c-0.518 0-0.938 0.42-0.938 0.938zM4.896 1.25h-3.958c-0.518 0-0.938 0.42-0.938 0.938v3.125c0 0.518 0.42 0.938 0.938 0.938h3.958c0.518 0 0.938-0.42 0.938-0.938v-3.125c0-0.518-0.42-0.938-0.938-0.938zM8.021 18.75h11.042c0.518 0 0.938-0.42 0.938-0.938v-3.125c0-0.518-0.42-0.938-0.938-0.938h-11.042c-0.518 0-0.938 0.42-0.938 0.938v3.125c0 0.518 0.42 0.938 0.938 0.938zM7.083 2.188v3.125c0 0.518 0.42 0.938 0.938 0.938h11.042c0.518 0 0.938-0.42 0.938-0.938v-3.125c0-0.518-0.42-0.938-0.938-0.938h-11.042c-0.518 0-0.938 0.42-0.938 0.938zM8.021 12.5h11.042c0.518 0 0.938-0.42 0.938-0.938v-3.125c0-0.518-0.42-0.938-0.938-0.938h-11.042c-0.518 0-0.938 0.42-0.938 0.938v3.125c0 0.518 0.42 0.938 0.938 0.938z"></path>
</svg>
