<svg xmlns="http://www.w3.org/2000/svg" width="23" height="20" viewBox="0 0 23 20">
<path d="M2.957 18.75c-0.715-0-1.337-0.4-1.653-0.989l-0.005-0.010c-0.829-1.568-1.299-3.354-1.299-5.251 0-6.213 5.037-11.25 11.25-11.25s11.25 5.037 11.25 11.25c0 1.897-0.47 3.684-1.299 5.251-0.321 0.599-0.943 0.999-1.658 0.999h-16.586zM20 11.25c-0.69 0-1.25 0.56-1.25 1.25s0.56 1.25 1.25 1.25 1.25-0.56 1.25-1.25c0-0.69-0.56-1.25-1.25-1.25zM11.25 5c0.69 0 1.25-0.56 1.25-1.25s-0.56-1.25-1.25-1.25-1.25 0.56-1.25 1.25c0 0.69 0.56 1.25 1.25 1.25zM2.5 11.25c-0.69 0-1.25 0.56-1.25 1.25s0.56 1.25 1.25 1.25 1.25-0.56 1.25-1.25c0-0.69-0.56-1.25-1.25-1.25zM5.063 5.063c-0.69 0-1.25 0.56-1.25 1.25s0.56 1.25 1.25 1.25 1.25-0.56 1.25-1.25c0-0.69-0.56-1.25-1.25-1.25zM17.437 5.063c-0.69 0-1.25 0.56-1.25 1.25s0.56 1.25 1.25 1.25 1.25-0.56 1.25-1.25c0-0.69-0.56-1.25-1.25-1.25zM14.036 6.295c-0.493-0.158-1.021 0.114-1.179 0.607l-1.794 5.606c-1.293 0.096-2.313 1.174-2.313 2.492 0 1.381 1.119 2.5 2.5 2.5s2.5-1.119 2.5-2.5c0-0.772-0.35-1.463-0.901-1.921l1.794-5.605c0.158-0.493-0.114-1.021-0.607-1.179z"></path>
</svg>
