<svg xmlns="http://www.w3.org/2000/svg" width="20" height="20" viewBox="0 0 20 20">
<path d="M4.063 8.75h-3.125c-0.518 0-0.938 0.42-0.938 0.938v9.375c0 0.518 0.42 0.938 0.938 0.938h3.125c0.518 0 0.938-0.42 0.938-0.938v-9.375c0-0.518-0.42-0.938-0.938-0.938zM2.5 18.438c-0.518 0-0.938-0.42-0.938-0.938s0.42-0.938 0.938-0.938 0.938 0.42 0.938 0.938-0.42 0.938-0.938 0.938zM15 3.182c0 1.657-1.014 2.586-1.3 3.693h3.974c1.305 0 2.32 1.084 2.326 2.269 0.003 0.701-0.295 1.455-0.759 1.922l-0.004 0.004c0.384 0.912 0.322 2.189-0.364 3.104 0.339 1.012-0.003 2.254-0.64 2.92 0.168 0.687 0.088 1.272-0.24 1.743-0.797 1.145-2.773 1.162-4.444 1.162l-0.111-0c-1.886-0.001-3.43-0.687-4.67-1.239-0.623-0.277-1.438-0.621-2.057-0.632-0.255-0.005-0.46-0.213-0.46-0.469v-8.35c0-0.125 0.050-0.245 0.139-0.333 1.547-1.529 2.213-3.148 3.481-4.418 0.578-0.579 0.789-1.455 0.992-2.301 0.174-0.723 0.537-2.258 1.325-2.258 0.938 0 2.813 0.313 2.813 3.182z"></path>
</svg>
