<svg xmlns="http://www.w3.org/2000/svg" width="10" height="20" viewBox="0 0 10 20">
<path d="M8.75 3.75c0-2.071-1.679-3.75-3.75-3.75s-3.75 1.679-3.75 3.75v7.943c-0.772 0.875-1.244 2.023-1.25 3.281-0.014 2.746 2.218 5.007 4.964 5.026 0.012 0 0.024 0 0.036 0 2.762 0 5-2.238 5-5 0-1.268-0.472-2.425-1.25-3.307v-7.943zM5 18.125l-0.022-0c-1.713-0.012-3.111-1.427-3.102-3.141 0.007-1.327 0.753-2.018 1.25-2.581v-8.652c0-1.034 0.841-1.875 1.875-1.875s1.875 0.841 1.875 1.875v8.652c0.493 0.559 1.25 1.256 1.25 2.598 0 1.723-1.402 3.125-3.125 3.125zM7.5 15c0 1.381-1.119 2.5-2.5 2.5s-2.5-1.119-2.5-2.5c0-0.925 0.503-1.732 1.25-2.165v-9.085c0-0.69 0.56-1.25 1.25-1.25s1.25 0.56 1.25 1.25v9.085c0.747 0.432 1.25 1.24 1.25 2.165z"></path>
</svg>
