<svg xmlns="http://www.w3.org/2000/svg" width="18" height="20" viewBox="0 0 18 20">
<path d="M0 3.281v-1.094c0-0.52 0.418-0.938 0.938-0.938h4.375l0.367-0.73c0.156-0.32 0.48-0.52 0.836-0.52h4.465c0.355 0 0.68 0.199 0.84 0.52l0.367 0.73h4.375c0.52 0 0.938 0.418 0.938 0.938v1.094c0 0.258-0.211 0.469-0.469 0.469h-16.563c-0.258 0-0.469-0.211-0.469-0.469zM16.219 5.496l-0.797 12.746c-0.063 0.988-0.883 1.758-1.871 1.758h-9.602c-0.988 0-1.809-0.77-1.871-1.758l-0.797-12.746c-0.016-0.27 0.199-0.496 0.469-0.496h14.004c0.266 0 0.48 0.227 0.465 0.496z"></path>
</svg>
