<svg xmlns="http://www.w3.org/2000/svg" width="23" height="20" viewBox="0 0 23 20">
<path d="M0.625 1.25h11.25c0.345 0 0.625 0.28 0.625 0.625v3.75c0 0.345-0.28 0.625-0.625 0.625h-1.387c-0.345 0-0.625-0.28-0.625-0.625v-1.875h-2.139v12.5h1.338c0.345 0 0.625 0.28 0.625 0.625v1.25c0 0.345-0.28 0.625-0.625 0.625h-5.625c-0.345 0-0.625-0.28-0.625-0.625v-1.25c0-0.345 0.28-0.625 0.625-0.625h1.338v-12.5h-2.139v1.875c0 0.345-0.28 0.625-0.625 0.625h-1.387c-0.345 0-0.625-0.28-0.625-0.625v-3.75c0-0.345 0.28-0.625 0.625-0.625zM19.192 1.433l3.125 3.125c0.391 0.391 0.117 1.067-0.442 1.067h-1.875v8.75h1.875c0.611 0 0.806 0.703 0.442 1.067l-3.125 3.125c-0.244 0.244-0.64 0.244-0.884 0l-3.125-3.125c-0.391-0.391-0.117-1.067 0.442-1.067h1.875v-8.75h-1.875c-0.611 0-0.806-0.703-0.442-1.067l3.125-3.125c0.244-0.244 0.64-0.244 0.884 0z"></path>
</svg>
