<svg xmlns="http://www.w3.org/2000/svg" width="10" height="20" viewBox="0 0 10 20">
<path d="M7.5 15c0 1.381-1.119 2.5-2.5 2.5s-2.5-1.119-2.5-2.5c0-1.381 1.119-2.5 2.5-2.5s2.5 1.119 2.5 2.5zM8.75 11.693c0.778 0.881 1.25 2.039 1.25 3.307 0 2.762-2.238 5-5 5-0.012 0-0.024-0-0.036-0-2.746-0.019-4.978-2.28-4.964-5.026 0.006-1.258 0.477-2.405 1.25-3.281v-7.943c0-2.071 1.679-3.75 3.75-3.75s3.75 1.679 3.75 3.75v7.943zM8.125 15c0-1.341-0.757-2.039-1.25-2.598v-8.652c0-1.034-0.841-1.875-1.875-1.875s-1.875 0.841-1.875 1.875v8.652c-0.497 0.564-1.243 1.254-1.25 2.581-0.009 1.714 1.389 3.13 3.102 3.141l0.022 0c1.723 0 3.125-1.402 3.125-3.125z"></path>
</svg>
