<svg xmlns="http://www.w3.org/2000/svg" width="20" height="20" viewBox="0 0 20 20">
<path d="M0.21 4.056c5.411-5.411 14.177-5.403 19.581 0 0.237 0.237 0.276 0.605 0.101 0.886l-1.688 2.701c-0.129 0.203-0.352 0.337-0.607 0.337-0.096 0-0.187-0.019-0.271-0.053l0.005 0.002-3.376-1.35c-0.266-0.109-0.45-0.365-0.45-0.665 0-0.025 0.001-0.050 0.004-0.074l-0 0.003 0.232-2.325c-2.428-0.877-5.103-0.859-7.48 0l0.233 2.325c0.002 0.021 0.004 0.046 0.004 0.071 0 0.3-0.184 0.556-0.445 0.663l-0.005 0.002-3.376 1.35c-0.079 0.032-0.17 0.051-0.266 0.051-0.255 0-0.479-0.133-0.606-0.334l-0.002-0.003-1.688-2.701c-0.068-0.108-0.109-0.239-0.109-0.38 0-0.198 0.080-0.377 0.21-0.506v0zM3.75 12.031v-1.563c0-0.259-0.21-0.469-0.469-0.469h-1.563c-0.259 0-0.469 0.21-0.469 0.469v1.563c0 0.259 0.21 0.469 0.469 0.469h1.563c0.259 0 0.469-0.21 0.469-0.469zM7.5 12.031v-1.563c0-0.259-0.21-0.469-0.469-0.469h-1.563c-0.259 0-0.469 0.21-0.469 0.469v1.563c0 0.259 0.21 0.469 0.469 0.469h1.563c0.259 0 0.469-0.21 0.469-0.469zM11.25 12.031v-1.563c0-0.259-0.21-0.469-0.469-0.469h-1.563c-0.259 0-0.469 0.21-0.469 0.469v1.563c0 0.259 0.21 0.469 0.469 0.469h1.563c0.259 0 0.469-0.21 0.469-0.469zM15 12.031v-1.563c0-0.259-0.21-0.469-0.469-0.469h-1.563c-0.259 0-0.469 0.21-0.469 0.469v1.563c0 0.259 0.21 0.469 0.469 0.469h1.563c0.259 0 0.469-0.21 0.469-0.469zM18.75 12.031v-1.563c0-0.259-0.21-0.469-0.469-0.469h-1.563c-0.259 0-0.469 0.21-0.469 0.469v1.563c0 0.259 0.21 0.469 0.469 0.469h1.563c0.259 0 0.469-0.21 0.469-0.469zM5.625 15.781v-1.563c0-0.259-0.21-0.469-0.469-0.469h-1.563c-0.259 0-0.469 0.21-0.469 0.469v1.563c0 0.259 0.21 0.469 0.469 0.469h1.563c0.259 0 0.469-0.21 0.469-0.469zM9.375 15.781v-1.563c0-0.259-0.21-0.469-0.469-0.469h-1.563c-0.259 0-0.469 0.21-0.469 0.469v1.563c0 0.259 0.21 0.469 0.469 0.469h1.563c0.259 0 0.469-0.21 0.469-0.469zM13.125 15.781v-1.563c0-0.259-0.21-0.469-0.469-0.469h-1.563c-0.259 0-0.469 0.21-0.469 0.469v1.563c0 0.259 0.21 0.469 0.469 0.469h1.563c0.259 0 0.469-0.21 0.469-0.469zM16.875 15.781v-1.563c0-0.259-0.21-0.469-0.469-0.469h-1.563c-0.259 0-0.469 0.21-0.469 0.469v1.563c0 0.259 0.21 0.469 0.469 0.469h1.563c0.259 0 0.469-0.21 0.469-0.469zM3.75 19.531v-1.563c0-0.259-0.21-0.469-0.469-0.469h-1.563c-0.259 0-0.469 0.21-0.469 0.469v1.563c0 0.259 0.21 0.469 0.469 0.469h1.563c0.259 0 0.469-0.21 0.469-0.469zM15 19.531v-1.563c0-0.259-0.21-0.469-0.469-0.469h-9.063c-0.259 0-0.469 0.21-0.469 0.469v1.563c0 0.259 0.21 0.469 0.469 0.469h9.063c0.259 0 0.469-0.21 0.469-0.469zM18.75 19.531v-1.563c0-0.259-0.21-0.469-0.469-0.469h-1.563c-0.259 0-0.469 0.21-0.469 0.469v1.563c0 0.259 0.21 0.469 0.469 0.469h1.563c0.259 0 0.469-0.21 0.469-0.469z"></path>
</svg>
