<svg xmlns="http://www.w3.org/2000/svg" width="15" height="20" viewBox="0 0 15 20">
<path d="M14.531 0h-3.086c-0.418 0-0.625 0.504-0.332 0.801l0.66 0.66-3.152 3.152c-0.867-0.547-1.895-0.863-2.996-0.863-3.105 0-5.625 2.52-5.625 5.625 0 2.676 1.871 4.918 4.375 5.484v1.078h-1.406c-0.258 0-0.469 0.211-0.469 0.469v1.563c0 0.258 0.211 0.469 0.469 0.469h1.406v1.094c0 0.258 0.211 0.469 0.469 0.469h1.563c0.258 0 0.469-0.211 0.469-0.469v-1.094h1.406c0.258 0 0.469-0.211 0.469-0.469v-1.563c0-0.258-0.211-0.469-0.469-0.469h-1.406v-1.078c2.504-0.57 4.375-2.809 4.375-5.484 0-1.102-0.316-2.129-0.863-2.996l3.152-3.152 0.66 0.66c0.297 0.297 0.801 0.086 0.801-0.332v-3.086c0-0.258-0.211-0.469-0.469-0.469zM5.625 12.5c-1.723 0-3.125-1.402-3.125-3.125s1.402-3.125 3.125-3.125 3.125 1.402 3.125 3.125-1.402 3.125-3.125 3.125z"></path>
</svg>
