<svg xmlns="http://www.w3.org/2000/svg" width="15" height="20" viewBox="0 0 15 20">
<path d="M11.642 8.37l-0.478-4.62h1.649c0.518 0 0.938-0.42 0.938-0.938v-1.875c0-0.518-0.42-0.938-0.938-0.938h-10.625c-0.518 0-0.938 0.42-0.938 0.938v1.875c0 0.518 0.42 0.938 0.938 0.938h1.649l-0.478 4.62c-1.895 0.881-3.358 2.461-3.358 4.443 0 0.518 0.42 0.938 0.938 0.938h5.313v4.063c0 0.049 0.011 0.096 0.033 0.14l0.938 1.875c0.115 0.23 0.444 0.23 0.559 0l0.938-1.875c0.021-0.041 0.033-0.089 0.033-0.14v0-4.063h5.312c0.518 0 0.938-0.42 0.938-0.938-0-1.999-1.484-3.571-3.358-4.443z"></path>
</svg>
