<svg xmlns="http://www.w3.org/2000/svg" width="25" height="20" viewBox="0 0 25 20">
<path d="M3.794 6.372h-3.325c-0.259 0-0.469-0.21-0.469-0.469v-1.685c0-0.259 0.21-0.469 0.469-0.469h9.709c0.259 0 0.469 0.21 0.469 0.469v1.685c0 0.259-0.21 0.469-0.469 0.469h-3.325v9.409c0 0.259-0.21 0.469-0.469 0.469h-2.122c-0.259 0-0.469-0.21-0.469-0.469v-9.409zM12.884 3.75h2.556c0.204 0 0.378 0.131 0.442 0.313l0.001 0.003 1.709 4.964c0.28 0.804 0.629 2.063 0.629 2.063h0.035s0.35-1.259 0.629-2.063l1.709-4.964c0.065-0.186 0.239-0.316 0.443-0.316h2.555c0 0 0 0 0 0 0.246 0 0.447 0.189 0.467 0.429l0 0.002 0.938 11.563c0.022 0.273-0.193 0.507-0.467 0.507h-2.113c-0.248 0-0.45-0.192-0.468-0.435l-0-0.001-0.355-5.193c-0.070-0.944 0-2.098 0-2.098h-0.035s-0.42 1.311-0.699 2.098l-1.199 3.31c-0.067 0.182-0.239 0.309-0.441 0.309h-1.965c-0.202 0-0.373-0.127-0.44-0.306l-0.001-0.003-1.199-3.31c-0.28-0.787-0.699-2.098-0.699-2.098h-0.035s0.070 1.154 0 2.098l-0.355 5.193c-0.017 0.246-0.221 0.437-0.468 0.437h-2.13c-0.274 0-0.49-0.234-0.467-0.507l0.954-11.563c0.021-0.242 0.222-0.43 0.467-0.43 0 0 0 0 0 0v0z"></path>
</svg>
