<svg xmlns="http://www.w3.org/2000/svg" width="20" height="20" viewBox="0 0 20 20">
<path d="M19.375 5v0.625c0 0.173-0.14 0.313-0.313 0.313v0h-0.938v0.469c0 0.259-0.21 0.469-0.469 0.469h-15.313c-0.259 0-0.469-0.21-0.469-0.469v-0.469h-0.938c-0.173 0-0.313-0.14-0.313-0.313v0-0.625c0-0.129 0.079-0.241 0.191-0.288l0.002-0.001 9.063-3.437c0.035-0.015 0.076-0.024 0.119-0.024s0.084 0.009 0.122 0.025l-0.002-0.001 9.063 3.437c0.114 0.048 0.193 0.159 0.193 0.289v0zM18.438 16.875h-16.875c-0.518 0-0.938 0.42-0.938 0.938v0.625c0 0.173 0.14 0.313 0.313 0.313v0h18.125c0.173 0 0.313-0.14 0.313-0.313v0-0.625c0-0.518-0.42-0.938-0.938-0.938zM3.75 7.5v7.5h-1.406c-0.259 0-0.469 0.21-0.469 0.469v0.781h16.25v-0.781c0-0.259-0.21-0.469-0.469-0.469h-1.406v-7.5h-2.5v7.5h-2.5v-7.5h-2.5v7.5h-2.5v-7.5h-2.5z"></path>
</svg>
