<svg xmlns="http://www.w3.org/2000/svg" width="20" height="20" viewBox="0 0 20 20">
<path d="M8.294 8.763h-7.826c-0.259 0-0.469-0.21-0.469-0.469v-7.826c0-0.259 0.21-0.469 0.469-0.469h1.875c0.259 0 0.469 0.21 0.469 0.469v3.051c1.788-1.986 4.385-3.228 7.272-3.207 5.348 0.039 9.627 4.36 9.616 9.708-0.011 5.341-4.344 9.666-9.687 9.666-2.503 0-4.785-0.95-6.504-2.508-0.199-0.181-0.208-0.49-0.018-0.68l1.327-1.327c0.175-0.175 0.456-0.184 0.641-0.021 1.212 1.073 2.807 1.724 4.555 1.724 3.8 0 6.875-3.075 6.875-6.875s-3.075-6.875-6.875-6.875c-2.285 0-4.308 1.112-5.558 2.826h3.839c0.259 0 0.469 0.21 0.469 0.469v1.875c0 0.259-0.21 0.469-0.469 0.469z"></path>
</svg>
