<svg xmlns="http://www.w3.org/2000/svg" width="25" height="20" viewBox="0 0 25 20">
<path d="M8.75 1.25c3.020 0 5.469 2.448 5.469 5.469s-2.448 5.469-5.469 5.469-5.469-2.448-5.469-5.469 2.448-5.469 5.469-5.469zM15.015 12.66l-2.437-0.609c-2.561 1.842-5.665 1.431-7.654 0l-2.437 0.609c-1.461 0.365-2.485 1.678-2.485 3.183v1.266c0 0.906 0.735 1.641 1.641 1.641h14.219c0.906 0 1.641-0.735 1.641-1.641v-1.266c0-1.506-1.025-2.818-2.485-3.183zM22.965 10l1.898-1.898c0.183-0.183 0.183-0.479 0-0.661l-1.053-1.053c-0.183-0.183-0.479-0.183-0.661 0l-1.898 1.898-1.898-1.898c-0.183-0.183-0.479-0.183-0.661 0l-1.053 1.053c-0.183 0.183-0.183 0.479 0 0.661l1.898 1.898-1.898 1.898c-0.183 0.183-0.183 0.479 0 0.661l1.053 1.053c0.183 0.183 0.479 0.183 0.661 0l1.898-1.898 1.898 1.898c0.183 0.183 0.479 0.183 0.661 0l1.053-1.053c0.183-0.183 0.183-0.479 0-0.661l-1.898-1.898z"></path>
</svg>
