<svg xmlns="http://www.w3.org/2000/svg" width="23" height="20" viewBox="0 0 23 20">
<path d="M21.758 10.454c-2.009-1.766-4.202-1.707-6.194 1.2-0.207 0.307-0.582 0.28-0.771 0-0.097-0.142-1.259-2.375-3.543-2.375-1.788 0-2.756 1.226-3.543 2.375-0.189 0.28-0.564 0.307-0.771 0-1.988-2.902-4.165-2.985-6.194-1.2-0.399 0.323-0.817-0.043-0.73-0.37 1.244-4.827 6.181-7.56 11.239-7.56 5.031 0 10.021 2.733 11.239 7.56 0.086 0.325-0.329 0.695-0.73 0.37zM10 10.195v6.055c0 0.689-0.561 1.25-1.25 1.25s-1.25-0.561-1.25-1.25c0-0.69-0.56-1.25-1.25-1.25s-1.25 0.56-1.25 1.25c0 2.068 1.682 3.75 3.75 3.75s3.75-1.682 3.75-3.75v-6.043c-0.853-0.422-1.774-0.38-2.5-0.011zM12.5 1.953v-0.703c0-0.69-0.56-1.25-1.25-1.25s-1.25 0.56-1.25 1.25v0.703c0.374-0.034 0.809-0.054 1.248-0.054 0.441 0 0.877 0.020 1.307 0.058l-0.056-0.004z"></path>
</svg>
