<svg xmlns="http://www.w3.org/2000/svg" width="20" height="20" viewBox="0 0 20 20">
<path d="M10 1.875c4.49 0 8.125 3.634 8.125 8.125s-3.634 8.125-8.125 8.125c-4.49 0-8.125-3.634-8.125-8.125s3.634-8.125 8.125-8.125zM10 0.313c-5.35 0-9.688 4.337-9.688 9.688s4.337 9.688 9.688 9.688 9.688-4.337 9.688-9.688-4.337-9.688-9.688-9.688zM10 2.5c-4.142 0-7.5 3.358-7.5 7.5s3.358 7.5 7.5 7.5 7.5-3.358 7.5-7.5-3.358-7.5-7.5-7.5zM10 4.219c0.777 0 1.406 0.63 1.406 1.406s-0.63 1.406-1.406 1.406-1.406-0.63-1.406-1.406 0.63-1.406 1.406-1.406zM14.599 8.048c-1.122 0.265-2.168 0.498-3.209 0.617 0.033 3.946 0.481 4.807 0.978 6.079 0.141 0.362-0.037 0.769-0.399 0.911s-0.769-0.037-0.911-0.399c-0.34-0.871-0.667-1.587-0.87-3.068h-0.378c-0.202 1.479-0.529 2.196-0.87 3.068-0.141 0.362-0.549 0.54-0.911 0.399s-0.54-0.549-0.399-0.911c0.497-1.271 0.945-2.131 0.978-6.079-1.040-0.119-2.087-0.353-3.209-0.617-0.336-0.079-0.544-0.416-0.465-0.752s0.416-0.544 0.752-0.465c3.777 0.892 4.855 0.89 8.624 0 0.336-0.079 0.673 0.129 0.752 0.465s-0.129 0.673-0.465 0.752z"></path>
</svg>
