<svg xmlns="http://www.w3.org/2000/svg" width="20" height="20" viewBox="0 0 20 20">
<path d="M0.313 10c0-5.35 4.337-9.688 9.688-9.688s9.688 4.337 9.688 9.688-4.337 9.688-9.688 9.688-9.688-4.337-9.688-9.688zM3.143 14.917c1.531 2.132 4.032 3.521 6.857 3.521s5.326-1.389 6.857-3.521c-0.123-1.054-0.885-1.939-1.935-2.202l-1.265-0.316c-1.018 0.874-2.301 1.351-3.658 1.351s-2.639-0.477-3.658-1.351l-1.265 0.316c-1.050 0.262-1.812 1.147-1.935 2.202zM5.625 8.125c0 2.416 1.959 4.375 4.375 4.375s4.375-1.959 4.375-4.375-1.959-4.375-4.375-4.375-4.375 1.959-4.375 4.375z"></path>
</svg>
