<svg xmlns="http://www.w3.org/2000/svg" width="18" height="20" viewBox="0 0 18 20">
<path d="M8.76 15.166c-3.581 0-6.117-1.999-6.117-5.914v-6.752h-1.105c-0.345 0-0.625-0.28-0.625-0.625v-1.25c0-0.345 0.28-0.625 0.625-0.625h5.367c0.345 0 0.625 0.28 0.625 0.625v1.25c0 0.345-0.28 0.625-0.625 0.625h-1.126v6.752c0 2.098 1.106 3.103 2.981 3.103 1.835 0 2.961-0.994 2.961-3.124v-6.732h-1.105c-0.345 0-0.625-0.28-0.625-0.625v-1.25c0-0.345 0.28-0.625 0.625-0.625h5.346c0.345 0 0.625 0.28 0.625 0.625v1.25c0 0.345-0.28 0.625-0.625 0.625h-1.105v6.752c0 3.883-2.534 5.914-6.097 5.914zM0.625 17.5h16.25c0.345 0 0.625 0.28 0.625 0.625v1.25c0 0.345-0.28 0.625-0.625 0.625h-16.25c-0.345 0-0.625-0.28-0.625-0.625v-1.25c0-0.345 0.28-0.625 0.625-0.625z"></path>
</svg>
