<svg xmlns="http://www.w3.org/2000/svg" width="20" height="20" viewBox="0 0 20 20">
<path d="M11.563 15h-3.125c-0.52 0-0.938-0.418-0.938-0.938v-6.563h-3.426c-0.695 0-1.043-0.84-0.551-1.332l5.941-5.945c0.293-0.293 0.773-0.293 1.066 0l5.945 5.945c0.492 0.492 0.145 1.332-0.551 1.332h-3.426v6.563c0 0.52-0.418 0.938-0.938 0.938zM20 14.688v4.375c0 0.52-0.418 0.938-0.938 0.938h-18.125c-0.52 0-0.938-0.418-0.938-0.938v-4.375c0-0.52 0.418-0.938 0.938-0.938h5.313v0.313c0 1.207 0.98 2.188 2.188 2.188h3.125c1.207 0 2.188-0.98 2.188-2.188v-0.313h5.313c0.52 0 0.938 0.418 0.938 0.938zM15.156 18.125c0-0.43-0.352-0.781-0.781-0.781s-0.781 0.352-0.781 0.781 0.352 0.781 0.781 0.781 0.781-0.352 0.781-0.781zM17.656 18.125c0-0.43-0.352-0.781-0.781-0.781s-0.781 0.352-0.781 0.781 0.352 0.781 0.781 0.781 0.781-0.352 0.781-0.781z"></path>
</svg>
