<svg xmlns="http://www.w3.org/2000/svg" width="18" height="20" viewBox="0 0 18 20">
<path d="M8.75 0c3.020 0 5.469 2.448 5.469 5.469s-2.448 5.469-5.469 5.469-5.469-2.448-5.469-5.469 2.448-5.469 5.469-5.469zM3.125 16.25c0 0.689 0.561 1.25 1.25 1.25s1.25-0.561 1.25-1.25-0.561-1.25-1.25-1.25-1.25 0.561-1.25 1.25zM14.659 11.321l-0.909-0.227v1.469c1.425 0.29 2.5 1.553 2.5 3.062v2.316c0 0 0 0 0 0 0 0.226-0.16 0.415-0.374 0.459l-0.003 0.001-1.228 0.246c-0.254 0.051-0.501-0.114-0.552-0.368l-0.061-0.306c-0.051-0.254 0.114-0.501 0.368-0.552l0.6-0.12v-1.675c0-1.046-0.861-1.895-1.911-1.875-1.026 0.019-1.839 0.879-1.839 1.906v1.644l0.6 0.12c0.254 0.051 0.418 0.298 0.368 0.552l-0.061 0.306c-0.051 0.254-0.298 0.418-0.552 0.368l-1.228-0.246c-0.216-0.044-0.377-0.233-0.377-0.46v0-2.316c0-1.509 1.075-2.772 2.5-3.062v-1.708c-2.513 1.756-5.528 1.373-7.5 0v2.974c1.113 0.288 1.928 1.324 1.872 2.538-0.059 1.28-1.098 2.32-2.378 2.38-1.433 0.067-2.619-1.079-2.619-2.497 0-1.163 0.798-2.143 1.875-2.421v-2.735l-0.909 0.227c-1.669 0.417-2.841 1.917-2.841 3.638v3.166c0 1.036 0.839 1.875 1.875 1.875h13.75c1.036 0 1.875-0.839 1.875-1.875v-3.166c0-1.721-1.171-3.221-2.841-3.638z"></path>
</svg>
