<svg xmlns="http://www.w3.org/2000/svg" width="25" height="20" viewBox="0 0 25 20">
<path d="M8.75 1.25c3.020 0 5.469 2.448 5.469 5.469s-2.448 5.469-5.469 5.469-5.469-2.448-5.469-5.469 2.448-5.469 5.469-5.469zM15.015 12.66l-2.437-0.609c-2.561 1.842-5.665 1.431-7.654 0l-2.437 0.609c-1.461 0.365-2.485 1.678-2.485 3.183v1.266c0 0.906 0.735 1.641 1.641 1.641h14.219c0.906 0 1.641-0.735 1.641-1.641v-1.266c0-1.506-1.025-2.818-2.485-3.183zM24.531 8.785h-2.691v-2.691c0-0.259-0.21-0.469-0.469-0.469h-1.493c-0.259 0-0.469 0.21-0.469 0.469l-0 2.691-2.691 0c-0.259 0-0.469 0.21-0.469 0.469v1.493c0 0.259 0.21 0.469 0.469 0.469l2.691 0 0 2.691c0 0.259 0.21 0.469 0.469 0.469h1.493c0.259 0 0.469-0.21 0.469-0.469l0-2.691 2.691-0c0.259 0 0.469-0.21 0.469-0.469v-1.493c0-0.259-0.21-0.469-0.469-0.469z"></path>
</svg>
