<svg xmlns="http://www.w3.org/2000/svg" width="16" height="20" viewBox="0 0 16 20">
<path d="M8.121 0.594c0.031 0.184 0.629 3.691 0.629 5.031 0 2.043-1.086 3.5-2.691 4.086l0.504 9.301c0.027 0.535-0.398 0.988-0.938 0.988h-2.5c-0.535 0-0.965-0.449-0.938-0.988l0.504-9.301c-1.609-0.586-2.691-2.047-2.691-4.086 0-1.344 0.598-4.848 0.629-5.031 0.125-0.793 1.77-0.805 1.871 0.043v5.516c0.051 0.133 0.59 0.125 0.625 0 0.055-0.988 0.309-5.438 0.313-5.539 0.129-0.813 1.746-0.813 1.871 0 0.008 0.105 0.258 4.551 0.313 5.539 0.035 0.125 0.578 0.133 0.625 0v-5.516c0.102-0.844 1.75-0.836 1.875-0.043zM12.777 11.754l-0.586 7.23c-0.047 0.547 0.387 1.016 0.934 1.016h2.188c0.52 0 0.938-0.418 0.938-0.938v-18.125c0-0.516-0.418-0.938-0.938-0.938-3.223 0-8.648 6.973-2.535 11.754z"></path>
</svg>
