<svg xmlns="http://www.w3.org/2000/svg" width="20" height="20" viewBox="0 0 20 20">
<path d="M11.878 15.856c0.183 0.183 0.183 0.48 0 0.663l-1.745 1.745c-2.315 2.315-6.082 2.315-8.397 0s-2.315-6.082 0-8.397l1.745-1.745c0.183-0.183 0.48-0.183 0.663 0l1.547 1.547c0.183 0.183 0.183 0.48 0 0.663l-1.745 1.745c-1.097 1.097-1.097 2.881 0 3.977s2.881 1.097 3.977 0l1.745-1.745c0.183-0.183 0.48-0.183 0.663 0l1.547 1.547zM9.669 5.691c0.183 0.183 0.48 0.183 0.663 0l1.745-1.745c1.097-1.097 2.881-1.097 3.978 0s1.097 2.881 0 3.977l-1.745 1.745c-0.183 0.183-0.183 0.48 0 0.663l1.547 1.547c0.183 0.183 0.48 0.183 0.663 0l1.745-1.745c2.315-2.315 2.315-6.082 0-8.397s-6.082-2.315-8.397 0l-1.745 1.745c-0.183 0.183-0.183 0.48 0 0.663l1.547 1.547zM18.842 19.725l0.884-0.884c0.366-0.366 0.366-0.96 0-1.326l-17.241-17.241c-0.366-0.366-0.96-0.366-1.326 0l-0.884 0.884c-0.366 0.366-0.366 0.96 0 1.326l17.241 17.241c0.366 0.366 0.96 0.366 1.326 0z"></path>
</svg>
