<svg xmlns="http://www.w3.org/2000/svg" width="25" height="20" viewBox="0 0 25 20">
<path d="M12.5 2.5c2.265 0 4.102 1.836 4.102 4.102s-1.836 4.102-4.102 4.102-4.102-1.836-4.102-4.102 1.836-4.102 4.102-4.102zM16.932 10.991l-1.562-0.39c-1.921 1.381-4.249 1.073-5.741 0l-1.562 0.39c-1.252 0.313-2.13 1.438-2.13 2.729v2.374c0 0.777 0.63 1.406 1.406 1.406h10.313c0.777 0 1.406-0.63 1.406-1.406v-2.374c0-1.291-0.878-2.416-2.13-2.729zM20.625 11.719c1.51 0 2.734-1.224 2.734-2.734s-1.224-2.734-2.734-2.734-2.734 1.224-2.734 2.734 1.224 2.734 2.734 2.734zM4.375 11.719c1.51 0 2.734-1.224 2.734-2.734s-1.224-2.734-2.734-2.734-2.734 1.224-2.734 2.734 1.224 2.734 2.734 2.734zM5.313 16.094v-2.374c0-0.647 0.179-1.258 0.496-1.781-1.171 0.575-2.474 0.34-3.347-0.288l-1.041 0.26c-0.835 0.209-1.42 0.959-1.42 1.819v1.583c0 0.518 0.42 0.938 0.938 0.938h4.382c-0.004-0.046-0.006-0.101-0.007-0.156v-0zM23.58 11.911l-1.041-0.26c-1.091 0.785-2.379 0.751-3.351 0.282 0.319 0.525 0.5 1.138 0.5 1.787v2.374c0 0.053-0.003 0.105-0.007 0.156h4.382c0.518 0 0.938-0.42 0.938-0.938v-1.583c0-0.86-0.586-1.61-1.42-1.819z"></path>
</svg>
