<svg xmlns="http://www.w3.org/2000/svg" width="18" height="20" viewBox="0 0 18 20">
<path d="M15.189 11.536l0.819-2.15c0.117-0.307-0.11-0.636-0.438-0.636h-2.273c0.291-0.634 0.454-1.34 0.454-2.083 0-0.142-0.006-0.282-0.018-0.421 1.544-0.305 2.518-0.75 2.518-1.246 0-0.518-1.064-0.981-2.732-1.287-0.359-1.281-1.062-2.57-1.59-3.236-0.369-0.465-1.011-0.611-1.542-0.345l-1.076 0.538c-0.163 0.083-0.355 0.132-0.559 0.132s-0.396-0.049-0.566-0.135l0.007 0.003-1.076-0.538c-0.531-0.266-1.173-0.12-1.542 0.345-0.529 0.666-1.232 1.955-1.59 3.236-1.669 0.306-2.732 0.769-2.732 1.287 0 0.495 0.973 0.94 2.518 1.246-0.011 0.126-0.018 0.273-0.018 0.421v0c0 0.744 0.162 1.449 0.453 2.083h-2.243c-0.337 0-0.563 0.344-0.431 0.653l0.895 2.088c-1.417 0.535-2.425 1.904-2.425 3.509v3.125c0 1.036 0.839 1.875 1.875 1.875h13.75c1.036 0 1.875-0.839 1.875-1.875v-3.125c0-1.561-0.954-2.9-2.311-3.464zM7.188 19.063l-1.875-7.5 1.875 0.938 0.938 1.563-0.938 5zM10.313 19.063l-0.938-5 0.938-1.563 1.875-0.938-1.875 7.5zM12.452 7.197c-0 0.002-0.168 0.126-0.2 0.225-0.151 0.463-0.274 0.96-0.645 1.303-0.393 0.364-1.873 0.875-2.5-0.978-0.111-0.328-0.603-0.328-0.714 0-0.663 1.96-2.188 1.266-2.5 0.978-0.371-0.343-0.494-0.84-0.645-1.303-0.032-0.099-0.2-0.224-0.2-0.225-0.022-0.114-0.038-0.23-0.048-0.346-0.012-0.15 0.394-0.143 0.433-0.146 1.027-0.091 2.043-0.023 3.048 0.215 0.1 0.024 0.451 0.021 0.539 0 1.005-0.237 2.020-0.306 3.048-0.215 0.039 0.003 0.445-0.004 0.433 0.146-0.009 0.116-0.026 0.231-0.048 0.346z"></path>
</svg>
