<svg xmlns="http://www.w3.org/2000/svg" width="20" height="20" viewBox="0 0 20 20">
<path d="M11.25 6.875c0-3.105-2.52-5.625-5.625-5.625s-5.625 2.52-5.625 5.625c0 2.676 1.871 4.918 4.375 5.484v2.016h-1.406c-0.258 0-0.469 0.211-0.469 0.469v1.563c0 0.258 0.211 0.469 0.469 0.469h1.406v1.406c0 0.258 0.211 0.469 0.469 0.469h1.563c0.258 0 0.469-0.211 0.469-0.469v-1.406h1.406c0.258 0 0.469-0.211 0.469-0.469v-1.563c0-0.258-0.211-0.469-0.469-0.469h-1.406v-2.016c2.504-0.566 4.375-2.809 4.375-5.484zM2.5 6.875c0-1.723 1.402-3.125 3.125-3.125s3.125 1.402 3.125 3.125-1.402 3.125-3.125 3.125-3.125-1.402-3.125-3.125zM15.625 12.359v2.016h1.406c0.258 0 0.469 0.211 0.469 0.469v1.563c0 0.258-0.211 0.469-0.469 0.469h-1.406v1.406c0 0.258-0.211 0.469-0.469 0.469h-1.563c-0.258 0-0.469-0.211-0.469-0.469v-1.406h-1.406c-0.258 0-0.469-0.211-0.469-0.469v-1.563c0-0.258 0.211-0.469 0.469-0.469h1.406v-2.016c-0.828-0.188-1.586-0.559-2.234-1.066 0.547-0.652 0.977-1.406 1.254-2.23 0.566 0.578 1.355 0.938 2.23 0.938 1.723 0 3.125-1.402 3.125-3.125s-1.402-3.125-3.125-3.125c-0.871 0-1.664 0.359-2.23 0.938-0.277-0.824-0.703-1.578-1.254-2.23 0.961-0.754 2.168-1.207 3.484-1.207 3.105 0 5.625 2.52 5.625 5.625 0 2.676-1.871 4.918-4.375 5.484z"></path>
</svg>
