<svg xmlns="http://www.w3.org/2000/svg" width="19" height="20" viewBox="0 0 19 20">
<path d="M8.723 9.508c-0.035-1.445-0.336-2.844-0.887-4.129-3.547 1.656-6.152 4.781-7.043 8.469 0.523 1.203 1.285 2.277 2.223 3.168 0.887-3.094 2.898-5.773 5.707-7.508zM7.281 4.258c-0.586-1.031-1.348-1.957-2.242-2.762-3.555 1.945-5.656 5.973-4.883 10.242 1.305-3.246 3.844-5.938 7.125-7.48zM14.609 10.707c0.336-3.898-1.066-7.715-3.809-10.328-0.574-0.066-2.016-0.215-3.863 0.332 2.238 2.316 3.555 5.398 3.652 8.699 1.27 0.691 2.629 1.133 4.020 1.297zM9.738 11.078c-1.234 0.754-2.293 1.715-3.133 2.836 3.203 2.238 7.207 2.934 10.84 1.867 0.77-1.031 1.336-2.219 1.648-3.512-1.039 0.258-2.098 0.406-3.16 0.406-2.133-0.004-4.254-0.551-6.195-1.598zM5.898 14.973c-0.594 1.016-1.004 2.125-1.254 3.289 1.469 0.898 3.191 1.426 5.043 1.426 2.383 0 4.559-0.863 6.246-2.289-4.41 0.629-7.941-0.969-10.035-2.426zM12.941 0.887c2.16 2.75 3.223 6.297 2.914 9.906 1.184 0.008 2.363-0.188 3.504-0.555 0-0.078 0.012-0.156 0.012-0.234 0-4.211-2.684-7.777-6.43-9.117z"></path>
</svg>
