<svg xmlns="http://www.w3.org/2000/svg" width="23" height="20" viewBox="0 0 23 20">
<path d="M10 3.438v13.124c0 0.837-1.013 1.25-1.6 0.663l-3.475-3.475h-3.987c-0.518 0-0.938-0.42-0.938-0.938v-5.625c0-0.518 0.42-0.938 0.938-0.938h3.987l3.475-3.475c0.586-0.586 1.6-0.175 1.6 0.663zM17.112 0.396c-0.589-0.36-1.358-0.175-1.719 0.414s-0.175 1.358 0.414 1.719c2.512 1.536 4.193 4.306 4.193 7.471 0 2.868-1.409 5.558-3.77 7.196-0.567 0.393-0.708 1.172-0.315 1.74s1.173 0.708 1.739 0.315c3.034-2.104 4.845-5.562 4.845-9.25 0-4.033-2.132-7.612-5.388-9.604zM18.75 10c0-2.678-1.412-5.069-3.592-6.402-0.589-0.36-1.358-0.175-1.719 0.414s-0.175 1.358 0.414 1.719c1.5 0.917 2.396 2.514 2.396 4.27 0 1.639-0.805 3.177-2.155 4.112-0.567 0.393-0.708 1.172-0.315 1.74 0.243 0.35 0.632 0.538 1.028 0.538 0 0 0 0 0 0 0.266 0 0.513-0.083 0.715-0.226l-0.004 0.003c2.022-1.403 3.23-3.708 3.23-6.167zM15 10c0-1.317-0.671-2.514-1.796-3.201-0.589-0.36-1.358-0.174-1.718 0.415s-0.174 1.358 0.415 1.718c0.375 0.229 0.6 0.629 0.6 1.068-0 0.425-0.212 0.8-0.535 1.026l-0.004 0.003c-0.567 0.393-0.708 1.172-0.315 1.739s1.172 0.708 1.739 0.315c1.011-0.701 1.615-1.854 1.615-3.083z"></path>
</svg>
