<svg xmlns="http://www.w3.org/2000/svg" width="11" height="20" viewBox="0 0 11 20">
<path d="M11.25 6.875c0-3.105-2.52-5.625-5.625-5.625s-5.625 2.52-5.625 5.625c0 2.676 1.871 4.918 4.375 5.484v2.016h-1.406c-0.258 0-0.469 0.211-0.469 0.469v1.563c0 0.258 0.211 0.469 0.469 0.469h1.406v1.406c0 0.258 0.211 0.469 0.469 0.469h1.563c0.258 0 0.469-0.211 0.469-0.469v-1.406h1.406c0.258 0 0.469-0.211 0.469-0.469v-1.563c0-0.258-0.211-0.469-0.469-0.469h-1.406v-2.016c2.504-0.566 4.375-2.809 4.375-5.484zM2.5 6.875c0-1.723 1.402-3.125 3.125-3.125s3.125 1.402 3.125 3.125-1.402 3.125-3.125 3.125-3.125-1.402-3.125-3.125z"></path>
</svg>
