<svg xmlns="http://www.w3.org/2000/svg" width="23" height="20" viewBox="0 0 23 20">
<path d="M22.031 0h-3.086c-0.418 0-0.625 0.504-0.332 0.801l0.66 0.66-1.902 1.902c-0.867-0.547-1.895-0.863-2.996-0.863-1.316 0-2.523 0.453-3.484 1.207 0.547 0.652 0.977 1.406 1.254 2.23 0.566-0.578 1.355-0.938 2.23-0.938 1.723 0 3.125 1.402 3.125 3.125s-1.402 3.125-3.125 3.125c-0.871 0-1.664-0.359-2.23-0.938-0.277 0.824-0.703 1.578-1.254 2.23 0.957 0.758 2.168 1.207 3.484 1.207 3.105 0 5.625-2.52 5.625-5.625 0-1.102-0.316-2.129-0.863-2.996l1.902-1.902 0.66 0.66c0.094 0.094 0.211 0.137 0.328 0.137 0.242 0 0.473-0.188 0.473-0.469v-3.086c0-0.258-0.211-0.469-0.469-0.469zM5.625 2.5c-3.105 0-5.625 2.52-5.625 5.625 0 2.676 1.871 4.918 4.375 5.484v2.016h-1.406c-0.258 0-0.469 0.211-0.469 0.469v1.563c0 0.258 0.211 0.469 0.469 0.469h1.406v1.406c0 0.258 0.211 0.469 0.469 0.469h1.563c0.258 0 0.469-0.211 0.469-0.469v-1.406h1.406c0.258 0 0.469-0.211 0.469-0.469v-1.563c0-0.258-0.211-0.469-0.469-0.469h-1.406v-2.016c2.504-0.57 4.375-2.809 4.375-5.484 0-3.105-2.52-5.625-5.625-5.625zM5.625 11.25c-1.723 0-3.125-1.402-3.125-3.125s1.402-3.125 3.125-3.125 3.125 1.402 3.125 3.125-1.402 3.125-3.125 3.125z"></path>
</svg>
