<svg xmlns="http://www.w3.org/2000/svg" width="15" height="20" viewBox="0 0 15 20">
<path d="M10 3.438v13.124c0 0.837-1.013 1.25-1.6 0.663l-3.475-3.475h-3.987c-0.518 0-0.938-0.42-0.938-0.938v-5.625c0-0.518 0.42-0.938 0.938-0.938h3.987l3.475-3.475c0.586-0.586 1.6-0.175 1.6 0.663zM15 10c0-1.317-0.671-2.514-1.796-3.201-0.589-0.36-1.358-0.174-1.718 0.415s-0.174 1.358 0.415 1.718c0.375 0.229 0.6 0.629 0.6 1.068-0 0.425-0.212 0.8-0.535 1.026l-0.004 0.003c-0.567 0.393-0.708 1.172-0.315 1.739s1.172 0.708 1.739 0.315c1.011-0.701 1.615-1.854 1.615-3.083z"></path>
</svg>
