<svg xmlns="http://www.w3.org/2000/svg" width="20" height="20" viewBox="0 0 20 20">
<path d="M20 1.875v11.25c0 1.035-0.84 1.875-1.875 1.875h-1.875v-8.125c0-1.723-1.402-3.125-3.125-3.125h-8.125v-1.875c0-1.035 0.84-1.875 1.875-1.875h11.25c1.035 0 1.875 0.84 1.875 1.875zM15 6.875v11.25c0 1.035-0.84 1.875-1.875 1.875h-11.25c-1.035 0-1.875-0.84-1.875-1.875v-11.25c0-1.035 0.84-1.875 1.875-1.875h11.25c1.035 0 1.875 0.84 1.875 1.875zM12.344 7.969c0-0.258-0.211-0.469-0.469-0.469h-8.906c-0.258 0-0.469 0.211-0.469 0.469v2.031h9.844v-2.031z"></path>
</svg>
