<svg xmlns="http://www.w3.org/2000/svg" width="20" height="20" viewBox="0 0 20 20">
<path d="M18.795 7.813c0.363 0 0.591 0.397 0.403 0.708-0.984 1.635-2.776 2.73-4.823 2.73-3.095 0-5.606-2.499-5.625-5.589-0.019-3.104 2.521-5.661 5.625-5.661 2.045 0 3.836 1.092 4.82 2.724 0.189 0.313-0.034 0.713-0.4 0.713h-4.108l-1.563 2.188 1.563 2.188h4.108zM12.090 11.445l-7.822 7.822c-0.976 0.976-2.559 0.976-3.536 0s-0.976-2.559 0-3.536l7.822-7.822c0.631 1.609 1.926 2.904 3.536 3.535zM4.063 16.875c0-0.518-0.42-0.938-0.938-0.938s-0.938 0.42-0.938 0.938 0.42 0.938 0.938 0.938 0.938-0.42 0.938-0.938z"></path>
</svg>
