<svg xmlns="http://www.w3.org/2000/svg" width="25" height="20" viewBox="0 0 25 20">
<path d="M15 16.25c0 1.381-1.119 2.5-2.5 2.5s-2.5-1.119-2.5-2.5c0-1.381 1.119-2.5 2.5-2.5s2.5 1.119 2.5 2.5zM20.338 11.389c0.253-0.253 0.244-0.667-0.022-0.905-4.445-3.984-11.192-3.979-15.632 0-0.266 0.238-0.275 0.652-0.022 0.905l1.328 1.328c0.232 0.232 0.604 0.247 0.85 0.031 3.238-2.836 8.089-2.83 11.319 0 0.246 0.216 0.619 0.2 0.85-0.031l1.328-1.328zM24.718 6.947c0.249-0.249 0.244-0.657-0.014-0.897-6.866-6.401-17.544-6.398-24.408 0-0.258 0.241-0.263 0.648-0.014 0.897l1.327 1.327c0.238 0.238 0.621 0.243 0.868 0.015 5.655-5.221 14.389-5.223 20.045 0 0.247 0.228 0.63 0.223 0.868-0.015l1.327-1.327z"></path>
</svg>
