<svg xmlns="http://www.w3.org/2000/svg" width="20" height="20" viewBox="0 0 20 20">
<path d="M18.125 1.25h-16.25c-1.035 0-1.875 0.84-1.875 1.875v13.75c0 1.035 0.84 1.875 1.875 1.875h16.25c1.035 0 1.875-0.84 1.875-1.875v-13.75c0-1.035-0.84-1.875-1.875-1.875zM14.859 12.598c0.188 0.188 0.188 0.492 0 0.68l-1.582 1.582c-0.188 0.188-0.492 0.188-0.68 0l-2.598-2.621-2.598 2.621c-0.188 0.188-0.492 0.188-0.68 0l-1.582-1.582c-0.188-0.188-0.188-0.492 0-0.68l2.621-2.598-2.621-2.598c-0.188-0.188-0.188-0.492 0-0.68l1.582-1.582c0.188-0.188 0.492-0.188 0.68 0l2.598 2.621 2.598-2.621c0.188-0.188 0.492-0.188 0.68 0l1.582 1.582c0.188 0.188 0.188 0.492 0 0.68l-2.621 2.598 2.621 2.598z"></path>
</svg>
