<svg xmlns="http://www.w3.org/2000/svg" width="20" height="20" viewBox="0 0 20 20">
<path d="M19.379 15.065l0.556 1.12c0.153 0.309 0.027 0.684-0.282 0.838l-2.557 1.285c-0.627 0.311-1.389 0.047-1.687-0.588l-2.452-5.219h-5.456c-0.622 0-1.149-0.457-1.237-1.073-1.324-9.266-1.248-8.691-1.263-8.927 0-1.42 1.184-2.564 2.619-2.497 1.3 0.060 2.346 1.129 2.38 2.43 0.034 1.286-0.904 2.36-2.133 2.541l0.182 1.277h5.077c0.345 0 0.625 0.28 0.625 0.625v1.25c0 0.345-0.28 0.625-0.625 0.625h-4.719l0.179 1.25h5.166c0.497 0 0.927 0.29 1.128 0.711l0.003 0.008 2.247 4.782 1.413-0.717c0.309-0.153 0.684-0.027 0.838 0.282zM12.162 13.75h-0.957c-0.304 2.117-2.13 3.75-4.33 3.75-2.412 0-4.375-1.963-4.375-4.375 0-1.621 0.886-3.039 2.2-3.795-0.145-1.014-0.267-1.87-0.371-2.591-2.534 1.014-4.33 3.494-4.33 6.386 0 3.791 3.084 6.875 6.875 6.875 2.807 0 5.227-1.692 6.293-4.109l-1.006-2.141z"></path>
</svg>
