<svg xmlns="http://www.w3.org/2000/svg" width="23" height="20" viewBox="0 0 23 20">
<path d="M22.031 7.5c0.259 0 0.469-0.21 0.469-0.469v-1.563c0-0.259-0.21-0.469-0.469-0.469h-1.876l0.725-3.149c0.068-0.294-0.155-0.574-0.457-0.574h-1.801c-0 0-0 0-0 0-0.224 0-0.412 0.158-0.458 0.368l-0.001 0.003-0.558 3.352h-4.293l-0.771-3.359c-0.049-0.21-0.235-0.364-0.457-0.364h-1.718c0 0 0 0 0 0-0.221 0-0.407 0.153-0.456 0.359l-0.001 0.003-0.783 3.36h-4.247l-0.683-3.348c-0.045-0.216-0.234-0.375-0.459-0.375 0 0 0 0 0 0h-1.645c-0.3 0-0.523 0.278-0.457 0.571l0.706 3.152h-1.875c-0.259 0-0.469 0.21-0.469 0.469v1.563c0 0.259 0.21 0.469 0.469 0.469h2.435l0.28 1.25h-2.715c-0.259 0-0.469 0.21-0.469 0.469v1.563c0 0.259 0.21 0.469 0.469 0.469h3.276l1.599 7.134c0.049 0.211 0.235 0.366 0.457 0.366h2.217c0.218 0 0.407-0.15 0.457-0.363l1.656-7.137h2.152l1.656 7.137c0.050 0.209 0.235 0.363 0.457 0.363h2.22c0 0 0 0 0 0 0.222 0 0.407-0.154 0.456-0.36l0.001-0.003 1.644-7.136h3.316c0.259 0 0.469-0.21 0.469-0.469v-1.563c0-0.259-0.21-0.469-0.469-0.469h-2.74l0.288-1.25h2.452zM5.392 7.5h3.155l-0.291 1.25h-2.608l-0.255-1.25zM7.18 13.361c-0.242 1.009-0.264 1.846-0.286 1.846h-0.044s-0.066-0.861-0.264-1.846l-0.43-2.111h1.516l-0.492 2.111zM10.71 8.75l0.078-0.336c0.073-0.311 0.135-0.624 0.188-0.914h0.461c0.053 0.29 0.115 0.603 0.188 0.914l0.078 0.336h-0.992zM15.826 13.361c-0.198 0.984-0.264 1.846-0.264 1.846h-0.044c-0.022 0-0.044-0.837-0.286-1.846l-0.484-2.111h1.528l-0.45 2.111zM16.808 8.75h-2.634l-0.287-1.25h3.187l-0.266 1.25z"></path>
</svg>
