<svg xmlns="http://www.w3.org/2000/svg" width="15" height="20" viewBox="0 0 15 20">
<path d="M13.719 1.25h-2.55c0 0 0 0 0 0-0.184 0-0.343 0.106-0.42 0.26l-0.001 0.003-2.164 4.42c-0.567 1.356-1.060 2.81-1.060 2.81h-0.049s-0.493-1.454-1.060-2.81l-2.164-4.42c-0.078-0.157-0.237-0.263-0.421-0.263-0 0-0 0-0 0h-2.55c-0.354 0-0.58 0.377-0.414 0.689l3.13 5.873h-2.278c-0.259 0-0.469 0.21-0.469 0.469v1.25c0 0.259 0.21 0.469 0.469 0.469h3.444l0.775 1.454v1.046h-4.219c-0.259 0-0.469 0.21-0.469 0.469v1.25c0 0.259 0.21 0.469 0.469 0.469h4.219v3.594c0 0.259 0.21 0.469 0.469 0.469h2.188c0.259 0 0.469-0.21 0.469-0.469v-3.594h4.219c0.259 0 0.469-0.21 0.469-0.469v-1.25c0-0.259-0.21-0.469-0.469-0.469h-4.219v-1.046l0.775-1.454h3.444c0.259 0 0.469-0.21 0.469-0.469v-1.25c0-0.259-0.21-0.469-0.469-0.469h-2.278l3.13-5.873c0.166-0.312-0.060-0.689-0.414-0.689z"></path>
</svg>
