<svg xmlns="http://www.w3.org/2000/svg" width="20" height="20" viewBox="0 0 20 20">
<path d="M0.313 10c0 5.352 4.336 9.688 9.688 9.688s9.688-4.336 9.688-9.688-4.336-9.688-9.688-9.688-9.688 4.336-9.688 9.688zM17.813 10c0 4.316-3.496 7.813-7.813 7.813s-7.813-3.496-7.813-7.813 3.496-7.813 7.813-7.813 7.813 3.496 7.813 7.813zM15 9.219v1.563c0 0.258-0.211 0.469-0.469 0.469h-4.531v2.617c0 0.418-0.504 0.625-0.801 0.332l-3.867-3.867c-0.184-0.184-0.184-0.48 0-0.664l3.867-3.867c0.297-0.297 0.801-0.086 0.801 0.332v2.617h4.531c0.258 0 0.469 0.211 0.469 0.469z"></path>
</svg>
