<svg xmlns="http://www.w3.org/2000/svg" width="20" height="20" viewBox="0 0 20 20">
<path d="M10 0.313c-5.352 0-9.688 4.336-9.688 9.688s4.336 9.688 9.688 9.688 9.688-4.336 9.688-9.688-4.336-9.688-9.688-9.688zM10 17.813c-4.316 0-7.813-3.496-7.813-7.813s3.496-7.813 7.813-7.813 7.813 3.496 7.813 7.813-3.496 7.813-7.813 7.813zM8.75 5.469v4.531h-2.617c-0.418 0-0.625 0.504-0.332 0.801l3.867 3.867c0.184 0.184 0.48 0.184 0.664 0l3.867-3.867c0.297-0.297 0.086-0.801-0.332-0.801h-2.617v-4.531c0-0.258-0.211-0.469-0.469-0.469h-1.563c-0.258 0-0.469 0.211-0.469 0.469z"></path>
</svg>
