<svg xmlns="http://www.w3.org/2000/svg" width="20" height="20" viewBox="0 0 20 20">
<path d="M18.125 2.5h-16.25c-1.036 0-1.875 0.839-1.875 1.875v11.25c0 1.036 0.839 1.875 1.875 1.875h16.25c1.036 0 1.875-0.839 1.875-1.875v-11.25c0-1.036-0.839-1.875-1.875-1.875zM17.891 15.625h-15.781c-0.129 0-0.234-0.105-0.234-0.234v0-10.781c0-0.129 0.105-0.234 0.234-0.234v0h15.781c0.129 0 0.234 0.105 0.234 0.234v0 10.781c0 0.129-0.105 0.234-0.234 0.234v0zM15.781 8.75h-4.063c-0.259 0-0.469-0.21-0.469-0.469v-0.625c0-0.259 0.21-0.469 0.469-0.469h4.063c0.259 0 0.469 0.21 0.469 0.469v0.625c0 0.259-0.21 0.469-0.469 0.469zM15.781 11.563h-4.063c-0.259 0-0.469-0.21-0.469-0.469v-0.625c0-0.259 0.21-0.469 0.469-0.469h4.063c0.259 0 0.469 0.21 0.469 0.469v0.625c0 0.259-0.21 0.469-0.469 0.469zM6.875 6.25c1.294 0 2.344 1.049 2.344 2.344s-1.049 2.344-2.344 2.344-2.344-1.049-2.344-2.344 1.049-2.344 2.344-2.344zM9.56 11.14l-1.045-0.261c-1.097 0.789-2.428 0.613-3.28 0l-1.045 0.261c-0.626 0.156-1.065 0.719-1.065 1.364v0.543c0 0.388 0.315 0.703 0.703 0.703h6.094c0.388 0 0.703-0.315 0.703-0.703v-0.543c0-0.645-0.439-1.208-1.065-1.364z"></path>
</svg>
