<svg xmlns="http://www.w3.org/2000/svg" width="18" height="20" viewBox="0 0 18 20">
<path d="M17.031 6.25c0.259 0 0.469-0.21 0.469-0.469v-1.563c0-0.259-0.21-0.469-0.469-0.469h-0.781v-1.875c0-1.036-0.839-1.875-1.875-1.875h-12.5c-1.036 0-1.875 0.839-1.875 1.875v16.25c0 1.036 0.839 1.875 1.875 1.875h12.5c1.036 0 1.875-0.839 1.875-1.875v-1.875h0.781c0.259 0 0.469-0.21 0.469-0.469v-1.563c0-0.259-0.21-0.469-0.469-0.469h-0.781v-2.5h0.781c0.259 0 0.469-0.21 0.469-0.469v-1.563c0-0.259-0.21-0.469-0.469-0.469h-0.781v-2.5h0.781zM14.141 18.125h-12.031c-0.129 0-0.234-0.105-0.234-0.234v0-15.781c0-0.129 0.105-0.234 0.234-0.234v0h12.031c0.129 0 0.234 0.105 0.234 0.234v0 15.781c0 0.129-0.105 0.234-0.234 0.234v0zM5 8.125c0-1.726 1.399-3.125 3.125-3.125s3.125 1.399 3.125 3.125-1.399 3.125-3.125 3.125-3.125-1.399-3.125-3.125zM13.125 13.339v0.724c0 0.518-0.42 0.938-0.938 0.938h-8.125c-0.518 0-0.938-0.42-0.938-0.938v-0.724c0-0.86 0.586-1.61 1.42-1.819l1.393-0.348c1.137 0.818 2.911 1.053 4.374 0l1.393 0.348c0.835 0.209 1.42 0.959 1.42 1.819z"></path>
</svg>
