<svg xmlns="http://www.w3.org/2000/svg" width="18" height="20" viewBox="0 0 18 20">
<path d="M5 5.781v-1.563c0-0.258 0.211-0.469 0.469-0.469h1.563c0.258 0 0.469 0.211 0.469 0.469v1.563c0 0.258-0.211 0.469-0.469 0.469h-1.563c-0.258 0-0.469-0.211-0.469-0.469zM10.469 6.25h1.563c0.258 0 0.469-0.211 0.469-0.469v-1.563c0-0.258-0.211-0.469-0.469-0.469h-1.563c-0.258 0-0.469 0.211-0.469 0.469v1.563c0 0.258 0.211 0.469 0.469 0.469zM5.469 10h1.563c0.258 0 0.469-0.211 0.469-0.469v-1.563c0-0.258-0.211-0.469-0.469-0.469h-1.563c-0.258 0-0.469 0.211-0.469 0.469v1.563c0 0.258 0.211 0.469 0.469 0.469zM10.469 10h1.563c0.258 0 0.469-0.211 0.469-0.469v-1.563c0-0.258-0.211-0.469-0.469-0.469h-1.563c-0.258 0-0.469 0.211-0.469 0.469v1.563c0 0.258 0.211 0.469 0.469 0.469zM7.5 13.281v-1.563c0-0.258-0.211-0.469-0.469-0.469h-1.563c-0.258 0-0.469 0.211-0.469 0.469v1.563c0 0.258 0.211 0.469 0.469 0.469h1.563c0.258 0 0.469-0.211 0.469-0.469zM10.469 13.75h1.563c0.258 0 0.469-0.211 0.469-0.469v-1.563c0-0.258-0.211-0.469-0.469-0.469h-1.563c-0.258 0-0.469 0.211-0.469 0.469v1.563c0 0.258 0.211 0.469 0.469 0.469zM17.5 18.594v1.406h-17.5v-1.406c0-0.258 0.211-0.469 0.469-0.469h0.762v-17.188c0-0.52 0.418-0.938 0.938-0.938h13.164c0.52 0 0.938 0.418 0.938 0.938v17.188h0.762c0.258 0 0.469 0.211 0.469 0.469zM3.105 18.086h4.395v-2.617c0-0.258 0.211-0.469 0.469-0.469h1.563c0.258 0 0.469 0.211 0.469 0.469v2.617h4.395v-16.172l-11.27-0.039-0.020 16.211z"></path>
</svg>
