<svg xmlns="http://www.w3.org/2000/svg" width="23" height="20" viewBox="0 0 23 20">
<path d="M5.113 15.625c-0.655 0-0.982-0.796-0.521-1.257 0.985-0.985 1.801-1.927 1.978-4.745l-1.827-1.612c-0.007 0.114-0.011 0.248-0.012 0.383v0c0 3.201-0.686 3.879-1.349 4.534-1.879 1.856-0.503 4.573 1.731 4.573h3.636c0 1.381 1.119 2.5 2.5 2.5s2.5-1.119 2.5-2.5h1.749l-2.125-1.875h-8.261zM11.25 18.438c-0.517 0-0.938-0.421-0.938-0.938h1.875c0 0.517-0.421 0.938-0.938 0.938zM22.339 18.459l-2.654-2.327c0.512-0.942 0.45-2.2-0.568-3.205-0.664-0.656-1.349-1.334-1.349-4.534 0-3.243-2.381-5.94-5.487-6.436 0.137-0.197 0.219-0.442 0.219-0.705 0-0.001 0-0.001 0-0.002v0c0-0.69-0.56-1.25-1.25-1.25s-1.25 0.56-1.25 1.25c0 0.001 0 0.001 0 0.002 0 0.264 0.082 0.508 0.222 0.709l-0.003-0.004c-1.62 0.259-3.043 1.116-4.033 2.338l-4.762-4.176c-0.198-0.173-0.499-0.155-0.673 0.042l-0.631 0.711c-0.174 0.196-0.156 0.496 0.042 0.669l20.914 18.34c0.198 0.173 0.499 0.155 0.673-0.042l0.631-0.711c0.174-0.196 0.155-0.496-0.042-0.669zM11.25 3.75c2.56 0 4.643 2.083 4.643 4.643 0 3.814 0.907 4.866 2.014 5.975 0.114 0.114 0.179 0.247 0.203 0.384l-10.514-9.22c0.851-1.084 2.172-1.782 3.653-1.782z"></path>
</svg>
