<svg xmlns="http://www.w3.org/2000/svg" width="18" height="20" viewBox="0 0 18 20">
<path d="M16.617 12.927c-0.664-0.656-1.349-1.334-1.349-4.534 0-3.243-2.381-5.94-5.487-6.436 0.137-0.197 0.219-0.442 0.219-0.705 0-0.001 0-0.001 0-0.002v0c0-0.69-0.56-1.25-1.25-1.25s-1.25 0.56-1.25 1.25c0 0.001 0 0.001 0 0.002 0 0.264 0.082 0.508 0.222 0.709l-0.003-0.004c-3.106 0.496-5.487 3.193-5.487 6.436 0 3.201-0.686 3.879-1.349 4.534-1.879 1.856-0.503 4.573 1.731 4.573h3.636c0 1.381 1.119 2.5 2.5 2.5s2.5-1.119 2.5-2.5h3.636c2.234 0 3.61-2.718 1.731-4.573zM8.75 18.438c-0.517 0-0.938-0.421-0.938-0.938h1.875c0 0.517-0.421 0.938-0.938 0.938zM14.886 15.625h-12.273c-0.655 0-0.982-0.796-0.521-1.257 1.117-1.117 2.015-2.177 2.015-5.975 0-2.56 2.083-4.643 4.643-4.643s4.643 2.083 4.643 4.643c0 3.814 0.907 4.866 2.014 5.975 0.463 0.463 0.131 1.257-0.521 1.257z"></path>
</svg>
