<svg xmlns="http://www.w3.org/2000/svg" width="20" height="20" viewBox="0 0 20 20">
<path d="M10 0.313c-5.35 0-9.688 4.337-9.688 9.688s4.337 9.688 9.688 9.688 9.688-4.337 9.688-9.688-4.337-9.688-9.688-9.688zM10 17.813c-4.318 0-7.813-3.494-7.813-7.813s3.494-7.813 7.813-7.813c4.318 0 7.813 3.494 7.813 7.813s-3.494 7.813-7.813 7.813zM14.193 13.865c-0.376 0.379-1.779 1.617-4.065 1.617-3.22 0-5.488-2.399-5.488-5.53 0-3.092 2.354-5.445 5.459-5.445 2.169 0 3.466 1.040 3.812 1.359 0.093 0.086 0.151 0.208 0.151 0.344 0 0.095-0.028 0.183-0.076 0.256l0.001-0.002-0.709 1.098c-0.15 0.232-0.467 0.284-0.684 0.114-0.336-0.265-1.243-0.88-2.41-0.88-1.887 0-3.044 1.38-3.044 3.128 0 1.625 1.050 3.269 3.058 3.269 1.276 0 2.22-0.744 2.567-1.063 0.206-0.19 0.531-0.158 0.696 0.068l0.776 1.061c0.057 0.076 0.091 0.173 0.091 0.277 0 0.129-0.052 0.245-0.136 0.329l0-0z"></path>
</svg>
