<svg xmlns="http://www.w3.org/2000/svg" width="18" height="20" viewBox="0 0 18 20">
<path d="M15.625 2.5h-1.875v-2.031c0-0.258-0.211-0.469-0.469-0.469h-1.563c-0.258 0-0.469 0.211-0.469 0.469v2.031h-5v-2.031c0-0.258-0.211-0.469-0.469-0.469h-1.563c-0.258 0-0.469 0.211-0.469 0.469v2.031h-1.875c-1.035 0-1.875 0.84-1.875 1.875v13.75c0 1.035 0.84 1.875 1.875 1.875h13.75c1.035 0 1.875-0.84 1.875-1.875v-13.75c0-1.035-0.84-1.875-1.875-1.875zM15.391 18.125h-13.281c-0.129 0-0.234-0.105-0.234-0.234v-11.641h13.75v11.641c0 0.129-0.105 0.234-0.234 0.234z"></path>
</svg>
