<svg xmlns="http://www.w3.org/2000/svg" width="18" height="20" viewBox="0 0 18 20">
<path d="M16.951 2.576l-2.027-2.027c-0.339-0.339-0.808-0.549-1.326-0.549h-6.723c-1.036 0-1.875 0.839-1.875 1.875v1.875h-3.125c-1.036 0-1.875 0.839-1.875 1.875v12.5c0 1.036 0.839 1.875 1.875 1.875h8.75c1.036 0 1.875-0.839 1.875-1.875v-1.875h3.125c1.036 0 1.875-0.839 1.875-1.875v-10.473c0-0.518-0.21-0.987-0.549-1.326v0zM10.391 18.125h-8.281c-0.129 0-0.234-0.105-0.234-0.234v0-12.031c0-0.129 0.105-0.234 0.234-0.234v0h2.891v8.75c0 1.036 0.839 1.875 1.875 1.875h3.75v1.641c0 0.129-0.105 0.234-0.234 0.234v0zM15.391 14.375h-8.281c-0.129 0-0.234-0.105-0.234-0.234v0-12.031c0-0.129 0.105-0.234 0.234-0.234v0h4.141v3.438c0 0.518 0.42 0.938 0.938 0.938h3.438v7.891c0 0.129-0.105 0.234-0.234 0.234v0zM15.625 4.375h-2.5v-2.5h0.376c0.062 0 0.122 0.025 0.166 0.069l1.889 1.889c0.042 0.042 0.069 0.101 0.069 0.166 0 0 0 0 0 0v0 0.376z"></path>
</svg>
