<svg xmlns="http://www.w3.org/2000/svg" width="20" height="20" viewBox="0 0 20 20">
<path d="M10 0.313c-5.35 0-9.688 4.337-9.688 9.688s4.337 9.688 9.688 9.688 9.688-4.337 9.688-9.688-4.337-9.688-9.688-9.688zM10 2.188c4.318 0 7.813 3.494 7.813 7.813s-3.494 7.813-7.813 7.813c-4.318 0-7.813-3.494-7.813-7.813s3.494-7.813 7.813-7.813zM15.477 7.276l-0.88-0.887c-0.182-0.184-0.479-0.185-0.663-0.003l-5.522 5.477-2.336-2.355c-0.182-0.184-0.479-0.185-0.663-0.003l-0.887 0.88c-0.184 0.182-0.185 0.479-0.003 0.663l3.546 3.575c0.182 0.184 0.479 0.185 0.663 0.003l6.742-6.688c0.184-0.182 0.185-0.479 0.003-0.663z"></path>
</svg>
