<svg xmlns="http://www.w3.org/2000/svg" width="23" height="20" viewBox="0 0 23 20">
<path d="M20.621 1.25h-18.742c-1.039 0-1.879 0.84-1.879 1.875v13.75c0 1.035 0.84 1.875 1.879 1.875h18.742c1.039 0 1.879-0.84 1.879-1.875v-13.75c0-1.035-0.84-1.875-1.879-1.875zM2.113 3.125h18.273c0.129 0 0.234 0.105 0.234 0.234v1.641h-18.742v-1.641c0-0.129 0.105-0.234 0.234-0.234zM20.387 16.875h-18.273c-0.129 0-0.234-0.105-0.234-0.234v-6.641h18.742v6.641c0 0.129-0.105 0.234-0.234 0.234zM7.5 12.969v1.563c0 0.258-0.211 0.469-0.469 0.469h-2.813c-0.258 0-0.469-0.211-0.469-0.469v-1.563c0-0.258 0.211-0.469 0.469-0.469h2.813c0.258 0 0.469 0.211 0.469 0.469zM15 12.969v1.563c0 0.258-0.211 0.469-0.469 0.469h-5.313c-0.258 0-0.469-0.211-0.469-0.469v-1.563c0-0.258 0.211-0.469 0.469-0.469h5.313c0.258 0 0.469 0.211 0.469 0.469z"></path>
</svg>
