<svg xmlns="http://www.w3.org/2000/svg" width="23" height="20" viewBox="0 0 23 20">
<path d="M22.442 17.338c-0.212 0.831-0.96 1.412-1.817 1.412-1.26 0-2.598-0.39-3.988-1.161-1.978 0.454-4.264 0.308-6.17-0.525 1.607-0.114 3.139-0.482 4.544-1.121 0.638-0.048 1.276-0.169 1.9-0.375 0.84 0.54 2.256 1.307 3.715 1.307-1.25-0.682-1.688-1.522-1.803-2.285 0.994-0.736 1.803-1.843 1.803-3.169 0-0.41-0.093-0.841-0.275-1.268 0.289-1.013 0.338-1.961 0.203-2.888 1.256 1.19 1.947 2.7 1.947 4.156 0 1.324-0.504 2.541-1.366 3.559 0.104 0.080 0.231 0.163 0.389 0.249 0.752 0.41 1.131 1.279 0.919 2.109zM9.375 3.125c-4.802 0-7.5 2.847-7.5 5.114 0 1.492 0.971 2.737 2.164 3.565-0.138 0.859-0.664 1.804-2.164 2.571 1.75 0 3.45-0.863 4.458-1.471 0.997 0.309 2.027 0.448 3.042 0.448 4.805 0 7.5-2.845 7.5-5.114 0-2.267-2.698-5.114-7.5-5.114zM9.375 1.25c5.867 0 9.375 3.673 9.375 6.989 0 0.888-0.254 1.812-0.735 2.672-0.464 0.829-1.115 1.574-1.934 2.214-0.843 0.658-1.828 1.174-2.926 1.531-1.166 0.38-2.438 0.572-3.779 0.572-0.955 0-1.888-0.105-2.785-0.313-1.656 0.887-3.239 1.335-4.715 1.335-0.866 0-1.62-0.594-1.823-1.436s0.198-1.714 0.969-2.108c0.299-0.153 0.52-0.302 0.684-0.441-0.289-0.306-0.545-0.63-0.767-0.97-0.623-0.956-0.939-1.984-0.939-3.055 0-3.307 3.496-6.989 9.375-6.989z"></path>
</svg>
