<svg xmlns="http://www.w3.org/2000/svg" width="20" height="20" viewBox="0 0 20 20">
<path d="M10 0.313c-5.35 0-9.688 4.337-9.688 9.688s4.337 9.688 9.688 9.688 9.688-4.337 9.688-9.688-4.337-9.688-9.688-9.688zM10 17.813c-4.318 0-7.813-3.494-7.813-7.813s3.494-7.813 7.813-7.813c4.318 0 7.813 3.494 7.813 7.813s-3.494 7.813-7.813 7.813zM13.567 5.62l-1.303 5.382c-0.045 0.182-0.138 0.337-0.264 0.458l-0 0-4.009 3.819c-0.668 0.636-1.78 0.017-1.558-0.899l1.303-5.382c0.045-0.182 0.138-0.337 0.264-0.458l0-0 4.009-3.819c0.675-0.643 1.777-0.007 1.558 0.899zM10 8.75c-0.69 0-1.25 0.56-1.25 1.25s0.56 1.25 1.25 1.25 1.25-0.56 1.25-1.25-0.56-1.25-1.25-1.25z"></path>
</svg>
