<svg xmlns="http://www.w3.org/2000/svg" width="18" height="20" viewBox="0 0 18 20">
<path d="M6.875 13.863v-7.727c0-0.418 0.508-0.629 0.801-0.332l3.84 3.863c0.184 0.184 0.184 0.477 0 0.66l-3.84 3.863c-0.293 0.301-0.801 0.090-0.801-0.328zM17.5 3.125v13.75c0 1.035-0.84 1.875-1.875 1.875h-13.75c-1.035 0-1.875-0.84-1.875-1.875v-13.75c0-1.035 0.84-1.875 1.875-1.875h13.75c1.035 0 1.875 0.84 1.875 1.875zM15.625 16.641v-13.281c0-0.129-0.105-0.234-0.234-0.234h-13.281c-0.129 0-0.234 0.105-0.234 0.234v13.281c0 0.129 0.105 0.234 0.234 0.234h13.281c0.129 0 0.234-0.105 0.234-0.234z"></path>
</svg>
