<svg xmlns="http://www.w3.org/2000/svg" width="18" height="20" viewBox="0 0 18 20">
<path d="M15.625 1.25h-13.75c-1.036 0-1.875 0.839-1.875 1.875v13.75c0 1.036 0.839 1.875 1.875 1.875h13.75c1.036 0 1.875-0.839 1.875-1.875v-13.75c0-1.036-0.839-1.875-1.875-1.875zM15.625 16.875h-13.75v-13.75h13.75v13.75zM14.224 7.433l-6.742 6.688c-0.184 0.182-0.481 0.181-0.663-0.003l-3.546-3.575c-0.182-0.184-0.181-0.481 0.003-0.663l0.887-0.88c0.184-0.182 0.481-0.181 0.663 0.003l2.336 2.355 5.522-5.477c0.184-0.182 0.481-0.181 0.663 0.003l0.88 0.887c0.182 0.184 0.181 0.481-0.003 0.663z"></path>
</svg>
