<svg xmlns="http://www.w3.org/2000/svg" width="18" height="20" viewBox="0 0 18 20">
<path d="M15.625 2.5h-1.875v-2.031c0-0.259-0.21-0.469-0.469-0.469h-1.563c-0.259 0-0.469 0.21-0.469 0.469v2.031h-5v-2.031c0-0.259-0.21-0.469-0.469-0.469h-1.563c-0.259 0-0.469 0.21-0.469 0.469v2.031h-1.875c-1.036 0-1.875 0.839-1.875 1.875v13.75c0 1.036 0.839 1.875 1.875 1.875h13.75c1.036 0 1.875-0.839 1.875-1.875v-13.75c0-1.036-0.839-1.875-1.875-1.875zM15.391 18.125h-13.281c-0.129 0-0.234-0.105-0.234-0.234v0-11.641h13.75v11.641c0 0.129-0.105 0.234-0.234 0.234v0zM13.326 10.287l-5.559 5.514c-0.184 0.182-0.481 0.181-0.663-0.003l-2.933-2.957c-0.182-0.184-0.181-0.481 0.003-0.663l0.887-0.88c0.184-0.182 0.481-0.181 0.663 0.003l1.723 1.737 4.339-4.304c0.184-0.182 0.481-0.181 0.663 0.003l0.88 0.887c0.182 0.184 0.181 0.481-0.003 0.663z"></path>
</svg>
