<svg xmlns="http://www.w3.org/2000/svg" width="20" height="20" viewBox="0 0 20 20">
<path d="M18.125 0h-12.5c-1.036 0-1.875 0.839-1.875 1.875v1.875h-1.875c-1.036 0-1.875 0.839-1.875 1.875v12.5c0 1.036 0.839 1.875 1.875 1.875h12.5c1.036 0 1.875-0.839 1.875-1.875v-1.875h1.875c1.036 0 1.875-0.839 1.875-1.875v-12.5c0-1.036-0.839-1.875-1.875-1.875zM14.141 18.125h-12.031c-0.129 0-0.234-0.105-0.234-0.234v0-12.031c0-0.129 0.105-0.234 0.234-0.234v0h1.641v8.75c0 1.036 0.839 1.875 1.875 1.875h8.75v1.641c0 0.129-0.105 0.234-0.234 0.234v0zM17.891 14.375h-12.031c-0.129 0-0.234-0.105-0.234-0.234v0-12.031c0-0.129 0.105-0.234 0.234-0.234v0h12.031c0.129 0 0.234 0.105 0.234 0.234v0 12.031c0 0.129-0.105 0.234-0.234 0.234v0z"></path>
</svg>
