<svg xmlns="http://www.w3.org/2000/svg" width="15" height="20" viewBox="0 0 15 20">
<path d="M13.125 2.5h-3.125c0-1.379-1.121-2.5-2.5-2.5s-2.5 1.121-2.5 2.5h-3.125c-1.036 0-1.875 0.839-1.875 1.875v13.75c0 1.036 0.839 1.875 1.875 1.875h11.25c1.036 0 1.875-0.839 1.875-1.875v-13.75c0-1.036-0.839-1.875-1.875-1.875zM12.891 18.125h-10.781c-0.129 0-0.234-0.105-0.234-0.234v0-13.281c0-0.129 0.105-0.234 0.234-0.234v0h1.641v1.406c0 0.259 0.21 0.469 0.469 0.469h6.563c0.259 0 0.469-0.21 0.469-0.469v-1.406h1.641c0.129 0 0.234 0.105 0.234 0.234v0 13.281c0 0.129-0.105 0.234-0.234 0.234v0zM7.5 1.563c0.518 0 0.938 0.42 0.938 0.938s-0.42 0.938-0.938 0.938-0.938-0.42-0.938-0.938 0.42-0.938 0.938-0.938z"></path>
</svg>
