<svg xmlns="http://www.w3.org/2000/svg" width="20" height="20" viewBox="0 0 20 20">
<path d="M10 0.313c-5.352 0-9.688 4.336-9.688 9.688s4.336 9.688 9.688 9.688 9.688-4.336 9.688-9.688-4.336-9.688-9.688-9.688zM10 17.813c-4.316 0-7.813-3.496-7.813-7.813s3.496-7.813 7.813-7.813 7.813 3.496 7.813 7.813-3.496 7.813-7.813 7.813zM12.414 13.734l-3.316-2.41c-0.121-0.090-0.191-0.23-0.191-0.379v-6.414c0-0.258 0.211-0.469 0.469-0.469h1.25c0.258 0 0.469 0.211 0.469 0.469v5.535l2.609 1.898c0.211 0.152 0.254 0.445 0.102 0.656l-0.734 1.012c-0.152 0.207-0.445 0.254-0.656 0.102z"></path>
</svg>
