<svg xmlns="http://www.w3.org/2000/svg" width="23" height="20" viewBox="0 0 23 20">
<path d="M11.25 1.25c-6.211 0-11.25 3.637-11.25 8.125 0 1.926 0.926 3.691 2.473 5.086-0.34 0.91-0.863 1.277-1.449 1.684-0.434 0.301-1.258 0.77-0.961 1.688 0.199 0.602 0.816 0.965 1.488 0.91 2.254-0.18 4.344-0.75 6.133-1.66 1.121 0.27 2.32 0.418 3.563 0.418 6.215 0 11.25-3.633 11.25-8.125 0.004-4.488-5.031-8.125-11.246-8.125zM11.25 15.625c-1.27 0-2.555-0.172-3.801-0.547-1.262 0.742-3.074 1.797-5.262 2.109 1.25-0.938 2.219-2.406 2.391-3.453-1.488-1.016-2.703-2.535-2.703-4.359 0-2.77 3.371-6.25 9.375-6.25s9.375 3.48 9.375 6.25c0 2.773-3.371 6.25-9.375 6.25z"></path>
</svg>
