<svg xmlns="http://www.w3.org/2000/svg" width="20" height="20" viewBox="0 0 20 20">
<path d="M19.531 15.625c0.258 0 0.469 0.211 0.469 0.469v0.938c0 0.258-0.211 0.469-0.469 0.469h-19.063c-0.258 0-0.469-0.211-0.469-0.469v-14.063c0-0.258 0.211-0.469 0.469-0.469h0.938c0.258 0 0.469 0.211 0.469 0.469v12.656h17.656zM5.625 13.281v-2.813c0-0.258-0.211-0.469-0.469-0.469h-0.938c-0.258 0-0.469 0.211-0.469 0.469v2.813c0 0.258 0.211 0.469 0.469 0.469h0.938c0.258 0 0.469-0.211 0.469-0.469zM9.375 13.281v-7.813c0-0.258-0.211-0.469-0.469-0.469h-0.938c-0.258 0-0.469 0.211-0.469 0.469v7.813c0 0.258 0.211 0.469 0.469 0.469h0.938c0.258 0 0.469-0.211 0.469-0.469zM13.125 13.281v-5.313c0-0.258-0.211-0.469-0.469-0.469h-0.938c-0.258 0-0.469 0.211-0.469 0.469v5.313c0 0.258 0.211 0.469 0.469 0.469h0.938c0.258 0 0.469-0.211 0.469-0.469zM16.875 13.281v-9.063c0-0.258-0.211-0.469-0.469-0.469h-0.938c-0.258 0-0.469 0.211-0.469 0.469v9.063c0 0.258 0.211 0.469 0.469 0.469h0.938c0.258 0 0.469-0.211 0.469-0.469z"></path>
</svg>
