<svg xmlns="http://www.w3.org/2000/svg" width="18" height="20" viewBox="0 0 18 20">
<path d="M13.125 11.406v0.938c0 0.258-0.211 0.469-0.469 0.469h-2.969v2.969c0 0.258-0.211 0.469-0.469 0.469h-0.938c-0.258 0-0.469-0.211-0.469-0.469v-2.969h-2.969c-0.258 0-0.469-0.211-0.469-0.469v-0.938c0-0.258 0.211-0.469 0.469-0.469h2.969v-2.969c0-0.258 0.211-0.469 0.469-0.469h0.938c0.258 0 0.469 0.211 0.469 0.469v2.969h2.969c0.258 0 0.469 0.211 0.469 0.469zM17.5 4.375v13.75c0 1.035-0.84 1.875-1.875 1.875h-13.75c-1.035 0-1.875-0.84-1.875-1.875v-13.75c0-1.035 0.84-1.875 1.875-1.875h1.875v-2.031c0-0.258 0.211-0.469 0.469-0.469h1.563c0.258 0 0.469 0.211 0.469 0.469v2.031h5v-2.031c0-0.258 0.211-0.469 0.469-0.469h1.563c0.258 0 0.469 0.211 0.469 0.469v2.031h1.875c1.035 0 1.875 0.84 1.875 1.875zM15.625 17.891v-11.641h-13.75v11.641c0 0.129 0.105 0.234 0.234 0.234h13.281c0.129 0 0.234-0.105 0.234-0.234z"></path>
</svg>
