<svg xmlns="http://www.w3.org/2000/svg" width="20" height="20" viewBox="0 0 20 20">
<path d="M18.125 2.5h-16.25c-1.035 0-1.875 0.84-1.875 1.875v11.25c0 1.035 0.84 1.875 1.875 1.875h16.25c1.035 0 1.875-0.84 1.875-1.875v-11.25c0-1.035-0.84-1.875-1.875-1.875zM17.891 15.625h-15.781c-0.129 0-0.234-0.105-0.234-0.234v-10.781c0-0.129 0.105-0.234 0.234-0.234h15.781c0.129 0 0.234 0.105 0.234 0.234v10.781c0 0.129-0.105 0.234-0.234 0.234zM9.645 12.277c0.066 0.094 0.059 0.219-0.020 0.301-2.094 2.219-6.75 1.254-6.75-2.652 0-3.801 4.754-4.668 6.738-2.738 0.082 0.078 0.098 0.125 0.039 0.223l-0.684 1.191c-0.074 0.121-0.242 0.156-0.355 0.066-1.594-1.25-3.695-0.582-3.695 1.219 0 1.875 1.992 2.754 3.602 1.273 0.109-0.098 0.277-0.082 0.359 0.035l0.766 1.082zM17.082 12.277c0.066 0.094 0.059 0.219-0.020 0.301-2.094 2.223-6.75 1.254-6.75-2.652 0-3.801 4.754-4.668 6.738-2.738 0.082 0.078 0.098 0.125 0.039 0.223l-0.684 1.191c-0.074 0.121-0.242 0.156-0.355 0.066-1.594-1.25-3.695-0.582-3.695 1.219 0 1.875 1.992 2.754 3.602 1.273 0.109-0.098 0.277-0.082 0.359 0.035l0.766 1.082z"></path>
</svg>
