<svg xmlns="http://www.w3.org/2000/svg" width="20" height="20" viewBox="0 0 20 20">
<path d="M19.32 6.426c-0.183-0.152-4.364-3.514-5.283-4.244-0.863-0.69-2.34-2.182-4.037-2.182-1.688 0-3.15 1.473-4.037 2.182-0.956 0.76-5.12 4.109-5.279 4.24-0.419 0.346-0.684 0.866-0.684 1.448v0 10.254c0 1.036 0.839 1.875 1.875 1.875h16.25c1.036 0 1.875-0.839 1.875-1.875v-10.254c0-0.58-0.263-1.099-0.677-1.443l-0.003-0.002zM18.125 17.891c0 0.129-0.105 0.234-0.234 0.234v0h-15.781c-0.129 0-0.234-0.105-0.234-0.234v0-9.908c0-0.071 0.032-0.138 0.087-0.182 0.62-0.501 4.25-3.42 5.17-4.152 0.71-0.567 1.946-1.773 2.868-1.773 0.926 0 2.182 1.225 2.868 1.773 0.921 0.732 4.551 3.652 5.171 4.153 0.053 0.043 0.087 0.109 0.087 0.182 0 0 0 0 0 0v-0 9.907zM16.875 10.558c0.166 0.202 0.135 0.5-0.068 0.663-1.132 0.909-2.315 1.859-2.771 2.221-0.887 0.709-2.349 2.182-4.037 2.182-1.697 0-3.175-1.494-4.037-2.182-0.441-0.35-1.631-1.305-2.771-2.221-0.204-0.164-0.234-0.462-0.068-0.663l0.596-0.724c0.163-0.198 0.455-0.228 0.655-0.067 1.118 0.898 2.288 1.837 2.756 2.21 0.686 0.548 1.942 1.773 2.868 1.773 0.922 0 2.158-1.206 2.868-1.773 0.469-0.372 1.638-1.311 2.756-2.21 0.2-0.161 0.492-0.131 0.655 0.067l0.596 0.724z"></path>
</svg>
