<svg xmlns="http://www.w3.org/2000/svg" width="20" height="20" viewBox="0 0 20 20">
<path d="M18.125 2.5h-16.25c-1.036 0-1.875 0.839-1.875 1.875v11.25c0 1.036 0.839 1.875 1.875 1.875h16.25c1.036 0 1.875-0.839 1.875-1.875v-11.25c0-1.036-0.839-1.875-1.875-1.875zM18.125 4.375v1.594c-0.876 0.713-2.272 1.822-5.257 4.16-0.658 0.517-1.961 1.761-2.868 1.746-0.907 0.015-2.21-1.229-2.868-1.746-2.985-2.337-4.381-3.446-5.257-4.16v-1.594h16.25zM1.875 15.625v-7.25c0.895 0.713 2.164 1.713 4.099 3.228 0.854 0.672 2.349 2.156 4.026 2.147 1.669 0.009 3.145-1.453 4.026-2.146 1.935-1.515 3.204-2.516 4.099-3.229v7.25h-16.25z"></path>
</svg>
