<svg xmlns="http://www.w3.org/2000/svg" width="23" height="20" viewBox="0 0 23 20">
<path d="M10.652 14.029c-3.144-0.352-5.321-3.394-4.568-6.525l4.568 6.525zM11.25 15.313c-4.006 0-7.504-2.137-9.375-5.313 0.85-1.442 2.035-2.67 3.451-3.58l-1.076-1.537c-1.633 1.064-3.003 2.49-3.991 4.165-0.163 0.272-0.26 0.601-0.26 0.952s0.096 0.68 0.264 0.96l-0.005-0.009c2.201 3.736 6.308 6.236 10.99 6.236 0 0 0.001 0 0.001 0 0.546 0 1.083-0.034 1.611-0.099l-0.063 0.006-1.251-1.787c-0.088 0.003-0.193 0.004-0.297 0.004h-0.001zM22.24 10.952c-1.298 2.203-3.259 3.974-5.608 5.058l1.88 2.685c0.148 0.212 0.097 0.504-0.115 0.653l-0.81 0.567c-0.212 0.148-0.504 0.097-0.653-0.115l-12.947-18.495c-0.148-0.212-0.097-0.504 0.115-0.653l0.81-0.567c0.212-0.148 0.504-0.097 0.653 0.115l2.169 3.099c1.117-0.316 2.297-0.486 3.515-0.486 4.682 0 8.789 2.5 10.99 6.236 0.163 0.272 0.26 0.601 0.26 0.952s-0.096 0.68-0.264 0.96l0.005-0.009zM20.625 10c-1.725-2.927-4.831-4.971-8.444-5.274-0.383 0.394-0.619 0.931-0.619 1.524 0 1.208 0.979 2.188 2.188 2.188s2.188-0.979 2.188-2.188l-0-0.002c1.197 2.237 0.654 5.088-1.443 6.708l1.043 1.49c2.143-0.909 3.927-2.478 5.087-4.446z"></path>
</svg>
