<svg xmlns="http://www.w3.org/2000/svg" width="23" height="20" viewBox="0 0 23 20">
<path d="M15.715 13.473l1.25-1.25c0.195-0.195 0.535-0.059 0.535 0.223v5.68c0 1.035-0.84 1.875-1.875 1.875h-13.75c-1.035 0-1.875-0.84-1.875-1.875v-13.75c0-1.035 0.84-1.875 1.875-1.875h10.684c0.277 0 0.418 0.336 0.223 0.535l-1.25 1.25c-0.059 0.059-0.137 0.090-0.223 0.090h-9.434v13.75h13.75v-4.434c0-0.082 0.031-0.16 0.090-0.219zM21.832 5.59l-10.258 10.258-3.531 0.391c-1.023 0.113-1.895-0.75-1.781-1.781l0.391-3.531 10.258-10.258c0.895-0.895 2.34-0.895 3.23 0l1.688 1.688c0.895 0.895 0.895 2.344 0.004 3.234zM17.973 6.797l-2.27-2.27-7.258 7.262-0.285 2.551 2.551-0.285 7.262-7.258zM20.504 3.684l-1.688-1.688c-0.16-0.16-0.422-0.16-0.578 0l-1.207 1.207 2.27 2.27 1.207-1.207c0.156-0.164 0.156-0.422-0.004-0.582z"></path>
</svg>
