<svg xmlns="http://www.w3.org/2000/svg" width="15" height="20" viewBox="0 0 15 20">
<path d="M11.25 9.688v1.094c0 0.258-0.211 0.469-0.469 0.469h-6.563c-0.258 0-0.469-0.211-0.469-0.469v-1.094c0-0.258 0.211-0.469 0.469-0.469h6.563c0.258 0 0.469 0.211 0.469 0.469zM10.781 12.5h-6.563c-0.258 0-0.469 0.211-0.469 0.469v1.094c0 0.258 0.211 0.469 0.469 0.469h6.563c0.258 0 0.469-0.211 0.469-0.469v-1.094c0-0.258-0.211-0.469-0.469-0.469zM15 5.152v12.973c0 1.035-0.84 1.875-1.875 1.875h-11.25c-1.035 0-1.875-0.84-1.875-1.875v-16.25c0-1.035 0.84-1.875 1.875-1.875h7.973c0.496 0 0.973 0.199 1.324 0.551l3.277 3.277c0.352 0.348 0.551 0.828 0.551 1.324zM10 2.027v2.973h2.973l-2.973-2.973zM13.125 18.125v-11.25h-4.063c-0.52 0-0.938-0.418-0.938-0.938v-4.063h-6.25v16.25h11.25z"></path>
</svg>
