<svg xmlns="http://www.w3.org/2000/svg" width="15" height="20" viewBox="0 0 15 20">
<path d="M14.451 3.826l-3.277-3.277c-0.339-0.339-0.808-0.549-1.326-0.549h-7.973c-1.036 0-1.875 0.839-1.875 1.875v16.25c0 1.036 0.839 1.875 1.875 1.875h11.25c1.036 0 1.875-0.839 1.875-1.875v-12.973c0-0.518-0.21-0.987-0.549-1.326v0zM12.973 5h-2.973v-2.973l2.973 2.973zM1.875 18.125v-16.25h6.25v4.063c0 0.518 0.42 0.938 0.938 0.938h4.063v11.25h-11.25zM10.808 9.871l-2.058 2.058v-1.46c0-0.431-0.35-0.781-0.781-0.781h-4.063c-0.431 0-0.781 0.35-0.781 0.781v4.063c0 0.431 0.35 0.781 0.781 0.781h4.063c0.431 0 0.781-0.35 0.781-0.781v-1.46l2.058 2.058c0.391 0.391 1.067 0.116 1.067-0.442v-4.374c0-0.559-0.676-0.833-1.067-0.442z"></path>
</svg>
