<svg xmlns="http://www.w3.org/2000/svg" width="15" height="20" viewBox="0 0 15 20">
<path d="M14.449 3.824l-3.277-3.277c-0.352-0.352-0.828-0.551-1.324-0.551h-7.973c-1.035 0.004-1.875 0.844-1.875 1.879v16.25c0 1.035 0.84 1.875 1.875 1.875h11.25c1.035 0 1.875-0.84 1.875-1.875v-12.973c0-0.496-0.199-0.977-0.551-1.328zM12.973 5h-2.973v-2.973l2.973 2.973zM1.875 18.125v-16.25h6.25v4.063c0 0.52 0.418 0.938 0.938 0.938h4.063v11.25h-11.25zM10.156 8.75h-1.125c-0.172 0-0.328 0.094-0.41 0.246-0.703 1.293-0.867 1.656-1.117 2.254-0.543-1.137-0.27-0.676-1.117-2.254-0.082-0.152-0.242-0.246-0.414-0.246h-1.129c-0.363 0-0.586 0.391-0.406 0.703l1.809 3.047-1.809 3.047c-0.184 0.313 0.043 0.703 0.406 0.703h1.129c0.172 0 0.328-0.094 0.41-0.246 0.848-1.563 0.898-1.758 1.117-2.254 0.582 1.18 0.23 0.621 1.117 2.254 0.082 0.152 0.242 0.246 0.414 0.246h1.125c0.363 0 0.586-0.391 0.406-0.703l-1.813-3.047c0.027-0.043 1.184-1.973 1.809-3.047 0.184-0.313-0.043-0.703-0.402-0.703z"></path>
</svg>
