<svg xmlns="http://www.w3.org/2000/svg" width="15" height="20" viewBox="0 0 15 20">
<path d="M14.449 3.824l-3.277-3.277c-0.352-0.352-0.828-0.551-1.324-0.551h-7.973c-1.035 0.004-1.875 0.844-1.875 1.879v16.25c0 1.035 0.84 1.875 1.875 1.875h11.25c1.035 0 1.875-0.84 1.875-1.875v-12.973c0-0.496-0.199-0.977-0.551-1.328zM12.973 5h-2.973v-2.973l2.973 2.973zM1.875 18.125v-16.25h6.25v4.063c0 0.52 0.418 0.938 0.938 0.938h4.063v11.25h-11.25zM10.473 10c-0.223 0-0.414 0.156-0.457 0.371-0.805 3.816-0.797 3.727-0.82 4.043-0.008-0.047-0.016-0.102-0.027-0.168-0.031-0.199 0.012 0.008-0.922-3.887-0.051-0.211-0.238-0.359-0.457-0.359h-0.52c-0.215 0-0.402 0.148-0.457 0.355-0.953 3.867-0.938 3.758-0.969 4.051-0.004-0.043-0.008-0.098-0.020-0.164-0.027-0.203-0.551-2.863-0.746-3.867-0.043-0.219-0.234-0.379-0.461-0.379h-0.656c-0.305 0-0.527 0.285-0.457 0.578 0.313 1.273 1.043 4.277 1.297 5.313 0.051 0.211 0.238 0.355 0.457 0.355h0.984c0.215 0 0.402-0.145 0.453-0.355l0.699-2.789c0.059-0.242 0.098-0.469 0.117-0.676l0.113 0.676c0.004 0.016 0.492 1.973 0.699 2.789 0.051 0.207 0.238 0.355 0.453 0.355h0.965c0.215 0 0.402-0.145 0.453-0.355 0.813-3.199 1.18-4.648 1.348-5.313 0.074-0.297-0.148-0.582-0.453-0.582h-0.617z"></path>
</svg>
