<svg xmlns="http://www.w3.org/2000/svg" width="15" height="20" viewBox="0 0 15 20">
<path d="M14.451 3.826l-3.277-3.277c-0.339-0.339-0.808-0.549-1.326-0.549h-7.973c-1.036 0-1.875 0.839-1.875 1.875v16.25c0 1.036 0.839 1.875 1.875 1.875h11.25c1.036 0 1.875-0.839 1.875-1.875v-12.973c0-0.518-0.21-0.987-0.549-1.326v0zM12.973 5h-2.973v-2.973l2.973 2.973zM1.875 18.125v-16.25h6.25v4.063c0 0.518 0.42 0.938 0.938 0.938h4.063v11.25h-11.25zM5.847 13.628l-1.282-1.128 1.282-1.128c0.072-0.063 0.117-0.155 0.117-0.258 0-0.091-0.035-0.174-0.093-0.235l0 0-0.68-0.725c-0.132-0.141-0.35-0.143-0.486-0.016l-2.252 2.111c-0.145 0.136-0.145 0.366 0 0.502l2.252 2.112c0.061 0.058 0.143 0.093 0.234 0.093 0 0 0 0 0.001 0h-0c0 0 0.001 0 0.001 0 0.099 0 0.187-0.042 0.25-0.108l0-0 0.68-0.725c0.058-0.061 0.093-0.144 0.093-0.235 0-0.103-0.045-0.195-0.116-0.258l-0-0zM9.139 8.634l-0.953-0.277c-0.029-0.009-0.062-0.014-0.096-0.014-0.156 0-0.287 0.104-0.329 0.246l-0.001 0.002-2.133 7.348c-0.053 0.182 0.052 0.373 0.234 0.426l0.953 0.277c0.183 0.053 0.373-0.053 0.426-0.234l2.133-7.348c0.053-0.182-0.052-0.373-0.234-0.426zM12.548 12.249l-2.252-2.112c-0.138-0.129-0.355-0.124-0.486 0.016l-0.68 0.725c-0.058 0.061-0.093 0.144-0.093 0.235 0 0.103 0.045 0.195 0.116 0.258l0 0 1.282 1.128-1.282 1.128c-0.072 0.063-0.117 0.155-0.117 0.258 0 0.091 0.035 0.174 0.093 0.235l-0-0 0.68 0.725c0.063 0.067 0.152 0.109 0.251 0.109 0.091 0 0.174-0.035 0.235-0.093l-0 0h-0l2.252-2.112c0.145-0.136 0.145-0.366-0-0.502z"></path>
</svg>
