<svg xmlns="http://www.w3.org/2000/svg" width="15" height="20" viewBox="0 0 15 20">
<path d="M14.449 3.824l-3.277-3.277c-0.352-0.352-0.828-0.551-1.324-0.551h-7.973c-1.035 0.004-1.875 0.844-1.875 1.879v16.25c0 1.035 0.84 1.875 1.875 1.875h11.25c1.035 0 1.875-0.84 1.875-1.875v-12.973c0-0.496-0.199-0.977-0.551-1.328zM12.973 5h-2.973v-2.973l2.973 2.973zM1.875 18.125v-16.25h6.25v4.063c0 0.52 0.418 0.938 0.938 0.938h4.063v11.25h-11.25zM11.648 12.512c-0.477-0.469-1.836-0.34-2.516-0.254-0.672-0.41-1.121-0.977-1.438-1.809 0.152-0.629 0.395-1.586 0.211-2.188-0.164-1.023-1.477-0.922-1.664-0.23-0.172 0.629-0.016 1.504 0.273 2.621-0.391 0.934-0.973 2.188-1.383 2.906-0.781 0.402-1.836 1.023-1.992 1.805-0.129 0.617 1.016 2.156 2.973-1.219 0.875-0.289 1.828-0.645 2.672-0.785 0.738 0.398 1.602 0.664 2.18 0.664 0.996 0 1.094-1.102 0.684-1.512zM3.91 15.551c0.199-0.535 0.957-1.152 1.188-1.367-0.742 1.184-1.188 1.395-1.188 1.367zM7.098 8.105c0.289 0 0.262 1.254 0.070 1.594-0.172-0.543-0.168-1.594-0.070-1.594zM6.145 13.441c0.379-0.66 0.703-1.445 0.965-2.137 0.324 0.59 0.738 1.062 1.176 1.387-0.813 0.168-1.52 0.512-2.141 0.75zM11.285 13.246s-0.195 0.234-1.457-0.305c1.371-0.102 1.598 0.211 1.457 0.305z"></path>
</svg>
