<svg xmlns="http://www.w3.org/2000/svg" width="23" height="20" viewBox="0 0 23 20">
<path d="M20.623 8.75h-1.873v-1.875c0-1.036-0.839-1.875-1.875-1.875h-6.25l-2.5-2.5h-6.25c-1.036 0-1.875 0.839-1.875 1.875v11.25c0 1.036 0.839 1.875 1.875 1.875h15.625c0.667 0 1.253-0.349 1.585-0.874l0.005-0.008 3.123-5c0.779-1.247-0.119-2.869-1.59-2.869zM2.109 4.375h5.239l2.5 2.5h6.792c0.129 0 0.234 0.105 0.234 0.234v0 1.641h-10.938c-0.678 0-1.271 0.359-1.601 0.898l-0.005 0.008-2.457 4.072v-9.119c0-0.129 0.105-0.234 0.234-0.234 0 0 0 0 0 0h-0zM17.5 15.625h-14.688l3.017-5h14.796l-3.125 5z"></path>
</svg>
