<svg xmlns="http://www.w3.org/2000/svg" width="15" height="20" viewBox="0 0 15 20">
<path d="M14.449 3.824l-3.277-3.277c-0.352-0.352-0.828-0.551-1.324-0.551h-7.973c-1.035 0.004-1.875 0.844-1.875 1.879v16.25c0 1.035 0.84 1.875 1.875 1.875h11.25c1.035 0 1.875-0.84 1.875-1.875v-12.973c0-0.496-0.199-0.977-0.551-1.328zM12.973 5h-2.973v-2.973l2.973 2.973zM1.875 18.125v-16.25h6.25v4.063c0 0.52 0.418 0.938 0.938 0.938h4.063v11.25h-11.25zM3.125 16.25h8.75v-5l-0.918-0.918c-0.184-0.184-0.48-0.184-0.664 0l-3.418 3.418-1.543-1.543c-0.184-0.184-0.48-0.184-0.664 0l-1.543 1.543v2.5zM5 6.875c-1.035 0-1.875 0.84-1.875 1.875s0.84 1.875 1.875 1.875 1.875-0.84 1.875-1.875-0.84-1.875-1.875-1.875z"></path>
</svg>
