<svg xmlns="http://www.w3.org/2000/svg" width="15" height="20" viewBox="0 0 15 20">
<path d="M14.451 3.826l-3.277-3.277c-0.339-0.339-0.808-0.549-1.326-0.549h-7.973c-1.036 0-1.875 0.839-1.875 1.875v16.25c0 1.036 0.839 1.875 1.875 1.875h11.25c1.036 0 1.875-0.839 1.875-1.875v-12.973c0-0.518-0.21-0.987-0.549-1.326v0zM12.973 5h-2.973v-2.973l2.973 2.973zM1.875 18.125v-16.25h6.25v4.063c0 0.518 0.42 0.938 0.938 0.938h4.063v11.25h-11.25zM7.5 15.155c0 0.418-0.505 0.627-0.8 0.331l-1.387-1.405h-1.094c-0.259 0-0.469-0.21-0.469-0.469v-2.188c0-0.259 0.21-0.469 0.469-0.469h1.094l1.387-1.443c0.295-0.295 0.8-0.086 0.8 0.331v5.311zM9.109 13.314c0.354-0.363 0.354-0.943 0-1.306-0.865-0.889 0.478-2.197 1.344-1.308 1.062 1.091 1.063 2.83 0 3.922-0.851 0.874-2.224-0.403-1.344-1.308z"></path>
</svg>
