<svg xmlns="http://www.w3.org/2000/svg" width="20" height="20" viewBox="0 0 20 20">
<path d="M13.132 3.125c-1.919 0-3.645-1.25-6.325-1.25-1.223 0-2.277 0.253-3.153 0.592 0.061-0.177 0.096-0.381 0.096-0.593 0-0.076-0.005-0.152-0.013-0.225l0.001 0.009c-0.102-0.893-0.84-1.596-1.738-1.654-1.092-0.071-2 0.794-2 1.871 0 0.694 0.377 1.299 0.938 1.624v15.876c0 0.345 0.28 0.625 0.625 0.625h0.625c0.345 0 0.625-0.28 0.625-0.625v-3.259c1.479-0.675 2.784-1.116 4.993-1.116 1.919 0 3.645 1.25 6.325 1.25 2.284 0 3.983-0.883 5.021-1.562 0.53-0.346 0.848-0.936 0.848-1.569v-9.372c0-1.346-1.378-2.257-2.613-1.723-1.402 0.605-2.869 1.101-4.255 1.101zM18.125 13.125c-0.851 0.602-2.376 1.25-3.995 1.25-2.342 0-3.984-1.25-6.325-1.25-1.694 0-3.765 0.367-4.993 0.938v-9.063c0.851-0.602 2.376-1.25 3.995-1.25 2.342 0 3.984 1.25 6.325 1.25 1.69 0 3.763-0.678 4.993-1.25v9.375z"></path>
</svg>
