<svg xmlns="http://www.w3.org/2000/svg" width="19" height="20" viewBox="0 0 19 20">
<path d="M18.898 7.008c-1.328-4.094-5.125-6.695-9.207-6.695-0.992 0-2 0.152-2.996 0.477-5.086 1.652-7.871 7.117-6.219 12.203 1.328 4.094 5.125 6.695 9.207 6.695 0.992 0 2-0.152 2.996-0.477 5.086-1.652 7.871-7.117 6.219-12.203zM15.988 14.574l-2.039 0.25-1.707-2.379 0.953-2.937 2.777-0.863 1.52 1.422c-0.008 1.199-0.289 2.387-0.848 3.484-0.184 0.363-0.418 0.695-0.656 1.023zM15.988 5.379l-0.406 2.074-2.762 0.859-2.508-1.816v-2.883l1.852-1.023c1.531 0.508 2.867 1.484 3.824 2.789zM7.223 2.594l1.84 1.020v2.883l-2.508 1.816-2.758-0.859-0.395-2.051c0.949-1.305 2.262-2.289 3.82-2.809zM5.43 14.824l-2.074-0.254c-0.563-0.785-1.457-2.328-1.477-4.504l1.523-1.422 2.777 0.867 0.949 2.902-1.699 2.41zM7.313 17.441l-0.875-1.879 1.703-2.41h3.070l1.73 2.41-0.875 1.879c-0.242 0.070-2.25 0.797-4.754 0z"></path>
</svg>
