<svg xmlns="http://www.w3.org/2000/svg" width="15" height="20" viewBox="0 0 15 20">
<path d="M14.451 3.826l-3.277-3.277c-0.339-0.339-0.808-0.549-1.326-0.549h-7.973c-1.036 0-1.875 0.839-1.875 1.875v16.25c0 1.036 0.839 1.875 1.875 1.875h11.25c1.036 0 1.875-0.839 1.875-1.875v-12.973c0-0.518-0.21-0.987-0.549-1.326v0zM10 2.027l2.973 2.973h-2.973v-2.973zM13.125 18.125h-11.25v-16.25h3.114v0.625h1.25v-0.625h1.886v4.063c0 0.518 0.42 0.938 0.938 0.938h4.063v11.25zM7.511 3.75h-1.25v-1.25h1.25v1.25zM6.261 3.75v1.25h-1.25v-1.25h1.25zM6.261 6.25v1.25h-1.25v-1.25h1.25zM7.511 6.25h-1.25v-1.25h1.25v1.25zM7.585 10.378c-0.044-0.217-0.233-0.378-0.46-0.378h-0.865v-1.25h-1.25v1.25l-0.769 3.793c-0.257 1.27 0.713 2.457 2.009 2.457 1.291 0 2.261-1.179 2.011-2.446l-0.676-3.426zM6.261 15.237c-0.7 0-1.267-0.473-1.267-1.056s0.567-1.056 1.267-1.056 1.267 0.473 1.267 1.056c0 0.583-0.567 1.056-1.267 1.056zM7.511 8.75h-1.25v-1.25h1.25v1.25z"></path>
</svg>
