<svg xmlns="http://www.w3.org/2000/svg" width="15" height="20" viewBox="0 0 15 20">
<path d="M14.449 3.824l-3.277-3.277c-0.352-0.352-0.828-0.551-1.324-0.551h-7.973c-1.035 0.004-1.875 0.844-1.875 1.879v16.25c0 1.035 0.84 1.875 1.875 1.875h11.25c1.035 0 1.875-0.84 1.875-1.875v-12.973c0-0.496-0.199-0.977-0.551-1.328zM12.973 5h-2.973v-2.973l2.973 2.973zM1.875 18.125v-16.25h6.25v4.063c0 0.52 0.418 0.938 0.938 0.938h4.063v11.25h-11.25zM4.688 15.781v-6.563c0-0.258 0.211-0.469 0.469-0.469h2.703c1.434 0 2.453 1.055 2.453 2.59 0 2.902-2.684 2.598-3.73 2.598v1.844c0 0.258-0.211 0.469-0.469 0.469h-0.957c-0.258 0-0.469-0.211-0.469-0.469zM6.582 12.367h0.898c0.309 0 0.543-0.094 0.707-0.281 0.332-0.383 0.328-1.113 0.004-1.477-0.16-0.18-0.387-0.273-0.68-0.273h-0.934v2.031z"></path>
</svg>
