<svg xmlns="http://www.w3.org/2000/svg" width="23" height="20" viewBox="0 0 23 20">
<path d="M18.125 0h-13.75c-0.156 0-0.305 0.078-0.391 0.211l-3.906 5.75c-0.113 0.172-0.102 0.398 0.027 0.555l10.781 13.313c0.188 0.23 0.539 0.23 0.727 0l10.781-13.313c0.129-0.16 0.141-0.383 0.027-0.555l-3.902-5.75c-0.090-0.133-0.234-0.211-0.395-0.211zM17.371 1.875l2.473 3.75h-2.672l-2.020-3.75h2.219zM9.477 1.875h3.543l2.020 3.75h-7.578l2.016-3.75zM5.129 1.875h2.219l-2.020 3.75h-2.672l2.473-3.75zM3.449 7.5h2.008l2.668 6.25-4.676-6.25zM7.469 7.5h7.562l-3.781 9.504-3.781-9.504zM14.375 13.75l2.664-6.25h2.008l-4.672 6.25z"></path>
</svg>
