<svg xmlns="http://www.w3.org/2000/svg" width="18" height="20" viewBox="0 0 18 20">
<path d="M5 9.531v-1.563c0-0.259 0.21-0.469 0.469-0.469h1.563c0.259 0 0.469 0.21 0.469 0.469v1.563c0 0.259-0.21 0.469-0.469 0.469h-1.563c-0.259 0-0.469-0.21-0.469-0.469zM10.469 10h1.563c0.259 0 0.469-0.21 0.469-0.469v-1.563c0-0.259-0.21-0.469-0.469-0.469h-1.563c-0.259 0-0.469 0.21-0.469 0.469v1.563c0 0.259 0.21 0.469 0.469 0.469zM7.5 13.281v-1.563c0-0.259-0.21-0.469-0.469-0.469h-1.563c-0.259 0-0.469 0.21-0.469 0.469v1.563c0 0.259 0.21 0.469 0.469 0.469h1.563c0.259 0 0.469-0.21 0.469-0.469zM10.469 13.75h1.563c0.259 0 0.469-0.21 0.469-0.469v-1.563c0-0.259-0.21-0.469-0.469-0.469h-1.563c-0.259 0-0.469 0.21-0.469 0.469v1.563c0 0.259 0.21 0.469 0.469 0.469zM17.5 18.594v1.406h-17.5v-1.406c0-0.259 0.21-0.469 0.469-0.469h0.762v-14.803c0-0.454 0.42-0.822 0.938-0.822h3.457v-1.562c0-0.518 0.42-0.938 0.938-0.938h4.375c0.518 0 0.938 0.42 0.938 0.938v1.562h3.457c0.518 0 0.938 0.368 0.938 0.822v14.803h0.762c0.259 0 0.469 0.21 0.469 0.469zM3.105 18.086h4.395v-2.617c0-0.259 0.21-0.469 0.469-0.469h1.563c0.259 0 0.469 0.21 0.469 0.469v2.617h4.395v-13.711h-2.52v0.938c0 0.518-0.42 0.938-0.938 0.938h-4.375c-0.518 0-0.938-0.42-0.938-0.938v-0.938h-2.52v13.711zM10.391 2.5h-1.016v-1.016c0-0.129-0.105-0.234-0.234-0.234v0h-0.781c-0.129 0-0.234 0.105-0.234 0.234v0 1.016h-1.016c-0.129 0-0.234 0.105-0.234 0.234v0 0.781c0 0.129 0.105 0.234 0.234 0.234v0h1.016v1.016c0 0.129 0.105 0.234 0.234 0.234v0h0.781c0.129 0 0.234-0.105 0.234-0.234v0-1.016h1.016c0.129 0 0.234-0.105 0.234-0.234v0-0.781c0-0.129-0.105-0.234-0.234-0.234v0z"></path>
</svg>
