<svg xmlns="http://www.w3.org/2000/svg" width="15" height="20" viewBox="0 0 15 20">
<path d="M14.375 1.875h0.156c0.259 0 0.469-0.21 0.469-0.469v-0.938c0-0.259-0.21-0.469-0.469-0.469h-14.063c-0.259 0-0.469 0.21-0.469 0.469v0.938c0 0.259 0.21 0.469 0.469 0.469h0.156c0 3.147 1.257 6.477 3.796 8.125-2.55 1.656-3.796 4.996-3.796 8.125h-0.156c-0.259 0-0.469 0.21-0.469 0.469v0.938c0 0.259 0.21 0.469 0.469 0.469h14.063c0.259 0 0.469-0.21 0.469-0.469v-0.938c0-0.259-0.21-0.469-0.469-0.469h-0.156c0-3.147-1.257-6.477-3.796-8.125 2.55-1.656 3.796-4.996 3.796-8.125zM2.5 1.875h10c0 3.97-2.239 7.188-5 7.188s-5-3.218-5-7.188zM12.5 18.125h-10c0-3.97 2.239-7.188 5-7.188s5 3.218 5 7.188z"></path>
</svg>
