<svg xmlns="http://www.w3.org/2000/svg" width="20" height="20" viewBox="0 0 20 20">
<path d="M10 18.75l2.734-0.001c0.2 0 0.4-0.023 0.594-0.068l4.648-1.071c1.186-0.273 2.023-1.321 2.023-2.522v-8.035c0-0.931-0.509-1.795-1.328-2.254l-3.828-2.143c-1.344-0.752-2.627-0.228-3.602 0.966l-5.661-2.178c-1.48-0.569-3.149 0.146-3.736 1.609-0.59 1.47 0.142 3.139 1.638 3.715l3.080 0.73-3.672-0.357c-1.594 0-2.891 1.282-2.891 2.857s1.297 2.857 2.891 2.857h3.423c-0.144 1.025 0.34 2.004 1.185 2.539-0.52 1.664 0.745 3.354 2.501 3.354zM10 16.874c-0.983 0-0.981-1.428 0-1.428 0.345 0 0.625-0.28 0.625-0.625v-0.268c0-0.345-0.28-0.625-0.625-0.625h-1.094c-0.983 0-0.981-1.428 0-1.428h1.094c0.345 0 0.625-0.28 0.625-0.625v-0.268c0-0.345-0.28-0.625-0.625-0.625h-7.109c-1.345 0-1.343-1.964 0-1.964h7.109c0.345 0 0.625-0.28 0.625-0.625v-0.454c0 0 0 0 0-0 0-0.264-0.164-0.491-0.396-0.582l-0.004-0.001-6.069-2.335c-1.232-0.474-0.525-2.316 0.751-1.825l6.506 2.504c0.067 0.026 0.144 0.042 0.224 0.042 0.195 0 0.369-0.089 0.483-0.229l0.001-0.001 0.85-1.041c0.227-0.278 0.639-0.354 0.957-0.176l3.828 2.143c0.228 0.127 0.369 0.364 0.369 0.617v8.035c0 0.332-0.234 0.617-0.569 0.695l-4.648 1.071c-0.052 0.012-0.112 0.020-0.173 0.020h-2.734z"></path>
</svg>
