<svg xmlns="http://www.w3.org/2000/svg" width="23" height="20" viewBox="0 0 23 20">
<path d="M22.164 9.205l-4.105-5.901c-0.343-0.489-0.904-0.804-1.539-0.804 0 0-0 0-0 0h-10.541c0 0-0 0-0 0-0.635 0-1.196 0.316-1.535 0.798l-0.004 0.006-4.105 5.901c-0.21 0.299-0.336 0.67-0.336 1.071v0 5.349c0 1.036 0.839 1.875 1.875 1.875h18.75c1.036 0 1.875-0.839 1.875-1.875v-5.349c0-0.383-0.117-0.756-0.336-1.071zM5.98 4.375h10.541l3.043 4.375h-16.627l3.043-4.375zM20.625 15.625h-18.75v-5h18.75v5zM19.375 13.125c0 0.69-0.56 1.25-1.25 1.25s-1.25-0.56-1.25-1.25 0.56-1.25 1.25-1.25 1.25 0.56 1.25 1.25zM15.625 13.125c0 0.69-0.56 1.25-1.25 1.25s-1.25-0.56-1.25-1.25 0.56-1.25 1.25-1.25 1.25 0.56 1.25 1.25z"></path>
</svg>
