<svg xmlns="http://www.w3.org/2000/svg" width="20" height="20" viewBox="0 0 20 20">
<path d="M15.971 3.088c-0.875-1.324-2.582-1.651-3.86-0.921-1.151-1.229-3.092-1.215-4.232-0.001-1.842-1.055-4.246 0.197-4.323 2.375-1.805-0.423-3.556 0.928-3.556 2.781v2.225c0 1.279 0.558 2.498 1.53 3.345l3.817 3.323c0.166 0.145 0.121 0.218 0.121 1.285 0 0.69 0.56 1.25 1.25 1.25h9.844c0.69 0 1.25-0.56 1.25-1.25 0-0.918-0.040-1.201 0.156-1.655l1.673-3.893c0.238-0.554 0.359-1.14 0.359-1.741v-4.47c0-2.064-2.122-3.463-4.029-2.653zM18.125 10.211c0 0.001 0 0.001 0 0.002 0 0.361-0.076 0.704-0.213 1.015l0.006-0.016-1.673 3.893c-0.204 0.475-0.308 0.978-0.308 1.494v0.276h-8.594v-0.402c0-0.639-0.279-1.249-0.765-1.673l-3.817-3.323c-0.564-0.491-0.887-1.195-0.887-1.931v-2.225c0-1.297 2.031-1.31 2.031 0.026v1.61c0 0 0 0 0 0 0 0.188 0.083 0.356 0.214 0.471l0.001 0.001 0.273 0.238c0.109 0.095 0.253 0.154 0.41 0.154 0.345 0 0.625-0.28 0.625-0.625v0-4.554c0-1.293 2.031-1.317 2.031 0.026v1.045c0 0.345 0.28 0.625 0.625 0.625h0.273c0.345 0 0.625-0.28 0.625-0.625v-1.607c0-1.294 2.031-1.315 2.031 0.026v1.581c0 0.345 0.28 0.625 0.625 0.625h0.273c0.345 0 0.625-0.28 0.625-0.625v-1.071c0-1.29 2.031-1.32 2.031 0.026v1.045c0 0.345 0.28 0.625 0.625 0.625h0.273c0.345 0 0.625-0.28 0.625-0.625 0-1.295 2.031-1.313 2.031 0.026v4.471z"></path>
</svg>
