<svg xmlns="http://www.w3.org/2000/svg" width="25" height="20" viewBox="0 0 25 20">
<path d="M24.063 3.75h-1.875c-0.278 0-0.527 0.121-0.699 0.313h-0.919l-1.222-1.425c-0.748-0.852-1.84-1.387-3.057-1.387-0 0-0 0-0 0h-1.818c-0.693 0-1.363 0.193-1.941 0.547-0.643-0.355-1.372-0.547-2.116-0.547h-1.254c-1.129 0-2.25 0.438-3.094 1.281l-1.531 1.531h-1.025c-0.172-0.192-0.421-0.313-0.699-0.313h-1.875c-0.518 0-0.938 0.42-0.938 0.938v9.375c0 0.518 0.42 0.938 0.938 0.938h1.875c0.408 0 0.755-0.261 0.884-0.625h0.734l2.943 2.639c0.998 1.033 2.341 1.736 3.773 1.736 0.64 0 1.261-0.15 1.801-0.427 0.974 0.019 1.996-0.405 2.698-1.227 0.769-0.218 1.465-0.681 1.981-1.352 0.82-0.172 1.591-0.644 2.087-1.37h1.59c0.129 0.364 0.476 0.625 0.884 0.625h1.875c0.518 0 0.938-0.42 0.938-0.938v-9.375c0-0.518-0.42-0.938-0.938-0.938zM1.875 13.75c-0.345 0-0.625-0.28-0.625-0.625s0.28-0.625 0.625-0.625 0.625 0.28 0.625 0.625-0.28 0.625-0.625 0.625zM17.989 13.525c-0.6 0.558-1.441 0.442-1.561 0.313 0.055 0.523-0.713 1.603-1.917 1.519-0.216 0.724-1.102 1.321-2.011 1.006-0.347 0.347-0.877 0.513-1.353 0.513-0.975 0-1.866-0.568-2.466-1.207l-3.176-2.848c-0.22-0.198-0.513-0.32-0.834-0.32-0 0-0 0-0 0h-0.92v-6.563h1.045c0.331 0 0.649-0.132 0.884-0.366l1.714-1.714c0.452-0.453 1.078-0.732 1.768-0.732h1.254c0.227 0 0.45 0.031 0.664 0.090l-1.69 1.972c-0.92 1.073-0.931 2.641-0.026 3.728 1.265 1.518 3.569 1.532 4.863 0.077l1.015-1.175 2.83 3.745c0.525 0.57 0.428 1.489-0.081 1.963zM21.25 12.5h-0.955c0.004-0.791-0.266-1.536-0.772-2.125l-3.050-4.036c0.176-0.371 0.091-0.829-0.235-1.111-0.394-0.339-0.986-0.293-1.323 0.097l-2.095 2.427c-0.54 0.602-1.493 0.592-2.017-0.036-0.147-0.174-0.236-0.401-0.236-0.648 0-0.252 0.093-0.483 0.246-0.66l-0.001 0.001 2.262-2.64c0.339-0.394 0.839-0.643 1.397-0.643 0 0 0 0 0 0h1.818c0.629 0 1.228 0.271 1.643 0.744l1.774 2.069h1.542v6.563zM23.125 13.75c-0.345 0-0.625-0.28-0.625-0.625s0.28-0.625 0.625-0.625 0.625 0.28 0.625 0.625-0.28 0.625-0.625 0.625z"></path>
</svg>
