<svg xmlns="http://www.w3.org/2000/svg" width="23" height="20" viewBox="0 0 23 20">
<path d="M21.746 11.349l-5.717-8.817c-0.521-0.803-1.403-1.282-2.36-1.282h-11.481c-1.206 0-2.188 0.981-2.188 2.188v0.313c0 1.723 1.402 3.125 3.125 3.125h7.658l-0.716 1.875h-4.442c-1.895 0-3.437 1.542-3.437 3.438 0 1.206 0.981 2.188 2.187 2.188h5.139c0.117 0 0.231 0.021 0.34 0.064l3.897 1.515v2.796h8.75v-4.85c0-0.907-0.261-1.789-0.754-2.55zM20.625 16.875h-5v-0.921c0-0.779-0.469-1.465-1.195-1.748l-3.897-1.515c-0.302-0.121-0.651-0.191-1.017-0.191-0.001 0-0.001 0-0.002 0h-5.139c-0.172 0-0.313-0.14-0.313-0.313 0-0.862 0.701-1.563 1.563-1.563h4.442c0.772 0 1.476-0.485 1.752-1.206l0.959-2.511c0.351-0.92-0.329-1.908-1.314-1.908h-8.339c-0.689 0-1.25-0.561-1.25-1.25v-0.313c0-0.172 0.14-0.313 0.313-0.313h11.481c0.319 0 0.613 0.16 0.787 0.427l5.717 8.817c0.284 0.431 0.453 0.96 0.453 1.528 0 0.001 0 0.001 0 0.002v-0 2.975z"></path>
</svg>
