<svg xmlns="http://www.w3.org/2000/svg" width="20" height="20" viewBox="0 0 20 20">
<path d="M16.75 5.375h-3.366c0.054-0.262 0.085-0.563 0.085-0.872 0-0.001 0-0.002 0-0.003v0c0-1.872-1.37-3.25-3.594-3.25-1.77 0-2.227 1.896-2.957 3.078-0.302 0.485-0.664 0.911-1.010 1.299l-0.005 0.006-0.005 0.006c-0.598 0.683-0.907 0.925-1.179 0.925h-0.105c-0.224-0.193-0.529-0.313-0.864-0.313h-2.5c-0.69 0-1.25 0.504-1.25 1.125v9c0 0.621 0.56 1.125 1.25 1.125h2.5c0.335 0 0.64-0.119 0.864-0.313h0.105c1.121 0 2.623 1.563 4.969 1.563h0.832c2.443 0 3.859-1.51 3.904-3.56 0.488-0.696 0.722-1.593 0.624-2.453 0.129-0.248 0.236-0.536 0.305-0.837l0.005-0.024h1.393c1.775 0 3.25-1.468 3.25-3.25 0-1.762-1.488-3.25-3.25-3.25zM16.75 10h-3.556c0.501 0.573 0.563 1.673-0.193 2.385 0.439 0.767 0.066 1.782-0.505 2.095 0.255 1.528-0.394 2.396-1.977 2.396h-0.832c-1.777 0-3.016-1.403-4.687-1.55v-6.904c0.986-0.116 1.678-0.829 2.308-1.547 0.44-0.494 0.849-0.988 1.203-1.558 0.566-0.914 1.021-2.191 1.364-2.191 0.913 0 1.719 0.344 1.719 1.375 0 1.375-1.031 2.073-1.031 2.75h6.188c0.72 0 1.375 0.645 1.375 1.375 0 0.741-0.634 1.375-1.375 1.375zM3.438 15c0 0.518-0.42 0.938-0.938 0.938s-0.938-0.42-0.938-0.938 0.42-0.938 0.938-0.938 0.938 0.42 0.938 0.938z"></path>
</svg>
