<svg xmlns="http://www.w3.org/2000/svg" width="18" height="20" viewBox="0 0 18 20">
<path d="M14.554 4.4v-0.423c0-1.704-1.583-2.996-3.244-2.56-1.001-1.934-3.675-1.854-4.609 0.029-1.612-0.413-3.219 0.817-3.219 2.538v4.927c-0.779-0.29-1.692-0.198-2.425 0.347-1.147 0.851-1.398 2.474-0.568 3.639l4.686 6.579c0.229 0.319 0.6 0.525 1.018 0.525h8.707c0.582 0 1.087-0.402 1.218-0.969l1.179-5.116c0.129-0.536 0.203-1.151 0.203-1.784v-5.139c0-1.587-1.388-2.812-2.946-2.592zM15.625 12.131c0 0.458-0.052 0.917-0.155 1.363l-1.067 4.631h-7.888l-4.5-6.316c-0.564-0.792 0.587-1.671 1.148-0.883l1.060 1.487c0.351 0.493 1.134 0.246 1.134-0.363v-8.066c0-1.002 1.429-0.969 1.429 0.027v5.989c0 0.345 0.28 0.625 0.625 0.625h0.268c0.345 0 0.625-0.28 0.625-0.625v-7.383c0-1.002 1.429-0.969 1.429 0.027v7.356c0 0.345 0.28 0.625 0.625 0.625h0.268c0.345 0 0.625-0.28 0.625-0.625v-6.050c0-1.003 1.429-0.969 1.429 0.027v6.023c0 0.345 0.28 0.625 0.625 0.625h0.268c0.345 0 0.625-0.28 0.625-0.625v-2.981c0-1.025 1.429-1.002 1.429-0.027v5.139z"></path>
</svg>
