<svg xmlns="http://www.w3.org/2000/svg" width="23" height="20" viewBox="0 0 23 20">
<path d="M10.051 18.57l-6.438-6.32c-0.277-0.258-2.676-2.559-2.676-5.422 0-3.543 2.219-5.891 5.938-5.891 1.617 0 3.148 0.891 4.375 1.945 1.223-1.055 2.758-1.945 4.375-1.945 3.582 0 5.938 2.207 5.938 5.891 0 2.031-1.242 4.043-2.66 5.418l-0.016 0.016-6.438 6.309c-0.308 0.304-0.732 0.492-1.199 0.492s-0.891-0.188-1.199-0.492l0 0zM4.918 10.902l6.332 6.219 6.32-6.199c1.066-1.055 2.117-2.59 2.117-4.094 0-2.613-1.492-4.016-4.063-4.016-1.844 0-3.625 1.926-4.375 2.672-0.664-0.664-2.5-2.672-4.375-2.672-2.574 0-4.063 1.402-4.063 4.016 0 1.457 1.043 3.082 2.105 4.074z"></path>
</svg>
