<svg xmlns="http://www.w3.org/2000/svg" width="18" height="20" viewBox="0 0 18 20">
<path d="M13.991 7.006c-0.761-0.968-2.058-1.248-3.12-0.746-0.591-0.613-1.413-0.878-2.211-0.767v-2.876c0-1.443-1.162-2.617-2.589-2.617s-2.589 1.174-2.589 2.617v6.294c-0.778-0.289-1.69-0.199-2.425 0.347-1.147 0.851-1.398 2.474-0.568 3.639l4.285 6.016c0.485 0.681 1.271 1.088 2.101 1.088h6.964c1.203 0 2.249-0.84 2.522-2.023l1.071-4.648c0.043-0.178 0.067-0.383 0.067-0.594v-3.281c0-1.83-1.821-3.097-3.509-2.447zM3.163 10.926l1.060 1.487c0.351 0.493 1.134 0.246 1.134-0.363v-9.433c0-0.981 1.429-0.983 1.429 0v6.836c0 0.345 0.28 0.625 0.625 0.625h0.268c0.345 0 0.625-0.28 0.625-0.625v-1.367c0-0.981 1.429-0.983 1.429 0v1.367c0 0.345 0.28 0.625 0.625 0.625h0.268c0.345 0 0.625-0.28 0.625-0.625v-0.82c0-0.981 1.429-0.983 1.429 0v0.82c0 0.345 0.28 0.625 0.625 0.625h0.268c0.345 0 0.625-0.28 0.625-0.625 0-0.981 1.429-0.983 1.429 0v3.281c0 0.058-0.007 0.116-0.020 0.173l-1.071 4.648c-0.077 0.335-0.363 0.569-0.695 0.569h-6.964c-0.225 0-0.44-0.112-0.574-0.301l-4.286-6.016c-0.563-0.79 0.586-1.673 1.148-0.883zM6.881 15.625v-3.75c0-0.345 0.245-0.625 0.547-0.625h0.234c0.302 0 0.547 0.28 0.547 0.625v3.75c0 0.345-0.245 0.625-0.547 0.625h-0.234c-0.302 0-0.547-0.28-0.547-0.625zM9.827 15.625v-3.75c0-0.345 0.245-0.625 0.547-0.625h0.234c0.302 0 0.547 0.28 0.547 0.625v3.75c0 0.345-0.245 0.625-0.547 0.625h-0.234c-0.302 0-0.547-0.28-0.547-0.625zM12.773 15.625v-3.75c0-0.345 0.245-0.625 0.547-0.625h0.234c0.302 0 0.547 0.28 0.547 0.625v3.75c0 0.345-0.245 0.625-0.547 0.625h-0.234c-0.302 0-0.547-0.28-0.547-0.625z"></path>
</svg>
