<svg xmlns="http://www.w3.org/2000/svg" width="20" height="20" viewBox="0 0 20 20">
<path d="M0 8.625c0 1.782 1.475 3.25 3.25 3.25h1.392c0.074 0.326 0.18 0.614 0.319 0.882l-0.010-0.020c-0.098 0.86 0.137 1.757 0.624 2.453 0.044 2.050 1.461 3.56 3.904 3.56h0.832c2.346 0 3.848-1.563 4.969-1.563h0.105c0.224 0.193 0.529 0.313 0.864 0.313h2.5c0.69 0 1.25-0.504 1.25-1.125v-9c0-0.621-0.56-1.125-1.25-1.125h-2.5c-0.335 0-0.64 0.119-0.864 0.313h-0.105c-0.272 0-0.581-0.242-1.179-0.925l-0.005-0.006-0.005-0.006c-0.346-0.388-0.708-0.814-1.010-1.299-0.731-1.182-1.187-3.078-2.957-3.078-2.224 0-3.594 1.378-3.594 3.25 0 0.314 0.032 0.605 0.085 0.875h-3.366c-1.762 0-3.25 1.488-3.25 3.25zM1.875 8.625c0-0.73 0.655-1.375 1.375-1.375h6.188c0-0.677-1.031-1.375-1.031-2.75 0-1.031 0.806-1.375 1.719-1.375 0.344 0 0.799 1.278 1.364 2.191 0.354 0.569 0.763 1.063 1.203 1.558 0.629 0.718 1.322 1.431 2.308 1.547v6.904c-1.671 0.147-2.911 1.55-4.688 1.55h-0.832c-1.583 0-2.231-0.867-1.977-2.396-0.571-0.313-0.943-1.327-0.505-2.095-0.756-0.712-0.695-1.812-0.193-2.385h-3.556c-0.741 0-1.375-0.634-1.375-1.375zM17.5 14.063c0.518 0 0.938 0.42 0.938 0.938s-0.42 0.938-0.938 0.938-0.938-0.42-0.938-0.938 0.42-0.938 0.938-0.938z"></path>
</svg>
