<svg xmlns="http://www.w3.org/2000/svg" width="18" height="20" viewBox="0 0 18 20">
<path d="M4.125 3.25v3.366c-0.262-0.054-0.563-0.085-0.872-0.085-0.001 0-0.002 0-0.003 0h0c-1.872 0-3.25 1.37-3.25 3.594 0 1.77 1.896 2.227 3.078 2.957 0.485 0.302 0.911 0.664 1.299 1.010l0.006 0.005 0.006 0.005c0.683 0.598 0.925 0.907 0.925 1.179v0.105c-0.193 0.224-0.313 0.529-0.313 0.864v2.5c0 0.69 0.504 1.25 1.125 1.25h9c0.621 0 1.125-0.56 1.125-1.25v-2.5c0-0.335-0.119-0.64-0.312-0.864v-0.105c0-1.121 1.562-2.623 1.562-4.969v-0.832c0-2.443-1.51-3.859-3.56-3.904-0.696-0.488-1.593-0.722-2.453-0.624-0.248-0.129-0.536-0.236-0.837-0.305l-0.024-0.005v-1.392c0-1.775-1.468-3.25-3.25-3.25-1.762 0-3.25 1.488-3.25 3.25zM8.75 3.25v3.556c0.573-0.501 1.673-0.563 2.385 0.193 0.767-0.439 1.782-0.066 2.095 0.505 1.528-0.255 2.396 0.394 2.396 1.977v0.832c0 1.777-1.403 3.016-1.55 4.688h-6.904c-0.116-0.986-0.829-1.678-1.547-2.308-0.494-0.44-0.988-0.849-1.558-1.203-0.914-0.566-2.191-1.021-2.191-1.364 0-0.913 0.344-1.719 1.375-1.719 1.375 0 2.073 1.031 2.75 1.031v-6.188c0-0.72 0.645-1.375 1.375-1.375 0.741 0 1.375 0.634 1.375 1.375zM13.75 16.563c0.518 0 0.938 0.42 0.938 0.938s-0.42 0.938-0.938 0.938-0.938-0.42-0.938-0.938 0.42-0.938 0.938-0.938z"></path>
</svg>
