<svg xmlns="http://www.w3.org/2000/svg" width="18" height="20" viewBox="0 0 18 20">
<path d="M7.375 20c1.782 0 3.25-1.475 3.25-3.25v-1.392c0.326-0.074 0.614-0.18 0.882-0.319l-0.020 0.010c0.86 0.098 1.757-0.137 2.453-0.624 2.050-0.044 3.56-1.461 3.56-3.904v-0.832c0-2.346-1.562-3.848-1.562-4.969v-0.105c0.193-0.224 0.312-0.529 0.312-0.864v-2.5c0-0.69-0.504-1.25-1.125-1.25h-9c-0.621 0-1.125 0.56-1.125 1.25v2.5c0 0.335 0.119 0.64 0.313 0.864v0.105c0 0.272-0.242 0.581-0.925 1.179l-0.006 0.005-0.006 0.005c-0.388 0.346-0.814 0.708-1.299 1.010-1.182 0.731-3.078 1.187-3.078 2.957 0 2.224 1.378 3.594 3.25 3.594 0.314 0 0.605-0.032 0.875-0.085v3.366c0 1.762 1.488 3.25 3.25 3.25zM7.375 18.125c-0.73 0-1.375-0.655-1.375-1.375v-6.188c-0.677 0-1.375 1.031-2.75 1.031-1.031 0-1.375-0.806-1.375-1.719 0-0.344 1.278-0.799 2.191-1.364 0.569-0.354 1.063-0.763 1.558-1.203 0.718-0.629 1.431-1.322 1.547-2.308h6.904c0.147 1.671 1.55 2.911 1.55 4.688v0.832c0 1.583-0.867 2.231-2.396 1.977-0.313 0.571-1.327 0.943-2.095 0.505-0.712 0.756-1.812 0.695-2.385 0.193v3.556c0 0.741-0.634 1.375-1.375 1.375zM12.813 2.5c0-0.518 0.42-0.938 0.938-0.938s0.938 0.42 0.938 0.938-0.42 0.938-0.938 0.938-0.938-0.42-0.938-0.938z"></path>
</svg>
