<svg xmlns="http://www.w3.org/2000/svg" width="20" height="20" viewBox="0 0 20 20">
<path d="M0.824 14.914l5.043 4.747c0.223 0.21 0.525 0.34 0.857 0.34h9.281c0.554 0 1.041-0.364 1.198-0.895l1.243-4.192c0.119-0.386 0.187-0.829 0.187-1.288 0-0 0-0 0-0v0-1.439c0-0.158 0.019-0.317 0.055-0.471l1.239-5.211c0.394-1.657-0.872-3.232-2.56-3.224-0.162-0.971-0.881-1.842-1.947-2.109-1.399-0.35-2.821 0.494-3.174 1.904l-0.66 4.111-0.847-5.156c-0.324-1.409-1.731-2.288-3.137-1.965-1.157 0.266-1.959 1.265-2.027 2.394-1.666 0.032-2.869 1.584-2.503 3.197l1.212 5.332c-1.062-0.879-2.628-0.781-3.574 0.224-0.991 1.053-0.941 2.708 0.112 3.699zM2.077 12.499l0-0c0.282-0.3 0.752-0.312 1.049-0.032l2.071 1.949c0.398 0.375 1.053 0.091 1.053-0.455v-2.714c0-0.047-0.005-0.093-0.016-0.139l-1.333-5.866c-0.219-0.962 1.231-1.284 1.447-0.329l1.187 5.225c0.065 0.281 0.313 0.486 0.609 0.486 0 0 0 0 0 0h0.336c0.401 0 0.699-0.374 0.609-0.765l-1.626-7.076c-0.22-0.956 1.226-1.292 1.447-0.332l1.766 7.689c0.066 0.28 0.314 0.485 0.609 0.485 0 0 0 0 0 0h0.516c0.291 0 0.536-0.199 0.605-0.469l0.001-0.004 1.655-6.621c0.238-0.954 1.678-0.592 1.44 0.36l-1.489 5.957c-0.098 0.394 0.2 0.777 0.606 0.777h0.379c0.294 0 0.54-0.203 0.607-0.476l0.001-0.004 1.052-4.418c0.227-0.955 1.672-0.613 1.444 0.344l-1.24 5.211c-0.067 0.272-0.106 0.584-0.106 0.905v1.439c0 0.256-0.037 0.51-0.11 0.755l-1.11 3.745h-8.567l-4.863-4.577c-0.298-0.28-0.312-0.751-0.032-1.049z"></path>
</svg>
