<svg xmlns="http://www.w3.org/2000/svg" width="18" height="20" viewBox="0 0 18 20">
<path d="M14.146 7.499c-0.536-0.846-1.514-1.329-2.539-1.185v-3.423c0-1.594-1.282-2.891-2.857-2.891s-2.857 1.297-2.857 2.891l0.357 3.672-0.73-3.080c-0.576-1.496-2.245-2.228-3.715-1.638-1.464 0.587-2.179 2.256-1.609 3.736l2.178 5.661c-1.194 0.975-1.719 2.258-0.966 3.602l2.143 3.828c0.459 0.819 1.322 1.328 2.254 1.328h8.035c1.201 0 2.248-0.837 2.522-2.023l1.071-4.648c0.043-0.178 0.068-0.383 0.068-0.594v-0l0-2.734c0-1.756-1.69-3.021-3.354-2.501zM15.624 12.734c0 0.058-0.007 0.116-0.020 0.173l-1.071 4.648c-0.077 0.335-0.363 0.569-0.695 0.569h-8.035c-0.253 0-0.49-0.141-0.617-0.369l-2.143-3.828c-0.178-0.318-0.102-0.729 0.176-0.957l1.041-0.85c0.141-0.115 0.23-0.289 0.23-0.484 0-0.081-0.015-0.158-0.043-0.229l0.001 0.004-2.504-6.506c-0.491-1.276 1.351-1.983 1.825-0.751l2.335 6.069c0.093 0.236 0.319 0.401 0.583 0.401 0 0 0 0 0 0h0.454c0.345 0 0.625-0.28 0.625-0.625v-7.109c0-1.343 1.964-1.345 1.964 0v7.109c0 0.345 0.28 0.625 0.625 0.625h0.268c0.345 0 0.625-0.28 0.625-0.625v-1.094c0-0.981 1.428-0.983 1.428 0v1.094c0 0.345 0.28 0.625 0.625 0.625h0.268c0.345 0 0.625-0.28 0.625-0.625 0-0.981 1.428-0.983 1.428 0v2.734z"></path>
</svg>
