<svg xmlns="http://www.w3.org/2000/svg" width="20" height="20" viewBox="0 0 20 20">
<path d="M18.125 2.5h-16.25c-1.036 0-1.875 0.839-1.875 1.875v11.25c0 1.036 0.839 1.875 1.875 1.875h16.25c1.036 0 1.875-0.839 1.875-1.875v-11.25c0-1.036-0.839-1.875-1.875-1.875zM17.891 15.625h-15.781c-0.129 0-0.234-0.105-0.234-0.234v0-10.781c0-0.129 0.105-0.234 0.234-0.234v0h15.781c0.129 0 0.234 0.105 0.234 0.234v0 10.781c0 0.129-0.105 0.234-0.234 0.234v0zM5 5.938c-0.863 0-1.563 0.7-1.563 1.563s0.7 1.563 1.563 1.563 1.563-0.7 1.563-1.563-0.7-1.563-1.563-1.563zM3.75 13.75h12.5v-3.125l-3.419-3.419c-0.183-0.183-0.48-0.183-0.663 0l-4.669 4.669-1.544-1.544c-0.183-0.183-0.48-0.183-0.663 0l-1.544 1.544v1.875z"></path>
</svg>
