<svg xmlns="http://www.w3.org/2000/svg" width="20" height="20" viewBox="0 0 20 20">
<path d="M15.781 10h-4.063c-0.259 0-0.469-0.21-0.469-0.469v-0.625c0-0.259 0.21-0.469 0.469-0.469h4.063c0.259 0 0.469 0.21 0.469 0.469v0.625c0 0.259-0.21 0.469-0.469 0.469zM16.25 12.344v-0.625c0-0.259-0.21-0.469-0.469-0.469h-4.063c-0.259 0-0.469 0.21-0.469 0.469v0.625c0 0.259 0.21 0.469 0.469 0.469h4.063c0.259 0 0.469-0.21 0.469-0.469zM20 4.375v11.25c0 1.036-0.839 1.875-1.875 1.875h-16.25c-1.036 0-1.875-0.839-1.875-1.875v-11.25c0-1.036 0.839-1.875 1.875-1.875h16.25c1.036 0 1.875 0.839 1.875 1.875zM18.125 15.391v-9.766h-16.25v9.766c0 0.129 0.105 0.234 0.234 0.234v0h15.781c0.129 0 0.234-0.105 0.234-0.234v0zM6.875 7.5c1.079 0 1.953 0.874 1.953 1.953s-0.874 1.953-1.953 1.953-1.953-0.874-1.953-1.953 0.874-1.953 1.953-1.953zM9.112 11.575l-0.871-0.218c-0.915 0.658-2.023 0.511-2.734 0l-0.871 0.218c-0.522 0.13-0.888 0.599-0.888 1.137v0.452c0 0.324 0.262 0.586 0.586 0.586h5.078c0.324 0 0.586-0.262 0.586-0.586v-0.452c0-0.538-0.366-1.006-0.888-1.137z"></path>
</svg>
