<svg xmlns="http://www.w3.org/2000/svg" width="23" height="20" viewBox="0 0 23 20">
<path d="M18.75 16.25v0.625c0 1.036-0.839 1.875-1.875 1.875h-15c-1.036 0-1.875-0.839-1.875-1.875v-10c0-1.036 0.839-1.875 1.875-1.875h0.625v1.875h-0.391c-0.129 0-0.234 0.105-0.234 0.234v0 9.531c0 0.129 0.105 0.234 0.234 0.234v0h14.531c0.129 0 0.234-0.105 0.234-0.234v0-0.391h1.875zM20.391 3.125h-14.531c-0.129 0-0.234 0.105-0.234 0.234v0 9.531c0 0.129 0.105 0.234 0.234 0.234v0h14.531c0.129 0 0.234-0.105 0.234-0.234v0-9.531c0-0.129-0.105-0.234-0.234-0.234v0zM20.625 1.25c1.036 0 1.875 0.839 1.875 1.875v10c0 1.036-0.839 1.875-1.875 1.875h-15c-1.036 0-1.875-0.839-1.875-1.875v-10c0-1.036 0.839-1.875 1.875-1.875h15zM10.313 5.625c0 0.863-0.7 1.563-1.563 1.563s-1.563-0.7-1.563-1.563 0.7-1.563 1.563-1.563 1.563 0.7 1.563 1.563zM7.5 9.375l1.544-1.544c0.183-0.183 0.48-0.183 0.663 0l1.544 1.544 4.044-4.044c0.183-0.183 0.48-0.183 0.663 0l2.794 2.794v3.125h-11.25v-1.875z"></path>
</svg>
