<svg xmlns="http://www.w3.org/2000/svg" width="23" height="20" viewBox="0 0 23 20">
<path d="M20.625 2.5h-18.75c-1.036 0-1.875 0.839-1.875 1.875v11.25c0 1.036 0.839 1.875 1.875 1.875h18.75c1.036 0 1.875-0.839 1.875-1.875v-11.25c0-1.036-0.839-1.875-1.875-1.875zM20.938 15.625c0 0.172-0.14 0.313-0.313 0.313h-18.75c-0.172 0-0.313-0.14-0.313-0.313v-11.25c0-0.172 0.14-0.313 0.313-0.313h18.75c0.172 0 0.313 0.14 0.313 0.313v11.25zM6.641 10.547v-1.094c0-0.259-0.21-0.469-0.469-0.469h-1.094c-0.259 0-0.469 0.21-0.469 0.469v1.094c0 0.259 0.21 0.469 0.469 0.469h1.094c0.259 0 0.469-0.21 0.469-0.469zM10.391 10.547v-1.094c0-0.259-0.21-0.469-0.469-0.469h-1.094c-0.259 0-0.469 0.21-0.469 0.469v1.094c0 0.259 0.21 0.469 0.469 0.469h1.094c0.259 0 0.469-0.21 0.469-0.469zM14.141 10.547v-1.094c0-0.259-0.21-0.469-0.469-0.469h-1.094c-0.259 0-0.469 0.21-0.469 0.469v1.094c0 0.259 0.21 0.469 0.469 0.469h1.094c0.259 0 0.469-0.21 0.469-0.469zM17.891 10.547v-1.094c0-0.259-0.21-0.469-0.469-0.469h-1.094c-0.259 0-0.469 0.21-0.469 0.469v1.094c0 0.259 0.21 0.469 0.469 0.469h1.094c0.259 0 0.469-0.21 0.469-0.469zM4.766 13.75v-1.094c0-0.259-0.21-0.469-0.469-0.469h-1.094c-0.259 0-0.469 0.21-0.469 0.469v1.094c0 0.259 0.21 0.469 0.469 0.469h1.094c0.259 0 0.469-0.21 0.469-0.469zM19.766 13.75v-1.094c0-0.259-0.21-0.469-0.469-0.469h-1.094c-0.259 0-0.469 0.21-0.469 0.469v1.094c0 0.259 0.21 0.469 0.469 0.469h1.094c0.259 0 0.469-0.21 0.469-0.469zM4.766 7.344v-1.094c0-0.259-0.21-0.469-0.469-0.469h-1.094c-0.259 0-0.469 0.21-0.469 0.469v1.094c0 0.259 0.21 0.469 0.469 0.469h1.094c0.259 0 0.469-0.21 0.469-0.469zM8.516 7.344v-1.094c0-0.259-0.21-0.469-0.469-0.469h-1.094c-0.259 0-0.469 0.21-0.469 0.469v1.094c0 0.259 0.21 0.469 0.469 0.469h1.094c0.259 0 0.469-0.21 0.469-0.469zM12.266 7.344v-1.094c0-0.259-0.21-0.469-0.469-0.469h-1.094c-0.259 0-0.469 0.21-0.469 0.469v1.094c0 0.259 0.21 0.469 0.469 0.469h1.094c0.259 0 0.469-0.21 0.469-0.469zM16.016 7.344v-1.094c0-0.259-0.21-0.469-0.469-0.469h-1.094c-0.259 0-0.469 0.21-0.469 0.469v1.094c0 0.259 0.21 0.469 0.469 0.469h1.094c0.259 0 0.469-0.21 0.469-0.469zM19.766 7.344v-1.094c0-0.259-0.21-0.469-0.469-0.469h-1.094c-0.259 0-0.469 0.21-0.469 0.469v1.094c0 0.259 0.21 0.469 0.469 0.469h1.094c0.259 0 0.469-0.21 0.469-0.469zM15.938 13.516v-0.625c0-0.259-0.21-0.469-0.469-0.469h-8.438c-0.259 0-0.469 0.21-0.469 0.469v0.625c0 0.259 0.21 0.469 0.469 0.469h8.438c0.259 0 0.469-0.21 0.469-0.469z"></path>
</svg>
