<svg xmlns="http://www.w3.org/2000/svg" width="20" height="20" viewBox="0 0 20 20">
<path d="M18.911 1.089c-1.099-1.099-2.656-1.404-3.791-0.743-1.541 0.898-6.389-1.952-11.557 3.216-5.175 5.175-2.315 10.011-3.216 11.557-0.661 1.135-0.355 2.693 0.743 3.791s2.657 1.404 3.791 0.743c1.54-0.897 6.389 1.952 11.557-3.216 5.175-5.175 2.315-10.011 3.216-11.557 0.661-1.135 0.355-2.693-0.743-3.791zM18.035 3.937c-1.516 2.602 1.781 6.47-2.924 11.175s-8.573 1.408-11.175 2.924c-0.886 0.516-2.501-1.064-1.972-1.972 1.516-2.602-1.781-6.47 2.924-11.175s8.573-1.408 11.175-2.924c0.888-0.517 2.5 1.066 1.972 1.972zM11.4 4.278c0.054 0.428-0.25 0.819-0.678 0.872-2.142 0.268-5.304 3.429-5.572 5.572-0.054 0.429-0.445 0.732-0.872 0.678-0.428-0.054-0.732-0.444-0.678-0.872 0.358-2.863 4.069-6.571 6.928-6.928 0.428-0.053 0.819 0.25 0.872 0.678z"></path>
</svg>
