<svg xmlns="http://www.w3.org/2000/svg" width="20" height="20" viewBox="0 0 20 20">
<path d="M10 19.688c5.35 0 9.688-4.337 9.688-9.688s-4.337-9.688-9.688-9.688-9.688 4.337-9.688 9.688 4.337 9.688 9.688 9.688zM5.961 16.691l2.086-2.086c1.242 0.528 2.661 0.528 3.905 0l2.086 2.086c-2.469 1.497-5.609 1.497-8.078 0zM13.125 10c0 1.723-1.402 3.125-3.125 3.125s-3.125-1.402-3.125-3.125 1.402-3.125 3.125-3.125 3.125 1.402 3.125 3.125zM16.691 14.039l-2.086-2.086c0.528-1.242 0.528-2.661 0-3.905l2.086-2.086c1.497 2.469 1.497 5.609 0 8.078zM14.039 3.309l-2.086 2.086c-1.242-0.528-2.661-0.528-3.905 0l-2.086-2.086c2.469-1.497 5.609-1.497 8.078 0zM3.309 5.961l2.086 2.086c-0.528 1.242-0.528 2.661 0 3.905l-2.086 2.086c-1.497-2.469-1.497-5.609 0-8.078z"></path>
</svg>
