<svg xmlns="http://www.w3.org/2000/svg" width="20" height="20" viewBox="0 0 20 20">
<path d="M18.125 1.25h-16.25c-1.036 0-1.875 0.839-1.875 1.875v13.75c0 1.036 0.839 1.875 1.875 1.875h16.25c1.036 0 1.875-0.839 1.875-1.875v-13.75c0-1.036-0.839-1.875-1.875-1.875zM17.891 16.875h-15.781c-0.129 0-0.234-0.105-0.234-0.234v0-13.281c0-0.129 0.105-0.234 0.234-0.234v0h15.781c0.129 0 0.234 0.105 0.234 0.234v0 13.281c0 0.129-0.105 0.234-0.234 0.234v0zM16.25 13.281v0.938c0 0.259-0.21 0.469-0.469 0.469h-7.813c-0.259 0-0.469-0.21-0.469-0.469v-0.938c0-0.259 0.21-0.469 0.469-0.469h7.813c0.259 0 0.469 0.21 0.469 0.469zM16.25 9.531v0.938c0 0.259-0.21 0.469-0.469 0.469h-7.813c-0.259 0-0.469-0.21-0.469-0.469v-0.938c0-0.259 0.21-0.469 0.469-0.469h7.813c0.259 0 0.469 0.21 0.469 0.469zM16.25 5.781v0.938c0 0.259-0.21 0.469-0.469 0.469h-7.813c-0.259 0-0.469-0.21-0.469-0.469v-0.938c0-0.259 0.21-0.469 0.469-0.469h7.813c0.259 0 0.469 0.21 0.469 0.469zM6.406 6.25c0 0.777-0.63 1.406-1.406 1.406s-1.406-0.63-1.406-1.406 0.63-1.406 1.406-1.406 1.406 0.63 1.406 1.406zM6.406 10c0 0.777-0.63 1.406-1.406 1.406s-1.406-0.63-1.406-1.406 0.63-1.406 1.406-1.406 1.406 0.63 1.406 1.406zM6.406 13.75c0 0.777-0.63 1.406-1.406 1.406s-1.406-0.63-1.406-1.406 0.63-1.406 1.406-1.406 1.406 0.63 1.406 1.406z"></path>
</svg>
