<svg xmlns="http://www.w3.org/2000/svg" width="15" height="20" viewBox="0 0 15 20">
<path d="M10.625 16.719v1.094c0 0.408-0.261 0.755-0.625 0.884v0.366c0 0.518-0.42 0.938-0.938 0.938h-3.125c-0.518 0-0.938-0.42-0.938-0.938v-0.366c-0.364-0.129-0.625-0.476-0.625-0.884v-1.094c0-0.259 0.21-0.469 0.469-0.469h5.313c0.259 0 0.469 0.21 0.469 0.469zM5 6.875c0-1.379 1.121-2.5 2.5-2.5 0.345 0 0.625-0.28 0.625-0.625s-0.28-0.625-0.625-0.625c-2.068 0-3.75 1.682-3.75 3.75 0 0.345 0.28 0.625 0.625 0.625s0.625-0.28 0.625-0.625zM7.5 1.875c2.763 0 5 2.236 5 5 0 3.031-1.46 2.362-3.163 6.25h-3.673c-1.706-3.893-3.163-3.208-3.163-6.25 0-2.763 2.236-5 5-5zM7.5 0c-3.797 0-6.875 3.078-6.875 6.875 0 3.974 2.019 3.576 3.536 7.526 0.139 0.361 0.487 0.599 0.874 0.599h4.93c0.387 0 0.735-0.237 0.874-0.599 1.516-3.951 3.536-3.552 3.536-7.526 0-3.797-3.078-6.875-6.875-6.875z"></path>
</svg>
