<svg xmlns="http://www.w3.org/2000/svg" width="25" height="20" viewBox="0 0 25 20">
<path d="M12.5 5.625c-2.071 0-3.75 1.959-3.75 4.375s1.679 4.375 3.75 4.375c2.070 0 3.75-1.958 3.75-4.375s-1.679-4.375-3.75-4.375zM14.375 12.048c0 0.292-0.153 0.452-0.452 0.452h-2.629c-0.299 0-0.452-0.16-0.452-0.452v-0.348c0-0.292 0.153-0.452 0.452-0.452h0.591v-1.558c0-0.202 0.021-0.41 0.021-0.41h-0.014s-0.069 0.104-0.111 0.146c-0.174 0.167-0.41 0.174-0.612-0.042l-0.216-0.243c-0.209-0.209-0.195-0.438 0.021-0.64l0.848-0.779c0.174-0.16 0.327-0.223 0.563-0.223h0.473c0.299 0 0.459 0.153 0.459 0.452v3.296h0.605c0.299 0 0.452 0.16 0.452 0.452v0.348zM24.063 2.5h-23.125c-0.518 0-0.938 0.42-0.938 0.938v13.086c0 0.518 0.42 0.938 0.938 0.938h23.125c0.518 0 0.938-0.42 0.938-0.938v-13.086c0-0.518-0.42-0.938-0.938-0.938zM20 15.625h-15c0-1.726-1.399-3.125-3.125-3.125v-5c1.726 0 3.125-1.399 3.125-3.125h15c0 1.726 1.399 3.125 3.125 3.125v5c-1.726 0-3.125 1.399-3.125 3.125z"></path>
</svg>
