<svg xmlns="http://www.w3.org/2000/svg" width="20" height="20" viewBox="0 0 20 20">
<path d="M10.904 20c3.076 0 5.898-1.399 7.767-3.702 1.104-1.361-0.1-3.349-1.807-3.023-3.217 0.613-6.182-1.846-6.182-5.109 0-1.892 1.018-3.605 2.634-4.525 1.513-0.861 1.133-3.156-0.587-3.473-0.549-0.106-1.18-0.167-1.825-0.167h-0c-5.522 0-10 4.476-10 10 0 5.522 4.476 10 10 10zM10.904 1.875c0.507 0 1.003 0.047 1.485 0.136-2.139 1.217-3.582 3.517-3.582 6.154 0 4.447 4.048 7.781 8.408 6.951-1.49 1.835-3.763 3.009-6.312 3.009-4.487 0-8.125-3.638-8.125-8.125s3.638-8.125 8.125-8.125z"></path>
</svg>
