<svg xmlns="http://www.w3.org/2000/svg" width="23" height="20" viewBox="0 0 23 20">
<path d="M21.563 2.5h-17.188c-0.815 0-1.509 0.523-1.767 1.25h-1.67c-0.518 0-0.938 0.42-0.938 0.938v10.625c0 1.208 0.979 2.188 2.188 2.188h19.375c0.518 0 0.938-0.42 0.938-0.938v-13.125c0-0.518-0.42-0.938-0.938-0.938zM1.875 15.313v-9.688h0.625v9.688c0 0.172-0.14 0.313-0.313 0.313s-0.313-0.14-0.313-0.313zM20.625 15.625h-16.273c0.015-0.102 0.023-0.206 0.023-0.313v-10.938h16.25v11.25zM6.719 10.938h5.313c0.259 0 0.469-0.21 0.469-0.469v-3.75c0-0.259-0.21-0.469-0.469-0.469h-5.313c-0.259 0-0.469 0.21-0.469 0.469v3.75c0 0.259 0.21 0.469 0.469 0.469zM7.813 7.813h3.125v1.563h-3.125v-1.563zM6.25 13.281v-0.938c0-0.259 0.21-0.469 0.469-0.469h5.313c0.259 0 0.469 0.21 0.469 0.469v0.938c0 0.259-0.21 0.469-0.469 0.469h-5.313c-0.259 0-0.469-0.21-0.469-0.469zM13.75 13.281v-0.938c0-0.259 0.21-0.469 0.469-0.469h4.063c0.259 0 0.469 0.21 0.469 0.469v0.938c0 0.259-0.21 0.469-0.469 0.469h-4.063c-0.259 0-0.469-0.21-0.469-0.469zM13.75 7.656v-0.938c0-0.259 0.21-0.469 0.469-0.469h4.063c0.259 0 0.469 0.21 0.469 0.469v0.938c0 0.259-0.21 0.469-0.469 0.469h-4.063c-0.259 0-0.469-0.21-0.469-0.469zM13.75 10.469v-0.938c0-0.259 0.21-0.469 0.469-0.469h4.063c0.259 0 0.469 0.21 0.469 0.469v0.938c0 0.259-0.21 0.469-0.469 0.469h-4.063c-0.259 0-0.469-0.21-0.469-0.469z"></path>
</svg>
