<svg xmlns="http://www.w3.org/2000/svg" width="20" height="20" viewBox="0 0 20 20">
<path d="M19.531 5c0.259 0 0.469-0.21 0.469-0.469v-2.813c0-0.259-0.21-0.469-0.469-0.469h-2.813c-0.259 0-0.469 0.21-0.469 0.469v0.469h-12.5v-0.469c0-0.259-0.21-0.469-0.469-0.469h-2.813c-0.259 0-0.469 0.21-0.469 0.469v2.813c0 0.259 0.21 0.469 0.469 0.469h0.469v10h-0.469c-0.259 0-0.469 0.21-0.469 0.469v2.813c0 0.259 0.21 0.469 0.469 0.469h2.813c0.259 0 0.469-0.21 0.469-0.469v-0.469h12.5v0.469c0 0.259 0.21 0.469 0.469 0.469h2.813c0.259 0 0.469-0.21 0.469-0.469v-2.813c0-0.259-0.21-0.469-0.469-0.469h-0.469v-10h0.469zM17.5 2.5h1.25v1.25h-1.25v-1.25zM1.25 2.5h1.25v1.25h-1.25v-1.25zM2.5 17.5h-1.25v-1.25h1.25v1.25zM18.75 17.5h-1.25v-1.25h1.25v1.25zM17.188 15h-0.469c-0.259 0-0.469 0.21-0.469 0.469v0.469h-12.5v-0.469c0-0.259-0.21-0.469-0.469-0.469h-0.469v-10h0.469c0.259 0 0.469-0.21 0.469-0.469v-0.469h12.5v0.469c0 0.259 0.21 0.469 0.469 0.469h0.469v10zM15.781 7.5h-3.281v-2.031c0-0.259-0.21-0.469-0.469-0.469h-7.813c-0.259 0-0.469 0.21-0.469 0.469v6.563c0 0.259 0.21 0.469 0.469 0.469h3.281v2.031c0 0.259 0.21 0.469 0.469 0.469h7.813c0.259 0 0.469-0.21 0.469-0.469v-6.563c0-0.259-0.21-0.469-0.469-0.469zM5.313 6.563h5.625v4.375h-5.625v-4.375zM14.688 13.438h-5.625v-0.938h2.969c0.259 0 0.469-0.21 0.469-0.469v-2.969h2.188v4.375z"></path>
</svg>
