<svg xmlns="http://www.w3.org/2000/svg" width="23" height="20" viewBox="0 0 23 20">
<path d="M22.031 8.75c0.259 0 0.469-0.21 0.469-0.469v-2.813c0-0.259-0.21-0.469-0.469-0.469h-2.813c-0.259 0-0.469 0.21-0.469 0.469v0.469h-3.438v-0.938h0.469c0.259 0 0.469-0.21 0.469-0.469v-2.813c0-0.259-0.21-0.469-0.469-0.469h-2.813c-0.259 0-0.469 0.21-0.469 0.469v0.469h-8.75v-0.469c0-0.259-0.21-0.469-0.469-0.469h-2.813c-0.259 0-0.469 0.21-0.469 0.469v2.813c0 0.259 0.21 0.469 0.469 0.469h0.469v6.25h-0.469c-0.259 0-0.469 0.21-0.469 0.469v2.813c0 0.259 0.21 0.469 0.469 0.469h2.813c0.259 0 0.469-0.21 0.469-0.469v-0.469h3.438v0.938h-0.469c-0.259 0-0.469 0.21-0.469 0.469v2.813c0 0.259 0.21 0.469 0.469 0.469h2.813c0.259 0 0.469-0.21 0.469-0.469v-0.469h8.75v0.469c0 0.259 0.21 0.469 0.469 0.469h2.813c0.259 0 0.469-0.21 0.469-0.469v-2.813c0-0.259-0.21-0.469-0.469-0.469h-0.469v-6.25h0.469zM13.75 2.5h1.25v1.25h-1.25v-1.25zM13.75 12.5h1.25v1.25h-1.25v-1.25zM2.5 13.75h-1.25v-1.25h1.25v1.25zM2.5 3.75h-1.25v-1.25h1.25v1.25zM3.75 12.188v-0.469c0-0.259-0.21-0.469-0.469-0.469h-0.469v-6.25h0.469c0.259 0 0.469-0.21 0.469-0.469v-0.469h8.75v0.469c0 0.259 0.21 0.469 0.469 0.469h0.469v6.25h-0.469c-0.259 0-0.469 0.21-0.469 0.469v0.469h-8.75zM8.75 17.5h-1.25v-1.25h1.25v1.25zM19.688 15h-0.469c-0.259 0-0.469 0.21-0.469 0.469v0.469h-8.75v-0.469c0-0.259-0.21-0.469-0.469-0.469h-0.469v-0.938h3.438v0.469c0 0.259 0.21 0.469 0.469 0.469h2.813c0.259 0 0.469-0.21 0.469-0.469v-2.813c0-0.259-0.21-0.469-0.469-0.469h-0.469v-3.438h3.438v0.469c0 0.259 0.21 0.469 0.469 0.469h0.469v6.25zM21.25 17.5h-1.25v-1.25h1.25v1.25zM21.25 7.5h-1.25v-1.25h1.25v1.25z"></path>
</svg>
