<svg xmlns="http://www.w3.org/2000/svg" width="18" height="20" viewBox="0 0 18 20">
<path d="M13.75 9.375v1.25c0 0.258-0.211 0.469-0.469 0.469h-3.438v3.438c0 0.258-0.211 0.469-0.469 0.469h-1.25c-0.258 0-0.469-0.211-0.469-0.469v-3.438h-3.438c-0.258 0-0.469-0.211-0.469-0.469v-1.25c0-0.258 0.211-0.469 0.469-0.469h3.438v-3.438c0-0.258 0.211-0.469 0.469-0.469h1.25c0.258 0 0.469 0.211 0.469 0.469v3.438h3.438c0.258 0 0.469 0.211 0.469 0.469zM17.5 3.125v13.75c0 1.035-0.84 1.875-1.875 1.875h-13.75c-1.035 0-1.875-0.84-1.875-1.875v-13.75c0-1.035 0.84-1.875 1.875-1.875h13.75c1.035 0 1.875 0.84 1.875 1.875zM15.625 16.641v-13.281c0-0.129-0.105-0.234-0.234-0.234h-13.281c-0.129 0-0.234 0.105-0.234 0.234v13.281c0 0.129 0.105 0.234 0.234 0.234h13.281c0.129 0 0.234-0.105 0.234-0.234z"></path>
</svg>
