<svg xmlns="http://www.w3.org/2000/svg" width="20" height="20" viewBox="0 0 20 20">
<path d="M10 0.313c-5.352 0-9.688 4.336-9.688 9.688s4.336 9.688 9.688 9.688 9.688-4.336 9.688-9.688-4.336-9.688-9.688-9.688zM10 17.813c-4.316 0-7.813-3.496-7.813-7.813s3.496-7.813 7.813-7.813 7.813 3.496 7.813 7.813-3.496 7.813-7.813 7.813zM13.75 6.875v6.25c0 0.344-0.281 0.625-0.625 0.625h-1.875c-0.344 0-0.625-0.281-0.625-0.625v-6.25c0-0.344 0.281-0.625 0.625-0.625h1.875c0.344 0 0.625 0.281 0.625 0.625zM9.375 6.875v6.25c0 0.344-0.281 0.625-0.625 0.625h-1.875c-0.344 0-0.625-0.281-0.625-0.625v-6.25c0-0.344 0.281-0.625 0.625-0.625h1.875c0.344 0 0.625 0.281 0.625 0.625z"></path>
</svg>
