<svg xmlns="http://www.w3.org/2000/svg" width="20" height="20" viewBox="0 0 20 20">
<path d="M17.188 0.254l-16.25 9.371c-1.344 0.777-1.215 2.766 0.223 3.355l4.465 1.848v3.297c0 1.813 2.313 2.559 3.383 1.117l1.711-2.309 4.371 1.805c0.23 0.094 0.473 0.141 0.715 0.141 0.32 0 0.637-0.082 0.922-0.242 0.5-0.281 0.844-0.781 0.934-1.348l2.32-15.125c0.238-1.566-1.441-2.688-2.793-1.91zM7.5 18.125v-2.523l1.43 0.59-1.43 1.934zM15.805 17.004l-6.008-2.48 5.477-7.902c0.418-0.605-0.371-1.309-0.926-0.828l-8.262 7.199-4.211-1.742 16.25-9.375-2.32 15.129z"></path>
</svg>
