<svg xmlns="http://www.w3.org/2000/svg" width="20" height="20" viewBox="0 0 20 20">
<path d="M10 0.313c-5.35 0-9.688 4.339-9.688 9.688 0 5.351 4.338 9.688 9.688 9.688s9.688-4.336 9.688-9.688c0-5.348-4.338-9.688-9.688-9.688zM10 17.813c-4.318 0-7.813-3.493-7.813-7.813 0-4.316 3.495-7.813 7.813-7.813 4.316 0 7.813 3.495 7.813 7.813s-3.493 7.813-7.813 7.813zM14.189 7.844c0 2.619-2.829 2.66-2.829 3.627v0.248c0 0.259-0.21 0.469-0.469 0.469h-1.783c-0.259 0-0.469-0.21-0.469-0.469v-0.338c0-1.396 1.059-1.954 1.859-2.403 0.686-0.385 1.106-0.646 1.106-1.155 0-0.674-0.859-1.121-1.554-1.121-0.906 0-1.324 0.429-1.912 1.171-0.158 0.2-0.448 0.237-0.651 0.083l-1.087-0.824c-0.199-0.151-0.244-0.432-0.103-0.639 0.923-1.355 2.098-2.117 3.929-2.117 1.917 0 3.963 1.496 3.963 3.469zM11.641 14.375c0 0.905-0.736 1.641-1.641 1.641s-1.641-0.736-1.641-1.641 0.736-1.641 1.641-1.641 1.641 0.736 1.641 1.641z"></path>
</svg>
