<svg xmlns="http://www.w3.org/2000/svg" width="20" height="20" viewBox="0 0 20 20">
<path d="M10 0.313c-5.35 0-9.688 4.337-9.688 9.688s4.337 9.688 9.688 9.688 9.688-4.337 9.688-9.688-4.337-9.688-9.688-9.688zM10 17.813c-4.318 0-7.813-3.494-7.813-7.813s3.494-7.813 7.813-7.813c4.318 0 7.813 3.494 7.813 7.813s-3.494 7.813-7.813 7.813zM14.314 14.618c-2.072-3.761-1.963-3.573-2.081-3.753 0.948-0.542 1.542-1.624 1.542-2.858 0-2.051-1.182-3.33-3.965-3.33h-3.073c-0.258 0-0.469 0.21-0.469 0.469v9.699c0 0.258 0.21 0.469 0.469 0.469h1.507c0.258 0 0.469-0.21 0.469-0.469v-3.268h1.248l1.856 3.488c0.080 0.149 0.235 0.248 0.413 0.248 0 0 0 0 0.001 0h1.672c0.357 0 0.583-0.383 0.411-0.695zM10.036 9.371h-1.323v-2.505h1.069c1.266 0 1.521 0.474 1.521 1.239-0 0.817-0.45 1.267-1.267 1.267z"></path>
</svg>
