<svg xmlns="http://www.w3.org/2000/svg" width="23" height="20" viewBox="0 0 23 20">
<path d="M21.951 6.174l-5.625-5.624c-1.172-1.172-3.201-0.351-3.201 1.326v2.234c-1.658 0.073-3.282 0.256-4.717 0.703-1.374 0.428-2.464 1.077-3.239 1.93-0.942 1.038-1.419 2.342-1.419 3.879 0 2.41 1.296 4.393 3.315 5.655 1.467 0.918 3.33-0.494 2.774-2.177-0.606-1.841-0.67-2.77 3.286-3.077v2.102c0 1.679 2.030 2.497 3.201 1.326l5.625-5.625c0.732-0.732 0.732-1.92 0-2.652zM15 13.125v-4.056c-5.027 0.075-8.496 0.906-6.941 5.619-1.153-0.721-2.434-2.028-2.434-4.065 0-4.271 5.045-4.646 9.375-4.682v-4.066l5.625 5.625-5.625 5.625zM15.966 16.426c0.312-0.090 0.584-0.214 0.833-0.371l-0.013 0.008c0.312-0.193 0.714 0.032 0.714 0.399v1.664c0 1.036-0.839 1.875-1.875 1.875h-13.75c-1.036 0-1.875-0.839-1.875-1.875v-13.75c0-1.036 0.839-1.875 1.875-1.875h5.156c0.259 0 0.469 0.21 0.469 0.469v0.175c0 0.192-0.117 0.366-0.296 0.436-0.535 0.208-1.031 0.451-1.486 0.726-0.070 0.043-0.155 0.069-0.245 0.069h-3.363c-0.129 0-0.234 0.105-0.234 0.234v0 13.281c0 0.129 0.105 0.234 0.234 0.234v0h13.281c0.129 0 0.234-0.105 0.234-0.234v0-1.014c0-0.21 0.14-0.393 0.341-0.451z"></path>
</svg>
