<svg xmlns="http://www.w3.org/2000/svg" width="20" height="20" viewBox="0 0 20 20">
<path d="M10 2.188c4.318 0 7.813 3.494 7.813 7.813s-3.494 7.813-7.813 7.813c-4.318 0-7.813-3.494-7.813-7.813s3.494-7.813 7.813-7.813zM10 0.313c-5.35 0-9.688 4.337-9.688 9.688s4.337 9.688 9.688 9.688 9.688-4.337 9.688-9.688-4.337-9.688-9.688-9.688zM12.5 5.625c-0.372 0-0.723 0.093-1.030 0.257h0.001c0.497 0 0.901 0.403 0.901 0.901s-0.403 0.901-0.901 0.901-0.901-0.403-0.901-0.901v-0.001c-0.164 0.307-0.257 0.658-0.257 1.030 0 1.208 0.979 2.188 2.188 2.188s2.188-0.979 2.188-2.188-0.979-2.188-2.188-2.188zM7.5 5.625c-0.372 0-0.723 0.093-1.030 0.257h0.001c0.497 0 0.901 0.403 0.901 0.901s-0.403 0.901-0.901 0.901c-0.497 0-0.901-0.403-0.901-0.901v-0.001c-0.164 0.307-0.257 0.658-0.257 1.030 0 1.208 0.979 2.188 2.188 2.188s2.188-0.979 2.188-2.188-0.979-2.188-2.188-2.188zM15.132 12.743c0.735-1-0.776-2.11-1.511-1.111-1.958 2.663-5.282 2.663-7.241 0-0.735-1-2.245 0.112-1.511 1.111 2.707 3.681 7.552 3.686 10.262 0z"></path>
</svg>
