<svg xmlns="http://www.w3.org/2000/svg" width="23" height="20" viewBox="0 0 23 20">
<path d="M20.629 6.699l-5.707-0.832-2.551-5.172c-0.457-0.922-1.781-0.934-2.242 0l-2.551 5.172-5.707 0.832c-1.023 0.148-1.434 1.41-0.691 2.133l4.129 4.023-0.977 5.684c-0.176 1.027 0.906 1.797 1.813 1.316l5.105-2.684 5.105 2.684c0.906 0.477 1.988-0.289 1.813-1.316l-0.977-5.684 4.129-4.023c0.742-0.723 0.332-1.984-0.691-2.133zM15.18 12.199l0.926 5.406-4.855-2.551-4.855 2.551 0.926-5.406-3.93-3.828 5.43-0.789 2.43-4.922 2.43 4.922 5.43 0.789-3.93 3.828z"></path>
</svg>
