<svg xmlns="http://www.w3.org/2000/svg" width="18" height="20" viewBox="0 0 18 20">
<path d="M16.951 5.076l-3.277-3.277c-0.339-0.339-0.808-0.549-1.326-0.549h-10.473c-1.036 0-1.875 0.839-1.875 1.875v13.75c0 1.036 0.839 1.875 1.875 1.875h13.75c1.036 0 1.875-0.839 1.875-1.875v-10.473c0-0.518-0.21-0.987-0.549-1.326v0zM10.625 3.125v3.125h-5v-3.125h5zM15.391 16.875h-13.281c-0.129 0-0.234-0.105-0.234-0.234v0-13.281c0-0.129 0.105-0.234 0.234-0.234v0h1.641v4.063c0 0.518 0.42 0.938 0.938 0.938h6.875c0.518 0 0.938-0.42 0.938-0.938v-3.911l3.056 3.056c0.042 0.042 0.069 0.101 0.069 0.166 0 0 0 0 0 0v0 10.142c0 0.129-0.105 0.234-0.234 0.234v0zM8.75 9.063c-1.895 0-3.438 1.542-3.438 3.438s1.542 3.438 3.438 3.438 3.438-1.542 3.438-3.438-1.542-3.438-3.438-3.438zM8.75 14.063c-0.862 0-1.563-0.701-1.563-1.563s0.701-1.563 1.563-1.563 1.563 0.701 1.563 1.563-0.701 1.563-1.563 1.563z"></path>
</svg>
