<svg xmlns="http://www.w3.org/2000/svg" width="20" height="20" viewBox="0 0 20 20">
<path d="M19.688 10c0-5.352-4.336-9.688-9.688-9.688s-9.688 4.336-9.688 9.688 4.336 9.688 9.688 9.688 9.688-4.336 9.688-9.688zM2.188 10c0-4.316 3.496-7.813 7.813-7.813s7.813 3.496 7.813 7.813-3.496 7.813-7.813 7.813-7.813-3.496-7.813-7.813zM13.75 6.875v6.25c0 0.344-0.281 0.625-0.625 0.625h-6.25c-0.344 0-0.625-0.281-0.625-0.625v-6.25c0-0.344 0.281-0.625 0.625-0.625h6.25c0.344 0 0.625 0.281 0.625 0.625z"></path>
</svg>
