<svg xmlns="http://www.w3.org/2000/svg" width="18" height="20" viewBox="0 0 18 20">
<path d="M17.119 13.903l-2.601-1.505 2.322-0.403c0.228-0.054 0.414-0.202 0.526-0.396 0.097-0.168 0.137-0.37 0.099-0.572-0.082-0.434-0.496-0.705-0.923-0.604l-3.337 1.215-3.208-1.638 3.208-1.638 3.337 1.215c0.427 0.1 0.84-0.17 0.923-0.604s-0.197-0.868-0.624-0.968l-2.322-0.403 2.601-1.505c0.373-0.216 0.493-0.707 0.268-1.097s-0.709-0.531-1.081-0.315l-2.601 1.505 0.813-2.218c0.127-0.421-0.108-0.881-0.524-1.026s-0.856 0.078-0.983 0.499l-0.619 3.505-2.829 1.638v-3.275l2.718-2.29c0.3-0.321 0.273-0.815-0.060-1.103s-0.848-0.263-1.148 0.058l-1.51 1.815v-3.011c0-0.431-0.364-0.781-0.813-0.781s-0.813 0.35-0.813 0.781v3.011l-1.51-1.815c-0.3-0.321-0.814-0.347-1.148-0.058s-0.361 0.783-0.060 1.103l2.718 2.29v3.276l-2.829-1.638-0.619-3.505c-0.127-0.421-0.567-0.645-0.983-0.499s-0.651 0.605-0.524 1.026l0.813 2.218-2.601-1.505c-0.373-0.216-0.857-0.075-1.081 0.315s-0.104 0.881 0.268 1.097l2.601 1.505-2.322 0.403c-0.427 0.1-0.707 0.534-0.624 0.968s0.496 0.705 0.923 0.604l3.337-1.215 3.208 1.638-3.208 1.638-3.337-1.215c-0.427-0.1-0.84 0.17-0.923 0.604s0.197 0.868 0.624 0.968l2.322 0.403-2.601 1.505c-0.373 0.216-0.493 0.707-0.268 1.097s0.709 0.531 1.081 0.315l2.601-1.505-0.813 2.218c-0.068 0.225-0.032 0.461 0.079 0.654 0.097 0.168 0.251 0.304 0.445 0.372 0.416 0.146 0.856-0.078 0.983-0.499l0.619-3.505 2.829-1.638v3.276l-2.718 2.29c-0.3 0.321-0.273 0.815 0.060 1.103s0.848 0.263 1.148-0.058l1.51-1.815v3.011c0 0.431 0.364 0.781 0.813 0.781s0.813-0.35 0.813-0.781v-3.011l1.51 1.815c0.161 0.171 0.382 0.259 0.605 0.259 0.194 0 0.388-0.066 0.544-0.201 0.334-0.289 0.361-0.783 0.060-1.103l-2.718-2.29v-3.276l2.829 1.638 0.619 3.505c0.127 0.421 0.567 0.645 0.983 0.499s0.651-0.605 0.524-1.026l-0.813-2.218 2.601 1.505c0.373 0.216 0.857 0.075 1.081-0.315s0.104-0.881-0.268-1.097z"></path>
</svg>
