<svg xmlns="http://www.w3.org/2000/svg" width="20" height="20" viewBox="0 0 20 20">
<path d="M8.598 19.060l-0.79-1.931c-0.024-0.058-0.080-0.097-0.144-0.097-0.031 0-0.059 0.009-0.083 0.024l0.001-0-1.774 1.098c-1.151 0.712-2.59-0.333-2.268-1.648l0.496-2.026c0.003-0.011 0.005-0.024 0.005-0.037 0-0.082-0.064-0.15-0.144-0.156l-0.001-0-2.080-0.154c-1.35-0.1-1.9-1.791-0.866-2.666l1.592-1.348c0.034-0.029 0.055-0.072 0.055-0.119s-0.021-0.090-0.055-0.119l-0-0-1.592-1.348c-1.033-0.874-0.484-2.566 0.866-2.666l2.080-0.154c0.081-0.006 0.145-0.073 0.145-0.156 0-0.013-0.002-0.026-0.005-0.039l0 0.001-0.496-2.026c-0.322-1.315 1.116-2.36 2.268-1.648l1.774 1.098c0.023 0.015 0.052 0.024 0.082 0.024 0.065 0 0.121-0.040 0.144-0.096l0-0.001 0.79-1.931c0.512-1.253 2.291-1.253 2.803 0l0.79 1.931c0.024 0.058 0.080 0.097 0.145 0.097 0.031 0 0.059-0.009 0.083-0.024l-0.001 0 1.774-1.098c1.151-0.712 2.59 0.333 2.268 1.648l-0.496 2.026c-0.003 0.011-0.005 0.024-0.005 0.037 0 0.082 0.064 0.15 0.144 0.156l2.081 0.154c1.35 0.1 1.9 1.791 0.866 2.666l-1.592 1.348c-0.034 0.029-0.055 0.072-0.055 0.119s0.021 0.090 0.055 0.119l0 0 1.592 1.347c1.036 0.877 0.481 2.566-0.866 2.666l-2.080 0.154c-0.081 0.006-0.145 0.073-0.145 0.156 0 0.013 0.002 0.026 0.005 0.039l-0-0.001 0.496 2.026c0.322 1.315-1.117 2.36-2.268 1.648l-1.774-1.098c-0.023-0.015-0.052-0.024-0.082-0.024-0.065 0-0.121 0.040-0.144 0.096l-0 0.001-0.79 1.931c-0.514 1.257-2.292 1.25-2.803 0zM9.255 16.538l0.745 1.821 0.745-1.821c0.403-0.984 1.593-1.37 2.496-0.811l1.673 1.035-0.468-1.911c-0.253-1.033 0.484-2.044 1.542-2.123l1.962-0.146-1.502-1.271c-0.812-0.687-0.81-1.938 0-2.624l1.502-1.271-1.962-0.146c-1.061-0.079-1.795-1.092-1.542-2.123l0.468-1.911-1.673 1.035c-0.904 0.56-2.094 0.172-2.496-0.811l-0.745-1.821-0.745 1.821c-0.403 0.984-1.593 1.37-2.496 0.811l-1.673-1.035 0.468 1.911c0.253 1.033-0.484 2.044-1.542 2.123l-1.962 0.146 1.502 1.271c0.812 0.687 0.81 1.938 0 2.624l-1.502 1.271 1.962 0.146c1.061 0.079 1.795 1.092 1.542 2.123l-0.468 1.911 1.673-1.035c0.906-0.561 2.095-0.17 2.496 0.811zM10 15c-2.757 0-5-2.243-5-5s2.243-5 5-5c2.757 0 5 2.243 5 5s-2.243 5-5 5zM10 6.875c-1.723 0-3.125 1.402-3.125 3.125s1.402 3.125 3.125 3.125 3.125-1.402 3.125-3.125-1.402-3.125-3.125-3.125z"></path>
</svg>
