<svg xmlns="http://www.w3.org/2000/svg" width="20" height="20" viewBox="0 0 20 20">
<path d="M10 0.313c-5.352 0-9.688 4.336-9.688 9.688s4.336 9.688 9.688 9.688 9.688-4.336 9.688-9.688-4.336-9.688-9.688-9.688zM10 17.813c-4.316 0-7.813-3.496-7.813-7.813s3.496-7.813 7.813-7.813 7.813 3.496 7.813 7.813-3.496 7.813-7.813 7.813zM13.977 7.57l-2.43 2.43 2.43 2.43c0.184 0.184 0.184 0.48 0 0.664l-0.883 0.883c-0.184 0.184-0.48 0.184-0.664 0l-2.43-2.43-2.43 2.43c-0.184 0.184-0.48 0.184-0.664 0l-0.883-0.883c-0.184-0.184-0.184-0.48 0-0.664l2.43-2.43-2.43-2.43c-0.184-0.184-0.184-0.48 0-0.664l0.883-0.883c0.184-0.184 0.48-0.184 0.664 0l2.43 2.43 2.43-2.43c0.184-0.184 0.48-0.184 0.664 0l0.883 0.883c0.184 0.184 0.184 0.48 0 0.664z"></path>
</svg>
