<svg xmlns="http://www.w3.org/2000/svg" width="20" height="20" viewBox="0 0 20 20">
<path d="M18.214 11.199c0.343-0.58 0.536-1.199 0.536-1.947 0-1.719-1.454-3.343-3.352-3.343h-1.425c0.192-0.5 0.346-1.099 0.346-1.818 0-2.844-1.472-4.091-3.721-4.091-2.407 0-2.269 3.708-2.803 4.242-0.889 0.889-1.938 2.596-2.686 3.258h-3.858c-0.69 0-1.25 0.56-1.25 1.25v9.375c0 0.69 0.56 1.25 1.25 1.25h2.5c0.582 0 1.071-0.397 1.21-0.936 1.739 0.039 2.932 1.56 6.945 1.56 0.282 0 0.595 0 0.868 0 3.012 0 4.374-1.54 4.412-3.724 0.52-0.72 0.793-1.684 0.677-2.617 0.385-0.721 0.534-1.576 0.351-2.461zM15.802 13.302c0.491 0.825 0.049 1.93-0.545 2.249 0.301 1.905-0.688 2.574-2.075 2.574h-1.477c-2.798 0-4.611-1.477-6.705-1.477v-7.272h0.427c1.108 0 2.655-2.769 3.693-3.807 1.108-1.108 0.739-2.954 1.477-3.693 1.846 0 1.846 1.288 1.846 2.216 0 1.53-1.108 2.216-1.108 3.693h4.062c0.825 0 1.474 0.739 1.477 1.477s-0.501 1.477-0.87 1.477c0.527 0.569 0.639 1.767-0.204 2.563zM3.438 16.875c0 0.518-0.42 0.938-0.938 0.938s-0.938-0.42-0.938-0.938 0.42-0.938 0.938-0.938 0.938 0.42 0.938 0.938z"></path>
</svg>
