<svg xmlns="http://www.w3.org/2000/svg" width="18" height="20" viewBox="0 0 18 20">
<path d="M7.5 7.344v8.438c0 0.259-0.21 0.469-0.469 0.469h-0.938c-0.259 0-0.469-0.21-0.469-0.469v-8.438c0-0.259 0.21-0.469 0.469-0.469h0.938c0.259 0 0.469 0.21 0.469 0.469zM11.406 6.875h-0.938c-0.259 0-0.469 0.21-0.469 0.469v8.438c0 0.259 0.21 0.469 0.469 0.469h0.938c0.259 0 0.469-0.21 0.469-0.469v-8.438c0-0.259-0.21-0.469-0.469-0.469zM16.563 3.125c0.518 0 0.938 0.42 0.938 0.938v0.469c0 0.259-0.21 0.469-0.469 0.469h-0.781v13.125c0 1.036-0.839 1.875-1.875 1.875h-11.25c-1.036 0-1.875-0.839-1.875-1.875v-13.125h-0.781c-0.259 0-0.469-0.21-0.469-0.469v-0.469c0-0.518 0.42-0.938 0.938-0.938h2.907l1.329-2.215c0.334-0.549 0.929-0.91 1.608-0.91 0 0 0 0 0 0h3.938c0 0 0 0 0 0 0.679 0 1.274 0.361 1.603 0.902l0.005 0.008 1.329 2.215h2.907zM6.031 3.125h5.438l-0.682-1.136c-0.042-0.069-0.116-0.114-0.201-0.114 0 0 0 0 0 0h-3.673c0 0 0 0 0 0-0.085 0-0.159 0.045-0.2 0.113l-0.001 0.001-0.682 1.136zM14.375 5h-11.25v12.891c0 0.129 0.105 0.234 0.234 0.234v0h10.781c0.129 0 0.234-0.105 0.234-0.234v0-12.891z"></path>
</svg>
