<svg xmlns="http://www.w3.org/2000/svg" width="20" height="20" viewBox="0 0 20 20">
<path d="M18.214 8.801c0.183-0.885 0.034-1.74-0.351-2.461 0.116-0.932-0.157-1.897-0.677-2.617-0.037-2.184-1.399-3.724-4.412-3.724-0.273 0-0.586 0-0.868 0-4.046 0-5.304 1.562-6.905 1.562h-0.424c-0.22-0.194-0.509-0.313-0.826-0.313h-2.5c-0.69 0-1.25 0.56-1.25 1.25v9.375c0 0.69 0.56 1.25 1.25 1.25h2.5c0.463 0 0.866-0.251 1.082-0.625h0.275c0.748 0.662 1.797 2.369 2.686 3.258 0.534 0.534 0.397 4.242 2.803 4.242 2.249 0 3.721-1.247 3.721-4.091 0-0.719-0.154-1.318-0.346-1.818h1.425c1.899 0 3.352-1.624 3.352-3.343 0-0.748-0.194-1.367-0.536-1.947zM2.5 11.563c-0.518 0-0.938-0.42-0.938-0.938s0.42-0.938 0.938-0.938 0.938 0.42 0.938 0.938-0.42 0.938-0.938 0.938zM15.398 12.216h-4.062c0 1.477 1.108 2.163 1.108 3.693 0 0.928 0 2.216-1.846 2.216-0.739-0.739-0.37-2.585-1.477-3.693-1.037-1.038-2.585-3.807-3.693-3.807h-0.427v-7.272c2.094 0 3.906-1.477 6.705-1.477h1.477c1.387 0 2.376 0.669 2.075 2.574 0.594 0.319 1.035 1.423 0.545 2.249 0.843 0.796 0.73 1.995 0.204 2.563 0.369 0 0.873 0.739 0.87 1.477s-0.653 1.477-1.477 1.477z"></path>
</svg>
