<svg xmlns="http://www.w3.org/2000/svg" width="20" height="20" viewBox="0 0 20 20">
<path d="M16.536 11.368l-0.824-0.235c1.155-1.606 1.319-3.231 1.319-4.102 0-3.881-3.145-7.031-7.031-7.031-3.881 0-7.031 3.145-7.031 7.031 0 0.871 0.164 2.495 1.319 4.102l-0.824 0.235c-2.633 0.752-3.464 3.147-3.464 4.593v1.003c0 1.674 1.362 3.036 3.036 3.036h13.929c1.674 0 3.036-1.362 3.036-3.036v-1.003c0-1.416-0.81-3.834-3.464-4.593zM10 1.875c2.848 0 5.156 2.309 5.156 5.156s-2.309 5.156-5.156 5.156-5.156-2.309-5.156-5.156 2.309-5.156 5.156-5.156zM18.125 16.964c0 0.641-0.52 1.161-1.161 1.161h-13.929c-0.641 0-1.161-0.52-1.161-1.161v-1.003c0-1.296 0.859-2.434 2.105-2.79l1.801-0.515c0.574 0.432 2.049 1.406 4.219 1.406s3.645-0.974 4.219-1.406l1.801 0.515c1.246 0.356 2.105 1.495 2.105 2.79v1.003z"></path>
</svg>
