<svg xmlns="http://www.w3.org/2000/svg" width="20" height="20" viewBox="0 0 20 20">
<path d="M10 0.313c-5.35 0-9.688 4.337-9.688 9.688s4.337 9.688 9.688 9.688 9.688-4.337 9.688-9.688-4.337-9.688-9.688-9.688zM10 2.188c4.315 0 7.813 3.498 7.813 7.813 0 1.445-0.393 2.797-1.076 3.958-0.276-0.994-1.002-2.117-2.497-2.554 0.496-0.788 0.761-1.701 0.761-2.654 0-2.761-2.234-5-5-5-2.761 0-5 2.234-5 5 0 0.954 0.265 1.867 0.761 2.654-1.496 0.437-2.222 1.559-2.498 2.553-0.683-1.161-1.076-2.513-1.076-3.958 0-4.315 3.498-7.813 7.813-7.813zM13.125 8.75c0 1.726-1.399 3.125-3.125 3.125s-3.125-1.399-3.125-3.125 1.399-3.125 3.125-3.125 3.125 1.399 3.125 3.125zM5 16.003v-1.084c0-0.797 0.529-1.498 1.295-1.717l0.956-0.273c0.809 0.535 1.757 0.822 2.749 0.822s1.94-0.287 2.749-0.822l0.956 0.273c0.767 0.219 1.295 0.92 1.295 1.717v1.084c-1.355 1.13-3.098 1.81-5 1.81s-3.645-0.68-5-1.81z"></path>
</svg>
