<svg xmlns="http://www.w3.org/2000/svg" width="20" height="20" viewBox="0 0 20 20">
<path d="M18.125 1.25h-16.25c-1.035 0-1.875 0.84-1.875 1.875v13.75c0 1.035 0.84 1.875 1.875 1.875h16.25c1.035 0 1.875-0.84 1.875-1.875v-13.75c0-1.035-0.84-1.875-1.875-1.875zM18.125 16.641c0 0.129-0.105 0.234-0.234 0.234h-15.781c-0.129 0-0.234-0.105-0.234-0.234v-13.281c0-0.129 0.105-0.234 0.234-0.234h15.781c0.129 0 0.234 0.105 0.234 0.234v13.281zM13.926 7.602l-2.398 2.398 2.398 2.398c0.18 0.18 0.18 0.473 0 0.656l-0.871 0.871c-0.18 0.18-0.473 0.18-0.656 0l-2.398-2.398-2.398 2.398c-0.18 0.18-0.473 0.18-0.656 0l-0.871-0.871c-0.18-0.18-0.18-0.473 0-0.656l2.398-2.398-2.398-2.398c-0.18-0.18-0.18-0.473 0-0.656l0.871-0.871c0.18-0.18 0.473-0.18 0.656 0l2.398 2.398 2.398-2.398c0.18-0.18 0.473-0.18 0.656 0l0.871 0.871c0.184 0.18 0.184 0.473 0 0.656z"></path>
</svg>
