<svg xmlns="http://www.w3.org/2000/svg" width="20" height="20" viewBox="0 0 20 20">
<path d="M9.996 4.723l0.355-0.613c0.219-0.383 0.707-0.512 1.090-0.293s0.512 0.707 0.293 1.090l-3.418 5.918h2.473c0.801 0 1.25 0.941 0.902 1.594h-7.246c-0.441 0-0.797-0.355-0.797-0.797s0.355-0.797 0.797-0.797h2.031l2.602-4.508-0.813-1.41c-0.219-0.383-0.090-0.867 0.293-1.090 0.383-0.219 0.867-0.090 1.090 0.293l0.348 0.613zM6.922 13.238l-0.766 1.328c-0.219 0.383-0.707 0.512-1.090 0.293s-0.512-0.707-0.293-1.090l0.57-0.984c0.641-0.199 1.164-0.047 1.578 0.453zM13.52 10.828h2.074c0.441 0 0.797 0.355 0.797 0.797s-0.355 0.797-0.797 0.797h-1.152l0.777 1.348c0.219 0.383 0.090 0.867-0.293 1.090-0.383 0.219-0.867 0.090-1.090-0.293-1.309-2.27-2.293-3.969-2.945-5.102-0.668-1.152-0.191-2.309 0.281-2.699 0.523 0.898 1.305 2.254 2.348 4.062zM10 0.313c-5.352 0-9.688 4.336-9.688 9.688s4.336 9.688 9.688 9.688 9.688-4.336 9.688-9.688-4.336-9.688-9.688-9.688zM18.438 10c0 4.637-3.754 8.438-8.438 8.438-4.637 0-8.438-3.754-8.438-8.438 0-4.637 3.754-8.438 8.438-8.438 4.637 0 8.438 3.754 8.438 8.438z"></path>
</svg>
