<svg xmlns="http://www.w3.org/2000/svg" width="25" height="20" viewBox="0 0 25 20">
<path d="M25 7.809v2.109l-12.5 7.813-12.5-7.809v-2.109l12.5 7.813 12.5-7.816zM17.402 10.621l1.84-1.148c-1.453-2.18-3.934-3.617-6.746-3.617s-5.293 1.434-6.742 3.609h0.012c0.098-0.090 0.199-0.176 0.301-0.262 3.504-2.906 8.57-2.27 11.336 1.418zM8.805 11.355c0.66-0.465 1.426-0.73 2.242-0.73 1.344 0 2.547 0.719 3.375 1.859l1.773-1.109c-0.816-1.168-2.172-1.934-3.703-1.934-1.52 0-2.867 0.758-3.688 1.914zM4.047 6.293c5.148-4.074 12.43-2.984 16.309 2.426l0.027 0.039 1.906-1.188c-2.090-3.191-5.695-5.301-9.793-5.301-4.043 0-7.68 2.090-9.785 5.297 0.387-0.41 0.887-0.918 1.336-1.273z"></path>
</svg>
