<svg xmlns="http://www.w3.org/2000/svg" width="20" height="20" viewBox="0 0 20 20">
<path d="M18.832 1.25h-17.711c-0.895 0-1.121 0.23-1.121 1.129v15.242c0 0.91 0.227 1.129 1.121 1.129h17.711c0.953 0 1.168-0.203 1.168-1.16v-15.16c0-0.961-0.211-1.18-1.168-1.18zM6.969 8.605c-1.074-0.789-2.816-0.34-3.289 0.914-0.168 0.434-0.363 0.371-0.684 0.324-0.379-0.059-0.672-0.125-0.879-0.215-1.125-0.445 0.336-2.16 0.973-2.512 1.605-0.836 3.258-0.867 4.895-0.188 1.598 0.656 1.348 2.312 1.348 5.020 0.105 1.008-0.168 2.277 0.363 3.469 0.074 0.172 0.016 0.309-0.105 0.418-0.328 0.262-1.535 0.086-1.82-0.289-0.074-0.086-0.070-0.141-0.152-0.242-0.141-0.152-0.285-0.086-0.465 0.039-2.242 1.422-5.48 0.836-5.742-1.691-0.121-1.145 0.484-2.23 1.547-2.773 1.492-0.762 4.383-0.461 4.453-1.207 0.043-0.398-0.074-0.785-0.441-1.066zM18.168 17.277c0 0.59-0.434 0.387-0.695 0.387h-15.426c-0.289 0-0.711 0.188-0.695-0.418 0.016-0.543 0.41-0.355 0.668-0.355 5.168-0.016 10.332-0.016 15.5 0 0.266 0 0.648-0.172 0.648 0.387zM18.316 3.977v11.367c0 0.223-0.027 0.543-0.316 0.543-0.484-0.016-1.074 0.277-1.41-0.219-0.227-0.34-0.305-0.156-0.484-0.047-2.086 1.16-5.004 0.277-5.641-3.328-0.238-1.305-0.027-2.621 0.613-3.906 0.461-0.934 2.223-2.973 5.316-1.191v-2.773c0-1.023-0.004-1.023 1.016-1.023 0.121 0 0.258 0.016 0.379 0 0.395-0.031 0.531 0.172 0.531 0.559-0.004 0.008-0.004 0.012-0.004 0.020zM16.305 13.051c-0.762 1.859-2.848 1.691-3.516 0.203-0.59-1.301-0.605-2.664 0.016-3.965 0.637-1.332 2.332-1.395 3.184-0.188 0.805 1.125 0.582 3.305 0.316 3.949zM4.789 14.43c-0.293-0.051-1.289-0.129-1.316-1.086-0.016-0.543 0.305-0.898 0.773-1.008 0.953-0.23 1.926-0.387 2.879-0.574 0.348-0.078 0.289 0.172 0.305 0.371 0.055 1.289-1.020 2.313-2.641 2.297z"></path>
</svg>
