<svg xmlns="http://www.w3.org/2000/svg" width="18" height="20" viewBox="0 0 18 20">
<path d="M3.5 7.988v4.523c0 0.602-0.473 1.082-1.074 1.082-0.598 0-1.176-0.484-1.176-1.082v-4.523c0-0.59 0.578-1.074 1.176-1.074 0.59 0 1.074 0.484 1.074 1.074zM3.922 14.121c0 0.641 0.516 1.156 1.156 1.156h0.777l0.012 2.387c0 1.441 2.156 1.43 2.156 0v-2.387h1.453v2.387c0 1.434 2.168 1.438 2.168 0v-2.387h0.789c0.633 0 1.148-0.516 1.148-1.156v-7.008h-9.66v7.008zM13.609 6.734h-9.73c0-1.672 1-3.125 2.484-3.883l-0.746-1.379c-0.109-0.191 0.168-0.313 0.262-0.148l0.758 1.391c1.363-0.605 2.93-0.574 4.23 0l0.754-1.387c0.098-0.168 0.371-0.043 0.262 0.148l-0.746 1.375c1.473 0.758 2.473 2.211 2.473 3.883zM6.941 4.566c0-0.223-0.18-0.41-0.41-0.41-0.223 0-0.398 0.188-0.398 0.41s0.18 0.41 0.398 0.41c0.23 0 0.41-0.188 0.41-0.41zM11.371 4.566c0-0.223-0.18-0.41-0.398-0.41-0.23 0-0.41 0.188-0.41 0.41s0.18 0.41 0.41 0.41c0.219 0 0.398-0.188 0.398-0.41zM15.074 6.914c-0.59 0-1.074 0.473-1.074 1.074v4.523c0 0.602 0.484 1.082 1.074 1.082 0.602 0 1.176-0.484 1.176-1.082v-4.523c0-0.602-0.578-1.074-1.176-1.074z"></path>
</svg>
