<svg xmlns="http://www.w3.org/2000/svg" width="24" height="20" viewBox="0 0 24 20">
<path d="M0 12.703c0.090-0.164 0.203-0.191 0.379-0.098 0.406 0.219 0.805 0.445 1.219 0.652 1.59 0.797 3.25 1.391 4.977 1.809 0.816 0.195 1.637 0.352 2.469 0.461 1.23 0.164 2.469 0.234 3.711 0.203 0.68-0.016 1.359-0.070 2.035-0.148 2.203-0.262 4.332-0.813 6.379-1.672 0.113-0.047 0.23-0.078 0.355-0.047 0.262 0.070 0.352 0.352 0.16 0.543-0.109 0.109-0.246 0.199-0.375 0.289-1.199 0.824-2.508 1.422-3.891 1.871-0.961 0.309-1.938 0.539-2.934 0.688-0.688 0.102-1.383 0.172-2.078 0.188-0.031 0-0.066 0.008-0.098 0.012h-0.824c-0.031-0.004-0.066-0.012-0.098-0.012-0.141-0.008-0.281-0.012-0.418-0.016-0.66-0.027-1.316-0.102-1.969-0.207-1.070-0.176-2.117-0.445-3.141-0.816-2.113-0.766-4.008-1.898-5.687-3.398-0.070-0.063-0.117-0.148-0.172-0.223v-0.078zM6.172 2.539c-0.055 0.008-0.113 0.016-0.168 0.023-0.547 0.066-1.039 0.27-1.484 0.59-0.094 0.066-0.18 0.137-0.277 0.211-0.008-0.020-0.016-0.039-0.016-0.055-0.016-0.105-0.031-0.215-0.051-0.32-0.027-0.18-0.117-0.258-0.297-0.258h-0.449c-0.27 0-0.32 0.051-0.32 0.32v8.176c0 0.039 0 0.078 0.004 0.117 0.008 0.117 0.078 0.191 0.191 0.195 0.273 0.004 0.551 0.004 0.824 0 0.113 0 0.184-0.078 0.195-0.195 0.004-0.039 0.004-0.078 0.004-0.117v-2.828c0.043 0.035 0.066 0.055 0.086 0.074 0.699 0.582 1.504 0.773 2.383 0.602 0.797-0.156 1.352-0.645 1.711-1.363 0.273-0.543 0.387-1.121 0.402-1.723 0.020-0.668-0.047-1.324-0.316-1.945-0.332-0.766-0.883-1.27-1.715-1.441-0.125-0.027-0.254-0.039-0.383-0.059-0.109-0.004-0.215-0.004-0.324-0.004zM4.32 4.176c0-0.059 0.016-0.094 0.066-0.129 0.535-0.371 1.125-0.566 1.781-0.516 0.582 0.043 1.059 0.328 1.309 1.012 0.152 0.418 0.191 0.852 0.191 1.289 0 0.406-0.031 0.805-0.156 1.195-0.266 0.832-0.875 1.148-1.664 1.113-0.547-0.023-1.023-0.234-1.461-0.543-0.047-0.035-0.066-0.066-0.066-0.129 0.004-0.551 0-1.098 0-1.648 0-0.547 0.004-1.094 0-1.645zM12.355 2.539c-0.039 0.004-0.078 0.012-0.113 0.016-0.383 0.020-0.758 0.066-1.129 0.16-0.238 0.063-0.469 0.148-0.699 0.227-0.141 0.047-0.211 0.148-0.207 0.301 0.004 0.129-0.004 0.258 0 0.387 0.004 0.188 0.082 0.238 0.266 0.191 0.305-0.078 0.609-0.164 0.918-0.223 0.48-0.090 0.965-0.129 1.453-0.055 0.254 0.039 0.492 0.113 0.656 0.328 0.145 0.187 0.199 0.41 0.207 0.641 0.012 0.324 0.008 0.648 0.012 0.973 0 0.016-0.004 0.035-0.008 0.055-0.020-0.004-0.035 0-0.051-0.004-0.41-0.098-0.824-0.168-1.25-0.191-0.441-0.023-0.879 0.004-1.301 0.152-0.504 0.176-0.91 0.48-1.148 0.973-0.184 0.383-0.211 0.789-0.152 1.199 0.078 0.547 0.352 0.969 0.836 1.238 0.465 0.258 0.969 0.289 1.48 0.211 0.59-0.090 1.113-0.34 1.574-0.719 0.016-0.016 0.035-0.027 0.063-0.043 0.023 0.148 0.043 0.289 0.070 0.43 0.023 0.121 0.098 0.199 0.211 0.203 0.211 0.004 0.426 0.004 0.637 0 0.105-0.004 0.176-0.074 0.188-0.184 0.004-0.035 0.004-0.074 0.004-0.109v-4.141c0-0.168-0.008-0.336-0.035-0.504-0.074-0.504-0.289-0.918-0.742-1.188-0.262-0.156-0.551-0.234-0.852-0.277-0.141-0.020-0.281-0.031-0.422-0.051-0.152 0.004-0.309 0.004-0.465 0.004zM13.723 7.527c0 0.051-0.016 0.086-0.059 0.117-0.438 0.316-0.918 0.527-1.461 0.582-0.223 0.023-0.445 0.016-0.656-0.070-0.246-0.098-0.406-0.27-0.484-0.52s-0.078-0.508-0.004-0.758c0.098-0.324 0.328-0.508 0.641-0.609 0.316-0.102 0.645-0.117 0.969-0.086 0.328 0.027 0.648 0.090 0.977 0.133 0.063 0.008 0.082 0.039 0.082 0.102-0.004 0.188 0 0.371 0 0.559-0.004 0.184-0.008 0.367-0.004 0.551zM23.875 12.582c-0.039-0.195-0.187-0.27-0.355-0.324-0.266-0.090-0.543-0.129-0.82-0.152-0.512-0.043-1.023-0.020-1.531 0.074-0.559 0.105-1.090 0.285-1.563 0.609-0.055 0.039-0.109 0.082-0.145 0.137-0.027 0.043-0.035 0.109-0.020 0.156 0.016 0.059 0.082 0.074 0.141 0.070 0.027 0 0.059 0 0.086-0.004 0.305-0.031 0.605-0.066 0.91-0.098 0.445-0.043 0.895-0.070 1.34-0.035 0.187 0.012 0.379 0.055 0.563 0.105 0.199 0.055 0.289 0.203 0.297 0.406 0.016 0.313-0.055 0.613-0.137 0.91-0.16 0.602-0.391 1.184-0.617 1.762-0.016 0.039-0.031 0.078-0.039 0.117-0.020 0.113 0.047 0.188 0.16 0.16 0.066-0.016 0.141-0.051 0.187-0.098 0.172-0.168 0.348-0.336 0.496-0.523 0.5-0.641 0.793-1.379 0.965-2.172 0.031-0.141 0.055-0.285 0.082-0.426v-0.676zM18.715 7.77c-0.504-1.395-1.008-2.793-1.512-4.188-0.078-0.223-0.164-0.441-0.246-0.66-0.043-0.113-0.125-0.188-0.25-0.188-0.297-0.004-0.594-0.008-0.895-0.004-0.098 0-0.145 0.078-0.125 0.176 0.020 0.082 0.043 0.16 0.074 0.238 0.766 1.895 1.535 3.793 2.309 5.684 0.066 0.16 0.082 0.297 0.008 0.461-0.129 0.285-0.23 0.586-0.363 0.871-0.117 0.254-0.313 0.445-0.594 0.52-0.199 0.055-0.398 0.063-0.602 0.043-0.098-0.008-0.195-0.031-0.293-0.039-0.133-0.008-0.199 0.051-0.203 0.188-0.004 0.129-0.004 0.258 0 0.387 0.004 0.215 0.078 0.313 0.289 0.348 0.219 0.039 0.441 0.074 0.66 0.078 0.668 0.016 1.199-0.254 1.543-0.836 0.137-0.23 0.262-0.473 0.359-0.719 0.926-2.336 1.84-4.676 2.758-7.016 0.027-0.070 0.051-0.141 0.063-0.215 0.016-0.109-0.035-0.172-0.145-0.172-0.258-0.004-0.52 0-0.777 0-0.145 0-0.246 0.063-0.301 0.203-0.020 0.055-0.043 0.105-0.063 0.16-0.453 1.301-0.906 2.602-1.359 3.906-0.098 0.281-0.199 0.566-0.301 0.867-0.016-0.043-0.023-0.066-0.035-0.094z"></path>
</svg>
