<svg xmlns="http://www.w3.org/2000/svg" width="20" height="20" viewBox="0 0 20 20">
<path d="M17.699 1.25h-12.188c-1.52 0-2.977 1.219-3.254 2.723l-2.211 12.055c-0.277 1.504 0.73 2.723 2.254 2.723h12.188c1.52 0 2.977-1.219 3.254-2.723l2.215-12.051c0.273-1.508-0.734-2.727-2.258-2.727zM15.426 14.816l-1.25 0.527-4.508-4.297c-0.574 0.391-1.141 0.762-1.629 1.059l0.863 2.508-0.699 0.496-1.586-2.383-2.047-1.879 0.613-0.602 2.266 1.215c0.363-0.41 0.813-0.883 1.281-1.363l-0.801-1.156-2.688-3.898 0.734-1.129 0.348-0.187 4.027 4.391 0.191 0.176c0.758-0.734 1.32-1.266 1.32-1.266 0.301-0.254 0.84-0.113 1.199 0.309 0.352 0.41 0.414 0.965 0.105 1.223-0.070 0.051-0.605 0.445-1.379 1l0.176 0.285 3.707 4.664-0.246 0.309z"></path>
</svg>
