<svg xmlns="http://www.w3.org/2000/svg" width="18" height="20" viewBox="0 0 18 20">
<path d="M9.656 5.375c-0.242 0.074-0.598 0.137-1.090 0.18 0.043-2.215 1.168-3.773 3.437-4.301 0.363 1.625-1.020 3.676-2.348 4.121zM14.395 8.215c0.25-0.367 0.648-0.777 1.195-1.238-0.871-1.078-1.879-1.73-3.324-1.73-1.383 0-2.547 0.711-3.398 0.711-0.723 0-2.027-0.629-3.301-0.629-2.719 0-4.16 2.66-4.16 5.43 0 3.078 2.332 7.992 4.695 7.992 0.93 0 1.766-0.703 2.871-0.703 1.145 0 2.063 0.672 3.137 0.672 1.797 0 3.461-3.027 3.984-4.676-1.828-0.559-3.297-3.523-1.699-5.828z"></path>
</svg>
