<svg xmlns="http://www.w3.org/2000/svg" width="25" height="20" viewBox="0 0 25 20">
<path d="M4.566 6.191c-0.293 0.348-0.762 0.621-1.23 0.582-0.059-0.469 0.172-0.969 0.441-1.273 0.293-0.355 0.805-0.609 1.223-0.629 0.047 0.484-0.145 0.965-0.434 1.32zM4.992 6.863c-0.68-0.039-1.262 0.387-1.582 0.387-0.328 0-0.82-0.367-1.359-0.355-0.699 0.012-1.348 0.406-1.703 1.035-0.734 1.262-0.191 3.125 0.52 4.152 0.348 0.508 0.762 1.066 1.309 1.047 0.52-0.020 0.723-0.336 1.348-0.336 0.629 0 0.813 0.336 1.359 0.328 0.566-0.012 0.922-0.508 1.27-1.016 0.395-0.578 0.559-1.137 0.566-1.168-0.012-0.012-1.094-0.426-1.105-1.676-0.012-1.047 0.855-1.543 0.895-1.574-0.488-0.727-1.25-0.805-1.516-0.824zM8.914 5.449v7.613h1.184v-2.602h1.637c1.496 0 2.543-1.027 2.543-2.512s-1.031-2.5-2.504-2.5h-2.859zM10.098 6.445h1.363c1.027 0 1.613 0.547 1.613 1.508s-0.586 1.516-1.617 1.516h-1.359v-3.023zM16.434 13.121c0.742 0 1.43-0.375 1.742-0.973h0.023v0.914h1.094v-3.789c0-1.098-0.879-1.809-2.23-1.809-1.254 0-2.184 0.719-2.219 1.703h1.066c0.090-0.469 0.523-0.777 1.117-0.777 0.723 0 1.129 0.336 1.129 0.957v0.422l-1.477 0.090c-1.371 0.082-2.113 0.645-2.113 1.621 0.004 0.984 0.77 1.641 1.867 1.641zM16.754 12.219c-0.629 0-1.031-0.305-1.031-0.766 0-0.48 0.387-0.758 1.125-0.801l1.313-0.082v0.43c0 0.711-0.605 1.219-1.406 1.219zM20.758 15.133c1.152 0 1.695-0.441 2.168-1.773l2.074-5.82h-1.203l-1.391 4.496h-0.023l-1.391-4.496h-1.234l2 5.543-0.109 0.336c-0.18 0.57-0.473 0.793-0.996 0.793-0.094 0-0.273-0.012-0.348-0.020v0.914c0.070 0.016 0.363 0.027 0.453 0.027z"></path>
</svg>
