<svg xmlns="http://www.w3.org/2000/svg" width="25" height="20" viewBox="0 0 25 20">
<path d="M18.836 14.535c-0.223-0.27-9.070-11.605-9.371-11.977-0.535-0.672 0-0.656 0.75-0.66 0.379-0.004 4.152-0.023 4.551-0.023 0.941-0.004 1.121 0.023 1.5 0.5 0.082 0.105 8.012 9.602 8.094 9.699 0.215 0.262 0.594 0.746 0.281 0.914-0.094 0.051-4.477 1.863-4.602 1.91-0.395 0.156-0.684 0.266-1.203-0.363zM23.316 14.316s-4.492 1.969-4.59 2.016c-0.625 0.285-1.051-0.125-1.434-0.57l-2.23-2.891c-0.211-0.035-2.359-0.375-2.551-0.363-0.121 0.008-0.375 0.031-0.562 0.113-0.191 0.082-5.672 2.063-5.867 2.137-0.199 0.078-0.445 0.141-0.434 0.297 0.008 0.098 0.078 0.102 0.18 0.137 0.105 0.031 11.754 2.641 12.031 2.699 0.609 0.129 1.504 0.41 2.094 0.066 0.082-0.047 4.836-2.984 4.914-3.039 0.211-0.156 0.168-0.266-0.066-0.32-0.090-0.012-0.961-0.184-1.484-0.281zM10.582 7.234s-0.469 0.062-0.977 0.59c-0.352 0.363-9.457 9.34-9.508 9.41-0.273 0.391 0.063 0.266 0.613 0.066 0.031 0 4.473-1.43 4.473-1.43 0.020-0.023-0.004-0.004 0.023-0.023-0.016-0.199-0.031-1.023-0.039-1.082-0.023-0.203 0.086-0.27 0.273-0.348l3.617-1.32c0.023-0.031 3.457-3.191 3.523-3.254v-0.039l-2-2.57z"></path>
</svg>
