<svg xmlns="http://www.w3.org/2000/svg" width="18" height="20" viewBox="0 0 18 20">
<path d="M8.957 7.133c-1.926 0-3.484 1.559-3.484 3.484s1.559 3.484 3.484 3.484 3.484-1.559 3.484-3.484c0-1.926-1.563-3.484-3.484-3.484zM11.406 9.344l-2.301 1.195c-0.070 0.035-0.148-0.016-0.148-0.090v-2.598c0-0.059 0.051-0.105 0.105-0.102 1.023 0.039 1.91 0.613 2.387 1.449 0.027 0.051 0.008 0.117-0.043 0.145zM15.199 1.25h-12.898c-1.27 0-2.301 1.031-2.301 2.301v12.895c0 1.273 1.031 2.305 2.301 2.305h12.895c1.273 0 2.301-1.031 2.301-2.301v-12.898c0.004-1.27-1.027-2.301-2.297-2.301zM7.285 4.559c0-0.422 0.34-0.762 0.762-0.762h1.77c0.422 0 0.762 0.34 0.762 0.762v0.602c0 0.070-0.066 0.117-0.129 0.098-0.48-0.133-0.98-0.199-1.488-0.199-0.527 0-1.043 0.070-1.539 0.215-0.066 0.020-0.133-0.031-0.133-0.098v-0.617zM3.988 6.004l0.359-0.359c0.297-0.297 0.777-0.297 1.074 0l0.301 0.301c0.043 0.043 0.039 0.117-0.012 0.156-0.242 0.176-0.473 0.367-0.688 0.582-0.211 0.211-0.406 0.441-0.578 0.68-0.039 0.051-0.113 0.059-0.156 0.012l-0.301-0.301c-0.297-0.293-0.297-0.773 0-1.070zM8.957 15.566c-2.734 0-4.945-2.215-4.945-4.945s2.215-4.945 4.945-4.945c2.734 0 4.945 2.211 4.945 4.945 0 2.727-2.215 4.945-4.945 4.945z"></path>
</svg>
