<svg xmlns="http://www.w3.org/2000/svg" width="18" height="20" viewBox="0 0 18 20">
<path d="M10.047 6.355c-1.902 0.070-6.621 0.605-6.621 4.59 0 4.277 5.402 4.453 7.168 1.688 0.254 0.398 1.383 1.465 1.77 1.828l2.219-2.188s-1.262-0.988-1.262-2.063v-5.746c0-0.988-0.957-3.215-4.387-3.215-3.438 0-5.262 2.148-5.262 4.074l2.871 0.266c0.637-1.934 2.117-1.934 2.117-1.934 1.59-0.004 1.387 1.164 1.387 2.699zM10.047 9.746c0 3.125-3.289 2.656-3.289 0.672 0-1.844 1.973-2.215 3.289-2.258v1.586zM15.359 16.133c-0.301 0.391-2.734 2.617-6.816 2.617s-7.207-2.793-8.164-3.945c-0.266-0.301 0.039-0.441 0.215-0.324 2.863 1.738 7.336 4.602 14.551 1.184 0.293-0.145 0.52 0.078 0.215 0.469zM16.914 16.219c-0.254 0.617-0.625 1.047-0.828 1.211-0.215 0.176-0.371 0.105-0.254-0.148s0.754-1.816 0.496-2.148c-0.254-0.324-1.445-0.168-1.875-0.125-0.422 0.039-0.508 0.078-0.547-0.012-0.090-0.223 0.848-0.605 1.465-0.684 0.613-0.070 1.602-0.031 1.797 0.223 0.145 0.199 0 1.059-0.254 1.684z"></path>
</svg>
