<svg xmlns="http://www.w3.org/2000/svg" width="25" height="20" viewBox="0 0 25 20">
<path d="M4.188 11.074l-0.742-1.633h-2.035l-0.742 1.633h-0.668l2.43-5.133 2.43 5.133h-0.672zM2.43 7.242l-0.766 1.66h1.531l-0.766-1.66zM6.832 11.242l-2.43-5.133h0.668l1.762 3.75 1.762-3.75h0.664l-2.426 5.133zM9.98 11.074v-4.965h0.605v4.965h-0.605zM18.148 6.559v4.516h-0.676v-4.516h-1.609v-0.449h3.891v0.449h-1.605zM25 8.547c0 0.359-0.066 0.695-0.199 1.008s-0.32 0.59-0.555 0.824c-0.234 0.234-0.512 0.422-0.824 0.555s-0.648 0.199-1.008 0.199-0.695-0.066-1.008-0.199c-0.313-0.133-0.59-0.32-0.824-0.555s-0.422-0.508-0.555-0.824c-0.133-0.313-0.199-0.648-0.199-1.008s0.066-0.695 0.199-1.008c0.133-0.313 0.32-0.59 0.555-0.824s0.508-0.328 0.824-0.465c0.313-0.133 0.648-0.199 1.008-0.199s0.695 0.066 1.008 0.199c0.313 0.133 0.59 0.227 0.824 0.465 0.234 0.234 0.418 0.512 0.555 0.824 0.133 0.313 0.199 0.648 0.199 1.008zM24.395 8.547c0-0.285-0.051-0.547-0.152-0.793s-0.242-0.457-0.422-0.637c-0.18-0.18-0.391-0.32-0.633-0.426s-0.5-0.156-0.773-0.156-0.531 0.051-0.773 0.156c-0.242 0.105-0.453 0.246-0.633 0.426s-0.32 0.391-0.422 0.637c-0.102 0.246-0.152 0.512-0.152 0.793 0 0.285 0.051 0.547 0.152 0.793s0.242 0.457 0.422 0.637c0.18 0.18 0.391 0.32 0.633 0.426s0.5 0.156 0.773 0.156 0.531-0.051 0.773-0.156c0.242-0.105 0.453-0.246 0.633-0.426s0.32-0.391 0.422-0.637c0.102-0.246 0.152-0.512 0.152-0.793zM20.691 12.324v-0.246l3.473-0.391-9.488 0.523c0.023-0.086 0.043-0.18 0.055-0.281 0.012-0.078 0.020-0.164 0.023-0.254l2.531-0.316-2.535 0.074c0-0.016-0.004-0.027-0.004-0.043-0.109-0.672-0.996-0.926-0.996-0.926l-0.043-1.027h0.93l0.742 1.633h0.668l-2.43-5.133-2.43 5.133h0.668l0.742-1.633h0.922l-0.043 1.031s-0.887 0.254-0.996 0.926c-0.004 0.012-0.004 0.027-0.004 0.043l-2.535-0.074 2.531 0.316c0.004 0.090 0.012 0.172 0.023 0.254 0.012 0.102 0.031 0.195 0.055 0.281l-9.488-0.527 3.473 0.391v0.246c-0.23 0.035-0.41 0.234-0.41 0.477 0 0.266 0.219 0.484 0.484 0.484s0.484-0.219 0.484-0.484c0-0.242-0.18-0.441-0.41-0.477v-0.227l3.137 0.352v0.211c-0.223 0.043-0.387 0.242-0.387 0.473 0 0.266 0.219 0.398 0.484 0.398s0.484-0.133 0.484-0.398c0-0.234-0.168-0.43-0.387-0.473v-0.191l1.109 0.125v0.926h-0.23v0.543h0.23v-0.258h0.195v0.258h0.23v-0.539h-0.23v-0.906l1.496 0.168c0.316 0.445 0.742 0.531 0.742 0.531l-0.004 0.262-0.199 0.008-0.004 0.473h0.16l0.004-0.195h0.203l0.004 0.195h0.16l-0.004-0.473-0.199-0.008-0.004-0.262s0.426-0.082 0.742-0.531l1.496-0.168v0.906h-0.23v0.539h0.23v-0.258h0.195v0.258h0.23v-0.539h-0.23v-0.926l1.109-0.125v0.191c-0.223 0.043-0.387 0.242-0.387 0.473 0 0.266 0.219 0.398 0.484 0.398s0.484-0.133 0.484-0.398c0-0.234-0.168-0.43-0.387-0.473v-0.211l3.137-0.352v0.227c-0.23 0.035-0.41 0.234-0.41 0.477 0 0.266 0.219 0.484 0.484 0.484s0.484-0.219 0.484-0.484c-0.008-0.246-0.184-0.445-0.418-0.48zM12.848 8.902l0.766-1.66 0.766 1.66h-0.699l-0.066-1.574-0.066 1.574h-0.699z"></path>
</svg>
