<svg xmlns="http://www.w3.org/2000/svg" width="18" height="20" viewBox="0 0 18 20">
<path d="M15.625 1.25h-13.75c-1.035 0-1.875 0.84-1.875 1.875v13.75c0 1.035 0.84 1.875 1.875 1.875h13.75c1.035 0 1.875-0.84 1.875-1.875v-13.75c0-1.035-0.84-1.875-1.875-1.875zM4.961 15.020c-0.215 0.375-0.695 0.5-1.066 0.285-0.375-0.215-0.5-0.695-0.285-1.066l0.559-0.965c0.629-0.191 1.145-0.043 1.547 0.445l-0.754 1.301zM10.387 12.914h-7.105c-0.43 0-0.781-0.352-0.781-0.781s0.352-0.781 0.781-0.781h1.992l2.555-4.422-0.801-1.383c-0.215-0.375-0.086-0.852 0.285-1.066 0.375-0.215 0.852-0.086 1.066 0.285l0.348 0.602 0.348-0.602c0.215-0.375 0.695-0.5 1.066-0.285 0.375 0.215 0.5 0.695 0.285 1.066l-3.352 5.805h2.426c0.789 0 1.23 0.926 0.887 1.563zM14.219 12.914h-1.133l0.766 1.324c0.215 0.375 0.086 0.852-0.285 1.066-0.375 0.215-0.852 0.086-1.066-0.285-1.285-2.223-2.246-3.895-2.891-5.004-0.652-1.133-0.188-2.266 0.277-2.648 0.512 0.887 1.277 2.215 2.301 3.984h2.031c0.43 0 0.781 0.352 0.781 0.781 0 0.434-0.352 0.781-0.781 0.781z"></path>
</svg>
