<svg xmlns="http://www.w3.org/2000/svg" width="23" height="20" viewBox="0 0 23 20">
<path d="M20.215 12.078c1.516-1.563 2.27-3.125 2.285-4.535 0.031-2.559-2.32-4.617-6.617-5.273-5.027-0.77-11.27 0.605-15.883 3.219 2.031-1.035 4.32-1.883 6.668-2.273 2.91-0.801 5.977-0.992 8.645-0.578 5.957 0.93 7.688 4.98 3.859 9.051-0.398 0.422-0.859 0.824-1.367 1.195l-5.895-8.844-7.43 11.152c-2.563-1.148-2.988-3.523-0.746-5.906 0.813-0.867 1.887-1.637 3.105-2.27 0.781-0.477 1.551-0.883 2.422-1.199-2.543 0.793-4.793 2.066-6.313 3.629-1.082 1.117-1.617 2.23-1.629 3.238-0.020 1.371 0.914 2.543 2.672 3.242l-1.348 2.020h3.969l0.859-1.344c0.867 0.039 1.77 0 2.68-0.105l-0.891 1.449h5.293l-1.273-2.074c0.727-0.207 1.441-0.449 2.129-0.73l1.793 2.805h3.969l-2.867-4.313c0.723-0.473 1.367-0.996 1.91-1.555zM12.887 15.223l-0.977-1.586-1.277 2.082c-0.914 0.137-1.824 0.199-2.703 0.172l3.98-6.223 3.074 4.805c-0.672 0.289-1.379 0.543-2.098 0.75z"></path>
</svg>
