<svg xmlns="http://www.w3.org/2000/svg" width="18" height="20" viewBox="0 0 18 20">
<path d="M16.559 9.992l-0.504 6.145c-0.129 1.59-2.496 1.371-2.367-0.191l0.391-4.785-1.605 0.090c0.395 0.809 0.617 1.715 0.617 2.676 0 1.609-0.629 3.074-1.652 4.16l-1.535-1.535c2.262-2.488 0.512-6.531-2.891-6.531-1.012 0-1.934 0.387-2.625 1.016l-1.535-1.535c0.859-0.809 1.957-1.371 3.18-1.57l2.941-3.348-1.664-0.969-2.016 1.797c-1.172 1.047-2.758-0.723-1.582-1.773l2.656-2.371c0.383-0.344 0.941-0.398 1.387-0.141 0 0 5.441 3.16 5.449 3.168 0.633 0.395 0.809 1.406 0.238 2.055l-2.281 2.598 4.145-0.23c0.723-0.043 1.313 0.563 1.254 1.277zM14.023 3.977c1.098 0 1.988-0.891 1.988-1.988s-0.891-1.988-1.988-1.988c-1.098 0-1.988 0.891-1.988 1.988s0.891 1.988 1.988 1.988zM7.016 17.832c-3.148 0-4.977-3.539-3.23-6.098l-1.551-1.551c-0.813 1.027-1.297 2.328-1.297 3.738 0 5.105 5.887 7.867 9.82 4.785l-1.551-1.551c-0.625 0.426-1.379 0.676-2.191 0.676z"></path>
</svg>
