<svg xmlns="http://www.w3.org/2000/svg" width="18" height="20" viewBox="0 0 18 20">
<path d="M13.559 8.414c0.457-1.273 1.773-4.957 1.773-6.137 0-1.039-0.613-1.91-1.707-1.91-1.742 0-3.305 5.145-3.793 6.371-0.379-1.113-2.152-6.738-3.715-6.738-1.215 0-1.785 0.895-1.785 2.020 0 1.379 1.336 4.953 1.82 6.328-0.246-0.090-0.512-0.168-0.781-0.168-0.914 0-1.887 1.137-1.887 2.055 0 0.348 0.191 0.836 0.313 1.16-1.441 0.391-1.996 1.352-1.996 2.801-0.004 2.82 2.668 5.805 6.426 5.805 4.609 0 7.477-3.461 7.477-7.926 0-1.684-0.27-3.203-2.145-3.66zM12.176 4.219c0.156-0.48 0.824-2.512 1.449-2.512 0.336 0 0.426 0.348 0.426 0.625 0 0.746-1.508 4.867-1.84 5.781l-1.328-0.234 1.293-3.66zM5.559 1.887c0-0.465 0.566-1.785 1.809 1.84l1.352 3.918c-0.609-0.051-1.082-0.117-1.383 0.055-0.426-1.125-1.777-4.676-1.777-5.813zM5.469 9.531c1.145 0 2.621 3.695 2.621 4.195 0 0.199-0.191 0.445-0.414 0.445-0.816 0-3.004-3.004-3.004-3.816 0.004-0.301 0.496-0.824 0.797-0.824zM12.668 16.809c-1.137 1.25-2.59 1.898-4.285 1.898-2.32 0-4.152-1.273-5.035-3.449-0.668-1.695 0.148-2.668 0.805-2.668 0.445 0 2.121 2.355 2.121 2.855 0 0.191-0.301 0.324-0.457 0.324-0.629 0-0.875-0.605-1.996-2.008-1.16 1.16 0.801 3.395 2.277 3.395 1.020 0 1.684-0.945 1.484-1.641 0.145 0 0.324 0.012 0.457-0.023 0.043 1.059 0.355 2.32 1.629 2.41 0-0.035 0.078-0.277 0.078-0.289 0-0.68-0.414-1.273-0.414-1.965 0-1.105 0.848-2.176 1.707-2.801 0.313-0.234 0.691-0.379 1.059-0.512 0.379-0.145 0.781-0.313 1.070-0.602-0.043-0.438-0.223-0.824-0.66-0.824-1.082 0-4.711 0.156-4.711-1.551 0-0.262 0.004-0.512 0.68-0.512 1.262 0 4.465 0.313 5.402 1.137 0.707 0.629 0.949 4.422-1.211 6.824zM8.816 11.887c0.379 0.121 0.77 0.156 1.16 0.234-0.289 0.211-0.547 0.469-0.793 0.746-0.109-0.332-0.242-0.656-0.367-0.98z"></path>
</svg>
