<svg xmlns="http://www.w3.org/2000/svg" width="25" height="20" viewBox="0 0 25 20">
<path d="M1.645 9.34c0.867 0 1.133 0.109 1.309 0.57h0.031v-0.895c0-0.441-0.187-0.602-0.699-0.602-0.441 0-0.562 0.098-0.59 0.5h-1.508c0.012-0.543 0.059-0.746 0.227-0.953 0.285-0.344 0.738-0.461 1.801-0.461 1.289 0 1.84 0.195 2.105 0.738 0.078 0.168 0.156 0.609 0.156 0.926v2.98h-1.496l0.051-0.746h-0.039c-0.207 0.609-0.531 0.797-1.387 0.797-1.184 0-1.605-0.395-1.605-1.457 0-0.984 0.48-1.398 1.645-1.398zM2.313 11.219c0.512 0 0.66-0.117 0.66-0.523 0-0.355-0.168-0.453-0.766-0.453-0.512 0-0.699 0.117-0.699 0.473-0.004 0.406 0.145 0.504 0.805 0.504zM5.352 7.512h1.496l-0.059 0.805h0.031c0.355-0.668 0.621-0.816 1.465-0.816 0.563 0 0.965 0.117 1.23 0.355 0.383 0.336 0.5 0.797 0.5 1.879 0 1.172-0.117 1.684-0.473 2.066-0.266 0.285-0.641 0.395-1.297 0.395-0.797 0-1.141-0.215-1.32-0.828h-0.031v2.746h-1.543v-6.602zM8.512 9.883c0-1.074-0.129-1.27-0.809-1.27-0.66 0-0.809 0.195-0.809 1.121 0 1.094 0.137 1.309 0.828 1.309 0.641 0 0.789-0.219 0.789-1.16zM10.773 7.512h1.496l-0.059 0.805h0.031c0.355-0.668 0.621-0.816 1.465-0.816 0.562 0 0.965 0.117 1.23 0.355 0.383 0.336 0.5 0.797 0.5 1.879 0 1.172-0.117 1.684-0.473 2.066-0.266 0.285-0.641 0.395-1.301 0.395-0.797 0-1.141-0.215-1.32-0.828h-0.031v2.746h-1.543v-6.602zM13.934 9.883c0-1.074-0.129-1.27-0.809-1.27-0.66 0-0.809 0.195-0.809 1.121 0 1.094 0.137 1.309 0.828 1.309 0.641 0 0.789-0.219 0.789-1.16zM16.035 9.734c0-0.992 0.129-1.477 0.48-1.789 0.344-0.316 0.867-0.441 1.762-0.441 1.672 0 2.176 0.5 2.176 2.176v0.434h-2.941c-0.012 0.078-0.012 0.156-0.012 0.188 0 0.66 0.176 0.855 0.785 0.855 0.543 0 0.699-0.117 0.699-0.543h1.465v0.090c0 0.383-0.098 0.738-0.266 0.965-0.285 0.383-0.766 0.531-1.73 0.531-1.074 0-1.625-0.129-1.977-0.48-0.332-0.332-0.441-0.832-0.441-1.984zM19.020 9.281c-0.012-0.070-0.012-0.129-0.012-0.148 0-0.48-0.129-0.57-0.766-0.57-0.562 0-0.668 0.117-0.707 0.59l-0.012 0.129h1.496zM21.191 7.512h1.496l-0.070 0.777h0.027c0.266-0.582 0.563-0.789 1.16-0.789 0.422 0 0.746 0.129 0.914 0.363 0.207 0.285 0.266 0.563 0.266 1.328 0 0.059 0 0.195 0.008 0.363h-1.367c0.012-0.070 0.012-0.129 0.012-0.156 0-0.602-0.078-0.758-0.402-0.758-0.246 0-0.422 0.129-0.512 0.363-0.039 0.117-0.039 0.168-0.039 0.48v2.656h-1.496v-4.629z"></path>
</svg>
