<svg xmlns="http://www.w3.org/2000/svg" width="18" height="20" viewBox="0 0 18 20">
<path d="M9.379 1.25c-2.418 0-5.137 0.66-7.195 2.164-0.199 0.121-0.355 0.359-0.281 0.758 0.043 0.199 0.199 1.070 0.398 1.547 0.16 0.398 0.555 0.398 0.793 0.238 1.27-0.871 3.77-1.863 5.949-1.863 2.262 0 2.301 1.109 2.301 2.855v1.504c-3.414 0.441-8.289 1.352-9.52 1.867-1.387 0.637-1.188 3.652-1.188 4.367s0.594 4.063 4.879 4.063c1.867 0 4.441-0.809 5.988-1.645v0.992c0 0.117 0.082 0.32 0.238 0.355 0.121 0.039 1.98 0.078 2.34 0.078s2.441 0.012 2.598-0.027c0.16-0.039 0.199-0.238 0.199-0.355v-11.586c-0.004-3.137-2.262-5.313-7.5-5.313zM5.945 14.051c0-0.477-0.117-1.668 0.715-2.066 0.949-0.516 2.934-1.148 4.68-1.309v4.168c-0.836 0.516-1.902 0.953-3.090 0.953-2.062 0-2.301-1.309-2.305-1.746z"></path>
</svg>
