<svg xmlns="http://www.w3.org/2000/svg" width="25" height="20" viewBox="0 0 25 20">
<path d="M25 9.305l-0.125 1.102-1.348 0.090-0.078 0.707 1.348-0.090-0.125 1.102-1.344 0.086-0.090 0.785 1.344-0.086-0.117 1.020-2.527 0.16 0.496-4.422-1.848 4.508-1.246 0.078-0.93-4.602 1.184-0.078 0.531 3.102 1.238-3.219 3.637-0.242zM16.672 14.512l1.105-0.070 0.504-4.691-1.109 0.074-0.5 4.688zM6.328 15.16l-0.758-1.406-0.137 1.461-1.102 0.066 0.105-1.137c-0.43 0.703-1.25 1.34-2.223 1.398-1.281 0.078-2.332-0.816-2.203-2.273 0.102-1.145 1.043-2.453 2.637-2.555 1.473-0.094 1.859 0.906 2.004 1.125l0.109-1.203 1.52-0.098c0.785-0.051 1.512 0.145 1.66 0.926l0.102-1.039 2.531-0.164-0.105 1.090-1.422 0.094-0.066 0.699 1.422-0.090-0.105 1.090-1.422 0.090-0.074 0.777 1.418-0.090-0.082 0.813 2.148-4.578 0.93-0.063 1.254 4.32 0.348-3.344-0.871 0.055 0.113-1.090 2.93-0.191-0.117 1.094-0.949 0.063-0.379 3.59-2.266 0.145-0.168-0.609-1.539 0.098-0.313 0.637-4.93 0.301zM4.598 12.418l-1.031 0.066c-0.262-0.484-0.563-0.648-1.027-0.617-0.742 0.047-1.301 0.684-1.352 1.301-0.055 0.625 0.285 1.27 1.121 1.219 0.5-0.031 0.832-0.336 1.129-0.738l1.055-0.066 0.105-1.164zM6.789 12.117c0.047-0.504-0.297-0.531-1.020-0.484l-0.105 1.113c0.555-0.035 1.074-0.082 1.125-0.629zM7.613 14.883l0.227-2.344c-0.195 0.527-0.574 0.824-1.090 1.039l0.863 1.305zM12.902 13.125l-0.309-1.477-0.617 1.535 0.926-0.059zM6.258 10.211l-0.168-0.684-1.547 0.102-0.316 0.711-1.246 0.082 2.227-4.762 0.934-0.063 1.199 3.984 0.387-4.090 1.055-0.070 1.477 2.484 0.254-2.602 1.113-0.074-0.156 1.609c0.289-0.527 0.895-1.746 2.484-1.855 1.582-0.109 2.047 1.145 2.086 1.184l0.129-1.25 1.535-0.105c0.496-0.035 1.086 0.012 1.418 0.379l-0.172-0.465 1.258-0.086 0.504 1.688 0.898-1.785 1.211-0.086-1.703 3.063-0.187 1.73-1.109 0.074 0.187-1.73-0.617-1.68c0.039 0.871-0.359 1.566-1.25 1.937l0.984 1.516-1.422 0.094-0.75-1.437-0.156 1.496-1.109 0.074 0.129-1.23c-0.262 0.363-0.77 1.383-2.328 1.484-1.023 0.066-1.781-0.402-2.164-1.531l-0.156 1.574-0.977 0.063-1.469-2.473-0.246 2.586-2.219 0.145zM17.063 7.004c0.398-0.027 0.684-0.082 0.844-0.168 0.176-0.094 0.273-0.25 0.297-0.473 0.023-0.207-0.023-0.344-0.133-0.406-0.141-0.082-0.414-0.109-0.895-0.078l-0.113 1.125zM12.801 8.359c0.219 0.23 0.496 0.332 0.832 0.309 0.184-0.012 0.355-0.070 0.52-0.16 0.215-0.117 0.414-0.313 0.59-0.559l-1.336 0.090 0.094-0.934 2.465-0.168 0.047-0.469-1.219 0.082c-0.16-0.145-0.305-0.258-0.434-0.316-0.156-0.066-0.316-0.109-0.477-0.098-0.313 0.020-0.598 0.141-0.859 0.359-0.301 0.25-0.469 0.566-0.504 0.953-0.043 0.375 0.055 0.676 0.281 0.91zM4.938 8.68l0.93-0.063-0.324-1.469-0.605 1.531z"></path>
</svg>
