<svg xmlns="http://www.w3.org/2000/svg" width="20" height="20" viewBox="0 0 20 20">
<path d="M10.203 5.316c-0.547 2.246-0.512 2.125-1.008 4.18-0.063 0.254-0.16 0.328-0.418 0.332h-0.563c-0.227-0.004-0.32-0.063-0.387-0.285-0.48-1.539-1.125-3.676-1.559-5.105-0.16-0.527-0.055-0.516 0.363-0.504 0.145 0.004 0.285 0 0.43 0 0.199 0.004 0.301 0.078 0.355 0.277 0.141 0.504 0.234 0.891 1.039 4.066 0.016 0.062 0.035 0.121 0.055 0.18h0.043c0.020-0.078 0.043-0.152 0.063-0.23 0.305-1.285 0.605-2.574 0.91-3.859 0.094-0.398 0.262-0.438 0.664-0.438h0.297c0.27 0.004 0.352 0.059 0.418 0.324 0.234 0.914 0.918 3.977 1.043 4.313 0.199-0.715-0.070 0.309 1.113-4.258 0.082-0.316 0.16-0.379 0.48-0.379h0.496c0.211 0.004 0.273 0.070 0.223 0.277-0.094 0.371-0.113 0.387-1.613 5.191-0.121 0.387-0.164 0.422-0.57 0.422h-0.414c-0.285 0-0.359-0.051-0.43-0.328-0.168-0.633-0.91-3.738-1.031-4.176zM4.898 9.66c0.164 0.227 0.316 0.246 0.551 0.094l0.246-0.164c0.266-0.176 0.285-0.246 0.141-0.527-0.168-0.328-0.25-0.676-0.246-1.051 0-0.121 0.023-2.176-0.035-2.609-0.105-0.754-0.488-1.281-1.238-1.512-0.418-0.133-0.848-0.129-1.277-0.117-0.59 0.016-1.148 0.18-1.672 0.445-0.070 0.035-0.145 0.121-0.16 0.191-0.031 0.152-0.043 0.316-0.027 0.473 0.023 0.23 0.102 0.273 0.32 0.199 0.199-0.066 0.391-0.152 0.59-0.211 0.566-0.172 1.141-0.25 1.723-0.066 0.277 0.086 0.457 0.27 0.559 0.539 0.117 0.309 0.094 0.629 0.094 0.945 0 0.215-0.004 0.215-0.215 0.176-0.543-0.102-1.082-0.195-1.637-0.121-0.594 0.082-1.117 0.285-1.492 0.781-0.355 0.469-0.391 1-0.289 1.543 0.109 0.586 0.461 1.004 1.031 1.188 0.805 0.262 1.566 0.129 2.254-0.371 0.148-0.109 0.281-0.242 0.434-0.371 0.121 0.195 0.227 0.379 0.348 0.547zM4.301 7.254c0.117 0.016 0.176 0.074 0.168 0.199-0.008 0.148 0.004 0.297-0.012 0.445-0.047 0.457-0.301 0.77-0.699 0.973-0.32 0.164-0.66 0.227-1.020 0.195-0.594-0.051-0.82-0.512-0.766-1.027 0.051-0.492 0.332-0.766 0.84-0.852 0.539-0.094 0.625-0.043 1.488 0.066zM17.926 9.797c0.832-0.336 1.285-1.023 1.141-1.953-0.086-0.57-0.461-0.945-0.984-1.152-0.574-0.23-1.32-0.402-1.879-0.711-0.172-0.094-0.289-0.246-0.297-0.465-0.016-0.434 0.164-0.672 0.602-0.773 0.363-0.082 0.734-0.086 1.098-0.016 0.285 0.055 0.559 0.164 0.836 0.246 0.109 0.035 0.23 0.082 0.305-0.062 0.148-0.285 0.016-0.73-0.285-0.852-0.879-0.352-1.777-0.453-2.664-0.063-0.57 0.25-0.961 0.68-1.016 1.336-0.063 0.754 0.27 1.305 0.941 1.629 0.301 0.145 0.629 0.23 0.945 0.348s0.633 0.227 0.941 0.355c0.48 0.207 0.453 0.945 0.047 1.172-1.082 0.598-2.535-0.094-2.703-0.148-0.129-0.043-0.207 0.008-0.246 0.145-0.117 0.441 0.027 0.734 0.453 0.887 0.848 0.309 1.938 0.41 2.766 0.078zM11.563 16.152c1.984-0.227 3.855-0.813 5.574-1.836 0.313-0.184 0.605-0.402 0.902-0.613 0.285-0.203 0.125-0.719-0.441-0.477-2.125 0.906-4.344 1.41-6.648 1.52-1.191 0.059-2.375-0.012-3.559-0.184-2.465-0.359-4.781-1.141-6.938-2.391-0.082-0.047-0.164-0.098-0.254-0.117-0.191-0.043-0.301 0.184-0.094 0.379 0.938 0.863 1.965 1.594 3.090 2.176 2.098 1.082 4.316 1.668 6.688 1.641 0.563-0.031 1.125-0.035 1.68-0.098zM18.387 12.551c0.578 0.031 0.758 0.23 0.613 0.789-0.148 0.578-0.363 1.141-0.543 1.711-0.035 0.113-0.164 0.246-0.031 0.344 0.145 0.102 0.254-0.039 0.352-0.129 0.398-0.371 0.68-0.82 0.879-1.32 0.211-0.523 0.363-1.063 0.34-1.637-0.008-0.242-0.070-0.344-0.305-0.41-0.211-0.059-0.43-0.109-0.645-0.125-0.844-0.070-1.66 0.020-2.422 0.414-0.121 0.063-0.234 0.145-0.34 0.23-0.043 0.035-0.125 0.207 0.094 0.238 0.074 0.012 0.152-0.004 0.23-0.012 0.66-0.063 1.117-0.129 1.777-0.094z"></path>
</svg>
