<svg xmlns="http://www.w3.org/2000/svg" width="20" height="20" viewBox="0 0 20 20">
<path d="M6.484 4.566c0 0.914-0.641 1.918-2.832 1.918h-2.738l0.82-3.469h2.648c1.645 0 2.102 0.91 2.102 1.551zM11.414 3.016h-2.648l-0.73 3.469h2.738c2.102 0 2.738-1.004 2.738-1.918 0.004-0.641-0.453-1.551-2.098-1.551zM3.469 8.129h-2.648l-0.82 3.469h2.738c2.191 0 2.832-0.914 2.832-1.918 0-0.637-0.457-1.551-2.102-1.551zM10.504 8.129h-2.648l-0.73 3.469h2.738c2.102 0 2.738-0.914 2.738-1.918 0-0.637-0.457-1.551-2.098-1.551zM17.898 6.027h-2.648l-0.73 3.469h2.738c2.102 0 2.738-0.914 2.738-1.918 0.004-0.637-0.453-1.551-2.098-1.551zM16.805 11.414h-2.648l-0.73 3.469h2.738c2.191 0 2.738-0.914 2.738-1.918 0-0.637-0.453-1.551-2.098-1.551zM9.406 13.516h-2.648l-0.73 3.469h2.738c2.191 0 2.738-1.004 2.738-1.918 0.004-0.637-0.453-1.551-2.098-1.551z"></path>
</svg>
