<svg xmlns="http://www.w3.org/2000/svg" width="18" height="20" viewBox="0 0 18 20">
<path d="M6.344 7.656c0.188-0.191 0.242-0.199 1.422-0.199 1.063 0 1.098 0.004 1.254 0.082 0.227 0.113 0.324 0.273 0.324 0.531 0 0.23-0.094 0.391-0.297 0.523-0.109 0.070-0.176 0.074-1.215 0.082-0.641 0.004-1.152-0.008-1.23-0.031-0.402-0.113-0.551-0.691-0.258-0.988zM8.742 11.348c-2.105 0-2.18 0.008-2.352 0.16-0.137 0.121-0.223 0.367-0.199 0.543 0.027 0.184 0.188 0.395 0.359 0.469 0.086 0.039 0.551 0.066 2.199 0.047l1.871-0.023 0.359-0.059c0.352-0.199 0.41-0.68 0.121-0.953-0.207-0.184-0.195-0.184-2.359-0.184zM17.469 16.43c-0.137 1.109-0.898 1.969-1.996 2.246-0.281 0.070-0.379 0.074-6.754 0.070-6.164 0-6.48-0.004-6.719-0.070-0.328-0.086-0.609-0.215-0.871-0.391-0.219-0.148-0.543-0.461-0.664-0.641-0.148-0.219-0.32-0.598-0.391-0.859s-0.074-0.367-0.074-6.773c0-6.371 0-6.508 0.070-6.785 0.246-0.965 1.012-1.703 2-1.922 0.285-0.063 12.973-0.074 13.281-0.012 0.828 0.168 1.48 0.668 1.859 1.422 0.301 0.598 0.273-0.059 0.285 7.055 0.008 4.523 0 6.426-0.027 6.66zM14.133 9.195c-0.043-0.195-0.164-0.375-0.301-0.449-0.043-0.023-0.313-0.051-0.605-0.066-0.484-0.023-0.539-0.031-0.695-0.121-0.242-0.141-0.309-0.297-0.313-0.715 0-0.797-0.332-1.539-0.988-2.207-0.469-0.477-0.988-0.801-1.586-0.98-0.141-0.043-0.461-0.059-1.531-0.070-1.676-0.020-2.051 0.016-2.621 0.242-1.055 0.418-1.809 1.305-2.086 2.438-0.051 0.211-0.062 0.555-0.074 2.512-0.016 2.453 0 2.816 0.156 3.301 0.379 1.199 1.449 2.086 2.523 2.281 0.359 0.066 4.773 0.082 5.223 0.020 0.785-0.105 1.402-0.422 1.98-1.012 0.418-0.426 0.68-0.891 0.852-1.504 0.125-0.426 0.113-3.453 0.066-3.668z"></path>
</svg>
