<svg xmlns="http://www.w3.org/2000/svg" width="20" height="20" viewBox="0 0 20 20">
<path d="M19.688 10c0 5.35-4.337 9.688-9.688 9.688s-9.688-4.337-9.688-9.688 4.337-9.688 9.688-9.688 9.688 4.337 9.688 9.688zM14.154 8.62c0.193-1.289-0.789-1.982-2.131-2.444l0.435-1.746-1.063-0.265-0.424 1.7c-0.279-0.070-0.566-0.135-0.852-0.2l0.427-1.711-1.062-0.265-0.436 1.746c-0.231-0.053-0.458-0.105-0.679-0.16l0.001-0.005-1.466-0.366-0.283 1.135s0.789 0.181 0.772 0.192c0.431 0.107 0.508 0.392 0.495 0.618l-0.496 1.989c0.030 0.008 0.068 0.018 0.111 0.035-0.035-0.009-0.073-0.018-0.112-0.028l-0.695 2.787c-0.053 0.131-0.186 0.327-0.487 0.252 0.011 0.015-0.773-0.193-0.773-0.193l-0.528 1.217 1.383 0.345c0.257 0.064 0.51 0.132 0.758 0.196l-0.44 1.766 1.062 0.265 0.436-1.747c-0.002 0.011 0.281 0.087 0.567 0.159l0.281 0.061-0.434 1.739 1.063 0.265 0.44-1.763c1.813 0.343 3.176 0.205 3.749-1.435 0.462-1.32-0.023-2.081-0.977-2.578 0.695-0.16 1.218-0.617 1.357-1.561zM11.725 12.025c-0.329 1.32-2.551 0.606-3.272 0.427l0.584-2.34c0.721 0.18 3.031 0.536 2.688 1.912zM12.054 8.601c-0.3 1.201-2.15 0.591-2.75 0.441l0.529-2.122c0.6 0.15 2.533 0.429 2.221 1.681z"></path>
</svg>
