<svg xmlns="http://www.w3.org/2000/svg" width="18" height="20" viewBox="0 0 18 20">
<path d="M16.25 1.25h-15c-0.688 0-1.25 0.563-1.25 1.25v15c0 0.688 0.563 1.25 1.25 1.25h15c0.688 0 1.25-0.563 1.25-1.25v-15c0-0.688-0.563-1.25-1.25-1.25zM13.75 11.305c0 1.93-0.445 3.227-4.055 3.227h-0.66c-1.723 0-2.438-0.582-2.75-1.516h-0.035v1.359h-2.5v-9.063h2.5v2.918h0.043c0.18-1.191 1.551-1.516 2.723-1.516h0.676c3.609 0 4.055 1.293 4.055 3.223v1.367zM11.25 10.176v0.895c0 0.848-0.133 1.32-1.5 1.32h-1.77c-1.129 0-1.723-0.254-1.723-1.395v-0.742c0-1.145 0.594-1.395 1.723-1.395h1.77c1.367-0.008 1.5 0.469 1.5 1.316z"></path>
</svg>
