<svg xmlns="http://www.w3.org/2000/svg" width="15" height="20" viewBox="0 0 15 20">
<path d="M12.117 9.478c1.083-0.554 1.773-1.539 1.613-3.176-0.209-2.24-2.049-2.991-4.486-3.2v-3.102h-1.896v3.016c-0.492 0-0.997 0.012-1.502 0.025v-3.040h-1.896v3.102c-0.697 0.021-1.509 0.011-3.804 0v2.019c1.497-0.026 2.282-0.123 2.462 0.837v8.493c-0.114 0.761-0.724 0.652-2.080 0.628l-0.382 2.253c3.456 0 3.804 0.012 3.804 0.012v2.656h1.896v-2.62c0.517 0.012 1.022 0.012 1.502 0.012v2.607h1.896v-2.656c3.176-0.172 5.299-0.972 5.582-3.964 0.222-2.4-0.911-3.471-2.708-3.902zM5.883 5.256c1.071 0 4.419-0.332 4.419 1.896 0 2.129-3.348 1.883-4.419 1.883v-3.779zM5.883 15.091v-4.16c1.28 0 5.2-0.357 5.2 2.080-0 2.351-3.92 2.080-5.2 2.080z"></path>
</svg>
