<svg xmlns="http://www.w3.org/2000/svg" width="18" height="20" viewBox="0 0 18 20">
<path d="M17.445 8.699c-0.070-0.313-0.266-0.602-0.488-0.723-0.070-0.039-0.508-0.086-0.977-0.105-0.785-0.035-0.871-0.051-1.121-0.195-0.395-0.23-0.5-0.48-0.504-1.152-0.004-1.289-0.539-2.488-1.598-3.566-0.754-0.77-1.598-1.289-2.559-1.582-0.23-0.070-0.746-0.094-2.473-0.113-2.711-0.031-3.313 0.023-4.234 0.391-1.699 0.672-2.918 2.102-3.363 3.93-0.082 0.344-0.102 0.895-0.121 4.059-0.023 3.965 0.004 4.547 0.25 5.332 0.609 1.938 2.34 3.371 4.078 3.684 0.578 0.105 7.707 0.129 8.438 0.031 1.27-0.172 2.266-0.684 3.199-1.637 0.676-0.691 1.098-1.438 1.375-2.426 0.191-0.688 0.176-5.578 0.098-5.926zM4.863 6.215c0.305-0.309 0.391-0.32 2.297-0.32 1.715 0 1.773 0.004 2.023 0.133 0.363 0.184 0.523 0.441 0.523 0.855 0 0.371-0.148 0.633-0.48 0.844-0.18 0.113-0.285 0.121-1.965 0.129-1.035 0.008-1.863-0.016-1.984-0.047-0.648-0.184-0.891-1.113-0.414-1.594zM12.355 14.020l-0.582 0.094-3.027 0.035c-2.66 0.031-3.41-0.016-3.551-0.078-0.277-0.121-0.539-0.457-0.582-0.758-0.043-0.285 0.102-0.676 0.32-0.875 0.277-0.25 0.398-0.258 3.801-0.262 3.5-0.004 3.48-0.004 3.813 0.305 0.473 0.441 0.371 1.219-0.191 1.539z"></path>
</svg>
