<svg xmlns="http://www.w3.org/2000/svg" width="18" height="20" viewBox="0 0 18 20">
<path d="M0 1.25v5h5v-5h-5zM4.688 5.938h-4.375v-4.375h4.375v4.375zM6.25 1.25v5h5v-5h-5zM10.938 5.938h-4.375v-4.375h4.375v4.375zM12.5 1.25v5h5v-5h-5zM17.188 5.938h-4.375v-4.375h4.375v4.375zM0 7.5v5h5v-5h-5zM4.688 12.188h-4.375v-4.375h4.375v4.375zM6.25 7.5v5h5v-5h-5zM10.938 12.188h-4.375v-4.375h4.375v4.375zM12.5 7.5v5h5v-5h-5zM17.188 12.188h-4.375v-4.375h4.375v4.375zM0 13.75v5h5v-5h-5zM4.688 18.438h-4.375v-4.375h4.375v4.375zM6.25 13.75v5h5v-5h-5zM10.938 18.438h-4.375v-4.375h4.375v4.375zM12.5 13.75v5h5v-5h-5z"></path>
</svg>
