<svg xmlns="http://www.w3.org/2000/svg" width="23" height="20" viewBox="0 0 23 20">
<path d="M9.063 9.266c1.242-0.594 1.891-1.492 1.891-2.891 0-2.758-2.055-3.43-4.426-3.43h-6.527v13.844h6.711c2.516 0 4.879-1.207 4.879-4.020 0-1.738-0.824-3.023-2.527-3.504zM3.043 5.309h2.855c1.098 0 2.086 0.309 2.086 1.582 0 1.176-0.77 1.648-1.855 1.648h-3.086v-3.23zM6.297 14.438h-3.254v-3.813h3.316c1.34 0 2.188 0.559 2.188 1.977 0 1.398-1.012 1.836-2.25 1.836zM20.301 5.035h-5.613v-1.363h5.613v1.363zM22.5 11.922c0-2.965-1.734-5.438-4.879-5.438-3.055 0-5.129 2.297-5.129 5.305 0 3.121 1.965 5.262 5.129 5.262 2.395 0 3.945-1.078 4.691-3.371h-2.43c-0.262 0.855-1.34 1.309-2.176 1.309-1.613 0-2.461-0.945-2.461-2.551h7.23c0.012-0.164 0.023-0.34 0.023-0.516zM15.25 10.703c0.090-1.316 0.965-2.141 2.285-2.141 1.383 0 2.078 0.813 2.195 2.141h-4.48z"></path>
</svg>
