<svg xmlns="http://www.w3.org/2000/svg" width="18" height="20" viewBox="0 0 18 20">
<path d="M7.285 11.445c0 0.754-0.547 0.992-1.219 0.992h-1.762v-2.066h1.797c0.727 0.004 1.184 0.305 1.184 1.074zM6.984 8.23c0-0.691-0.535-0.855-1.129-0.855h-1.547v1.75h1.668c0.59 0 1.008-0.258 1.008-0.895zM12.152 9.137c-0.715 0-1.191 0.445-1.238 1.16h2.43c-0.066-0.723-0.441-1.16-1.191-1.16zM17.5 3.125v13.75c0 1.035-0.84 1.875-1.875 1.875h-13.75c-1.035 0-1.875-0.84-1.875-1.875v-13.75c0-1.035 0.84-1.875 1.875-1.875h13.75c1.035 0 1.875 0.84 1.875 1.875zM10.613 7.227h3.039v-0.738h-3.039v0.738zM8.934 11.535c0-0.941-0.445-1.754-1.367-2.016 0.672-0.32 1.023-0.691 1.023-1.445 0-1.492-1.113-1.855-2.398-1.855h-3.535v7.5h3.637c1.363-0.008 2.641-0.66 2.641-2.184zM14.844 10.957c0-1.605-0.941-2.945-2.641-2.945-1.656 0-2.777 1.242-2.777 2.875 0 1.691 1.066 2.852 2.777 2.852 1.297 0 2.137-0.582 2.543-1.828h-1.316c-0.145 0.465-0.727 0.707-1.18 0.707-0.875 0-1.332-0.512-1.332-1.379h3.914c0.004-0.090 0.012-0.188 0.012-0.281z"></path>
</svg>
