<svg xmlns="http://www.w3.org/2000/svg" width="24" height="20" viewBox="0 0 24 20">
<path d="M5.805 11.875c0.32 2.676 2.633 4.512 5.703 4.348 2 1.691 5.344 1.789 7.281-0.219 2.703 0.043 4.629-1.742 5.137-3.887 0.578-2.441-0.711-5.176-3.598-6.059-1.289-3.441-5.133-3.965-7.285-3.32-2.238 0.676-3.293 2.078-3.879 4.285-0.305 0.105-1.035 0.348-1.758 0.941 0.457 0 0.594 0.348 0.594 0.762v0.797c0 0.418-0.34 0.762-0.762 0.762h-0.789c-0.418 0-0.762-0.234-0.762-0.652v-0.258h-1.828c-0.148 0-0.422 0.168-0.422 0.465v1.578c0 0.25 0.207 0.461 0.457 0.461h1.91zM14.688 12.188c-0.418 1.809 0.848 2.828 2.16 3.391-4.188 1.32-6.703-1.984-5.285-4.328-1.297 0.844-1.316 2.781-1.141 3.629-0.699-0.484-2.102-1.266-2.242-3.117-0.117-1.559 0.84-2.957 2.227-3.668 1.195-0.617 4.043-0.332 5.219 1.594-0.551-1.875-2.102-2.738-3.977-2.922 1.207-1.199 2.516-1.965 4.461-1.707 2.727 0.363 5.203 3.234 2.645 5.879 1.367-0.637 1.902-2.125 1.855-3.004l0.41 0.766c0.461 0.859 0.594 1.859 0.367 2.813-0.359 1.523-1.586 2.688-3.113 2.988-1.254 0.246-3.246-0.199-3.586-2.312zM5 8.125h-1.555c-0.348 0-0.633-0.285-0.633-0.633v-1.547c0-0.348 0.285-0.633 0.633-0.633h1.555c0.348 0 0.633 0.285 0.633 0.633v1.547c0 0.348-0.285 0.633-0.633 0.633zM0.395 6.563c-0.219 0-0.395-0.176-0.395-0.395v-1.086c0-0.219 0.176-0.395 0.395-0.395h1.082c0.215 0 0.395 0.176 0.395 0.395v1.086c0 0.219-0.176 0.395-0.395 0.395h-1.082zM6.563 5.574v-0.836c0-0.199 0.164-0.363 0.363-0.363h0.836c0.199 0 0.363 0.164 0.363 0.363v0.836c0 0.199-0.164 0.363-0.363 0.363h-0.836c-0.199 0-0.363-0.164-0.363-0.363zM2.188 9.199v0.977c0 0.246-0.199 0.449-0.445 0.449h-0.984c-0.246 0-0.445-0.203-0.445-0.449v-0.977c0-0.246 0.199-0.449 0.445-0.449h0.98c0.25 0 0.449 0.203 0.449 0.449z"></path>
</svg>
