<svg xmlns="http://www.w3.org/2000/svg" width="23" height="20" viewBox="0 0 23 20">
<path d="M9.363 3.121c-3.785 0-6.867 3.070-6.867 6.867 0 3.785 3.082 6.867 6.867 6.867 3.797 0 6.867-3.082 6.867-6.867 0-3.797-3.070-6.867-6.867-6.867zM7.805 14.043c-1.629-0.621-2.789-2.203-2.789-4.055s1.16-3.434 2.789-4.066v8.121zM10.922 14.055v-8.133c1.629 0.633 2.789 2.215 2.789 4.066s-1.16 3.434-2.789 4.066zM20.625 1.25h-18.75c-1.035 0-1.875 0.84-1.875 1.875v13.75c0 1.035 0.84 1.875 1.875 1.875h18.75c1.035 0 1.875-0.84 1.875-1.875v-13.75c0-1.035-0.84-1.875-1.875-1.875zM12.879 17.5h-3.527c-4.148 0-7.57-3.34-7.57-7.43 0-4.477 3.422-7.57 7.57-7.57h3.527c4.102 0 7.84 3.094 7.84 7.57 0 4.090-3.738 7.43-7.84 7.43z"></path>
</svg>
