<svg xmlns="http://www.w3.org/2000/svg" width="23" height="20" viewBox="0 0 23 20">
<path d="M16.855 9.543v-1.262c1.609 0 1.504 0.008 1.504 0.008 0.285 0.051 0.52 0.285 0.52 0.625 0 0.344-0.234 0.566-0.52 0.617-0.047 0.016-0.129 0.012-1.504 0.012zM18.527 10.332c-0.109-0.027-0.129-0.020-1.672-0.020v1.367c1.547 0 1.563 0.008 1.672-0.020 0.293-0.059 0.527-0.313 0.527-0.664 0-0.34-0.234-0.605-0.527-0.664zM22.5 3.125v13.75c0 1.035-0.84 1.875-1.875 1.875h-18.75c-1.035 0-1.875-0.84-1.875-1.875v-13.75c0-1.035 0.84-1.875 1.875-1.875h18.75c1.035 0 1.875 0.84 1.875 1.875zM7.109 7.512h-2.227c0 2.621 0.418 4.285-1.398 4.285-0.762 0-1.516-0.223-2.234-0.578v1.094c1.172 0.324 2.656 0.324 2.656 0.324 3.824 0 3.203-1.863 3.203-5.125zM14.082 7.688c-2.477-0.625-6.445-0.582-6.445 2.316 0 3.012 4.227 2.875 6.445 2.313v-1.105c-1.859 0.965-4.199 0.859-4.199-1.211s2.336-2.172 4.199-1.219v-1.094zM21.25 11.191c0-0.723-0.645-1.191-1.484-1.25v-0.031c0.762-0.105 1.184-0.605 1.184-1.18 0-0.742-0.613-1.172-1.445-1.211 0 0 0.246-0.012-4.699-0.012v4.98h4.793c0.949 0.004 1.652-0.504 1.652-1.297z"></path>
</svg>
