<svg xmlns="http://www.w3.org/2000/svg" width="20" height="20" viewBox="0 0 20 20">
<path d="M9.982 0.313c5.365 0 9.705 4.158 9.705 9.688 0 5.858-4.801 9.687-9.705 9.687-5.205 0-9.67-4.275-9.67-9.687 0-5.124 4.121-9.688 9.67-9.688zM10.017 2.060c-4.701 0-7.958 3.928-7.958 7.941 0 4.161 3.476 7.906 7.958 7.906 3.966 0 7.923-3.103 7.923-7.906-0-4.483-3.585-7.941-7.923-7.941zM9.896 8.392l-1.298 0.675c-0.211-0.438-0.596-0.778-1.073-0.778-0.865 0-1.298 0.571-1.298 1.713 0 0.931 0.369 1.713 1.298 1.713 0.565 0 0.963-0.277 1.194-0.83l1.193 0.605c-0.501 0.934-1.441 1.522-2.543 1.522-1.686 0-2.889-1.065-2.889-3.010 0-1.935 1.278-3.010 2.837-3.010 1.2-0.001 2.059 0.467 2.578 1.401zM15.484 8.392l-1.28 0.675c-0.216-0.449-0.599-0.778-1.090-0.778-0.865 0-1.298 0.571-1.298 1.713 0 0.934 0.371 1.713 1.298 1.713 0.565 0 0.963-0.277 1.193-0.83l1.211 0.605c-0.522 0.932-1.463 1.522-2.542 1.522-1.697 0-2.889-1.054-2.889-3.010 0-1.934 1.277-3.010 2.837-3.010 1.199-0.001 2.053 0.467 2.561 1.401z"></path>
</svg>
