<svg xmlns="http://www.w3.org/2000/svg" width="23" height="20" viewBox="0 0 23 20">
<path d="M11.805 8.531c0 0.672-0.41 1.059-1.133 1.059h-0.949v-2.117h0.953c0.719 0 1.129 0.383 1.129 1.059zM13.66 10.977c0 0.324 0.281 0.535 0.723 0.535 0.562 0 0.984-0.355 0.984-0.855v-0.301l-0.918 0.059c-0.52 0.035-0.789 0.227-0.789 0.563zM22.5 3.086v13.75c0 1.035-0.84 1.875-1.875 1.875h-18.75c-1.035 0-1.875-0.84-1.875-1.875v-13.75c0-1.035 0.84-1.875 1.875-1.875h18.75c1.035 0 1.875 0.84 1.875 1.875zM4.992 7.703c0.328 0.027 0.656-0.164 0.863-0.406 0.203-0.25 0.336-0.586 0.301-0.926-0.289 0.012-0.648 0.191-0.855 0.441-0.188 0.215-0.348 0.563-0.309 0.891zM7.359 10.613c-0.008-0.008-0.766-0.297-0.773-1.172-0.008-0.73 0.598-1.082 0.625-1.102-0.344-0.508-0.875-0.563-1.059-0.574-0.477-0.027-0.883 0.27-1.109 0.27-0.23 0-0.574-0.258-0.949-0.25-0.488 0.008-0.945 0.285-1.191 0.727-0.512 0.883-0.133 2.188 0.363 2.906 0.242 0.355 0.535 0.746 0.918 0.73 0.363-0.016 0.508-0.234 0.945-0.234 0.441 0 0.566 0.234 0.949 0.23 0.398-0.008 0.645-0.355 0.891-0.711 0.27-0.406 0.383-0.797 0.391-0.82zM12.648 8.527c0-1.039-0.723-1.75-1.754-1.75h-2v5.328h0.828v-1.82h1.145c1.047 0 1.781-0.719 1.781-1.758zM16.164 9.453c0-0.77-0.617-1.266-1.563-1.266-0.879 0-1.527 0.504-1.551 1.191h0.746c0.063-0.328 0.367-0.543 0.781-0.543 0.508 0 0.789 0.234 0.789 0.672v0.293l-1.031 0.062c-0.961 0.059-1.48 0.453-1.48 1.137 0 0.691 0.535 1.148 1.305 1.148 0.52 0 1-0.262 1.219-0.68h0.016v0.641h0.766v-2.656zM20.156 8.238h-0.84l-0.973 3.148h-0.016l-0.973-3.148h-0.871l1.402 3.879-0.074 0.234c-0.125 0.398-0.332 0.555-0.699 0.555-0.066 0-0.191-0.008-0.242-0.012v0.641c0.047 0.016 0.254 0.020 0.316 0.020 0.809 0 1.188-0.309 1.52-1.242l1.449-4.074z"></path>
</svg>
