<svg xmlns="http://www.w3.org/2000/svg" width="18" height="20" viewBox="0 0 18 20">
<path d="M16.504 7.926c1.199 0 1.309 2.074-0.012 2.074h-0.422v1.73h-1.039v-3.805h1.473zM18.438 13.773c-1.645 3.59-4.75 5.914-8.75 5.914-5.352 0-9.688-4.336-9.688-9.688s4.336-9.688 9.688-9.688c3.805 0 6.75 2.098 8.523 5.406l-7.266 4.25 7.492 3.805zM16.934 14.262l-2.355-1.199c-1.059 1.73-2.75 2.789-4.781 2.789-3.223 0-5.828-2.605-5.828-5.816 0-3.223 2.605-5.828 5.828-5.828 1.891 0 3.473 0.918 4.566 2.477l2.324-1.352c-1.59-2.445-4.090-3.906-7-3.906-4.734 0-8.574 3.84-8.574 8.574s3.84 8.574 8.574 8.574c3.070 0 5.723-1.645 7.246-4.312z"></path>
</svg>
