<svg xmlns="http://www.w3.org/2000/svg" width="23" height="20" viewBox="0 0 23 20">
<path d="M21.504 9.414l-1.957-3.39c0.042-0.084 0.073-0.178 0.073-0.282 0-0.314-0.262-0.576-0.575-0.586l-2.166-3.746c0.021-0.063 0.042-0.126 0.042-0.188 0-0.335-0.272-0.596-0.596-0.596-0.188 0-0.345 0.084-0.46 0.22h-4.164c-0.105-0.136-0.262-0.22-0.45-0.22s-0.345 0.084-0.45 0.22h-4.143c-0.115-0.136-0.272-0.22-0.46-0.22-0.324 0-0.596 0.262-0.596 0.596 0 0.063 0.021 0.136 0.042 0.188l-2.187 3.798c-0.209 0.094-0.356 0.293-0.356 0.534 0 0.021 0.010 0.042 0.010 0.063l-2.082 3.599c-0.282 0.052-0.492 0.293-0.492 0.586 0 0.283 0.199 0.523 0.471 0.586l2.155 3.725c-0.021 0.063-0.031 0.115-0.031 0.188 0 0.283 0.199 0.523 0.471 0.575l2.019 3.505c-0.021 0.063-0.042 0.136-0.042 0.209 0 0.335 0.272 0.596 0.596 0.596 0.188 0 0.345-0.084 0.45-0.209h4.175c0.105 0.126 0.272 0.209 0.45 0.209s0.345-0.084 0.45-0.209h4.185c0.105 0.115 0.262 0.188 0.429 0.188 0.335 0 0.596-0.272 0.596-0.596 0-0.063-0.010-0.115-0.031-0.167l2.019-3.526c0.272-0.052 0.471-0.293 0.471-0.575 0-0.063-0.010-0.126-0.031-0.188l2.145-3.725c0.272-0.052 0.481-0.293 0.481-0.586-0-0.283-0.199-0.523-0.46-0.575zM5.997 17.607l-1.705-2.961h1.705v2.961zM5.997 14.332h-1.705c-0.010-0.042-0.031-0.084-0.052-0.126l1.758-1.852v1.978zM5.997 11.894l-1.967 2.082c-0.052-0.021-0.105-0.052-0.157-0.063l-2.176-3.767c0.021-0.052 0.021-0.105 0.021-0.157s0-0.094-0.010-0.136l2.030-3.516c0.105-0.010 0.209-0.042 0.303-0.105l1.957 2.030v3.631zM5.997 7.897l-1.789-1.852c0.052-0.084 0.084-0.188 0.084-0.303 0-0.010-0.010-0.031-0.010-0.042l1.716-0.617v2.815zM5.997 4.747l-1.705 0.617 1.705-2.951v2.333zM18.752 6.275l0.031 0.052-1.381 6.529-2.49-2.626 3.83-3.966 0.010 0.010zM11.396 13.871l0.45 0.46h-0.889l0.439-0.46zM11.386 13.432l-3.254-3.338 3.108-3.296 3.244 3.421-3.097 3.212zM11.595 13.662l3.097-3.212 2.637 2.783-0.23 1.099h-4.844l-0.659-0.67zM16.032 1.734c0.042 0.021 0.084 0.042 0.136 0.052l2.26 3.934v0.021c0 0.115 0.031 0.22 0.084 0.303l-3.809 3.955-3.244-3.421 4.572-4.844zM15.676 1.65l-4.436 4.698-2.229-2.354 6.498-2.344h0.167zM10.852 1.65c0.105 0.105 0.241 0.167 0.398 0.167s0.293-0.063 0.398-0.167h2.93l-5.797 2.093-1.988-2.093h4.060zM6.311 1.87l0.042-0.084c0.045-0.011 0.080-0.022 0.114-0.034l-0.009 0.003 1.998 2.103-2.145 0.774v-2.762zM6.311 4.967l2.375-0.858 2.333 2.469-3.108 3.285-1.601-1.643v-3.254zM6.311 8.587l1.423 1.475-1.423 1.496v-2.972zM6.311 12.019l1.643-1.737 3.233 3.359-0.67 0.691h-4.206v-2.312zM6.583 18.35c-0.063-0.063-0.136-0.105-0.23-0.136l-0.042-0.063v-3.505h3.903l-3.578 3.704h-0.052zM11.658 18.35c-0.105-0.094-0.251-0.167-0.408-0.167s-0.303 0.073-0.408 0.167h-3.767l3.578-3.704h1.496l3.578 3.704h-4.070zM16.346 17.889l-0.167 0.293c-0.052 0.010-0.094 0.031-0.136 0.052l-3.484-3.589h4.468l-0.68 3.244zM16.848 17.021l0.502-2.375h0.858l-1.36 2.375zM18.208 14.332h-0.795l0.178-0.827 0.67 0.711c-0.021 0.031-0.042 0.073-0.052 0.115zM20.792 10.136l-2.166 3.777c-0.052 0.021-0.105 0.042-0.157 0.073l-0.806-0.858 1.35-6.403 1.789 3.097c-0.010 0.052-0.031 0.105-0.031 0.167 0 0.052 0.010 0.094 0.021 0.146z"></path>
</svg>
