<svg xmlns="http://www.w3.org/2000/svg" width="23" height="20" viewBox="0 0 23 20">
<path d="M7.277 10.086c0 0.477-0.379 0.84-0.859 0.84-0.359 0-0.625-0.203-0.625-0.586 0-0.477 0.371-0.859 0.848-0.859 0.363 0 0.637 0.223 0.637 0.605zM3.145 8.191h-0.184c-0.059 0-0.117 0.039-0.125 0.105l-0.168 1.043 0.32-0.012c0.43 0 0.762-0.059 0.84-0.555 0.090-0.523-0.242-0.582-0.684-0.582zM14.238 8.191h-0.176c-0.070 0-0.117 0.039-0.125 0.105l-0.164 1.043 0.313-0.012c0.508 0 0.859-0.117 0.859-0.703-0.004-0.414-0.375-0.434-0.707-0.434zM22.5 3.125v13.75c0 1.035-0.84 1.875-1.875 1.875h-18.75c-1.035 0-1.875-0.84-1.875-1.875v-13.75c0-1.035 0.84-1.875 1.875-1.875h18.75c1.035 0 1.875 0.84 1.875 1.875zM5.012 8.414c0-0.82-0.633-1.094-1.355-1.094h-1.563c-0.098 0-0.195 0.078-0.203 0.184l-0.641 3.988c-0.012 0.078 0.047 0.156 0.125 0.156h0.742c0.105 0 0.203-0.113 0.215-0.223l0.176-1.039c0.039-0.281 0.516-0.184 0.703-0.184 1.117 0 1.801-0.664 1.801-1.789zM8.301 8.758h-0.742c-0.148 0-0.156 0.215-0.164 0.32-0.227-0.332-0.555-0.391-0.926-0.391-0.957 0-1.688 0.84-1.688 1.766 0 0.762 0.477 1.258 1.238 1.258 0.352 0 0.789-0.191 1.035-0.465-0.020 0.059-0.039 0.184-0.039 0.242 0 0.090 0.039 0.156 0.125 0.156h0.672c0.105 0 0.195-0.113 0.215-0.223l0.398-2.512c0.012-0.074-0.047-0.152-0.125-0.152zM9.883 12.582l2.488-3.617c0.020-0.020 0.020-0.039 0.020-0.066 0-0.066-0.059-0.137-0.125-0.137h-0.75c-0.066 0-0.137 0.039-0.176 0.098l-1.035 1.523-0.43-1.465c-0.031-0.086-0.117-0.156-0.215-0.156h-0.73c-0.066 0-0.125 0.070-0.125 0.137 0 0.047 0.762 2.219 0.828 2.426-0.105 0.148-0.801 1.117-0.801 1.234 0 0.070 0.059 0.125 0.125 0.125h0.75c0.070-0.004 0.137-0.043 0.176-0.102zM16.105 8.414c0-0.82-0.633-1.094-1.355-1.094h-1.551c-0.105 0-0.203 0.078-0.215 0.184l-0.633 3.984c-0.008 0.078 0.051 0.156 0.125 0.156h0.801c0.078 0 0.137-0.059 0.156-0.125l0.176-1.133c0.039-0.281 0.516-0.184 0.703-0.184 1.109 0 1.793-0.664 1.793-1.789zM19.395 8.758h-0.742c-0.148 0-0.156 0.215-0.168 0.32-0.215-0.332-0.547-0.391-0.926-0.391-0.957 0-1.688 0.84-1.688 1.766 0 0.762 0.477 1.258 1.238 1.258 0.363 0 0.801-0.191 1.035-0.465-0.012 0.059-0.039 0.184-0.039 0.242 0 0.090 0.039 0.156 0.125 0.156h0.676c0.105 0 0.195-0.113 0.215-0.223l0.398-2.512c0.012-0.074-0.047-0.152-0.125-0.152zM21.25 7.457c0-0.078-0.059-0.137-0.125-0.137h-0.723c-0.059 0-0.117 0.047-0.125 0.105l-0.633 4.063-0.012 0.020c0 0.070 0.059 0.137 0.137 0.137h0.645c0.098 0 0.195-0.113 0.203-0.223l0.633-3.953v-0.012zM17.734 9.48c-0.477 0-0.848 0.379-0.848 0.859 0 0.379 0.273 0.586 0.633 0.586 0.469 0 0.848-0.359 0.848-0.84 0.004-0.383-0.27-0.605-0.633-0.605z"></path>
</svg>
