<svg xmlns="http://www.w3.org/2000/svg" width="25" height="20" viewBox="0 0 25 20">
<path d="M2.066 8.348h1.563l-0.242 0.922c-0.074 0.254-0.289 0.426-0.559 0.426h-0.727c-0.973 0-0.965 1.461 0 1.461h0.441c0.164 0 0.297 0.152 0.25 0.324l-0.277 1.020h-0.484c-1.309 0-2.305-1.227-1.965-2.547 0.285-1.055 1.105-1.605 2-1.605zM2.855 12.5l1.363-5.082c0.070-0.25 0.281-0.426 0.559-0.426h1.445c0.941 0 1.773 0.641 1.992 1.609 0.258 1.137-0.566 2.551-2.020 2.551h-1.25l0.25-0.93c0.070-0.242 0.285-0.422 0.559-0.422h0.402c0.484 0 0.813-0.457 0.715-0.883-0.082-0.359-0.387-0.578-0.715-0.578h-0.773l-1.008 3.738c-0.074 0.242-0.289 0.418-0.555 0.418l-0.965 0.004zM11.473 9.789c0.012-0.039 0.074-0.207-0.082-0.207h-2.246c-0.379 0-0.648-0.348-0.555-0.723l0.137-0.523h3.043c0.734 0 1.301 0.687 1.113 1.438l-0.547 2.023c-0.109 0.414-0.477 0.695-0.914 0.695l-2.246-0.008c-1.676 0-1.504-2.492 0.027-2.492h1.891l-0.137 0.516c-0.074 0.242-0.289 0.422-0.555 0.422h-0.844c-0.207 0-0.207 0.309 0 0.309h1.363c0.18 0 0.199-0.152 0.215-0.207l0.336-1.242zM15.5 8.348c1.344 0 2.316 1.262 1.965 2.555l-0.344 1.293c-0.047 0.191-0.223 0.305-0.402 0.305h-0.746c-0.176 0-0.297-0.156-0.25-0.324l0.414-1.563c0.129-0.453-0.219-0.914-0.707-0.914h-0.773l-0.672 2.5c-0.047 0.188-0.219 0.305-0.406 0.305h-0.738c-0.164 0-0.297-0.152-0.25-0.324l1.023-3.828h1.887zM19.453 9.828l-0.313 1.172c-0.035 0.129 0.059 0.262 0.199 0.262h2.863l-0.223 0.82c-0.074 0.242-0.289 0.418-0.555 0.418h-2.605c-0.781 0-1.301-0.742-1.105-1.434l0.422-1.563c0.188-0.688 0.809-1.156 1.508-1.156h1.848c0.742 0 1.297 0.691 1.105 1.438l-0.125 0.469c-0.113 0.43-0.496 0.688-0.906 0.688h-2.086l0.137-0.508c0.063-0.242 0.281-0.422 0.555-0.422h0.844c0.078 0 0.129-0.039 0.152-0.117l0.027-0.102c0.027-0.105-0.051-0.199-0.152-0.199h-1.285c-0.16 0-0.27 0.082-0.305 0.234zM22.195 12.5l1.391-5.199c0.047-0.184 0.215-0.309 0.406-0.309h0.738c0.176 0 0.301 0.156 0.254 0.324l-1.035 3.836c-0.199 0.809-0.945 1.348-1.754 1.348z"></path>
</svg>
