<svg xmlns="http://www.w3.org/2000/svg" width="23" height="20" viewBox="0 0 23 20">
<path d="M4.871 7.883c0.004-0.461 0-0.918 0-1.379v-1.379c0-0.051 0.016-0.078 0.055-0.105 0.449-0.313 0.941-0.473 1.492-0.434 0.488 0.035 0.887 0.273 1.098 0.848 0.129 0.348 0.16 0.711 0.16 1.082 0 0.34-0.027 0.676-0.133 1-0.223 0.695-0.73 0.965-1.395 0.934-0.457-0.020-0.855-0.195-1.227-0.457-0.035-0.031-0.055-0.063-0.051-0.109zM10.922 8.453c0.18 0.070 0.363 0.078 0.551 0.059 0.453-0.047 0.855-0.223 1.223-0.488 0.035-0.023 0.051-0.051 0.051-0.098-0.004-0.152 0-0.309 0-0.461 0-0.156-0.004-0.313 0-0.469 0-0.055-0.016-0.078-0.070-0.086-0.273-0.035-0.543-0.086-0.816-0.113-0.273-0.023-0.547-0.012-0.813 0.074-0.262 0.086-0.457 0.242-0.535 0.512-0.063 0.211-0.063 0.422 0.004 0.633 0.063 0.215 0.203 0.359 0.406 0.438zM22.5 3.125v13.75c0 1.035-0.84 1.875-1.875 1.875h-18.75c-1.035 0-1.875-0.84-1.875-1.875v-13.75c0-1.035 0.84-1.875 1.875-1.875h18.75c1.035 0 1.875 0.84 1.875 1.875zM14.395 4.059c0.016 0.066 0.035 0.133 0.063 0.199 0.645 1.586 1.285 3.176 1.934 4.762 0.055 0.137 0.066 0.25 0.008 0.387-0.109 0.242-0.191 0.492-0.305 0.73-0.102 0.215-0.262 0.371-0.496 0.438-0.164 0.043-0.332 0.051-0.504 0.035-0.082-0.008-0.164-0.027-0.246-0.031-0.109-0.008-0.164 0.043-0.168 0.156-0.004 0.109-0.004 0.219 0 0.324 0.004 0.18 0.063 0.262 0.242 0.293 0.184 0.031 0.367 0.063 0.555 0.066 0.559 0.012 1.004-0.211 1.293-0.699 0.113-0.191 0.219-0.395 0.301-0.602 0.773-1.957 1.543-3.918 2.313-5.879 0.023-0.059 0.043-0.117 0.051-0.18 0.016-0.094-0.027-0.141-0.121-0.145-0.219-0.004-0.434 0-0.652 0-0.121 0-0.207 0.055-0.25 0.168-0.016 0.043-0.035 0.090-0.051 0.133l-1.137 3.27c-0.082 0.238-0.164 0.473-0.254 0.727-0.016-0.035-0.023-0.055-0.031-0.074-0.422-1.168-0.844-2.34-1.266-3.508-0.066-0.184-0.137-0.371-0.207-0.555-0.035-0.098-0.105-0.156-0.211-0.156-0.25-0.004-0.5-0.008-0.75-0.004-0.086 0-0.129 0.062-0.109 0.145zM9.469 8.047c0.066 0.457 0.297 0.813 0.703 1.039 0.387 0.215 0.809 0.242 1.238 0.18 0.496-0.074 0.934-0.285 1.32-0.605 0.016-0.012 0.031-0.023 0.055-0.039 0.020 0.125 0.035 0.242 0.059 0.359 0.020 0.102 0.082 0.168 0.176 0.172 0.18 0.004 0.355 0.004 0.535 0 0.090-0.004 0.148-0.063 0.156-0.152 0.004-0.031 0.004-0.063 0.004-0.090v-3.469c0-0.141-0.008-0.281-0.027-0.422-0.063-0.422-0.242-0.77-0.621-0.992-0.219-0.129-0.461-0.195-0.711-0.23-0.117-0.016-0.234-0.027-0.355-0.043h-0.391c-0.031 0.004-0.063 0.012-0.098 0.012-0.32 0.016-0.637 0.055-0.945 0.137-0.199 0.051-0.391 0.125-0.586 0.191-0.117 0.039-0.176 0.125-0.172 0.254 0.004 0.109-0.004 0.219 0 0.324 0.004 0.16 0.070 0.203 0.223 0.16 0.254-0.066 0.512-0.137 0.77-0.188 0.402-0.074 0.809-0.105 1.215-0.047 0.211 0.031 0.41 0.094 0.551 0.273 0.121 0.156 0.164 0.344 0.172 0.535 0.012 0.27 0.008 0.543 0.012 0.813 0 0.016-0.004 0.027-0.008 0.047-0.016 0-0.031 0-0.043-0.004-0.344-0.082-0.691-0.141-1.047-0.16-0.371-0.020-0.738 0.004-1.090 0.125-0.422 0.148-0.762 0.402-0.961 0.813-0.16 0.324-0.18 0.664-0.133 1.008zM3.855 4.176v6.848c0 0.031 0 0.066 0.004 0.098 0.008 0.098 0.066 0.16 0.16 0.164 0.23 0.004 0.461 0.004 0.691 0 0.098 0 0.156-0.066 0.16-0.16 0.004-0.031 0.004-0.066 0.004-0.098v-2.371c0.035 0.027 0.055 0.047 0.074 0.063 0.586 0.488 1.258 0.648 1.996 0.504 0.668-0.133 1.129-0.543 1.434-1.141 0.227-0.453 0.324-0.941 0.34-1.445 0.020-0.559-0.039-1.109-0.266-1.629-0.277-0.641-0.738-1.066-1.434-1.207-0.105-0.023-0.215-0.031-0.32-0.047h-0.273c-0.047 0.008-0.094 0.012-0.141 0.020-0.457 0.055-0.871 0.227-1.242 0.496-0.078 0.055-0.152 0.117-0.23 0.176-0.004-0.020-0.012-0.031-0.016-0.047-0.016-0.090-0.027-0.18-0.043-0.27-0.023-0.152-0.098-0.215-0.25-0.219h-0.379c-0.23-0.004-0.27 0.039-0.27 0.266zM19.281 13.242c-0.105-0.027-0.199 0-0.297 0.039-1.715 0.719-3.496 1.18-5.344 1.398-0.566 0.066-1.137 0.109-1.707 0.125-1.039 0.027-2.078-0.031-3.109-0.168-0.695-0.094-1.387-0.223-2.070-0.387-1.445-0.348-2.84-0.848-4.168-1.516-0.344-0.172-0.68-0.363-1.020-0.547-0.148-0.082-0.242-0.059-0.32 0.082v0.066c0.047 0.063 0.086 0.133 0.145 0.188 1.406 1.258 2.992 2.207 4.766 2.848 0.855 0.309 1.734 0.535 2.629 0.684 0.547 0.090 1.094 0.148 1.648 0.176 0.117 0.004 0.234 0.008 0.352 0.016 0.027 0 0.055 0.008 0.082 0.012h0.691c0.027-0.004 0.055-0.012 0.082-0.012 0.582-0.016 1.164-0.070 1.742-0.156 0.836-0.125 1.656-0.316 2.457-0.574 1.156-0.375 2.254-0.875 3.258-1.566 0.109-0.074 0.223-0.148 0.313-0.242 0.168-0.172 0.090-0.406-0.129-0.465zM21.25 12.16c-0.031-0.164-0.156-0.227-0.297-0.273-0.223-0.074-0.453-0.109-0.688-0.129-0.43-0.035-0.859-0.016-1.281 0.063-0.469 0.086-0.914 0.238-1.309 0.512-0.047 0.031-0.094 0.070-0.121 0.117-0.023 0.035-0.027 0.090-0.020 0.133 0.012 0.051 0.066 0.063 0.117 0.059 0.023 0 0.047 0 0.070-0.004l0.762-0.082c0.375-0.035 0.75-0.059 1.125-0.031 0.16 0.012 0.316 0.047 0.469 0.086 0.168 0.043 0.242 0.172 0.25 0.34 0.012 0.262-0.047 0.512-0.113 0.762-0.137 0.504-0.324 0.992-0.52 1.477-0.012 0.031-0.027 0.066-0.031 0.098-0.016 0.098 0.039 0.156 0.133 0.137 0.055-0.012 0.117-0.043 0.156-0.082 0.145-0.141 0.293-0.281 0.414-0.437 0.418-0.539 0.664-1.156 0.809-1.82 0.027-0.117 0.047-0.238 0.066-0.355 0.008-0.184 0.008-0.375 0.008-0.566z"></path>
</svg>
