<svg xmlns="http://www.w3.org/2000/svg" width="20" height="20" viewBox="0 0 20 20">
<path d="M19.621 6.238l-9.141-6.094c-0.312-0.192-0.645-0.194-0.96 0l-9.141 6.094c-0.234 0.156-0.379 0.435-0.379 0.714v6.094c0 0.279 0.145 0.558 0.379 0.714l9.141 6.095c0.312 0.192 0.645 0.194 0.96 0l9.141-6.095c0.234-0.156 0.379-0.435 0.379-0.714v-6.094c-0-0.279-0.145-0.558-0.38-0.714zM10.859 2.466l6.73 4.487-3.002 2.009-3.728-2.489v-4.007zM9.141 2.466v4.007l-3.728 2.489-3.002-2.009 6.73-4.487zM1.719 8.56l2.154 1.44-2.154 1.44v-2.879zM9.141 17.533l-6.73-4.487 3.002-2.009 3.728 2.489v4.007zM10 12.031l-3.036-2.031 3.036-2.031 3.036 2.031-3.036 2.031zM10.859 17.533v-4.007l3.728-2.489 3.002 2.009-6.73 4.487zM18.281 11.439l-2.154-1.44 2.154-1.44v2.879z"></path>
</svg>
