<svg xmlns="http://www.w3.org/2000/svg" width="23" height="20" viewBox="0 0 23 20">
<path d="M18.863 16.027c0 0.266-0.18 0.457-0.438 0.457-0.266 0-0.438-0.203-0.438-0.457s0.172-0.457 0.438-0.457c0.258 0 0.438 0.203 0.438 0.457zM6.723 15.57c-0.277 0-0.438 0.203-0.438 0.457s0.16 0.457 0.438 0.457c0.254 0 0.426-0.191 0.426-0.457-0.004-0.254-0.172-0.457-0.426-0.457zM11.313 15.559c-0.211 0-0.34 0.137-0.371 0.34h0.746c-0.035-0.223-0.172-0.34-0.375-0.34zM15.523 15.57c-0.266 0-0.426 0.203-0.426 0.457s0.16 0.457 0.426 0.457c0.266 0 0.437-0.191 0.437-0.457 0-0.254-0.172-0.457-0.437-0.457zM19.66 16.59c0 0.012 0.012 0.020 0.012 0.043 0 0.012-0.012 0.020-0.012 0.043-0.012 0.012-0.012 0.020-0.020 0.031-0.012 0.012-0.020 0.020-0.043 0.020-0.012 0.012-0.020 0.012-0.043 0.012-0.012 0-0.020 0-0.043-0.012-0.012 0-0.020-0.012-0.031-0.020-0.012-0.012-0.020-0.020-0.020-0.031-0.012-0.020-0.012-0.031-0.012-0.043 0-0.020 0-0.031 0.012-0.043 0-0.020 0.012-0.031 0.020-0.043 0.012-0.012 0.020-0.012 0.031-0.020 0.020-0.012 0.031-0.012 0.043-0.012 0.020 0 0.031 0 0.043 0.012 0.020 0.012 0.031 0.012 0.043 0.020s0.008 0.023 0.020 0.043zM19.574 16.645c0.020 0 0.020-0.012 0.031-0.012 0.012-0.012 0.012-0.020 0.012-0.031s0-0.020-0.012-0.031c-0.012 0-0.020-0.012-0.043-0.012h-0.063v0.137h0.031v-0.055h0.012l0.043 0.055h0.031l-0.043-0.051zM22.5 3.164v13.75c0 1.035-0.84 1.875-1.875 1.875h-18.75c-1.035 0-1.875-0.84-1.875-1.875v-13.75c0-1.035 0.84-1.875 1.875-1.875h18.75c1.035 0 1.875 0.84 1.875 1.875zM2.5 8.617c0 2.988 2.426 5.41 5.41 5.41 1.063 0 2.105-0.32 2.988-0.902-2.848-2.316-2.828-6.688 0-9.004-0.883-0.586-1.926-0.902-2.988-0.902-2.984-0.004-5.41 2.422-5.41 5.398zM11.25 12.867c2.754-2.148 2.742-6.336 0-8.496-2.742 2.16-2.754 6.352 0 8.496zM5.691 15.848c0-0.34-0.223-0.563-0.574-0.574-0.18 0-0.371 0.055-0.5 0.254-0.094-0.16-0.254-0.254-0.477-0.254-0.148 0-0.297 0.055-0.414 0.211v-0.172h-0.32v1.434h0.32c0-0.738-0.098-1.18 0.352-1.18 0.398 0 0.32 0.398 0.32 1.18h0.309c0-0.715-0.098-1.18 0.352-1.18 0.398 0 0.32 0.391 0.32 1.18h0.32v-0.898zM7.445 15.313h-0.309v0.172c-0.105-0.129-0.254-0.211-0.457-0.211-0.402 0-0.711 0.32-0.711 0.754 0 0.438 0.309 0.754 0.711 0.754 0.203 0 0.352-0.074 0.457-0.211v0.18h0.309v-1.438zM9.027 16.313c0-0.586-0.895-0.32-0.895-0.594 0-0.223 0.465-0.188 0.723-0.043l0.129-0.254c-0.367-0.238-1.18-0.234-1.18 0.32 0 0.559 0.895 0.324 0.895 0.586 0 0.246-0.527 0.227-0.809 0.031l-0.137 0.246c0.437 0.297 1.273 0.234 1.273-0.293zM10.41 16.676l-0.086-0.266c-0.148 0.082-0.477 0.172-0.477-0.16v-0.648h0.512v-0.289h-0.512v-0.438h-0.32v0.438h-0.297v0.285h0.297v0.652c0 0.688 0.676 0.563 0.883 0.426zM10.93 16.152h1.074c0-0.633-0.289-0.883-0.68-0.883-0.414 0-0.711 0.309-0.711 0.754 0 0.801 0.883 0.934 1.32 0.555l-0.148-0.234c-0.305 0.25-0.766 0.227-0.855-0.191zM13.238 15.313c-0.18-0.078-0.453-0.070-0.594 0.172v-0.172h-0.32v1.434h0.32v-0.809c0-0.453 0.371-0.395 0.5-0.328l0.094-0.297zM13.652 16.027c0-0.445 0.453-0.59 0.809-0.328l0.148-0.254c-0.453-0.355-1.277-0.16-1.277 0.586 0 0.773 0.875 0.93 1.277 0.586l-0.148-0.254c-0.359 0.254-0.809 0.102-0.809-0.336zM16.258 15.313h-0.32v0.172c-0.324-0.43-1.168-0.188-1.168 0.543 0 0.75 0.875 0.965 1.168 0.543v0.18h0.32v-1.438zM17.574 15.313c-0.094-0.047-0.43-0.113-0.594 0.172v-0.172h-0.309v1.434h0.309v-0.809c0-0.43 0.352-0.402 0.5-0.328l0.094-0.297zM19.148 14.73h-0.309v0.754c-0.32-0.426-1.168-0.199-1.168 0.543 0 0.758 0.879 0.961 1.168 0.543v0.18h0.309v-2.020zM19.445 11.797v0.18h0.031v-0.18h0.074v-0.031h-0.18v0.031h0.074zM19.703 16.633c0-0.020 0-0.043-0.012-0.063-0.012-0.012-0.020-0.031-0.031-0.043s-0.031-0.020-0.043-0.031c-0.020 0-0.043-0.012-0.063-0.012-0.012 0-0.031 0.012-0.055 0.012-0.020 0.012-0.031 0.020-0.043 0.031-0.020 0.012-0.031 0.031-0.031 0.043-0.012 0.020-0.012 0.043-0.012 0.063 0 0.012 0 0.031 0.012 0.055 0 0.012 0.012 0.031 0.031 0.043 0.012 0.012 0.020 0.020 0.043 0.031 0.020 0.012 0.043 0.012 0.055 0.012 0.020 0 0.043 0 0.063-0.012 0.012-0.012 0.031-0.020 0.043-0.031s0.020-0.031 0.031-0.043c0.012-0.023 0.012-0.043 0.012-0.055zM19.828 11.762h-0.055l-0.063 0.137-0.063-0.137h-0.055v0.211h0.031v-0.16l0.063 0.137h0.043l0.055-0.137v0.16h0.043v-0.211zM20 8.617c0-2.977-2.426-5.402-5.41-5.402-1.063 0-2.105 0.32-2.988 0.902 2.816 2.316 2.859 6.699 0 9.004 0.883 0.586 1.934 0.902 2.988 0.902 2.984 0.004 5.41-2.418 5.41-5.406z"></path>
</svg>
