<svg xmlns="http://www.w3.org/2000/svg" width="18" height="20" viewBox="0 0 18 20">
<path d="M12.426 6.016l-0.367 0.297c-0.879-0.754-2.012-1.313-3.254-1.313-2.797 0-5.055 2.375-5.055 5.168 0 0.258 0.016 0.512 0.055 0.758-0.078-2.188 1.633-3.805 3.617-3.805 0.945 0 1.805 0.367 2.445 0.965l-0.984 0.797c-0.324-0.035-0.656 0.070-0.902 0.316-0.434 0.43-0.434 1.129 0 1.563 0.434 0.43 1.129 0.43 1.563 0 0.246-0.246 0.352-0.582 0.316-0.902l2.937-3.469c0.246-0.254-0.129-0.621-0.371-0.375zM9.152 10.371c-0.219 0.215-0.57 0.215-0.789 0-0.219-0.219-0.219-0.57 0-0.789s0.57-0.219 0.789 0 0.219 0.574 0 0.789zM8.75 1.25c-4.824 0-8.75 3.926-8.75 8.75s3.926 8.75 8.75 8.75 8.75-3.926 8.75-8.75-3.926-8.75-8.75-8.75zM8.75 16.25c-3.445 0-6.25-2.805-6.25-6.25s2.805-6.25 6.25-6.25 6.25 2.805 6.25 6.25-2.805 6.25-6.25 6.25z"></path>
</svg>
