<svg xmlns="http://www.w3.org/2000/svg" width="23" height="20" viewBox="0 0 23 20">
<path d="M22.5 9.977c-1.48-0.008-1.727-0.035-2.129 0.195v-0.195c-1.77 0-2.090-0.066-2.535 0.203v-0.203h-3.055v0.199c-0.445-0.254-0.836-0.199-2.957-0.199v0.219c-0.246-0.145-0.566-0.219-0.949-0.219h-2.266c-0.137 0.148-0.488 0.535-0.613 0.672-0.496-0.551-0.41-0.453-0.605-0.672h-3.246v3.605h3.203c0.129-0.137 0.504-0.543 0.629-0.68 0.496 0.559 0.402 0.457 0.602 0.68h1.91c0-0.574 0.004-0.324 0.004-0.898 0.449 0.008 0.949-0.008 1.34-0.242 0 0.543-0.004 0.668-0.004 1.141h1.547c0-0.723 0.004-0.289 0.004-0.988 0.242 0 0.301 0 0.367 0.004 0.004 0.051 0 0 0 0.984 5.969 0 5.699 0.043 6.121-0.176v0.176c1.359 0 2.141 0.086 2.637-0.238v3.531c0 1.035-0.84 1.875-1.875 1.875h-18.754c-1.035 0-1.875-0.84-1.875-1.875v-7.957h1.039c0.164-0.395 0.086-0.207 0.25-0.598h0.75c0.164 0.391 0.086 0.203 0.25 0.598h2.066v-0.445c0.086 0.195 0.043 0.098 0.199 0.445h1.152c0.094-0.215 0.102-0.227 0.199-0.445v0.445h5.293v-0.98c0.25 0 0.313-0.004 0.383 0.008 0 0-0.008 0.426 0.004 0.969h2.598v-0.348c0.289 0.23 0.68 0.348 1.16 0.348h1.047c0.164-0.395 0.086-0.207 0.25-0.598h0.742c0.254 0.586 0.008 0.020 0.258 0.598h2.063v-0.855c0.461 0.77 0.305 0.504 0.516 0.855h1.625v-3.594h-1.559v0.719c-0.477-0.789-0.246-0.406-0.438-0.719h-1.691v0.805c-0.242-0.57-0.18-0.422-0.344-0.805h-1.266c-0.016 0-0.090 0.008-0.090-0.012h-1.078c-0.5 0-0.902 0.125-1.199 0.363v-0.363h-1.559v0.207c-0.422-0.238-0.809-0.199-2.516-0.207-0.004 0-0.453-0.004-0.453 0h-4.023c-0.098 0.238-0.266 0.641-0.492 1.172-0.109-0.234-0.43-0.93-0.543-1.172h-1.797v0.824c-0.289-0.68-0.184-0.43-0.352-0.824h-1.551c-0.133 0.309-0.535 1.25-0.902 2.105v-4.289c0-1.035 0.84-1.875 1.875-1.875h18.75c1.035 0 1.875 0.84 1.875 1.875v6.852zM15.211 6.828c-0.012 0.008-0.055 0.086-0.055 0.297 0 0.234 0.035 0.301 0.043 0.309 0.008 0.004 0.043 0.020 0.133 0.020l0.285-0.66c-0.043 0-0.082-0.004-0.121-0.004-0.219 0-0.273 0.027-0.285 0.039zM14.434 11.941c0.359 0.129 0.43 0.371 0.43 0.719l-0.004 0.539h-0.648l0.004-0.449c0-0.461-0.148-0.539-0.578-0.539h-0.688l-0.004 0.988h-0.648l0.004-2.707h1.539c0.508 0 1.059 0.090 1.059 0.73-0.004 0.297-0.164 0.598-0.465 0.719zM14.188 11.34c0-0.25-0.219-0.289-0.418-0.289h-0.82v0.609h0.809c0.219 0 0.43-0.051 0.43-0.32zM21.285 11.063h1.176v-0.57h-1.285c-0.5 0-0.93 0.258-0.93 0.809 0 1.289 1.668 0.5 1.668 1.070 0 0.199-0.168 0.25-0.328 0.25h-1.25l-0.004 0.578h1.25c0.328 0 0.688-0.070 0.879-0.348v-1.008c-0.41-0.539-1.535-0.051-1.535-0.527 0-0.227 0.18-0.254 0.359-0.254zM17.41 11.051v-0.559h-2.156l-0.004 2.707h2.156l0.004-0.559-1.508-0.012v-0.539h1.48v-0.551h-1.477v-0.488h1.504zM19.059 12.617h-1.258l-0.004 0.578h1.258c0.578 0 1.023-0.219 1.023-0.859 0-1.297-1.676-0.438-1.676-1.027 0-0.219 0.191-0.25 0.359-0.25h1.188v-0.57h-1.297c-0.5 0-0.918 0.258-0.918 0.809 0 1.289 1.668 0.488 1.668 1.070-0.004 0.211-0.184 0.25-0.344 0.25zM16.008 6.418c-0.68-0.012-1.297-0.16-1.297 0.77 0 0.461 0.109 0.777 0.629 0.777h0.289l0.918-2.129h0.969l1.090 2.555v-2.555h0.988l1.137 1.879v-1.879h0.66v2.695h-0.922l-1.219-2.027v2.027h-1.316l-0.258-0.598h-1.34l-0.25 0.598h-0.75c-0.891 0-1.289-0.461-1.289-1.328 0-0.91 0.41-1.379 1.328-1.379h0.629v0.594zM16.566 7.375h0.891l-0.438-1.078-0.453 1.078zM13.73 5.828h-0.66v2.707h0.66v-2.707zM12.242 7.285c0.371 0.129 0.43 0.359 0.43 0.719v0.527h-0.648c-0.012-0.578 0.141-0.98-0.578-0.98h-0.703v0.98h-0.641v-2.707l1.527 0.012c0.52 0 1.070 0.078 1.070 0.719 0.004 0.313-0.168 0.613-0.457 0.73zM11.98 6.688c0-0.25-0.219-0.289-0.418-0.289h-0.82v0.598h0.809c0.223 0 0.43-0.051 0.43-0.309zM9.656 6.398v-0.57h-2.168v2.707h2.168v-0.559h-1.52v-0.539h1.477v-0.551h-1.477v-0.488h1.52zM6.352 8.535v-2.117l-0.938 2.117h-0.57l-0.938-2.117v2.117h-1.32l-0.25-0.598h-1.348l-0.25 0.598h-0.699l1.16-2.707h0.957l1.098 2.566v-2.566h1.059l0.848 1.836 0.77-1.836h1.078v2.707h-0.656zM2.105 7.375l-0.449-1.078-0.438 1.078h0.887zM11.988 11.379c0 1.090-1.188 0.91-1.926 0.91l-0.004 0.91h-1.258l-0.797-0.898-0.832 0.898h-2.555l0.004-2.707h2.598l0.801 0.891 0.82-0.891h2.059c0.609 0 1.090 0.211 1.090 0.887zM7.586 11.84l-0.699-0.789h-1.629v0.488h1.418v0.551h-1.418v0.539h1.586l0.742-0.789zM9.414 10.781l-0.988 1.070 0.988 1.098v-2.168zM11.301 11.379c0-0.238-0.18-0.328-0.398-0.328h-0.84v0.688h0.828c0.23 0 0.41-0.109 0.41-0.359z"></path>
</svg>
