<svg xmlns="http://www.w3.org/2000/svg" width="20" height="20" viewBox="0 0 20 20">
<path d="M1.773 11.914c0.563 2.621 1.031 5.039 2.664 6.836h-3.109c-0.73 0-1.328-0.594-1.328-1.328v-14.844c0-0.73 0.594-1.328 1.328-1.328h2.254c-0.539 0.492-1.020 1.063-1.441 1.703-1.773 2.734-1.055 5.734-0.367 8.961zM18.672 1.25h-3.523c0.836 0.836 1.531 1.934 2.059 3.285l-5.355 1.145c-0.582-1.133-1.477-2.082-3.227-1.715-0.961 0.207-1.602 0.754-1.887 1.352-0.344 0.73-0.516 1.555 0.32 5.48 0.824 3.914 1.316 4.598 1.934 5.125 0.504 0.434 1.305 0.664 2.277 0.457 1.738-0.367 2.176-1.59 2.242-2.859l5.367-1.156c0.125 2.793-0.73 4.891-2.242 6.391h2.035c0.73 0 1.328-0.594 1.328-1.328v-14.848c0-0.734-0.594-1.328-1.328-1.328z"></path>
</svg>
