<svg xmlns="http://www.w3.org/2000/svg" width="19" height="20" viewBox="0 0 19 20">
<path d="M5.137 8.496l-2.984-4.586c1.859-2.313 4.648-3.586 7.5-3.598 1.652-0.012 3.34 0.41 4.875 1.297 1.695 0.984 2.984 2.398 3.805 4.023l-8.020-0.422c-2.27-0.133-4.43 1.145-5.176 3.285zM6.422 10c0 1.805 1.461 3.266 3.266 3.266s3.266-1.461 3.266-3.266-1.461-3.266-3.266-3.266-3.266 1.457-3.266 3.266zM18.723 6.516l-5.457 0.281c1.48 1.73 1.504 4.227 0.258 6.141l-4.379 6.734c1.816 0.098 3.688-0.301 5.383-1.285 4.195-2.422 5.895-7.5 4.195-11.871zM5.223 11.859l-3.645-7.168c-0.996 1.523-1.578 3.352-1.578 5.309 0 4.844 3.547 8.855 8.184 9.566l2.488-4.875c-2.25 0.422-4.422-0.813-5.449-2.832z"></path>
</svg>
