<svg xmlns="http://www.w3.org/2000/svg" width="23" height="20" viewBox="0 0 23 20">
<path d="M3.242 8.285c0 0.309-0.125 0.605-0.348 0.809-0.191 0.172-0.453 0.25-0.855 0.25h-0.164v-2.117h0.164c0.402 0 0.652 0.066 0.855 0.258 0.223 0.195 0.348 0.492 0.348 0.801zM19.719 7.188h-0.191v0.973h0.184c0.402 0 0.617-0.172 0.617-0.5 0-0.309-0.215-0.473-0.609-0.473zM22.5 3.125v13.75c0 1.035-0.84 1.875-1.875 1.875h-18.75c-1.035 0-1.875-0.84-1.875-1.875v-13.75c0-1.035 0.84-1.875 1.875-1.875h18.75c1.035 0 1.875 0.84 1.875 1.875zM16.719 9.883h1.77v-0.539h-1.145v-0.867h1.105v-0.539h-1.105v-0.711h1.145v-0.547h-1.77v3.203zM13.352 6.68l1.367 3.289h0.336l1.387-3.289h-0.684l-0.867 2.156-0.855-2.156h-0.684zM10.109 8.305c0 0.961 0.777 1.742 1.742 1.742 0.961 0 1.742-0.777 1.742-1.742 0-0.961-0.777-1.742-1.742-1.742-0.961 0-1.742 0.777-1.742 1.742zM7.453 8.285c0 1.27 1.313 2.051 2.473 1.492v-0.742c-0.754 0.754-1.828 0.227-1.828-0.75 0-0.926 1.043-1.527 1.828-0.742v-0.742c-1.18-0.586-2.473 0.266-2.473 1.484zM6.129 9.391c-0.297 0-0.539-0.145-0.684-0.422l-0.402 0.387c0.695 1.020 2.211 0.711 2.211-0.441 0-0.512-0.211-0.742-0.922-1-0.375-0.133-0.48-0.23-0.48-0.402 0-0.34 0.566-0.551 0.973-0.098l0.328-0.422c-0.746-0.668-1.941-0.348-1.941 0.559 0 0.441 0.203 0.672 0.789 0.887 1.004 0.355 0.574 0.953 0.129 0.953zM3.887 8.285c0-0.941-0.703-1.605-1.723-1.605h-0.914v3.203h0.914c1.207 0 1.723-0.875 1.723-1.598zM4.801 6.68h-0.625v3.203h0.625v-3.203zM21.25 11.25c-1.301 0.813-8.844 4.859-16.25 6.25h15.664c0.32 0 0.586-0.266 0.586-0.586v-5.664zM21.25 9.883l-1.012-1.348c0.473-0.098 0.73-0.414 0.73-0.906 0-1.113-1.184-0.953-2.066-0.953v3.203h0.625v-1.281h0.086l0.867 1.281h0.77z"></path>
</svg>
