<svg xmlns="http://www.w3.org/2000/svg" width="20" height="20" viewBox="0 0 20 20">
<path d="M12.859 10.492c-0.148 1.375-1.383 2.367-2.758 2.219s-2.367-1.383-2.219-2.758c0.148-1.375 1.383-2.367 2.758-2.219 1.371 0.148 2.367 1.383 2.219 2.758zM9.508 19.676c-5.73-0.301-9.828-5.398-9.113-10.914 0.438-3.383 2.57-6.129 5.434-7.5 6.289-3.012 13.66 1.461 13.855 8.461 0.16 5.742-4.625 10.242-10.176 9.953zM16.535 12.645c1.090-4.609-6.27-8.043-9.266-9.148-2.246 2.199-2.699 7.367-1.32 13.453 2.688 0.617 6.605-1.031 10.586-4.305z"></path>
</svg>
