<svg xmlns="http://www.w3.org/2000/svg" width="23" height="20" viewBox="0 0 23 20">
<path d="M18.363 9.035s0.297 1.453 0.363 1.758h-1.305c0.129-0.348 0.625-1.699 0.625-1.699-0.008 0.012 0.129-0.355 0.207-0.582l0.109 0.523zM22.5 3.125v13.75c0 1.035-0.84 1.875-1.875 1.875h-18.75c-1.035 0-1.875-0.84-1.875-1.875v-13.75c0-1.035 0.84-1.875 1.875-1.875h18.75c1.035 0 1.875 0.84 1.875 1.875zM5.957 12.938l2.469-6.063h-1.66l-1.535 4.141-0.168-0.84-0.547-2.789c-0.090-0.387-0.367-0.496-0.711-0.512h-2.527l-0.027 0.121c0.617 0.156 1.168 0.383 1.648 0.668l1.398 5.273h1.66zM9.645 12.945l0.984-6.070h-1.57l-0.98 6.070h1.566zM15.109 10.961c0.008-0.691-0.414-1.219-1.316-1.652-0.551-0.277-0.887-0.465-0.887-0.75 0.008-0.258 0.285-0.523 0.902-0.523 0.512-0.012 0.887 0.109 1.168 0.23l0.141 0.066 0.215-1.312c-0.309-0.121-0.801-0.258-1.406-0.258-1.551 0-2.641 0.828-2.648 2.008-0.012 0.871 0.781 1.355 1.375 1.648 0.605 0.297 0.813 0.492 0.813 0.754-0.008 0.406-0.492 0.594-0.941 0.594-0.625 0-0.961-0.098-1.473-0.324l-0.207-0.098-0.219 1.363c0.367 0.168 1.047 0.316 1.75 0.324 1.648 0.004 2.723-0.813 2.734-2.070zM20.625 12.945l-1.266-6.070h-1.215c-0.375 0-0.66 0.109-0.82 0.504l-2.332 5.566h1.648s0.27-0.75 0.328-0.91h2.016c0.047 0.215 0.188 0.91 0.188 0.91h1.453z"></path>
</svg>
