<svg xmlns="http://www.w3.org/2000/svg" width="23" height="20" viewBox="0 0 23 20">
<path d="M15.504 10.020c0 0.746-0.344 1.305-0.855 1.305-0.324 0-0.52-0.117-0.656-0.262l-0.008-2.063c0.145-0.16 0.344-0.273 0.664-0.273 0.504-0.004 0.855 0.566 0.855 1.293zM22.5 3.125v13.75c0 1.035-0.84 1.875-1.875 1.875h-18.75c-1.035 0-1.875-0.84-1.875-1.875v-13.75c0-1.035 0.84-1.875 1.875-1.875h18.75c1.035 0 1.875 0.84 1.875 1.875zM4.773 10.98c0-1.652-2.121-1.355-2.121-1.98 0-0.215 0.18-0.301 0.473-0.301 0.422 0 0.957 0.129 1.379 0.355v-1.305c-0.461-0.184-0.918-0.254-1.379-0.254-1.125 0-1.875 0.586-1.875 1.57 0 1.535 2.109 1.285 2.109 1.949 0 0.258-0.223 0.34-0.531 0.34-0.461 0-1.051-0.191-1.52-0.441v1.324c0.516 0.223 1.039 0.316 1.516 0.316 1.156-0.008 1.949-0.574 1.949-1.574zM7.465 7.586h-1.055v-1.203l-1.355 0.289-0.008 4.449c0 0.82 0.617 1.426 1.441 1.426 0.453 0 0.789-0.082 0.973-0.184v-1.129c-0.176 0.070-1.055 0.324-1.055-0.492v-1.973h1.055v-1.184zM10.348 7.586c-0.184-0.066-0.832-0.188-1.156 0.41l-0.086-0.41h-1.199v4.863h1.387v-3.297c0.328-0.43 0.883-0.348 1.059-0.289v-1.277zM12.074 7.586h-1.395v4.863h1.395v-4.863zM12.074 5.738l-1.395 0.297v1.129l1.395-0.297v-1.129zM16.867 9.988c0-1.613-0.918-2.492-1.891-2.492-0.543 0-0.895 0.258-1.086 0.434l-0.070-0.344h-1.223v6.477l1.387-0.293 0.004-1.57c0.199 0.145 0.496 0.352 0.98 0.352 0.992-0.004 1.898-0.801 1.898-2.563zM21.25 10.035c0-1.422-0.688-2.543-2.004-2.543-1.32 0-2.121 1.121-2.121 2.535 0 1.672 0.945 2.52 2.297 2.52 0.664 0 1.16-0.152 1.539-0.359v-1.117c-0.379 0.191-0.812 0.309-1.363 0.309-0.539 0-1.016-0.191-1.078-0.84h2.715c0.004-0.078 0.016-0.367 0.016-0.504zM19.234 8.625c-0.348 0-0.73 0.262-0.73 0.887h1.434c0-0.625-0.363-0.887-0.703-0.887z"></path>
</svg>
