<svg xmlns="http://www.w3.org/2000/svg" width="20" height="20" viewBox="0 0 20 20">
<path d="M10 0.313c-5.342 0-9.688 4.346-9.688 9.688s4.346 9.688 9.688 9.688 9.688-4.346 9.688-9.688-4.346-9.688-9.688-9.688zM16.405 4.78c1.152 1.408 1.85 3.201 1.869 5.154-0.273-0.058-3.009-0.613-5.762-0.266-0.225-0.548-0.437-1.031-0.727-1.626 3.059-1.249 4.446-3.027 4.62-3.263zM15.485 3.823c-0.149 0.212-1.394 1.886-4.337 2.989-1.356-2.491-2.859-4.538-3.088-4.844 2.624-0.633 5.389 0.050 7.424 1.855zM6.482 2.524c0.218 0.299 1.697 2.348 3.068 4.786-3.871 1.028-7.28 1.013-7.65 1.008 0.537-2.568 2.267-4.702 4.582-5.794zM1.725 10.013c0-0.085 0.002-0.169 0.004-0.253 0.362 0.007 4.372 0.059 8.504-1.178 0.237 0.464 0.463 0.934 0.671 1.404-2.992 0.843-5.711 3.263-7.052 5.559-1.322-1.467-2.127-3.407-2.127-5.533zM4.921 16.54c0.864-1.767 3.21-4.048 6.546-5.186 1.162 3.019 1.642 5.549 1.765 6.275-2.661 1.133-5.86 0.822-8.311-1.089zM14.623 16.872c-0.085-0.503-0.525-2.926-1.607-5.9 2.593-0.415 4.871 0.264 5.154 0.354-0.369 2.302-1.69 4.291-3.547 5.546z"></path>
</svg>
