<svg xmlns="http://www.w3.org/2000/svg" width="18" height="20" viewBox="0 0 18 20">
<path d="M17.441 2.656c-0.016-0.059-0.035-0.117-0.055-0.176-0.035-0.098-0.078-0.188-0.129-0.277-0.055-0.094-0.117-0.188-0.184-0.27-0.082-0.098-0.172-0.188-0.27-0.266-0.043-0.035-0.086-0.066-0.129-0.098-0.051-0.035-0.102-0.066-0.156-0.094-0.070-0.039-0.141-0.070-0.215-0.098-0.066-0.027-0.137-0.051-0.211-0.066-0.148-0.039-0.309-0.059-0.469-0.059h-13.75c-1.035-0.004-1.875 0.836-1.875 1.871v13.75c0 0.16 0.020 0.32 0.059 0.469 0.078 0.301 0.227 0.57 0.43 0.793 0.039 0.043 0.082 0.086 0.129 0.129 0.223 0.203 0.492 0.352 0.793 0.43 0.148 0.039 0.309 0.059 0.469 0.059h13.75c1.035 0 1.875-0.84 1.875-1.875v-13.754c-0.004-0.16-0.023-0.32-0.063-0.469zM16.25 16.875c0 0.344-0.281 0.625-0.625 0.625h-6.875v-7.5h-7.5v-6.875c0-0.344 0.281-0.625 0.625-0.625h6.875v7.5h7.5v6.875z"></path>
</svg>
