<svg xmlns="http://www.w3.org/2000/svg" width="19" height="20" viewBox="0 0 19 20">
<path d="M8.043 20l1.215-1.5c0.48-0.008 1-0.055 1.426-0.258 1.52-0.727 1.5-2.418 1.496-2.492-0.004-0.195-0.031-0.172-1.129-1.461h3.090c-0.008 1.957-0.285 2.676-0.398 2.957-0.367 0.926-1.715 2.453-3.719 2.711-0.34 0.043-1.281 0.047-1.98 0.043zM15.871 13.449c1.508 0 2.285-0.531 2.879-1.207l-6.855-0.012-0.68 1.223 4.656-0.004zM14.168 4.703v6.574h-2.871l-1.277 2.168h-0.254c-2.043 0-2.27-2.207-2.277-2.301-0.047-0.516-0.832-0.453-0.785 0.070 0.055 0.617 0.344 1.563 1.031 2.23h-3.555c-0.996 0-4.328-1.047-4.18-4.453v-8.332c0-0.625 0.379-0.648 0.586-0.656h3.203c0.008 0 0.012 0.004 0.020 0.004 0.168-0.016 1.957-0.082 1.957 1.707 0 0.52 0.789 0.523 0.789 0 0-0.711-0.215-1.281-0.617-1.707h3.289c4.246-0.016 4.941 3.102 4.941 4.695zM8.992 6.891l2.5 1.145c0.52-1.777-1.648-2.801-2.5-1.145z"></path>
</svg>
