<svg xmlns="http://www.w3.org/2000/svg" width="25" height="20" viewBox="0 0 25 20">
<path d="M13.668 9.23h-2.582v-2.32h2.582v2.32zM13.668 1.25h-2.582v2.371h2.582v-2.371zM16.723 6.906h-2.582v2.32h2.582v-2.32zM10.617 4.090h-2.582v2.348h2.582v-2.348zM13.668 4.090h-2.582v2.348h2.582v-2.348zM24.48 7.996c-0.562-0.379-1.859-0.516-2.855-0.328-0.129-0.938-0.652-1.754-1.605-2.488l-0.547-0.363-0.363 0.547c-0.719 1.086-0.914 2.875-0.145 4.055-0.34 0.184-1.008 0.434-1.891 0.418h-16.98c-0.34 1.984 0.227 4.563 1.719 6.332 1.449 1.715 3.621 2.586 6.461 2.586 6.148 0 10.699-2.832 12.828-7.977 0.836 0.016 2.641 0.004 3.566-1.766 0.059-0.098 0.258-0.516 0.332-0.668l-0.52-0.348zM4.516 6.906h-2.578v2.32h2.582v-2.32zM7.566 6.906h-2.582v2.32h2.582v-2.32zM10.617 6.906h-2.582v2.32h2.582v-2.32zM7.566 4.090h-2.582v2.348h2.582v-2.348z"></path>
</svg>
