<svg xmlns="http://www.w3.org/2000/svg" width="18" height="20" viewBox="0 0 18 20">
<path d="M11.61 9.5c0 0.61-0.45 1.11-1.020 1.11-0.56 0-1.020-0.5-1.020-1.11s0.45-1.11 1.020-1.11c0.57 0 1.020 0.5 1.020 1.11zM6.94 8.39c-0.57 0-1.020 0.5-1.020 1.11s0.46 1.11 1.020 1.11c0.57 0 1.020-0.5 1.020-1.11 0.010-0.61-0.45-1.11-1.020-1.11zM17.5 2.060v17.94c-2.519-2.226-1.714-1.489-4.64-4.21l0.53 1.85h-11.34c-1.13 0-2.050-0.92-2.050-2.060v-13.52c0-1.14 0.92-2.060 2.050-2.060h13.4c1.13 0 2.050 0.92 2.050 2.060zM14.65 11.54c0-3.22-1.44-5.83-1.44-5.83-1.44-1.080-2.81-1.050-2.81-1.050l-0.14 0.16c1.7 0.52 2.49 1.27 2.49 1.27-2.375-1.302-5.166-1.302-7.47-0.29-0.37 0.17-0.59 0.29-0.59 0.29s0.83-0.79 2.63-1.31l-0.1-0.12s-1.37-0.030-2.81 1.050c0 0-1.44 2.61-1.44 5.83 0 0 0.84 1.45 3.050 1.52 0 0 0.37-0.45 0.67-0.83-1.27-0.38-1.75-1.18-1.75-1.18 0.147 0.103 0.39 0.236 0.41 0.25 1.688 0.945 4.085 1.255 6.24 0.35 0.35-0.13 0.74-0.32 1.15-0.59 0 0-0.5 0.82-1.81 1.19 0.3 0.38 0.66 0.81 0.66 0.81 2.21-0.070 3.060-1.52 3.060-1.52z"></path>
</svg>
