<svg xmlns="http://www.w3.org/2000/svg" width="18" height="20" viewBox="0 0 18 20">
<path d="M3.523 8.914c0.348-1.656 1.461-3.035 2.957-3.738 0.141 0.191 1.094 1.516 1.98 3.086-2.5 0.664-4.699 0.656-4.937 0.652zM12.289 6.016c-1.313-1.164-3.098-1.605-4.789-1.195 0.148 0.199 1.117 1.52 1.992 3.125 1.898-0.715 2.699-1.793 2.797-1.93zM5.473 14.219c1.582 1.234 3.645 1.434 5.363 0.703-0.078-0.469-0.391-2.102-1.141-4.047-2.152 0.734-3.664 2.203-4.223 3.344zM9.332 9.992c-0.133-0.305-0.281-0.605-0.434-0.906-2.664 0.797-5.25 0.766-5.484 0.758 0 0.055-0.004 0.109-0.004 0.164 0 1.371 0.52 2.621 1.371 3.57 0.867-1.48 2.621-3.043 4.551-3.586zM10.695 10.629c0.699 1.918 0.98 3.48 1.035 3.805 1.199-0.809 2.051-2.094 2.289-3.578-0.18-0.059-1.652-0.496-3.324-0.227zM9.902 8.738c0.188 0.383 0.324 0.695 0.469 1.047 1.777-0.223 3.543 0.133 3.719 0.172-0.012-1.262-0.461-2.418-1.207-3.324-0.113 0.152-1.008 1.297-2.98 2.105zM17.5 3.125v13.75c0 1.035-0.84 1.875-1.875 1.875h-13.75c-1.035 0-1.875-0.84-1.875-1.875v-13.75c0-1.035 0.84-1.875 1.875-1.875h13.75c1.035 0 1.875 0.84 1.875 1.875zM15 10c0-3.445-2.805-6.25-6.25-6.25s-6.25 2.805-6.25 6.25 2.805 6.25 6.25 6.25 6.25-2.805 6.25-6.25z"></path>
</svg>
