<svg xmlns="http://www.w3.org/2000/svg" width="23" height="20" viewBox="0 0 23 20">
<path d="M3.223 3.863c-0.023-0.672 0.078-1.32 0.496-1.883 0.012 0.289 0.047 0.566 0.164 0.844 0.23-1.074 0.77-1.926 1.652-2.559-0.074 0.23-0.137 0.461-0.117 0.691 0.34-0.289 0.734-0.695 1.734-0.887 0.574-0.109 1.16-0.078 1.645 0.039 1.504 0.363 2.383 1.34 2.723 2.824 0.207 0.902 0.027 1.758-0.324 2.594-0.203 0.484-0.469 0.953-0.809 1.371-0.078-0.074-0.152-0.148-0.227-0.219-1.672-1.594-1.047-0.984-1.461-1.461-0.043-0.047-0.039-0.086-0.004-0.141 0.324-0.527 0.461-1.102 0.391-1.719-0.043-0.383-0.168-0.738-0.441-1.023-0.566-0.598-1.531-0.586-2.090 0.023-0.445 0.488-0.551 1.070-0.426 1.703 0.008 0.051 0.016 0.105 0 0.152-0.133 0.535-0.18 1.078-0.098 1.625 0.004 0.020 0.004 0.043 0.004 0.063 0 0.012-0.004 0.020-0.008 0.043-0.852-0.43-1.406-1.105-1.688-2.039-0.324 0.695-0.434 1.387-0.258 2.113-0.609-0.594-0.832-1.34-0.859-2.156zM21.566 8.676c-0.453-0.453-0.977-0.797-1.566-1.039-0.5-0.203-1.016-0.309-1.559-0.277-0.391 0.023-0.766 0.121-1.133 0.25-0.098 0.035-0.199 0.063-0.301 0.086-0.191 0.047-0.285-0.121-0.184-0.266 0.125-0.18 0.133-0.164 0.586-0.469 0.023-0.016 0.047-0.031 0.086-0.059h-0.098c-0.023 0-0.047 0.008-0.074 0.012-0.754 0.129-1.199 0.605-1.91 1.156-0.406 0.316-0.539 0.148-0.469-0.020 0.055-0.137 0.129-0.262 0.199-0.391 0.039-0.070 0.090-0.133 0.137-0.199-0.008-0.008-0.020-0.012-0.027-0.020-1.055 0.715-1.824 1.656-2.254 2.863 0.012 0.012 0.027 0.023 0.039 0.035 0.012-0.023 0.020-0.047 0.035-0.066 0.406-0.473 0.891-0.852 1.43-1.164 0.711-0.414 1.465-0.715 2.293-0.789 0.168-0.016 0.34-0.004 0.512-0.004-0.070 0.027-0.137 0.035-0.207 0.043-0.723 0.094-1.387 0.352-2.012 0.723-1.18 0.699-2.129 1.648-2.934 2.75-0.012 0.016-0.016 0.035-0.027 0.051 0.566 0.207 0.938 0.676 1.41 1 0.008-0.004 0.012-0.008 0.016-0.016l0.047-0.105c0.477-1.051 1.055-2.043 1.824-2.91 0.652-0.734 1.484-0.988 2.441-0.781 0.23 0.051 0.445 0.172 0.672 0.266 0.090-0.055 0.199-0.125 0.313-0.184 0.328-0.168 0.68-0.273 1.043-0.352 0.574-0.121 1.152-0.191 1.738-0.051v-0.020c-0.020-0.016-0.047-0.031-0.066-0.055zM12.371 15.531c-1.539-1.289-0.891-0.762-1.668-1.391-0.031 0.035 0-0.008-0.074 0.117-0.437 0.746-0.996 1.379-1.719 1.859-0.402 0.266-0.84 0.461-1.332 0.461-0.844 0-1.492-0.371-1.93-1.086-0.469-0.762-0.52-1.59-0.32-2.445 0.305-1.32 1.176-2.156 1.508-2.512-0.73-0.242-1.289 0.066-1.813 0.543 0.031-0.543 0.168-1.023 0.461-1.457-0.949 0.414-1.793 0.977-2.531 1.715-0.012-0.227 0.211-1.707 0.219-1.746 0.012-0.105-0.023-0.207-0.117-0.289-0.945 0.965-1.738 2.023-2.191 3.305 0.289-0.23 0.582-0.445 0.922-0.633-0.324 0.871-0.766 2.063-0.305 3.949 0.18 0.742 0.465 1.438 0.941 2.043 0.113 0.145 0.246 0.27 0.371 0.402 0.008-0.008 0.016-0.012 0.023-0.020-0.055-0.273-0.086-0.551-0.059-0.855 0.086 0.125 0.152 0.234 0.23 0.336 0.492 0.625 1.121 1.070 1.844 1.391 0.977 0.441 1.996 0.52 3.043 0.336 2.145-0.379 3.543-1.898 4.531-3.859 0.039-0.070 0.023-0.113-0.035-0.164zM19.090 13.719c-0.371-0.121-0.867-0.164-1.121-0.113 0.387 0.156 0.551 0.258 0.734 0.469 0.492 0.563 0.406 1.355-0.211 1.781-0.457 0.316-0.973 0.41-1.52 0.355-0.047-0.004-0.090-0.016-0.117-0.023 0.109-0.145 0.234-0.273 0.316-0.422 0.367-0.656 0.211-1.645-0.34-2.191-0.082-0.082-0.18-0.152-0.273-0.23-0.012 0.051-0.004 0.082 0.004 0.109 0.164 0.648-0.316 1.266-0.969 1.242-0.297-0.012-0.543-0.148-0.766-0.332-0.762-0.629-1.527-1.254-2.285-1.887-0.23-0.191-0.488-0.316-0.785-0.34-0.18-0.016-0.363-0.023-0.543-0.035-0.23-0.016-0.344-0.109-0.406-0.328-0.035-0.133-0.059-0.266-0.086-0.398-0.059-0.316-0.242-0.508-0.559-0.555-0.172-0.027-0.348-0.039-0.52-0.059-0.508-0.055-0.773-0.289-0.883-0.793-0.195 0.43-0.063 0.875 0.285 1.168 0.176 0.148 0.363 0.285 0.539 0.438 0.18 0.148 0.289 0.34 0.309 0.578 0.016 0.184 0.031 0.371 0.070 0.551 0.086 0.414 0.348 0.719 0.664 0.98 0.645 0.535 1.289 1.066 1.934 1.605 0.699 0.586 0.543 1.281 0.508 2.188-0.035 0.895 0.477 1.676 1.309 2 0.039 0.016 0.078 0.023 0.141 0.043-0.613-0.711-0.395-1.723 0.027-2.043 0.012 0.086 0.016 0.168 0.035 0.25 0.367 1.723 1.773 2.508 3.32 2.223 0.625-0.113 1.195-0.348 1.676-0.773 0.078-0.070 0.145-0.16 0.23-0.254-0.754 0.18-1.398 0.004-1.988-0.414 0.027-0.012 0.051-0.012 0.074-0.012 0.832 0.070 1.586-0.133 2.227-0.68 0.762-0.648 1.039-1.676 0.68-2.578-0.324-0.785-0.922-1.262-1.711-1.52zM3.883 7.004c-0.207-0.359-0.516-0.609-0.863-0.832 0.535-0.020 1.039 0.008 1.547 0.145-0.273-0.477-0.332-0.965-0.195-1.512 0.207 0.465 0.535 0.785 0.922 1.047 0.77 0.516 1.395 0.766 1.824 1.18 0.133 0.129 0.246 0.277 0.375 0.426-0.031-0.082-0.055-0.16-0.086-0.234-0.195-0.414-0.508-0.727-0.883-0.977-0.070-0.047-0.109-0.098-0.133-0.176-0.129-0.488-0.117-0.98-0.027-1.469 0.039-0.215 0.109-0.426 0.176-0.637 0.031-0.094 0.090-0.18 0.156-0.258 0.023 0.27 0 0.996 0.766 1.797 0.422 0.441 0.875 0.855 1.324 1.277 0.352 0.332 0.715 0.652 0.996 1.047 0.043 0.063 0.086 0.129 0.148 0.184-0.195-0.508-0.555-0.941-0.945-1.32-0.375-0.363-0.758-0.719-1.141-1.070-0.129-0.117-0.18-0.262-0.199-0.426-0.047-0.406 0-0.805 0.168-1.18 0.020-0.039 0.043-0.078 0.074-0.129 0.020 0.164 0.023 0.309 0.055 0.453 0.188 0.902 0.797 1.418 1.926 2.48 0.391 0.367 0.754 0.75 1 1.234 0.188 0.363 0.285 0.742 0.223 1.156-0.004 0.023 0.020 0.066 0.043 0.078 0.242 0.102 0.391 0.27 0.379 0.559 0.301-0.102 0.488-0.313 0.641-0.566 0.164 0.789-0.355 1.965-1.063 2.293 0.016-0.176 0.195-0.914-0.645-1.082-0.266-0.051-0.5-0.051-0.895-0.082 0.184-0.352 0.406-0.805 0.020-0.875-0.973-0.18-2.063 0.074-2.258 0.18 0.32 0.016 0.637 0.039 0.918 0.129-0.078 0.254-0.156 0.496-0.227 0.738-0.074 0.254 0.082 0.57 0.363 0.375 0.047-0.035 0.090-0.074 0.129-0.105-0.121 0.699-0.113 0.621-0.109 0.715 0.012 0.398 0.371 0.305 0.613 0.285-0.098 0.461-1.152 1.066-1.773 1.008 0.273-0.184 0.496-0.402 0.621-0.699-0.254 0.031-0.504 0.063-0.75 0.094l-0.012-0.035c0.184-0.133 0.313-0.305 0.398-0.512 0.34-0.824-0.141-1.484-0.977-1.559-0.355-0.031-0.695 0.031-1.012 0.215 0.242-0.609 0.672-1.039 1.273-1.348-0.594-0.168-0.348-0.105-0.961-0.246 0.57-0.363 1.18-0.516 1.816-0.57-0.203-0.125-1.879-0.141-2.742 0.816 0.309 0.055 0.605 0.109 0.906 0.164-0.93 0.273-1.719 0.77-2.438 1.391 0.043-0.188 0.105-0.371 0.129-0.559 0.023-0.176 0.031-0.359 0.004-0.531-0.059-0.367-0.348-0.59-0.77-0.637-0.309-0.035-0.609 0.004-0.91 0.051-0.035 0.004-0.066 0.012-0.113 0 0.617-0.578 1.406-0.848 2.074-1.309 0.234-0.176 0.266-0.32 0.117-0.582zM8.898 8.051c0.129 0.625 0.492 0.996 0.93 0.949-0.18-0.441-0.473-0.762-0.93-0.949z"></path>
</svg>
