<svg xmlns="http://www.w3.org/2000/svg" width="19" height="20" viewBox="0 0 19 20">
<path d="M14.449 16.617v-2.125l1.84 1.063-1.84 1.063zM3.219 14.867c0.996-1.066 3.816-4.090 5.895-6.641 1.371-1.684 1.574-3.219 1.109-4.402-0.289-0.734-0.684-1.18-0.949-1.395 1.77 0.082 2.656 0.914 3.211 1.496 0 0 1.656 1.883 0.227 4.426-1.445 2.574-4.332 5.762-5.020 6.512h-4.473zM5.242 6.305c0 0.484-0.391 0.875-0.875 0.875s-0.875-0.391-0.875-0.875c0-0.484 0.391-0.875 0.875-0.875s0.875 0.395 0.875 0.875zM13.125 12.34v2.527h-3.566c1.203-1.367 3.195-3.746 4.367-5.832 1.375-2.445 0.629-4.82-0.5-5.988-0.172-0.18-2.43-2.457-6.484-1.609-2.309 0.484-3.492 1.695-4.074 2.629-0.512 0.816-0.664 1.555-0.711 1.863-0.215 1.289 0.758 2.621 2.215 2.621 1.238 0 2.238-1.004 2.238-2.242 0-1.059-0.77-2.035-1.875-2.219 0.070-0.285 0.691-0.824 1.027-0.965 1.605-0.676 3.047 0.203 3.254 1.309 0.324 1.73-1.449 3.531-2.723 4.984-2.992 3.398-5.578 6.082-6.293 6.828l13.125-0.004v2.508l5.625-3.199-5.625-3.211z"></path>
</svg>
