<svg xmlns="http://www.w3.org/2000/svg" width="20" height="20" viewBox="0 0 20 20">
<path d="M14.93 5.313h2.020v9.359h-2.020v-0.809c-0.773 0.969-2.063 0.941-2.883 0.574-1.023-0.457-1.73-1.488-1.73-2.805 0-1.164 0.578-2.262 1.691-2.766 0.789-0.355 2.059-0.414 2.922 0.504v-4.059zM12.402 11.633c0 0.711 0.531 1.309 1.297 1.309 0.773 0 1.297-0.641 1.297-1.285 0-0.668-0.535-1.297-1.297-1.297-0.766 0-1.297 0.641-1.297 1.273zM7.363 5.313h2.020v9.359h-2.020v-0.809c-0.773 0.969-2.063 0.941-2.883 0.574-1.023-0.457-1.73-1.488-1.73-2.805 0-1.164 0.578-2.262 1.691-2.766 0.789-0.355 2.059-0.414 2.922 0.504v-4.059zM4.836 11.633c0 0.711 0.531 1.309 1.297 1.309 0.773 0 1.297-0.641 1.297-1.285 0-0.668-0.535-1.297-1.297-1.297-0.77 0-1.297 0.641-1.297 1.273zM17.5 3.75c0.684 0 1.25 0.563 1.25 1.25v10c0 0.684-0.563 1.25-1.25 1.25h-15c-0.684 0-1.25-0.563-1.25-1.25v-10c0-0.684 0.563-1.25 1.25-1.25h15zM17.5 2.5h-15c-1.375 0-2.5 1.125-2.5 2.5v10c0 1.375 1.125 2.5 2.5 2.5h15c1.375 0 2.5-1.125 2.5-2.5v-10c0-1.375-1.125-2.5-2.5-2.5z"></path>
</svg>
