<svg xmlns="http://www.w3.org/2000/svg" width="18" height="20" viewBox="0 0 18 20">
<path d="M12.48 4.48c-0.867-0.547-1.699-0.762-2.527-1.309-0.508-0.344-1.223-1.172-1.816-1.887-0.105 1.145-0.449 1.609-0.859 1.934-0.832 0.664-1.359 0.867-2.090 1.262-0.617 0.324-3.937 2.609-3.937 6.867 0 4.266 3.586 7.402 7.57 7.402 3.973 0 7.43-2.891 7.43-7.266 0-4.387-3.242-6.68-3.77-7.004zM12.578 17.199c-0.785 0.785-3.52 1.121-4.559 0.164-0.188-0.188 0.012-0.469 0.254-0.469 0 0 0.664 0.52 2.012 0.52 1.055 0 1.797-0.301 2.129-0.547 0.238-0.18 0.328 0.168 0.164 0.332zM10.449 15.145c0.34-0.141 1.133-0.148 1.438 0.051 0.16 0.109 0.629 0.734 0.242 0.926-0.328 0.164-0.047-0.613-1.035-0.613-0.574 0-0.762 0.203-1.043 0.43-0.273 0.234-0.383 0.313-0.477 0.184-0.234-0.32 0.621-0.871 0.875-0.977zM14.063 15.82c-0.594-0.039-1.777-1.906-2.539-1.934-1.207-0.035-4.066 3.152-6.301 1.641-1.516-1.039-0.57-4.094 2.023-4.109 1.934-0.020 3.273 1.914 4.238 1.895 0.832-0.012 2.414-1.633 3.195-1.633 1.902 0 0.91 4.27-0.617 4.141z"></path>
</svg>
