<svg xmlns="http://www.w3.org/2000/svg" width="19" height="20" viewBox="0 0 19 20">
<path d="M12.234 1.855c0.047-0.508 0.832-0.547 1.43-0.34 0.035 0.012 1.023 0.379 0.742 0.594-1.090-0.289-2.203 0.711-2.172-0.254zM4.383 2.125c1.199-0.316 2.422 0.781 2.387-0.277-0.051-0.555-0.914-0.598-1.57-0.375-0.039 0.012-1.121 0.41-0.816 0.652zM12.477 6.25c-0.344 0-0.625 0.281-0.625 0.625s0.281 0.625 0.625 0.625 0.625-0.281 0.625-0.625-0.281-0.625-0.625-0.625zM6.238 6.25c-0.344 0-0.625 0.281-0.625 0.625s0.281 0.625 0.625 0.625 0.625-0.281 0.625-0.625-0.281-0.625-0.625-0.625zM18.68 12.625c-0.387 0.938-1.59 0.43-2.496-0.047-0.527 2.699-2.27 4.352-4.934 4.852 0.012 0.035-0.078-0.004 0.938 0.039 1.313 0.055 2.492-0.121 3.805-0.313-0.773-0.539-0.445-1.449-0.383-1.488 0.055-0.035 0.574 0.066 0.844 0.449 0.336-0.488 1.109-0.578 1.18-0.531 0.063 0.043 0.258 0.816-0.27 1.352 0.184-0.035 0.32-0.063 0.383-0.082 0.102-0.031 0.691 0.441 0.121 0.52-0.559 0.090-0.883 0.199-1.84 0.422-1.793 0.418-3.355 0.461-4.598 0.5l0.039 0.453c0.148 0.707-0.914 0.949-1.078 0.242 0.031 0.699-1.059 0.852-1.109-0.039l-0.020 0.207c-0.027 0.719-1.109 0.699-1.105-0.023-0.293 0.527-1.098 0.266-1.031-0.332l0.047-0.484c-1.434 0.035-2.332 0.121-2.414 0.121-0.816 0-0.816-1.234 0-1.234 0.094 0 1.082 0.051 2.469 0.109-2.387-0.605-4.051-2.148-4.488-4.617-0.977 0.5-2.246 1.047-2.664 0.031-0.41-0.992 0.84-1.664 2.609-2.867 0.027-0.258 0.063-0.52 0.105-0.773-0.563-0.766-0.453-1.418-0.629-2.359-0.656 0.094-0.906-0.355-0.922-0.902 0.012-0.285 0.082-0.582 0.094-0.602 0.043-0.070 0.395-0.078 0.496-0.102 0.234-1.238 1.977-1.297 3.551-1.348 0.77-0.852 1.766-1.621 3.16-1.887-0.598-0.758-0.133-1.559-0.094-1.578 0.066-0.031 0.828 0.168 1.027 0.906 0.203-0.344 0.715-0.445 0.766-0.418 0.043 0.023 0.25 0.586-0.191 1.012 1.574 0.137 2.82 0.965 3.75 1.98 1.41 0.059 2.805 0.23 3.012 1.328 0.105 0.023 0.453 0.031 0.496 0.102 0.012 0.020 0.082 0.316 0.094 0.602-0.020 0.543-0.266 0.992-0.922 0.902-0.125 0.676-0.105 1.285-0.34 1.863 0.094 0.457 0.156 0.93 0.188 1.422 1.445 0.992 2.746 1.66 2.355 2.613zM8.102 6.246c0.035-1.719-1.48-1.648-3.070-1.574-0.848 0.039-1.52 0.074-1.777 0.543-0.445 0.816 0.23 3.629 0.906 3.953 0.383 0.184 2.867 0.309 3.371-0.277 0.32-0.367 0.586-1.93 0.57-2.645zM10.133 8.523c-0.168-0.484-0.234-1.176-0.598-1.277-0.078-0.020-0.352-0.020-0.43 0-0.391 0.109-0.422 0.863-0.664 1.453 0.602 0 0.754 0.379 0.926 0.379 0.168 0 0.246-0.441 0.766-0.555zM15.434 5.215c-0.258-0.473-0.969-0.504-1.816-0.543-1.57-0.074-3.055-0.148-3.020 1.574-0.020 0.715 0.195 2.277 0.516 2.648 0.508 0.582 2.992 0.461 3.371 0.277 0.617-0.297 1.426-3.082 0.949-3.957z"></path>
</svg>
