<svg xmlns="http://www.w3.org/2000/svg" width="20" height="20" viewBox="0 0 20 20">
<path d="M1.004 8.913c0.004-0.006 0.009-0.013 0.013-0.019-0.001 0.006-0.002 0.013-0.003 0.019h-0.011zM18.996 9.518c0-1.72-0.303-3.299-1.125-4.781-1.601-2.867-4.436-4.424-7.758-4.424-5.466-0.011-8.526 4.11-9.095 8.581 1.657-2.395 4.573-4.741 8.608-4.881 0 0 4.284 0 3.884 4.1h-6.869c0.249-1.46 0.725-2.304 1.341-3.083-2.932 1.363-4.76 3.754-4.716 7.356 0.032 2.791 1.958 5.658 4.717 6.718 3.256 1.244 7.53 0.281 9.38-0.833v-4.078c-3.159 2.207-10.581 2.38-10.635-2.64h12.268v-2.034z"></path>
</svg>
