<svg xmlns="http://www.w3.org/2000/svg" width="19" height="20" viewBox="0 0 19 20">
<path d="M11.234 2.117c-0.422-0.086-0.863-0.129-1.309-0.141v-0.711c3.051 0.086 5.707 1.719 7.211 4.164l-0.617 0.355c-0.238-0.379-0.496-0.734-0.789-1.059l-0.703 0.605c-1.016-1.156-2.398-1.98-3.98-2.281l0.188-0.934zM2.086 12.594l0.898-0.301c-0.25-0.715-0.391-1.492-0.391-2.293s0.129-1.578 0.379-2.293l-0.887-0.301c0.141-0.422 0.324-0.832 0.531-1.211l-0.617-0.355c-0.672 1.23-1.059 2.656-1.059 4.16s0.391 2.93 1.059 4.164l0.617-0.355c-0.207-0.391-0.379-0.793-0.531-1.215zM8.324 16.953c-1.578-0.313-2.961-1.137-3.98-2.293l-0.703 0.617c-0.293-0.336-0.563-0.691-0.789-1.070l-0.625 0.367c1.504 2.434 4.172 4.074 7.223 4.164v-0.715c-0.441-0.012-0.887-0.066-1.309-0.141l0.184-0.93zM3.645 4.723l0.703 0.605c1.016-1.156 2.398-1.98 3.98-2.281l-0.184-0.93c0.422-0.086 0.863-0.129 1.309-0.141v-0.711c-3.051 0.086-5.707 1.719-7.211 4.164l0.617 0.355c0.234-0.379 0.492-0.738 0.785-1.063zM15.73 15.277l-0.703-0.617c-1.016 1.156-2.398 1.98-3.98 2.293l0.184 0.93c-0.422 0.074-0.863 0.129-1.309 0.141v0.715c3.051-0.086 5.719-1.73 7.223-4.164l-0.629-0.367c-0.223 0.379-0.492 0.734-0.785 1.070zM19.375 10c0 5.352-4.336 9.688-9.688 9.688s-9.688-4.336-9.688-9.688 4.336-9.688 9.688-9.688 9.688 4.336 9.688 9.688zM18.898 10c0-5.082-4.129-9.211-9.211-9.211s-9.211 4.129-9.211 9.211 4.129 9.211 9.211 9.211 9.211-4.129 9.211-9.211zM17.375 5.836l-0.617 0.355c0.207 0.379 0.391 0.789 0.531 1.211l-0.887 0.301c0.25 0.715 0.379 1.492 0.379 2.293s-0.141 1.578-0.391 2.293l0.898 0.301c-0.152 0.422-0.324 0.82-0.531 1.211l0.617 0.355c0.672-1.227 1.059-2.652 1.059-4.156s-0.387-2.93-1.059-4.164zM10.227 12.777c0.637-0.129 1.188-0.453 1.59-0.918l2 1.75c0.465-0.531 0.832-1.145 1.059-1.828l-2.508-0.863c0.098-0.293 0.152-0.594 0.152-0.918s-0.055-0.629-0.152-0.918l2.52-0.863c-0.238-0.68-0.605-1.297-1.070-1.828l-2 1.75c-0.398-0.465-0.953-0.801-1.59-0.93l0.52-2.594c-0.336-0.074-0.691-0.109-1.059-0.109s-0.723 0.031-1.059 0.109l0.52 2.594c-0.637 0.129-1.188 0.465-1.59 0.93l-2-1.75c-0.465 0.531-0.832 1.145-1.070 1.828l2.52 0.863c-0.098 0.293-0.152 0.594-0.152 0.918s0.055 0.629 0.152 0.918l-2.508 0.863c0.227 0.68 0.594 1.297 1.059 1.828l2-1.75c0.398 0.465 0.953 0.789 1.59 0.918l-0.52 2.605c0.336 0.066 0.691 0.109 1.059 0.109s0.723-0.043 1.059-0.109l-0.52-2.605z"></path>
</svg>
