<svg xmlns="http://www.w3.org/2000/svg" width="15" height="20" viewBox="0 0 15 20">
<path d="M15 13.594c-0.068 0.42-0.537 4.297-0.605 5.156-4.605-0.168-8.59-0.185-14.395 0v-0.996c1.776-0.35 2.368-0.313 2.383-1.377 0.070-2.825 0.138-9.537 0-12.578-0.040-1.112-0.474-1.046-2.383-1.406v-0.996c2.886 0.092 9.997 0.334 14.18-0.146-0.137 1.494-0.303 4.941-0.303 4.941h-0.908c-0.432-1.673-0.733-3.535-2.139-3.535h-5.352c-0.4 0-0.42 0.137-0.42 0.381v6.396c2.266 0.020 3.457-0.098 3.457-0.098 1.163-0.037 1.077-0.332 1.592-2.549h1.006c-0.172 3.959-0.153 2.415-0.068 6.26h-1.006c-0.358-1.566-0.354-2.385-1.543-2.402 0 0-0.84-0.078-3.437-0.078v5.43c0 1.016 0.557 1.494 1.729 1.494h3.486c2.486 0 2.6-0.976 3.857-3.896h0.869z"></path>
</svg>
