<svg xmlns="http://www.w3.org/2000/svg" width="25" height="20" viewBox="0 0 25 20">
<path d="M24.996 9.945c-0.043-0.418-0.418-0.266-0.418-0.266s-0.609 0.473-1.145 0.418c-0.535-0.051-0.367-1.25-0.367-1.25s0.117-1.098-0.199-1.188c-0.316-0.094-0.703 0.285-0.703 0.285s-0.484 0.535-0.715 1.219l-0.063 0.020s0.074-1.195-0.012-1.469c-0.063-0.137-0.641-0.125-0.734 0.117s-0.555 1.922-0.586 2.625c0 0-0.902 0.766-1.691 0.891s-0.977-0.367-0.977-0.367 2.141-0.598 2.066-2.309c-0.074-1.711-1.727-1.078-1.914-0.938-0.18 0.137-1.148 0.719-1.43 2.332-0.008 0.055-0.027 0.293-0.027 0.293s-0.828 0.555-1.289 0.703c0 0 1.289-2.172-0.285-3.16-0.715-0.43-1.281 0.473-1.281 0.473s2.129-2.371 1.66-4.375c-0.227-0.953-0.703-1.059-1.141-0.902-0.664 0.262-0.918 0.652-0.918 0.652s-0.859 1.25-1.059 3.105-0.492 4.105-0.492 4.105-0.41 0.398-0.789 0.418-0.211-1.121-0.211-1.121 0.293-1.742 0.273-2.035-0.043-0.453-0.387-0.555c-0.348-0.105-0.723 0.336-0.723 0.336s-0.996 1.512-1.082 1.742l-0.051 0.094-0.051-0.063s0.703-2.059 0.031-2.090c-0.672-0.031-1.113 0.734-1.113 0.734s-0.766 1.281-0.797 1.426l-0.051-0.063s0.316-1.492 0.25-1.859c-0.063-0.367-0.41-0.293-0.41-0.293s-0.441-0.051-0.555 0.23-0.535 2.16-0.586 2.762c0 0-1.102 0.789-1.828 0.797-0.723 0.012-0.652-0.461-0.652-0.461s2.656-0.91 1.93-2.703c-0.324-0.461-0.703-0.605-1.238-0.598-0.535 0.012-1.184 0.336-1.613 1.301-0.207 0.461-0.266 0.898-0.305 1.23 0 0-0.48 0.094-0.734-0.113s-0.391 0-0.391 0-0.438 0.547-0.004 0.715 1.098 0.238 1.098 0.238c0.063 0.293 0.242 0.762 0.766 1.16 0.789 0.598 2.297-0.051 2.297-0.051l0.621-0.344s0.020 0.57 0.473 0.652c0.453 0.082 0.641 0.039 1.426-1.871 0.461-0.977 0.492-0.922 0.492-0.922l0.051-0.012s-0.355 1.828-0.219 2.332c0.137 0.5 0.734 0.445 0.734 0.445s0.324 0.094 0.586-0.828c0.262-0.922 0.766-1.949 0.766-1.949h0.063s-0.219 1.879 0.117 2.488c0.336 0.609 1.207 0.207 1.207 0.207s0.609-0.305 0.703-0.398c0 0 0.723 0.617 1.742 0.504 2.277-0.449 3.090-1.012 3.090-1.012s0.391 0.953 1.605 1.043c1.387 0.105 2.141-0.727 2.141-0.727s-0.012 0.527 0.473 0.727c0.484 0.199 0.809-0.891 0.809-0.891l0.809-2.234h0.074s0.043 1.457 0.84 1.688 1.836-0.535 1.836-0.535 0.25-0.137 0.207-0.559zM2.418 10.152c0.031-1.25 0.852-1.793 1.133-1.523 0.285 0.273 0.18 0.859-0.355 1.227-0.535 0.371-0.777 0.297-0.777 0.297zM13.074 5.316s0.746-1.941 0.922-0.996-1.563 3.758-1.563 3.758c0.020-0.633 0.641-2.762 0.641-2.762zM13.965 10.723c-0.492 1.289-1.691 0.766-1.691 0.766s-0.137-0.461 0.25-1.754 1.301-0.789 1.301-0.789 0.633 0.484 0.141 1.777zM17.27 10.152s-0.117-0.41 0.316-1.195c0.43-0.789 0.766-0.355 0.766-0.355s0.367 0.398-0.051 0.996-1.031 0.555-1.031 0.555z"></path>
</svg>
