<svg xmlns="http://www.w3.org/2000/svg" width="19" height="20" viewBox="0 0 19 20">
<path d="M9.688 1.695c-4.586 0-8.305 3.719-8.305 8.305s3.719 8.305 8.305 8.305 8.305-3.719 8.305-8.305-3.719-8.305-8.305-8.305zM5.883 6.887c0-2.098 1.707-3.805 3.805-3.805s3.805 1.707 3.805 3.805v1.039c0 0.195-0.152 0.348-0.348 0.348h-0.691c-0.195 0-0.348-0.152-0.348-0.348v-1.039c0-3.207-4.844-3.207-4.844 0v1.039c0 0.195-0.152 0.348-0.348 0.348h-0.691c-0.195 0-0.348-0.152-0.348-0.348v-1.039zM15.223 14.844c0 0.379-0.313 0.691-0.691 0.691h-9.688c-0.379 0-0.691-0.313-0.691-0.691v-5.535c0-0.379 0.313-0.691 0.691-0.691h9.688c0.379 0 0.691 0.313 0.691 0.691v5.535zM5.535 9.48v5.191c0 0.098-0.074 0.172-0.172 0.172h-0.348c-0.098 0-0.172-0.074-0.172-0.172v-5.191c0-0.098 0.074-0.172 0.172-0.172h0.348c0.098 0 0.172 0.074 0.172 0.172zM11.070 11.383c0 0.508-0.281 0.953-0.691 1.187v1.234c0 0.195-0.152 0.348-0.348 0.348h-0.691c-0.195 0-0.348-0.152-0.348-0.348v-1.234c-0.41-0.238-0.691-0.68-0.691-1.187 0-0.77 0.617-1.383 1.383-1.383s1.387 0.617 1.387 1.383zM9.688 0.313c-5.352 0-9.688 4.336-9.688 9.688s4.336 9.688 9.688 9.688 9.688-4.336 9.688-9.688-4.336-9.688-9.688-9.688zM9.688 18.996c-4.961 0-8.996-4.035-8.996-8.996s4.035-8.996 8.996-8.996 8.996 4.035 8.996 8.996-4.035 8.996-8.996 8.996z"></path>
</svg>
