<svg xmlns="http://www.w3.org/2000/svg" width="25" height="20" viewBox="0 0 25 20">
<path d="M0.848 9.625c-0.004 3.391 1.133 6.23 3.074 8.285h-3.922v-15.82h3.406c-1.621 1.961-2.562 4.539-2.559 7.535zM25 2.094h-3.266c1.227 1.668 1.902 3.809 1.805 6.355 0.020 0.234 0.020 0.457 0 0.941h-14.547c-0.008 4.285 1.52 7.613 5.414 7.629 2.676-0.012 4.609-1.992 5.934-4.145l3.766 1.883c-0.68 1.207-1.426 2.258-2.262 3.156h3.156v-15.82zM21.844 17.914s0-0.004 0 0v0zM21.723 2.094h0.012l-0.004-0.004-0.008 0.004zM12.711 2.469c-1.793 0.004-3.324 1.309-3.484 3.25h6.637c-0.043-1.941-1.348-3.246-3.152-3.25z"></path>
</svg>
