<svg xmlns="http://www.w3.org/2000/svg" width="18" height="20" viewBox="0 0 18 20">
<path d="M15.539 2.648c0.305 0 0.559 0.258 0.559 0.559v13.578c0 0.305-0.258 0.559-0.559 0.559h-13.578c-0.305 0-0.559-0.258-0.559-0.559v-13.574c0-0.305 0.258-0.559 0.559-0.559h13.578zM15.539 1.25h-13.578c-1.074 0-1.961 0.887-1.961 1.961v13.578c0 1.074 0.887 1.961 1.961 1.961h13.578c1.074 0 1.961-0.887 1.961-1.961v-13.578c0-1.074-0.887-1.961-1.961-1.961zM13.254 6.688c-0.234 0-1.168 0.605-2.055 0.605-0.164 0-0.328-0.023-0.488-0.094-0.77-0.305-1.445-0.535-2.309-0.535-0.793 0-1.633 0.258-2.332 0.535-0.070 0.023-0.141 0.047-0.188 0.070v-0.699c0.305-0.234 0.488-0.582 0.488-1.004 0-0.699-0.559-1.262-1.262-1.262s-1.262 0.559-1.262 1.262c0 0.398 0.188 0.77 0.488 1.004v8.285c0 0.422 0.352 0.77 0.77 0.77 0.352 0 0.629-0.234 0.723-0.535v-0.051c0.023-0.070 0.023-0.117 0.023-0.188v-1.727c0.047 0 0.094-0.023 0.117-0.047 0.77-0.328 1.68-0.652 2.566-0.652 1.215 0 1.68 0.629 2.707 0.629 0.723 0 1.422-0.258 2.031-0.535 0.164-0.070 0.281-0.141 0.281-0.305v-5.25c0.070-0.16-0.090-0.277-0.301-0.277z"></path>
</svg>
