<svg xmlns="http://www.w3.org/2000/svg" width="15" height="20" viewBox="0 0 15 20">
<path d="M7.727 16.711c0.504 0.457 1.316 1.301 1.297 1.98 0 0.031-0.004 0.063-0.004 0.098-0.070 0.773-0.734 1.215-1.527 1.211-0.977-0.004-1.559-0.656-1.512-1.398 0.039-0.633 0.801-1.434 1.266-1.859 0.090-0.082 0.105-0.105 0.219-0.141 0.133 0 0.152 0.012 0.262 0.109zM12.965 2.629c-0.637-1.004-1.508-1.586-2.473-2.035-0.996-0.418-2.133-0.602-2.992-0.594-1.723 0-2.781 0.516-3.168 0.676-2.094 1.090-3.297 2.73-3.238 5.52 0.277 3.211 3.789 6.875 6.086 9.133 0.066 0.063 0.176 0.176 0.242 0.199l0.129 0.004c0.082-0.027 0.070-0.020 0.137-0.082 2.043-1.922 5.496-5.695 6.090-8.426 0.273-1.531 0.121-2.832-0.813-4.395zM7.297 13.746c-1.094-1.996-2.547-5.105-2.707-7.383-0.133-1.855 0.445-5.125 2.707-5.34v12.723zM12.84 7.031c-0.641 2.219-3.020 5-4.645 6.652 1.086-2.027 2.547-5.207 2.625-7.496 0.063-1.793-0.383-4.133-1.875-5.133 3.469 0.715 4.512 3.832 3.895 5.977z"></path>
</svg>
