<svg xmlns="http://www.w3.org/2000/svg" width="18" height="20" viewBox="0 0 18 20">
<path d="M11.863 3.758c0.434-0.434 4.512-3.008 5.438-2.078 0.926 0.926-1.645 5.004-2.078 5.438s-1.539 0.035-2.465-0.895c-0.93-0.926-1.332-2.031-0.895-2.465zM4.293 2.66c-1.418-0.805-3.434-1.699-4.074-1.055-0.648 0.648 0.277 2.711 1.090 4.129 0.723-1.258 1.75-2.316 2.984-3.074zM15.887 6.797c0.129 0.441 0.105 0.809-0.105 1.020-0.793 0.793-3.418-1.055-4.27-2.738-0.703-1.262-0.434-2.086 0.582-1.902 0.223-0.141 0.48-0.297 0.766-0.453-1.164-0.605-2.484-0.949-3.887-0.949-4.652 0-8.422 3.77-8.422 8.422 0 4.648 3.77 8.422 8.422 8.422s8.422-3.77 8.422-8.422c0-1.5-0.395-2.91-1.082-4.133-0.152 0.273-0.297 0.52-0.426 0.734z"></path>
</svg>
