<svg xmlns="http://www.w3.org/2000/svg" width="19" height="20" viewBox="0 0 19 20">
<path d="M18.676 9.191c-0.027-0.176-0.055-0.277-0.055-0.277s-0.070 0.078-0.184 0.23c-0.035-0.418-0.109-0.828-0.227-1.234-0.145-0.504-0.332-0.992-0.566-1.461-0.148-0.313-0.32-0.609-0.52-0.891-0.070-0.105-0.145-0.211-0.219-0.309-0.344-0.563-0.742-0.91-1.199-1.563-0.297-0.5-0.504-1.051-0.602-1.625-0.125 0.348-0.223 0.703-0.289 1.066-0.473-0.477-0.879-0.813-1.129-1.043-1.211-1.141-1.070-1.73-1.070-1.73s-2.277 2.543-1.293 5.191c0.34 0.898 0.93 1.684 1.695 2.262 0.953 0.789 1.984 1.406 2.527 2.992-0.437-0.832-1.098-1.531-1.906-2.012 0.242 0.574 0.367 1.195 0.363 1.816 0 2.383-1.938 4.316-4.32 4.313-0.324 0-0.645-0.035-0.957-0.109-0.371-0.070-0.73-0.191-1.070-0.363-0.504-0.305-0.938-0.707-1.281-1.184l-0.008-0.012 0.078 0.027c0.18 0.063 0.359 0.109 0.547 0.145 0.73 0.156 1.496 0.066 2.172-0.258 0.684-0.379 1.094-0.66 1.43-0.547h0.008c0.328 0.105 0.586-0.215 0.352-0.547-0.406-0.523-1.070-0.781-1.727-0.664-0.684 0.098-1.309 0.586-2.203 0.113-0.059-0.031-0.113-0.063-0.168-0.098-0.062-0.035 0.191 0.051 0.133 0.012-0.195-0.098-0.383-0.211-0.563-0.336-0.012-0.012 0.137 0.043 0.121 0.031-0.23-0.156-0.43-0.359-0.586-0.594-0.16-0.289-0.176-0.641-0.039-0.941 0.082-0.148 0.211-0.27 0.363-0.34 0.117 0.059 0.188 0.102 0.188 0.102s-0.051-0.098-0.082-0.148c0.012-0.004 0.020 0 0.031-0.008 0.102 0.043 0.324 0.156 0.445 0.227 0.082 0.043 0.148 0.105 0.203 0.184 0 0 0.039-0.020 0.012-0.105-0.043-0.105-0.113-0.195-0.211-0.258h0.008c0.090 0.047 0.176 0.102 0.258 0.16 0.074-0.172 0.109-0.359 0.102-0.547 0.008-0.102-0.008-0.207-0.043-0.305-0.031-0.063 0.020-0.086 0.074-0.020-0.008-0.051-0.027-0.098-0.047-0.145v-0.004s0.031-0.043 0.047-0.059c0.039-0.039 0.082-0.074 0.133-0.105 0.281-0.176 0.578-0.328 0.887-0.453 0.25-0.109 0.457-0.191 0.5-0.219 0.063-0.039 0.121-0.086 0.176-0.137 0.207-0.176 0.352-0.422 0.398-0.691 0.004-0.035 0.008-0.070 0.012-0.109v-0.059c-0.035-0.137-0.27-0.238-1.5-0.355-0.434-0.070-0.781-0.395-0.879-0.824v0.004c-0.016 0.043-0.035 0.090-0.051 0.137 0.016-0.047 0.031-0.090 0.051-0.137v-0.008c0.234-0.613 0.656-1.137 1.203-1.496 0.031-0.027-0.125 0.008-0.094-0.020 0.105-0.051 0.211-0.098 0.32-0.137 0.055-0.023-0.234-0.133-0.492-0.105-0.156 0.008-0.313 0.047-0.457 0.109 0.062-0.051 0.242-0.121 0.199-0.121-0.328 0.063-0.645 0.184-0.934 0.352 0-0.031 0.004-0.059 0.020-0.086-0.23 0.098-0.43 0.254-0.586 0.449 0.004-0.035 0.008-0.070 0.008-0.105-0.105 0.078-0.203 0.168-0.285 0.27l-0.004 0.004c-0.68-0.262-1.418-0.324-2.133-0.184l-0.008-0.004h0.008c-0.148-0.121-0.277-0.262-0.379-0.426l-0.008 0.004-0.016-0.008c-0.047-0.070-0.094-0.148-0.145-0.234-0.035-0.063-0.070-0.133-0.105-0.203 0-0.004-0.004-0.008-0.008-0.008-0.016 0-0.023 0.066-0.035 0.051v-0.004c-0.125-0.324-0.184-0.672-0.172-1.023l-0.008 0.004c-0.199 0.137-0.352 0.336-0.434 0.566-0.035 0.082-0.063 0.129-0.086 0.176v-0.020c0.004-0.043 0.023-0.129 0.020-0.121s-0.008 0.012-0.012 0.016c-0.059 0.066-0.113 0.145-0.152 0.227-0.035 0.074-0.066 0.152-0.090 0.23-0.004 0.012 0-0.012 0-0.039s0.004-0.078 0-0.066l-0.012 0.027c-0.262 0.582-0.426 1.203-0.484 1.84-0.016 0.109-0.023 0.219-0.020 0.324v0.008c-0.187 0.203-0.352 0.43-0.496 0.668-0.473 0.797-0.824 1.66-1.047 2.563 0.156-0.344 0.344-0.672 0.559-0.98-0.418 1.059-0.633 2.188-0.633 3.328 0.070-0.336 0.164-0.664 0.273-0.988-0.066 1.348 0.191 2.691 0.758 3.918 0.758 1.699 2.016 3.125 3.605 4.090 0.648 0.437 1.355 0.777 2.102 1.008 0.098 0.035 0.199 0.070 0.301 0.105-0.031-0.012-0.063-0.027-0.094-0.039 0.883 0.266 1.805 0.402 2.727 0.402 3.27 0 4.348-1.246 4.445-1.367 0.16-0.145 0.293-0.32 0.387-0.52 0.063-0.027 0.125-0.055 0.191-0.082l0.039-0.020 0.074-0.035c0.492-0.23 0.957-0.523 1.379-0.863 0.637-0.457 1.090-1.121 1.285-1.879 0.117-0.277 0.121-0.586 0.016-0.867 0.035-0.055 0.066-0.109 0.105-0.168 0.703-1.129 1.102-2.418 1.156-3.746v-0.109c0-0.285-0.023-0.566-0.074-0.844z"></path>
</svg>
