<svg xmlns="http://www.w3.org/2000/svg" width="18" height="20" viewBox="0 0 18 20">
<path d="M0.227 12.098c-0.148-0.664-0.227-1.336-0.227-2.008 0-4.816 3.898-8.723 8.715-8.723 0.648 0 1.301 0.078 1.926 0.215-4.82 1.836-8.613 5.684-10.414 10.516zM15.574 4.707c-0.535-0.684-1.16-1.277-1.867-1.77-5.844 1.73-10.402 6.332-12.098 12.188 0.488 0.707 1.094 1.391 1.766 1.914 1.684-5.91 6.297-10.613 12.199-12.332zM16.191 14.578c0.594-0.98 0.992-2.098 1.152-3.234-3.102 1.676-5.664 4.32-7.328 7.434 1.172-0.172 2.301-0.598 3.305-1.223 1.367 0.512 2.77 0.949 4.18 1.313-0.363-1.426-0.797-2.91-1.309-4.289zM17.352 8.895c-0.102-0.762-0.309-1.512-0.617-2.219-5.387 1.789-9.625 6.117-11.379 11.527 0.707 0.297 1.445 0.488 2.211 0.594 1.809-4.457 5.344-8.078 9.785-9.902z"></path>
</svg>
