<svg xmlns="http://www.w3.org/2000/svg" width="18" height="20" viewBox="0 0 18 20">
<path d="M0 1.25v17.5h17.5v-17.5h-17.5zM6.539 8.906h2.633l-0.434 1.457h-2.176v4.41c0 0.227-0.078 0.262 0.125 0.285l1.699 0.16v0.98h-5.105v-1.004l0.832-0.078c0.203-0.023 0.262-0.090 0.262-0.309v-4.352c0-0.090-0.113-0.090-0.227-0.090h-0.867v-1.461h1.094v-0.82c0-1.938 1.035-2.734 3.020-2.734 1.332 0 2.527 0.32 2.527 2.063l-1.98 0.238c0.012-0.73-0.172-0.898-0.637-0.898-0.719 0-0.742 0.387-0.742 1.070v0.91c0 0.094-0.137 0.172-0.023 0.172zM14.219 16.199h-4.012v-0.98l0.797-0.102c0.203-0.023 0.297-0.066 0.297-0.285v-4.215c0-0.16-0.113-0.262-0.262-0.309l-0.945-0.25 0.262-1.152h3.133v5.926c0 0.227-0.102 0.25 0.113 0.285l0.613 0.102v0.98zM13.363 6.219l0.352 1.297-0.285 0.285-1.219-0.648-1.219 0.648-0.285-0.285 0.352-1.297-0.852-0.945 0.137-0.375h1.082l0.605-1.094h0.363l0.605 1.094h1.082l0.137 0.375-0.855 0.945z"></path>
</svg>
