<svg xmlns="http://www.w3.org/2000/svg" width="18" height="20" viewBox="0 0 18 20">
<path d="M15.539 1.25h-13.578c-1.074 0-1.961 0.887-1.961 1.961v13.578c0 1.074 0.887 1.961 1.961 1.961h13.578c1.074 0 1.961-0.887 1.961-1.961v-13.578c0-1.074-0.887-1.961-1.961-1.961zM13.766 12.355c0 0.164-0.141 0.234-0.305 0.305-0.652 0.281-1.352 0.535-2.102 0.535-1.051 0-1.539-0.652-2.801-0.652-0.91 0-1.867 0.328-2.637 0.676-0.047 0.023-0.094 0.023-0.141 0.047v1.773c0 0.070 0 0.141-0.023 0.188v0.047c-0.094 0.328-0.398 0.559-0.746 0.559-0.441 0-0.793-0.352-0.793-0.793v-8.539c-0.305-0.234-0.512-0.605-0.512-1.027 0-0.723 0.582-1.309 1.309-1.309 0.723 0 1.309 0.582 1.309 1.309 0 0.422-0.188 0.793-0.512 1.027v0.723c0.070-0.023 0.141-0.047 0.211-0.094 0.723-0.305 1.586-0.559 2.402-0.559 0.887 0 1.586 0.234 2.379 0.535 0.164 0.070 0.328 0.094 0.512 0.094 0.887 0 1.867-0.629 2.102-0.629 0.188 0 0.352 0.141 0.352 0.305v5.48z"></path>
</svg>
