<svg xmlns="http://www.w3.org/2000/svg" width="15" height="20" viewBox="0 0 15 20">
<path d="M4.469 8.75h3.609l-0.594 2h-2.984v6.164c0 0.313-0.109 0.359 0.172 0.391l2.328 0.219v1.344h-7v-1.375l1.141-0.109c0.281-0.031 0.359-0.125 0.359-0.422v-6.086c0-0.125-0.156-0.125-0.313-0.125h-1.188v-2h1.5v-1.125c0-2.656 1.422-3.75 4.141-3.75 1.828 0 3.469 0.438 3.469 2.828l-2.719 0.328c0.016-1-0.234-1.234-0.875-1.234-0.984 0-1.016 0.531-1.016 1.469v1.25c0 0.125-0.188 0.234-0.031 0.234zM15 18.867h-5.5v-1.344l1.094-0.141c0.281-0.031 0.406-0.094 0.406-0.391v-5.781c0-0.219-0.156-0.359-0.359-0.422l-1.297-0.344 0.359-1.578h4.297v8.125c0 0.313-0.141 0.344 0.156 0.391l0.844 0.141v1.344zM13.828 5.305l0.484 1.781-0.391 0.391-1.672-0.891-1.672 0.891-0.391-0.391 0.484-1.781-1.172-1.422 0.188-0.391h1.484l0.828-1.5h0.5l0.828 1.5h1.484l0.188 0.516-1.172 1.297z"></path>
</svg>
