<svg xmlns="http://www.w3.org/2000/svg" width="20" height="20" viewBox="0 0 20 20">
<path d="M19.109 11.246h-1.070c-0.102 0-0.18 0.078-0.18 0.18v1.25h-1.43v-6.965c0-0.102-0.078-0.18-0.18-0.18h-1.070c-0.102 0-0.18 0.078-0.18 0.18v1.25h-1.43v-1.25c0-0.102-0.078-0.18-0.18-0.18h-1.070c-0.102 0-0.18 0.078-0.18 0.18v1.25h-1.43v-1.25c0-0.234-0.313-0.18-0.457-0.18v-1.484c0.324-0.078 0.668-0.133 1.004-0.133 0.426 0 0.816 0.168 1.227 0.168 0.18 0 1.082-0.043 1.082-0.312v-2.344c0-0.102-0.078-0.18-0.18-0.18-0.199 0-0.59 0.168-0.938 0.168-0.379 0-0.816-0.168-1.273-0.168-0.313 0-0.625 0.043-0.926 0.113v-0.191c0.211-0.102 0.355-0.324 0.355-0.559 0-0.809-1.227-0.813-1.227 0 0 0.234 0.145 0.457 0.355 0.559v4.363c-0.145 0-0.457-0.055-0.457 0.18v1.25h-1.43v-1.25c0-0.102-0.078-0.18-0.18-0.18h-1.070c-0.102 0-0.18 0.078-0.18 0.18v1.25h-1.418v-1.25c0-0.102-0.078-0.18-0.18-0.18h-1.070c-0.102 0-0.18 0.078-0.18 0.18v6.965h-1.43v-1.25c0-0.102-0.078-0.18-0.18-0.18h-1.070c-0.102 0-0.18 0.078-0.18 0.18v8.574h7.145v-3.75c0-2.836 4.285-2.836 4.285 0v3.75h7.145v-8.574c0.004-0.102-0.074-0.18-0.176-0.18zM7.855 11.070c0 0.102-0.078 0.18-0.18 0.18h-1.070c-0.102 0-0.18-0.078-0.18-0.18v-2.5c0-0.102 0.078-0.18 0.18-0.18h1.070c0.102 0 0.18 0.078 0.18 0.18v2.5zM13.574 11.070c0 0.102-0.078 0.18-0.18 0.18h-1.070c-0.102 0-0.18-0.078-0.18-0.18v-2.5c0-0.102 0.078-0.18 0.18-0.18h1.070c0.102 0 0.18 0.078 0.18 0.18v2.5z"></path>
</svg>
