<svg xmlns="http://www.w3.org/2000/svg" width="18" height="20" viewBox="0 0 18 20">
<path d="M0.504 8.953c0.004-0.004 0.008-0.012 0.012-0.016 0 0.004 0 0.012-0.004 0.016h-0.008zM8.75 3.773c-0.277 0-0.57 0.023-0.836 0.066l0.145 2.633-0.859-2.5c-0.559 0.145-1.082 0.367-1.563 0.648l1.148 2.398-1.762-1.988c-0.445 0.348-0.848 0.746-1.195 1.207l1.977 1.773-2.387-1.16c-0.277 0.48-0.504 1.004-0.648 1.563l2.512 0.883-2.656-0.156c-0.035 0.277-0.055 0.57-0.055 0.859s0.023 0.57 0.055 0.848l2.645-0.156-2.5 0.883c0.145 0.559 0.367 1.082 0.648 1.574l2.387-1.16-1.988 1.762c0.348 0.457 0.746 0.871 1.207 1.207l1.754-1.988-1.152 2.398c0.48 0.289 1.004 0.512 1.563 0.66l0.871-2.523-0.156 2.656c0.277 0.043 0.57 0.066 0.848 0.066 0.289 0 0.57-0.023 0.848-0.066l-0.156-2.68 0.883 2.543c0.559-0.156 1.082-0.367 1.563-0.66l-1.148-2.395 1.754 1.988c0.457-0.348 0.859-0.746 1.195-1.207l-1.977-1.762 2.387 1.148c0.277-0.48 0.504-1.004 0.648-1.574l-2.5-0.871 2.633 0.156c0.043-0.277 0.055-0.559 0.055-0.848s-0.012-0.582-0.055-0.859l-2.645 0.156 2.5-0.871c-0.145-0.559-0.355-1.094-0.648-1.574l-2.379 1.16 1.977-1.773c-0.348-0.457-0.746-0.859-1.195-1.207l-1.762 1.988 1.148-2.387c-0.48-0.289-1.004-0.512-1.563-0.66l-0.871 2.512 0.156-2.645c-0.277-0.047-0.559-0.066-0.848-0.066zM17.32 5v10l-8.57 5-8.57-5v-10l8.57-5 8.57 5zM16.652 5.402l-7.902-4.586-7.902 4.586v9.184l7.902 4.598 7.902-4.598v-9.184zM8.75 1.449l7.332 4.273v8.551l-7.332 4.277-7.332-4.277v-8.547l7.332-4.277zM8.75 3.438c-3.605 0-6.52 2.934-6.52 6.563 0 3.617 2.914 6.551 6.52 6.551 3.594 0 6.52-2.934 6.52-6.551 0-3.629-2.926-6.563-6.52-6.563z"></path>
</svg>
