<svg xmlns="http://www.w3.org/2000/svg" width="18" height="20" viewBox="0 0 18 20">
<path d="M17.358 14.040c0 0.28-0.24 0.4-0.52 0.52-1.12 0.48-2.32 0.92-3.6 0.92-1.8 0-2.64-1.12-4.8-1.12-1.56 0-3.2 0.56-4.52 1.16-0.080 0.040-0.16 0.040-0.24 0.080v3.040c0 0.836-0.63 1.36-1.32 1.36-0.76 0-1.36-0.6-1.36-1.36v-14.64c-0.52-0.4-0.88-1.040-0.88-1.76 0-1.24 1-2.24 2.24-2.24s2.24 1 2.24 2.24c0 0.72-0.32 1.36-0.88 1.76v1.24c0.161-0.054 2.296-1.12 4.48-1.12 2.55 0 3.815 1.080 4.96 1.080 1.52 0 3.2-1.080 3.6-1.080 0.32 0 0.6 0.24 0.6 0.52v9.4z"></path>
</svg>
