<svg xmlns="http://www.w3.org/2000/svg" width="14" height="20" viewBox="0 0 14 20">
<path d="M12.621 0.117h-10.672c-1.465 0-1.949 1.105-1.949 1.801v16.945c0 0.793 0.473 1.082 0.711 1.176 0.242 0.098 0.891 0.18 1.285-0.277 5.035-5.836 5.121-5.934 5.121-5.934 0.121-0.133 0.133-0.121 0.266-0.121h3.258c1.371 0 1.586-0.984 1.73-1.551l1.898-9.492c0.332-1.656-0.086-2.547-1.648-2.547zM11.984 3l-0.445 2.332c-0.047 0.254-0.371 0.516-0.66 0.516h-4.156c-0.469 0-0.805 0.324-0.805 0.793v0.508c0 0.469 0.336 0.805 0.805 0.805h3.531c0.324 0 0.648 0.359 0.578 0.711-0.070 0.348-0.41 2.102-0.445 2.297-0.035 0.191-0.266 0.527-0.66 0.527h-2.871c-0.527 0-0.672 0.070-1.035 0.492 0 0-0.348 0.445-3.496 4.23-0.035 0.035-0.070 0.023-0.070-0.012v-13.234c0-0.301 0.266-0.648 0.648-0.648h8.555c0.32 0 0.609 0.301 0.527 0.684z"></path>
</svg>
