<svg xmlns="http://www.w3.org/2000/svg" width="20" height="20" viewBox="0 0 20 20">
<path d="M8.27 9.418v2.020c0 0.082-0.063 0.145-0.145 0.145h-0.867c-0.082 0-0.145-0.063-0.145-0.145v-2.020c0-0.082 0.063-0.145 0.145-0.145h0.867c0.082 0 0.145 0.063 0.145 0.145zM12.742 9.273h-0.867c-0.082 0-0.145 0.063-0.145 0.145v2.020c0 0.082 0.063 0.145 0.145 0.145h0.867c0.082 0 0.145-0.063 0.145-0.145v-2.020c-0.004-0.082-0.066-0.145-0.145-0.145zM11.605 19.555c-0.035 0.004-0.066 0.012-0.102 0.016-0.039 0.008-0.082 0.012-0.121 0.020-0.035 0.004-0.070 0.012-0.109 0.016s-0.078 0.012-0.117 0.016c-0.039 0.004-0.078 0.008-0.113 0.012-0.039 0.004-0.074 0.008-0.113 0.012s-0.082 0.008-0.121 0.012c-0.035 0.004-0.070 0.008-0.105 0.008-0.043 0.004-0.090 0.004-0.133 0.008-0.031 0-0.066 0.004-0.098 0.004-0.051 0.004-0.102 0.004-0.152 0.004-0.027 0-0.055 0.004-0.082 0.004-0.078 0-0.156 0.004-0.234 0.004s-0.156 0-0.234-0.004c-0.027 0-0.055 0-0.082-0.004-0.051 0-0.102-0.004-0.152-0.004-0.031 0-0.066-0.004-0.098-0.004-0.043-0.004-0.090-0.004-0.133-0.008-0.035-0.004-0.070-0.004-0.105-0.008-0.039-0.004-0.082-0.008-0.121-0.012s-0.074-0.008-0.113-0.012c-0.039-0.004-0.078-0.008-0.113-0.012-0.039-0.004-0.078-0.008-0.117-0.016-0.035-0.004-0.070-0.012-0.109-0.016s-0.082-0.012-0.121-0.020c-0.035-0.004-0.066-0.012-0.102-0.016-2.562-0.426-4.785-1.863-6.25-3.883-0.008-0.008-0.012-0.020-0.020-0.027-0.031-0.043-0.063-0.086-0.090-0.129-0.012-0.016-0.023-0.031-0.031-0.047-0.027-0.043-0.055-0.082-0.082-0.125-0.012-0.020-0.023-0.035-0.035-0.055-0.027-0.043-0.055-0.082-0.078-0.125-0.012-0.020-0.023-0.035-0.035-0.055-0.027-0.043-0.051-0.086-0.078-0.129-0.008-0.016-0.020-0.031-0.027-0.047-0.094-0.156-0.18-0.316-0.266-0.477-0.004-0.008-0.008-0.012-0.012-0.020-0.023-0.043-0.043-0.086-0.066-0.129-0.012-0.023-0.023-0.043-0.031-0.066-0.020-0.039-0.039-0.082-0.059-0.121-0.012-0.027-0.023-0.051-0.035-0.078-0.020-0.039-0.035-0.078-0.055-0.117l-0.035-0.082c-0.016-0.039-0.035-0.078-0.051-0.117-0.012-0.027-0.023-0.059-0.035-0.086l-0.047-0.117c-0.012-0.031-0.023-0.059-0.035-0.090-0.016-0.039-0.031-0.078-0.043-0.117-0.012-0.035-0.023-0.070-0.039-0.109-0.023-0.063-0.043-0.129-0.066-0.191-0.012-0.035-0.023-0.070-0.035-0.109-0.012-0.035-0.020-0.070-0.031-0.105s-0.023-0.074-0.031-0.109c-0.012-0.035-0.020-0.070-0.031-0.105-0.012-0.039-0.020-0.074-0.031-0.113-0.008-0.035-0.020-0.070-0.027-0.105-0.012-0.039-0.020-0.078-0.027-0.117-0.008-0.035-0.016-0.066-0.023-0.102-0.008-0.043-0.020-0.086-0.027-0.125-0.008-0.031-0.012-0.063-0.020-0.094-0.012-0.051-0.020-0.105-0.031-0.156-0.004-0.023-0.008-0.043-0.012-0.066l-0.035-0.223c-0.004-0.023-0.008-0.051-0.012-0.074-0.008-0.051-0.016-0.102-0.020-0.152-0.004-0.031-0.008-0.059-0.012-0.090-0.004-0.047-0.012-0.094-0.016-0.141-0.004-0.031-0.008-0.063-0.008-0.094-0.004-0.047-0.008-0.094-0.012-0.137-0.004-0.031-0.004-0.063-0.008-0.094-0.004-0.047-0.008-0.094-0.008-0.145 0-0.031-0.004-0.059-0.004-0.090-0.004-0.051-0.004-0.105-0.008-0.156 0-0.027 0-0.051-0.004-0.078 0-0.078-0.004-0.156-0.004-0.234 0-2.090 0.66-4.023 1.789-5.609 0.090-0.125 0.184-0.25 0.277-0.371 0.191-0.242 0.395-0.48 0.609-0.703 0.105-0.113 0.215-0.223 0.328-0.328s0.227-0.211 0.344-0.313c0.176-0.152 0.355-0.297 0.543-0.438 0.063-0.047 0.125-0.094 0.188-0.137 1.066-0.766 2.305-1.316 3.645-1.594 0.629-0.129 1.285-0.195 1.953-0.195s1.32 0.066 1.953 0.195c1.34 0.273 2.578 0.824 3.656 1.59 0.063 0.047 0.125 0.090 0.188 0.137 0.188 0.141 0.367 0.285 0.543 0.438 0.469 0.406 0.898 0.855 1.281 1.344 0.098 0.121 0.188 0.246 0.277 0.371 1.129 1.59 1.789 3.523 1.789 5.613 0 0.078 0 0.156-0.004 0.234 0 0.027 0 0.051-0.004 0.078 0 0.051-0.004 0.105-0.008 0.156 0 0.031-0.004 0.059-0.004 0.090-0.004 0.047-0.004 0.094-0.008 0.027-0.004 0.031-0.004 0.063-0.008 0.094-0.004 0.047-0.008 0.094-0.012 0.137-0.004 0.031-0.008 0.063-0.008 0.094-0.004 0.047-0.012 0.094-0.016 0.141-0.004 0.031-0.008 0.059-0.012 0.090-0.008 0.051-0.016 0.102-0.020 0.152-0.004 0.023-0.008 0.051-0.012 0.074l-0.035 0.223c-0.004 0.023-0.008 0.043-0.012 0.066-0.008 0.051-0.020 0.105-0.031 0.156-0.008 0.031-0.012 0.063-0.020 0.094-0.008 0.043-0.020 0.086-0.027 0.125-0.008 0.035-0.016 0.066-0.023 0.102-0.008 0.039-0.020 0.078-0.027 0.117-0.008 0.035-0.020 0.070-0.027 0.105-0.012 0.039-0.020 0.074-0.031 0.113-0.008 0.035-0.020 0.070-0.031 0.105s-0.023 0.074-0.031 0.109c-0.012 0.035-0.020 0.070-0.031 0.105s-0.023 0.070-0.035 0.109c-0.020 0.063-0.043 0.129-0.066 0.191-0.012 0.035-0.023 0.070-0.039 0.109s-0.027 0.078-0.043 0.117c-0.012 0.031-0.023 0.059-0.035 0.090l-0.047 0.117c-0.012 0.027-0.023 0.059-0.035 0.086-0.016 0.039-0.031 0.078-0.051 0.117l-0.035 0.082c-0.016 0.039-0.035 0.078-0.055 0.117-0.012 0.027-0.023 0.051-0.035 0.078-0.020 0.039-0.039 0.082-0.059 0.121-0.012 0.023-0.023 0.043-0.031 0.066-0.023 0.043-0.043 0.086-0.066 0.129-0.004 0.008-0.008 0.012-0.012 0.020-0.086 0.16-0.172 0.32-0.266 0.477-0.008 0.016-0.020 0.031-0.027 0.047-0.027 0.043-0.051 0.086-0.078 0.129-0.012 0.020-0.023 0.035-0.035 0.055-0.027 0.043-0.055 0.082-0.078 0.125-0.012 0.020-0.023 0.035-0.035 0.055-0.027 0.043-0.055 0.082-0.082 0.125-0.012 0.016-0.023 0.031-0.031 0.047-0.031 0.043-0.059 0.086-0.090 0.129-0.008 0.008-0.012 0.020-0.020 0.027-1.469 2.137-3.691 3.57-6.254 4zM16.188 16.188c0.508-0.508 0.945-1.070 1.313-1.676v-2.785c0-0.082-0.063-0.145-0.145-0.145h-0.867c-0.082 0-0.145 0.063-0.145 0.145v1.008h-1.152v-5.625c0-0.082-0.063-0.145-0.145-0.145h-0.863c-0.082 0-0.145 0.063-0.145 0.145v1.012h-1.152v-1.012c0-0.082-0.063-0.145-0.145-0.145h-0.867c-0.082 0-0.145 0.063-0.145 0.145v1.012h-1.152v-1.012c0-0.188-0.254-0.145-0.371-0.145v-1.199c0.262-0.063 0.539-0.109 0.813-0.109 0.344 0 0.656 0.137 0.992 0.137 0.145 0 0.875-0.035 0.875-0.254v-1.891c0-0.082-0.063-0.145-0.145-0.145-0.164 0-0.477 0.137-0.758 0.137-0.309 0-0.66-0.137-1.027-0.137-0.254 0-0.504 0.035-0.75 0.090v-0.152c0.172-0.082 0.289-0.262 0.289-0.449 0-0.656-0.992-0.656-0.992 0 0 0.187 0.117 0.371 0.289 0.449v3.523c-0.117 0-0.371-0.043-0.371 0.145v1.012h-1.152v-1.012c0-0.082-0.063-0.145-0.145-0.145h-0.867c-0.082 0-0.145 0.063-0.145 0.145v1.012h-1.152v-1.012c0-0.082-0.063-0.145-0.145-0.145h-0.863c-0.082 0-0.145 0.063-0.145 0.145v5.625h-1.156v-1.008c0-0.082-0.063-0.145-0.145-0.145h-0.863c-0.082 0-0.145 0.063-0.145 0.145v2.785c0.367 0.605 0.805 1.168 1.313 1.676 0.805 0.805 1.738 1.434 2.781 1.875 0.543 0.23 1.102 0.402 1.676 0.516v-2.961c0-2.289 3.461-2.289 3.461 0v2.961c0.574-0.113 1.133-0.289 1.676-0.516 1.043-0.441 1.977-1.070 2.781-1.875z"></path>
</svg>
