<svg xmlns="http://www.w3.org/2000/svg" width="10" height="20" viewBox="0 0 10 20">
<path d="M8.195 15.277l-0.551 0.961-0.18 3.133c0 0.348-1.105 0.629-2.465 0.629s-2.465-0.281-2.465-0.629l-0.227-3.102-0.582-0.992c1.609 0.676 4.922 0.652 6.469 0zM0.539 5.383l0.531 4.902c0.23-0.781 0.813-1.836 1.563-2.156 0.246-0.105 0.496-0.105 0.73 0.035 0.203 0.117 0.375 0.363 0.395 0.461 0.047 0.254-0.078 0.355-0.176 0.355-0.117 0-0.207-0.18-0.266-0.285-0.16-0.285-0.402-0.297-0.66-0.109-0.27 0.195-0.504 0.523-0.668 0.809-0.199 0.344-0.367 0.723-0.469 1.102-0.059 0.219-0.113 0.57-0.023 0.777 0.039 0.086 0.098 0.141 0.191 0.141 0.195 0 0.48-0.258 0.617-0.395 0.176-0.176 0.402-0.449 0.488-0.625l0.203-0.605c0.102-0.266 0.387-0.219 0.387 0 0 0.398-0.145 0.531-0.391 1.355-0.227 0.762-0.297 1.008-0.297 1.008-0.027 0.109-0.133 0.293-0.246 0.293-0.047 0-0.082-0.016-0.102-0.047-0.039-0.055-0.035-0.207-0.031-0.246 0.008-0.125 0.246-0.867 0.285-0.984-0.078 0.086-0.16 0.172-0.25 0.258-0.211 0.199-0.551 0.461-0.84 0.461-0.133 0-0.219-0.035-0.301-0.094l0.297 3.109c0.078 0.195 1.531 0.668 3.445 0.668 1.918 0 3.371-0.477 3.445-0.668l0.426-3.695c-0.223 0.203-0.48 0.453-0.766 0.578-0.211 0.090-0.68 0.148-0.68-0.223 0-0.203 0.355-0.578 0.563-0.84 0.055-0.066 0.184-0.23 0.184-0.316 0-0.113-0.234-0.086-0.457 0.098-0.125 0.105-0.242 0.246-0.34 0.379-0.168 0.234-0.258 0.438-0.332 0.605-0.242 0.555-0.16 0.336-0.355 0.859-0.195 0.52-0.164 0.461-0.203 0.547-0.035 0.074-0.086 0.137-0.156 0.176-0.074 0.039-0.176 0.035-0.238-0.012-0.035-0.023-0.051-0.074-0.051-0.145 0-0.035 0.004-0.070 0.012-0.105 0.059-0.238 0.305-0.707 0.586-1.34 0.063-0.145 0.039-0.102 0.031-0.090-0.242 0.234-0.426 0.348-0.563 0.41-0.227 0.102-0.508 0.102-0.566-0.16-0.004-0.016-0.004-0.031-0.008-0.047-0.461 0.359-0.949 0.457-0.781-0.316-0.18 0.32-0.492 0.582-0.875 0.582-0.16 0-0.277-0.055-0.336-0.199-0.090-0.215 0.051-0.582 0.18-0.93 0.066-0.176 0.156-0.387 0.277-0.633 0.062-0.133 0.164-0.211 0.297-0.176 0.023 0.008 0.043 0.016 0.063 0.027 0.102 0.070 0.063 0.176 0.012 0.281-0.148 0.293-0.277 0.508-0.363 0.813-0.035 0.129-0.078 0.352 0.059 0.352 0.094 0 0.184-0.031 0.27-0.094 0.18-0.133 0.324-0.332 0.434-0.527 0.078-0.141 0.172-0.324 0.219-0.48 0.020-0.066 0.043-0.129 0.070-0.188 0.043-0.098 0.102-0.199 0.203-0.199 0.051 0 0.094 0.020 0.125 0.059 0.066 0.086 0.051 0.176 0.016 0.27-0.078 0.219-0.184 0.414-0.27 0.652-0.051 0.137-0.105 0.313-0.105 0.457 0 0.133 0.145 0.102 0.266 0.047 0.094-0.043 0.188-0.109 0.266-0.176 0.047-0.191 0.035-0.148 1.031-2.664 0.051-0.129 0.145-0.184 0.238-0.184 0.047 0 0.086 0.016 0.125 0.043 0.066 0.051 0.066 0.16 0.039 0.242-0.027 0.074-0.023 0.051-0.176 0.41-0.203 0.473-0.336 0.813-0.516 1.246-0.074 0.18-0.301 0.738-0.34 0.871-0.023 0.086-0.051 0.227 0.039 0.227 0.211 0 0.754-0.512 0.902-0.664 0.008-0.012 0.020-0.016 0.035-0.023 0.023-0.074 0.047-0.145 0.066-0.215 0.055-0.148 0.105-0.32 0.207-0.441 0.031-0.039 0.066-0.062 0.105-0.062 0.109 0 0.164 0.047 0.164 0.156 0 0.043-0.027 0.199-0.043 0.242 0.055-0.059 0.113-0.117 0.176-0.176 0.586-0.543 1.004-0.266 1.004 0.008 0 0.289-0.348 0.691-0.539 0.914-0.063 0.074-0.191 0.211-0.195 0.25 0 0.051 0.035 0.070 0.086 0.070 0.078 0 0.25-0.137 0.312-0.184 0.195-0.152 0.461-0.387 0.648-0.551l0.578-5.344c-1.191 0.668-7.719 0.672-8.918 0.008zM9.512 5.051c0 0.82-9.031 0.82-9.031 0 0-0.344 2.023-0.621 4.516-0.621 0.352 0 0.695 0.004 1.027 0.016l0.492-1.902 2.395-2.52c0.055-0.055 0.227-0.008 0.387 0.137s0.258 0.309 0.207 0.363l-0.004 0.004-2.238 2.363-0.391 1.59c1.559 0.102 2.641 0.316 2.641 0.57zM6.801 5.23c0-0.031-0.035-0.059-0.098-0.082l-0.008 0.031c0 0.051-0.195 0.094-0.434 0.094s-0.434-0.043-0.434-0.094c0-0.004 0-0.008 0.004-0.012l0.008-0.027c-0.070 0.023-0.117 0.055-0.117 0.090 0 0.082 0.242 0.145 0.535 0.145 0.301 0.004 0.543-0.063 0.543-0.145z"></path>
</svg>
