<svg xmlns="http://www.w3.org/2000/svg" width="15" height="20" viewBox="0 0 15 20">
<path d="M6.711 19.68c0-0.207 0.188-0.477 0.188-0.871 0-0.594-0.508-1.559-3.051-3.383-1.34-1.137-2.598-2.285-2.598-4.23 0-4.48 5.746-6.895 5.746-10.492 0-0.129-0.008-0.262-0.023-0.391 0.199 0.094 1.527 1.691 1.527 3.531 0 3.145-4.105 5.047-4.105 7.93 0 1.051 0.648 1.844 1.273 2.715 0.879 1.18 1.727 2.223 1.727 3.379-0.004 0.566-0.172 1.16-0.684 1.813zM12.414 10.25c0.059 0.328 0.086 0.648 0.086 0.961 0 2.023-1.148 3.809-2.629 5.344-0.039 0.039-0.086 0.094-0.125 0.094-0.141 0-1.387-1.625-1.387-2.078 0 0 1.633-2.176 1.633-3.785 0-0.422-0.105-0.848-0.355-1.305-0.059 1.262-2.176 3.426-2.27 3.426-0.105 0-0.699-0.859-0.699-1.645 0-0.207 0.039-0.418 0.125-0.617 0.094-0.215 2.211-2.813 2.211-4.559 0-0.242-0.039-0.469-0.133-0.668l-0.156-0.281c0.652 0.254 3.227 2.504 3.699 5.113z"></path>
</svg>
