<svg xmlns="http://www.w3.org/2000/svg" width="18" height="20" viewBox="0 0 18 20">
<path d="M9.875 5.805c0 0.344-0.063 0.691-0.133 1.031-0.227 1.086-0.453 2.18-0.676 3.266-0.055 0.246-0.324 0.191-0.535 0.191-0.93 0-1.191-1.016-1.191-1.777 0-1.145 0.438-2.66 1.504-3.246 0.168-0.098 0.359-0.164 0.551-0.164 0.445 0 0.48 0.324 0.48 0.699zM17.5 3.125v13.75c0 1.035-0.84 1.875-1.875 1.875h-13.75c-1.035 0-1.875-0.84-1.875-1.875v-13.75c0-1.035 0.84-1.875 1.875-1.875h13.75c1.035 0 1.875 0.84 1.875 1.875zM15 10.43c0-0.199-0.813-1.473-0.996-1.543-0.086-0.035-0.281-0.090-0.375-0.090-0.902 0-1.512 0.41-2.273 0.84l-0.020-0.020c0.168-1.148 0.57-2.234 0.57-3.414 0-1.742-0.93-2.449-2.637-2.449-2.801 0-4.219 2.766-4.219 4.824 0 2.137 1.25 3.32 3.371 3.32 0.293 0 0.27-0.023 0.27 0.090-0.41 3.137-2.207 3.238-2.207 2.301 0-0.953 1.094-1.426 1.105-1.484-0.008-0.297-1.145-0.672-1.434-0.672-0.824 0-1.277 1.289-1.277 1.977 0 1.262 0.797 2.137 2.082 2.137 1.883 0 3.258-1.941 3.684-3.582 0.367-1.473 0.273-1.539 0.48-1.645 0.781-0.395 1.398-0.656 2.281-0.656 0.434 0 0.742 0.090 1.434 0.203 0.070 0.004 0.16-0.066 0.16-0.137z"></path>
</svg>
