<svg xmlns="http://www.w3.org/2000/svg" width="20" height="20" viewBox="0 0 20 20">
<path d="M11.762 8.281c0.172 0.172 0.172 0.465 0 0.637l-0.379 0.379c-0.172 0.184-0.465 0.184-0.648 0l-0.41-0.41c-0.172-0.184-0.172-0.465 0-0.648l0.379-0.379c0.172-0.172 0.465-0.172 0.648 0l0.41 0.422zM10.582 7.512c0.117-0.117 0.117-0.305 0-0.41-0.109-0.117-0.293-0.117-0.41 0-0.109 0.109-0.109 0.293 0 0.41 0.121 0.109 0.305 0.109 0.41 0zM9.566 7.719c-0.117 0.109-0.117 0.293 0 0.398 0.109 0.117 0.293 0.117 0.41 0 0.109-0.109 0.109-0.293 0-0.398-0.117-0.117-0.301-0.117-0.41 0zM12.398 7.199c-0.777-0.563-1.32-1.687-0.465-2.66 0.844-0.973 1.59-0.672 2.336 0.031 0.465 0.441 1.145 0.973 0.672 1.883-0.488 0.918-1.762 1.297-2.543 0.746zM14.262 5.461c-0.348-0.391-0.91 0.27-0.605 0.629 0.289 0.352 1.254 0.094 0.605-0.629zM19.688 10c0 5.352-4.336 9.688-9.688 9.688s-9.688-4.336-9.688-9.688 4.336-9.688 9.688-9.688 9.688 4.336 9.688 9.688zM17.102 11.664c0.098-0.629-0.789-0.648-0.984-1.004-0.531-0.941-1.082-1.438-2.129-1.188 0.453-0.313 0.918-0.238 0.918-0.238 0.012-0.25 0-0.508-0.367-0.973 0.152-0.488 0.012-0.875 0.012-0.875 0.605-0.336 1.047-0.953 1.137-1.687 0.141-1.211-0.734-2.313-1.945-2.453-0.863-0.098-1.707 0.301-2.121 1.004-0.906 1.566 0.055 2.77 0.875 3.18-0.563-0.055-1.34-0.465-1.566-1.34-0.258-1.004 0.109-1.945 0.348-2.398 0 0-0.172-0.227-0.313-0.348 0 0-0.539 0-0.961 0.207 0.465-0.594 0.984-0.563 0.984-0.563 0-0.25-0.023-0.582-0.141-0.844-0.211-0.43-0.93-0.504-1.238 0.109 0.004-0.008 0.012-0.016 0.016-0.020-0.195 0.465-0.043 2.184 0.66 3.406-0.098 0.055-0.355 0.238-0.508 0.391-0.844 0.379-2.195 2.355-2.195 2.355-1.102 0.422-3.016 1.988-2.758 3.113 0.012 0.117 0.055 0.215 0.117 0.293-0.109 0.086-0.215 0.195-0.324 0.324-0.465 0.539-0.207 1.375 0.691 0.953 0.617-0.281 1.156-0.789 1.418-1.187 0 0-0.215-0.195-0.637-0.172 1.082-0.258 1.34-0.367 1.805-0.355 0.313 0.152 0.313-1.34 0.313-1.34 0-0.574-0.086-1.211-0.434-1.621 0.488 0.477 1.137 1.277 1.094 2.367-0.031 0.715-0.594 0.898-0.594 0.898-0.355 0.648-1.688 2.574-1.188 4.141 0 0-0.379-0.582-0.398-0.863-0.68 0.758-1.816 2.043-0.961 2.52 1.039 0.574 4.25-3.461 4.93-5.559 1.352-0.813 2.164-1.848 2.496-2.539 0.859 1.699 3.723 3.691 3.949 2.305z"></path>
</svg>
