<svg xmlns="http://www.w3.org/2000/svg" width="15" height="20" viewBox="0 0 15 20">
<path d="M2.395 7.395c-0.043 0.391 0.203 0.746 0.203 0.746 0.027-0.293 0.086-0.5 0.156-0.648 0.016 0.402 0.125 0.918 0.5 1.332 0.27 0.297 1.391 0.91 2.145 0.238 0.039 0.094 0.082 0.207 0.117 0.332 0.113 0.402-0.105 0.988-0.105 0.988s0.59-0.668 0.543-1.27c0.422-0.020 0.836-0.328 0.824-0.762 0 0-0.738 0.406-1.387-0.344-0.379-0.438-1.598-1.641-3.246-1.242 0.168 0.039 0.348 0.094 0.527 0.16h-0.004c-0.164 0.078-0.254 0.277-0.273 0.469zM3.5 7.324c0.762 0.43 1.461 1.004 1.754 1.445-0.223 0.129-0.848 0.406-1.484-0.066-0.402-0.297-0.383-1.023-0.27-1.379zM6.594 16.453c0.086 0.090 0.059 0.207 0.035 0.266-0.043 0.105-0.215 0.453-0.508 0.773-0.105 0.113-0.258 0.18-0.43 0.18-0.168 0-0.34-0.063-0.461-0.168-0.090-0.082-0.398-0.371-0.535-0.727-0.051-0.133-0.039-0.238 0.035-0.316 0.051-0.051 0.156-0.113 0.371-0.113h1.148c0.16 0 0.273 0.035 0.344 0.105zM9.051 9.113c-0.047 0.605 0.543 1.27 0.543 1.27s-0.219-0.586-0.105-0.988c0.035-0.125 0.078-0.234 0.117-0.332 0.754 0.676 1.875 0.059 2.141-0.238 0.375-0.414 0.48-0.93 0.5-1.332 0.070 0.148 0.133 0.355 0.156 0.648 0 0 0.25-0.355 0.203-0.746-0.023-0.195-0.113-0.391-0.273-0.461h-0.004c0.18-0.070 0.359-0.125 0.527-0.16-1.652-0.398-2.867 0.805-3.246 1.242-0.652 0.75-1.387 0.344-1.387 0.344-0.008 0.426 0.406 0.738 0.828 0.754zM9.746 8.77c0.293-0.445 0.992-1.016 1.754-1.445 0.117 0.355 0.133 1.082-0.273 1.383-0.637 0.473-1.258 0.195-1.48 0.063-0.004 0.004 0 0 0 0zM10.273 16.461c0.074 0.074 0.086 0.18 0.035 0.309-0.137 0.348-0.445 0.629-0.535 0.707-0.121 0.102-0.289 0.164-0.461 0.164s-0.324-0.063-0.43-0.176c-0.293-0.313-0.469-0.652-0.508-0.754-0.023-0.059-0.051-0.172 0.035-0.262 0.066-0.070 0.184-0.105 0.348-0.105h1.148c0.211 0.004 0.316 0.066 0.367 0.117zM6.434 6.637c0.387 0.234 0.734 0.316 1.066 0.324 0.332-0.008 0.68-0.090 1.066-0.324 0 0-0.566 0.691-1.062 0.695h-0.008c-0.496-0.008-1.063-0.695-1.063-0.695zM13.641 12.395c-0.094 0.699-0.508 1.32-0.961 1.707-0.121-0.887-0.145-2.168-0.145-2.438 0-0.574 0.371-0.957 0.477-1.020 0.098-0.059 0.211-0.117 0.324-0.18 0.703-0.375 1.578-0.844 1.578-1.707 0-0.633-0.363-0.906-0.602-1.086-0.031-0.023-0.059-0.043-0.086-0.066-0.082-0.066-0.145-0.117-0.168-0.172-0.172-0.383-0.141-1.336-0.066-1.469 0.023-0.023 0.652-0.816 0.461-1.531-0.078-0.289-0.27-0.52-0.551-0.664-0.207-0.105-0.465-0.164-0.762-0.176-0.004-0.078-0.020-0.152-0.035-0.23-0.023-0.102-0.043-0.207-0.035-0.316 0.016-0.184 0.031-0.352 0.086-0.441 0.328-0.52 1.125-0.688 1.133-0.688l0.48-0.094-0.316-0.371c-0.004-0.008-0.676-0.684-1.809-0.684-0.309 0-0.625 0.051-0.941 0.152-0.945 0.305-1.676 1.191-1.93 1.535-0.121-0.039-0.246-0.074-0.375-0.105-0.164-0.617 0.352-1.504 0.352-1.504s-0.531-0.117-1.316 0.594c-0.102-0.254-0.316-0.801-0.070-1.453-1.152 0.406-1.441 1.027-1.527 1.59-0.297-0.211-0.262-0.902-0.281-1.078-0.293 0.035-1.141 0.855-1.102 1.887-0.078 0.020-0.152 0.043-0.23 0.066-0.254-0.344-0.98-1.23-1.93-1.535-0.309-0.086-0.625-0.137-0.934-0.137-1.133 0-1.801 0.676-1.809 0.684l-0.316 0.367 0.48 0.094c0.008 0 0.805 0.168 1.133 0.688 0.055 0.086 0.070 0.258 0.086 0.441 0.008 0.109-0.016 0.215-0.035 0.316-0.016 0.074-0.031 0.152-0.035 0.23-0.301 0.012-0.555 0.070-0.762 0.176-0.281 0.145-0.473 0.375-0.551 0.664-0.195 0.711 0.438 1.504 0.461 1.531 0.074 0.133 0.105 1.086-0.066 1.469-0.023 0.055-0.086 0.105-0.168 0.172-0.027 0.020-0.055 0.043-0.086 0.066-0.238 0.18-0.602 0.457-0.602 1.086 0 0.863 0.875 1.332 1.578 1.707 0.117 0.063 0.227 0.121 0.324 0.18 0.105 0.063 0.477 0.445 0.477 1.020 0 0.27-0.023 1.551-0.145 2.438-0.453-0.387-0.867-1.012-0.961-1.711 0 0-1.141 0.883-0.805 2.766 0.203 1.152 0.906 1.801 1.836 2.137 0.344 0.746 1.148 1.785 2.629 1.938 0.563 0.461 1.344 0.762 2.484 0.762h0.008c1.137 0 1.918-0.301 2.484-0.762 1.48-0.152 2.285-1.191 2.629-1.938 0.93-0.34 1.629-0.984 1.836-2.137 0.32-1.891-0.824-2.77-0.824-2.77zM11.941 1.473c0.219-0.070 0.453-0.105 0.691-0.105 0.43 0 0.777 0.117 0.965 0.195-0.121 0.055-0.25 0.125-0.379 0.207-0.094-0.016-0.219-0.031-0.359-0.031-0.41 0-0.801 0.121-1.121 0.348-0.48 0.34-0.703 0.66-0.809 0.875-0.086-0.051-0.176-0.098-0.277-0.145-0.063-0.031-0.121-0.059-0.184-0.086 0.238-0.355 0.777-1.035 1.473-1.258zM12.762 2.184c-0.031 0.039-0.063 0.082-0.090 0.125-0.129 0.203-0.152 0.453-0.172 0.695-0.020 0.25-0.043 0.488-0.172 0.664-0.164 0.031-0.316 0.066-0.449 0.105-0.090-0.121-0.219-0.273-0.41-0.438 0.055-0.187 0.215-0.629 0.527-0.879 0.219-0.168 0.477-0.262 0.766-0.273zM1.781 1.77c-0.129-0.086-0.258-0.156-0.379-0.207 0.187-0.078 0.535-0.195 0.965-0.195 0.238 0 0.469 0.035 0.691 0.105 0.695 0.227 1.234 0.906 1.473 1.254-0.063 0.027-0.125 0.055-0.188 0.086-0.098 0.047-0.191 0.098-0.277 0.145-0.102-0.211-0.324-0.535-0.809-0.875-0.324-0.227-0.711-0.348-1.125-0.348-0.133 0.004-0.258 0.020-0.352 0.035zM3.527 3.336c-0.191 0.164-0.324 0.313-0.41 0.438-0.133-0.035-0.285-0.074-0.449-0.105-0.129-0.172-0.148-0.41-0.168-0.66-0.020-0.242-0.043-0.492-0.172-0.695-0.027-0.043-0.059-0.086-0.090-0.125 0.289 0.012 0.547 0.102 0.762 0.273 0.313 0.246 0.473 0.688 0.527 0.875zM2.27 10.152c-0.105-0.063-0.219-0.121-0.328-0.18-0.582-0.313-1.18-0.637-1.18-1.191 0-0.434 0.168-0.57 0.348-0.711l0.020-0.016c0.027-0.023 0.055-0.047 0.086-0.070-0.035 0.281-0.074 0.52-0.105 0.582 0 0 0.473-0.586 0.613-1.73 0.055-0.449-0.043-1.34-0.199-1.68 0.008 0.191 0 0.383-0.012 0.563-0.016-0.031-0.031-0.063-0.051-0.086-0.125-0.156-0.461-0.684-0.367-1.039 0.035-0.137 0.121-0.234 0.262-0.305 0.148-0.074 0.344-0.113 0.59-0.113 0.48 0 1.012 0.145 1.285 0.234 0.98 0.313 2.164 1.207 2.504 1.473 0.008 0.008 0.016 0.012 0.016 0.012l0.219 0.152-0.137-0.227c-0.008-0.012-0.746-1.227-2.078-1.816 0.078-0.113 0.289-0.316 0.844-0.59 0.836-0.41 1.816-0.617 2.902-0.617 1.090 0 2.066 0.207 2.902 0.617 0.555 0.27 0.766 0.477 0.844 0.59-1.328 0.59-2.066 1.805-2.074 1.816l-0.137 0.227 0.219-0.152s0.008-0.004 0.016-0.012c0.34-0.266 1.523-1.164 2.504-1.473 0.273-0.086 0.805-0.234 1.285-0.234 0.246 0 0.441 0.039 0.59 0.113 0.137 0.070 0.223 0.172 0.262 0.305 0.098 0.355-0.238 0.883-0.367 1.039-0.020 0.023-0.035 0.051-0.051 0.086-0.012-0.18-0.020-0.371-0.012-0.563-0.156 0.344-0.254 1.23-0.199 1.68 0.141 1.145 0.613 1.73 0.613 1.73-0.031-0.063-0.070-0.301-0.105-0.582 0.027 0.023 0.059 0.047 0.086 0.070l0.020 0.016c0.18 0.145 0.348 0.277 0.348 0.711 0 0.555-0.602 0.879-1.18 1.191-0.113 0.059-0.223 0.121-0.328 0.18-0.34 0.195-0.703 0.652-0.746 1.336-0.035 0.57 0.035 1.949 0.133 2.965-0.484 0.188-1.043 0.25-1.551 0.266-0.078-0.16-0.152-0.332-0.215-0.512-0.027-0.078-0.766-1.996-1.031-2.43 0.215 1.523 0.684 2.879 0.918 3.5-0.137-0.020-0.285-0.027-0.457-0.027h-4.57c-0.172 0-0.324 0.012-0.457 0.027 0.234-0.621 0.707-1.977 0.918-3.5-0.266 0.438-1.004 2.355-1.031 2.43-0.063 0.18-0.137 0.352-0.215 0.512-0.508-0.016-1.063-0.078-1.551-0.266 0.098-1.016 0.168-2.391 0.133-2.965-0.035-0.68-0.402-1.141-0.742-1.336zM1.359 15.805c-0.473-0.781-0.34-2.113-0.145-2.309 0.426 1.344 1.844 1.73 2.906 1.773-0.105 0.164-0.203 0.297-0.273 0.391l-0.055 0.055c-0.281 0.305-0.336 0.723-0.16 1.242-0.887-0.004-1.809-0.383-2.273-1.152zM3.145 17.504c0.234 0.043 0.477 0.074 0.727 0.094 0.137 0.313 0.289 0.621 0.48 0.902-0.563-0.23-0.953-0.625-1.207-0.996zM7.5 19.461c-2.367-0.004-3.059-1.789-3.316-2.527-0.145-0.41-0.133-0.711 0.035-0.902 0.113-0.129 0.371-0.281 0.961-0.281h4.641c0.59 0 0.852 0.152 0.961 0.281 0.164 0.188 0.176 0.492 0.035 0.902-0.258 0.734-0.949 2.523-3.316 2.527zM10.648 18.5c0.191-0.281 0.344-0.59 0.48-0.902 0.25-0.020 0.492-0.051 0.727-0.094-0.254 0.371-0.645 0.766-1.207 0.996zM13.641 15.805c-0.469 0.77-1.391 1.145-2.27 1.16 0.176-0.52 0.121-0.941-0.16-1.242-0.016-0.020-0.035-0.039-0.055-0.059-0.070-0.094-0.168-0.227-0.273-0.391 1.063-0.047 2.48-0.43 2.906-1.773 0.195 0.195 0.328 1.527-0.148 2.305z"></path>
</svg>
