<svg xmlns="http://www.w3.org/2000/svg" width="16" height="20" viewBox="0 0 16 20">
<path d="M12.656 12.492h-0.516v1.355c-0.957 0.902-2.199 1.398-3.512 1.398-2.859 0-5.172-2.352-5.172-5.25 0-2.895 2.313-5.25 5.172-5.25 1.379 0 2.68 0.547 3.656 1.539l2.434-2.473c-1.633-1.652-3.793-2.563-6.098-2.563-4.793 0-8.621 3.93-8.621 8.75 0 4.785 3.789 8.75 8.621 8.75 2.469 0 4.863-1.023 6.68-3.223-0.078-1.078-0.523-3.035-2.645-3.035zM12.184 8.098h-4.152v3.477h4.625c1.309 0 2.363 0.59 2.969 1.633v-1.195c0-2.547-1.578-3.914-3.441-3.914z"></path>
</svg>
