<svg xmlns="http://www.w3.org/2000/svg" width="18" height="20" viewBox="0 0 18 20">
<path d="M15.922 2.5h-14.336c-0.863 0-1.586 0.723-1.586 1.586v5.281c0 4.871 3.895 8.758 8.758 8.758 4.844 0 8.742-3.887 8.742-8.758v-5.281c0-0.875-0.691-1.586-1.578-1.586zM9.594 12.988c-0.484 0.461-1.227 0.434-1.656 0-4.441-4.254-4.488-4.105-4.488-4.813 0-0.66 0.539-1.199 1.199-1.199 0.664 0 0.629 0.148 4.109 3.488 3.539-3.395 3.461-3.488 4.121-3.488s1.199 0.539 1.199 1.199c0 0.695-0.113 0.613-4.484 4.813z"></path>
</svg>
