<svg xmlns="http://www.w3.org/2000/svg" width="23" height="20" viewBox="0 0 23 20">
<path d="M22.098 4.613c-0.090-0.238-0.363-0.359-0.598-0.258-0.223 0.094-0.332 0.348-0.246 0.57 0.426 1.133 0.66 2.363 0.66 3.645 0 5.258-3.918 9.598-8.992 10.262v-4.832c0.309-0.059 0.605-0.141 0.898-0.242v4.063c4.168-1.012 7.262-4.77 7.262-9.25 0-3.586-1.984-6.711-4.914-8.332-0.223-0.125-0.508-0.035-0.621 0.195-0.105 0.215-0.023 0.477 0.184 0.59 2.652 1.469 4.449 4.297 4.449 7.547 0 3.645-2.262 6.762-5.461 8.023v-3.602c0.555-0.176 0.973-0.691 0.973-1.309 0-0.512-0.266-0.953-0.676-1.191 0.324-3.105 1.738-2.289 1.738-3.277v-0.574c0-1.484-3.434-6.32-5.039-6.434-0.098-0.008-0.195-0.008-0.297 0-1.609 0.117-5.043 4.949-5.043 6.434v0.578c0 0.988 1.418 0.168 1.738 3.277-0.414 0.238-0.676 0.68-0.676 1.191 0 0.617 0.414 1.133 0.969 1.309v3.602c-3.199-1.258-5.461-4.375-5.461-8.023 0-3.246 1.797-6.074 4.449-7.547 0.211-0.117 0.289-0.375 0.184-0.59-0.113-0.23-0.395-0.32-0.621-0.195-2.93 1.621-4.914 4.746-4.914 8.332 0 4.48 3.094 8.234 7.262 9.25v-4.063c0.297 0.098 0.59 0.18 0.898 0.242v4.832c-5.070-0.664-8.992-5.004-8.992-10.262 0-1.281 0.234-2.512 0.66-3.645 0.086-0.227-0.023-0.477-0.246-0.57-0.234-0.102-0.508 0.016-0.598 0.258-0.461 1.23-0.715 2.563-0.715 3.957 0 6.059 4.789 11 10.793 11.242v-5.699c0.266 0.016 0.586 0.020 0.914 0v5.695c6.004-0.238 10.793-5.18 10.793-11.238 0-1.395-0.254-2.727-0.715-3.961zM14.293 10.762c0.508 0 0.926 0.41 0.926 0.926 0 0.512-0.414 0.926-0.926 0.926-0.508 0-0.926-0.41-0.926-0.926 0-0.512 0.414-0.926 0.926-0.926zM8.832 12.609c-0.516 0-0.926-0.418-0.926-0.926s0.41-0.926 0.926-0.926c0.512 0 0.926 0.414 0.926 0.926 0 0.508-0.41 0.926-0.926 0.926z"></path>
</svg>
