<svg xmlns="http://www.w3.org/2000/svg" width="18" height="20" viewBox="0 0 18 20">
<path d="M5.473 13.613c0.473 0 1.152 0.082 1.152 0.699 0 0.605-0.543 0.734-1.055 0.734-0.48 0-1.207-0.078-1.207-0.703s0.613-0.73 1.109-0.73zM4.508 9.059c0 0.578 0.258 0.941 0.871 0.941 0.605 0 0.828-0.391 0.828-0.957 0.004-1.344-1.699-1.359-1.699 0.016zM17.5 3.125v13.75c0 1.035-0.84 1.875-1.875 1.875h-13.75c-1.035 0-1.875-0.84-1.875-1.875v-13.75c0-1.035 0.84-1.875 1.875-1.875h13.75c1.035 0 1.875 0.84 1.875 1.875zM8.086 6.785c-0.48 0.188-0.996 0.328-1.52 0.328-1.504-0.863-3.543 0.035-3.543 1.934 0 0.703 0.453 1.676 1.156 1.91v0.027c-0.523 0.23-0.668 1.41 0.027 1.836v0.027c-0.762 0.25-1.262 0.734-1.262 1.57 0 1.438 1.359 1.836 2.555 1.836 1.449 0 2.531-0.523 2.531-2.121 0-1.969-2.816-1.242-2.816-2.309 0-0.375 0.203-0.523 0.551-0.594 1.156-0.215 1.883-1.117 1.883-2.293 0-0.203-0.043-0.398-0.113-0.586 0.188-0.043 0.371-0.090 0.551-0.152v-1.414zM10.305 6.855h-1.547c0.051 0.414 0.043 5.57 0 6.074h1.547c-0.043-0.5-0.047-5.668 0-6.074zM10.48 4.773c0-0.523-0.391-1.023-0.941-1.023-0.559 0-0.961 0.488-0.961 1.023 0 0.531 0.41 1.012 0.961 1.012 0.535 0 0.941-0.488 0.941-1.012zM14.555 6.855h-1.422c0-0.383-0.016-0.766 0.043-1.152h-1.582c0.051 0.285 0.043 0.531 0.043 1.152h-0.668v1.324c0.465-0.074 0.473-0.027 0.668-0.027v0.027h-0.016v2.449c0 1.215 0.176 2.391 1.668 2.391 0.418 0 0.898-0.070 1.27-0.273v-1.367c-0.223 0.152-0.543 0.23-0.816 0.23-0.516 0-0.605-0.504-0.605-0.914v-2.547c0.887 0 1.422 0.027 1.422 0.027v-1.32z"></path>
</svg>
