<svg xmlns="http://www.w3.org/2000/svg" width="19" height="20" viewBox="0 0 19 20">
<path d="M9.688 0.313c-5.348 0-9.688 4.34-9.688 9.688s4.34 9.688 9.688 9.688 9.688-4.34 9.688-9.688-4.34-9.688-9.688-9.688zM6.926 14.844c-2.687 0-4.844-2.168-4.844-4.844s2.156-4.844 4.844-4.844c1.223 0 2.348 0.43 3.242 1.262l-1.313 1.273c-0.516-0.504-1.223-0.746-1.93-0.746-1.676 0-3.016 1.387-3.016 3.051s1.336 3.051 3.016 3.051c1.273 0 2.535-0.746 2.738-2.082h-2.738v-1.664h4.566c0.051 0.266 0.074 0.531 0.074 0.809 0 2.766-1.855 4.734-4.641 4.734zM15.918 10.695v1.387h-1.387v-1.387h-1.387v-1.387h1.387v-1.387h1.387v1.387h1.375v1.387h-1.375z"></path>
</svg>
