<svg xmlns="http://www.w3.org/2000/svg" width="25" height="20" viewBox="0 0 25 20">
<path d="M15.081 8.926c0.072 0.379 0.123 0.757 0.123 1.248 0 4.287-2.875 7.326-7.203 7.326-4.144 0-7.5-3.356-7.5-7.5s3.356-7.5 7.5-7.5c2.026 0 3.714 0.737 5.024 1.965l-2.036 1.954c-0.553-0.532-1.525-1.156-2.988-1.156-2.558 0-4.645 2.118-4.645 4.737s2.087 4.737 4.645 4.737c2.967 0 4.083-2.138 4.256-3.233h-4.256v-2.578h7.081zM22.323 9.177v-2.177h-2.188v2.177h-2.177v2.188h2.177v2.177h2.188v-2.177h2.177v-2.188h-2.177z"></path>
</svg>
