<svg xmlns="http://www.w3.org/2000/svg" width="18" height="20" viewBox="0 0 18 20">
<path d="M6.125 4.953c1.469 2.367 2.508 4.418 3.293 6.348-0.324 1.32-0.734 2.598-1.223 3.84-0.516-2.043-1.035-3.957-2.188-5.801 0.254-1.422 0.090-2.875 0.117-4.387zM4.27 7.813h-3.641c-0.254 0-0.41 0.293-0.254 0.496 1.648 2.121 2.801 4.602 3.582 7.316h4.043c-0.633-2.723-1.512-5.223-3.223-7.559-0.117-0.156-0.313-0.254-0.508-0.254zM6.137 4.375c2.676 4.219 5.078 9.16 5.398 14.375h4.441c-0.469-5.391-2.672-10.352-5.594-14.375h-4.246zM15.973 1.699c-0.070-0.266-0.32-0.449-0.594-0.449h-3.449c-0.207 0-0.352 0.195-0.305 0.402 0.516 1.816 0.871 3.73 1.035 5.703 1.883 3.367 3.113 6.965 3.539 10.578 0.617-2.363 0.988-5.215 0.988-7.93 0-2.875-0.473-5.668-1.215-8.305z"></path>
</svg>
