<svg xmlns="http://www.w3.org/2000/svg" width="15" height="20" viewBox="0 0 15 20">
<path d="M1.664 15.754h0.109c0.496 0 0.996 0 1.492 0.004 0.062 0 0.121-0.016 0.141 0.082 0.277 1.363 1.172 2.133 2.457 2.496 1.051 0.297 2.113 0.305 3.176 0.070 1.32-0.289 2.188-1.105 2.656-2.359 0.313-0.84 0.418-1.711 0.43-2.598 0.004-0.227 0.012-1.836-0.008-2.063l-0.035-0.012c-0.031 0.059-0.066 0.113-0.098 0.172-0.863 1.684-2.395 2.633-4.117 2.699-4.023 0.156-6.617-2.227-6.719-6.883-0.020-0.926 0.070-1.832 0.324-2.723 0.805-2.777 2.914-4.617 6.012-4.641 2.395-0.016 3.965 1.512 4.539 2.746 0.020 0.043 0.051 0.090 0.094 0.074v-2.406h1.73c0 10.949 0.004 12.977 0.004 12.977-0.004 3.066-1.043 5.613-4.023 6.336-2.715 0.66-6.211 0.188-7.656-2.234-0.313-0.527-0.461-1.105-0.508-1.738zM7.379 1.426c-2.051-0.020-4.238 1.59-4.492 5.227-0.16 2.305 0.578 4.773 2.793 5.805 1.078 0.504 2.902 0.586 4.23-0.34 1.859-1.297 2.449-3.789 2.141-6.016-0.379-2.777-1.867-4.688-4.672-4.676z"></path>
</svg>
