<svg xmlns="http://www.w3.org/2000/svg" width="18" height="20" viewBox="0 0 18 20">
<path d="M15.902 8.25c-0.137-0.055-0.453-0.148-0.602-0.148-1.449 0-2.43 0.656-3.652 1.348l-0.035-0.035c0.273-1.848 0.918-3.59 0.918-5.484 0-2.793-1.492-3.93-4.234-3.93-4.496 0-6.773 4.441-6.773 7.75 0 3.434 2.004 5.336 5.414 5.336 0.469 0 0.43-0.039 0.43 0.148-0.66 5.035-3.547 5.199-3.547 3.695 0-1.531 1.758-2.289 1.777-2.383-0.012-0.477-1.836-1.078-2.301-1.078-1.324 0.004-2.047 2-2.047 3.098 0 2.027 1.281 3.434 3.34 3.434 3.023 0 5.234-3.039 5.914-5.68 0.59-2.363 0.438-2.473 0.77-2.641 1.258-0.633 2.246-1.055 3.664-1.055 0.695 0 1.191 0.145 2.301 0.328 0.113 0 0.262-0.113 0.262-0.227 0-0.313-1.305-2.363-1.598-2.477zM9.055 4.953c-0.363 1.746-0.727 3.5-1.086 5.246-0.090 0.398-0.52 0.305-0.859 0.305-1.496 0-1.914-1.633-1.914-2.855 0-1.836 0.703-4.27 2.414-5.211 0.273-0.16 0.578-0.262 0.883-0.262 0.727 0 0.781 0.52 0.781 1.121-0.004 0.559-0.105 1.113-0.219 1.656z"></path>
</svg>
