<svg xmlns="http://www.w3.org/2000/svg" width="18" height="20" viewBox="0 0 18 20">
<path d="M15.625 1.25h-13.75c-1.035 0-1.875 0.84-1.875 1.875v13.75c0 1.035 0.84 1.875 1.875 1.875h13.75c1.035 0 1.875-0.84 1.875-1.875v-13.75c0-1.035-0.84-1.875-1.875-1.875zM6.406 13.906c-2.16 0-3.906-1.746-3.906-3.906s1.746-3.906 3.906-3.906c1.055 0 1.934 0.383 2.617 1.023l-1.059 1.020c-0.289-0.277-0.793-0.602-1.555-0.602-1.332 0-2.418 1.102-2.418 2.469 0 1.363 1.086 2.469 2.418 2.469 1.547 0 2.125-1.113 2.219-1.684h-2.223v-1.344h3.688c0.039 0.195 0.063 0.395 0.063 0.648 0 2.23-1.496 3.813-3.75 3.813zM15 10.711h-1.133v1.133h-1.141v-1.133h-1.133v-1.141h1.133v-1.133h1.141v1.133h1.133v1.141z"></path>
</svg>
