<svg xmlns="http://www.w3.org/2000/svg" width="19" height="20" viewBox="0 0 19 20">
<path d="M6.48 15.523c0 0.078-0.090 0.141-0.203 0.141-0.129 0.012-0.219-0.051-0.219-0.141 0-0.078 0.090-0.141 0.203-0.141 0.117-0.012 0.219 0.051 0.219 0.141zM5.266 15.348c-0.027 0.078 0.051 0.168 0.168 0.191 0.102 0.039 0.219 0 0.242-0.078s-0.051-0.168-0.168-0.203c-0.102-0.027-0.215 0.012-0.242 0.090zM6.992 15.281c-0.113 0.027-0.191 0.102-0.18 0.191 0.012 0.078 0.113 0.129 0.23 0.102 0.113-0.027 0.191-0.102 0.18-0.18-0.012-0.074-0.117-0.125-0.23-0.113zM9.563 0.313c-5.418 0-9.563 4.113-9.563 9.531 0 4.332 2.727 8.039 6.621 9.344 0.5 0.090 0.676-0.219 0.676-0.473 0-0.242-0.012-1.578-0.012-2.398 0 0-2.734 0.586-3.309-1.164 0 0-0.445-1.137-1.086-1.43 0 0-0.895-0.613 0.063-0.602 0 0 0.973 0.078 1.508 1.008 0.855 1.508 2.289 1.074 2.848 0.816 0.090-0.625 0.344-1.059 0.625-1.316-2.184-0.242-4.387-0.559-4.387-4.316 0-1.074 0.297-1.613 0.922-2.301-0.102-0.254-0.434-1.301 0.102-2.652 0.816-0.254 2.695 1.055 2.695 1.055 0.781-0.219 1.621-0.332 2.453-0.332s1.672 0.113 2.453 0.332c0 0 1.879-1.312 2.695-1.055 0.535 1.355 0.203 2.398 0.102 2.652 0.625 0.691 1.008 1.23 1.008 2.301 0 3.77-2.301 4.070-4.484 4.316 0.359 0.309 0.664 0.895 0.664 1.812 0 1.316-0.012 2.945-0.012 3.266 0 0.254 0.18 0.563 0.676 0.473 3.906-1.297 6.555-5.004 6.555-9.336 0-5.418-4.395-9.531-9.813-9.531zM3.797 13.785c-0.051 0.039-0.039 0.129 0.027 0.203 0.063 0.063 0.152 0.090 0.203 0.039 0.051-0.039 0.039-0.129-0.027-0.203-0.062-0.063-0.152-0.090-0.203-0.039zM3.375 13.469c-0.027 0.051 0.012 0.113 0.090 0.152 0.063 0.039 0.141 0.027 0.168-0.027 0.027-0.051-0.012-0.113-0.090-0.152-0.078-0.023-0.141-0.012-0.168 0.027zM4.641 14.859c-0.063 0.051-0.039 0.168 0.051 0.242 0.090 0.090 0.203 0.102 0.254 0.039 0.051-0.051 0.027-0.168-0.051-0.242-0.086-0.090-0.203-0.102-0.254-0.039zM4.195 14.285c-0.063 0.039-0.063 0.141 0 0.23s0.168 0.129 0.219 0.090c0.063-0.051 0.063-0.152 0-0.242-0.055-0.090-0.156-0.129-0.219-0.078z"></path>
</svg>
