<svg xmlns="http://www.w3.org/2000/svg" width="20" height="20" viewBox="0 0 20 20">
<path d="M10.039 0.313c-5.352 0-9.688 4.336-9.688 9.688s4.336 9.688 9.688 9.688 9.688-4.336 9.688-9.688-4.336-9.688-9.688-9.688zM8.105 14.953l-4.91-4.91 4.91-4.91 1.375 1.383-0.945 0.945-0.434-0.434-3.016 3.016 3.016 3.016 1.039-1.039-2.074-2.066 0.953-0.953 3.016 3.016-2.93 2.938zM11.973 14.867l-1.375-1.375 0.941-0.953 0.434 0.434 3.016-3.016-3.016-3.016-1.035 1.035 2.074 2.066-0.953 0.953-3.016-3.016 2.93-2.93 4.91 4.91-4.91 4.906z"></path>
</svg>
