<svg xmlns="http://www.w3.org/2000/svg" width="18" height="20" viewBox="0 0 18 20">
<path d="M15.625 1.25h-13.75c-1.035 0-1.875 0.84-1.875 1.875v13.75c0 1.035 0.84 1.875 1.875 1.875h13.75c1.035 0 1.875-0.84 1.875-1.875v-13.75c0-1.035-0.84-1.875-1.875-1.875zM10.832 16.238c-0.328 0.059-0.449-0.145-0.449-0.313 0-0.211 0.008-1.289 0.008-2.16 0-0.609-0.203-0.996-0.441-1.199 1.445-0.16 2.969-0.359 2.969-2.855 0-0.711-0.254-1.066-0.668-1.523 0.066-0.168 0.289-0.859-0.066-1.758-0.543-0.168-1.785 0.699-1.785 0.699-0.516-0.145-1.074-0.219-1.625-0.219s-1.109 0.074-1.625 0.219c0 0-1.242-0.867-1.785-0.699-0.355 0.895-0.137 1.586-0.066 1.758-0.414 0.457-0.609 0.813-0.609 1.523 0 2.484 1.457 2.695 2.902 2.855-0.188 0.168-0.355 0.457-0.414 0.871-0.371 0.168-1.32 0.457-1.887-0.543-0.355-0.617-0.996-0.668-0.996-0.668-0.633-0.008-0.043 0.398-0.043 0.398 0.422 0.195 0.719 0.945 0.719 0.945 0.379 1.16 2.191 0.77 2.191 0.77 0 0.543 0.008 1.426 0.008 1.586 0 0.168-0.117 0.371-0.449 0.313-2.578-0.863-4.383-3.316-4.383-6.184 0-3.586 2.742-6.309 6.328-6.309s6.492 2.723 6.492 6.309c0.004 2.867-1.746 5.324-4.324 6.184zM7 13.852c-0.074 0.016-0.145-0.016-0.152-0.066-0.008-0.059 0.043-0.109 0.117-0.125 0.074-0.008 0.145 0.023 0.152 0.074 0.012 0.051-0.039 0.102-0.117 0.117zM6.629 13.816c0 0.051-0.059 0.094-0.137 0.094-0.086 0.008-0.145-0.035-0.145-0.094 0-0.051 0.059-0.094 0.137-0.094 0.074-0.008 0.145 0.035 0.145 0.094zM6.094 13.773c-0.016 0.051-0.094 0.074-0.16 0.051-0.074-0.016-0.125-0.074-0.109-0.125s0.094-0.074 0.16-0.059c0.078 0.023 0.129 0.082 0.109 0.133zM5.613 13.563c-0.035 0.043-0.109 0.035-0.168-0.023-0.059-0.051-0.074-0.125-0.035-0.16 0.035-0.043 0.109-0.035 0.168 0.023 0.051 0.051 0.070 0.129 0.035 0.16zM5.258 13.207c-0.035 0.023-0.102 0-0.145-0.059s-0.043-0.125 0-0.152c0.043-0.035 0.109-0.008 0.145 0.051 0.043 0.059 0.043 0.129 0 0.16zM5.004 12.828c-0.035 0.035-0.094 0.016-0.137-0.023-0.043-0.051-0.051-0.109-0.016-0.137 0.035-0.035 0.094-0.016 0.137 0.023 0.043 0.051 0.051 0.109 0.016 0.137zM4.742 12.539c-0.016 0.035-0.066 0.043-0.109 0.016-0.051-0.023-0.074-0.066-0.059-0.102 0.016-0.023 0.059-0.035 0.109-0.016 0.051 0.027 0.074 0.070 0.059 0.102z"></path>
</svg>
