<svg xmlns="http://www.w3.org/2000/svg" width="19" height="20" viewBox="0 0 19 20">
<path d="M7.27 12.84c0 0.816-0.426 2.152-1.434 2.152s-1.434-1.336-1.434-2.152 0.426-2.152 1.434-2.152 1.434 1.336 1.434 2.152zM18.75 10.867c0 1.246-0.125 2.566-0.684 3.711-1.48 2.992-5.551 2.922-8.465 2.922-2.961 0-7.273 0.105-8.813-2.922-0.57-1.133-0.789-2.465-0.789-3.711 0-1.637 0.543-3.184 1.621-4.438-0.203-0.617-0.301-1.266-0.301-1.906 0-0.84 0.191-1.262 0.57-2.023 1.77 0 2.902 0.352 4.25 1.406 1.133-0.27 2.297-0.391 3.465-0.391 1.055 0 2.117 0.113 3.141 0.359 1.328-1.043 2.461-1.375 4.211-1.375 0.383 0.762 0.57 1.184 0.57 2.023 0 0.641-0.102 1.277-0.301 1.883 1.074 1.266 1.523 2.824 1.523 4.461zM16.238 12.84c0-1.715-1.043-3.227-2.871-3.227-0.738 0-1.445 0.133-2.188 0.234-0.582 0.090-1.164 0.125-1.762 0.125-0.594 0-1.176-0.035-1.762-0.125-0.73-0.102-1.445-0.234-2.188-0.234-1.828 0-2.871 1.512-2.871 3.227 0 3.43 3.141 3.957 5.875 3.957h1.883c2.746 0 5.883-0.523 5.883-3.957zM13.012 10.688c-1.008 0-1.434 1.336-1.434 2.152s0.426 2.152 1.434 2.152 1.434-1.336 1.434-2.152-0.426-2.152-1.434-2.152z"></path>
</svg>
