<svg xmlns="http://www.w3.org/2000/svg" width="20" height="20" viewBox="0 0 20 20">
<path d="M17.309 0h-14.5c-0.156 1.457-1.348 2.648-2.809 2.801v14.512c1.461 0.191 2.578 1.266 2.809 2.688h14.539c0.117-1.422 1.27-2.57 2.652-2.727v-14.473c-1.422-0.23-2.539-1.379-2.691-2.801zM15.863 15.816c-1.418 0-0.734-0.078-2.152-0.078-1.398 0-0.82 0.078-2.191 0.078-0.23 0-0.191-0.32 0-0.383 0.891-0.297 0.895-0.398 0.961-0.5 0.406-0.609 0.23-3.242 0.23-4.414 0-0.207-0.25-0.5-0.539-0.5h-4.344c-0.289 0-0.539 0.293-0.539 0.5 0 1.172-0.176 3.805 0.23 4.414 0.066 0.098 0.070 0.203 0.961 0.5 0.191 0.063 0.234 0.383 0 0.383-1.371 0-0.793-0.078-2.191-0.078-1.418 0-0.734 0.078-2.152 0.078-0.309 0-0.227-0.422 0-0.422 0.398-0.133 0.527-0.137 0.848-0.539 0.301-0.504 0.309-1.734 0.309-4.992v-3.953c0-0.867-0.477-1.105-1.117-1.266-0.344-0.086-0.156-0.461 0.039-0.461 1.426 0 0.805 0.078 2.23 0.078 1.277 0 0.645-0.078 1.922-0.078 0.129 0 0.332 0.324 0.039 0.422-0.191 0.063-1.078 0.145-1.078 1.535 0 1.781-0.008 2.18 0.039 2.688 0 0.051 0.090 0.5 0.5 0.5h4.266c0.41 0 0.5-0.449 0.5-0.5 0.047-0.508 0.039-0.906 0.039-2.688 0-1.391-0.887-1.473-1.078-1.535-0.293-0.098-0.090-0.422 0.039-0.422 1.277 0 0.645 0.078 1.922 0.078 1.426 0 0.805-0.078 2.23-0.078 0.191 0 0.387 0.375 0.039 0.461-0.641 0.16-1.117 0.402-1.117 1.266v3.953c0 3.258 0.004 4.488 0.309 4.992 0.32 0.398 0.445 0.406 0.848 0.539 0.227 0 0.305 0.422 0 0.422z"></path>
</svg>
