<svg xmlns="http://www.w3.org/2000/svg" width="25" height="20" viewBox="0 0 25 20">
<path d="M0 3.133c0-0.070 0.035-0.105 0.105-0.105h1.598c0.074 0 0.109 0.035 0.109 0.105v3.172c0.594-0.301 1.238-0.449 1.945-0.445 0.938 0.004 1.727 0.242 2.355 0.703 0.73 0.527 1.094 1.246 1.094 2.16v5.316c0 0.074-0.035 0.109-0.105 0.109h-1.066c-0.355 0-0.641-0.285-0.641-0.637v-4.789c0-0.035 0.105-1.055-1.789-1.055-1.898 0-1.789 1.023-1.789 1.055v5.316c0 0.074-0.035 0.109-0.109 0.109h-1.602c-0.070 0-0.105-0.035-0.105-0.109v-10.906zM19.441 11.785c0.535 0.398 1.332 0.746 2.281 0.746 0.91 0 1.281-0.176 1.426-0.531 0.117-0.309-0.023-0.629-0.477-0.828l-2.094-0.918c-0.836-0.367-1.32-0.938-1.453-1.703-0.223-1.316 0.867-2.082 0.887-2.098 0.516-0.375 1.25-0.602 2.285-0.602 0.742 0 1.461 0.129 2.152 0.387 0.051 0.020 0.074 0.051 0.074 0.102v1.746c0 0.082-0.090 0.133-0.156 0.094-1.551-0.809-2.992-0.48-3.281-0.266-0.258 0.191-0.234 0.488 0.102 0.629l2.25 0.988c0.645 0.277 1.098 0.719 1.363 1.332 0.215 0.492 0.258 1 0.121 1.527-0.375 1.441-1.754 1.777-1.781 1.789-0.41 0.121-0.922 0.168-1.418 0.168-0.648 0-1.273-0.105-1.883-0.32-0.379-0.133-0.57-0.402-0.57-0.809v-1.344c0-0.082 0.090-0.145 0.172-0.090zM14.695 5.852c-1.238 0-4.070 0.785-4.070 4.043v7.168c0 0.031 0.023 0.105 0.105 0.105h1.598c0.074 0 0.109-0.035 0.109-0.105v-3.469c0.645 0.496 1.398 0.746 2.254 0.746 2.363 0 4.246-1.895 4.246-4.246 0.004-2.355-1.883-4.242-4.242-4.242zM14.695 12.527c-0.672 0-1.246-0.238-1.719-0.711-0.477-0.477-0.711-1.047-0.711-1.719 0-1.348 1.078-2.43 2.43-2.43 1.348 0 2.43 1.078 2.43 2.43 0.004 1.34-1.066 2.43-2.43 2.43zM9.828 14.039c0 0.074-0.035 0.109-0.109 0.109h-1.598c-0.063 0-0.105-0.055-0.105-0.109v-7.883c0-0.055 0.043-0.109 0.105-0.109h1.598c0.074 0 0.109 0.035 0.109 0.109v7.883zM8.918 2.832c0.621 0 1.129 0.496 1.129 1.129 0 0.617-0.496 1.129-1.129 1.129s-1.129-0.52-1.129-1.129c0.004-0.625 0.508-1.129 1.129-1.129z"></path>
</svg>
