<svg xmlns="http://www.w3.org/2000/svg" width="20" height="20" viewBox="0 0 20 20">
<path d="M10.445 8.266c-0.98 0.926-1.594 2.238-1.594 3.695 0 1.145 0.379 2.199 1.016 3.047l-1.934 1.945c-0.172-0.063-0.355-0.098-0.547-0.098-0.422 0-0.816 0.164-1.113 0.461s-0.461 0.695-0.461 1.117 0.164 0.816 0.461 1.113c0.297 0.297 0.695 0.453 1.113 0.453 0.422 0 0.816-0.152 1.117-0.453 0.297-0.297 0.461-0.695 0.461-1.113 0-0.164-0.023-0.32-0.074-0.473l1.953-1.961c0.859 0.66 1.93 1.051 3.098 1.051 2.809 0 5.078-2.277 5.078-5.086 0-2.547-1.863-4.656-4.305-5.027v-2.406c0.684-0.289 1.102-0.93 1.102-1.676 0-1.020-0.816-1.871-1.836-1.871s-1.824 0.852-1.824 1.871c0 0.746 0.418 1.387 1.102 1.676v2.391c-0.594 0.082-1.156 0.262-1.668 0.531-1.078-0.816-4.59-3.348-6.598-4.875 0.047-0.172 0.078-0.352 0.078-0.539 0-1.125-0.918-2.039-2.047-2.039-1.125 0-2.039 0.914-2.039 2.039 0 1.129 0.914 2.043 2.039 2.043 0.383 0 0.738-0.113 1.047-0.297l6.375 4.48zM13.941 14.656c-1.488 0-2.695-1.207-2.695-2.695s1.207-2.695 2.695-2.695 2.695 1.207 2.695 2.695-1.207 2.695-2.695 2.695z"></path>
</svg>
