<svg xmlns="http://www.w3.org/2000/svg" width="18" height="20" viewBox="0 0 18 20">
<path d="M15.625 1.25h-13.75c-1.035 0-1.875 0.84-1.875 1.875v13.75c0 1.035 0.84 1.875 1.875 1.875h13.75c1.035 0 1.875-0.84 1.875-1.875v-13.75c0-1.035-0.84-1.875-1.875-1.875zM0.828 8.953h-0.008c0.004-0.004 0.008-0.012 0.012-0.016 0 0.004 0 0.012-0.004 0.016zM9.344 11.059v3.941h-1.227v-4.012l-3.117-5.988h1.457c2.051 3.84 1.922 3.953 2.316 4.906 0.48-1.055 0.227-0.953 2.367-4.906h1.359l-3.156 6.059z"></path>
</svg>
