<svg xmlns="http://www.w3.org/2000/svg" width="25" height="20" viewBox="0 0 25 20">
<path d="M19.859 13.75h2.262v-7.629l-2.262 1.066v6.563zM22.738 9.434v4.316h2.262v-4.316h-2.262zM12.945 9.086c-0.711-0.711-1.969-0.668-1.969-0.668s-1.258-0.043-1.969 0.668c-0.074 0.074-0.145 0.152-0.207 0.234-1.492-1.156-2.832-1.816-3.988-2.387v-0.809l-0.879 0.414c-2.125-0.863-3.477-0.711-3.801 0.004 0 0-0.973 1.281 2.418 4.332v-1.211c-1.906-2.133-1.523-2.973-1.379-3.094 0.527-0.445 1.465-0.313 2.516 0.082l-1.141 0.535v2.473c0.512 0.574 1.191 1.23 2.090 1.969l0.176 0.141v-1.164c0-0.27 0.066-0.711 0.422-0.711s0.414 0.27 0.414 0.586v1.902c0.703 0.477 1.457 0.863 2.254 1.156v-3.668c0-0.73-0.523-1.461-1.586-1.461-0.617-0.004-1.191 0.32-1.504 0.855v-2.121c1.637 0.816 3.277 1.816 3.902 2.277-0.398 0.57-0.363 1.098-0.363 1.707 0 0.73-0.055 1.34 0.656 2.051s1.969 0.668 1.969 0.668 1.262 0.043 1.969-0.668c0.711-0.711 0.652-1.32 0.652-2.051 0-0.723 0.059-1.336-0.652-2.043zM11.395 11.895c0 0.141-0.070 0.488-0.418 0.488s-0.418-0.348-0.418-0.488v-1.578c0-0.34 0.285-0.426 0.418-0.426s0.418 0.082 0.418 0.426v1.578zM18.648 9.086c-0.711-0.711-1.969-0.668-1.969-0.668s-1.262-0.043-1.969 0.668c-0.711 0.711-0.656 1.324-0.656 2.055s-0.055 1.34 0.656 2.051c0.711 0.711 1.969 0.668 1.969 0.668s1.262 0.043 1.969-0.668c0.711-0.711 0.656-1.32 0.656-2.051-0.004-0.734 0.051-1.348-0.656-2.055zM17.094 11.895c0 0.141-0.070 0.488-0.418 0.488s-0.418-0.348-0.418-0.488v-1.578c0-0.34 0.285-0.426 0.418-0.426s0.418 0.082 0.418 0.426v1.578zM23.871 9.043c0.621 0 1.129-0.504 1.129-1.129s-0.504-0.957-1.129-0.957c-0.621 0-1.129 0.336-1.129 0.957s0.504 1.129 1.129 1.129zM5.645 13.75l1.496 0.031c-0.516-0.18-1.016-0.398-1.496-0.656v0.625zM4.809 13.75v-1.117c-0.254-0.164-0.508-0.34-0.758-0.531-0.578-0.438-1.074-0.848-1.504-1.23v2.879h2.262zM7.141 13.781c1.426 0.488 2.73 0.555 3.699 0.281-0.777 0.008-1.789-0.102-2.941-0.52v0.207l-0.758 0.031z"></path>
</svg>
