<svg xmlns="http://www.w3.org/2000/svg" width="18" height="20" viewBox="0 0 18 20">
<path d="M8.734 3.137c-3.695 0-6.684 2.996-6.684 6.688s2.988 6.691 6.684 6.691 6.687-2.996 6.687-6.688c0-3.695-2.996-6.691-6.688-6.691zM11.836 12.512c-0.125 0.531-0.527 0.828-1.066 0.93-0.473 0.086-0.867 0.109-1.246-0.195-0.461-0.391-0.469-1.031-0.055-1.438 0.328-0.313 0.793-0.375 1.484-0.5 0.117-0.020 0.219-0.047 0.301-0.145 0.125-0.141 0.086-0.078 0.086-3.156 0-0.219-0.105-0.277-0.328-0.238-0.156 0.027-3.59 0.668-3.59 0.668-0.195 0.043-0.262 0.102-0.262 0.324 0 4.535 0.020 4.328-0.047 4.629-0.082 0.352-0.297 0.617-0.582 0.766-0.324 0.18-0.914 0.258-1.227 0.203-0.836-0.156-1.129-1.121-0.563-1.676 0.328-0.313 0.793-0.375 1.484-0.5 0.117-0.020 0.219-0.047 0.301-0.145 0.195-0.223 0.035-4.961 0.102-5.223 0.016-0.102 0.059-0.188 0.137-0.25 0.082-0.066 0.227-0.105 0.262-0.105 3.945-0.742 4.426-0.836 4.496-0.836 0.223-0.016 0.352 0.117 0.352 0.34-0.004 6.664 0.016 6.305-0.039 6.547zM13.484 1.25h-9.469c-2.223 0-4.016 1.793-4.016 4.016v9.469c0 2.223 1.793 4.016 4.016 4.016h9.469c2.227 0 4.016-1.793 4.016-4.016v-9.469c0-2.223-1.793-4.016-4.016-4.016zM8.734 17.344c-4.152 0-7.52-3.367-7.52-7.52s3.367-7.52 7.52-7.52 7.52 3.367 7.52 7.52-3.367 7.52-7.52 7.52z"></path>
</svg>
