<svg xmlns="http://www.w3.org/2000/svg" width="15" height="20" viewBox="0 0 15 20">
<path d="M14.918 15.164c-0.25 1.070-1.063 1.672-2.152 1.875-0.957 0.176-1.754 0.219-2.52-0.398-0.934-0.785-0.945-2.086-0.105-2.906 0.664-0.633 1.598-0.762 3-1.008 0.234-0.043 0.437-0.098 0.609-0.289 0.25-0.281 0.172-0.16 0.172-6.375 0-0.438-0.215-0.559-0.664-0.48-0.32 0.055-7.254 1.352-7.254 1.352-0.398 0.086-0.523 0.203-0.523 0.652 0 9.168 0.043 8.746-0.098 9.355-0.164 0.711-0.602 1.246-1.18 1.543-0.656 0.363-1.844 0.523-2.477 0.406-1.688-0.316-2.281-2.266-1.137-3.383 0.664-0.633 1.598-0.762 3-1.008 0.234-0.043 0.438-0.098 0.609-0.289 0.395-0.449 0.070-10.023 0.203-10.555 0.031-0.203 0.117-0.375 0.277-0.504 0.164-0.137 0.461-0.215 0.523-0.215 7.969-1.492 8.941-1.684 9.078-1.684 0.449-0.031 0.707 0.234 0.707 0.688 0.008 13.457 0.043 12.734-0.070 13.223z"></path>
</svg>
