<svg xmlns="http://www.w3.org/2000/svg" width="18" height="20" viewBox="0 0 18 20">
<path d="M13.691 11.277c0 0.211 0.063 0.562-0.242 0.562-0.063 0-0.117-0.031-0.148-0.094-0.086-0.199-0.043-1.723-0.043-1.746 0-0.148-0.043-0.496 0.191-0.496 0.285 0 0.242 0.285 0.242 0.496v1.277zM10.352 8.98c0-0.379 0.063-0.625-0.402-0.625v3.27c0.477 0.012 0.402-0.34 0.402-0.719v-1.926zM17.5 3.125v13.75c0 1.035-0.84 1.875-1.875 1.875h-13.75c-1.035 0-1.875-0.84-1.875-1.875v-13.75c0-1.035 0.84-1.875 1.875-1.875h13.75c1.035 0 1.875 0.84 1.875 1.875zM0.832 8.938c-0.004 0.004-0.008 0.012-0.012 0.016h0.012v-0.016zM3.789 7.5h-1.289v4.992h1.289v-4.992zM8.215 7.5h-1.684l-0.297 2.34c-0.105-0.781-0.211-1.566-0.34-2.34h-1.672v4.992h1.133v-3.301l0.477 3.301h0.805l0.453-3.375v3.375h1.121v-4.992zM11.586 9.27c0-0.316 0.012-0.656-0.055-0.953-0.168-0.879-1.227-0.816-1.914-0.816h-0.961v4.992c3.363 0.004 2.93 0.234 2.93-3.223zM14.941 9.945c0-0.676-0.031-1.176-0.867-1.176-0.348 0-0.582 0.105-0.816 0.359v-1.629h-1.238v4.992h1.164l0.074-0.316c0.223 0.266 0.465 0.383 0.816 0.383 0.773 0 0.867-0.594 0.867-1.207v-1.406z"></path>
</svg>
