<svg xmlns="http://www.w3.org/2000/svg" width="18" height="20" viewBox="0 0 18 20">
<path d="M8.754 5.508c-2.484 0-4.488 2.004-4.488 4.488s2.004 4.488 4.488 4.488 4.488-2.004 4.488-4.488-2.004-4.488-4.488-4.488zM8.754 12.914c-1.605 0-2.918-1.309-2.918-2.918s1.309-2.918 2.918-2.918 2.918 1.309 2.918 2.918-1.313 2.918-2.918 2.918zM14.473 5.324c0 0.582-0.469 1.047-1.047 1.047-0.582 0-1.047-0.469-1.047-1.047s0.469-1.047 1.047-1.047 1.047 0.469 1.047 1.047zM17.445 6.387c-0.066-1.402-0.387-2.645-1.414-3.668-1.023-1.023-2.266-1.344-3.668-1.414-1.445-0.082-5.777-0.082-7.223 0-1.398 0.066-2.641 0.387-3.668 1.41s-1.344 2.266-1.414 3.668c-0.082 1.445-0.082 5.777 0 7.223 0.066 1.402 0.387 2.645 1.414 3.668s2.266 1.344 3.668 1.414c1.445 0.082 5.777 0.082 7.223 0 1.402-0.066 2.645-0.387 3.668-1.414 1.023-1.023 1.344-2.266 1.414-3.668 0.082-1.445 0.082-5.773 0-7.219zM15.578 15.156c-0.305 0.766-0.895 1.355-1.664 1.664-1.152 0.457-3.887 0.352-5.16 0.352s-4.012 0.102-5.16-0.352c-0.766-0.305-1.355-0.895-1.664-1.664-0.457-1.152-0.352-3.887-0.352-5.16s-0.102-4.012 0.352-5.16c0.305-0.766 0.895-1.355 1.664-1.664 1.152-0.457 3.887-0.352 5.16-0.352s4.012-0.102 5.16 0.352c0.766 0.305 1.355 0.895 1.664 1.664 0.457 1.152 0.352 3.887 0.352 5.16s0.105 4.012-0.352 5.16z"></path>
</svg>
