<svg xmlns="http://www.w3.org/2000/svg" width="20" height="20" viewBox="0 0 20 20">
<path d="M18.869 6.239c0.424-0.96 0.837-2.361 0.837-3.432 0-2.841-3.111-3.843-8.19-1.507-4.204-0.281-8.251 2.878-9.262 7.283 1.205-1.362 3.057-3.215 4.765-3.951-2.12 1.886-3.928 4.275-5.3 6.764-0.81 1.481-1.718 3.876-1.718 5.665 0 3.851 3.627 3.379 7.041 1.641 1.227 0.603 2.6 0.608 3.972 0.608 3.794 0 7.197-2.121 8.469-5.704h-4.72c-2.051 3.461-7.688 2.070-7.688-1.853h12.843c0.25-1.702-0.065-3.739-1.049-5.514zM2.522 13.55c0.692 1.998 2.098 3.745 3.917 4.817-3.466 1.912-6.768 1.137-3.917-4.817zM7.052 9.297c0.078-2.154 1.964-3.706 4.062-3.706 2.087 0 3.984 1.552 4.062 3.706h-8.123zM14.261 1.969c0.837-0.402 1.897-0.859 2.834-0.859 1.227 0 2.12 0.848 2.12 2.099 0 0.781-0.29 1.914-0.569 2.651-1.027-1.652-2.578-3.187-4.385-3.89z"></path>
</svg>
