<svg xmlns="http://www.w3.org/2000/svg" width="25" height="20" viewBox="0 0 25 20">
<path d="M24.063 6.25h-2.629c-1.465-3.488-4.914-5.938-8.934-5.938-5.352 0-9.688 4.336-9.688 9.688 0 0.641 0.062 1.27 0.184 1.875h-2.059c-0.52 0-0.938 0.422-0.938 0.938 0 0.52 0.418 0.938 0.938 0.938h2.629c1.465 3.488 4.914 5.938 8.934 5.938 5.352 0 9.687-4.336 9.687-9.688 0-0.641-0.063-1.27-0.184-1.875h2.059c0.52 0 0.938-0.422 0.938-0.938 0-0.52-0.418-0.938-0.938-0.938zM20.313 10c0 4.316-3.496 7.813-7.813 7.813-2.957 0-5.531-1.641-6.855-4.063h10.918c0.52 0 0.938-0.422 0.938-0.938 0-0.52-0.418-0.938-0.938-0.938h-11.648c-0.148-0.602-0.227-1.227-0.227-1.875 0-4.316 3.496-7.813 7.812-7.813 2.957 0 5.531 1.641 6.855 4.063h-10.918c-0.52 0-0.938 0.422-0.938 0.938 0 0.52 0.418 0.938 0.938 0.938h11.648c0.148 0.602 0.227 1.227 0.227 1.875zM8.438 9.063h8.125c0.52 0 0.938 0.418 0.938 0.938 0 0.516-0.418 0.938-0.938 0.938h-8.125c-0.52 0-0.938-0.418-0.938-0.938 0-0.516 0.418-0.938 0.938-0.938z"></path>
</svg>
