<svg xmlns="http://www.w3.org/2000/svg" width="19" height="20" viewBox="0 0 19 20">
<path d="M8.887 18.309c-0.352-0.531-0.777-1.301-0.926-1.656-0.223-0.535-1.062-1.781 1.219-2.621 2.020-0.746 6.902-0.645 8.156-0.688-0.156 0.352-0.336 0.699-0.543 1.039-1.578 2.559-4.313 3.965-7.109 3.965-0.266 0-0.531-0.016-0.797-0.039zM2.582 5.621c2.418-3.926 7.559-5.145 11.484-2.727 2.922 1.801 4.344 5.113 3.879 8.309-0.973-0.020-7.004-0.141-8.996-0.191-2.168-0.055-3.191-0.813-2.285-1.883s1.996-1.59 2.691-2c0.699-0.41 1.066-1.316-0.922-1.16-5.023 0.34-6.535 3.879-6.965 5.477-0.344-1.941-0.004-4.012 1.113-5.824zM1.441 4.918c-2.809 4.555-1.391 10.52 3.164 13.328s10.52 1.391 13.328-3.16c2.809-4.555 1.391-10.523-3.164-13.328-1.582-0.98-3.34-1.445-5.074-1.445-3.25 0-6.422 1.637-8.254 4.605zM10.988 9.23c-1.23 0.801-2.551 1.223-2.551 1.223l6.621-0.063 1.816-0.914s0.141-0.371-0.746-0.605c-0.887-0.234-2.227 0.441-3.387 1.063-1.16 0.617-1.215 0.32-1.215 0.32s1.57-1.098 1.98-1.348c0.41-0.25 1.246-0.547 0.523-0.961-0.125-0.070-0.262-0.105-0.406-0.105-0.695 0-1.621 0.73-2.637 1.391z"></path>
</svg>
