<svg xmlns="http://www.w3.org/2000/svg" width="18" height="20" viewBox="0 0 18 20">
<path d="M0 1.25v17.5h17.5v-17.5h-17.5zM9.523 14.898c0 1.703-1 2.48-2.457 2.48-1.316 0-2.078-0.68-2.469-1.504l1.34-0.809c0.258 0.457 0.492 0.844 1.059 0.844 0.539 0 0.883-0.211 0.883-1.035v-5.59h1.645v5.613zM13.414 17.379c-1.527 0-2.516-0.727-2.996-1.68l1.34-0.773c0.352 0.574 0.813 1 1.621 1 0.68 0 1.117-0.34 1.117-0.813 0-0.563-0.445-0.762-1.199-1.094l-0.41-0.176c-1.188-0.504-1.973-1.141-1.973-2.48 0-1.234 0.941-2.172 2.406-2.172 1.047 0 1.797 0.363 2.336 1.316l-1.281 0.82c-0.281-0.504-0.586-0.703-1.059-0.703-0.48 0-0.785 0.305-0.785 0.703 0 0.492 0.305 0.691 1.012 1l0.41 0.176c1.398 0.598 2.184 1.211 2.184 2.586 0 1.477-1.164 2.289-2.723 2.289z"></path>
</svg>
