<svg xmlns="http://www.w3.org/2000/svg" width="23" height="20" viewBox="0 0 23 20">
<path d="M19.947 9.276c-0.185-0.102-0.221-0.225-0.249-0.421-0.092-0.644-0.138-1.313-0.355-1.918-1.402-3.905-6.015-5.601-9.643-3.58-1.069 0.596-1.913 1.421-2.558 2.496-0.124-0.059-0.213-0.106-0.306-0.144-1.176-0.485-2.307-0.395-3.333 0.358-0.997 0.732-1.423 1.74-1.276 2.985 0.014 0.118-0.077 0.298-0.176 0.373-1.551 1.172-2.189 3.049-1.637 4.868 0.54 1.78 2.247 3.117 4.125 3.181 1.183 0.040 2.369 0.021 3.553 0.021 3.283-0.001 6.566 0.021 9.848-0.019 2.057-0.025 3.754-1.44 4.227-3.41 0.451-1.878-0.435-3.801-2.22-4.79zM20.771 15.404c-0.712 0.876-1.654 1.377-2.784 1.393-2.222 0.031-4.444 0.009-6.666 0.009 0 0.027-6.368 0.006-6.396 0.006-1.713-0.013-2.998-0.772-3.718-2.344-0.738-1.611-0.156-3.549 1.335-4.535 0.359-0.237 0.488-0.452 0.394-0.904-0.214-1.030 0.174-1.873 1.032-2.46 0.898-0.614 1.852-0.631 2.814-0.12 0.401 0.213 0.571 0.452 0.867-0.099 0.556-1.031 1.35-1.825 2.37-2.394 3.807-2.124 8.921 0.296 8.994 5.183 0.005 0.318 0.094 0.485 0.385 0.621 2.248 1.048 2.908 3.755 1.373 5.644zM17.342 12.259c-0.228 1.217-1.352 2.152-2.604 2.152-0.662-0-1.252-0.256-1.722-0.692-1.082-1.004-2.779-2.929-3.748-3.648-0.783-0.582-1.64-0.482-2.354 0.148-1.953 1.722 0.619 4.757 2.62 3.015 0.178-0.155 0.306-0.373 0.498-0.502 0.32-0.215 0.811-0.035 0.514 0.415-0.678 1.027-1.927 1.492-3.081 1.145-1.129-0.34-1.908-1.405-1.899-2.741 0.048-0.878 0.483-1.682 1.383-2.186 0.882-0.494 1.811-0.514 2.617 0.097 1.984 1.503 2.952 3.193 4.191 3.955 0.959 0.59 2.119 0.288 2.688-0.684 1.126-1.922-1.351-4.102-3.081-2.479-0.156 0.146-0.27 0.349-0.446 0.458-0.429 0.266-0.677-0.161-0.5-0.404 0.809-1.115 1.971-1.58 3.253-1.102 1.228 0.458 1.918 1.733 1.67 3.054z"></path>
</svg>
