<svg xmlns="http://www.w3.org/2000/svg" width="20" height="20" viewBox="0 0 20 20">
<path d="M19.027 16.602c-0.055-0.438-0.742-0.902-1.102-1.246-0.199-0.195-1.133-0.902-1.187-1.168-0.055-0.258 0.379-0.84 0.52-1.129 0.199-0.418 0.344-0.926 0.441-1.273 0.734-2.582 0.809-6.129-0.242-8.25-0.398-0.805-1.508-1.914-2.203-2.441-1.641-1.238-4.672-1.379-6.645-0.648-0.551 0.203-1.086 0.383-1.566 0.668-1.293 0.758-2.668 1.27-3.051 2.797-0.945 0.422-1.23 1.633-1.184 3.039 0.008 0.273 0.16 0.617 0.105 0.875-0.027 0.129-0.203 0.297-0.238 0.383-0.453 1.082-0.090 2.5 0.434 3.27 0.316 0.465 0.84 0.875 1.531 0.984 0.027 0.414 0.129 0.77 0.32 1.188 0.121 0.266 0.574 0.742 0.406 1.082-0.086 0.172-0.82 0.539-1.066 0.688-0.824 0.488-1.422 0.793-2.184 1.34-0.492 0.352-1.262 0.398-1.141 1.215 0.082 0.551 0.395 1.234 0.574 1.789 0.027 0.078 0.055 0.16 0.082 0.234h16.484c0.191-0.598 0.379-1.207 0.57-1.844 0.133-0.445 0.398-1.086 0.34-1.551zM8.043 1.316c0.070-0.020 0.133 0.027 0.191 0.094-0.008 0.203-0.211 0.199-0.348 0.266-0.211 0.262-0.523 0.383-0.781 0.672-0.266 0.293-0.563 1.082-0.914 1.172-0.176 0.043-0.379-0.031-0.531-0.020-0.406 0.027-0.691 0.234-1.105 0.293 0.531-1.168 2.191-2.109 3.488-2.477zM3.949 4.973c0.527-0.582 1.254-0.941 2.141-1.012 0.457 1.16-0.328 2.539-0.035 3.813 0.090 0.387 0.398 0.992-0.094 1.004 0.012-1.105-1.359-1.809-2.395-1.156-0.070-0.84-0.191-2.020 0.383-2.648zM5.383 12.793c-0.039-0.16-0.105-0.504-0.090-0.59 0.063-0.34 0.668-0.488 0.43-0.965-0.441-0.004-0.539 0.398-0.941 0.441-1.043 0.102-1.781-1.383-1.734-2.281 0.039-0.762 0.688-1.492 1.566-1.398 0.625 0.070 0.836 0.75 0.957 1.355 0.359 0.020 0.879-0.016 1.051-0.297-0.023-0.684-0.344-1.234-0.32-1.863 0.039-1.184 0.684-2.25 0.188-3.414 0.531-1.207 2.090-2.16 3.246-2.734 1.43-0.715 3.707-0.145 5.051 0.617 0.77 0.434 1.344 1.277 1.887 1.98-0.762-0.227-1.41 0.164-1.293 0.793 0.637-0.582 1.727-0.008 2.051 0.641 0.309 0.617 0.305 1.535 0.352 2.453 0.113 2.227-0.406 4.527-1.527 6.137-0.301 0.43-0.551 0.898-0.973 1.195-1.016 0.711-2.555 1.355-3.875 0.914-1.746-0.586-2.539-1.75-3.496-3.078 0.027 0.73 0.539 1.332 1.047 1.891 0.441 0.488 0.977 1.039 1.551 1.266-0.48-0.113-1.215-0.148-1.414 0.281-1.117-0.074-2.152-0.188-2.684-0.945-0.414-0.602-0.836-1.617-1.027-2.398zM14.055 17.641c0.16-0.117 0.434-0.113 0.68-0.141-0.211-0.105-0.508-0.145-0.754-0.086-0.004-0.164-0.078-0.266-0.125-0.398 0.414-0.148 1.387-1.113 1.938-0.793 0.262 0.152 0.371 1.023 0.395 1.445 0.016 0.352-0.031 0.703-0.176 0.891-0.734-0.023-1.398-0.109-1.98-0.273 0.035-0.238-0.039-0.473 0.023-0.645zM13.383 16.859c-0.656 0.031-1.016-0.047-1.496-0.422 0.008-0.031 0.055-0.020 0.059-0.055 0.703 0.313 1.594-0.129 2.305-0.191-0.309 0.199-0.57 0.453-0.867 0.668zM12.91 18.156c-0.063-0.367-0.137-0.469-0.109-0.789 0.977-0.648 1.16 1.117 0.109 0.789zM8.828 17.133c-0.453-0.027-1.879-0.547-1.504-0.926 0.367 0.254 1.074 0.191 1.613 0.285 0.031 0.172-0.109 0.398-0.109 0.641zM2.254 19.418c-0.168-0.496-0.359-0.98-0.578-1.441 1.203-0.93 2.551-1.91 3.992-2.48 0.109-0.043 0.906 0.992 1.023 1.078 0.645 0.457 1.445 0.82 2.195 1.18 0.047 0.344 0.152 0.789 0.34 1.387 0.027 0.090 0.055 0.184 0.086 0.281h-7.059zM11.652 19.641h-0.031c0.012-0.008 0.020-0.016 0.031-0.020v0.020zM11.945 19.418c0.082-0.055 0.168-0.109 0.25-0.168 0.043 0.055 0.086 0.109 0.125 0.168h-0.375zM12.535 18.453c-0.422 0.285-0.805 0.715-1.301 0.984-0.234 0.129-1.055 0.457-1.305 0.398-0.141-0.031-0.152-0.207-0.211-0.371-0.121-0.352-0.395-0.914-0.422-1.445-0.031-0.672-0.098-1.797 0.625-1.656 0.582 0.113 1.262 0.379 1.715 0.629 0.277 0.152 0.434 0.336 0.855 0.371-0.004 0.055-0.004 0.109-0.008 0.168-0.23 0.152-0.598 0.148-0.852 0.277 0.371 0.016 0.664 0.105 0.918 0.23-0.004 0.133-0.012 0.273-0.016 0.414zM14.621 19.418h-0.547c-0.004-0.125-0.109-0.227-0.238-0.227s-0.23 0.102-0.238 0.227h-0.68c-0.109-0.172-0.223-0.336-0.348-0.488 0.082-0.086 0.156-0.184 0.234-0.27 0.352 0.145 0.578-0.191 0.848-0.164 0.309 0.031 0.555 0.457 0.992 0.43l-0.023 0.492zM14.961 19.418c0.008-0.156 0.016-0.305 0.023-0.449 0.609-0.285 1.133 0.051 1.395 0.449h-1.418zM18.219 17.973c-0.090 0.438-0.227 0.938-0.387 1.449-0.008-0.004-0.016-0.004-0.023-0.004h-1.090c0.023-0.043 0.047-0.086 0.074-0.129-0.102-0.238-0.352-0.34-0.426-0.605 0.473-0.887 0.254-3.648-0.945-3.066 0.168-0.246 0.609-0.449 0.813-0.754 0.508 0.406 0.813 0.793 1.297 1.227 0.266 0.234 0.781 0.52 0.836 0.902 0.031 0.215-0.102 0.738-0.148 0.98zM8.68 5.098c0.211-0.582 1.063-1.355 1.758-1.25 0.301 0.047 0.703 0.32 0.477 0.691-1.18-0.273-1.766 0.492-2.125 1.293-0.316-0.078-0.191-0.512-0.109-0.734zM15.871 7.563c0.32-0.141 0.875-0.027 1.156-0.207-0.164-0.449-0.402-0.836-0.363-1.473 0.020 0 0.039 0 0.055 0.004 0.266 0.555 0.496 1.141 0.836 1.629-0.223 0.527-1.703 0.992-1.684 0.047zM12.090 7.668c-0.266-0.426-0.742-1.27-0.566-1.77 0.254 0.465 0.336 0.953 0.695 1.301 0.16 0.156 0.477 0.352 0.32 0.789-0.035 0.105-0.305 0.336-0.457 0.379-0.562 0.168-1.871 0.035-1.43-0.668 0.465 0.027 1.090 0.305 1.438-0.031zM13.156 10.402c0.148 0.258 0.055 0.73 0.473 0.805 0.789 0.133 1.703-0.48 2.27-0.695 0.352-0.594-0.031-0.809-0.348-1.191-0.648-0.781-1.516-1.75-1.484-2.918 0.262-0.191 0.285 0.289 0.32 0.379 0.34 0.793 1.187 1.805 1.809 2.48 0.152 0.168 0.402 0.328 0.43 0.438 0.082 0.32-0.211 0.703-0.176 0.918-0.848 0.543-1.789 1.137-3.18 1-0.289-0.262-0.402-0.836-0.113-1.215zM5.293 10.043c-0.266-0.152-0.328-0.82-0.641-0.836-0.445-0.027-0.363 0.867-0.363 1.387-0.305-0.277-0.359-1.137-0.137-1.574-0.258-0.125-0.371 0.141-0.512 0.23 0.184-1.332 1.945-0.617 1.652 0.793zM16.996 11.168c-0.395 0.75-0.953 1.578-2.109 1.602-0.023-0.242-0.043-0.609 0-0.758 0.887-0.086 1.43-0.535 2.109-0.844zM11.453 11.652c0.738 0.387 2.094 0.43 3.098 0.398 0.055 0.219 0.051 0.492 0.055 0.758-1.289 0.070-2.813-0.25-3.152-1.156zM15.055 13.477c-0.066 0.168-0.207 0.363-0.383 0.434-0.473 0.191-1.781 0.34-2.437-0.012-0.418-0.223-0.684-0.723-0.914-1.016-0.109-0.141-0.66-0.504-0.008-0.504 0.512 1.277 2.266 1.133 3.742 1.098z"></path>
</svg>
