<svg xmlns="http://www.w3.org/2000/svg" width="18" height="20" viewBox="0 0 18 20">
<path d="M0.023 3.598c0-1.301 1.047-2.348 2.336-2.348 1.172 0 2.129 0.855 2.313 1.961 1.273-0.297 2.621 0.023 3.77 1.172l-1.73 1.73c-0.801-0.801-1.664-0.637-2.164-0.137-0.559 0.559-0.559 1.48 0 2.039l3.887 3.887-1.719 1.73c-3.426-3.406-1.941-1.941-3.898-3.895-1.047-1.035-1.367-2.531-0.969-3.863-1.051-0.227-1.824-1.16-1.824-2.277zM5.082 8.145l1.73 1.73c0.391-0.391 3.504-3.504 3.895-3.898 0.559-0.559 1.469-0.559 2.027 0 0.5 0.5 0.664 1.367-0.137 2.164l1.719 1.73c1.219-1.219 1.504-2.641 1.129-3.953 1.141-0.16 2.027-1.141 2.027-2.324 0-1.297-1.047-2.348-2.336-2.348-1.184 0-2.164 0.879-2.324 2.016-1.32-0.387-2.801-0.059-3.84 0.98-0.715 0.746-2.777 2.793-3.891 3.902zM15.484 14.090c0.32-1.277-0.035-2.676-1.027-3.668-0.461-0.477 0.195 0.184-3.887-3.895l-1.73 1.73 3.895 3.895c0.559 0.559 0.559 1.469 0 2.027-0.5 0.5-1.367 0.664-2.164-0.137l-1.719 1.73c1.078 1.18 2.656 1.516 4.012 1.094 0.215 1.070 1.16 1.879 2.301 1.879 1.289 0 2.336-1.047 2.336-2.348 0-1.18-0.879-2.148-2.016-2.309zM12.191 12.016l-1.719-1.73c-3.398 3.375-1.969 1.969-3.895 3.898-0.559 0.559-1.469 0.559-2.027 0-0.512-0.523-0.66-1.379 0.125-2.164l-1.719-1.73c-1.18 1.18-1.484 2.547-1.152 3.84-1.043 0.234-1.805 1.168-1.805 2.273 0 1.301 1.047 2.348 2.336 2.348 1.117 0 2.051-0.773 2.289-1.824 1.277 0.32 2.676-0.023 3.68-1.016 1.254-1.25 0.477-0.484 3.887-3.895z"></path>
</svg>
