<svg xmlns="http://www.w3.org/2000/svg" width="20" height="20" viewBox="0 0 20 20">
<path d="M2.492 15.988l2.363-2.305c1.254 1.672 2.777 2.578 4.945 2.633 1.191 0.027 2.355-0.273 3.375-0.875 0.199 0.207 0.723 0.762 0.816 0.859-1.258 0.809-2.719 1.215-4.223 1.18-1.691-0.043-3.305-0.652-4.598-1.734 0.012-0.023-1.492 1.465-1.508 1.48 0.371 1.164-0.512 2.437-1.809 2.437-1.047-0.004-1.855-0.848-1.855-1.895 0-1.34 1.293-2.211 2.492-1.781zM16.355 6.129c0.746 1.223 1.156 2.633 1.121 4.063-0.043 1.75-0.742 3.418-1.898 4.727 0.012 0.012 0.93 0.984 0.941 0.996 0.375-0.051 0.75 0.078 1.012 0.355 0.441 0.469 0.426 1.207-0.043 1.656-0.469 0.441-1.207 0.426-1.656-0.043-0.262-0.273-0.367-0.656-0.297-1.027-0.973-1.039-1.734-1.844-1.734-1.844 1.668-1.332 2.473-3.109 2.516-4.852 0.027-1.129-0.281-2.234-0.824-3.211l0.863-0.82zM4.063 2.074c0.262 0.273 0.367 0.656 0.297 1.027l1.793 1.879c-0.184 0.148-0.52 0.406-0.891 0.832-0.992 1.113-1.547 2.531-1.59 4.020-0.027 1.129 0.238 2.234 0.781 3.219l-0.859 0.84c-0.754-1.234-1.129-2.645-1.086-4.090 0.039-1.742 0.715-3.422 1.855-4.73l-0.988-1.031c-0.375 0.051-0.75-0.078-1.012-0.355-0.441-0.469-0.426-1.207 0.043-1.656 0.465-0.438 1.195-0.426 1.656 0.047zM18.16 0.313c1.016 0 1.84 0.875 1.84 1.887s-0.824 1.863-1.84 1.863c-0.246 0.004-0.547-0.043-0.621-0.070l-2.457 2.332c-1.277-1.703-2.996-2.574-4.957-2.625-1.191-0.027-2.355 0.266-3.367 0.875l-0.824-0.859c1.258-0.813 2.719-1.215 4.223-1.18 1.691 0.043 3.305 0.652 4.598 1.742l1.605-1.508c-0.059-0.184-0.086-0.375-0.086-0.566-0.004-1.043 0.871-1.891 1.887-1.891zM10.027 4.43c0.215 0 0.426 0.016 0.641 0.043 3.051 0.383 5.211 3.168 4.836 6.215-0.383 3.051-3.168 5.211-6.215 4.836-3.051-0.383-5.211-3.168-4.836-6.219 0.363-2.828 2.738-4.867 5.574-4.875zM7.723 9.094c0.023 0.887 0.477 1.633 1.266 2.039l-0.43 2.020h2.879l-0.43-2.020c0.785-0.426 1.254-1.133 1.266-2.039-0.016-1.281-1.008-2.246-2.277-2.277-1.254 0.031-2.238 0.969-2.273 2.277z"></path>
</svg>
