<svg xmlns="http://www.w3.org/2000/svg" width="18" height="20" viewBox="0 0 18 20">
<path d="M15.625 18.75h-13.75c-1.031 0-1.875-0.844-1.875-1.875v-13.75c0-1.031 0.844-1.875 1.875-1.875h13.75c1.031 0 1.875 0.844 1.875 1.875v13.75c0 1.031-0.844 1.875-1.875 1.875zM7.797 6.973c0-1.199-0.688-1.762-1.551-1.762-1.008 0-1.563 0.773-1.563 1.738v6.047c0 1.008 0.535 1.781 1.582 1.781 0.84 0 1.531-0.547 1.531-1.781v-1.633l2.367 2.957c0.48 0.582 1.523 0.656 2.18 0 0.57-0.59 0.578-1.438 0.156-1.969l-1.918-2.453 1.582-2.293c0.367-0.527 0.371-1.348-0.219-1.918-0.641-0.621-1.742-0.676-2.398 0.273l-1.75 2.527v-1.516z"></path>
</svg>
