<svg xmlns="http://www.w3.org/2000/svg" width="18" height="20" viewBox="0 0 18 20">
<path d="M16.25 1.25h-15.004c-0.688 0-1.246 0.566-1.246 1.262v14.977c0 0.695 0.559 1.262 1.246 1.262h15.004c0.688 0 1.25-0.566 1.25-1.262v-14.977c0-0.695-0.563-1.262-1.25-1.262zM5.289 16.25h-2.594v-8.352h2.598v8.352zM3.992 6.758c-0.832 0-1.504-0.676-1.504-1.504s0.672-1.504 1.504-1.504c0.828 0 1.504 0.676 1.504 1.504 0 0.832-0.672 1.504-1.504 1.504zM15.012 16.25h-2.594v-4.063c0-0.969-0.020-2.215-1.348-2.215-1.352 0-1.559 1.055-1.559 2.145v4.133h-2.594v-8.352h2.488v1.141h0.035c0.348-0.656 1.195-1.348 2.457-1.348 2.625 0 3.113 1.73 3.113 3.98v4.578z"></path>
</svg>
