<svg xmlns="http://www.w3.org/2000/svg" width="20" height="20" viewBox="0 0 20 20">
<path d="M0 3.168h3.039v8.152c0 1.293 0.586 2.063 1.063 2.383-0.496 0.434-2 0.816-3.133-0.109-0.664-0.547-0.969-1.457-0.969-2.305v-8.121zM18.98 9.945v-0.859h0.93v-3h-1.020c-0.395-1.809-2-3.152-3.918-3.152-2.211 0-4.012 1.797-4.012 4.012v7c0.625 0.090 1.383-0.012 2.020-0.547 0.668-0.547 0.969-1.453 0.969-2.305v-0.262h1.516v-3h-1.516v-0.91c0-1.352 2.039-1.352 2.039 0v3.012c0 2.211 1.797 4.012 4.012 4.012v-2.988c-0.566 0-1.020-0.457-1.020-1.012zM7.484 6.078v4.414c0 0.602-0.93 0.602-0.93 0v-4.414h-3v5.184c0 0.93 0.313 2.109 1.758 2.496 1.445 0.383 2.273-0.414 2.273-0.414-0.082 0.523-0.566 0.91-1.363 0.988-0.605 0.063-1.375-0.141-1.758-0.305v2.746c0.98 0.293 2.012 0.383 3.031 0.184 1.84-0.355 3-1.891 3-3.938v-6.961h-3.012v0.020z"></path>
</svg>
