<svg xmlns="http://www.w3.org/2000/svg" width="25" height="20" viewBox="0 0 25 20">
<path d="M23.934 8.555c0-0.801 0.125-1.273 0.125-2.133 0-1.336-0.492-1.766-1.582-1.766h-0.801v0.945h0.246c0.555 0 0.676 0.184 0.676 0.863 0 0.637-0.063 1.273-0.063 2.012 0 0.945 0.309 1.313 0.922 1.457v0.063c-0.617 0.145-0.922 0.512-0.922 1.457 0 0.738 0.063 1.336 0.063 2.012 0 0.699-0.145 0.883-0.676 0.883v0.020h-0.246v0.984h0.801c1.086 0 1.582-0.43 1.582-1.766 0-0.883-0.125-1.336-0.125-2.133 0-0.43 0.266-0.883 1.066-0.922v-1.066c-0.801-0.027-1.066-0.48-1.066-0.91zM19.809 9.805c-0.617-0.246-1.191-0.391-1.191-0.801 0-0.309 0.246-0.492 0.699-0.492s0.863 0.184 1.313 0.512l0.82-1.086c-0.512-0.391-1.211-0.801-2.156-0.801-1.395 0-2.34 0.801-2.34 1.93 0 1.004 0.883 1.52 1.621 1.805 0.637 0.246 1.254 0.453 1.254 0.863 0 0.309-0.246 0.512-0.801 0.512-0.512 0-1.027-0.207-1.582-0.637l-0.82 1.191c0.617 0.512 1.559 0.863 2.34 0.863 1.641 0 2.523-0.863 2.523-1.992s-0.879-1.602-1.68-1.867zM5.789 12.125c-0.145 0-0.328-0.125-0.328-0.512v-6.961h-2.914c-1.109 0-1.602 0.43-1.602 1.766 0 0.883 0.125 1.375 0.125 2.133 0 0.43-0.266 0.883-1.066 0.922v1.066c0.801 0.020 1.066 0.473 1.066 0.902 0 0.758-0.125 1.211-0.125 2.094 0 1.336 0.492 1.766 1.582 1.766h0.801v-0.945h-0.246c-0.512 0-0.676-0.207-0.676-0.883s0.063-1.254 0.063-2.012c0-0.945-0.309-1.313-0.922-1.457v-0.063c0.617-0.145 0.922-0.512 0.922-1.457 0-0.738-0.063-1.336-0.063-2.012s0.145-0.863 0.676-0.863h0.551v5.891c0 1.254 0.43 2.074 1.684 2.074 0.391 0 0.699-0.063 0.922-0.145l-0.207-1.336c-0.121 0.031-0.18 0.031-0.242 0.031zM14.84 9.805c-0.637-0.246-1.211-0.391-1.211-0.801 0-0.309 0.246-0.492 0.699-0.492s0.863 0.184 1.313 0.512l0.82-1.086c-0.512-0.391-1.211-0.801-2.156-0.801-1.395 0-2.34 0.801-2.34 1.93 0 1.004 0.883 1.52 1.621 1.805 0.637 0.246 1.254 0.453 1.254 0.863 0 0.309-0.246 0.512-0.801 0.512-0.512 0-1.027-0.207-1.582-0.637l-0.801 1.191c0.617 0.512 1.559 0.863 2.34 0.863 1.641 0 2.523-0.863 2.523-1.992 0.004-1.129-0.879-1.602-1.68-1.867zM8.785 7.117c-1.5 0-2.934 1.254-2.895 3.223 0 2.031 1.336 3.223 3.098 3.223 0.738 0 1.559-0.266 2.195-0.699l-0.617-1.086c-0.453 0.266-0.883 0.391-1.336 0.391-0.82 0-1.457-0.391-1.621-1.336h3.719c0.020-0.145 0.063-0.43 0.063-0.758 0.023-1.664-0.883-2.957-2.605-2.957zM7.613 9.703c0.125-0.82 0.617-1.211 1.191-1.211 0.738 0 1.027 0.512 1.027 1.211h-2.219z"></path>
</svg>
