<svg xmlns="http://www.w3.org/2000/svg" width="18" height="20" viewBox="0 0 18 20">
<path d="M7.66 4.828c-0.008-0.055 0.074-0.090 0.125-0.113 0.066-0.027 0.152-0.039 0.215-0.004 0.016 0.008 0.031 0.027 0.023 0.043-0.016 0.047-0.094 0.039-0.137 0.062-0.039 0.020-0.070 0.066-0.117 0.066-0.039 0.004-0.105-0.016-0.109-0.055zM8.625 4.816c0.039 0.020 0.070 0.066 0.117 0.066 0.043 0 0.109-0.016 0.113-0.059 0.008-0.055-0.074-0.090-0.125-0.113-0.066-0.027-0.152-0.039-0.215-0.004-0.016 0.008-0.031 0.027-0.023 0.043 0.012 0.051 0.090 0.043 0.133 0.066zM17.012 16.934c-0.020 0.32-0.254 0.539-0.543 0.715-0.582 0.352-1.457 0.617-1.988 1.258v0c-0.555 0.66-1.238 1.039-1.887 1.090-0.645 0.051-1.25-0.246-1.574-0.898v-0.004c-0.043-0.082-0.074-0.172-0.098-0.262-0.84 0.047-1.57-0.207-2.152-0.16-0.859 0.047-1.398 0.254-1.887 0.258-0.188 0.414-0.559 0.688-1.012 0.789-0.625 0.145-1.41 0-2.184-0.406v0c-0.723-0.383-1.641-0.348-2.316-0.488-0.34-0.070-0.637-0.195-0.785-0.48-0.145-0.285-0.117-0.676 0.086-1.238 0.066-0.199 0.016-0.496-0.031-0.813-0.023-0.152-0.047-0.309-0.047-0.461 0-0.168 0.027-0.332 0.109-0.484 0.176-0.332 0.461-0.473 0.723-0.566s0.5-0.156 0.664-0.324c0.203-0.215 0.395-0.562 0.648-0.789-0.102-0.672 0.008-1.383 0.242-2.082 0.492-1.48 1.531-2.898 2.27-3.777 0.629-0.895 0.813-1.613 0.879-2.527 0.043-1.242-0.957-5.289 3.043-5.281 3.16 0.004 2.98 3.336 2.961 5.129-0.012 1.176 0.637 1.973 1.305 2.813 0.594 0.703 1.371 1.73 1.816 2.906 0.363 0.961 0.504 2.023 0.145 3.090 0.055 0.020 0.109 0.047 0.16 0.078 0.055 0.031 0.105 0.070 0.156 0.113 0.258 0.219 0.34 0.559 0.41 0.875 0.074 0.316 0.141 0.613 0.281 0.77 0.434 0.484 0.621 0.84 0.605 1.16zM8.625 4.262c0.141 0.035 0.348 0.094 0.508 0.172-0.082-0.477 0.176-0.918 0.461-0.898 0.348 0.012 0.543 0.605 0.355 1.066-0.031 0.074-0.109 0.133-0.152 0.18 0.262 0.090 0.43 0.16 0.492 0.191 0.309-0.371 0.422-1.023 0.168-1.578-0.383-0.836-1.336-0.852-1.719 0.016-0.125 0.281-0.152 0.582-0.113 0.852zM6.82 4.996c0.305-0.223 0.27-0.184 0.23-0.215-0.313-0.27-0.258-1.070 0.070-1.098 0.246-0.020 0.422 0.418 0.375 0.766 0.121-0.082 0.262-0.141 0.398-0.18 0.066-0.754-0.352-1.309-0.746-1.309-0.738 0-0.938 1.465-0.328 2.035zM6.453 5.813c0.059 0.191 0.238 0.41 0.574 0.598 0.305 0.18 0.469 0.449 0.781 0.586 0.102 0.043 0.223 0.074 0.375 0.082 0.719 0.043 1.059-0.441 1.492-0.582 0.457-0.145 0.785-0.43 0.887-0.707 0.125-0.332-0.082-0.574-0.41-0.711-0.441-0.191-0.637-0.203-0.883-0.363-0.402-0.258-0.734-0.348-1.012-0.348-0.563 0-0.906 0.383-1.090 0.555-0.020 0.020-0.309 0.23-0.551 0.41-0.164 0.129-0.219 0.289-0.164 0.48zM5.145 15.688l-0.766-1.391c-0.266-0.359-0.539-0.578-0.855-0.625-0.301-0.047-0.492 0.055-0.691 0.27-0.188 0.199-0.344 0.48-0.559 0.703-0.305 0.254-0.363 0.242-0.766 0.387-0.246 0.086-0.441 0.18-0.578 0.441-0.105 0.195-0.082 0.477-0.035 0.781 0.047 0.309 0.117 0.637 0.023 0.934v0.008c-0.195 0.535-0.195 0.848-0.102 1.031 0.309 0.602 1.82 0.238 2.988 0.855 1.227 0.641 2.836 0.668 2.941-0.703 0.082-0.801-1.23-1.914-1.602-2.691zM11.156 17.086c0.125-0.43 0.246-0.832 0.266-1.133 0.031-0.594 0.063-1.121 0.172-1.559 0.121-0.492 0.363-0.902 0.836-1.066 0.090-0.824 0.73-0.824 1.496-0.488 0.738 0.332 1.016 0.625 0.891 1.020 0.039 0 0.078-0.004 0.164 0 0.203-0.66-0.559-1.094-1.199-1.359 0.113-0.469 0.094-0.941-0.016-1.395-0.234-0.988-0.883-1.867-1.375-2.305-0.090-0.004-0.082 0.074 0.102 0.254 0.453 0.418 1.449 1.922 0.91 3.316-0.152-0.039-0.297-0.059-0.426-0.055-0.207-1.137-0.684-2.078-0.922-2.523-0.449-0.836-1.152-2.551-1.453-3.738-0.176 0.25-0.484 0.465-0.871 0.586-0.184 0.059-0.379 0.215-0.621 0.352-0.543 0.313-1.172 0.344-1.656-0.047-0.176-0.141-0.313-0.297-0.492-0.402-0.062-0.035-0.199-0.129-0.242-0.16-0.078 1.477-1.066 3.332-1.535 4.402-0.324 0.77-0.516 1.594-0.539 2.402-0.852-1.137-0.23-2.59 0.102-3.219 0.371-0.688 0.43-0.879 0.34-0.813-0.336 0.547-0.859 1.418-1.063 2.313-0.105 0.465-0.125 0.938 0.012 1.375s0.434 0.84 0.961 1.168c0 0 0.969 0.559 1.496 1.27 0.289 0.391 0.379 0.73 0.289 0.973-0.098 0.262-0.375 0.348-0.652 0.348 0.188 0.234 0.402 0.508 0.563 0.766 1.469 1.004 3.211 0.613 4.465-0.281zM16.211 15.957c-0.391-0.441-0.281-1.293-0.668-1.625-0.27-0.234-0.531-0.211-0.883-0.199-0.301 0.344-1.008 0.766-1.5 0.637-0.449-0.113-0.703-0.637-0.734-1.152-0.012 0.008-0.027 0.012-0.039 0.020-0.277 0.152-0.434 0.422-0.535 0.824-0.098 0.398-0.133 0.918-0.164 1.512-0.027 0.461-0.242 1.031-0.387 1.586-0.137 0.516-0.227 0.984-0.043 1.418 0.281 0.566 0.762 0.797 1.316 0.754s1.187-0.383 1.703-0.996c0.859-1.039 2.434-1.16 2.469-1.816 0.012-0.199-0.121-0.508-0.535-0.961zM6.77 5.809c0.078 0.074 0.184 0.176 0.313 0.277 0.258 0.203 0.617 0.414 1.066 0.414 0.453 0 0.879-0.23 1.242-0.422 0.191-0.102 0.426-0.273 0.578-0.406s0.23-0.246 0.121-0.258c-0.109-0.012-0.102 0.102-0.234 0.199-0.172 0.125-0.379 0.289-0.543 0.383-0.289 0.164-0.762 0.398-1.168 0.398s-0.73-0.188-0.973-0.379c-0.121-0.098-0.223-0.195-0.301-0.27-0.059-0.055-0.074-0.18-0.168-0.191-0.055-0.004-0.070 0.145 0.066 0.254z"></path>
</svg>
