<svg xmlns="http://www.w3.org/2000/svg" width="18" height="20" viewBox="0 0 18 20">
<path d="M17.086 8.84c-0.012-0.035-0.035-0.055-0.055-0.078l-2.734-1.508c-0.035-0.023-0.078-0.023-0.121 0l-2.301 1.406c-0.035 0.023-0.055 0.066-0.055 0.102l-0.035 1.227-0.938-0.625c-0.035-0.023-0.090-0.023-0.121 0l-1.352 0.828-0.055-1.371c0-0.035-0.023-0.078-0.055-0.090l-1.406-0.949 1.316-0.68c0.043-0.023 0.066-0.066 0.066-0.113l-0.223-5.168c0-0.035-0.035-0.078-0.066-0.102l-3.539-1.707c-0.035-0.012-0.066-0.012-0.090-0.012l-4.832 1.508c-0.055 0.023-0.090 0.078-0.078 0.145l1.070 5.199c0.035 0.133 1.328 1.070 1.508 1.207l-1.051 0.504c-0.055 0.035-0.078 0.090-0.066 0.133l0.805 3.918c0.023 0.113 0.926 0.902 1.059 1.027l-0.68 0.414c-0.035 0.023-0.066 0.078-0.055 0.121 0.055 0.277 0.602 3.035 0.66 3.090l2.543 2.699c0.023 0.023 0.055 0.023 0.090 0.035 0.023 0 0.043-0.012 0.066-0.023l3.27-2.613c0.035-0.023 0.043-0.055 0.043-0.090l-0.078-1.797 1.094 0.926c0.043 0.035 0.113 0.035 0.156 0l2.613-2.086c0.035-0.023 0.043-0.055 0.043-0.090l0.090-1.305 0.793 0.547c0.043 0.035 0.102 0.035 0.145 0l2.133-1.707c0.023-0.012 0.043-0.043 0.043-0.078 0.035-0.254 0.402-2.766 0.379-2.844zM9.086 9.027l0.156 3.617-3.539 2.391-0.547-3.773 3.93-2.234zM8.785 1.996l0.211 4.922-4.164 2.164-0.77-5.266 4.723-1.82zM1.719 6.762l-1.016-4.887 3.113 1.93 0.758 5.191-2.855-2.234zM2.914 12.535l-0.738-3.551 2.734 2.277 0.535 3.648-2.531-2.375zM3.863 17.133l-0.535-2.621 2.41 2.379 0.379 2.633-2.254-2.391zM6.383 19.652l-0.414-2.77 3.348-2.398 0.121 2.734-3.055 2.434zM9.586 15.156c0-0.133 0.035-0.895-0.078-0.98l-0.949-0.781 0.871-0.582c0.090-0.066 0.043-0.223 0.043-0.313l1.148 0.883 0.023 2.668-1.059-0.895zM13.27 14.164l-2.379 1.898-0.023-2.68 2.566-1.832-0.164 2.613zM14.352 13.16l-0.746-0.523 0.078-1.328c0.012-0.035-0.012-0.078-0.043-0.102l-1.609-1.063 0.023-1.172 2.523 1.586-0.227 2.602zM16.484 11.605l-1.887 1.496 0.223-2.543 1.996-1.43-0.332 2.477z"></path>
</svg>
