<svg xmlns="http://www.w3.org/2000/svg" width="18" height="20" viewBox="0 0 18 20">
<path d="M10.629 7.977v2.777c0 0.070-0.055 0.125-0.125 0.125h-0.445c-0.043 0-0.082-0.023-0.102-0.051l-1.273-1.719v1.648c0 0.070-0.055 0.125-0.125 0.125h-0.445c-0.070 0-0.125-0.055-0.125-0.125v-2.777c0-0.070 0.055-0.125 0.125-0.125h0.441c0.039 0 0.082 0.020 0.102 0.055l1.273 1.719v-1.648c0-0.070 0.055-0.125 0.125-0.125h0.445c0.070-0.004 0.129 0.055 0.129 0.121zM7.426 7.852h-0.445c-0.070 0-0.125 0.055-0.125 0.125v2.777c0 0.070 0.055 0.125 0.125 0.125h0.445c0.070 0 0.125-0.055 0.125-0.125v-2.777c0-0.066-0.055-0.125-0.125-0.125zM6.352 10.18h-1.215v-2.203c0-0.070-0.055-0.125-0.125-0.125h-0.445c-0.070 0-0.125 0.055-0.125 0.125v2.777c0 0.035 0.012 0.063 0.035 0.086 0.023 0.020 0.051 0.035 0.086 0.035h1.785c0.070 0 0.125-0.055 0.125-0.125v-0.445c0-0.066-0.055-0.125-0.121-0.125zM12.973 7.852h-1.785c-0.066 0-0.125 0.055-0.125 0.125v2.777c0 0.066 0.055 0.125 0.125 0.125h1.785c0.070 0 0.125-0.055 0.125-0.125v-0.445c0-0.070-0.055-0.125-0.125-0.125h-1.215v-0.469h1.215c0.070 0 0.125-0.055 0.125-0.125v-0.449c0-0.070-0.055-0.125-0.125-0.125h-1.215v-0.469h1.215c0.070 0 0.125-0.055 0.125-0.125v-0.445c-0.004-0.066-0.059-0.125-0.125-0.125zM17.5 4.441v11.145c-0.004 1.75-1.438 3.168-3.191 3.164h-11.145c-1.75-0.004-3.168-1.441-3.164-3.191v-11.145c0.004-1.75 1.441-3.168 3.191-3.164h11.145c1.75 0.004 3.168 1.438 3.164 3.191zM15.094 9.23c0-2.852-2.859-5.172-6.371-5.172s-6.371 2.32-6.371 5.172c0 2.555 2.266 4.695 5.328 5.102 0.746 0.16 0.66 0.434 0.492 1.438-0.027 0.16-0.129 0.629 0.551 0.344s3.668-2.16 5.008-3.699c0.922-1.016 1.363-2.043 1.363-3.184z"></path>
</svg>
