<svg xmlns="http://www.w3.org/2000/svg" width="25" height="20" viewBox="0 0 25 20">
<path d="M24.902 9.438c-0.164-0.188-2.453-3.051-2.855-3.535s-0.602-0.398-0.848-0.363c-0.25 0.035-3.145 0.523-3.48 0.578-0.336 0.059-0.547 0.191-0.34 0.48 0.184 0.258 2.086 2.957 2.508 3.551l-7.566 1.813-6.023-10.059c-0.238-0.355-0.289-0.48-0.836-0.453-0.547 0.023-4.723 0.371-5.020 0.398-0.297 0.023-0.625 0.156-0.328 0.859s5.039 10.922 5.172 11.219c0.133 0.297 0.477 0.781 1.281 0.586 0.824-0.199 3.684-0.945 5.246-1.355 0.824 1.496 2.508 4.527 2.82 4.961 0.414 0.582 0.703 0.484 1.34 0.289 0.5-0.152 7.797-2.777 8.125-2.91 0.328-0.137 0.531-0.23 0.309-0.563-0.164-0.242-2.090-2.82-3.098-4.172 0.691-0.184 3.148-0.836 3.41-0.91 0.309-0.078 0.352-0.227 0.184-0.414zM11.145 12.25c-0.090 0.020-4.328 1.035-4.555 1.086s-0.227 0.027-0.254-0.051c-0.027-0.078-5.039-10.418-5.109-10.547s-0.066-0.23 0-0.23 4.004-0.352 4.141-0.359c0.141-0.008 0.125 0.023 0.176 0.109 0 0 5.555 9.586 5.648 9.754 0.102 0.168 0.043 0.219-0.047 0.238zM23.098 14.492c0.066 0.105 0.137 0.176-0.078 0.25-0.211 0.078-7.176 2.426-7.309 2.484-0.137 0.059-0.242 0.078-0.414-0.176s-2.438-4.172-2.438-4.172l7.375-1.918c0.184-0.059 0.242-0.098 0.359 0.086 0.113 0.188 2.438 3.34 2.504 3.445zM23.57 9.254c-0.164 0.035-2.875 0.707-2.875 0.707l-2.215-3.039c-0.063-0.090-0.113-0.176 0.043-0.195s2.672-0.477 2.785-0.5c0.113-0.027 0.211-0.059 0.352 0.133s2.055 2.617 2.129 2.711c0.070 0.090-0.055 0.145-0.219 0.184z"></path>
</svg>
