<svg xmlns="http://www.w3.org/2000/svg" width="18" height="20" viewBox="0 0 18 20">
<path d="M15.625 1.25h-13.75c-1.035 0-1.875 0.84-1.875 1.875v13.75c0 1.035 0.84 1.875 1.875 1.875h13.75c1.035 0 1.875-0.84 1.875-1.875v-13.75c0-1.035-0.84-1.875-1.875-1.875zM12.023 13.473c-2.477 0-3.336-1.117-3.793-2.504-0.637-1.992-0.84-3.293-2.461-3.293-0.875 0-1.762 0.629-1.762 2.391 0 1.375 0.703 2.234 1.691 2.234 1.117 0 1.859-0.832 1.859-0.832l0.457 1.246s-0.773 0.758-2.391 0.758c-2.004 0-3.121-1.176-3.121-3.352 0-2.262 1.117-3.594 3.223-3.594 2.871 0 3.156 1.617 3.938 3.98 0.344 1.047 0.945 1.805 2.391 1.805 0.973 0 1.488-0.215 1.488-0.746 0-0.777-0.852-0.859-1.949-1.117-1.187-0.285-1.66-0.902-1.66-1.875 0-1.563 1.262-2.047 2.547-2.047 1.461 0 2.348 0.531 2.461 1.82l-1.434 0.172c-0.059-0.617-0.43-0.875-1.117-0.875-0.629 0-1.016 0.285-1.016 0.773 0 0.43 0.188 0.688 0.816 0.832 1.277 0.277 2.805 0.469 2.805 2.246 0.004 1.434-1.199 1.977-2.973 1.977z"></path>
</svg>
