<svg xmlns="http://www.w3.org/2000/svg" width="23" height="20" viewBox="0 0 23 20">
<path d="M15.099 4.355l0.59 9.725-0.429-0.011c-1.415-0.032-2.798 0.343-4.010 1.094-1.212-0.751-2.595-1.094-4.010-1.094-1.78 0-3.206 0.418-4.825 1.083l1.222-10.089c1.115-0.461 2.402-0.708 3.603-0.708 1.608 0 2.884 0.515 4.010 1.662 1.083-1.104 2.305-1.63 3.849-1.662zM22.229 17.5c-0.997 0-1.855-0.204-2.756-0.611-1.34-0.611-2.734-0.976-4.214-0.976-1.523 0-2.927 0.504-4.010 1.587-1.083-1.083-2.487-1.587-4.010-1.587-1.48 0-2.873 0.365-4.214 0.976-0.868 0.386-1.748 0.611-2.702 0.611h-0.054l1.662-13.638c1.533-0.868 3.399-1.362 5.168-1.362 1.447 0 2.938 0.3 4.149 1.137 1.212-0.836 2.702-1.137 4.149-1.137 1.769 0 3.635 0.493 5.168 1.362l1.662 13.638zM20.535 15.752l-1.33-10.947c-1.201-0.547-2.627-0.836-3.946-0.836-1.501 0-2.906 0.472-4.010 1.512-1.104-1.040-2.509-1.512-4.010-1.512-1.319 0-2.745 0.289-3.946 0.836l-1.33 10.947c1.844-0.761 3.238-1.308 5.275-1.308 1.469 0 2.766 0.375 4.010 1.158 1.244-0.783 2.541-1.158 4.010-1.158 2.037 0 3.431 0.547 5.275 1.308z"></path>
</svg>
