<svg xmlns="http://www.w3.org/2000/svg" width="18" height="20" viewBox="0 0 18 20">
<path d="M0 1.25v17.5h17.5v-17.5h-17.5zM14.539 5.395l-0.938 0.898c-0.082 0.063-0.121 0.164-0.105 0.262v6.613c-0.016 0.102 0.023 0.203 0.105 0.262l0.918 0.898v0.199h-4.609v-0.191l0.949-0.922c0.094-0.094 0.094-0.121 0.094-0.262v-5.348l-2.641 6.703h-0.355l-3.074-6.703v4.492c-0.027 0.188 0.039 0.379 0.172 0.516l1.234 1.496v0.199h-3.508v-0.199l1.234-1.496c0.133-0.137 0.191-0.328 0.16-0.516v-5.195c0.016-0.145-0.039-0.285-0.148-0.383l-1.098-1.324v-0.199h3.41l2.633 5.781 2.316-5.777h3.25v0.195z"></path>
</svg>
