<svg xmlns="http://www.w3.org/2000/svg" width="20" height="20" viewBox="0 0 20 20">
<path d="M2.793 5.559c0.023-0.23-0.066-0.461-0.238-0.617l-1.762-2.125v-0.316h5.477l4.234 9.285 3.723-9.285h5.223v0.316l-1.508 1.445c-0.129 0.098-0.195 0.262-0.168 0.422v10.625c-0.027 0.16 0.039 0.324 0.168 0.422l1.473 1.445v0.316h-7.41v-0.316l1.527-1.48c0.148-0.148 0.148-0.195 0.148-0.422v-8.586l-4.246 10.777h-0.574l-4.938-10.777v7.223c-0.043 0.305 0.059 0.609 0.273 0.828l1.984 2.406v0.316h-5.625v-0.313l1.984-2.41c0.211-0.219 0.309-0.527 0.254-0.828v-8.352z"></path>
</svg>
