<svg xmlns="http://www.w3.org/2000/svg" width="19" height="20" viewBox="0 0 19 20">
<path d="M9.688 0.313c-5.352 0-9.688 4.34-9.688 9.688 0 5.352 4.336 9.688 9.688 9.688s9.688-4.336 9.688-9.688c0-5.348-4.336-9.688-9.688-9.688zM6.563 14.059c-1.227 0.414-2.297 1.066-3.125 1.883v-10.629c0-0.863 0.699-1.563 1.563-1.563s1.563 0.699 1.563 1.563v8.746zM11.25 13.672c-0.504-0.078-1.023-0.121-1.555-0.121-0.539 0-1.063 0.043-1.57 0.121v-8.359c0-0.863 0.699-1.563 1.563-1.563s1.563 0.699 1.563 1.563v8.359zM15.938 15.926c-0.828-0.813-1.898-1.461-3.125-1.875v-8.738c0-0.863 0.699-1.563 1.563-1.563s1.563 0.699 1.563 1.563v10.613z"></path>
</svg>
