<svg xmlns="http://www.w3.org/2000/svg" width="25" height="20" viewBox="0 0 25 20">
<path d="M16.579 8.583c-0.324-3.32-3.137-5.927-6.543-5.927-2.823 0-5.321 1.817-6.219 4.456-2.131 0.314-3.775 2.141-3.775 4.359 0 2.434 1.979 4.413 4.424 4.413h11.313c2.044 0 3.71-1.655 3.71-3.699 0-1.763-1.255-3.245-2.909-3.602zM15.779 14.229h-11.313c-1.525 0-2.769-1.233-2.769-2.758s1.244-2.758 2.769-2.758c0.735 0 1.428 0.292 1.947 0.811 0.78 0.78 1.958-0.399 1.179-1.179-0.573-0.562-1.276-0.952-2.033-1.146 0.779-1.73 2.531-2.888 4.478-2.888 2.715 0 4.921 2.206 4.921 4.91 0 0.53-0.087 1.049-0.249 1.547-0.349 1.075 1.255 1.521 1.568 0.519 0.108-0.324 0.195-0.66 0.249-0.995 0.757 0.292 1.309 1.027 1.309 1.893 0 1.125-0.919 2.044-2.055 2.044zM24.961 12.185c0 1.72-0.498 3.374-1.449 4.791-0.162 0.238-0.422 0.368-0.692 0.368-0.637 0-1.060-0.735-0.681-1.287 0.757-1.146 1.168-2.488 1.168-3.872s-0.411-2.726-1.168-3.861c-0.612-0.892 0.756-1.845 1.374-0.919 0.952 1.406 1.449 3.061 1.449 4.78zM22.193 12.185c0 1.233-0.357 2.423-1.049 3.45-0.162 0.238-0.422 0.357-0.692 0.357-0.672 0-1.056-0.741-0.681-1.287 0.508-0.746 0.768-1.612 0.768-2.52 0-0.898-0.26-1.774-0.768-2.52-0.616-0.898 0.742-1.84 1.374-0.919 0.692 1.017 1.049 2.206 1.049 3.439z"></path>
</svg>
