<svg xmlns="http://www.w3.org/2000/svg" width="20" height="20" viewBox="0 0 20 20">
<path d="M3.867 16.184c0.043 0.223-0.090 0.434-0.313 0.48-0.211 0.043-0.426-0.090-0.469-0.313-0.043-0.211 0.090-0.434 0.301-0.48s0.434 0.090 0.48 0.313zM9.457 18.973c-0.246 0.18-0.313 0.523-0.145 0.781 0.18 0.258 0.523 0.324 0.781 0.145 0.246-0.18 0.313-0.523 0.133-0.781-0.164-0.254-0.512-0.324-0.77-0.145zM6.098 0.914c0.246-0.055 0.402-0.301 0.348-0.547-0.043-0.258-0.289-0.414-0.535-0.355-0.246 0.055-0.402 0.301-0.355 0.547 0.055 0.258 0.297 0.414 0.543 0.355zM1.344 8.84c-0.391-0.27-0.926-0.168-1.195 0.234-0.27 0.391-0.168 0.938 0.223 1.207 0.391 0.277 0.926 0.18 1.195-0.223 0.27-0.406 0.168-0.941-0.223-1.219zM11.969 2.164c0.414-0.246 0.535-0.781 0.301-1.184-0.246-0.414-0.77-0.547-1.172-0.301s-0.535 0.781-0.289 1.195c0.234 0.402 0.758 0.535 1.16 0.289zM4.504 4.43c0.301-0.211 0.367-0.625 0.168-0.926s-0.613-0.367-0.902-0.168c-0.301 0.211-0.367 0.625-0.168 0.926 0.199 0.305 0.609 0.371 0.902 0.168zM19.047 10.523c-0.289 0.066-0.48 0.355-0.414 0.66 0.055 0.289 0.348 0.48 0.637 0.414 0.289-0.055 0.48-0.348 0.414-0.648-0.059-0.289-0.348-0.48-0.637-0.426zM20.598 8.305c-0.043-0.223-0.258-0.355-0.469-0.313-0.223 0.043-0.355 0.27-0.313 0.492 0.043 0.211 0.258 0.355 0.48 0.313 0.211-0.059 0.355-0.27 0.301-0.492zM17.461 5.426c-0.336 0.234-0.414 0.691-0.191 1.027s0.68 0.414 1.016 0.191c0.324-0.234 0.402-0.691 0.18-1.027-0.223-0.34-0.68-0.426-1.004-0.191zM17.215 10.871c1.027 1.684 0.59 3.906-1.027 5.043-0.68 0.48-1.449 0.691-2.223 0.668-0.469 1.84-2.711 2.523-4.105 1.273-0.043 0.035-0.102 0.066-0.145 0.113-1.527 1.059-3.605 0.68-4.664-0.871-0.379-0.559-0.57-1.195-0.59-1.832-2.555-0.426-3.516-3.672-1.605-5.457-1.105-1.832 0.023-4.195 2.086-4.488 0.98-2.586 4.203-3.813 6.391-2.117 2.633-0.871 5.324 1.148 5.113 3.949 1.605 0.492 2.063 2.613 0.77 3.719zM14.48 13.773c-0.121-0.805-1.598-0.18-1.684-1.059-0.121-1.25 1.707-3.949 1.563-5-0.133-0.938-0.758-1.137-1.305-1.148-0.523-0.012-0.66 0.078-0.836 0.18-0.113 0.066-0.258 0.191-0.457-0.012-0.246-0.234-0.434-0.457-0.758-0.504-0.48-0.078-0.691 0.078-1.039 0.379-0.133 0.113-0.469 0.504-0.781 0.355-0.133-0.066-0.602-0.301-0.938-0.445-0.637-0.277-1.563 0.18-1.898 0.781-0.504 0.895-1.484 4.418-1.629 4.887-0.336 1.039 0.426 1.898 1.441 1.84 0.434-0.023 0.715-0.18 0.992-0.68 0.156-0.289 1.629-4.207 1.742-4.398 0.078-0.133 0.348-0.313 0.57-0.199 0.223 0.121 0.27 0.367 0.234 0.59-0.043 0.379-1.094 2.77-1.129 3.035-0.133 0.895 1.051 1.039 1.508 0.156 0.145-0.277 1.785-3.617 1.93-3.84 0.168-0.246 0.289-0.324 0.457-0.313 0.121 0 0.324 0.035 0.277 0.426-0.055 0.367-1.371 2.824-1.52 3.426-0.18 0.805 0.258 1.617 0.973 1.977 0.445 0.223 2.441 0.613 2.285-0.434zM14.703 17.379c-0.402 0.289-0.504 0.859-0.223 1.273 0.277 0.414 0.836 0.512 1.25 0.234 0.414-0.289 0.512-0.859 0.234-1.273-0.289-0.414-0.848-0.527-1.262-0.234z"></path>
</svg>
