<svg xmlns="http://www.w3.org/2000/svg" width="21" height="20" viewBox="0 0 21 20">
<path d="M4.441 10c0 4.758 3.277 8.703 7.559 9.418-0.73 0.176-1.492 0.27-2.273 0.27-5.375 0-9.727-4.336-9.727-9.688s4.352-9.688 9.723-9.688c0.785 0 1.547 0.094 2.273 0.27-4.281 0.715-7.555 4.66-7.555 9.418zM16.059 13.918c-3.035 2.164-7.016 1.855-9.391-0.57 0.215 0.551 0.496 1.082 0.848 1.582 2.406 3.445 7.125 4.27 10.535 1.836s4.223-7.199 1.816-10.648c-0.352-0.504-0.754-0.949-1.191-1.336 1.461 3.078 0.418 6.973-2.617 9.137zM7.512 4.387c-0.055 0.039-0.105 0.082-0.156 0.121 2.512-0.695 5.309 0.156 6.988 2.363 1.395 1.836 1.676 4.164 0.953 6.172 2.215-2.195 2.641-5.551 0.871-7.883-1.953-2.559-5.824-2.906-8.656-0.773zM11.563 8.75c-0.172 0-0.313-0.141-0.313-0.313v-1.563c0-0.172-0.141-0.313-0.313-0.313h-1.875c-0.172 0-0.313 0.141-0.313 0.313v1.563c0 0.172-0.141 0.313-0.313 0.313h-1.563c-0.172 0-0.313 0.141-0.313 0.313v1.875c0 0.172 0.141 0.313 0.313 0.313h1.563c0.172 0 0.313 0.141 0.313 0.313v1.563c0 0.172 0.141 0.313 0.313 0.313h1.875c0.172 0 0.313-0.141 0.313-0.313v-1.563c0-0.172 0.141-0.313 0.313-0.313h1.563c0.172 0 0.313-0.141 0.313-0.313v-1.875c0-0.172-0.141-0.313-0.313-0.313h-1.563z"></path>
</svg>
