<svg xmlns="http://www.w3.org/2000/svg" width="25" height="20" viewBox="0 0 25 20">
<path d="M7.309 6.246l-1.336 4.441-2.129-4.441h-1.93l-1.914 6.254h1.754l1.215-4.16 1.977 4.16h2.223l1.895-6.254h-1.754zM24.984 6.211c-0.113-0.703-0.934-1.098-1.645-1.223-1.742-0.305-3.98 0.637-3.457 2.297v0.004c-1.711 0.34-2.902 1.047-3.68 1.883-0.117-0.383-0.531-0.648-1.328-0.648h-3.422c-0.363 0-0.504-0.090-0.449-0.289 0.063-0.215 0.074-0.266 0.145-0.477 0.082-0.25 0.305-0.277 0.52-0.277h5.215l0.379-1.23c-5.457 0-5.645-0.020-6.254 0.047-0.48 0.051-0.918 0.188-1.195 0.586-0.266 0.387-0.563 1.391-0.688 1.84-0.211 0.758-0.023 1.117 1.281 1.117h3.41c0.305 0 0.344 0.105 0.301 0.258-0.043 0.172-0.109 0.391-0.176 0.57-0.063 0.164-0.184 0.289-0.539 0.289h-4.953l-0.453 1.543c5.465 0 5.676-0.023 6.285-0.090 0.258-0.027 0.508-0.082 0.723-0.191 0.008 0.145 0.020 0.285 0.047 0.422 0.211 1.191 1.070 2.043 2.219 2.324 1.898 0.465 4.246-0.656 5.277-2.656 0.73-1.414 0.551-2.977-0.133-4.121h0.004c1.156-0.23 2.746-0.859 2.566-1.977zM20.73 10.301c-0.23 1.152-1.43 1.867-2.406 1.715-1.207-0.188-1.504-1.543-0.551-2.531 0.633-0.656 1.766-0.938 2.676-1.051 0.262 0.551 0.402 1.25 0.281 1.867zM21.582 7.055c-0.164-0.234-0.383-0.723-0.098-1.027 0.262-0.281 0.816-0.395 1.242-0.301 0.598 0.133 0.77 0.621 0.191 0.953-0.418 0.238-0.922 0.316-1.336 0.375z"></path>
</svg>
