<svg xmlns="http://www.w3.org/2000/svg" width="16" height="20" viewBox="0 0 16 20">
<path d="M3.438 0.316s5.211-0.32 4.727 4.078c0 0 0.746-2.926 4.023-1.586 0 0-0.691 2.891-3.438 2.188 0 0 0.57-2.133 2.582-2.211 0 0-1.559-0.402-3.207 1.906 0 0-0.773-3.691-3.656-3.895 0 0 2.937 0.758 3.031 4.199 0 0.004-4.156 0.273-4.063-4.68zM15.625 12.645c0 1.895-0.379 3.723-1.25 5.168-1.648 1.207-4.102 1.875-6.563 1.875-2.457 0-4.914-0.668-6.563-1.875-0.871-1.445-1.25-3.273-1.25-5.168 0-1.891 0.691-3.699 1.563-5.145 1.648-1.207 3.793-1.898 6.25-1.898 2.461 0 4.602 0.688 6.25 1.898 0.871 1.445 1.563 3.254 1.563 5.145zM4.688 16.719c0-0.605-0.488-1.094-1.094-1.094s-1.094 0.488-1.094 1.094 0.488 1.094 1.094 1.094 1.094-0.488 1.094-1.094zM4.688 14.133c0-0.605-0.488-1.094-1.094-1.094s-1.094 0.488-1.094 1.094 0.488 1.094 1.094 1.094 1.094-0.488 1.094-1.094zM4.688 11.547c0-0.605-0.488-1.094-1.094-1.094s-1.094 0.488-1.094 1.094 0.488 1.094 1.094 1.094 1.094-0.488 1.094-1.094zM7.5 16.719c0-0.605-0.488-1.094-1.094-1.094s-1.094 0.488-1.094 1.094 0.488 1.094 1.094 1.094 1.094-0.488 1.094-1.094zM7.5 14.133c0-0.605-0.488-1.094-1.094-1.094s-1.094 0.488-1.094 1.094 0.488 1.094 1.094 1.094 1.094-0.488 1.094-1.094zM7.5 11.547c0-0.605-0.488-1.094-1.094-1.094s-1.094 0.488-1.094 1.094 0.488 1.094 1.094 1.094 1.094-0.488 1.094-1.094zM10.313 16.719c0-0.605-0.488-1.094-1.094-1.094s-1.094 0.488-1.094 1.094 0.488 1.094 1.094 1.094 1.094-0.488 1.094-1.094zM10.313 14.133c0-0.605-0.488-1.094-1.094-1.094s-1.094 0.488-1.094 1.094 0.488 1.094 1.094 1.094 1.094-0.488 1.094-1.094zM10.313 11.547c0-0.605-0.488-1.094-1.094-1.094s-1.094 0.488-1.094 1.094 0.488 1.094 1.094 1.094 1.094-0.488 1.094-1.094zM13.125 16.719c0-0.605-0.488-1.094-1.094-1.094s-1.094 0.488-1.094 1.094 0.488 1.094 1.094 1.094 1.094-0.488 1.094-1.094zM13.125 14.133c0-0.605-0.488-1.094-1.094-1.094s-1.094 0.488-1.094 1.094 0.488 1.094 1.094 1.094 1.094-0.488 1.094-1.094zM13.125 11.547c0-0.605-0.488-1.094-1.094-1.094s-1.094 0.488-1.094 1.094 0.488 1.094 1.094 1.094 1.094-0.488 1.094-1.094zM14.063 10c-0.188-0.871-0.289-1.441-0.625-2.188-1.516-0.777-3.535-1.25-5.625-1.25s-4.109 0.473-5.625 1.25c-0.344 0.762-0.438 1.324-0.625 2.188 1.648-0.309 3.855-0.578 6.25-0.578s4.602 0.27 6.25 0.578z"></path>
</svg>
