<svg xmlns="http://www.w3.org/2000/svg" width="19" height="20" viewBox="0 0 19 20">
<path d="M11.652 14.594c-0.555 0.531-1.223 0.941-1.969 1.191-0.742-0.25-1.414-0.66-1.965-1.191h3.934zM13.371 6.797c0.781-0.66 1.703-1.141 2.719-1.414v6.297c0 8.57-12.813 8.5-12.813 0.012v-6.312c1.012 0.27 1.938 0.766 2.715 1.422 2.219-1.563 5.176-1.559 7.379-0.004zM5.215 4.512c2.516-2.344 6.418-2.348 8.941-0.008-0.277 0.137-0.543 0.285-0.805 0.449-2.293-1.191-5.047-1.188-7.34 0.004-0.246-0.156-0.543-0.32-0.797-0.445zM1.711 3.641v2.707c-2.281 1.426-2.281 4.73 0.004 6.184 1.031 9.574 14.91 9.387 15.922 0.059l0.012-0.066c2.293-1.418 2.301-4.754 0.008-6.18v-2.703c-0.676 0.020-1.328 0.117-1.957 0.289-3.203-3.574-8.809-3.574-12.012 0.004-0.637-0.172-1.293-0.273-1.977-0.293zM10.125 13.75s1.406-0.012 2.395-0.059c0.398-0.020 0.824-0.156 0.996-0.254 1.027-0.59 0.992-1.531 1.023-1.852-3.105-0.023-3.902-0.152-4.414 2.164zM4.832 11.59c0.031 0.32-0.004 1.262 1.023 1.852 0.172 0.098 0.594 0.234 0.996 0.254 0.988 0.043 2.395 0.059 2.395 0.059-0.516-2.32-1.316-2.191-4.414-2.164zM11.438 16.41c-0.125-0.207-0.27-0.285-0.27-0.285-0.969 0.285-2.039 0.27-2.965 0 0 0-0.113 0.059-0.25 0.258-0.109 0.16-0.145 0.375-0.145 0.375 1.137 0.688 2.621 0.688 3.758 0-0.004-0.004-0.012-0.156-0.129-0.348z"></path>
</svg>
