<svg xmlns="http://www.w3.org/2000/svg" width="18" height="20" viewBox="0 0 18 20">
<path d="M3.746 1.309c-1.742 0.313-3.145 1.602-3.586 3.297-0.16 0.613-0.172 0.973-0.152 5.723 0.008 4.359 0.012 4.461 0.086 4.801 0.402 1.816 1.691 3.109 3.527 3.535 0.238 0.055 0.543 0.066 2.504 0.074 2.027 0.016 2.238 0.012 2.293-0.043s0.059-0.754 0.059-8.68c0-5.879-0.012-8.645-0.035-8.695-0.035-0.066-0.098-0.070-2.223-0.066-1.727 0.004-2.246 0.016-2.473 0.055zM7.023 10.004v7.34l-1.477-0.020c-1.359-0.016-1.504-0.023-1.777-0.090-1.168-0.301-2.031-1.199-2.277-2.371-0.078-0.367-0.078-9.379-0.004-9.738 0.219-1.020 0.926-1.863 1.875-2.242 0.477-0.191 0.699-0.215 2.25-0.219l1.402-0.004v7.344zM4.059 4.879c-0.227 0.043-0.574 0.219-0.762 0.379-0.379 0.328-0.57 0.797-0.539 1.348 0.016 0.285 0.031 0.363 0.148 0.594 0.172 0.352 0.426 0.609 0.777 0.781 0.242 0.121 0.305 0.133 0.621 0.145 0.285 0.012 0.387 0 0.578-0.066 0.785-0.266 1.262-1.027 1.125-1.813-0.152-0.926-1.039-1.551-1.949-1.367zM10.238 1.273c-0.016 0.012-0.023 3.938-0.023 8.73 0 7.902 0.004 8.703 0.059 8.727 0.098 0.035 2.91 0.023 3.258-0.016 1.473-0.168 2.773-1.063 3.477-2.391 0.090-0.172 0.211-0.457 0.273-0.633 0.227-0.68 0.223-0.5 0.223-5.707 0-4.156-0.008-4.777-0.059-5.039-0.359-1.887-1.801-3.312-3.691-3.637-0.254-0.043-0.645-0.055-1.906-0.055-0.875-0.004-1.598 0.008-1.609 0.020zM14.109 9.168c0.566 0.148 1.027 0.578 1.219 1.129 0.121 0.34 0.117 0.84-0.004 1.152-0.223 0.574-0.656 0.977-1.215 1.125-0.906 0.234-1.871-0.313-2.133-1.211-0.078-0.273-0.074-0.738 0.016-1.023 0.27-0.887 1.211-1.41 2.117-1.172z"></path>
</svg>
