<svg xmlns="http://www.w3.org/2000/svg" width="18" height="20" viewBox="0 0 18 20">
<path d="M8.75 19.844c-0.262 0-0.527-0.070-0.758-0.203l-2.41-1.426c-0.359-0.203-0.184-0.273-0.066-0.313 0.48-0.168 0.578-0.203 1.090-0.496 0.055-0.031 0.125-0.020 0.18 0.016l1.852 1.098c0.066 0.039 0.16 0.039 0.223 0l7.215-4.164c0.066-0.039 0.109-0.117 0.109-0.195v-8.328c0-0.082-0.043-0.156-0.113-0.199l-7.211-4.16c-0.066-0.039-0.156-0.039-0.223 0l-7.207 4.164c-0.070 0.039-0.113 0.117-0.113 0.199v8.324c0 0.078 0.043 0.156 0.113 0.191l1.977 1.141c1.074 0.535 1.73-0.094 1.73-0.73v-8.219c0-0.117 0.094-0.207 0.211-0.207h0.914c0.113 0 0.211 0.090 0.211 0.207v8.223c0 1.43-0.781 2.25-2.137 2.25-0.418 0-0.746 0-1.66-0.453l-1.891-1.090c-0.469-0.27-0.758-0.773-0.758-1.316v-8.324c0-0.539 0.289-1.047 0.758-1.316l7.207-4.164c0.457-0.258 1.063-0.258 1.516 0l7.215 4.168c0.469 0.27 0.758 0.773 0.758 1.316v8.324c0 0.539-0.289 1.043-0.758 1.316l-7.215 4.164c-0.23 0.133-0.492 0.203-0.758 0.203zM14.574 11.637c0-1.559-1.055-1.973-3.27-2.266-2.242-0.297-2.469-0.449-2.469-0.973 0-0.434 0.191-1.012 1.852-1.012 1.48 0 2.027 0.32 2.254 1.32 0.020 0.094 0.105 0.164 0.203 0.164h0.938c0.059 0 0.113-0.023 0.152-0.066s0.059-0.102 0.055-0.16c-0.145-1.723-1.289-2.523-3.602-2.523-2.059 0-3.285 0.867-3.285 2.324 0 1.578 1.223 2.016 3.195 2.211 2.363 0.23 2.547 0.578 2.547 1.043 0 0.805-0.648 1.148-2.168 1.148-1.91 0-2.328-0.48-2.469-1.43-0.016-0.102-0.102-0.176-0.207-0.176h-0.934c-0.117 0-0.207 0.094-0.207 0.207 0 1.215 0.66 2.664 3.82 2.664 2.281-0.004 3.594-0.906 3.594-2.477z"></path>
</svg>
