<svg xmlns="http://www.w3.org/2000/svg" width="25" height="20" viewBox="0 0 25 20">
<path d="M12.355 17.656c-0.082 0-0.164-0.023-0.238-0.063l-0.75-0.445c-0.113-0.063-0.059-0.086-0.020-0.098 0.148-0.051 0.18-0.063 0.34-0.156 0.016-0.008 0.039-0.004 0.055 0.004l0.578 0.344c0.020 0.012 0.051 0.012 0.070 0l2.258-1.305c0.020-0.012 0.035-0.035 0.035-0.063v-2.605c0-0.027-0.012-0.051-0.035-0.063l-2.258-1.301c-0.020-0.012-0.047-0.012-0.070 0l-2.258 1.301c-0.023 0.012-0.035 0.039-0.035 0.063v2.605c0 0.023 0.016 0.047 0.035 0.059l0.617 0.355c0.336 0.168 0.543-0.031 0.543-0.227v-2.574c0-0.035 0.027-0.066 0.066-0.066h0.285c0.035 0 0.066 0.027 0.066 0.066v2.574c0 0.449-0.242 0.703-0.668 0.703-0.129 0-0.234 0-0.52-0.141l-0.594-0.34c-0.145-0.086-0.238-0.242-0.238-0.41v-2.605c0-0.168 0.090-0.328 0.238-0.41l2.258-1.305c0.145-0.082 0.332-0.082 0.473 0l2.258 1.305c0.145 0.086 0.238 0.242 0.238 0.41v2.605c0 0.168-0.090 0.328-0.238 0.41l-2.258 1.305c-0.066 0.043-0.148 0.066-0.234 0.066zM14.18 15.086c0-0.488-0.328-0.617-1.023-0.711-0.703-0.094-0.773-0.141-0.773-0.305 0-0.137 0.059-0.316 0.578-0.316 0.465 0 0.637 0.102 0.707 0.414 0.008 0.031 0.031 0.051 0.063 0.051h0.293c0.020 0 0.035-0.008 0.047-0.020 0.012-0.016 0.020-0.031 0.016-0.051-0.047-0.539-0.402-0.789-1.125-0.789-0.645 0-1.027 0.273-1.027 0.727 0 0.496 0.383 0.629 1 0.691 0.738 0.074 0.797 0.18 0.797 0.324 0 0.254-0.203 0.359-0.68 0.359-0.598 0-0.73-0.148-0.773-0.445-0.004-0.031-0.031-0.055-0.066-0.055h-0.293c-0.035 0-0.066 0.027-0.066 0.066 0 0.379 0.207 0.832 1.195 0.832 0.723 0 1.133-0.281 1.133-0.773zM16.309 13.129c0 0.238-0.195 0.434-0.434 0.434s-0.434-0.195-0.434-0.434c0-0.246 0.203-0.434 0.434-0.434 0.234-0.004 0.434 0.188 0.434 0.434zM16.238 13.129c0-0.203-0.164-0.363-0.367-0.363-0.199 0-0.363 0.16-0.363 0.363s0.164 0.367 0.363 0.367c0.203-0.004 0.367-0.168 0.367-0.367zM16.063 13.371h-0.102c-0.004-0.023-0.020-0.148-0.020-0.152-0.008-0.027-0.016-0.043-0.051-0.043h-0.086v0.195h-0.094v-0.488h0.168c0.059 0 0.172 0 0.172 0.129 0 0.090-0.059 0.109-0.094 0.121 0.066 0.004 0.070 0.047 0.082 0.109 0.004 0.039 0.012 0.105 0.023 0.129zM15.953 13.027c0-0.066-0.047-0.066-0.070-0.066h-0.078v0.137h0.074c0.063 0 0.074-0.043 0.074-0.070zM5.363 7.461c0-0.105-0.055-0.199-0.145-0.25l-2.395-1.379c-0.039-0.023-0.086-0.035-0.133-0.039h-0.023c-0.047 0-0.090 0.016-0.133 0.039l-2.391 1.379c-0.090 0.051-0.145 0.148-0.145 0.25l0.004 3.711c0 0.051 0.027 0.098 0.070 0.125s0.098 0.027 0.145 0l1.422-0.816c0.090-0.055 0.145-0.148 0.145-0.25v-1.734c0-0.102 0.055-0.199 0.145-0.25l0.605-0.348c0.047-0.027 0.094-0.039 0.145-0.039s0.102 0.012 0.145 0.039l0.605 0.348c0.090 0.051 0.145 0.148 0.145 0.25v1.734c0 0.102 0.055 0.199 0.145 0.25l1.422 0.816c0.043 0.027 0.102 0.027 0.145 0 0.043-0.023 0.070-0.074 0.070-0.125l0.008-3.711zM18.457 3.41v6.891c0 0.102-0.055 0.199-0.145 0.25l-2.395 1.383c-0.090 0.051-0.199 0.051-0.289 0l-2.395-1.383c-0.090-0.051-0.145-0.148-0.145-0.25v-2.766c0-0.102 0.055-0.199 0.145-0.25l2.395-1.383c0.090-0.051 0.199-0.051 0.289 0l0.598 0.344c0.066 0.039 0.152-0.012 0.152-0.086v-3.672c0-0.109 0.117-0.18 0.215-0.125l1.426 0.797c0.090 0.047 0.148 0.145 0.148 0.25zM16.66 8.445c0-0.027-0.016-0.051-0.035-0.063l-0.82-0.477c-0.023-0.012-0.051-0.012-0.074 0l-0.82 0.477c-0.023 0.012-0.035 0.035-0.035 0.063v0.949c0 0.027 0.016 0.051 0.035 0.063l0.82 0.473c0.023 0.012 0.051 0.012 0.070 0l0.82-0.473c0.023-0.012 0.035-0.035 0.035-0.063v-0.949zM24.855 8.418c0.090-0.051 0.145-0.148 0.145-0.25v-0.668c0-0.102-0.055-0.199-0.145-0.25l-2.379-1.383c-0.090-0.051-0.199-0.051-0.289 0l-2.395 1.383c-0.090 0.051-0.145 0.148-0.145 0.25v2.766c0 0.105 0.055 0.199 0.145 0.25l2.379 1.355c0.086 0.051 0.195 0.051 0.285 0l1.437-0.801c0.098-0.055 0.098-0.195 0-0.25l-2.41-1.383c-0.047-0.027-0.074-0.074-0.074-0.125v-0.867c0-0.051 0.027-0.098 0.074-0.125l0.75-0.434c0.043-0.027 0.102-0.027 0.145 0l0.75 0.434c0.043 0.027 0.074 0.074 0.074 0.125v0.68c0 0.109 0.121 0.18 0.219 0.125l1.434-0.832zM21.836 8.555c-0.016 0.012-0.027 0.027-0.027 0.047v0.531c0 0.020 0.012 0.039 0.027 0.047l0.461 0.266c0.016 0.012 0.039 0.012 0.055 0l0.461-0.266c0.016-0.012 0.027-0.027 0.027-0.047v-0.531c0-0.020-0.012-0.039-0.027-0.047l-0.461-0.266c-0.016-0.012-0.039-0.012-0.055 0l-0.461 0.266zM11.906 10.254v-2.75c0-0.102-0.063-0.199-0.152-0.25l-2.387-1.375c-0.082-0.047-0.195-0.055-0.289 0l-2.387 1.375c-0.090 0.051-0.152 0.145-0.152 0.25v2.75c0 0.109 0.074 0.203 0.156 0.25l2.391 1.375c0.094 0.055 0.203 0.051 0.289 0l2.383-1.375c0.070-0.039 0.121-0.105 0.141-0.184 0.004-0.020 0.008-0.043 0.008-0.066zM9.004 5.375l-0.031 0.020h0.043l-0.012-0.020zM11.98 10.461l-0.016-0.027v0.035l0.016-0.008z"></path>
</svg>
