<svg xmlns="http://www.w3.org/2000/svg" width="13" height="20" viewBox="0 0 13 20">
<path d="M10.746 13.047c-1.070 0.68-2.543 0.949-3.516 1.051l0.816 0.805 2.98 2.98c1.090 1.117-0.684 2.863-1.785 1.785-0.746-0.758-1.84-1.852-2.98-2.992l-2.98 2.988c-1.102 1.074-2.875-0.688-1.773-1.785 0.758-0.758 1.84-1.852 2.98-2.98l0.805-0.805c-0.961-0.102-2.457-0.355-3.539-1.051-1.273-0.82-1.832-1.301-1.34-2.305 0.289-0.57 1.082-1.051 2.133-0.223 0 0 1.418 1.129 3.707 1.129s3.707-1.129 3.707-1.129c1.051-0.824 1.84-0.348 2.133 0.223 0.484 1.004-0.074 1.484-1.348 2.309zM1.184 5.066c0-2.801 2.277-5.066 5.066-5.066s5.066 2.266 5.066 5.066c0 2.789-2.277 5.055-5.066 5.055s-5.066-2.266-5.066-5.055zM3.762 5.066c0 1.371 1.117 2.488 2.488 2.488s2.488-1.117 2.488-2.488c0-1.383-1.117-2.5-2.488-2.5s-2.488 1.117-2.488 2.5z"></path>
</svg>
