<svg xmlns="http://www.w3.org/2000/svg" width="25" height="20" viewBox="0 0 25 20">
<path d="M16.535 17.215c0 0.988-0.793 1.781-1.781 1.781s-1.789-0.793-1.789-1.781 0.805-1.789 1.789-1.789c0.992 0 1.781 0.801 1.781 1.789zM6.617 15.426c-0.988 0-1.781 0.805-1.781 1.789s0.793 1.781 1.781 1.781 1.789-0.793 1.789-1.781-0.801-1.789-1.789-1.789zM18.012 4.879c-11.805 0-14.812-0.5-18.012-3.875 1.344 2.020 2.082 5.816 14.574 5.633 13.020-0.195 5.078 3.363 2.766 7.379 7.293-6.512 12.477-9.137 0.672-9.137z"></path>
</svg>
