<svg xmlns="http://www.w3.org/2000/svg" width="18" height="20" viewBox="0 0 18 20">
<path d="M7.195 6.918c0-0.863 0.699-1.563 1.555-1.563s1.555 0.699 1.555 1.563c0 0.859-0.699 1.555-1.555 1.555s-1.555-0.699-1.555-1.555zM17.5 3.125v13.75c0 1.035-0.84 1.875-1.875 1.875h-13.75c-1.035 0-1.875-0.84-1.875-1.875v-13.75c0-1.035 0.84-1.875 1.875-1.875h13.75c1.035 0 1.875 0.84 1.875 1.875zM5.582 6.918c0 1.742 1.422 3.16 3.168 3.16s3.168-1.414 3.168-3.16c0-1.75-1.422-3.168-3.168-3.168s-3.168 1.414-3.168 3.168zM12.398 10.461c-0.18-0.355-0.676-0.656-1.332-0.141 0 0-0.887 0.703-2.316 0.703s-2.316-0.703-2.316-0.703c-0.656-0.516-1.152-0.215-1.332 0.141-0.309 0.629 0.043 0.926 0.836 1.445 0.676 0.434 1.609 0.594 2.211 0.656l-0.504 0.504c-0.711 0.703-1.387 1.387-1.863 1.863-0.688 0.688 0.418 1.789 1.109 1.117l1.863-1.871c0.711 0.711 1.395 1.395 1.863 1.871 0.688 0.672 1.797-0.418 1.117-1.117l-1.863-1.863-0.508-0.504c0.605-0.063 1.527-0.23 2.195-0.656 0.797-0.52 1.145-0.82 0.84-1.445z"></path>
</svg>
