<svg xmlns="http://www.w3.org/2000/svg" width="19" height="20" viewBox="0 0 19 20">
<path d="M12.262 1.277c-6.648 0-9.867 8.742-5.762 13.871 1.426 1.773 3.461 2.953 5.762 2.953 1.418 0 2.746-0.434 3.883-1.188-1.711 1.531-3.98 2.461-6.457 2.461-0.152 0-0.313 0-0.465-0.012-5.137-0.238-9.223-4.477-9.223-9.676 0-5.352 4.336-9.688 9.688-9.688h0.031c2.465 0.012 4.715 0.941 6.422 2.465-1.133-0.758-2.465-1.188-3.879-1.188zM16.238 16.813c-1.598 0.965-3.543 0.922-5.156-0.227 2.195-0.801 3.816-3.578 3.816-6.898 0-3.309-1.609-6.086-3.805-6.898 1.633-1.141 3.563-1.184 5.191-0.195 4.137 3.855 4.121 10.379-0.047 14.219z"></path>
</svg>
