<svg xmlns="http://www.w3.org/2000/svg" width="23" height="20" viewBox="0 0 23 20">
<path d="M21.511 17.59c0 0.454-0.612 0.76-1.256 0.581-0.475-0.127-1.224-0.686-1.414-1.066-0.222-0.454 0.158-1.277 0.739-1.203 0.612 0.063 1.932 0.992 1.932 1.689zM14.565 2.938c-0.148-2.818-3.937-3.114-4.919-0.918 1.742-0.95 3.526-0.612 4.919 0.918zM2.922 15.901c-0.612 0.063-1.932 0.992-1.932 1.689 0 0.454 0.612 0.76 1.256 0.581 0.475-0.127 1.214-0.686 1.404-1.066 0.232-0.454-0.148-1.277-0.728-1.203zM22.366 16.46c0.042 0.137 0.074 0.274 0.074 0.422 0.032 1.235-1.731 2.502-2.871 2.544-0.676 0.032-1.351-0.327-1.668-0.918-4.433 0.158-8.867 0.19-13.29 0-0.327 0.591-1.003 0.939-1.678 0.918-1.129-0.042-2.892-1.309-2.871-2.544 0.011-0.148 0.032-0.285 0.074-0.422-0.217-0.37-0.189-0.597 0.211-0.454 0.127-0.201 0.274-0.369 0.433-0.538-0.1-0.426 0.050-0.551 0.433-0.359 0.179-0.127 0.391-0.253 0.623-0.359 0-0.616 0.462-0.435 0.676-0.222 0.487-0.070 0.786 0.028 1.045 0.222v-0.771c-0.507 0-1.588-0.444-1.795-1.415-0.194-0.81 0.102-1.487 0.982-1.858 0.032-0.232 0.317-0.549 0.581-0.623 0.296-0.074 0.486 0.179 0.549 0.401 0.29 0 0.694 0.057 0.823 0.317 0.211-0.021 0.433-0.053 0.644-0.074-0.095-0.074-0.201-0.137-0.317-0.179-0.201-0.348-0.538-0.433-0.961-0.454 0-0.032 0-0.063 0.011-0.106-0.771-0.021-1.721-0.222-2.143-0.697-0.833-0.923-0.622-3.265 0.475-4.043 0.327-0.222 0.844-0.032 0.887 0.38 0.095 0.805 0.016 1.048 1.024 1.013 0.317-0.306 0.654-0.57 1.034-0.781-0.581-0.053-1.129 0.063-1.71 0.148 0.498-0.487 0.936-0.994 2.217-1.657 0.918-0.464 1.953-0.813 2.977-0.908-0.728-0.306-1.562-0.464-2.333-0.644 2.987-0.633 6.819-0.866 9.543 1.467 0.707 0.602 1.267 1.414 1.668 2.343 1.555 0.19 1.425-0.218 1.509-0.982 0.042-0.401 0.559-0.602 0.887-0.369 0.581 0.412 0.866 1.203 0.961 1.879 0.084 0.697 0.011 1.615-0.486 2.153-0.422 0.475-1.341 0.686-2.101 0.707v0.106c-0.433 0.011-0.792 0.095-1.003 0.454-0.116 0.042-0.222 0.106-0.327 0.179 0.222 0.021 0.443 0.053 0.654 0.074 0.073-0.219 0.49-0.327 0.823-0.327 0.063-0.211 0.264-0.464 0.549-0.401s0.549 0.391 0.581 0.623c0.422 0.169 0.866 0.475 0.982 1.003 0.074 0.317 0.063 0.591 0.011 0.855-0.224 0.987-1.303 1.415-1.794 1.415 0 0.264 0 0.517-0.011 0.771 0.313-0.235 0.639-0.28 1.045-0.222 0.231-0.231 0.686-0.368 0.686 0.222 0.222 0.106 0.443 0.232 0.623 0.359 0.395-0.197 0.534-0.021 0.422 0.359 0.158 0.169 0.317 0.348 0.433 0.538 0.396-0.141 0.431 0.081 0.211 0.454zM19.484 6.538c0.676 0.264 1.024 0.866 1.182 1.393 0.042-0.412-0.106-1.541-0.538-1.995-0.285-0.285-0.549-0.201-0.549 0.032 0 0.243-0.053 0.454-0.095 0.57zM18.756 7.024c0.507 0.612 0.665 1.626 0.496 2.459 0.422-0.084 0.802-0.243 1.024-0.475 0.074-0.084 0.148-0.19 0.19-0.296-0.042-0.834-0.401-1.668-1.161-1.911-0.127 0.127-0.359 0.19-0.549 0.222zM17.9 7.055c0.296 0.802 0.486 1.668 0.559 2.523 0.137 0 0.296-0.011 0.454-0.032 0.232-0.95-0.011-2.016-0.549-2.481-0.148 0-0.317 0-0.464-0.011zM3.038 6.538c-0.042-0.116-0.095-0.327-0.095-0.57 0-0.232-0.274-0.317-0.549-0.032-0.443 0.454-0.581 1.583-0.538 1.995 0.158-0.528 0.507-1.129 1.182-1.393zM3.259 9.483c-0.169-0.834-0.011-1.847 0.496-2.459-0.19-0.032-0.422-0.095-0.549-0.222-0.76 0.243-1.108 1.077-1.161 1.911 0.053 0.106 0.116 0.211 0.19 0.296 0.222 0.243 0.602 0.391 1.024 0.475zM4.875 7.097c-0.201 0.042-0.391 0.116-0.581 0.19l-0.475 0.201v-0.011c-0.285 0.549-0.391 1.341-0.211 2.069 0.179 0.021 0.338 0.032 0.496 0.032 0.095-0.866 0.359-1.71 0.771-2.481zM8.316 6.19c0 1.647 1.341 2.977 2.977 2.977s2.977-1.33 2.977-2.977c0-1.636-1.341-2.966-2.977-2.966s-2.977 1.33-2.977 2.966zM14.269 9.99c0.389 1.977 0.129 2.527 0.644 2.269 0.623-0.317 0.887-1.531 0.897-2.227-0.507-0.032-1.024-0.032-1.541-0.042zM11.472 9.969v-0.011c-0.011 0.201 0.011 1.488 0.169 1.604 0.433 0.211 1.541 0.179 1.995 0.042 0.211-0.063 0.095-1.446 0.063-1.636-0.739-0.011-1.488-0.011-2.227 0zM10.923 9.969v-0.011c-0.76 0.011-1.509 0.011-2.259 0.032-0.074 0.359-0.179 1.911 0.074 2.016 0.507 0.222 1.626 0.201 2.132 0.063 0.179-0.095 0.095-1.773 0.053-2.101zM7.577 12.217c0.211 0.095 0.338 0.095 0.38-0.169 0.074-0.338 0.095-1.436 0.19-2.037-0.475 0.011-0.961 0.032-1.436 0.063-0.211 0.771 0.011 1.763 0.866 2.143zM5.012 11.784c1.71 1.837 3.621 3.346 6.091 4.159 2.639-0.749 4.518-2.343 6.376-4.18-0.433-0.169-0.301-0.405-0.285-0.454-0.348-0.032-0.697-0.074-1.034-0.106-0.369 1.288-1.404 2.069-1.826 1.235-0.106-0.201-0.137-0.454-0.179-0.654-0.148 0.327-0.517 0.317-0.961 0.348-0.517 0.042-1.235 0.053-1.721-0.116-0.116 0.507-0.433 0.507-1.045 0.559-0.549 0.053-1.9 0.158-2.143-0.422-0.042 1.119-1.372 0.391-1.763-0.274-0.127-0.222-0.211-0.443-0.274-0.686-0.306 0.032-0.612 0.063-0.918 0.106 0.095 0.143 0.061 0.354-0.317 0.486zM4.516 17.717c-0.222-0.908-0.728-1.942-1.309-2.111-0.876-0.264-2.692 0.918-2.586 2.132 0.496 0.76 1.562 1.393 2.312 1.425 0.697 0.032 1.404-0.433 1.552-1.129 0.021-0.095 0.032-0.201 0.032-0.317zM4.801 17.484c1.309-0.76 2.702-1.393 4.138-1.837-1.509-0.802-2.66-1.868-3.8-3.008-0.084 0.053-0.201 0.095-0.306 0.137-0.064 0.192 0.341 0.208 0.211 0.486-0.084 0.158-0.338 0.296-0.591 0.359-0.084 0.106-0.201 0.19-0.306 0.253h-0.011c-0.011 0.528-0.011 1.056 0.011 1.583 0.349 0.624 0.603 1.301 0.654 2.027zM17.33 17.981c-1.436-0.834-2.892-1.615-4.518-2.069-0.538 0.243-1.087 0.443-1.647 0.602-0.084 0.032-0.084 0.032-0.169 0-0.464-0.148-0.908-0.317-1.362-0.517-1.573 0.454-3.019 1.14-4.391 1.984h-0.011v0.011c0.011 0 0.011 0 0.011-0.011 4.032 0.158 8.065 0.137 12.086 0zM18.386 15.479l-0.011 0.011c0.021-0.538 0.032-1.077 0.032-1.615-0.116-0.063-0.222-0.158-0.317-0.264-0.253-0.053-0.507-0.201-0.591-0.348-0.074-0.158 0.053-0.296 0.232-0.401-0.011-0.021-0.021-0.063-0.021-0.095-0.116-0.032-0.211-0.074-0.296-0.127-1.235 1.151-2.555 2.217-4.043 2.998 1.52 0.454 2.966 1.098 4.37 1.858 0.041-0.574 0.282-1.396 0.644-2.016zM19.294 15.605c-0.57 0.169-1.087 1.203-1.309 2.111 0 0.931 0.831 1.48 1.583 1.446 0.749-0.032 1.816-0.665 2.312-1.425 0.116-1.214-1.699-2.396-2.586-2.132zM11.356 5.24c0.002 0 0.003 0 0.005 0s0.004-0 0.005-0h-0.011zM11.356 9.019c1.119 0 2.027-0.844 2.027-1.889 0-1.41-1.582-2.269-2.818-1.731 0.369 0.116 0.644 0.454 0.644 0.844 0 0.908-1.3 1.248-1.816 0.443-0.285 1.331 0.757 2.333 1.963 2.333zM2.658 18.519c0.021 0.253 0.475 0.496 0.844 0.369 0.264-0.106 0.57-0.412 0.676-0.633 0.116-0.274-0.042-0.781-0.38-0.718-0.348 0.063-1.161 0.654-1.14 0.982zM18.703 17.537c-0.327-0.063-0.486 0.443-0.369 0.718 0.095 0.222 0.401 0.528 0.676 0.633 0.359 0.127 0.823-0.116 0.834-0.369 0.032-0.327-0.792-0.918-1.14-0.982z"></path>
</svg>
