<svg xmlns="http://www.w3.org/2000/svg" width="19" height="20" viewBox="0 0 19 20">
<path d="M0 10.125c0.090-5.305 3.805-9.078 8.352-9.691 5.422-0.727 9.984 2.961 10.859 7.855 0.832 4.641-1.719 8.984-5.922 10.703-0.363 0.148-0.562 0.066-0.703-0.301-0.695-1.809-1.391-3.621-2.086-5.43-0.121-0.316-0.039-0.516 0.273-0.656 0.945-0.43 1.535-1.148 1.691-2.18 0.25-1.656-0.957-3.074-2.52-3.211-1.523-0.133-2.805 0.926-3.027 2.332-0.203 1.289 0.434 2.488 1.637 3.035 0.375 0.172 0.449 0.336 0.305 0.719-0.699 1.82-1.398 3.641-2.098 5.465-0.102 0.27-0.324 0.363-0.605 0.254-2.055-0.793-3.961-2.383-5.109-4.648-0.973-1.922-0.984-3.426-1.047-4.246zM0.816 10.051c0.016 0.258 0.023 0.559 0.051 0.863 0.246 2.809 1.938 5.605 5.117 7.152 0.125 0.059 0.172 0.031 0.219-0.090 0.582-1.527 1.168-3.055 1.758-4.582 0.051-0.129 0.023-0.188-0.094-0.262-1.234-0.777-1.848-1.895-1.781-3.359 0.039-0.844 0.363-1.582 0.93-2.199 1.172-1.277 3.008-1.555 4.512-0.688 1.246 0.719 1.934 2.102 1.766 3.531-0.141 1.195-0.754 2.105-1.785 2.727-0.105 0.063-0.137 0.113-0.090 0.234 0.594 1.531 1.18 3.063 1.766 4.598 0.047 0.121 0.094 0.148 0.219 0.090 1.387-0.648 2.547-1.574 3.441-2.813 1.359-1.883 1.918-3.98 1.652-6.289-0.535-4.59-4.664-8.391-9.98-7.734-4.145 0.508-7.629 4.004-7.699 8.82z"></path>
</svg>
