<svg xmlns="http://www.w3.org/2000/svg" width="23" height="20" viewBox="0 0 23 20">
<path d="M15.035 7.574c0-1.852-2.156-1.727-3.727-1.164-0.051 1.539-0.098 3.152-0.117 4.68 0.027 0.109 0.102 0.242 0.59 0.242 1.438 0 3.258-1.672 3.254-3.758zM7.438 10.395c0.008 0 0.254-0.105 0.438-0.105 1.039 0 0.809 1.723-0.563 1.723-0.84 0-1.449-0.707-1.449-1.68 0-1.641 1.676-3.734 3.934-4.941 0.039-0.484 0.117-0.859 0.41-1.102 0.438-0.352 1.039-0.137 1.152 0.434 2.82-0.867 5.281 0.039 5.281 2.813 0 3.043-3.098 5.961-5.473 5.398-0.004 1.539 0.035 2.906 0.105 3.906v0.008c0.008 0.133 0.023 0.488-0.207 0.746-0.375 0.414-1.305 0.391-1.422-0.871-0.16-1.734 0.008-8.051 0.055-9.473-0.84 0.586-2.285 1.965-2.285 2.965 0.008 0.098 0.016 0.156 0.023 0.18zM0.313 7.074s-0.004 1.461 1.5 1.461h1.172l0.875 8.484s0 1.73 1.746 1.73h11.285s1.746-0.016 1.746-1.73l0.875-8.484h1.172s1.5 0.047 1.5-1.461c0 0 0.004-1.461-1.5-1.461h-1.176c-0.285-1-1.18-2.902-4.664-2.902h-1.094v-0.746s-0.105-0.719-0.824-0.719h-3.352s-0.824 0-0.824 0.719v0.746h-1.098s-4.102 0.164-4.707 2.902h-1.133s-1.5-0.047-1.5 1.461z"></path>
</svg>
