<svg xmlns="http://www.w3.org/2000/svg" width="15" height="20" viewBox="0 0 15 20">
<path d="M7.969 0.254c-4.008 0-7.969 2.672-7.969 6.996 0 2.75 1.547 4.313 2.484 4.313 0.387 0 0.609-1.078 0.609-1.383 0-0.363-0.926-1.137-0.926-2.648 0-3.141 2.391-5.367 5.484-5.367 2.66 0 4.629 1.512 4.629 4.289 0 2.074-0.832 5.965-3.527 5.965-0.973 0-1.805-0.703-1.805-1.711 0-1.477 1.031-2.906 1.031-4.43 0-2.586-3.668-2.117-3.668 1.008 0 0.656 0.082 1.383 0.375 1.98-0.539 2.32-1.641 5.777-1.641 8.168 0 0.738 0.105 1.465 0.176 2.203 0.133 0.148 0.066 0.133 0.27 0.059 1.969-2.695 1.898-3.223 2.789-6.75 0.48 0.914 1.723 1.406 2.707 1.406 4.148 0 6.012-4.043 6.012-7.688 0-3.879-3.352-6.41-7.031-6.41z"></path>
</svg>
