<svg xmlns="http://www.w3.org/2000/svg" width="18" height="20" viewBox="0 0 18 20">
<path d="M17.5 3.125v13.75c0 1.035-0.84 1.875-1.875 1.875h-9.594c0.383-0.641 0.875-1.563 1.070-2.316 0.117-0.449 0.598-2.281 0.598-2.281 0.312 0.598 1.227 1.102 2.199 1.102 2.895 0 4.977-2.66 4.977-5.965 0-3.168-2.586-5.539-5.914-5.539-4.141 0-6.336 2.777-6.336 5.805 0 1.406 0.75 3.156 1.945 3.715 0.184 0.086 0.277 0.047 0.32-0.129 0.031-0.133 0.195-0.785 0.266-1.086 0.023-0.098 0.012-0.18-0.066-0.273-0.395-0.48-0.715-1.363-0.715-2.188 0-2.117 1.602-4.164 4.332-4.164 2.355 0 4.008 1.605 4.008 3.902 0 2.594-1.309 4.391-3.016 4.391-0.941 0-1.645-0.777-1.422-1.734 0.27-1.141 0.793-2.371 0.793-3.195 0-2.070-2.949-1.785-2.949 0.977 0 0.848 0.285 1.426 0.285 1.426-1.227 5.188-1.41 5.254-1.156 7.523l0.086 0.031h-3.461c-1.035 0-1.875-0.84-1.875-1.875v-13.75c0-1.035 0.84-1.875 1.875-1.875h13.75c1.035 0 1.875 0.84 1.875 1.875z"></path>
</svg>
