<svg xmlns="http://www.w3.org/2000/svg" width="18" height="20" viewBox="0 0 18 20">
<path d="M4.035 13.449c-0.254-0.555-0.27-0.715 0.289-0.902 1-0.313 0.313 0.359 1.688 1.922h0.012v-3.668c0.047-1.961 1.719-3.602 3.816-3.602 2.105 0 3.816 1.699 3.816 3.781 0 2.477-2.375 4.422-5.020 3.645-0.41-0.164-0.082-1.238 0.332-1.117 2.070 0 3.492-0.395 3.492-2.516 0-2.383-3.012-3.5-4.566-1.742-0.918 1.031-0.688 1.645-0.688 6.156 1.98 1.211 4.621 0.859 6.266-0.785 0.969-0.969 1.504-2.266 1.504-3.633 0-1.375-0.539-2.664-1.516-3.645-0.969-0.969-2.258-1.504-3.645-1.504s-2.688 0.539-3.652 1.504c-0.012 0.012-0.625 0.645-0.828 0.934l-0.020 0.023c-0.129 0.184-0.246 0.355-0.785 0.238-0.27-0.066-0.559-0.227-0.559-0.461v-7.297c0-0.195 0.152-0.41 0.41-0.41h9.426c0.324 0 0.324 0.453 0.324 0.59 0 0.152 0 0.59-0.324 0.59h-8.719v5.191h0.012c4.070-4.289 11.047-1.406 11.047 4.254 0 6.957-9.563 8.605-12.113 2.453zM6.508 3.262c-0.020 0.164 0.18 0.957 0.57 0.805 4.875-1.855 7.922 1.578 8.18 1.578 0.188 0 0.891-0.598 0.559-0.891-3.641-3.477-9.16-2.227-9.309-1.492zM15.352 16.199c-4.297 4.293-11.68 2.375-12.969-4.070 0-0.477-1.188-0.289-1.129 0.129 0.938 6.773 9.609 10.035 14.906 4.738 0.27-0.305-0.492-1.109-0.809-0.797zM8.344 11.977c0 0.156 0.168 0.285 0.215 0.332 0.117 0.117 0.238 0.172 0.332 0.172 0.148 0 0.102 0.008 0.871-0.762 0.766 0.754 0.746 0.762 0.871 0.762 0.211 0 0.723-0.406 0.418-0.711l-0.676-0.676 0.711-0.711c0.246-0.266-0.395-0.852-0.633-0.613l-0.699 0.699c-0.727-0.734-0.719-0.762-0.84-0.762-0.195 0-0.703 0.457-0.484 0.676l0.711 0.711c-0.707 0.699-0.797 0.75-0.797 0.883z"></path>
</svg>
