<svg xmlns="http://www.w3.org/2000/svg" width="19" height="20" viewBox="0 0 19 20">
<path d="M9.688 19.688c-5.352 0-9.688-4.336-9.688-9.688s4.336-9.688 9.688-9.688c0.816 0 1.613 0.102 2.371 0.293l-10.406 14.707h8.035v4.375zM9.688 14.078v-8.344l-5.836 8.344h5.836zM13.438 15.313v3.621c1.785-0.75 3.301-2.020 4.352-3.621h-4.352zM15.68 9.914l-0.828 0.328 0.828 0.324v-0.652zM14.887 12.043c-0.262 0-0.313 0.246-0.313 0.504v0.301h0.633v-0.391c0-0.23-0.090-0.414-0.32-0.414zM19.375 10c0 1.457-0.32 2.84-0.898 4.078h-5.039v-13.012c3.488 1.465 5.938 4.914 5.938 8.934zM14.078 5.609h2.664v-1.859h-0.543v1.273h-0.543v-1.156h-0.543v1.156h-0.496v-1.273h-0.543v1.859zM16.738 12.848h-1.035v-0.43c0-0.602-0.219-0.984-0.816-0.984-0.602 0-0.809 0.414-0.809 1.012v0.988h2.664v-0.586zM16.738 8.824l-2.664 1.16v0.484l2.664 1.152v-0.648l-0.563-0.223v-1.035l0.563-0.23v-0.66zM16.551 6.148h-1.391v1.039h0.543v-0.477h0.43c0.336 0.617 0.051 1.379-0.727 1.379-0.879 0-1.105-0.988-0.605-1.473l-0.453-0.414c-0.633 0.684-0.477 2.496 1.059 2.496 1.328 0 1.746-1.402 1.145-2.551z"></path>
</svg>
