<svg xmlns="http://www.w3.org/2000/svg" width="15" height="20" viewBox="0 0 15 20">
<path d="M4.352 11.559c-0.137 0.75-0.68 4.246-0.84 5.234-0.012 0.070-0.039 0.098-0.117 0.098h-2.914c-0.297 0-0.512-0.258-0.473-0.543l2.289-14.527c0.059-0.375 0.395-0.66 0.781-0.66 5.949 0 6.449-0.145 7.969 0.445 2.348 0.91 2.563 3.105 1.719 5.48-0.84 2.445-2.832 3.496-5.473 3.527-1.695 0.027-2.715-0.273-2.941 0.945zM13.949 5.938c-0.070-0.051-0.098-0.070-0.117 0.051-0.078 0.445-0.199 0.879-0.344 1.313-1.559 4.445-5.879 4.059-7.988 4.059-0.238 0-0.395 0.129-0.426 0.367-0.883 5.484-1.059 6.629-1.059 6.629-0.039 0.277 0.137 0.504 0.414 0.504h2.48c0.336 0 0.613-0.246 0.68-0.582 0.027-0.211-0.043 0.238 0.563-3.566 0.18-0.859 0.559-0.77 1.145-0.77 2.773 0 4.938-1.125 5.582-4.387 0.254-1.359 0.18-2.789-0.93-3.617z"></path>
</svg>
