<svg xmlns="http://www.w3.org/2000/svg" width="18" height="20" viewBox="0 0 18 20">
<path d="M8.020 6.82c0 0.824-0.555 1.488-1.238 1.488-0.277 0-0.5-0.047-0.672-0.145v-2.656c0.172-0.105 0.395-0.164 0.672-0.164 0.684 0 1.238 0.66 1.238 1.477zM10.074 9.438c-0.277 0-0.5 0.059-0.672 0.164v2.656c0.172 0.098 0.395 0.145 0.672 0.145 0.68 0 1.238-0.66 1.238-1.477 0-0.824-0.559-1.488-1.238-1.488zM17.5 3.125v13.75c0 1.035-0.84 1.875-1.875 1.875h-13.75c-1.035 0-1.875-0.84-1.875-1.875v-13.75c0-1.035 0.84-1.875 1.875-1.875h13.75c1.035 0 1.875 0.84 1.875 1.875zM7.227 9.965c1.602 0 2.898-1.391 2.898-3.109s-1.297-3.109-2.898-3.109c-0.469 0-0.941 0.125-1.352 0.344h-1.785v8.059l2.023-0.395v-1.977c0.336 0.121 0.707 0.188 1.113 0.188zM13.414 10.953c0-1.719-1.297-3.109-2.887-3.109-0.125 0-0.25 0.008-0.375 0.027-0.145 0.488-0.395 0.93-0.75 1.305-0.539 0.586-1.258 0.93-2.023 0.969v6.105l2.023-0.395v-1.977c0.336 0.125 0.711 0.184 1.121 0.184 1.594 0 2.891-1.391 2.891-3.109z"></path>
</svg>
