<svg xmlns="http://www.w3.org/2000/svg" width="17" height="20" viewBox="0 0 17 20">
<path d="M15.898 4.371l-3.848-0.352 0.547-1.305c0.406-0.918-0.422-1.578-1.121-1.445l-10.598 1.734c-0.59 0.105-1.016 0.715-0.836 1.43l4.105 13.605c0.254 0.832 1.434 0.945 1.863 0.273l1.379-3.156 9.188-9.035c0.641-0.656 0.168-1.676-0.68-1.75zM11.625 2.094c0.199-0.027 0.293 0.098 0.203 0.289l-0.656 1.559-6.93-0.637 7.383-1.211zM0.887 4.215c-0.121-0.199 0.039-0.391 0.238-0.355l9.715 0.887-3.785 9.012-6.168-9.543zM5.313 17.828c-0.102 0.156-0.309 0.121-0.367-0.047l-3.246-10.762 4.988 7.719c-0.273 0.586-1.375 3.090-1.375 3.090zM15.969 5.543l-7.762 7.633 3.504-8.348 4.156 0.379c0.156 0.043 0.223 0.207 0.102 0.336z"></path>
</svg>
