<svg xmlns="http://www.w3.org/2000/svg" width="19" height="20" viewBox="0 0 19 20">
<path d="M19.375 10c0 5.352-4.336 9.688-9.688 9.688-1 0-1.961-0.152-2.867-0.434 0.395-0.645 0.984-1.699 1.203-2.539 0.117-0.453 0.602-2.305 0.602-2.305 0.316 0.602 1.238 1.113 2.219 1.113 2.922 0 5.027-2.688 5.027-6.027 0-3.199-2.613-5.594-5.973-5.594-4.18 0-6.402 2.805-6.402 5.863 0 1.422 0.758 3.191 1.965 3.754 0.184 0.086 0.281 0.047 0.324-0.129 0.031-0.133 0.195-0.793 0.27-1.098 0.023-0.098 0.012-0.184-0.066-0.277-0.395-0.488-0.715-1.379-0.715-2.211 0-2.137 1.617-4.203 4.375-4.203 2.379 0 4.047 1.621 4.047 3.941 0 2.621-1.324 4.438-3.047 4.438-0.949 0-1.664-0.785-1.434-1.75 0.273-1.152 0.801-2.395 0.801-3.227 0-0.742-0.398-1.363-1.227-1.363-0.973 0-1.754 1.004-1.754 2.352 0 0.859 0.289 1.438 0.289 1.438s-0.957 4.055-1.133 4.813c-0.195 0.836-0.117 2.016-0.035 2.781-3.602-1.41-6.156-4.918-6.156-9.023 0-5.352 4.336-9.688 9.688-9.688s9.687 4.336 9.687 9.688z"></path>
</svg>
