<svg xmlns="http://www.w3.org/2000/svg" width="23" height="20" viewBox="0 0 23 20">
<path d="M9.453 7.305c0.246-0.461 0.516-0.664 1.012-0.852 1.066-0.402 1.57-1.191 2.301-1.996 0.465 0.328 0.469 0.961 1.234 0.898v0.852l0.246 0.012c1.461-0.563 2.918-1.18 4.164-2.133 1.887-1.438 2.066-1.953 3.176-3.906l0.078-0.102c-0.023 0.551-0.246 1.066-0.484 1.559-1.191 2.492-3.074 3.918-5.734 4.559-0.484 0.113-1.031 0.125-1.469 0.348 0.055 0.383 0.516 0.707 0.516 0.898 0 0.133-0.215 0.281-0.293 0.336-0.438-0.504-0.629-0.754-0.887-0.863-0.297-0.137-2.496-0.25-3.859 0.391zM14.84 17.34c-0.742 0-2.504 0.371-3.121 0.773l0.27 1.762c1.395 0.238 2.738 0.141 4.141-0.383-0.188-0.391-0.918-2.152-1.289-2.152zM9.531 9.609c-0.125-0.078-0.246-0.113-0.395-0.113-0.258 0-0.492 0.125-0.754 0.145l0.066 0.191 1.082-0.223zM9.039 10.852l0.941 2.391 0.82-0.539-1.223-1.988-0.539 0.137zM21.699 0l-0.023 0.043-0.012 0.035 0.023-0.023 0.012-0.055zM19.387 14.926c-1.324-2.223-2.941-4.625-5.859-4.512l-0.012-0.234c-0.043-0.527 1.281 0.125 1.371-1.211l-0.562 0.281c-0.773-1.785-0.336-2.121-2.559-2.121-0.574 0-1.043 0.066-1.617 0.18 0.113 0.727 0.086 1.434-0.426 1.965l0.762 0.215c-0.066 0.125-0.113 0.246-0.113 0.383 0 0.82 1.672 0.113 1.672 1.313 0 0.719-1.438 2.348-2.145 2.348-0.313 0-2.098-1.953-2.086-2.348l0.012-0.18 2.043-0.449c0.508-0.102 0.48-0.887-0.113-0.887-0.145 0-1.684 0.359-1.93 0.414-0.078-0.203-0.293-0.551-0.539-0.551-0.125 0-0.246 0.125-0.371 0.156-0.359 0.102-1.211 0.113-0.84 0.785l-5.453 1.188c-0.215 0.043-0.348 0.246-0.348 0.461 0 0.234 0.215 0.426 0.449 0.426 0.313 0 5.129-1.109 5.758-1.258 0.102 0.125 0.18 0.246 0.305 0.336 0.785 0.563 2.336 3.355 2.984 3.355 0.941 0 2.266-0.875 2.785-1.637 0.125-0.168 0.27-0.293 0.484-0.27 0.023 0.539-1.234 1.336-1.289 1.707-0.055 0.398-0.039 1.375-0.012 1.605 1.043 0.316 2.031-0.141 3.043-0.113 0.168-0.82 0.414-1.637 0.383-2.48l-0.012-0.371c-0.055-1.336-0.426-1.504-1.359-2.289-0.043-0.043-0.102-0.102-0.145-0.156 0.086-0.055 0.043-0.039 0.18-0.066 3.457 0 2.199 7.172 4.355 8.98 1.293-0.586 2.832-1.090 4.043-1.844-1.133-1-2.055-1.785-2.84-3.121zM11.723 16.723v1.066l0.461-0.133-0.113-0.93h-0.348zM14.695 16.836c0-0.055-0.023-0.125-0.035-0.18-1.047 0-1.441 0.148-2.324 0.246l0.078 0.484c0.352-0.059 2.281-0.258 2.281-0.551z"></path>
</svg>
