<svg xmlns="http://www.w3.org/2000/svg" width="23" height="20" viewBox="0 0 23 20">
<path d="M22.301 14.543c-0.441 0.555-1.516 0.949-1.516 0.949l-8.012 2.875v-2.121l5.895-2.102c0.668-0.238 0.773-0.578 0.227-0.758-0.543-0.18-1.527-0.129-2.195 0.113l-3.926 1.387v-2.203c0.906-0.305 1.84-0.531 2.957-0.656 1.598-0.176 3.551 0.023 5.086 0.605 1.727 0.547 1.922 1.355 1.484 1.91zM13.535 10.93v-5.43c0-0.637-0.117-1.223-0.715-1.391-0.457-0.148-0.742 0.277-0.742 0.914v13.59l-3.664-1.164v-16.199c1.559 0.289 3.828 0.973 5.047 1.383 3.105 1.066 4.156 2.395 4.156 5.383 0 2.91-1.797 4.016-4.082 2.914zM1.688 16.023c-1.773-0.5-2.070-1.543-1.262-2.141 0.746-0.555 2.020-0.973 2.020-0.973l5.254-1.867v2.129l-3.781 1.352c-0.668 0.238-0.77 0.578-0.227 0.758s1.527 0.129 2.195-0.113l1.813-0.66v1.906c-2.016 0.363-3.961 0.285-6.012-0.391z"></path>
</svg>
