<svg xmlns="http://www.w3.org/2000/svg" width="18" height="20" viewBox="0 0 18 20">
<path d="M14.453 2.484c-1.508-1.602-3.496-2.484-5.602-2.484-4.48 0-8.129 3.758-8.129 8.375 0 2.934 2.258 6.242 3.23 7.527 1.43 1.891 3.57 4.098 4.898 4.098 1.625 0 4.41-3.68 4.723-4.102 0.961-1.293 3.203-4.621 3.203-7.523 0-2.207-0.824-4.301-2.324-5.891zM8.852 19.293c-1.66 0-7.422-6.535-7.422-10.914 0-4.195 3.277-7.668 7.422-7.668 3.938 0 7.215 3.477 7.215 7.668 0.004 4.379-5.758 10.914-7.215 10.914zM13.203 8.078c0 2.309-1.996 4.285-4.328 4.285-3.93 0-5.887-4.227-3.629-7.102v0.016c0 0.957 0.785 1.734 1.75 1.734s1.75-0.777 1.75-1.734c0-0.711-0.434-1.32-1.051-1.59 2.992-0.75 5.508 1.535 5.508 4.391z"></path>
</svg>
