<svg xmlns="http://www.w3.org/2000/svg" width="15" height="20" viewBox="0 0 15 20">
<path d="M15 12.215c-2.152 5.34-7.309 2.109-7.309 2.109-1.582 3.195-4.195 5.25-7.211 5.262-0.629 0-0.648-0.953 0-0.953 2.516-0.012 4.707-1.668 6.141-4.301-1.605 0.621-4.633 1.090-6.313-3.211 4.258-1.754 6.215 0.438 6.965 1.777 0.387-0.953 0.664-1.988 0.844-3.113 0 0-5.457 0.855-5.84-3.832 4.652-1.871 5.961 2.996 5.961 2.996 0.063-0.652 0.129-2.055 0.129-2.086 0 0-4.152-2.879-1.488-6.453 4.867 1.68 2.398 6.344 2.398 6.344 0.020 0.062 0.020 0.93 0 1.305 0 0 1.766-3.477 5.328-2.246-0.164 5.234-5.543 4.156-5.543 4.156-0.172 1.070-0.438 2.086-0.781 3.027 0 0 3.242-3.586 6.719-0.781z"></path>
</svg>
