<svg xmlns="http://www.w3.org/2000/svg" width="25" height="20" viewBox="0 0 25 20">
<path d="M8.316 13.449c0.148-0.004 0.891-0.055 1-0.086-0.094-0.102-1.703-0.039-2.656-1.938-0.168-0.336-0.293-0.688-0.25-1.078 0.113-0.996 1.285-1.172 2.031-0.723 1.406 0.844 2.473 3.566 4.441 3.809 1.445 0.176 3.305-0.664 4.227-1.773-0.023-0.004-0.031-0.008-0.039-0.004-0.016 0.004-0.031 0.008-0.043 0.012-1.301 0.473-3.684 0.379-5.262-0.578-1.469-0.891-2.074-2.293-2.023-2.914 0.070-0.832 0.895-0.906 1.402-0.766 0.562 0.152 0.953 0.688 1.52 1.070 0.609 0.406 1.285 0.535 2.004 0.402 0.582-0.105 1.344-0.48 1.426-0.566-0.043-0.004-0.070-0.004-0.098-0.008-0.242-0.023-0.484-0.031-0.723-0.066-4.344-0.645-5.035-6.391-9.863-6.762-1.73-0.133-3.883 0.316-5.324 1.367-0.031 0.023-0.059 0.047-0.086 0.070 0.004 0.008 0.004 0.012 0.008 0.020 0.031 0 0.063-0.004 0.094-0.008 0.246-0.039 0.488-0.031 0.73 0.012 0.93 0.168 1.863 0.902 2.184 2.988 0.207 1.34-0.027 1.984 0.313 3.363 0.742 3.012 3.555 4.203 4.988 4.156zM2.941 2.535c-0.035-0.039-0.035-0.047-0.051-0.078 0.473-0.102 0.945-0.16 1.43-0.187-0.043 0.574-0.867 0.832-1.379 0.266zM10.633 16.227c-1.672 0.047-3.594-1.043-4.824-2.398-0.18-0.195-0.656-0.789-0.727-0.914l0.016-0.016c0.258 0.16 1.004 0.727 2.141 1.055 0.945 0.273 1.879 0.246 2.797-0.129 0.887-0.363 1.602-0.020 1.684 0.113-0.723 0.148-0.785 0.172-0.938 0.309-0.199 0.172-0.18 0.457 0.273 0.672 1.023 0.484 2.461-0.109 3.797 0.992 0.094 0.078 0.316 0.305 0.395 0.418-0.004 0.008-0.012 0.012-0.016 0.020-0.188-0.059-0.641-0.293-1.57-0.363-0.965-0.078-1.809 0.207-3.027 0.242zM17.461 6.383c0.641-0.203 1.613-0.523 2.598-0.129 0.629 0.254 1.023 0.73 1.254 1.352 0.137 0.367 0.199 0.77 0.199 1.121-0.008 0-0.016 0-0.023 0.004-0.008-0.016-0.016-0.035-0.020-0.051-0.195-0.859-1.168-1.711-2.641-1.168-1.961 0.727-5.094 0.379-6.91-1.875-0.027-0.035-0.094-0.066-0.051-0.125 0.004-0.008 0.082 0.023 0.117 0.051 0.707 0.523 1.496 0.855 2.355 1.023 1.191 0.238 2.133 0.113 3.121-0.203zM21.473 10.973c-1.266 0.008-1.32 1.957-4.047 2.516-0.711 0.145-1.512 0.18-1.754 0.164v-0.016c0.109-0.059 0.574-0.102 1.16-0.648 0.309-0.285 0.598-0.59 0.891-0.895 0.762-0.789 1.617-1.648 3.199-1.523 0.902 0.070 1.145 0.32 1.41 0.496 0.012 0.008 0.016 0.020 0.027 0.035-0.020 0-0.027 0.004-0.035 0-0.273-0.105-0.559-0.129-0.852-0.129zM20.992 10.031c-0.004 0.008-0.004 0.016-0.008 0.023-1.129-0.172-1.875-0.309-2.676 0.156-0.664 0.387-1.227 0.801-2.422 0.953-1.059 0.133-1.762 0.094-2.582-0.313-0.012-0.008-0.023-0.016-0.039-0.023 0-0.008 0.004-0.012 0.004-0.020 0.973 0.148 1.422 0.199 2.168-0.227 0.871-0.504 1.566-1.039 2.785-1.211 1.156-0.16 2.004 0.098 2.77 0.66zM10.492 3.801c-0.023-0.023-0.043-0.047-0.082-0.090 0.297 0 1.16-0.047 2.086 0.328 0.77 0.313 1.258 0.82 1.961 1.285 0.434 0.285 0.914 0.363 1.422 0.316 0.168-0.016 0.332-0.047 0.5-0.066 0.016-0.004 0.035 0 0.059 0.012-0.023 0.016-0.047 0.035-0.070 0.047-0.316 0.156-0.652 0.246-1 0.277-1.020 0.102-1.965-0.145-2.867-0.602-0.754-0.387-1.422-0.895-2.008-1.508zM25 13.113c-0.137 0.121-0.887 0.453-1.668 0.207-0.48-0.152-0.762-0.582-1.234-0.941-0.391-0.297-0.816-0.309-1.098-0.328 0.023-0.031 0.035-0.047 0.047-0.055 0.578-0.359 1.191-0.477 1.848-0.254 0.488 0.164 0.75 0.527 1.188 0.945 0.422 0.406 0.82 0.387 0.902 0.41 0.004-0.004 0.008 0 0.016 0.016zM16.699 18.465c0.086 0.047 0.063 0.059 0.059 0.078-0.723-0.055-1.324-0.297-1.828-0.867-0.852-0.965-1.629-1.090-1.898-1.16 0.020-0.008 0.031-0.016 0.043-0.016 0.512 0.004 1.020 0.027 1.52 0.152 0.988 0.25 1.367 0.992 1.625 1.379 0.125 0.188 0.285 0.324 0.48 0.434z"></path>
</svg>
