<svg xmlns="http://www.w3.org/2000/svg" width="25" height="20" viewBox="0 0 25 20">
<path d="M12.5 4.082c6.695 0 11.844 2.82 11.844 5.918s-5.152 5.918-11.844 5.918c-6.695 0-11.844-2.82-11.844-5.918s5.152-5.918 11.844-5.918zM12.5 3.426c-6.902 0-12.5 2.941-12.5 6.574s5.598 6.574 12.5 6.574 12.5-2.941 12.5-6.574-5.598-6.574-12.5-6.574zM8.523 9.473c-0.309 1.582-1.398 1.418-2.738 1.418l0.535-2.758c1.484 0 2.492-0.16 2.203 1.34zM3.805 13.684h1.434l0.34-1.75c1.605 0 2.602 0.117 3.523-0.746 1.020-0.938 1.285-2.605 0.559-3.441-0.379-0.437-0.988-0.652-1.816-0.652h-2.762l-1.277 6.59zM11.059 5.34h1.426l-0.34 1.75c1.23 0 2.371-0.090 2.922 0.418 0.578 0.531 0.301 1.211-0.324 4.418h-1.445c0.602-3.102 0.715-3.359 0.496-3.594-0.211-0.227-0.691-0.18-1.852-0.18l-0.734 3.773h-1.426l1.277-6.586zM19.727 9.473c-0.313 1.605-1.434 1.418-2.738 1.418l0.535-2.758c1.492 0 2.492-0.16 2.203 1.34zM15.008 13.684h1.438l0.34-1.75c1.688 0 2.621 0.098 3.523-0.746 1.020-0.938 1.285-2.605 0.559-3.441-0.379-0.437-0.988-0.652-1.816-0.652h-2.762l-1.281 6.59z"></path>
</svg>
