<svg xmlns="http://www.w3.org/2000/svg" width="19" height="20" viewBox="0 0 19 20">
<path d="M12.617 10.238l-0.004-0.508s0.848-0.773 0.824-0.828l-0.371-0.781c-0.023-0.055-1.152-0.020-1.152-0.020l-0.367-0.363s0.008-1.113-0.047-1.137l-0.785-0.359c-0.055-0.023-0.809 0.82-0.809 0.82l-0.512-0.008s-0.801-0.836-0.855-0.813l-0.781 0.324c-0.055 0.020 0.008 1.129 0.008 1.129l-0.355 0.355s-1.141-0.035-1.16 0.016l-0.316 0.773c-0.023 0.055 0.82 0.82 0.82 0.82l0.004 0.504s-0.848 0.773-0.824 0.828l0.371 0.781c0.023 0.055 1.152 0.020 1.152 0.020l0.367 0.363s-0.008 1.242 0.047 1.262l0.785 0.324c0.055 0.023 0.809-0.918 0.809-0.918l0.512 0.008s0.801 0.93 0.852 0.91l0.781-0.293c0.055-0.023-0.008-1.254-0.008-1.254l0.355-0.355s1.141 0.035 1.16-0.020l0.316-0.773c0.027-0.043-0.816-0.809-0.816-0.809zM10.863 9.898c0.027 0.668-0.5 1.234-1.176 1.266s-1.254-0.488-1.281-1.156c-0.027-0.668 0.5-1.234 1.176-1.262 0.676-0.031 1.254 0.488 1.281 1.152zM18.723 8.418l-3.789-3.789-0.004 0.004c-2.934-2.863-7.633-2.844-10.539 0.063-1.988 1.992-1.086 1.090-3.738 3.723-0.871 0.871-0.871 2.293 0 3.164 2.73 2.711 1.813 1.797 3.805 3.789l0.004-0.004c2.934 2.863 7.633 2.848 10.539-0.063 1.992-1.988 1.090-1.090 3.723-3.723 0.871-0.871 0.871-2.293 0-3.164zM5.484 14.211c-2.328-2.324-2.328-6.094 0-8.418 2.324-2.328 6.094-2.324 8.422 0 2.324 2.324 2.328 6.094 0 8.422-2.328 2.324-6.094 2.32-8.422-0.004z"></path>
</svg>
