<svg xmlns="http://www.w3.org/2000/svg" width="25" height="20" viewBox="0 0 25 20">
<path d="M25 0.973c-3.156 2.094-3.492 3.613-3.766 4.078-0.262 0.477-0.457 2.355-0.91 3.266-0.457 0.922-2.117 1.648-2.582 1.953-0.457 0.305-1.105 1.488-1.637 2.508-4.223-0.172-6.539 1.516-10.125 3.656 1.148-0.379 1.691-0.652 1.691-0.652 3.68-1.406 5.441-2.668 10.98-1.922 0.043 0 0.074 0.023 0.109 0.031 0.152 0.086 0.207 0.27 0.121 0.422l-2.105 3.742c-0.098 0.184-0.305 0.281-0.512 0.238-4.953-0.93-8.863 0.676-12.457 0.727-2.867 0.043-3.809-1.309-3.809-1.371 0-0.043 0.023-0.066 0.066-0.066 0 0 1.496 0 4.027-0.598 2.875-5.48 5.438-7.398 8.227-7.398 0 0 2.801 0 3.539 2.418 0.891-1.551 1.105-1.922 1.105-1.922 0.207-0.367 1.367-3.016 3.375-5.523 2.012-2.5 3.531-3.121 4.66-3.586z"></path>
</svg>
