<svg xmlns="http://www.w3.org/2000/svg" width="18" height="20" viewBox="0 0 18 20">
<path d="M6.555 1.422c-1.766 0.313-2.086 0.965-2.086 2.172v1.59h4.176v0.531h-5.742c-1.215 0-2.277 0.73-2.609 2.117-0.383 1.59-0.398 2.582 0 4.242 0.297 1.234 1.004 2.117 2.219 2.117h1.434v-1.906c0-1.379 1.191-2.594 2.609-2.594h4.172c1.16 0 2.086-0.957 2.086-2.121v-3.98c0-1.133-0.953-1.98-2.086-2.172-1.398-0.23-2.918-0.219-4.172 0.004zM6.293 2.531c0.43 0 0.785 0.359 0.785 0.797s-0.352 0.793-0.785 0.793c-0.434 0-0.785-0.355-0.785-0.793 0.004-0.441 0.352-0.797 0.785-0.797zM13.527 5.711v1.855c0 1.438-1.219 2.648-2.609 2.648h-4.172c-1.141 0-2.086 0.977-2.086 2.121v3.977c0 1.133 0.984 1.797 2.086 2.121 1.32 0.387 2.59 0.457 4.172 0 1.051-0.305 2.086-0.918 2.086-2.121v-1.59h-4.168v-0.531h6.258c1.215 0 1.664-0.848 2.086-2.117 0.437-1.309 0.418-2.566 0-4.242-0.301-1.207-0.871-2.117-2.086-2.117h-1.566zM11.18 15.781c0.434 0 0.785 0.355 0.785 0.793 0 0.441-0.352 0.797-0.785 0.797-0.43 0-0.785-0.359-0.785-0.797 0.004-0.441 0.355-0.793 0.785-0.793z"></path>
</svg>
