<svg xmlns="http://www.w3.org/2000/svg" width="19" height="20" viewBox="0 0 19 20">
<path d="M11.793 18.539h-0.051c-3.41 0-6.176-2.766-6.176-6.176s2.766-6.176 6.176-6.176c3.707 0 6.57 3.246 6.133 6.898 0.156 0.199 0.32 0.375 0.438 0.598 0.523-1.184 0.793-2.437 0.793-3.816 0-5.277-4.277-9.555-9.555-9.555-5.273 0-9.551 4.277-9.551 9.555s4.277 9.555 9.551 9.555c0.969 0 1.867-0.125 2.75-0.395-0.203-0.137-0.352-0.32-0.523-0.492l0.016 0.004zM10.965 15.813c0-2.141 1.734-3.875 3.875-3.875s3.875 1.734 3.875 3.875c0 2.141-1.734 3.875-3.875 3.875s-3.875-1.734-3.875-3.875z"></path>
</svg>
