<svg xmlns="http://www.w3.org/2000/svg" width="18" height="20" viewBox="0 0 18 20">
<path d="M16.944 16.424c-0.45 0.054-1.752-2.060-1.752-2.060 0 1.224-0.63 2.822-1.994 3.976 0.658 0.203 2.142 0.749 1.789 1.345-0.286 0.482-4.903 0.308-6.236 0.158-1.333 0.15-5.95 0.324-6.236-0.158-0.353-0.596 1.13-1.141 1.788-1.344-1.364-1.154-1.994-2.752-1.994-3.976 0 0-1.302 2.115-1.752 2.060-0.21-0.025-0.485-1.158 0.365-3.895 0.401-1.29 0.859-2.362 1.568-4.132-0.119-4.566 1.767-8.397 6.26-8.397 4.443 0 6.373 3.755 6.26 8.397 0.708 1.767 1.168 2.846 1.568 4.132 0.85 2.737 0.575 3.869 0.365 3.895z"></path>
</svg>
