<svg xmlns="http://www.w3.org/2000/svg" width="18" height="20" viewBox="0 0 18 20">
<path d="M17.207 15.105h-1.145c-0.059 0.527-0.41 1.203-1.289 1.203-0.801 0-1.379-0.555-1.934-1.398 1.727-1.336 2.918-3.418 2.918-5.977 0.004-4.59-3.773-7.684-7.75-7.684-3.895 0-7.723 3.113-7.723 7.684 0 5.238 5.129 8.656 9.727 7.383 0.77 1.313 1.785 2.434 3.719 2.434 3.195 0 3.547-2.941 3.477-3.645zM11.602 12.859c-0.762-1.141-1.707-2.039-3.574-2.039-1.191 0-2.121 0.391-2.695 0.891l0.477 0.949c0.242-0.117 0.508-0.156 0.773-0.156 1.387 0 2.098 1.203 2.703 2.395-0.391 0.117-0.809 0.164-1.277 0.164-2.93 0-4.199-2.070-4.199-6.121 0-4.078 1.27-6.168 4.199-6.168 2.977 0 4.246 2.090 4.246 6.16 0.004 1.633-0.211 2.953-0.652 3.926z"></path>
</svg>
