<svg xmlns="http://www.w3.org/2000/svg" width="18" height="20" viewBox="0 0 18 20">
<path d="M11.063 13.496c0.105 0.105 0.105 0.266 0 0.359-0.957 0.957-3.664 0.961-4.625 0-0.105-0.094-0.105-0.254 0-0.359 0.094-0.094 0.254-0.094 0.348 0 0.73 0.75 3.164 0.766 3.926 0 0.094-0.090 0.258-0.090 0.352 0zM7.496 11.395c0-0.582-0.465-1.047-1.035-1.047-0.582 0-1.047 0.465-1.047 1.047 0 0.57 0.465 1.035 1.047 1.035 0.57 0 1.035-0.465 1.035-1.035zM11.039 10.348c-0.57 0-1.035 0.465-1.035 1.047 0 0.57 0.465 1.035 1.035 1.035 0.582 0 1.047-0.465 1.047-1.035 0-0.582-0.465-1.047-1.047-1.047zM17.5 3.125v13.75c0 1.035-0.84 1.875-1.875 1.875h-13.75c-1.035 0-1.875-0.84-1.875-1.875v-13.75c0-1.035 0.84-1.875 1.875-1.875h13.75c1.035 0 1.875 0.84 1.875 1.875zM13.605 8.617c-0.395 0-0.742 0.164-1 0.418-0.941-0.652-2.207-1.070-3.613-1.117l0.73-3.289 2.324 0.523c0 0.57 0.465 1.035 1.035 1.035 0.582 0 1.047-0.477 1.047-1.047s-0.465-1.047-1.047-1.047c-0.406 0-0.754 0.242-0.93 0.582l-2.566-0.57c-0.129-0.035-0.254 0.059-0.289 0.188l-0.801 3.625c-1.395 0.059-2.648 0.477-3.59 1.129-0.254-0.266-0.617-0.43-1.012-0.43-1.465 0-1.945 1.969-0.605 2.637-0.047 0.211-0.070 0.43-0.070 0.652 0 2.207 2.488 3.996 5.543 3.996 3.066 0 5.555-1.789 5.555-3.996 0-0.223-0.023-0.453-0.082-0.664 1.313-0.672 0.828-2.625-0.629-2.625z"></path>
</svg>
