<svg xmlns="http://www.w3.org/2000/svg" width="18" height="20" viewBox="0 0 18 20">
<path d="M12.5 18.75h-7.5c-2.75 0-5-2.25-5-5v-7.5c0-2.75 2.25-5 5-5h7.5c2.75 0 5 2.25 5 5v7.5c0 2.75-2.25 5-5 5zM7.555 10.672c-0.238-0.078-0.453-0.121-0.641-0.121-0.281 0-0.527 0.074-0.738 0.219s-0.375 0.352-0.5 0.617h-0.043l-0.164-0.715h-1.094v5.426h1.41v-3.504c0.059-0.211 0.172-0.383 0.34-0.516s0.383-0.199 0.633-0.199c0.18 0 0.383 0.039 0.609 0.121l0.188-1.328zM12.055 14.711c-0.125 0.094-0.301 0.188-0.535 0.277s-0.5 0.137-0.797 0.137c-0.477 0-0.824-0.117-1.035-0.348-0.215-0.23-0.332-0.574-0.352-1.031h3.254c0.035-0.188 0.063-0.367 0.082-0.543 0.020-0.172 0.027-0.336 0.027-0.488 0-0.418-0.063-0.77-0.184-1.051-0.125-0.281-0.285-0.508-0.488-0.672-0.203-0.168-0.434-0.285-0.695-0.359-0.262-0.070-0.527-0.109-0.805-0.109-0.824 0-1.465 0.238-1.922 0.715s-0.684 1.191-0.684 2.148c0 0.891 0.203 1.59 0.609 2.098 0.406 0.512 1.047 0.766 1.922 0.766 0.418 0 0.816-0.059 1.187-0.18s0.668-0.266 0.883-0.438l-0.469-0.922zM11.203 11.965c0.148 0.211 0.207 0.512 0.18 0.902h-2.020c0.035-0.367 0.145-0.664 0.32-0.883s0.449-0.332 0.82-0.332c0.32-0.004 0.551 0.102 0.699 0.313zM14.324 12.063c0.16 0.152 0.367 0.227 0.629 0.227 0.273 0 0.492-0.074 0.652-0.227s0.238-0.355 0.238-0.609-0.078-0.453-0.238-0.602c-0.16-0.148-0.375-0.223-0.652-0.223-0.262 0-0.469 0.074-0.629 0.223s-0.238 0.348-0.238 0.602 0.078 0.457 0.238 0.609zM14.324 15.988c0.16 0.152 0.367 0.227 0.629 0.227 0.273 0 0.492-0.074 0.652-0.227s0.238-0.355 0.238-0.609-0.078-0.453-0.238-0.602c-0.16-0.148-0.375-0.223-0.652-0.223-0.262 0-0.469 0.074-0.629 0.223s-0.238 0.348-0.238 0.602c0 0.258 0.078 0.457 0.238 0.609z"></path>
</svg>
