<svg xmlns="http://www.w3.org/2000/svg" width="20" height="20" viewBox="0 0 20 20">
<path d="M15.914 2.402c-2.961-1.539-5.844-1.191-8.77 0.176-0.441 0.203-0.605 0.414-0.777 0.742-0.402 0.75-0.633 1.461-0.777 2.059-0.828 1-1.422 2.191-1.691 3.512-0.414 0.703-0.816 1.617-0.902 2.789 0 0-0.027 0.297-0.020 0.309-1.379-0.18-2.977-1.055-2.977-1.055 0.355 0.566 2.395 1.262 2.98 1.48 0 0 0.066 3.828 2.52 5.125-0.441-0.672-0.52-0.789-0.52-0.789s-1.277-2.336-1.059-4.066c0.027 0 0.059 0.008 0.086 0.008 0.934 3.414 4.031 5.914 7.691 5.914 0.242 0 0.473-0.008 0.703-0.027 0.547 0.059 1.078 0.020 1.566-0.152 0.27-0.086 0.539-0.25 0.789-0.422 2.742-1.527 3.941-3.203 4.809-5.77 0.211-0.625 0.316-1.387 0.383-2.039 0.34-3.215-1.195-6.313-4.035-7.793zM5.422 6.375s-0.047 0.48-0.027 0.77c-0.133 0.098-0.395 0.316-0.711 0.652 0.203-0.5 0.441-0.98 0.738-1.422zM4.203 11.137c0.172-0.672 0.52-1.527 1.164-2.152 0 0 0.066 1.875 0.617 3.52l-1.617-0.27c-0.086-0.359-0.137-0.723-0.164-1.098zM4.512 12.809c0.578 0.125 1.328 0.297 1.684 0.355 1.066 3 4.23 4.855 4.23 4.855 0.039 0.020 0.066 0.027 0.105 0.039-2.855-0.453-5.184-2.527-6.020-5.25zM15.078 17.348c-0.566 0.184-1.414 0.328-2.527 0.145 0 0-3.559-0.902-4.98-4.211 1.492 0.027 2.047-0.008 3.047-0.152 1.539-0.223 3.086-0.633 4.492-1.289 0.461-0.211 0.434-0.758 0.375-1.164-0.078-0.5-0.434-0.473-0.836-0.184 0 0-3.203 2.289-7.414 2.098-0.73-1.25-1.047-4.328-1.047-4.328 1.617-1.375 3.25-2.328 6.578-2.047 0.008-0.25 0.117-1.059-0.797-1.098 0 0-3.652-0.434-5.703 1.309 0.098-0.645 0.23-1.145 0.434-1.539 1.336-1.203 3.086-1.934 5.012-1.934 4.156 0 7.539 3.402 7.539 7.598-0.008 2.969-1.711 5.547-4.172 6.797z"></path>
</svg>
