<svg xmlns="http://www.w3.org/2000/svg" width="20" height="20" viewBox="0 0 20 20">
<path d="M7.871 11.934c-0.539 0-0.973-0.434-0.973-0.961 0-0.539 0.434-0.973 0.973-0.973 0.531 0 0.961 0.434 0.961 0.973 0 0.531-0.434 0.961-0.961 0.961zM19.688 10c0 5.352-4.336 9.688-9.688 9.688s-9.688-4.336-9.688-9.688 4.336-9.688 9.688-9.688 9.688 4.336 9.688 9.688zM14.52 8.391c-0.367 0-0.691 0.152-0.93 0.391-0.875-0.605-2.055-0.996-3.363-1.039l0.68-3.059 2.164 0.488c0 0.531 0.434 0.961 0.961 0.961 0.539 0 0.973-0.441 0.973-0.973s-0.434-0.973-0.973-0.973c-0.379 0-0.703 0.227-0.863 0.539l-2.391-0.531c-0.117-0.031-0.238 0.055-0.27 0.172l-0.746 3.375c-1.297 0.055-2.465 0.441-3.34 1.047-0.238-0.25-0.574-0.398-0.941-0.398-1.363 0-1.809 1.832-0.563 2.453-0.043 0.195-0.066 0.398-0.066 0.605 0 2.055 2.313 3.719 5.156 3.719 2.855 0 5.168-1.664 5.168-3.719 0-0.207-0.023-0.422-0.074-0.617 1.223-0.625 0.773-2.441-0.582-2.441zM11.828 12.93c-0.711 0.711-2.973 0.699-3.656 0-0.086-0.086-0.238-0.086-0.324 0-0.098 0.098-0.098 0.25 0 0.336 0.891 0.891 3.41 0.891 4.305 0 0.098-0.086 0.098-0.238 0-0.336-0.086-0.086-0.238-0.086-0.324 0zM12.129 10c-0.531 0-0.961 0.434-0.961 0.973 0 0.531 0.434 0.961 0.961 0.961 0.539 0 0.973-0.434 0.973-0.961 0-0.539-0.43-0.973-0.973-0.973z"></path>
</svg>
