<svg xmlns="http://www.w3.org/2000/svg" width="18" height="20" viewBox="0 0 18 20">
<path d="M13.797 1.25h-10.094c-2.047 0-3.703 1.656-3.703 3.703v10.094c0 2.047 1.656 3.703 3.703 3.703h10.094c2.047 0 3.703-1.656 3.703-3.703v-10.094c0-2.047-1.656-3.703-3.703-3.703zM5.66 7.848v2.199c0 1.055-0.855 1.91-1.91 1.91v-6.023c0-0.516 0.418-0.934 0.934-0.934h6.023c0 1.055-0.855 1.91-1.91 1.91h-2.199c-0.48-0.023-0.961 0.453-0.938 0.938zM12.547 10.66h-2.199c-0.48-0.023-0.961 0.453-0.938 0.938v2.199c0 1.055-0.855 1.91-1.91 1.91v-6.023c0-0.516 0.418-0.934 0.934-0.934h6.023c0 1.055-0.855 1.91-1.91 1.91z"></path>
</svg>
