<svg xmlns="http://www.w3.org/2000/svg" width="18" height="20" viewBox="0 0 18 20">
<path d="M17.5 10.008c0-3.406-3.891-5.988-8.586-5.988-0.734 0-1.457 0.063-2.16 0.188-0.434-0.41-0.945-0.781-1.484-1.070-2.879-1.41-5.27-0.035-5.27-0.035s2.223 1.84 1.859 3.449c-2.043 2.043-2.051 4.848 0 6.898 0.363 1.613-1.859 3.449-1.859 3.449s2.391 1.375 5.27-0.031c0.539-0.293 1.051-0.66 1.484-1.070 0.703 0.125 1.426 0.188 2.16 0.188 4.699-0.004 8.586-2.57 8.586-5.977zM8.918 14.852c-0.926 0-1.809-0.109-2.629-0.305-0.832 1.008-2.66 2.41-4.438 1.957 0.578-0.625 1.434-1.684 1.25-3.422-1.066-0.836-1.703-1.902-1.703-3.066 0-2.672 3.367-4.84 7.52-4.84s7.52 2.168 7.52 4.84c0 2.668-3.367 4.836-7.52 4.836zM9.918 10.012c0 0.555-0.449 1.008-1 1.008s-1-0.449-1-1.008c0-0.555 0.449-1.008 1-1.008s1 0.453 1 1.008zM13.391 10.012c0 0.555-0.445 1.008-1 1.008-0.551 0-1-0.449-1-1.008 0-0.555 0.445-1.008 1-1.008 0.551 0 1 0.453 1 1.008zM6.441 10.012c0 0.555-0.445 1.008-1 1.008-0.551 0-1-0.449-1-1.008 0-0.555 0.445-1.008 1-1.008s1 0.453 1 1.008z"></path>
</svg>
