<svg xmlns="http://www.w3.org/2000/svg" width="19" height="20" viewBox="0 0 19 20">
<path d="M10.984 10.867c1.797-0.52 1.938-0.918 1.719-1.695l-0.438-1.535c-0.238-0.816-0.719-1.098-2.777-0.5l-7.352 2.113 1.117 3.852 7.73-2.234zM9.707 0.313c-4.574 0-8.41 3.152-9.426 7.402l8.668-2.496c1.359-0.398 2.117-0.457 3.098-0.32 1.418 0.238 2.059 0.977 2.398 2.156l0.418 1.477c0.32 1.098 0.039 1.977-0.918 2.875-0.758 0.68-1.219 0.957-2.398 1.297l-3.617 1.039 8.609 1.059 0.379 1.336-1.879 0.52-11.203-1.457 0.898 3.133c1.438 0.859 3.137 1.355 4.934 1.355 5.352 0 9.707-4.352 9.707-9.699 0.039-5.324-4.316-9.676-9.668-9.676zM1.496 15.18l-1.496-5.148c0 1.895 0.559 3.648 1.496 5.148z"></path>
</svg>
