<svg xmlns="http://www.w3.org/2000/svg" width="20" height="20" viewBox="0 0 20 20">
<path d="M8.359 6.605c0 4.313-2.383 8.023-5.766 9.664-1.422-1.691-2.281-3.859-2.281-6.246 0-4.793 3.48-8.766 8.047-9.535v6.117zM9.961 19.688c-1.676 0-3.254-0.43-4.629-1.188 2.234-1.41 4.039-3.543 4.629-6.039 0.605 2.496 2.41 4.629 4.641 6.043-1.371 0.754-2.949 1.184-4.641 1.184zM17.406 16.27c-3.383-1.641-5.766-5.348-5.766-9.664v-6.117c4.566 0.77 8.047 4.742 8.047 9.535 0 2.387-0.859 4.555-2.281 6.246z"></path>
</svg>
