<svg xmlns="http://www.w3.org/2000/svg" width="20" height="20" viewBox="0 0 20 20">
<path d="M10.020 19.688c-5.441 0-9.668-4.539-9.504-9.926 0.109-3.094 1.688-5.945 4.551-7.828 0.012 0 0.074-0.023 0.043 0.031-0.227 0.215-4.348 5.070-0.551 8.844 1.945 1.934 3.516 0.098 3.516 0.098 1.504-1.957-0.023-4.918-0.023-4.918-0.391-0.973-1.785-1.566-1.785-1.566l1.125-1.242c0.953 0.41 1.688 1.512 1.688 1.512 0.031-1.156-0.855-2.398-0.855-2.398l1.742-1.98 1.73 1.957c-0.801 1.125-0.855 2.445-0.855 2.445 0.539-0.898 1.699-1.535 1.699-1.535l1.113 1.242c-1.070 0.348-1.773 1.559-1.773 1.559-0.617 1.113-1.059 3.492 0.023 4.973 1.266 1.742 3.426-0.109 3.426-0.109 4.012-3.59-0.41-8.789-0.41-8.789-0.238-0.215 0.031-0.109 0.031-0.109 1.957 1.426 4.477 3.297 4.539 8 0.078 5.687-3.902 9.742-9.469 9.742z"></path>
</svg>
