<svg xmlns="http://www.w3.org/2000/svg" width="20" height="20" viewBox="0 0 20 20">
<path d="M16.336 6.922c-0.211-0.070-0.422-0.137-0.633-0.199 0.035-0.145 0.066-0.289 0.098-0.434 0.48-2.328 0.164-4.199-0.902-4.816-1.027-0.59-2.703 0.023-4.398 1.5-0.168 0.145-0.332 0.297-0.488 0.449-0.105-0.102-0.215-0.203-0.324-0.301-1.777-1.578-3.559-2.242-4.625-1.621-1.023 0.594-1.328 2.355-0.898 4.559 0.043 0.219 0.090 0.434 0.145 0.652-0.25 0.070-0.496 0.148-0.727 0.23-2.086 0.723-3.582 1.863-3.582 3.043 0 1.219 1.594 2.441 3.762 3.184 0.176 0.059 0.352 0.117 0.531 0.168-0.059 0.234-0.109 0.465-0.156 0.703-0.41 2.168-0.090 3.887 0.934 4.477 1.055 0.609 2.828-0.016 4.555-1.527 0.137-0.121 0.273-0.246 0.41-0.379 0.172 0.168 0.352 0.328 0.531 0.484 1.672 1.438 3.324 2.020 4.344 1.43 1.055-0.609 1.398-2.457 0.953-4.707-0.035-0.172-0.074-0.348-0.117-0.527 0.125-0.035 0.246-0.074 0.367-0.113 2.254-0.746 3.887-1.953 3.887-3.191 0-1.184-1.539-2.332-3.664-3.062zM11.051 3.605c1.453-1.266 2.809-1.762 3.426-1.406 0.66 0.379 0.914 1.91 0.5 3.922-0.027 0.133-0.055 0.262-0.090 0.391-0.867-0.195-1.746-0.336-2.629-0.414-0.508-0.727-1.063-1.422-1.664-2.074 0.152-0.145 0.301-0.281 0.457-0.418zM5.973 10.992c0.18 0.344 0.363 0.684 0.559 1.020 0.199 0.34 0.402 0.68 0.617 1.012-0.609-0.066-1.215-0.164-1.813-0.293 0.172-0.563 0.387-1.145 0.637-1.738zM5.973 9.016c-0.246-0.582-0.453-1.152-0.625-1.703 0.563-0.125 1.16-0.227 1.781-0.305-0.207 0.324-0.41 0.656-0.602 0.992-0.191 0.332-0.379 0.672-0.555 1.016zM6.418 10.004c0.258-0.539 0.539-1.066 0.836-1.586s0.617-1.023 0.953-1.52c0.586-0.043 1.184-0.066 1.793-0.066s1.211 0.023 1.793 0.066c0.332 0.492 0.648 0.996 0.949 1.512s0.582 1.043 0.848 1.578c-0.262 0.539-0.543 1.070-0.844 1.594-0.297 0.52-0.613 1.023-0.945 1.523-0.582 0.043-1.187 0.063-1.801 0.063s-1.207-0.020-1.781-0.055c-0.34-0.496-0.66-1.004-0.961-1.523s-0.578-1.047-0.84-1.586zM13.473 12.004c0.199-0.344 0.387-0.691 0.57-1.043 0.25 0.566 0.469 1.141 0.66 1.73-0.605 0.137-1.219 0.242-1.836 0.313 0.211-0.328 0.41-0.664 0.605-1zM14.035 9.016c-0.184-0.344-0.371-0.688-0.566-1.023-0.191-0.332-0.391-0.66-0.598-0.984 0.629 0.078 1.23 0.184 1.793 0.313-0.18 0.578-0.391 1.141-0.629 1.695zM10.008 4.621c0.41 0.445 0.797 0.914 1.156 1.398-0.773-0.035-1.551-0.035-2.324 0 0.383-0.504 0.777-0.973 1.168-1.398zM5.477 2.227c0.656-0.383 2.113 0.164 3.648 1.523 0.098 0.086 0.195 0.18 0.297 0.273-0.605 0.652-1.164 1.348-1.676 2.074-0.883 0.078-1.758 0.215-2.625 0.406-0.051-0.199-0.094-0.402-0.137-0.605-0.367-1.891-0.125-3.316 0.492-3.672zM4.52 12.523c-0.164-0.047-0.324-0.098-0.484-0.152-0.832-0.262-1.777-0.676-2.461-1.219-0.395-0.273-0.66-0.695-0.734-1.168 0-0.715 1.234-1.629 3.016-2.25 0.223-0.078 0.449-0.148 0.676-0.215 0.266 0.848 0.586 1.68 0.957 2.484-0.375 0.816-0.699 1.66-0.969 2.52zM9.074 16.352c-0.645 0.59-1.391 1.059-2.203 1.379-0.434 0.207-0.934 0.227-1.379 0.051-0.621-0.359-0.879-1.738-0.527-3.594 0.043-0.219 0.090-0.438 0.145-0.652 0.875 0.188 1.758 0.316 2.652 0.383 0.516 0.73 1.082 1.43 1.688 2.086-0.125 0.121-0.25 0.238-0.375 0.348zM10.031 15.402c-0.398-0.43-0.797-0.906-1.184-1.418 0.375 0.016 0.762 0.023 1.152 0.023 0.402 0 0.797-0.008 1.188-0.027-0.359 0.496-0.746 0.969-1.156 1.422zM15.137 16.574c-0.035 0.477-0.27 0.922-0.645 1.223-0.621 0.359-1.945-0.109-3.375-1.336-0.164-0.141-0.328-0.293-0.496-0.449 0.598-0.66 1.148-1.359 1.648-2.094 0.895-0.074 1.785-0.211 2.664-0.41 0.039 0.16 0.074 0.32 0.105 0.477 0.191 0.844 0.223 1.723 0.098 2.59zM15.848 12.375c-0.109 0.035-0.219 0.070-0.332 0.102-0.273-0.852-0.609-1.684-0.996-2.492 0.375-0.797 0.691-1.617 0.957-2.457 0.203 0.059 0.398 0.121 0.586 0.184 1.82 0.625 3.098 1.555 3.098 2.266 0 0.766-1.363 1.754-3.313 2.398zM10 8.211c0.988 0 1.789 0.801 1.789 1.789s-0.801 1.789-1.789 1.789c-0.988 0-1.789-0.801-1.789-1.789s0.801-1.789 1.789-1.789z"></path>
</svg>
