<svg xmlns="http://www.w3.org/2000/svg" width="20" height="20" viewBox="0 0 20 20">
<path d="M17.199 7.949c-0.586 0-1.102 0.242-1.48 0.621-1.395-0.965-3.273-1.586-5.355-1.652l1.082-4.875 3.445 0.773c0 0.844 0.688 1.531 1.531 1.531 0.859 0 1.551-0.707 1.551-1.551s-0.688-1.551-1.551-1.551c-0.602 0-1.121 0.363-1.379 0.859l-3.805-0.844c-0.191-0.051-0.379 0.086-0.43 0.277l-1.188 5.375c-2.066 0.086-3.926 0.707-5.324 1.672-0.379-0.395-0.914-0.637-1.5-0.637-2.172 0-2.883 2.914-0.895 3.91-0.070 0.309-0.102 0.637-0.102 0.965 0 3.273 3.688 5.926 8.215 5.926 4.547 0 8.234-2.652 8.234-5.926 0-0.328-0.035-0.672-0.121-0.98 1.949-1 1.23-3.895-0.93-3.895zM5.055 12.066c0-0.859 0.688-1.551 1.551-1.551 0.844 0 1.531 0.688 1.531 1.551 0 0.844-0.687 1.531-1.531 1.531-0.859 0.004-1.551-0.688-1.551-1.531zM13.426 15.719c-1.422 1.422-5.434 1.422-6.855 0-0.156-0.137-0.156-0.379 0-0.535 0.137-0.137 0.379-0.137 0.516 0 1.086 1.113 4.688 1.133 5.82 0 0.137-0.137 0.379-0.137 0.516 0 0.16 0.156 0.16 0.398 0.004 0.535zM13.395 13.602c-0.844 0-1.531-0.688-1.531-1.531 0-0.859 0.688-1.551 1.531-1.551 0.859 0 1.551 0.688 1.551 1.551-0.004 0.84-0.691 1.531-1.551 1.531z"></path>
</svg>
