<svg xmlns="http://www.w3.org/2000/svg" width="19" height="20" viewBox="0 0 19 20">
<path d="M9.688 0.313c-5.352 0-9.688 4.336-9.688 9.688s4.336 9.688 9.688 9.688c0.727 0 1.434-0.082 2.113-0.23-0.219-0.289-0.422-0.563-0.621-0.832-0.484 0.082-0.984 0.129-1.496 0.129-4.828-0.004-8.746-3.922-8.746-8.754s3.918-8.75 8.75-8.75 8.75 3.918 8.75 8.75c0 2.773-1.289 5.242-3.301 6.848-1.012 0.734-1.527 0.836-3.262-1.727-3.074-4.41-1.875-2.777-2.879-4.23 2.844 0.348 8.926-2.813 6.586-6.586-3.316-5.352-14.996-0.641-13.25 4.539 0.125 0.383 0.563 1.508 1.781 1.508 0.078 0 0.102-0.023 0.078-0.066-0.172-0.34-0.785-0.383-0.785-1.461 0-1.582 1.582-3.5 3.918-4.687 2.582-1.262 5.152-1.18 6.18 0.211 1.063 1.496-0.816 4.656-4.703 5.348 0.293-0.367 2.227-2.938 2.453-3.281 0.887-1.352 0.922-1.914 0.547-2.313-0.605-0.66-1.152-0.402-1.98-0.457-0.422-0.035-4.441 7.078-5.328 8.473-0.23 0.352-0.828 1.332-0.828 1.988 0 0.832 0.109 2.008 0.805 2.008 0.414 0 0.313-0.73 0.313-1.039 0-0.504 1.070-1.93 2.922-4.086 0.797 1.41 2.254 4.465 5.086 8.191 3.828-1.293 6.582-4.914 6.582-9.18 0.004-5.352-4.332-9.688-9.684-9.688z"></path>
</svg>
