<svg xmlns="http://www.w3.org/2000/svg" width="18" height="20" viewBox="0 0 18 20">
<path d="M8.617 5.090l-2.625 1.102v-4.504l-2.137 7.434 2.137-0.945v5.090l2.625-8.176zM5.367 1.313l-0.051 0.184-0.594 2.066c-1.574 0.605-2.691 2.133-2.691 3.918 0 2.043 1.34 3.746 3.258 4.121v2.094c-3.043-0.41-5.289-3.055-5.289-6.211 0-3.145 2.336-5.75 5.367-6.172zM17.531 18.781c-0.438 0.438-0.902 0.48-1.117 0.41-0.211-0.070-1.059-0.777-2.359-1.734-1.301-0.961-1.313-1.395-1.68-2.215-0.367-0.816-1.187-1.664-2.246-2.047l-0.379-0.574c-0.965 0.66-2.070 1.051-3.176 1.121l0.082-0.258 0.621-1.934c1.816-0.465 3.16-2.109 3.16-4.070 0-2.129-1.5-3.988-3.75-4.184v-2.035c3.25 0.199 5.813 2.91 5.813 6.223 0 1.313-0.437 2.527-1.133 3.531l0.57 0.375c0.383 1.059 1.23 1.875 2.047 2.242s1.258 0.379 2.219 1.68c0.961 1.297 1.668 2.145 1.738 2.355s0.027 0.676-0.41 1.113zM17.145 18.082c0-0.172-0.141-0.313-0.313-0.313s-0.313 0.141-0.313 0.313 0.141 0.313 0.313 0.313 0.313-0.141 0.313-0.313z"></path>
</svg>
