<svg xmlns="http://www.w3.org/2000/svg" width="17" height="20" viewBox="0 0 17 20">
<path d="M7.875 4.977c0.16-0.125 0.402-0.117 0.539 0.020l6.535 6.43 1.73 1.613c0.145 0.137 0.129 0.352-0.027 0.477l-7.734 6.402c-0.387 0.297-0.676 0.031-0.676 0.031l-8.152-7.66c-0.137-0.137-0.117-0.352 0.047-0.477l1.789-1.363c0.164-0.125 0.406-0.117 0.543 0.020l5.934 5.762c0.145 0.137 0.391 0.145 0.555 0.016l3.641-2.891c0.16-0.125 0.176-0.34 0.035-0.477l-3.281-3.176c-0.141-0.137-0.387-0.145-0.547-0.020l-0.004 0.004c-0.16 0.125-0.406 0.117-0.547-0.020l-2.66-2.512c-0.137-0.137-0.121-0.352 0.043-0.477l2.238-1.703zM8.453 15.027c0.145 0.137 0.395 0.145 0.559 0.016l1.961-1.516-0.012-0.012 0.301-0.234c0.164-0.125 0.18-0.34 0.035-0.477l-2.23-2.125c-0.141-0.137-0.391-0.145-0.555-0.020l-0.004 0.004c-0.164 0.125-0.41 0.121-0.555-0.016l-3.695-3.586c-0.141-0.137-0.121-0.348 0.043-0.477l3.602-2.793c0.16-0.125 0.402-0.117 0.543 0.020l6.266 6.211c0.145 0.137 0.391 0.145 0.551 0.020l1.789-1.398c0.16-0.125 0.172-0.34 0.027-0.477l-8.223-8.070c-0.059-0.047-0.313-0.215-0.637 0.043l-8.078 6.332c-0.164 0.125-0.188 0.34-0.047 0.477l1.652 1.629z"></path>
</svg>
