<svg xmlns="http://www.w3.org/2000/svg" width="25" height="20" viewBox="0 0 25 20">
<path d="M21.527 11.402c-0.875 0.004-1.633 0.215-2.266 0.527-0.23-0.465-0.469-0.871-0.508-1.176-0.047-0.355-0.098-0.566-0.043-0.988s0.301-1.020 0.297-1.063c-0.004-0.043-0.055-0.258-0.559-0.262s-0.938 0.098-0.988 0.23c-0.051 0.133-0.148 0.434-0.207 0.746-0.090 0.457-1.008 2.090-1.527 2.941-0.172-0.332-0.316-0.625-0.348-0.859-0.047-0.355-0.098-0.566-0.043-0.988s0.301-1.020 0.297-1.062c-0.004-0.043-0.055-0.258-0.559-0.262s-0.938 0.098-0.988 0.23c-0.051 0.133-0.105 0.445-0.207 0.746s-1.324 3.020-1.645 3.727c-0.164 0.359-0.305 0.648-0.406 0.844s-0.008 0.012-0.016 0.035c-0.086 0.168-0.137 0.262-0.137 0.262v0.004c-0.066 0.125-0.141 0.238-0.176 0.238-0.023 0-0.074-0.328 0.012-0.777 0.184-0.945 0.617-2.414 0.613-2.465-0.004-0.027 0.082-0.281-0.285-0.418-0.355-0.129-0.484 0.086-0.516 0.086s-0.055 0.078-0.055 0.078 0.395-1.656-0.758-1.656c-0.719 0-1.719 0.789-2.211 1.504-0.309 0.168-0.977 0.531-1.68 0.918-0.27 0.148-0.547 0.301-0.809 0.445-0.020-0.020-0.035-0.039-0.055-0.059-1.398-1.492-3.98-2.547-3.871-4.551 0.039-0.73 0.293-2.648 4.965-4.977 3.828-1.906 6.891-1.383 7.418-0.219 0.758 1.66-1.637 4.75-5.613 5.195-1.516 0.168-2.313-0.418-2.512-0.637-0.207-0.23-0.238-0.242-0.316-0.199-0.129 0.070-0.047 0.273 0 0.395 0.117 0.309 0.605 0.855 1.437 1.129 0.73 0.238 2.508 0.371 4.656-0.461 2.414-0.93 4.293-3.52 3.742-5.688-0.562-2.203-4.215-2.926-7.672-1.699-2.059 0.73-4.285 1.879-5.887 3.375-1.902 1.781-2.207 3.332-2.082 3.98 0.445 2.301 3.617 3.801 4.887 4.91-0.063 0.035-0.121 0.066-0.176 0.098-0.637 0.316-3.055 1.582-3.66 2.918-0.684 1.516 0.113 2.602 0.637 2.75 1.633 0.453 3.305-0.363 4.203-1.703s0.789-3.090 0.375-3.887c-0.004-0.012-0.012-0.020-0.016-0.031 0.164-0.098 0.332-0.195 0.5-0.293 0.324-0.191 0.641-0.367 0.918-0.52-0.156 0.422-0.27 0.93-0.328 1.664-0.070 0.859 0.285 1.973 0.746 2.41 0.203 0.191 0.449 0.195 0.602 0.195 0.539 0 0.781-0.445 1.051-0.977 0.332-0.648 0.625-1.402 0.625-1.402s-0.367 2.039 0.637 2.039c0.367 0 0.734-0.473 0.898-0.715v0.004s0.008-0.016 0.027-0.047c0.039-0.059 0.059-0.094 0.059-0.094v-0.012c0.148-0.254 0.473-0.836 0.961-1.797 0.633-1.242 1.238-2.793 1.238-2.793s0.055 0.379 0.242 1.008c0.109 0.371 0.34 0.777 0.523 1.172-0.148 0.203-0.238 0.32-0.238 0.32s0 0.004 0.004 0.008c-0.117 0.156-0.25 0.324-0.387 0.488-0.5 0.594-1.094 1.273-1.172 1.469-0.094 0.23-0.070 0.402 0.109 0.535 0.133 0.102 0.367 0.117 0.613 0.098 0.449-0.031 0.766-0.141 0.918-0.211 0.242-0.086 0.523-0.223 0.789-0.414 0.488-0.359 0.785-0.875 0.758-1.555-0.016-0.375-0.137-0.75-0.285-1.102 0.043-0.063 0.090-0.129 0.133-0.195 0.773-1.129 1.371-2.367 1.371-2.367s0.055 0.379 0.242 1.008c0.094 0.316 0.277 0.664 0.445 1.004-0.727 0.59-1.176 1.273-1.332 1.723-0.289 0.832-0.063 1.207 0.363 1.293 0.191 0.039 0.465-0.051 0.668-0.137 0.254-0.086 0.559-0.223 0.844-0.434 0.488-0.359 0.961-0.863 0.93-1.547-0.012-0.309-0.098-0.617-0.211-0.914 0.613-0.258 1.41-0.398 2.426-0.281 2.176 0.254 2.602 1.613 2.52 2.18-0.082 0.57-0.539 0.883-0.691 0.977s-0.199 0.129-0.188 0.199c0.020 0.102 0.090 0.098 0.219 0.074 0.18-0.031 1.141-0.461 1.184-1.512 0.063-1.328-1.215-2.789-3.477-2.777zM4.758 17.055c-0.719 0.785-1.727 1.082-2.16 0.832-0.465-0.27-0.281-1.426 0.605-2.262 0.539-0.508 1.234-0.977 1.695-1.266 0.105-0.063 0.258-0.156 0.445-0.27 0.031-0.020 0.047-0.027 0.047-0.027 0.035-0.023 0.074-0.043 0.113-0.066 0.324 1.187 0.012 2.234-0.746 3.059zM10.008 13.484c-0.25 0.613-0.777 2.176-1.098 2.094-0.273-0.070-0.441-1.262-0.055-2.434 0.195-0.59 0.609-1.293 0.855-1.566 0.395-0.441 0.828-0.582 0.93-0.406 0.137 0.23-0.477 1.93-0.633 2.313zM14.344 15.555c-0.105 0.055-0.203 0.090-0.25 0.063-0.035-0.020 0.043-0.094 0.043-0.094s0.543-0.582 0.758-0.848c0.125-0.156 0.27-0.34 0.426-0.543 0 0.020 0.004 0.039 0.004 0.063-0.004 0.699-0.676 1.172-0.98 1.359zM17.688 14.793c-0.078-0.055-0.066-0.238 0.195-0.809 0.102-0.223 0.336-0.598 0.742-0.957 0.047 0.148 0.074 0.289 0.074 0.422-0.004 0.879-0.633 1.207-1.012 1.344z"></path>
</svg>
