<svg xmlns="http://www.w3.org/2000/svg" width="19" height="20" viewBox="0 0 19 20">
<path d="M19.375 10c0 5.352-4.344 9.688-9.703 9.688-4.445 0-8.188-2.98-9.336-7.047l3.719 1.535c0.25 1.254 1.363 2.203 2.691 2.203 1.531 0 2.809-1.266 2.742-2.871l3.301-2.352c2.035 0.051 3.742-1.598 3.742-3.652 0-2.016-1.641-3.652-3.66-3.652s-3.66 1.641-3.66 3.652v0.047l-2.312 3.348c-0.605-0.035-1.199 0.133-1.699 0.473l-5.199-2.148c0.398-4.988 4.574-8.91 9.672-8.91 5.359 0 9.703 4.336 9.703 9.687zM6.082 15.012l-1.191-0.492c0.223 0.455 0.594 0.808 1.049 1.003l0.013 0.005c1.051 0.437 2.258-0.063 2.695-1.109 0.211-0.508 0.215-1.066 0.004-1.574s-0.605-0.906-1.113-1.117c-0.504-0.211-1.043-0.203-1.52-0.023l1.23 0.508c0.773 0.32 1.141 1.207 0.816 1.98-0.324 0.777-1.211 1.141-1.984 0.82zM12.871 9.938c-1.344 0-2.438-1.094-2.438-2.434s1.094-2.434 2.438-2.434 2.438 1.094 2.438 2.434-1.090 2.434-2.438 2.434zM12.875 9.328c1.012 0 1.832-0.82 1.832-1.828 0-1.012-0.82-1.828-1.832-1.828s-1.832 0.82-1.832 1.828c0.004 1.008 0.824 1.828 1.832 1.828z"></path>
</svg>
