<svg xmlns="http://www.w3.org/2000/svg" width="18" height="20" viewBox="0 0 18 20">
<path d="M13.75 1.25h-10c-2.063 0-3.75 1.688-3.75 3.75v10c0 2.063 1.688 3.75 3.75 3.75h10c2.063 0 3.75-1.688 3.75-3.75v-10c0-2.063-1.688-3.75-3.75-3.75zM8.633 14.957c-1.547 0-3.199-0.695-3.199-2.098v-1.063h1.559v0.695c0 0.59 0.762 0.957 1.637 0.957 0.945 0 1.613-0.406 1.613-1.152 0-0.93-1.063-1.246-2.137-1.664-1.246-0.484-2.465-1.023-2.465-2.699 0-1.875 1.508-2.594 3.121-2.594 1.469 0 2.949 0.551 2.949 1.637v1.219h-1.559v-0.629c0-0.473-0.695-0.723-1.391-0.723-0.762 0-1.391 0.316-1.391 1.023 0 0.863 0.879 1.141 1.836 1.52 1.402 0.484 2.777 1.063 2.777 2.793 0.004 1.898-1.594 2.777-3.352 2.777z"></path>
</svg>
