<svg xmlns="http://www.w3.org/2000/svg" width="18" height="20" viewBox="0 0 18 20">
<path d="M13.805 1.25h-10.105c-2.035 0-3.699 1.664-3.699 3.695v10.105c0 2.035 1.664 3.699 3.699 3.699h10.105c2.035 0 3.699-1.664 3.699-3.695v-10.109c0-2.031-1.664-3.695-3.699-3.695zM11.852 13.609c-1.090 1.883-3.512 2.535-5.398 1.453-0.895 1.555-2.145 0.336-1.652-0.516l0.613-1.063c0.23-0.402 0.75-0.543 1.152-0.309 0.727 0.422-0.004-0.004 0.723 0.418 1.078 0.621 2.477 0.246 3.102-0.832 0.621-1.078 0.246-2.477-0.832-3.102-0.695-0.398-0.023-0.016-0.727-0.414-0.961-0.555-0.133-2.027 0.844-1.465 0.727 0.422-0.004-0.004 0.723 0.418 1.891 1.094 2.543 3.527 1.453 5.41zM12.703 5.453c-0.664 1.152-0.637 1.125-0.742 1.23-0.254 0.254-0.637 0.34-1.035 0.141-0.727-0.422 0.004 0.004-0.723-0.418-1.078-0.621-2.477-0.246-3.102 0.832s-0.246 2.477 0.832 3.102c0 0 0.723 0.414 0.727 0.414 0.961 0.555 0.133 2.027-0.844 1.465-0.727-0.422 0.004 0.004-0.723-0.418-1.883-1.086-2.535-3.52-1.449-5.406 1.090-1.883 3.512-2.535 5.398-1.453l0.188-0.328c0.559-0.973 2.031-0.129 1.473 0.84z"></path>
</svg>
