<svg xmlns="http://www.w3.org/2000/svg" width="20" height="20" viewBox="0 0 20 20">
<path d="M9.254 10.031c0-0.355 0.258-0.691 0.637-0.691 0.348 0 0.68 0.25 0.68 0.629 0 0.355-0.25 0.691-0.629 0.691-0.352 0-0.688-0.262-0.688-0.629zM19.688 10c0 5.352-4.336 9.688-9.688 9.688s-9.688-4.336-9.688-9.688 4.336-9.688 9.688-9.688 9.688 4.336 9.688 9.688zM18.648 10c0-4.777-3.871-8.648-8.648-8.648s-8.648 3.871-8.648 8.648 3.871 8.648 8.648 8.648 8.648-3.871 8.648-8.648zM15.816 13.773c0 0.141 0.508 0.398 0.637 0.477-1.070 1.621-2.727 2.789-4.605 3.254l-0.172-0.723c-0.012-0.098-0.074-0.109-0.164-0.109-0.074 0-0.117 0.109-0.109 0.164l0.172 0.734c-0.52 0.109-1.047 0.164-1.578 0.164-1.418 0-2.813-0.398-4.023-1.137 0.066-0.109 0.477-0.703 0.477-0.789 0-0.074-0.066-0.141-0.141-0.141-0.152 0-0.477 0.648-0.574 0.777-1.633-1.082-2.813-2.758-3.266-4.672l0.746-0.164c0.086-0.023 0.109-0.086 0.109-0.164 0-0.074-0.109-0.117-0.172-0.109l-0.73 0.168c-0.098-0.496-0.152-0.996-0.152-1.504 0-1.449 0.41-2.875 1.18-4.098 0.109 0.066 0.629 0.422 0.715 0.422 0.074 0 0.141-0.055 0.141-0.129 0-0.152-0.574-0.441-0.703-0.531 1.102-1.609 2.777-2.77 4.68-3.199l0.164 0.723c0.023 0.086 0.086 0.109 0.164 0.109s0.117-0.109 0.109-0.172l-0.164-0.715c0.477-0.086 0.961-0.141 1.449-0.141 1.449 0 2.863 0.41 4.098 1.18-0.074 0.109-0.422 0.617-0.422 0.703 0 0.074 0.055 0.141 0.129 0.141 0.152 0 0.441-0.563 0.52-0.691 1.602 1.082 2.746 2.734 3.191 4.617l-0.605 0.129c-0.098 0.023-0.109 0.086-0.109 0.172 0 0.074 0.109 0.117 0.164 0.109l0.617-0.141c0.098 0.496 0.152 1.004 0.152 1.512 0 1.418-0.391 2.813-1.125 4.012-0.109-0.055-0.563-0.379-0.648-0.379-0.082 0-0.148 0.066-0.148 0.141zM14.52 4.313c-0.508 0.477-5.242 4.832-5.375 5.059l-3.773 6.27c0.496-0.465 5.242-4.844 5.363-5.051l3.785-6.277z"></path>
</svg>
