<svg xmlns="http://www.w3.org/2000/svg" width="25" height="20" viewBox="0 0 25 20">
<path d="M21.082 9.27c0.12-0.479 0.168-0.97 0.168-1.46 0-3.615-2.945-6.56-6.56-6.56-3.016 0-5.65 2.071-6.368 4.991-0.599-0.515-1.365-0.802-2.155-0.802-1.807 0-3.28 1.472-3.28 3.28 0 0.287 0.036 0.587 0.12 0.874-1.676 0.79-2.765 2.49-2.765 4.345-0 2.657 2.167 4.812 4.812 4.812h14.891c2.645 0 4.812-2.155 4.812-4.812 0-2.203-1.52-4.142-3.675-4.668zM7.808 15.686c0 0.323-0.275 0.598-0.598 0.598h-1.209c-0.323 0-0.598-0.275-0.598-0.598v-4.333c0-0.323 0.275-0.598 0.598-0.598h1.209c0.323 0 0.598 0.275 0.598 0.598v4.333zM11.303 15.686c0 0.323-0.275 0.598-0.599 0.598h-1.209c-0.323 0-0.598-0.275-0.598-0.598v-5.135c0-0.323 0.275-0.598 0.598-0.598h1.209c0.323 0 0.599 0.275 0.599 0.598v5.135zM14.798 15.686c0 0.323-0.275 0.598-0.598 0.598h-1.209c-0.323 0-0.599-0.275-0.599-0.598v-6.356c0-0.323 0.275-0.598 0.599-0.598h1.209c0.323 0 0.598 0.275 0.598 0.598v6.356zM18.198 15.686c0 0.323-0.275 0.598-0.599 0.598h-1.113c-0.323 0-0.598-0.275-0.598-0.598v-8.774c0-0.335 0.275-0.61 0.598-0.61h1.113c0.323 0 0.599 0.275 0.599 0.61v8.774z"></path>
</svg>
