<svg xmlns="http://www.w3.org/2000/svg" width="18" height="20" viewBox="0 0 18 20">
<path d="M15.449 6.934c0 1.32-1.074 2.383-2.383 2.383-1.32 0-2.383-1.066-2.383-2.383s1.066-2.383 2.383-2.383c1.309 0 2.383 1.063 2.383 2.383zM17.5 6.941c0 2.461-1.992 4.445-4.441 4.445l-4.27 3.117c-0.156 1.68-1.582 3-3.301 3-1.582 0-2.918-1.125-3.242-2.617l-2.246-0.902v-4.191l3.797 1.535c0.59-0.359 1.258-0.52 2.031-0.449l2.773-3.973c0.020-2.434 2.012-4.406 4.453-4.406 2.453 0 4.445 1.992 4.445 4.441zM7.93 14.18c0-1.355-1.086-2.441-2.441-2.441-0.176 0-0.352 0.020-0.527 0.059l1.016 0.41c0.996 0.398 1.484 1.523 1.082 2.52-0.398 0.996-1.531 1.484-2.527 1.074-0.398-0.156-0.801-0.324-1.199-0.477 0.41 0.77 1.219 1.297 2.156 1.297 1.355 0 2.441-1.086 2.441-2.441zM16.035 6.941c0-1.641-1.34-2.977-2.977-2.977-1.652 0-2.988 1.336-2.988 2.977 0 1.648 1.34 2.977 2.988 2.977 1.637 0.004 2.977-1.324 2.977-2.977z"></path>
</svg>
