<svg xmlns="http://www.w3.org/2000/svg" width="20" height="20" viewBox="0 0 20 20">
<path d="M18.762 7.332l0.164 1.094v1.094l-0.98 1.723-1.555 3.063-2.191 2.637-3.090 1.477-0.691 0.957-0.301 0.469-0.375 0.156s0.676-2.484 0.758-2.484c0.082 0 0.793 0.027 0.793 0.027l2.605-1.508-3.613 1.020-2.184 1.438-0.891 1.094-0.258 0.055 0.813-2.875 0.27-0.215 0.809 0.504 3.449-1.766 2.219-2.012 0.578-2.672-4.898 0.91 0.594-0.711-6.773-2.082 3.199-0.41-6.484-4.801 4.488 0.707-3.957-4.219 9.879 4.945-1.23-1.484 4.859 2.906-5.598-3.867 0.73 1.5-1.938-0.707-1.777-3.293 7.602 4.766-1.676-2.18 4.219 3.766 0.469-0.348-0.82-0.641 0.164-1.477 1.477-0.406 1.141 0.965 0.449 0.164-0.273 0.242 0.332 0.469-0.512 0.289-0.402 0.789 0.41 0.934z"></path>
</svg>
