<svg xmlns="http://www.w3.org/2000/svg" width="25" height="20" viewBox="0 0 25 20">
<path d="M25 10.254c0 2.504-4.258 4.535-9.512 4.535-0.969 0-1.898-0.070-2.777-0.195 0.301 0.016 0.605 0.023 0.914 0.023 5.254 0 9.512-2.223 9.512-4.965 0-1.148-0.746-2.203-2-3.047 2.344 0.824 3.863 2.152 3.863 3.648zM1.863 8.902c-0.004-2.742 4.25-4.973 9.504-4.984 0.309 0 0.609 0.008 0.91 0.020-0.879-0.125-1.809-0.191-2.773-0.191-5.254 0.016-9.508 2.055-9.504 4.559 0.004 1.496 1.527 2.824 3.879 3.645-1.262-0.84-2.012-1.898-2.016-3.047zM4.215 10.461s0.41 0.516 1.145 0.516c0.699 0 1.109-0.449 1.109-0.98 0-1.094-1.57-0.98-1.57-1.551 0-0.211 0.207-0.355 0.488-0.355 0.223 0 0.441 0.102 0.441 0.258v0.152h0.555v-0.309c0-0.473-0.602-0.656-0.992-0.656-0.645 0-1.113 0.398-1.113 0.941 0 1.039 1.57 0.992 1.57 1.559 0 0.258-0.227 0.395-0.48 0.395-0.465 0-0.809-0.395-0.809-0.395l-0.344 0.426zM8.934 7.586v2.125c0 0.441-0.277 0.695-0.695 0.695s-0.695-0.254-0.695-0.691v-2.129h-0.617v2.148c0 0.738 0.523 1.246 1.316 1.246 0.785 0 1.305-0.508 1.305-1.246v-2.148h-0.613zM10.277 10.922h0.617v-1.152h0.605c0.625 0 1.062-0.449 1.062-1.098s-0.437-1.086-1.062-1.086h-1.527v0.523h0.305v2.813zM10.895 9.242v-1.137h0.504c0.34 0 0.535 0.223 0.535 0.563 0 0.348-0.199 0.574-0.547 0.574h-0.492zM13.121 10.922h0.617v-1.152h0.605c0.625 0 1.063-0.449 1.063-1.098s-0.438-1.086-1.063-1.086h-1.527v0.523h0.305v2.813zM13.734 9.242v-1.137h0.504c0.34 0 0.535 0.223 0.535 0.563 0 0.348-0.195 0.574-0.547 0.574h-0.492zM15.965 10.602c0 0.227 0.094 0.32 0.32 0.32h1.469c0.227 0 0.32-0.094 0.32-0.32v-0.508h-0.559v0.203c0 0.066-0.039 0.102-0.102 0.102h-0.727c-0.066 0-0.102-0.039-0.102-0.102v-2.391c0-0.223-0.094-0.32-0.32-0.32h-0.602v0.523h0.203c0.066 0 0.102 0.039 0.102 0.102v2.391zM18.441 10.602c0 0.227 0.094 0.32 0.32 0.32h1.512c0.223 0 0.32-0.094 0.32-0.32v-0.508h-0.559v0.203c0 0.066-0.039 0.102-0.102 0.102h-0.77c-0.066 0-0.102-0.039-0.102-0.102v-0.793h1.082v-0.523h-1.082v-0.875h0.75c0.066 0 0.102 0.039 0.102 0.102v0.203h0.555v-0.508c0-0.223-0.098-0.32-0.32-0.32h-2.016v0.523h0.305v2.496zM20.742 7.633v0.23h0.063v-0.23h0.105v-0.047h-0.273v0.047h0.105zM20.965 7.586v0.277h0.059v-0.223l0.090 0.223h0.051l0.090-0.223v0.223h0.059v-0.277h-0.090l-0.082 0.199-0.082-0.199h-0.094z"></path>
</svg>
