<svg xmlns="http://www.w3.org/2000/svg" width="18" height="20" viewBox="0 0 18 20">
<path d="M13.691 6.16l-2.117-1.801 2.867-1.523 3.059 1.727-3.809 1.598zM7.5 4.77l1.785-1.102 1.355 1.352-2.164 1.133-0.977-1.383zM4.957 5.027l1.246-0.863 0.672 1.109-1.434 0.879-0.484-1.125zM4.047 8.473l-0.344-1.359 1.156-0.715 0.512 1.379-1.324 0.695zM3.219 5.203l0.934-0.707 0.348 0.938-1.043 0.715-0.238-0.945zM2.305 8.066l-0.141-1.109 0.871-0.605 0.238 1.121-0.969 0.594zM1.109 8.715l0.813-0.5 0.129 1.305-0.895 0.469-0.047-1.273zM0.055 10.469l0.75-0.398 0.016 1.492-0.82 0.344 0.055-1.438zM2.363 12.785l-1.105 0.324-0.063-1.828 0.98-0.418 0.188 1.922zM3.867 10.281l-1.215 0.508-0.203-1.594 1.070-0.563 0.348 1.648zM4.813 14.727l-1.625 0.23-0.316-2.48 1.375-0.422 0.566 2.672zM5.926 9.262l0.828 2.23-1.805 0.531-0.535-2.113 1.512-0.648zM9.273 18.266l-2.77-0.129-0.949-3.742 2.156-0.336 1.563 4.207zM5.957 7.34l1.648-0.875 1.094 1.793-1.984 0.832-0.758-1.75zM7.559 11.047l2.395-0.73 2.063 3.383-3.117 0.441-1.34-3.094zM9.566 7.703l2.629-1.125 2.559 2.555-3.461 1.023-1.727-2.453z"></path>
</svg>
