<svg xmlns="http://www.w3.org/2000/svg" width="18" height="20" viewBox="0 0 18 20">
<path d="M16.59 11.711c0.113-0.547 0.184-1.129 0.184-1.711 0-4.434-3.59-8.020-8.020-8.020-0.582 0-1.16 0.066-1.711 0.184-0.742-0.574-1.664-0.914-2.668-0.914-2.414 0-4.375 1.961-4.375 4.375 0 1.004 0.34 1.926 0.91 2.664-0.113 0.547-0.184 1.129-0.184 1.711 0 4.434 3.59 8.020 8.020 8.020 0.582 0 1.16-0.066 1.711-0.184 0.742 0.57 1.664 0.91 2.664 0.91 2.414 0 4.375-1.961 4.375-4.375 0.004-1-0.336-1.922-0.906-2.66zM8.988 15.285c-2.563 0-4.707-1.141-4.707-2.539 0-0.625 0.352-1.195 1.152-1.195 1.219 0 1.332 1.754 3.441 1.754 1.004 0 1.652-0.445 1.652-1.027 0-0.73-0.625-0.844-1.641-1.094-2.441-0.602-4.602-0.859-4.602-3.406 0-2.312 2.289-3.168 4.262-3.168 2.152 0 4.328 0.855 4.328 2.164 0 0.66-0.445 1.242-1.184 1.242-1.105 0-1.141-1.309-2.93-1.309-1.004 0-1.641 0.273-1.641 0.879 0 0.773 0.813 0.852 2.699 1.289 1.617 0.363 3.543 1.047 3.543 3.031 0 2.309-2.23 3.379-4.375 3.379z"></path>
</svg>
