<svg xmlns="http://www.w3.org/2000/svg" width="15" height="20" viewBox="0 0 15 20">
<path d="M1.652 9.871c-0.629-0.742-0.965-1.793-0.969-3.121 0-3.922 2.938-5.98 6.531-5.98 3.852-0.063 6.125 1.914 7.199 2.758l-1.973 2.816-1.457-0.961 1.051-1.508c-1.426-0.938-3.102-1.426-4.805-1.398-1.98-0.031-4.363 1.063-4.363 2.977 0 0.73 0.438 0.809 1.117 0.609 0.91-0.207 1.637 0.023 2.18 0.547 1.031 0.949 0.906 2.641-0.027 3.59-1.141 1.152-3.328 1.066-4.484-0.328zM14.063 10.102c-0.605-0.734-1.52-1.148-2.469-1.117-1.488-0.078-2.777 1.094-2.754 2.625-0.027 0.656 0.234 1.289 0.719 1.73 0.551 0.543 1.289 0.77 2.199 0.563 0.68-0.199 1.117-0.121 1.117 0.609 0 0.168-0.020 0.332-0.055 0.496-0.652 1.598-2.324 2.516-4.742 2.516-2.027 0.008-4-0.641-5.629-1.848l1.316-1.539-1.391-1.070-2.375 2.805 0.602 0.539c2.051 1.828 4.703 2.832 7.449 2.82 2.008 0 3.688-0.41 5.219-1.723 2.23-2.008 2.117-5.828 0.793-7.406z"></path>
</svg>
