<svg xmlns="http://www.w3.org/2000/svg" width="18" height="20" viewBox="0 0 18 20">
<path d="M9.539 8.496l0.754 2.254-2.336 0.781-0.754-2.254 2.336-0.781zM11.156 18.016c-6.016 1.805-8.617 0.406-10.422-5.609s-0.406-8.617 5.609-10.422c6.016-1.805 8.617-0.406 10.422 5.609s0.406 8.617-5.609 10.422zM14.305 10.352c-0.152-0.477-0.672-0.727-1.148-0.574l-1.133 0.379-0.754-2.254 1.133-0.379c0.477-0.152 0.727-0.672 0.574-1.148s-0.672-0.727-1.148-0.574l-1.133 0.379-0.391-1.176c-0.152-0.477-0.672-0.727-1.148-0.574s-0.727 0.672-0.574 1.148l0.391 1.176-2.336 0.785-0.391-1.176c-0.152-0.477-0.672-0.727-1.148-0.574s-0.727 0.672-0.574 1.148l0.391 1.176-1.133 0.379c-0.477 0.152-0.727 0.672-0.574 1.148 0.125 0.363 0.477 0.602 0.84 0.617 0.168 0.023 0.301-0.039 1.441-0.418l0.754 2.254-1.133 0.379c-0.477 0.152-0.727 0.672-0.574 1.148 0.125 0.363 0.477 0.602 0.84 0.617 0.168 0.023 0.301-0.039 1.441-0.418l0.391 1.176c0.145 0.422 0.617 0.727 1.148 0.574 0.477-0.152 0.727-0.672 0.574-1.148l-0.391-1.176 2.336-0.785 0.391 1.176c0.145 0.422 0.617 0.727 1.148 0.574 0.477-0.152 0.727-0.672 0.574-1.148l-0.391-1.176 1.133-0.379c0.477-0.164 0.727-0.684 0.574-1.156z"></path>
</svg>
