<svg xmlns="http://www.w3.org/2000/svg" width="20" height="20" viewBox="0 0 20 20">
<path d="M9.743 8.259c0 1.239-1.083 2.255-2.411 2.255s-2.411-1.016-2.411-2.255c0-1.25 1.083-2.255 2.411-2.255s2.411 1.004 2.411 2.255zM19.677 10.212c-0.714 0.882-2.076 1.964-4.152 2.813 2.199 7.489-5.369 8.683-5.246 4.844 0 0.067-0.011-2.065-0.011-3.65-0.167-0.034-0.335-0.078-0.536-0.123 0 1.596-0.011 3.839-0.011 3.772 0.123 3.839-7.444 2.645-5.246-4.844-2.076-0.848-3.438-1.931-4.152-2.813-0.357-0.536 0.034-1.105 0.625-0.692 0.078 0.056 0.167 0.112 0.246 0.167v-7.746c0-1.071 0.804-1.942 1.797-1.942h14.030c0.993 0 1.797 0.871 1.797 1.942v7.746l0.234-0.167c0.592-0.413 0.982 0.156 0.625 0.692zM17.857 2.824c0-1.284-0.413-1.786-1.596-1.786h-12.411c-1.239 0-1.585 0.424-1.585 1.786v7.511c2.645 1.384 4.911 1.138 6.15 1.094 0.525-0.011 0.859 0.089 1.060 0.301 0.066 0.066 0.392 0.369 0.792 0.67 0.045-0.614 0.391-1.004 1.317-0.971 1.261 0.056 3.583 0.301 6.273-1.161v-7.444zM12.935 6.005c-1.328 0-2.411 1.004-2.411 2.255 0 1.239 1.083 2.255 2.411 2.255 1.339 0 2.411-1.016 2.411-2.255 0-1.25-1.071-2.255-2.411-2.255z"></path>
</svg>
