<svg xmlns="http://www.w3.org/2000/svg" width="25" height="20" viewBox="0 0 25 20">
<path d="M25 10.219c0-1.777-0.859-3.18-2.508-3.18s-2.652 1.402-2.652 3.168c0 2.090 1.184 3.055 2.871 3.055 0.828 0 1.449-0.188 1.922-0.449v-1.305c-0.473 0.238-1.016 0.383-1.703 0.383-0.676 0-1.27-0.238-1.348-1.051h3.395c0.008-0.090 0.023-0.453 0.023-0.621zM21.566 9.563c0-0.781 0.48-1.109 0.914-1.109 0.426 0 0.879 0.328 0.879 1.109h-1.793zM17.156 7.039c-0.68 0-1.117 0.32-1.359 0.543l-0.090-0.43h-1.527v8l1.734-0.367 0.004-1.961c0.25 0.184 0.621 0.438 1.227 0.438 1.242 0 2.375-0.906 2.375-3.109 0.004-2.016-1.145-3.113-2.363-3.113zM16.742 11.824c-0.406 0-0.648-0.148-0.816-0.328l-0.012-2.578c0.18-0.199 0.43-0.344 0.828-0.344 0.633 0 1.070 0.711 1.070 1.617 0.004 0.934-0.426 1.633-1.070 1.633zM13.531 4.844v1.414l-1.742 0.371v-1.414l1.742-0.371zM11.793 7.156h1.742v5.984h-1.742v-5.984zM9.926 7.668c0.406-0.746 1.215-0.594 1.449-0.512v1.594c-0.223-0.070-0.914-0.176-1.324 0.363v4.027h-1.73v-5.984h1.5l0.105 0.512zM6.449 7.156h1.316v1.477h-1.316v2.469c0 1.023 1.094 0.703 1.316 0.613v1.32c-0.23 0.125-0.648 0.23-1.219 0.23-1.027 0-1.801-0.664-1.801-1.691l0.008-5.563 1.691-0.359 0.004 1.504zM1.754 8.918c0 0.781 2.652 0.41 2.652 2.477 0 1.25-0.992 1.867-2.434 1.867-0.598 0-1.25-0.117-1.895-0.395v-1.563c0.582 0.316 1.324 0.555 1.898 0.555 0.387 0 0.664-0.105 0.664-0.426 0-0.828-2.637-0.516-2.637-2.438 0-1.227 0.938-1.961 2.344-1.961 0.574 0 1.148 0.090 1.723 0.316v1.633c-0.527-0.285-1.199-0.445-1.727-0.445-0.363 0.004-0.59 0.109-0.59 0.379z"></path>
</svg>
