<svg xmlns="http://www.w3.org/2000/svg" width="25" height="20" viewBox="0 0 25 20">
<path d="M25 12.863c0 2.574-2.051 4.469-4.59 4.469-6.48 0-7.68-9.754-14.051-9.754-5.738 0-5.746 8.289 0.219 8.289 1.66 0 3.551-0.695 4.895-1.66 0.219-0.16 0.66-0.637 0.891-0.637s0.426 0.195 0.426 0.426c0 0.305-0.512 0.746-0.73 0.941-1.598 1.391-3.918 2.391-6.043 2.391-3.258 0.004-6.016-2.305-6.016-5.66s2.637-5.824 5.969-5.824c7.238 0 8.691 9.605 14.137 9.605 3.902 0 3.703-5.457 0.133-5.457-0.684 0-1.367 0.453-1.832 0.453-0.328 0-0.621-0.281-0.621-0.609 0-0.453 0.207-0.926 0.207-1.418 0-2.602-1.988-4.48-4.566-4.48-2.074 0-3.125 1.441-3.469 1.441-0.242 0-0.438-0.195-0.438-0.438 0-0.219 0.16-0.402 0.305-0.563 0.988-1.125 2.527-1.707 4.016-1.707 3.102 0 5.434 2.281 5.434 5.383 0 0.27-0.012 0.535-0.047 0.805 0.465-0.121 0.941-0.184 1.402-0.184 2.371 0 4.371 1.77 4.371 4.188z"></path>
</svg>
