<svg xmlns="http://www.w3.org/2000/svg" width="18" height="20" viewBox="0 0 18 20">
<path d="M15.625 1.25h-13.75c-1.035 0-1.875 0.84-1.875 1.875v13.75c0 1.035 0.84 1.875 1.875 1.875h13.75c1.035 0 1.875-0.84 1.875-1.875v-13.75c0-1.035-0.84-1.875-1.875-1.875zM15.371 13.551c-0.137 0.316-0.707 0.547-1.75 0.711-0.055 0.074-0.098 0.383-0.168 0.621-0.043 0.145-0.145 0.23-0.316 0.23h-0.008c-0.242 0-0.5-0.113-1.008-0.113-0.688 0-0.926 0.156-1.461 0.535-0.566 0.402-1.109 0.746-1.922 0.711-0.82 0.063-1.508-0.438-1.895-0.711-0.539-0.379-0.773-0.535-1.461-0.535-0.488 0-0.797 0.121-1.008 0.121s-0.293-0.129-0.324-0.234c-0.070-0.238-0.113-0.551-0.168-0.625-0.539-0.082-1.75-0.293-1.777-0.836-0.008-0.141 0.090-0.266 0.23-0.289 1.809-0.297 2.621-2.152 2.656-2.23 0-0.004 0.004-0.008 0.008-0.012 0.098-0.195 0.117-0.359 0.063-0.488-0.133-0.309-0.699-0.418-0.938-0.516-0.617-0.242-0.703-0.523-0.664-0.715 0.062-0.332 0.563-0.539 0.855-0.402 0.23 0.109 0.438 0.164 0.613 0.164 0.129 0 0.215-0.031 0.258-0.055-0.055-0.934-0.184-2.266 0.148-3.012 0.879-1.965 2.738-2.121 3.285-2.121 0.023 0 0.238-0.004 0.262-0.004 1.355 0 2.656 0.695 3.293 2.121 0.332 0.746 0.203 2.074 0.148 3.012 0.043 0.023 0.113 0.051 0.223 0.055 0.168-0.008 0.359-0.063 0.574-0.164 0.156-0.074 0.375-0.062 0.531 0 0.246 0.090 0.402 0.266 0.406 0.465 0.004 0.254-0.223 0.473-0.672 0.648-0.055 0.023-0.121 0.043-0.191 0.066-0.254 0.082-0.641 0.203-0.742 0.449-0.055 0.129-0.031 0.293 0.063 0.488 0.004 0.004 0.004 0.008 0.008 0.012 0.035 0.078 0.848 1.934 2.656 2.23 0.156 0.039 0.277 0.215 0.191 0.422z"></path>
</svg>
