<svg xmlns="http://www.w3.org/2000/svg" width="20" height="20" viewBox="0 0 20 20">
<path d="M18.797 2.5h-4.141c-0.566 0-1.039 0.461-1.039 1.027v1.547h-7.238v-1.547c0-0.566-0.469-1.027-1.039-1.027h-4.141c-0.57 0-1.031 0.461-1.031 1.027v12.945c0 0.566 0.461 1.027 1.039 1.027h17.594c0.578 0 1.039-0.461 1.039-1.027v-12.945c-0.008-0.566-0.469-1.027-1.043-1.027zM5.852 13.898c-1.43 0-2.594-1.16-2.594-2.594 0-1.441 1.16-2.602 2.594-2.602 1.441 0 2.602 1.16 2.602 2.602 0 1.434-1.16 2.594-2.602 2.594zM14.148 13.898c-1.441 0-2.602-1.16-2.602-2.602 0-1.43 1.16-2.594 2.602-2.594 1.43 0 2.594 1.16 2.594 2.594 0 1.441-1.164 2.602-2.594 2.602z"></path>
</svg>
