<svg xmlns="http://www.w3.org/2000/svg" width="18" height="20" viewBox="0 0 18 20">
<path d="M7.234 13.926c0.301-0.723-0.039-1.551-0.766-1.852l-1.152-0.477c0.445-0.168 0.949-0.176 1.422 0.020 0.477 0.199 0.844 0.57 1.043 1.043 0.195 0.477 0.195 1-0.004 1.473-0.41 0.98-1.539 1.445-2.523 1.035-0.453-0.188-0.797-0.531-0.992-0.945l1.113 0.461c0.727 0.305 1.559-0.035 1.859-0.758zM15.625 1.25h-13.75c-1.035 0-1.875 0.84-1.875 1.875v6.277l4.555 1.879c0.469-0.32 1.023-0.473 1.59-0.441l2.164-3.133v-0.043c0-1.883 1.535-3.418 3.422-3.418s3.422 1.535 3.422 3.418c0 1.922-1.598 3.465-3.5 3.418l-3.086 2.199c0.063 1.504-1.137 2.688-2.566 2.688-1.242 0-2.285-0.887-2.52-2.059l-3.48-1.441v4.406c0 1.035 0.84 1.875 1.875 1.875h13.75c1.035 0 1.875-0.84 1.875-1.875v-13.75c0-1.035-0.84-1.875-1.875-1.875zM11.73 9.941c-1.258 0-2.281-1.020-2.281-2.277s1.023-2.277 2.281-2.277 2.281 1.023 2.281 2.277-1.023 2.277-2.281 2.277zM11.734 9.371c0.945 0 1.715-0.766 1.715-1.711s-0.766-1.711-1.715-1.711c-0.945 0-1.715 0.766-1.715 1.711s0.77 1.711 1.715 1.711z"></path>
</svg>
