<svg xmlns="http://www.w3.org/2000/svg" width="19" height="20" viewBox="0 0 19 20">
<path d="M9.688 0.313c-5.348 0-9.688 4.34-9.688 9.688s4.34 9.688 9.688 9.688 9.688-4.34 9.688-9.688-4.34-9.688-9.688-9.688zM13.621 14.566c-0.164 0-0.266-0.051-0.418-0.141-2.438-1.469-5.273-1.531-8.074-0.957-0.152 0.039-0.352 0.102-0.465 0.102-0.379 0-0.617-0.301-0.617-0.617 0-0.402 0.238-0.594 0.531-0.656 3.199-0.707 6.469-0.645 9.258 1.023 0.238 0.152 0.379 0.289 0.379 0.645s-0.277 0.602-0.594 0.602zM14.672 12.004c-0.203 0-0.34-0.090-0.48-0.164-2.441-1.445-6.082-2.027-9.32-1.148-0.188 0.051-0.289 0.102-0.465 0.102-0.418 0-0.758-0.34-0.758-0.758s0.203-0.695 0.605-0.809c1.086-0.305 2.195-0.531 3.82-0.531 2.535 0 4.984 0.629 6.914 1.777 0.316 0.188 0.441 0.43 0.441 0.77-0.004 0.422-0.332 0.762-0.758 0.762zM15.883 9.027c-0.203 0-0.328-0.051-0.504-0.152-2.781-1.66-7.754-2.059-10.973-1.16-0.141 0.039-0.316 0.102-0.504 0.102-0.516 0-0.91-0.402-0.91-0.922 0-0.531 0.328-0.832 0.68-0.934 1.375-0.402 2.914-0.594 4.59-0.594 2.852 0 5.84 0.594 8.023 1.867 0.305 0.176 0.504 0.418 0.504 0.883 0 0.531-0.43 0.91-0.906 0.91z"></path>
</svg>
