<svg xmlns="http://www.w3.org/2000/svg" width="23" height="20" viewBox="0 0 23 20">
<path d="M13.793 19.914c-0.23 0.113-1.254 0.125-1.426-0.020-0.16-0.117-0.086-0.465-0.059-0.586 0.086-0.586-0.098-0.309-0.383-0.449-0.121-0.059-0.16-0.215-0.18-0.391-0.020-0.059-0.039-0.098-0.059-0.137-0.066-0.418 0.266-1.313 0.32-1.695 0.191-0.926-0.027-1.453 0.059-1.832 0.145-0.633 0.16-0.137 0.16-1.168-0.055-1.012 0.129-1.441 0.020-1.52-0.578 0-2.512 0.418-4.383 0.078-1.801-0.348-2.32-1.133-2.555-1.207-0.402-0.176-0.906 0.020-1.066 0.273-0.004 0.004-1.367 2.758-1.547 3.43-0.242 0.801-0.020 1.852 0.16 2.609 0 0.004 0.176 0.57 0.402 0.762 0.082 0.059 0.199 0.098 0.281 0.176 0.109 0.105 0.367 0.594 0.383 0.625 0.102 0.176 0.141 0.313-0.059 0.41-0.141 0.078-0.363 0.098-0.563 0.098-0.102 0.020-0.059 0.137-0.121 0.195-0.113 0.109-0.809 0.238-1.168 0.098-0.102-0.039-0.223-0.117-0.242-0.195-0.059-0.156 0.082-0.352-0.039-0.488-0.176-0.113-0.512-0.078-0.664-0.469-0.086-0.211-0.102-0.297-0.102-1.93 0-0.379-0.23-1.512-0.32-1.832-0.059-0.215-0.059-0.449 0-0.625 0.012-0.035 0.16-0.18 0.16-0.508-0.039-0.059-0.18-0.020-0.199-0.059-0.406-3.148-0.23-3.086-0.301-3.84-0.059-0.625-0.426-1.715-0.262-2.512 0.020-0.094 0.133-0.82 0.945-1.52 1.211-1.043 1.891-1.496 6.211-0.449 0.043 0.016 2.59 0.824 4.324-0.352 0.605-0.441 1.125-0.441 1.387-0.625 0.004-0.004 2.41-2.035 3.398-2.551 1.844-1.148 2.73-0.652 2.934-0.703 0.184-0.039 0.523-1.008 0.664-1.008 0.215 0 0.063 0.789 0.141 1.012 0.020 0.078 0.141 0.195 0.242 0.195 0.090 0 0.066-0.031 0.402-0.195 0.328-0.211 0.582-0.688 0.805-0.664 0.457 0.063-0.742 1.625-0.742 1.832 0 0.078 0.008 0.031 0.18 0.371 0.102 0.215 0.18 0.527 0.242 0.781 0.324 1.16 0.223 0.57 0.523 1.441 0.789 1.957 0.805 1.766 0.805 2.066 0 0.293-0.16 0.43-0.281 0.645-0.059 0.117-0.18 0.293-0.281 0.313-0.105 0.027 0.273-0.059-0.523 0.098-0.281 0.039-0.523-0.176-0.582-0.371-0.063-0.184 0.109-0.395-0.461-0.895-0.402-0.391-0.824-0.441-1.246-0.664-0.383-0.223-0.465 0.039-0.703 0.313-0.703 0.895-1.328 1.832-2.031 2.727-0.461 0.586-0.945 1.187-1.309 1.852-0.152 0.266-0.371 1.098-0.402 1.168-0.242 0.691-0.215 1.008-0.645 2.668-0.121 0.391-0.223 0.836-0.34 1.266-0.086 0.266-0.289 1.926-0.020 2.32 0.082 0.137 0.34 0.176 0.441 0.313 0.004 0.004 0.375 0.711 0.363 0.781 0 0.238-0.367 0.219-0.441 0.254-0.188 0.113-0.148 0.23-0.25 0.289z"></path>
</svg>
