<svg xmlns="http://www.w3.org/2000/svg" width="18" height="20" viewBox="0 0 18 20">
<path d="M15.438 8.656h0.422v1.31h-0.422v-1.31zM15.438 8.28h0.422v-1.31h-0.422v1.31zM15.438 11.652h0.422v-1.31h-0.422v1.31zM14.014 5.283h-1.31v0.41h1.31v-0.41zM15.438 13.338h0.422v-1.31h-0.422v1.31zM12.168 5.283h-1.31v0.41h1.31v-0.41zM10.322 5.283h-1.299v0.41h1.299v-0.41zM8.477 5.283h-1.299v0.41h1.299v-0.41zM15.438 6.593h0.422v-1.31h-1.31v0.41h0.889v0.9zM5.446 16.711l1.196 0.524 0.171-0.387-1.196-0.524-0.171 0.387zM6.995 17.383l1.185 0.535 0.171-0.387-1.185-0.524-0.171 0.376zM15.438 15.024h0.422v-1.31h-0.422v1.31zM2.358 15.343l1.196 0.524 0.171-0.376-1.196-0.536-0.171 0.387zM3.908 16.027l1.196 0.524 0.171-0.387-1.196-0.524-0.171 0.387zM9.080 17.531l0.171 0.387 1.196-0.535-0.171-0.376-1.196 0.524zM13.706 15.492l0.171 0.376 1.196-0.524-0.171-0.387-1.196 0.536zM12.168 16.164l0.171 0.387 1.196-0.524-0.171-0.387-1.196 0.524zM10.618 16.847l0.171 0.387 1.196-0.524-0.171-0.387-1.196 0.524zM12.168 1.82h-1.31v0.41h1.31v-0.41zM15.848 1.82h-1.299v0.41h1.299v-0.41zM8.477 1.82h-1.299v0.41h1.299v-0.41zM14.014 1.82h-1.31v0.41h1.31v-0.41zM10.322 1.82h-1.299v0.41h1.299v-0.41zM17.5 0.145v15.859l-8.841 3.851-8.659-3.851v-15.859h17.5zM16.361 4.714h-15.221v10.55l7.531 3.35 7.69-3.35v-10.55zM16.361 1.284h-15.221v2.29h15.221v-2.29zM2.951 1.82h-1.299v0.41h1.299v-0.41zM6.642 1.82h-1.31v0.41h1.31v-0.41zM4.797 1.82h-1.31v0.41h1.31v-0.41zM5.093 11.060c0-1.96 1.606-3.566 3.566-3.566 1.971 0 3.566 1.606 3.566 3.566 0 1.971-1.595 3.566-3.566 3.566-1.96-0-3.566-1.595-3.566-3.566zM9.81 11.766c0 0.513-0.934 0.558-1.276 0.558-0.479 0-1.162-0.103-1.401-0.581h-0.034l-0.353 0.718c0.581 0.365 1.139 0.479 1.846 0.479 0.763 0 1.994-0.228 1.994-1.219 0-1.88-3.065-0.638-3.065-1.481 0-0.513 0.809-0.581 1.162-0.581 0.422 0 1.139 0.125 1.39 0.513h0.034l0.342-0.661c-0.592-0.239-1.071-0.467-1.732-0.467-0.786 0-1.937 0.251-1.937 1.242 0 1.732 3.031 0.467 3.031 1.481zM4.797 5.283h-1.31v0.41h1.31v-0.41zM2.062 5.693h0.889v-0.41h-1.31v1.31h0.422v-0.9zM2.062 6.969h-0.422v1.31h0.422v-1.31zM6.642 5.283h-1.31v0.41h1.31v-0.41zM2.062 8.656h-0.422v1.31h0.422v-1.31zM2.062 12.028h-0.422v1.31h0.422v-1.31zM2.062 10.342h-0.422v1.31h0.422v-1.31zM2.062 13.714h-0.422v1.31h0.422v-1.31z"></path>
</svg>
