<svg xmlns="http://www.w3.org/2000/svg" width="18" height="20" viewBox="0 0 18 20">
<path d="M17.43 10.563c-0.242-0.742-1.051-1.137-1.797-0.895l-1.773 0.59-1.184-3.516 1.773-0.59c0.746-0.242 1.137-1.047 0.898-1.793-0.242-0.742-1.051-1.137-1.797-0.895l-1.773 0.59-0.613-1.836c-0.242-0.742-1.051-1.137-1.797-0.895s-1.137 1.047-0.898 1.793l0.613 1.836-3.648 1.219-0.613-1.836c-0.242-0.742-1.051-1.137-1.797-0.895s-1.137 1.047-0.898 1.793l0.613 1.836-1.77 0.586c-0.746 0.242-1.137 1.047-0.898 1.793 0.195 0.566 0.746 0.938 1.313 0.961 0.266 0.039 0.469-0.063 2.254-0.656l1.184 3.516-1.773 0.59c-0.742 0.242-1.137 1.051-0.898 1.793 0.195 0.566 0.746 0.938 1.313 0.961 0.266 0.039 0.469-0.063 2.254-0.656l0.613 1.836c0.23 0.66 0.965 1.133 1.797 0.895 0.746-0.242 1.137-1.047 0.898-1.793l-0.613-1.836 3.656-1.223 0.613 1.836c0.23 0.66 0.965 1.133 1.797 0.895 0.746-0.242 1.137-1.047 0.898-1.793l-0.613-1.836 1.773-0.59c0.742-0.234 1.137-1.043 0.895-1.785zM7.504 12.406l-1.184-3.523 3.652-1.223 1.184 3.523-3.652 1.223z"></path>
</svg>
