<svg xmlns="http://www.w3.org/2000/svg" width="19" height="20" viewBox="0 0 19 20">
<path d="M10 0.313c-5.352 0-9.688 4.336-9.688 9.688s4.336 9.688 9.688 9.688 9.688-4.336 9.688-9.688-4.336-9.688-9.688-9.688zM10 7.246c-0.383 0-0.695 0.313-0.695 0.695v4.176c0 1.598-1.324 2.887-2.926 2.887-1.617 0-2.926-1.309-2.926-2.926v-1.816h2.238v1.789c0 0.391 0.313 0.695 0.695 0.695s0.695-0.309 0.695-0.695v-4.234c0-1.563 1.336-2.816 2.918-2.816 1.59 0 2.918 1.262 2.918 2.836v0.926l-1.332 0.395-0.895-0.418v-0.805c0.004-0.375-0.309-0.688-0.691-0.688zM16.547 12.074c0 1.617-1.309 2.926-2.926 2.926-1.609 0-2.926-1.297-2.926-2.898v-1.828l0.895 0.418 1.332-0.395v1.84c0 0.383 0.313 0.688 0.695 0.688s0.695-0.309 0.695-0.688v-1.875h2.238c-0.004 1.793-0.004 1.812-0.004 1.812z"></path>
</svg>
