<svg xmlns="http://www.w3.org/2000/svg" width="25" height="20" viewBox="0 0 25 20">
<path d="M4.352 10.012l0.227 2.539-0.227 2.668c-0.012 0.098-0.086 0.172-0.172 0.172s-0.164-0.074-0.164-0.172l-0.219-2.668 0.219-2.539c0-0.086 0.074-0.164 0.164-0.164 0.086 0 0.16 0.078 0.172 0.164zM5.188 8.23c-0.109 0-0.184 0.086-0.195 0.195l-0.195 4.125 0.195 2.668c0.012 0.109 0.086 0.195 0.195 0.195 0.098 0 0.184-0.086 0.184-0.195l0.227-2.668-0.227-4.125c0-0.109-0.086-0.195-0.184-0.195zM6.184 7.289c-0.121 0-0.207 0.086-0.219 0.207l-0.172 5.078 0.172 2.648c0.012 0.121 0.098 0.207 0.219 0.207 0.109 0 0.207-0.086 0.207-0.207l0.207-2.648-0.207-5.078c0-0.121-0.098-0.207-0.207-0.207zM0.281 11.063c-0.055 0-0.086 0.043-0.098 0.098l-0.184 1.391 0.184 1.367c0.012 0.055 0.043 0.098 0.098 0.098s0.086-0.043 0.098-0.098l0.219-1.367-0.219-1.391c-0.012-0.055-0.043-0.098-0.098-0.098zM1.203 10.207c-0.055 0-0.098 0.043-0.098 0.098l-0.25 2.246 0.25 2.191c0 0.066 0.043 0.109 0.098 0.109s0.098-0.043 0.109-0.098l0.281-2.203-0.281-2.246c-0.012-0.055-0.055-0.098-0.109-0.098zM2.191 9.762c-0.066 0-0.121 0.055-0.129 0.129l-0.227 2.66 0.227 2.57c0.012 0.066 0.066 0.121 0.129 0.121 0.066 0 0.121-0.055 0.121-0.121l0.27-2.57-0.27-2.66c0-0.074-0.055-0.129-0.121-0.129zM3.18 9.676c-0.074 0-0.141 0.055-0.141 0.141l-0.227 2.734 0.227 2.648c0 0.086 0.066 0.141 0.141 0.141s0.141-0.055 0.152-0.141l0.25-2.648-0.25-2.734c-0.012-0.086-0.078-0.141-0.152-0.141zM12.609 5.344c-0.043-0.031-0.109-0.055-0.164-0.055-0.086 0-0.164 0.031-0.219 0.074-0.074 0.066-0.121 0.164-0.129 0.262v0.031l-0.129 6.902 0.066 1.27 0.066 1.238c0.012 0.184 0.164 0.336 0.348 0.336s0.336-0.152 0.336-0.336l0.152-2.508-0.152-6.934c-0.016-0.117-0.078-0.227-0.176-0.281zM11.566 5.941c-0.055-0.031-0.109-0.055-0.172-0.055s-0.121 0.023-0.172 0.055c-0.086 0.055-0.141 0.152-0.141 0.262l-0.012 0.066-0.109 6.281s0 0.012 0.121 2.563v0.012c0 0.066 0.023 0.129 0.066 0.184 0.066 0.074 0.152 0.121 0.25 0.121 0.086 0 0.164-0.043 0.219-0.098 0.066-0.055 0.098-0.129 0.098-0.219l0.012-0.262 0.121-2.289-0.129-6.359c-0.012-0.109-0.066-0.207-0.152-0.262zM7.215 6.82c-0.121 0-0.227 0.109-0.227 0.238l-0.172 5.492 0.172 2.625c0.012 0.129 0.109 0.227 0.227 0.227 0.129 0 0.227-0.098 0.238-0.227l0.195-2.625-0.195-5.492c-0.008-0.129-0.105-0.238-0.238-0.238zM21.93 9.273c-0.422 0-0.824 0.086-1.195 0.238-0.25-2.766-2.57-4.938-5.402-4.938-0.695 0-1.367 0.129-1.965 0.367-0.238 0.086-0.305 0.172-0.305 0.359v9.754c0 0.195 0.152 0.336 0.336 0.359h8.527c1.691 0 3.070-1.367 3.070-3.059 0.004-1.703-1.375-3.082-3.066-3.082zM10.34 6.918c-0.164 0-0.293 0.129-0.305 0.305l-0.129 5.34 0.129 2.563c0.012 0.164 0.141 0.293 0.305 0.293s0.293-0.129 0.293-0.293l0.152-2.563-0.152-5.34c-0.012-0.176-0.129-0.305-0.293-0.305zM8.246 6.613c-0.129 0-0.25 0.121-0.25 0.262l-0.152 5.676 0.152 2.613c0.012 0.141 0.121 0.25 0.25 0.25 0.141 0 0.25-0.109 0.262-0.25l0.172-2.613-0.172-5.676c-0.012-0.141-0.121-0.262-0.262-0.262zM9.289 6.746c-0.152 0-0.27 0.121-0.27 0.27l-0.152 5.535 0.152 2.594c0.012 0.152 0.121 0.27 0.27 0.27s0.27-0.121 0.27-0.27l0.164-2.594-0.164-5.535c0-0.152-0.117-0.27-0.27-0.27z"></path>
</svg>
