<svg xmlns="http://www.w3.org/2000/svg" width="20" height="20" viewBox="0 0 20 20">
<path d="M19.955 15.339c-0.204 0.475-1.064 0.824-2.631 1.067-0.081 0.109-0.147 0.574-0.254 0.936-0.063 0.217-0.22 0.346-0.474 0.346l-0.012-0c-0.367 0-0.75-0.169-1.518-0.169-1.036 0-1.393 0.236-2.197 0.804-0.853 0.603-1.671 1.124-2.892 1.070-1.236 0.091-2.267-0.66-2.847-1.070-0.809-0.572-1.165-0.804-2.197-0.804-0.737 0-1.201 0.184-1.518 0.184-0.315 0-0.438-0.192-0.485-0.353-0.106-0.359-0.172-0.831-0.255-0.943-0.808-0.125-2.629-0.443-2.676-1.256-0-0.007-0.001-0.015-0.001-0.023 0-0.205 0.149-0.376 0.345-0.409l0.002-0c2.718-0.447 3.942-3.238 3.993-3.357 0.003-0.007 0.006-0.013 0.009-0.020 0.145-0.294 0.177-0.541 0.096-0.733-0.197-0.465-1.050-0.631-1.408-0.773-0.926-0.366-1.055-0.786-1-1.074 0.095-0.501 0.849-0.81 1.289-0.604 0.348 0.163 0.658 0.246 0.92 0.246 0.196 0 0.321-0.047 0.389-0.085-0.080-1.404-0.277-3.41 0.222-4.53 1.319-2.958 4.115-3.188 4.941-3.188 0.037 0 0.357-0.003 0.395-0.003 2.037 0 3.994 1.046 4.95 3.189 0.499 1.119 0.303 3.117 0.222 4.532 0.062 0.034 0.17 0.076 0.336 0.084 0.25-0.011 0.54-0.093 0.862-0.244 0.238-0.111 0.563-0.096 0.8 0.002l0.001 0c0.37 0.132 0.603 0.399 0.609 0.698 0.007 0.381-0.333 0.71-1.011 0.977-0.083 0.033-0.183 0.065-0.29 0.099-0.383 0.121-0.961 0.305-1.118 0.675-0.081 0.192-0.049 0.438 0.096 0.732 0.003 0.007 0.006 0.013 0.009 0.020 0.051 0.118 1.274 2.909 3.993 3.357 0.251 0.041 0.436 0.308 0.302 0.619z"></path>
</svg>
