<svg xmlns="http://www.w3.org/2000/svg" width="18" height="20" viewBox="0 0 18 20">
<path d="M17.5 1.25c-3.254 0.43-6.516 0.859-9.766 1.289-3.594 0.488-6.379 3.387-6.602 7.031-0.129 2.168 0.703 4.277 2.258 5.789l-3.391 3.391c3.254-0.43 6.504-0.859 9.758-1.289 3.586-0.488 6.379-3.391 6.59-7.023 0.137-2.168-0.703-4.277-2.254-5.789l3.406-3.398zM14.387 10.324c-0.164 3.105-2.891 5.438-5.969 5.254-3.105-0.184-5.496-2.773-5.324-5.898 0.176-3.094 2.902-5.441 5.977-5.254 3.098 0.184 5.488 2.773 5.316 5.898z"></path>
</svg>
