<svg xmlns="http://www.w3.org/2000/svg" width="20" height="20" viewBox="0 0 20 20">
<path d="M19.645 10.391v2.723c0 2.426-1.965 4.391-4.391 4.391-2.414 0-4.391-1.945-4.391-4.348v-2.742l1.34 0.625 1.996-0.594v2.758c0 0.574 0.469 1.035 1.043 1.035s1.047-0.461 1.047-1.035v-2.813h3.355zM10.867 8.117l1.34 0.625 1.996-0.594v-1.391c0-2.363-1.996-4.258-4.379-4.258-2.375 0-4.379 1.883-4.379 4.227v6.344c0 0.582-0.469 1.043-1.043 1.043s-1.043-0.461-1.043-1.043v-2.68h-3.359v2.723c0 2.422 1.965 4.387 4.391 4.387 2.406 0 4.391-1.934 4.391-4.328v-6.262c0-0.574 0.469-1.043 1.043-1.043s1.043 0.469 1.043 1.043v1.207z"></path>
</svg>
