<svg xmlns="http://www.w3.org/2000/svg" width="18" height="20" viewBox="0 0 18 20">
<path d="M15.313 1.25h-13.125c-1.207 0-2.188 0.98-2.188 2.188v13.125c0 1.207 0.98 2.188 2.188 2.188h13.125c1.207 0 2.188-0.98 2.188-2.188v-13.125c0-1.207-0.98-2.188-2.188-2.188zM7.613 14.508c0 0.578-0.469 1.051-1.051 1.051h-3.238c-0.578 0-1.051-0.469-1.051-1.051v-9.934c0-0.578 0.469-1.051 1.051-1.051h3.238c0.578 0 1.051 0.469 1.051 1.051v9.934zM15.227 10.133c0 0.578-0.469 1.051-1.051 1.051h-3.238c-0.578 0-1.051-0.469-1.051-1.051v-5.559c0-0.578 0.469-1.051 1.051-1.051h3.238c0.578 0 1.051 0.469 1.051 1.051v5.559z"></path>
</svg>
