<svg xmlns="http://www.w3.org/2000/svg" width="18" height="20" viewBox="0 0 18 20">
<path d="M15.625 1.25h-13.75c-1.035 0-1.875 0.84-1.875 1.875v13.75c0 1.035 0.84 1.875 1.875 1.875h13.75c1.035 0 1.875-0.84 1.875-1.875v-13.75c0-1.035-0.84-1.875-1.875-1.875zM12.41 15.477c-0.332 0.355-1.219 0.773-2.379 0.773-2.949 0-3.59-2.168-3.59-3.434v-3.516h-1.16c-0.133 0-0.242-0.109-0.242-0.242v-1.66c0-0.176 0.109-0.332 0.277-0.391 1.516-0.535 1.988-1.855 2.059-2.859 0.020-0.27 0.16-0.398 0.391-0.398h1.73c0.133 0 0.242 0.109 0.242 0.242v2.813h2.027c0.133 0 0.242 0.109 0.242 0.242v1.996c0 0.133-0.109 0.242-0.242 0.242h-2.035v3.254c0 0.836 0.578 1.309 1.66 0.875 0.117-0.047 0.219-0.078 0.313-0.055 0.086 0.020 0.141 0.082 0.18 0.191l0.539 1.57c0.039 0.125 0.078 0.262-0.012 0.355z"></path>
</svg>
