<svg xmlns="http://www.w3.org/2000/svg" width="18" height="20" viewBox="0 0 18 20">
<path d="M15.625 1.25h-13.75c-1.035 0-1.875 0.84-1.875 1.875v13.75c0 1.035 0.84 1.875 1.875 1.875h13.75c1.035 0 1.875-0.84 1.875-1.875v-13.75c0-1.035-0.84-1.875-1.875-1.875zM13.715 7.453c0.008 0.109 0.008 0.223 0.008 0.332 0 3.387-2.578 7.289-7.289 7.289-1.453 0-2.801-0.422-3.934-1.148 0.207 0.023 0.406 0.031 0.617 0.031 1.199 0 2.301-0.406 3.18-1.094-1.125-0.023-2.070-0.762-2.395-1.777 0.395 0.059 0.75 0.059 1.156-0.047-1.172-0.238-2.051-1.27-2.051-2.516v-0.031c0.34 0.191 0.738 0.309 1.156 0.324-0.692-0.465-1.141-1.244-1.141-2.129 0-0.001 0-0.003 0-0.004v0c0-0.477 0.125-0.914 0.348-1.293 1.262 1.555 3.156 2.57 5.281 2.68-0.363-1.738 0.938-3.148 2.5-3.148 0.738 0 1.402 0.309 1.871 0.809 0.578-0.109 1.133-0.324 1.625-0.617-0.191 0.594-0.594 1.094-1.125 1.41 0.516-0.055 1.016-0.199 1.477-0.398-0.348 0.512-0.785 0.965-1.285 1.328z"></path>
</svg>
