<svg xmlns="http://www.w3.org/2000/svg" width="17" height="20" viewBox="0 0 17 20">
<path d="M12.922 13.32c-0.273 0.090-0.453 0.090-0.723 0.090-2.234 0-5.492-7.754-5.492-10.348 0-0.965 0.211-1.266 0.543-1.539-2.715 0.332-5.832 1.328-6.887 2.594-0.211 0.301-0.363 0.812-0.363 1.449 0 4.043 4.172 13.184 7.191 13.184 1.418 0 3.801-2.324 5.73-5.43zM11.504 1.25c2.805 0 5.422 0.453 5.422 2.051 0 3.227-2.051 7.121-3.078 7.121-1.871 0-3.973-5.16-3.973-7.754 0-1.207 0.453-1.418 1.629-1.418z"></path>
</svg>
