<svg xmlns="http://www.w3.org/2000/svg" width="23" height="20" viewBox="0 0 23 20">
<path d="M6.5 10.958c0 0.517-0.419 0.936-0.936 0.936s-0.936-0.419-0.936-0.936 0.419-0.936 0.936-0.936 0.936 0.419 0.936 0.936zM16.85 10.022c-0.517 0-0.936 0.419-0.936 0.936s0.419 0.936 0.936 0.936c0.517 0 0.936-0.419 0.936-0.936s-0.419-0.936-0.936-0.936zM20.342 15.471c-2.448 1.918-5.987 1.489-7.905-0.959l-1.21 1.81-1.199-1.794c-1.886 2.359-5.298 2.808-7.73 1.018-2.502-1.842-3.037-5.364-1.195-7.866-0.256-0.852-0.632-1.594-1.117-2.252l0.014 0.020 3.527-0.002c2.101-1.327 4.658-2.114 7.398-2.114 0.105 0 0.211 0.001 0.315 0.003l-0.016-0c0.073-0.001 0.158-0.002 0.244-0.002 2.692 0 5.202 0.777 7.319 2.119l-0.056-0.033 3.759 0.003c-0.475 0.643-0.853 1.392-1.094 2.201l-0.013 0.051c1.828 2.451 1.366 5.913-1.041 7.799zM10.131 11.006c-0-2.483-2.013-4.495-4.496-4.495s-4.495 2.013-4.495 4.496c0 2.483 2.013 4.495 4.496 4.495 2.481-0.003 4.492-2.013 4.495-4.494v-0.002zM11.248 10.598c0.212-2.869 2.559-5.113 5.434-5.196-1.549-0.688-3.357-1.088-5.258-1.088-0.071 0-0.141 0.001-0.211 0.002l0.011-0c-0.040-0-0.088-0.001-0.135-0.001-1.927 0-3.763 0.392-5.431 1.1l0.091-0.034c2.904 0.062 5.285 2.321 5.499 5.218zM21.081 9.474c-0.859-2.329-3.444-3.521-5.773-2.662s-3.521 3.444-2.662 5.773v0.001c0.861 2.328 3.445 3.519 5.774 2.661 2.329-0.86 3.52-3.444 2.661-5.773zM8.345 10.958v0.004c-0.002 1.536-1.249 2.78-2.786 2.778s-2.78-1.249-2.778-2.786c0.002-1.536 1.249-2.78 2.786-2.778 1.534 0.005 2.775 1.248 2.778 2.781zM7.387 10.958v-0.003c-0.002-1.007-0.82-1.822-1.827-1.82s-1.822 0.82-1.82 1.827c0.002 1.007 0.82 1.822 1.827 1.82 1.005-0.004 1.818-0.819 1.82-1.824zM19.63 10.958v0.002c-0.001 1.536-1.247 2.781-2.783 2.78s-2.781-1.247-2.78-2.783c0.001-1.536 1.247-2.781 2.783-2.78 1.535 0.003 2.778 1.246 2.78 2.781zM18.673 10.957c-0-1.007-0.817-1.823-1.824-1.823s-1.823 0.817-1.823 1.824c0 1.007 0.817 1.823 1.824 1.823 1.006-0.002 1.822-0.818 1.823-1.824v-0z"></path>
</svg>
