<svg xmlns="http://www.w3.org/2000/svg" width="20" height="20" viewBox="0 0 20 20">
<path d="M8.125 3.449c0-0.391 0.246-0.848 0.692-0.848 0.435 0 0.692 0.458 0.692 0.848 0 0.402-0.257 0.848-0.692 0.848-0.446 0-0.692-0.446-0.692-0.848zM20 9.699c0 1.406-0.446 3.996-1.417 5.067-0.893 0.971-3.415 2.388-4.721 2.757l-0.045 0.011v1.272c0 0.636-0.491 1.194-1.138 1.194-0.391 0-0.759-0.223-0.96-0.558-0.212 0.335-0.58 0.558-0.971 0.558s-0.759-0.223-0.971-0.558c-0.201 0.335-0.569 0.558-0.96 0.558-0.402 0-0.759-0.223-0.971-0.558-0.201 0.335-0.569 0.558-0.96 0.558-0.737 0-1.15-0.614-1.15-1.283-0.636 0.48-1.395 0.759-2.21 0.759-0.859 0-1.696-0.324-2.355-0.893 0.402-0.011 0.804-0.089 1.183-0.223-0.815-0.223-1.54-0.737-2.031-1.417 0.835 0.181 1.805 0.065 2.623-0.435-0.859-0.859-2.21-2.299-2.679-3.415-0.223-0.525-0.268-1.228-0.268-1.786 0-1.942 0.792-6.25 3.371-6.25 0.413 0 0.737 0.19 0.904 0.58 0.155-0.226 0.309-0.423 0.474-0.609l-0.006 0.007c0.078-0.1 0.223-0.212 0.279-0.324 0.312-0.491 0.458-0.826 0.848-1.328 1.261-1.607 3.192-2.712 5.268-2.712 0.234 0 0.469 0.011 0.692 0.045 0.424-0.458 1.016-0.714 1.629-0.714 0.569 0 1.161 0.234 1.563 0.636 0.033 0.034 0.056 0.089 0.056 0.134 0 0.145-0.402 0.525-0.502 0.636 0.167 0.056 0.614 0.268 0.614 0.469 0 0.112-0.112 0.201-0.179 0.279 1.228 1.083 1.931 2.623 2.199 4.219 0.167-0.201 0.402-0.335 0.67-0.335 0.413 0 0.815 0.279 1.116 0.547 0.815 0.725 1.004 2.076 1.004 3.114zM7.344 3.493c0 0.714 0.491 1.451 1.261 1.451s1.261-0.737 1.261-1.451c0-0.703-0.491-1.44-1.261-1.44s-1.261 0.737-1.261 1.44zM9.286 7.578c0-0.77 0.145-1.529 0.335-2.277-2.033 3.107-0.529 7.21 2.69 7.21 0.837 0 1.663-0.301 2.344-0.781 0.078-0.29 0.145-0.58 0.145-0.882 0-0.558-0.246-0.837-0.804-0.837-0.179 0-0.357 0.033-0.525 0.067-2.474 0.495-4.185 0.143-4.185-2.5zM7.679 17.534c0-0.435-0.346-0.815-0.792-0.815s-0.781 0.379-0.781 0.815v1.272c0 0.435 0.335 0.826 0.781 0.826s0.792-0.379 0.792-0.826v-1.272zM9.598 17.534c0-0.435-0.335-0.815-0.781-0.815s-0.792 0.379-0.792 0.815v1.272c0 0.435 0.346 0.826 0.792 0.826s0.781-0.391 0.781-0.826v-1.272zM11.54 17.534c0-0.435-0.346-0.815-0.792-0.815s-0.792 0.379-0.792 0.815v1.272c0 0.435 0.346 0.826 0.792 0.826s0.792-0.379 0.792-0.826v-1.272zM13.482 17.534c0-0.435-0.346-0.815-0.792-0.815s-0.792 0.379-0.792 0.815v1.272c0 0.435 0.346 0.826 0.792 0.826s0.792-0.391 0.792-0.826v-1.272zM16.473 11.172c-1.205 2.31-3.527 4.007-6.194 4.007-3.772 0-6.272-3.304-6.272-6.897 0-0.658 0.078-1.306 0.234-1.942-0.781 1.317-1.161 2.835-1.161 4.353 0 2.355 0.971 4.754 2.79 6.283 0.201-0.379 0.58-0.636 1.016-0.636 0.391 0 0.759 0.223 0.96 0.558 0.212-0.335 0.569-0.558 0.971-0.558 0.391 0 0.759 0.223 0.96 0.558 0.212-0.335 0.58-0.558 0.971-0.558s0.759 0.223 0.971 0.558c0.201-0.335 0.569-0.558 0.96-0.558 0.424 0 0.815 0.257 1.004 0.625 1.696-1.417 2.678-3.594 2.79-5.792zM16.886 7.277c0-2.098-1.35-4.129-3.616-4.129-1.183 0-2.288 0.592-3.080 1.44-0.781 2.593-1.072 5.335 1.618 5.335 1.125 0 3.803-1.115 3.292 1.44 1.127-1.016 1.786-2.567 1.786-4.085z"></path>
</svg>
