<svg xmlns="http://www.w3.org/2000/svg" width="13" height="20" viewBox="0 0 13 20">
<path d="M12.102 18.762c-0.531 0.566-1.953 1.238-3.805 1.238-4.719 0-5.742-3.469-5.742-5.492v-5.625h-1.855c-0.215 0-0.391-0.176-0.391-0.391v-2.656c0-0.281 0.176-0.531 0.441-0.625 2.422-0.852 3.184-2.969 3.293-4.574 0.031-0.43 0.254-0.637 0.629-0.637h2.77c0.215 0 0.391 0.176 0.391 0.391v4.5h3.242c0.215 0 0.391 0.172 0.391 0.387v3.191c0 0.215-0.176 0.391-0.391 0.391h-3.258v5.203c0 1.336 0.926 2.094 2.656 1.398 0.188-0.074 0.352-0.125 0.496-0.086 0.137 0.035 0.227 0.133 0.289 0.309l0.859 2.512c0.070 0.195 0.129 0.414-0.016 0.566z"></path>
</svg>
