<svg xmlns="http://www.w3.org/2000/svg" width="19" height="20" viewBox="0 0 19 20">
<path d="M9.688 0.313c-5.352 0-9.688 4.336-9.688 9.688s4.336 9.688 9.688 9.688 9.688-4.336 9.688-9.688-4.336-9.688-9.688-9.688zM14.445 6.949l-1.59 7.492c-0.117 0.531-0.434 0.66-0.875 0.41l-2.422-1.785-1.168 1.125c-0.129 0.129-0.238 0.238-0.488 0.238l0.172-2.465 4.488-4.055c0.195-0.172-0.043-0.27-0.301-0.098l-5.547 3.492-2.391-0.746c-0.52-0.164-0.531-0.52 0.109-0.77l9.34-3.602c0.434-0.156 0.813 0.105 0.672 0.762z"></path>
</svg>
