<svg xmlns="http://www.w3.org/2000/svg" width="15" height="20" viewBox="0 0 15 20">
<path d="M2.824 19.367c0.055 0.777-1.078 0.867-1.16 0.113-0.453-5.074 1.215-9.355 3.961-12.234-0.609-1.328 0.359-3.012 1.977-3.012 1.184 0 2.152 0.961 2.152 2.152 0 1.719-1.934 2.766-3.395 1.762-2.566 2.785-3.961 6.633-3.535 11.219zM7.5 0.004c-4.918 0-7.98 5.242-5.793 9.465 0.34 0.68 1.379 0.176 1.027-0.523-1.809-3.617 0.82-7.781 4.766-7.781 2.945 0 5.348 2.398 5.348 5.348 0 3.547-3.395 6.012-6.551 5.199-0.746-0.16-1 0.953-0.258 1.137 4.324 0.906 7.969-2.344 7.969-6.34 0-3.59-2.914-6.504-6.508-6.504z"></path>
</svg>
