<svg xmlns="http://www.w3.org/2000/svg" width="25" height="20" viewBox="0 0 25 20">
<path d="M25.059 10c0 0.121-0.066 0.238-0.176 0.293l-3.48 2.090c-0.055 0.031-0.109 0.055-0.176 0.055-0.055 0-0.121-0.012-0.176-0.043-0.109-0.066-0.176-0.176-0.176-0.305v-1.391h-9.324c0.988 1.547 1.582 4.176 2.719 4.176h1.043v-1.047c0-0.195 0.152-0.348 0.348-0.348h3.48c0.195 0 0.348 0.152 0.348 0.348v3.48c0 0.195-0.152 0.348-0.348 0.348h-3.48c-0.195 0-0.348-0.152-0.348-0.348v-1.043h-1.043c-2.945 0-3.168-5.566-4.871-5.566h-3.918c-0.316 1.195-1.402 2.090-2.695 2.090-1.535-0.004-2.785-1.254-2.785-2.789s1.25-2.785 2.785-2.785c1.293 0 2.383 0.891 2.695 2.090 1.527 0 1.715 0.371 2.914-2.359 1.566-3.48 2.27-3.207 4.254-3.207 0.293-0.816 1.055-1.391 1.969-1.391 1.152 0 2.090 0.934 2.090 2.090s-0.934 2.090-2.090 2.090c-0.914 0-1.676-0.578-1.969-1.391h-1.164c-1.137 0-1.73 2.633-2.719 4.176h12.113v-1.391c0-0.129 0.066-0.238 0.176-0.305s0.25-0.055 0.348 0.012l3.48 2.090c0.109 0.043 0.176 0.16 0.176 0.281z"></path>
</svg>
