<svg xmlns="http://www.w3.org/2000/svg" width="20" height="20" viewBox="0 0 20 20">
<path d="M6.125 11.137l0.223 0.563h-0.32c-0.051-0.125-0.121-0.301-0.148-0.371-0.098-0.246-0.043-0.328 0-0.391 0.074-0.105 0.125-0.172 0.141-0.203 0 0.086 0.031 0.223 0.105 0.402zM17.738 11.871c-0.082 0.539-0.223 1.059-0.41 1.551l1.68 0.914-1.75-0.734c-0.207 0.516-0.469 1-0.777 1.453l1.336 1.18-1.438-1.031c-0.328 0.461-0.703 0.883-1.121 1.262l0.973 1.355-1.098-1.242c-0.43 0.375-0.902 0.703-1.41 0.98l0.613 1.453-0.754-1.379c-0.512 0.266-1.055 0.473-1.625 0.621l0.262 1.5-0.41-1.461c-0.559 0.133-1.141 0.207-1.738 0.211l-0.070 1.496-0.074-1.5c-0.598-0.004-1.18-0.078-1.738-0.207l-0.414 1.457 0.262-1.492c-0.57-0.145-1.117-0.355-1.629-0.617l-0.75 1.371 0.609-1.445c-0.508-0.273-0.984-0.602-1.414-0.98l-1.090 1.234 0.965-1.344c-0.418-0.379-0.797-0.801-1.125-1.262l-1.426 1.023 1.324-1.168c-0.309-0.453-0.57-0.941-0.781-1.457l-1.734 0.73 1.664-0.906c-0.188-0.496-0.328-1.020-0.41-1.559l-1.992 0.352 1.965-0.555c-0.043-0.332-0.066-0.668-0.066-1.012 0-0.184 0.008-0.367 0.020-0.551l-2.164-0.113 2.188-0.109c0.051-0.512 0.148-1.008 0.293-1.488l-2.23-0.629 2.301 0.406c0.156-0.469 0.355-0.918 0.594-1.344l-2.152-1.172 2.277 0.961c0.246-0.414 0.527-0.797 0.844-1.156l-1.934-1.703 2.105 1.512c0.316-0.336 0.664-0.645 1.039-0.922l-1.563-2.172 1.781 2.016c0.371-0.258 0.77-0.48 1.184-0.672l-1.066-2.535 1.32 2.426c0.41-0.172 0.836-0.309 1.277-0.406l-0.484-2.762 0.762 2.703c0.43-0.082 0.871-0.125 1.32-0.133l0.145-2.82 0.141 2.82c0.449 0.008 0.891 0.055 1.32 0.137l0.766-2.707-0.484 2.762c0.441 0.102 0.867 0.238 1.273 0.41l1.324-2.43-1.070 2.543c0.414 0.191 0.809 0.418 1.18 0.672l1.789-2.023-1.566 2.184c0.371 0.277 0.719 0.586 1.035 0.922l2.117-1.52-1.941 1.715c0.313 0.355 0.594 0.738 0.84 1.148l2.293-0.965-2.168 1.18c0.238 0.426 0.434 0.871 0.59 1.34l2.316-0.406-2.246 0.633c0.145 0.477 0.242 0.973 0.293 1.48l2.199 0.105-2.188 0.109c0.012 0.18 0.020 0.363 0.020 0.551 0 0.34-0.023 0.676-0.063 1.008l1.98 0.559-2.012-0.355zM16.887 10.66c0-3.809-3.086-6.895-6.895-6.895s-6.895 3.086-6.895 6.895 3.086 6.895 6.895 6.895 6.895-3.086 6.895-6.895zM15.949 10.66c0 3.293-2.668 5.961-5.961 5.961s-5.961-2.668-5.961-5.961 2.668-5.961 5.961-5.961 5.961 2.668 5.961 5.961zM7.617 9.414c0 0.082 0.051 0.148 0.141 0.199 0.129 0.074 0.242 0.18 0.32 0.32 0.109-0.223 0.168-0.371 0.168-0.438 0-0.086-0.043-0.172-0.125-0.273-0.082-0.098-0.125-0.203-0.129-0.301-0.254 0.266-0.375 0.426-0.375 0.492zM6.027 8.672c0 0.082 0.051 0.148 0.141 0.199 0.137 0.074 0.242 0.18 0.32 0.32 0.109-0.223 0.168-0.371 0.168-0.438 0-0.086-0.043-0.172-0.125-0.273-0.082-0.098-0.125-0.203-0.129-0.301-0.254 0.266-0.375 0.426-0.375 0.492zM5.285 8.672c0 0.082 0.051 0.148 0.141 0.199 0.129 0.074 0.242 0.18 0.32 0.32 0.109-0.223 0.168-0.371 0.168-0.438 0-0.086-0.043-0.172-0.125-0.273-0.082-0.098-0.125-0.203-0.129-0.301-0.25 0.266-0.375 0.426-0.375 0.492zM13.289 12.105c-0.328-0.117-0.34-0.266-0.34-0.609v-4.387c-0.32 0.488-0.555 0.727-0.703 0.727 0.246 0.563 0.371 0.934 0.371 1.105v2.512c0 0.086-0.086 0.254-0.184 0.254h-0.703c-0.109-0.293-0.398-1.051-0.598-1.574-0.078 0.098-0.281 0.359-0.418 0.535 0.094 0.063 0.16 0.141 0.203 0.246 0.102 0.262 0.25 0.645 0.309 0.789h-0.359c-0.152-0.406-0.375-0.992-0.461-1.215-0.078 0.098-0.281 0.359-0.418 0.535 0.094 0.063 0.16 0.141 0.203 0.246 0.031 0.078 0.109 0.285 0.168 0.426h-0.359c-0.059-0.16-0.219-0.57-0.328-0.859-0.078 0.098-0.281 0.359-0.418 0.535 0.098 0.063 0.168 0.141 0.203 0.246 0.008 0.023 0.020 0.055 0.023 0.066h-0.691c-0.18-0.543-0.445-1.082-0.445-1.332 0-0.086 0.012-0.199 0.043-0.32-0.344 0.422-0.547 0.621-0.547 0.977 0 0.293 0.406 1.105 0.406 1.301 0 0.066-0.020 0.129-0.055 0.191-0.375-0.496-0.605-0.809-0.734-0.809h-0.469l-0.437-1.094c-0.148-0.375-0.223-0.625-0.223-0.734 0-0.148 0.020-0.301 0.066-0.477-0.039 0.051-0.145 0.184-0.215 0.277-0.031-0.082-0.121-0.301-0.18-0.449-0.082 0.098-0.293 0.355-0.438 0.531 0.035 0.090 0.129 0.316 0.191 0.477-0.098 0.129-0.355 0.461-0.531 0.691-0.156 0.207-0.227 0.52-0.105 0.852 0.098 0.262 0.078 0.309-0.066 0.551h2.41c0.215 0 0.559 0.547 0.605 0.859 0.516-0.625 0.602-0.766 0.656-0.844h4.18c0.152 0 0.281-0.074 0.387-0.227zM14.074 11.066v-3.969c-0.352 0.488-0.621 0.727-0.809 0.727 0.277 0.563 0.418 0.934 0.418 1.105v2.59c0 0.684 0.336 0.797 0.938 0.797 0.316 0 0.488-0.031 0.535-0.105-0.168-0.063-0.297-0.098-0.387-0.129-0.316-0.125-0.695-0.289-0.695-1.016z"></path>
</svg>
