<svg xmlns="http://www.w3.org/2000/svg" width="25" height="20" viewBox="0 0 25 20">
<path d="M15.676 1.949c-3.117 6.254-3.305 5.957-3.434 6.766l-0.203 1.281c-0.074 0.469-0.258 0.918-0.535 1.305l-5.816 8.117c-0.297 0.414-0.797 0.633-1.305 0.57-1.574-0.195-3.039-1.258-3.723-2.676-0.223-0.461-0.176-1.008 0.121-1.422l5.816-8.121c0.277-0.387 0.641-0.703 1.063-0.926l1.145-0.605c0.723-0.383 0.379-0.465 5.297-5.426 0.039-0.188 0.039-0.285 0.141-0.313 0.117-0.027 0.258-0.039 0.246-0.18l-0.016-0.18c-0.008-0.074 0.051-0.141 0.125-0.141 0.176-0.004 0.516 0.047 1 0.391 0.48 0.348 0.641 0.656 0.691 0.824 0.023 0.070-0.023 0.145-0.094 0.164l-0.176 0.043c-0.133 0.035-0.098 0.172-0.090 0.289 0.004 0.109-0.090 0.141-0.254 0.238zM8.988 1.422c0.133 0.035 0.098 0.172 0.090 0.289-0.008 0.105 0.082 0.137 0.25 0.234 0.309 0.621 0.598 1.191 0.867 1.719 0.027 0.051 0.090 0.059 0.129 0.020 0.438-0.469 0.961-1.023 1.582-1.664 0.051-0.055 0.055-0.137 0.004-0.191-0.313-0.32-0.645-0.66-1-1.020-0.039-0.184-0.039-0.285-0.141-0.312-0.117-0.031-0.258-0.039-0.246-0.18 0.012-0.129 0.055-0.316-0.109-0.32-0.176-0.004-0.516 0.043-1 0.391-0.48 0.348-0.641 0.656-0.691 0.824-0.055 0.164 0.141 0.18 0.266 0.211zM24.219 15.887l-5.813-8.121c-0.516-0.723-1.039-0.914-2.203-1.527-0.438-0.23-0.555-0.426-1.191-1.129-0.039-0.043-0.113-0.035-0.141 0.020-1.809 3.469-1.84 3.234-1.914 3.703-0.066 0.418-0.051 0.781 0.012 1.164 0.074 0.469 0.258 0.918 0.535 1.305l5.816 8.121c0.297 0.414 0.789 0.633 1.293 0.574 1.574-0.191 3.047-1.25 3.738-2.68 0.211-0.465 0.168-1.012-0.133-1.43z"></path>
</svg>
