<svg xmlns="http://www.w3.org/2000/svg" width="15" height="20" viewBox="0 0 15 20">
<path d="M10.98 8.598h4.020v-0.578h-4.020v0.578zM10.98 7.148h4.020v-0.484h-4.020v0.484zM10.98 10.047h4.020v-0.676h-4.020v0.676zM4.82 13.434h-4.488c0.102 0.332 0.227 0.656 0.375 0.969h5.402c-0.504-0.223-0.941-0.555-1.289-0.969zM10.512 12.949h4.285c0.070-0.285 0.121-0.574 0.152-0.871h-4.078c-0.082 0.309-0.203 0.602-0.359 0.871zM8.891 14.398h5.445c0.145-0.313 0.227-0.633 0.332-0.969h-4.492c-0.344 0.418-0.785 0.75-1.285 0.969zM15 1.25h-4.020v0.098h4.020v-0.098zM7.5 18.75c1.543 0 2.977-0.461 4.172-1.258h-8.34c1.191 0.797 2.625 1.258 4.168 1.258zM10.98 5.695h4.020v-0.383h-4.020v0.383zM10.98 4.246h4.020v-0.289h-4.020v0.289zM10.98 2.797h4.020v-0.191h-4.020v0.191zM4.020 6.664h-4.020v0.484h4.020v-0.484zM1.516 15.848h11.926c0.262-0.332 0.492-0.688 0.695-1.063h-13.238c0.203 0.375 0.359 0.73 0.617 1.063zM4.020 11.207v-0.484h-4.020v0.484c0 0.098 0 0.195 0.004 0.289h4.027c-0.008-0.094-0.012-0.191-0.012-0.289zM10.98 11.207c0 0.098-0.004 0.195-0.016 0.289h4.027c0.004-0.098 0.008-0.191 0.008-0.289v-0.484h-4.020v0.484zM3.051 17.301h8.895c0.461-0.34 0.887-0.727 1.258-1.16h-11.449c0.375 0.43 0.836 0.82 1.297 1.16zM4.020 2.605h-4.020v0.191h4.020v-0.191zM4.020 1.25h-4.020v0.098h4.020v-0.098zM4.020 8.020h-4.020v0.578h4.020v-0.578zM4.020 9.371h-4.020v0.676h4.020v-0.676zM4.020 5.313h-4.020v0.387h4.020v-0.387zM4.020 3.957h-4.020v0.289h4.020v-0.289zM4.129 12.078h-4.078c0.035 0.297 0.086 0.586 0.152 0.871h4.285c-0.156-0.27-0.281-0.563-0.359-0.871z"></path>
</svg>
