<svg xmlns="http://www.w3.org/2000/svg" width="18" height="20" viewBox="0 0 18 20">
<path d="M16.176 1.25h-14.852c-0.73 0-1.324 0.594-1.324 1.324v14.848c0 0.734 0.594 1.328 1.324 1.328h14.848c0.73 0 1.324-0.594 1.324-1.324v-14.852c0.004-0.73-0.59-1.324-1.32-1.324zM9.281 15.277c-2.914 0.293-5.516-1.832-5.809-4.746h3.688v0.797c0 0.145 0.117 0.266 0.266 0.266h2.652c0.145 0 0.266-0.117 0.266-0.266v-2.652c0-0.145-0.117-0.266-0.266-0.266h-2.652c-0.145 0-0.266 0.117-0.266 0.266v0.797h-3.688c0.273-2.711 2.555-4.773 5.277-4.773s5.004 2.063 5.277 4.773c0.293 2.91-1.832 5.512-4.746 5.805z"></path>
</svg>
