<svg xmlns="http://www.w3.org/2000/svg" width="18" height="20" viewBox="0 0 18 20">
<path d="M10.789 5.879v0.027c-0.699-2.055-1.664-4.039-2.766-5.906 1.691 1.141 2.617 3.906 2.766 5.879zM12.066 10.633c0.297 0.711 0.43 1.465 0.43 2.227 0 3.035-2.258 5.508-5.383 5.445l0.148-0.012c2.898-1.824 4.27-4.633 4.27-8.012 0-1.488-0.254-2.965-0.738-4.375 0.039 0.457 0.039 0.926 0.039 1.383 0 3.586-0.707 9.437-4.555 10.937-2.566-0.445-4.348-2.68-4.348-5.367 0-2.953 2.242-5.559 5.289-5.559 0.656 0 1.316 0.121 1.918 0.375 0.066-0.59 0.254-1.168 0.523-1.691-0.777-0.281-1.609-0.418-2.441-0.418-6.309 0-9.324 7.652-5.074 12.254 2.652 2.914 7.5 2.887 10.148 0 2.211-2.395 2.379-5.562 1.422-7.852-0.496 0.313-1.059 0.543-1.648 0.664zM16.332 0.457c-1.211 2.598-3.176 1.844-4.523 3.129-0.484 0.469-0.805 1.328-0.805 1.973 0 0.551 0.176 1.059 0.469 1.516 1.852-0.43 3.84-1.797 4.617-3.543-0.027 0.215-0.188 0.563-0.281 0.75-0.793 1.395-2.523 2.563-3.895 3.316 0.578 0.563 1.316 1.008 2.148 1.008 3.086 0 4.301-5.258 2.27-8.148z"></path>
</svg>
