<svg xmlns="http://www.w3.org/2000/svg" width="18" height="20" viewBox="0 0 18 20">
<path d="M17.492 6c-0.078 1.703-1.266 4.035-3.57 6.996-2.379 3.094-4.391 4.641-6.039 4.641-1.020 0-1.883-0.941-2.59-2.824-1.375-5.047-1.961-8.004-3.098-8.004-0.133 0-0.59 0.277-1.375 0.824l-0.82-1.062c2.016-1.77 3.941-3.738 5.148-3.848 1.363-0.133 2.199 0.801 2.516 2.793 1.121 7.090 1.617 8.16 3.656 4.949 0.73-1.156 1.125-2.035 1.18-2.641 0.188-1.793-1.398-1.672-2.473-1.211 0.859-2.816 2.504-4.184 4.93-4.105 1.789 0.047 2.637 1.215 2.535 3.492z"></path>
</svg>
