<svg xmlns="http://www.w3.org/2000/svg" width="18" height="20" viewBox="0 0 18 20">
<path d="M15.75 1.25h-14c-0.965 0-1.75 0.785-1.75 1.75v14c0 0.965 0.785 1.75 1.75 1.75h14c0.965 0 1.75-0.785 1.75-1.75v-14c0-0.965-0.785-1.75-1.75-1.75zM14.727 7.063c-0.055 1.23-0.914 2.918-2.578 5.055-1.719 2.234-3.176 3.352-4.363 3.352-0.738 0-1.359-0.68-1.871-2.043-0.996-3.645-1.422-5.781-2.242-5.781-0.094 0-0.426 0.199-0.992 0.594l-0.594-0.766c1.457-1.281 2.848-2.703 3.719-2.781 0.984-0.094 1.59 0.578 1.816 2.020 0.809 5.125 1.168 5.898 2.641 3.578 0.527-0.836 0.813-1.473 0.852-1.91 0.137-1.297-1.012-1.207-1.789-0.875 0.621-2.035 1.809-3.023 3.563-2.969 1.301 0.035 1.914 0.879 1.84 2.527z"></path>
</svg>
