<svg xmlns="http://www.w3.org/2000/svg" width="15" height="20" viewBox="0 0 15 20">
<path d="M15 9.949v2.035c-0.719 0.164-1.441 0.238-2.035 0.238-1.441 3.023-4.023 5.617-4.887 6.102-0.547 0.309-1.059 0.328-1.668-0.031-1.059-0.637-5.074-3.93-6.41-14.281h2.91c0.73 6.215 2.52 9.402 4.484 11.789 1.090-1.090 2.141-2.543 2.953-4.176-1.945-0.988-3.129-3.16-3.129-5.687 0-2.562 1.473-4.496 3.992-4.496 4.488 0 4.148 4.996 3.188 7.090 0 0-1.812 0.359-2.48-0.801 0.133-0.441 0.32-1.203 0.32-1.895 0-1.223-0.441-1.82-1.109-1.82-0.711 0-1.203 0.668-1.203 1.953 0.004 3.094 2.32 4.637 5.074 3.98z"></path>
</svg>
