<svg xmlns="http://www.w3.org/2000/svg" width="23" height="20" viewBox="0 0 23 20">
<path d="M21.289 4.598c0.145-0.488 0-0.848-0.695-0.848h-2.301c-0.586 0-0.855 0.309-1 0.652 0 0-1.172 2.855-2.828 4.707-0.535 0.535-0.781 0.707-1.074 0.707-0.145 0-0.367-0.172-0.367-0.66v-4.559c0-0.586-0.164-0.848-0.648-0.848h-3.617c-0.367 0-0.586 0.273-0.586 0.527 0 0.555 0.828 0.684 0.914 2.246v3.391c0 0.742-0.133 0.879-0.426 0.879-0.781 0-2.68-2.867-3.805-6.148-0.227-0.637-0.449-0.895-1.039-0.895h-2.301c-0.656 0-0.789 0.309-0.789 0.652 0 0.609 0.781 3.637 3.637 7.637 1.902 2.73 4.582 4.211 7.020 4.211 1.465 0 1.645-0.328 1.645-0.895 0-2.609-0.133-2.855 0.602-2.855 0.34 0 0.926 0.172 2.293 1.488 1.563 1.563 1.82 2.262 2.695 2.262h2.301c0.656 0 0.988-0.328 0.797-0.977-0.438-1.363-3.395-4.168-3.527-4.355-0.34-0.438-0.242-0.633 0-1.023 0.004-0.004 2.813-3.957 3.102-5.297z"></path>
</svg>
