<svg xmlns="http://www.w3.org/2000/svg" width="18" height="20" viewBox="0 0 18 20">
<path d="M15.625 1.25h-13.75c-1.035 0-1.875 0.84-1.875 1.875v13.75c0 1.035 0.84 1.875 1.875 1.875h13.75c1.035 0 1.875-0.84 1.875-1.875v-13.75c0-1.035-0.84-1.875-1.875-1.875zM10.965 14.891c-1.656 1.805-4.688 1.82-6.344 0-2.656-2.875-0.773-7.66 3.172-7.66 0.52 0 1.039 0.082 1.527 0.262-0.168 0.328-0.285 0.688-0.328 1.059-0.379-0.16-0.789-0.234-1.199-0.234-1.906 0-3.305 1.629-3.305 3.473 0 1.68 1.113 3.074 2.715 3.355 2.402-0.938 2.848-4.594 2.848-6.836 0-0.285 0-0.578-0.023-0.863-0.438-1.285-1.039-2.523-1.727-3.691 1.059 0.715 1.637 2.441 1.727 3.676v0.016c0.301 0.879 0.461 1.805 0.461 2.734 0 2.113-0.855 3.867-2.668 5.008l-0.094 0.008c1.953 0.039 3.367-1.508 3.367-3.406 0-0.477-0.082-0.949-0.27-1.395 0.371-0.074 0.723-0.219 1.031-0.41 0.598 1.43 0.492 3.41-0.891 4.906zM12.070 9.129c-0.52 0-0.98-0.277-1.344-0.629 0.855-0.469 1.938-1.199 2.434-2.070 0.059-0.117 0.16-0.336 0.176-0.469-0.488 1.090-1.727 1.945-2.887 2.215-0.184-0.285-0.293-0.605-0.293-0.949 0-0.402 0.203-0.941 0.504-1.234 0.844-0.801 2.070-0.332 2.828-1.953 1.27 1.805 0.512 5.090-1.418 5.090z"></path>
</svg>
