<svg xmlns="http://www.w3.org/2000/svg" width="20" height="20" viewBox="0 0 20 20">
<path d="M17.344 1.949c-0.496-0.457-2.504-1.914-6.98-1.934 0 0-5.277-0.316-7.848 2.043-1.43 1.43-1.934 3.527-1.988 6.125s-0.121 7.465 4.57 8.785h0.004l-0.004 2.016s-0.031 0.816 0.508 0.98c0.648 0.203 1.031-0.418 1.652-1.086 0.34-0.367 0.809-0.906 1.164-1.316 3.211 0.27 5.676-0.348 5.957-0.438 0.648-0.211 4.316-0.68 4.91-5.547 0.617-5.023-0.297-8.195-1.945-9.629zM17.887 11.211c-0.504 4.063-3.477 4.32-4.023 4.496-0.234 0.074-2.402 0.613-5.125 0.438 0 0-2.031 2.449-2.664 3.086-0.207 0.207-0.434 0.188-0.43-0.223 0-0.27 0.016-3.348 0.016-3.348-0.004 0-0.004 0 0 0-3.977-1.102-3.742-5.246-3.699-7.414s0.453-3.945 1.664-5.141c2.176-1.973 6.656-1.68 6.656-1.68 3.785 0.016 5.598 1.156 6.020 1.539 1.395 1.195 2.105 4.055 1.586 8.246zM12.457 8.055c0.016 0.336-0.488 0.359-0.504 0.023-0.043-0.859-0.445-1.277-1.273-1.324-0.336-0.020-0.305-0.523 0.027-0.504 1.090 0.059 1.695 0.684 1.75 1.805zM13.25 8.496c0.039-1.656-0.996-2.953-2.961-3.098-0.332-0.023-0.297-0.527 0.035-0.504 2.266 0.164 3.473 1.723 3.43 3.613-0.004 0.336-0.512 0.32-0.504-0.012zM15.086 9.020c0.004 0.336-0.504 0.34-0.504 0.004-0.023-3.184-2.145-4.918-4.719-4.938-0.332-0.004-0.332-0.504 0-0.504 2.879 0.020 5.195 2.008 5.223 5.438zM14.645 12.852v0.008c-0.422 0.742-1.211 1.563-2.023 1.301l-0.008-0.012c-0.824-0.23-2.766-1.23-3.992-2.207-0.633-0.5-1.211-1.090-1.656-1.656-0.402-0.504-0.809-1.102-1.203-1.82-0.832-1.504-1.016-2.176-1.016-2.176-0.262-0.813 0.555-1.602 1.301-2.023h0.008c0.359-0.188 0.703-0.125 0.934 0.152 0 0 0.484 0.578 0.691 0.863 0.195 0.266 0.457 0.691 0.594 0.93 0.238 0.426 0.090 0.859-0.145 1.039l-0.469 0.375c-0.238 0.191-0.207 0.547-0.207 0.547s0.695 2.629 3.293 3.293c0 0 0.355 0.031 0.547-0.207l0.375-0.469c0.18-0.234 0.613-0.383 1.039-0.145 0.574 0.324 1.305 0.828 1.789 1.285 0.273 0.223 0.336 0.562 0.148 0.922z"></path>
</svg>
