<svg xmlns="http://www.w3.org/2000/svg" width="25" height="20" viewBox="0 0 25 20">
<path d="M4.098 13.75c-1.332 0-1.812-1.188-1.812-1.188l-2.184-4.355s-0.406-0.707 0.406-0.707h1.281c0.406 0 0.516 0.34 0.734 0.707l1.434 2.91s0.203 0.512 0.824 0.512 0.824-0.512 0.824-0.512l1.434-2.91c0.219-0.371 0.328-0.707 0.734-0.707h1.281c0.813 0 0.406 0.707 0.406 0.707l-2.18 4.355s-0.477 1.188-1.813 1.188h-1.371zM19.527 13.75c-1.332 0-1.813-1.188-1.813-1.188l-2.184-4.355s-0.406-0.707 0.406-0.707h1.281c0.406 0 0.516 0.34 0.734 0.707l1.434 2.91s0.203 0.512 0.824 0.512 0.824-0.512 0.824-0.512l1.438-2.91c0.219-0.371 0.328-0.707 0.734-0.707h1.285c0.812 0 0.406 0.707 0.406 0.707l-2.184 4.355s-0.477 1.188-1.813 1.188h-1.375zM13.188 7.5c1.332 0 1.813 1.188 1.813 1.188l2.184 4.355s0.406 0.707-0.406 0.707h-1.281c-0.406 0-0.516-0.34-0.734-0.707l-1.434-2.91s-0.203-0.512-0.824-0.512c-0.621 0-0.824 0.512-0.824 0.512l-1.434 2.91c-0.219 0.367-0.328 0.707-0.734 0.707h-1.285c-0.813 0-0.406-0.707-0.406-0.707l2.184-4.355s0.477-1.188 1.813-1.188h1.371z"></path>
</svg>
