<svg xmlns="http://www.w3.org/2000/svg" width="18" height="20" viewBox="0 0 18 20">
<path d="M15.625 1.25h-13.75c-1.035 0-1.875 0.84-1.875 1.875v13.75c0 1.035 0.84 1.875 1.875 1.875h13.75c1.035 0 1.875-0.84 1.875-1.875v-13.75c0-1.035-0.84-1.875-1.875-1.875zM14.992 7.094c-0.055 1.215-0.906 2.883-2.551 4.996-1.699 2.207-3.137 3.313-4.313 3.313-0.73 0-1.344-0.672-1.848-2.016-0.984-3.605-1.402-5.719-2.215-5.719-0.094 0-0.422 0.195-0.98 0.59l-0.586-0.758c1.441-1.266 2.816-2.672 3.676-2.75 0.973-0.094 1.57 0.57 1.797 1.996 0.801 5.063 1.156 5.828 2.609 3.535 0.523-0.828 0.805-1.453 0.84-1.887 0.133-1.281-1-1.195-1.766-0.867 0.613-2.012 1.789-2.988 3.52-2.934 1.285 0.039 1.891 0.875 1.816 2.5z"></path>
</svg>
