<svg xmlns="http://www.w3.org/2000/svg" width="18" height="20" viewBox="0 0 18 20">
<path d="M8.75 4.797c-2.84 0-5.148 2.309-5.152 5.148 0 0.973 0.273 1.922 0.789 2.738l0.121 0.195-0.52 1.898 1.949-0.512 0.188 0.113c0.789 0.469 1.695 0.719 2.621 0.719h0.004c2.836 0 5.207-2.309 5.207-5.148 0-1.375-0.594-2.668-1.566-3.641-0.977-0.977-2.266-1.512-3.641-1.512zM11.777 12.156c-0.129 0.363-0.746 0.691-1.043 0.734-0.492 0.074-0.875 0.035-1.855-0.387-1.551-0.672-2.566-2.234-2.645-2.336s-0.633-0.84-0.633-1.602 0.398-1.137 0.543-1.293c0.141-0.156 0.309-0.195 0.414-0.195 0.102 0 0.207 0 0.297 0.004 0.094 0.004 0.223-0.035 0.348 0.266 0.129 0.309 0.437 1.070 0.477 1.148s0.066 0.168 0.012 0.27c-0.297 0.594-0.613 0.57-0.453 0.844 0.598 1.027 1.195 1.383 2.105 1.84 0.156 0.078 0.246 0.066 0.336-0.039 0.090-0.102 0.387-0.453 0.488-0.605 0.102-0.156 0.207-0.129 0.348-0.078s0.902 0.426 1.059 0.504 0.258 0.117 0.297 0.18c0.035 0.074 0.035 0.387-0.094 0.746zM15.625 1.25h-13.75c-1.035 0-1.875 0.84-1.875 1.875v13.75c0 1.035 0.84 1.875 1.875 1.875h13.75c1.035 0 1.875-0.84 1.875-1.875v-13.75c0-1.035-0.84-1.875-1.875-1.875zM8.746 16.141c-1.039 0-2.059-0.262-2.961-0.754l-3.285 0.863 0.879-3.211c-0.543-0.938-0.828-2.004-0.828-3.098 0.004-3.414 2.781-6.191 6.195-6.191 1.656 0 3.211 0.645 4.383 1.816 1.168 1.172 1.871 2.727 1.871 4.383 0 3.414-2.84 6.191-6.254 6.191z"></path>
</svg>
