<svg xmlns="http://www.w3.org/2000/svg" width="25" height="20" viewBox="0 0 25 20">
<path d="M25 2l-0.012 0.477c-1.098 0.031-1.758 0.617-2.18 1.574-0.977 2.258-4.035 9.375-6.066 14.008h-0.531l-3.199-7.543c-1.27 2.484-2.668 5.078-3.875 7.543-0.012 0.012-0.586 0-0.586-0.012-1.832-4.285-3.754-8.539-5.59-12.836-0.445-1.043-1.93-2.734-2.953-2.723 0-0.121-0.012-0.391-0.012-0.555h6.324v0.543c-0.75 0.043-2.063 0.52-1.691 1.336 0.855 1.941 4.047 9.387 4.906 11.273 0.586-1.16 2.258-4.266 2.941-5.578-0.543-1.105-2.289-5.23-2.844-6.25-0.379-0.695-1.41-0.758-2.18-0.77v-0.543l5.566 0.012v0.512c-0.758 0.023-1.488 0.305-1.148 1.020 0.738 1.563 1.195 2.66 1.879 4.090 0.219-0.422 1.355-2.711 1.879-3.937 0.348-0.805-0.152-1.117-1.508-1.148 0.012-0.141 0-0.402 0.012-0.531 1.734-0.012 4.34-0.012 4.809-0.023v0.531c-0.879 0.031-1.789 0.5-2.27 1.238l-2.313 4.797c0.25 0.629 2.473 5.578 2.703 6.121l4.781-11.039c-0.336-0.902-1.422-1.098-1.844-1.105v-0.543l4.992 0.043 0.008 0.020z"></path>
</svg>
