<svg xmlns="http://www.w3.org/2000/svg" width="20" height="20" viewBox="0 0 20 20">
<path d="M10 0.313c-5.34 0-9.688 4.344-9.688 9.688 0 5.34 4.348 9.688 9.688 9.688s9.688-4.348 9.688-9.688c0-5.344-4.348-9.688-9.688-9.688zM1.289 10c0-1.262 0.27-2.461 0.754-3.543l4.156 11.383c-2.906-1.414-4.91-4.395-4.91-7.84zM10 18.711c-0.855 0-1.68-0.125-2.461-0.355l2.613-7.594 2.676 7.336c0.020 0.043 0.039 0.082 0.063 0.121-0.902 0.316-1.875 0.492-2.891 0.492zM11.199 5.918c0.523-0.027 0.996-0.082 0.996-0.082 0.469-0.055 0.414-0.746-0.055-0.719 0 0-1.41 0.109-2.32 0.109-0.855 0-2.293-0.109-2.293-0.109-0.469-0.027-0.523 0.691-0.055 0.719 0 0 0.445 0.055 0.914 0.082l1.355 3.719-1.906 5.715-3.172-9.434c0.523-0.027 0.996-0.082 0.996-0.082 0.469-0.055 0.414-0.746-0.055-0.719 0 0-1.41 0.109-2.32 0.109-0.164 0-0.355-0.004-0.563-0.012 1.559-2.363 4.234-3.926 7.277-3.926 2.266 0 4.332 0.867 5.883 2.285-0.039-0.004-0.074-0.008-0.113-0.008-0.855 0-1.461 0.746-1.461 1.547 0 0.719 0.414 1.324 0.855 2.043 0.332 0.578 0.719 1.324 0.719 2.402 0 0.746-0.285 1.609-0.664 2.816l-0.867 2.902-3.152-9.359zM14.379 17.527l2.66-7.691c0.496-1.242 0.664-2.234 0.664-3.121 0-0.32-0.020-0.617-0.059-0.895 0.68 1.242 1.066 2.664 1.066 4.18 0 3.215-1.742 6.020-4.332 7.527z"></path>
</svg>
