<svg xmlns="http://www.w3.org/2000/svg" width="18" height="20" viewBox="0 0 18 20">
<path d="M17.5 6.289v-0.832l-1.113-0.344-0.086-0.406 0.785-0.809-0.406-0.758-1.133 0.293-0.281-0.293 0.293-1.102-0.746-0.453-0.832 0.82-0.418-0.125-0.273-1.031h-0.883l-0.242 1.031-0.473 0.125-0.77-0.82-0.758 0.43 0.316 1.082-0.316 0.328-1.113-0.293-0.43 0.746 0.809 0.82-0.113 0.406-1.113 0.305-0.012 0.848 1.125 0.293 0.094 0.473-0.785 0.777 0.406 0.723 1.156-0.293 0.281 0.336-0.316 1.051 0.777 0.453 0.758-0.797 0.453 0.113 0.262 1.113 0.883 0.012 0.262-1.125 0.453-0.137 0.809 0.844 0.797-0.473-0.344-1.094 0.305-0.316 1.125 0.344 0.402-0.785-0.816-0.734 0.086-0.473 1.137-0.273zM12.844 8.055c-1.223 0-2.219-0.992-2.219-2.219s0.992-2.219 2.219-2.219 2.219 0.992 2.219 2.219c0 1.23-0.992 2.219-2.219 2.219zM15.668 8.695l1.832 0.566v1.559l-2.152 0.523-0.16 0.887 1.52 1.379-0.75 1.48-2.109-0.652-0.57 0.594 0.652 2.051-1.496 0.887-1.52-1.582-0.848 0.258-0.492 2.109-1.656-0.020-0.492-2.094-0.848-0.219-1.422 1.5-1.461-0.848 0.594-1.973-0.535-0.629-2.168 0.551-0.77-1.359 1.48-1.461-0.188-0.891-2.109-0.551 0.020-1.598 2.090-0.574 0.223-0.77-1.52-1.539 0.809-1.398 2.094 0.551 0.594-0.613-0.594-2.031 1.422-0.809 1.438 1.539 0.887-0.238 0.453-2.031h1.656l0.453 1.793-0.883-0.23-0.246-0.066-0.129 0.223-0.43 0.746-0.129 0.219 0.18 0.18 0.672 0.68-0.012 0.039-1.172 0.32-0.004 0.25-0.008 0.504c-1.855 0.406-3.254 2.062-3.254 4.043 0 2.277 1.848 4.129 4.129 4.129 1.973 0 3.621-1.383 4.031-3.234l0.785 0.012 0.063-0.262 0.219-0.938 0.074-0.023 0.852 0.887 0.227-0.133 0.797-0.473 0.227-0.137-0.078-0.254-0.266-0.828z"></path>
</svg>
