<svg xmlns="http://www.w3.org/2000/svg" width="20" height="20" viewBox="0 0 20 20">
<path d="M18.078 12.593c2.196 2.512 0.163 6.157-3.588 6.157-1.547 0-3.079-0.691-3.912-1.955-0.269 0.014-0.887 0.014-1.156 0-0.835 1.266-2.368 1.955-3.912 1.955-3.73 0-5.795-3.633-3.588-6.157-3.091-5.15 1.221-11.343 8.078-11.343 6.861 0 11.167 6.196 8.078 11.343zM4.811 9.352h1.622v-2.269h-1.622v2.269zM13.294 12.714v-0.931c-2.364 0.817-5.17 0.359-7.328-1.327l0.010 0.973c1.996 1.811 5.146 2.261 7.318 1.286zM7.405 9.352h6.487v-2.269h-6.487v2.269z"></path>
</svg>
