<svg xmlns="http://www.w3.org/2000/svg" width="20" height="20" viewBox="0 0 20 20">
<path d="M2.41 6.617l3.965 10.859c-2.773-1.344-4.684-4.188-4.684-7.477 0-1.207 0.258-2.348 0.719-3.383zM15.609 9.582c0-1.027-0.367-1.738-0.684-2.293-0.422-0.684-0.816-1.266-0.816-1.949 0-0.766 0.578-1.477 1.395-1.477 0.035 0 0.070 0.004 0.109 0.008-1.48-1.355-3.449-2.184-5.613-2.184-2.902 0-5.457 1.488-6.945 3.746 0.195 0.008 0.379 0.012 0.535 0.012 0.867 0 2.215-0.105 2.215-0.105 0.449-0.027 0.5 0.633 0.055 0.684 0 0-0.449 0.051-0.949 0.078l3.027 9 1.82-5.453-1.293-3.547c-0.449-0.027-0.871-0.078-0.871-0.078-0.449-0.027-0.395-0.711 0.051-0.684 0 0 1.371 0.105 2.188 0.105 0.867 0 2.215-0.105 2.215-0.105 0.449-0.027 0.5 0.633 0.055 0.684 0 0-0.449 0.051-0.949 0.078l3.004 8.934 0.828-2.77c0.352-1.148 0.625-1.973 0.625-2.684zM10.145 10.727l-2.492 7.246c0.746 0.219 1.531 0.34 2.348 0.34 0.969 0 1.895-0.168 2.758-0.473-0.023-0.035-0.043-0.074-0.059-0.113l-2.555-7zM17.293 6.012c0.035 0.266 0.055 0.547 0.055 0.855 0 0.844-0.156 1.789-0.633 2.977l-2.539 7.34c2.473-1.441 4.133-4.117 4.133-7.184 0-1.445-0.367-2.805-1.016-3.988zM19.688 10c0 5.344-4.348 9.688-9.688 9.688-5.344 0-9.688-4.348-9.688-9.688 0-5.344 4.344-9.688 9.688-9.688 5.34 0 9.688 4.344 9.688 9.688zM19.242 10c0-5.098-4.148-9.242-9.242-9.242-5.098 0-9.242 4.145-9.242 9.242s4.148 9.242 9.242 9.242c5.098 0 9.242-4.145 9.242-9.242z"></path>
</svg>
