<svg xmlns="http://www.w3.org/2000/svg" width="23" height="20" viewBox="0 0 23 20">
<path d="M15.047 6.547c0.25 0 0.492 0.012 0.734 0.043-0.648-3.063-3.934-5.34-7.668-5.34-4.188 0-7.605 2.844-7.605 6.461 0 2.086 1.145 3.809 3.043 5.141l-0.754 2.289 2.656-1.332c0.953 0.188 1.711 0.379 2.664 0.379 0.242 0 0.473-0.012 0.715-0.031-0.156-0.504-0.242-1.039-0.242-1.594-0.004-3.316 2.848-6.016 6.457-6.016zM10.965 4.48c0.566 0 0.945 0.379 0.945 0.953 0 0.566-0.379 0.945-0.945 0.945-0.578 0-1.145-0.379-1.145-0.945 0.004-0.574 0.57-0.953 1.145-0.953zM5.637 6.379c-0.566 0-1.145-0.379-1.145-0.945 0-0.578 0.578-0.953 1.145-0.953 0.578 0 0.953 0.379 0.953 0.953 0 0.57-0.375 0.945-0.953 0.945zM21.992 12.477c0-3.043-3.043-5.52-6.461-5.52-3.621 0-6.461 2.477-6.461 5.52s2.844 5.52 6.461 5.52c0.754 0 1.52-0.199 2.289-0.387l2.086 1.145-0.578-1.898c1.531-1.148 2.664-2.668 2.664-4.379zM13.434 11.52c-0.379 0-0.754-0.379-0.754-0.766 0-0.379 0.379-0.754 0.754-0.754 0.578 0 0.953 0.379 0.953 0.754 0 0.391-0.379 0.766-0.953 0.766zM17.617 11.52c-0.379 0-0.754-0.379-0.754-0.766 0-0.379 0.379-0.754 0.754-0.754 0.566 0 0.953 0.379 0.953 0.754 0.004 0.391-0.387 0.766-0.953 0.766z"></path>
</svg>
