<svg xmlns="http://www.w3.org/2000/svg" width="20" height="20" viewBox="0 0 20 20">
<path d="M20 10c0 5.516-4.48 10-10 10-5.516 0-10-4.48-10-10s4.48-10 10-10 10 4.48 10 10zM18.75 10c0-4.813-3.918-8.75-8.75-8.75-4.824 0-8.75 3.926-8.75 8.75s3.926 8.75 8.75 8.75 8.75-3.926 8.75-8.75zM6.285 4.867l3.395 1.449-1.449 3.395-3.395-1.449 1.449-3.395zM10.582 11.473l1.82 3.672h-0.57l-1.953-3.906-1.91 3.906h-0.547l1.996-4.176-0.871-0.367 0.234-0.547 2.68 1.137-0.234 0.559-0.645-0.277zM10.121 6.93l2.68 1.148-1.148 2.668-2.668-1.137 1.137-2.68zM13.258 8.605l2.133 0.902-0.914 2.121-2.121-0.902 0.902-2.121z"></path>
</svg>
