<svg xmlns="http://www.w3.org/2000/svg" width="18" height="20" viewBox="0 0 18 20">
<path d="M17.5 2.938v14.129c0 0.949-0.742 1.688-1.688 1.688h-14.125c-0.934-0.004-1.688-0.73-1.688-1.691v-14.125c0-0.941 0.734-1.688 1.688-1.688h14.129c0.938 0 1.684 0.734 1.684 1.688zM16.043 17.063v-14.125c0-0.117-0.102-0.227-0.227-0.227h-0.363l-4.309 2.914-2.395-1.949-2.391 1.949-4.309-2.918h-0.363c-0.125 0-0.227 0.109-0.227 0.227v14.129c0 0.117 0.102 0.227 0.227 0.227h14.129c0.125 0.004 0.227-0.105 0.227-0.227zM5.867 7.266v1.445h-2.871v-1.445h2.871zM5.867 10.172v1.457h-2.871v-1.457h2.871zM6.301 4.418l2.109-1.707h-4.629l2.52 1.707zM14.504 7.266v1.445h-7.656v-1.445h7.656zM14.504 10.172v1.457h-7.656v-1.457h7.656zM11.199 4.418l2.52-1.707h-4.625l2.105 1.707zM14.504 13.086v1.457h-3.883v-1.457h3.883z"></path>
</svg>
