<svg xmlns="http://www.w3.org/2000/svg" width="18" height="20" viewBox="0 0 18 20">
<path d="M14.879 3.793c-1.637-1.641-3.816-2.543-6.133-2.543-4.781 0-8.672 3.891-8.672 8.672 0 1.527 0.398 3.020 1.156 4.336l-1.23 4.492 4.598-1.207c1.266 0.691 2.691 1.055 4.145 1.055h0.004c4.777 0 8.754-3.891 8.754-8.672 0-2.316-0.984-4.492-2.621-6.133zM8.746 17.137c-1.297 0-2.566-0.348-3.672-1.004l-0.262-0.156-2.727 0.715 0.727-2.66-0.172-0.273c-0.723-1.148-1.102-2.473-1.102-3.836 0-3.973 3.234-7.207 7.211-7.207 1.926 0 3.734 0.75 5.094 2.113s2.195 3.172 2.191 5.098c0 3.977-3.316 7.211-7.289 7.211zM12.699 11.738c-0.215-0.109-1.281-0.633-1.48-0.703-0.199-0.074-0.344-0.109-0.488 0.109s-0.559 0.703-0.688 0.852c-0.125 0.145-0.254 0.164-0.469 0.055-1.273-0.637-2.109-1.137-2.949-2.578-0.223-0.383 0.223-0.355 0.637-1.184 0.070-0.145 0.035-0.27-0.020-0.379s-0.488-1.176-0.668-1.609c-0.176-0.422-0.355-0.363-0.488-0.371-0.125-0.008-0.27-0.008-0.414-0.008s-0.379 0.055-0.578 0.27c-0.199 0.219-0.758 0.742-0.758 1.809s0.777 2.098 0.883 2.242c0.109 0.145 1.527 2.332 3.703 3.273 1.375 0.594 1.914 0.645 2.602 0.543 0.418-0.063 1.281-0.523 1.461-1.031s0.18-0.941 0.125-1.031c-0.051-0.098-0.195-0.152-0.41-0.258z"></path>
</svg>
