<svg xmlns="http://www.w3.org/2000/svg" width="20" height="20" viewBox="0 0 20 20">
<path d="M15.898 6.938c0.297-0.938-0.523-1.828-1.461-1.629-0.859 0.188-1.125-1.098-0.277-1.281 1.957-0.426 3.605 1.449 2.988 3.313-0.266 0.828-1.516 0.422-1.25-0.402zM8.391 17.449c-4.152 0-8.391-2.008-8.391-5.324 0-1.73 1.094-3.727 2.98-5.613 3.895-3.895 7.938-3.941 6.781-0.223-0.156 0.512 0.48 0.223 0.48 0.234 3.105-1.313 5.488-0.656 4.453 2.008-0.145 0.367 0.043 0.426 0.324 0.512 5.301 1.652 1.359 8.406-6.629 8.406zM14.004 11.734c-0.211-2.176-3.066-3.672-6.383-3.348-3.313 0.336-5.813 2.355-5.602 4.531s3.066 3.672 6.383 3.348c3.313-0.336 5.813-2.355 5.602-4.531zM13.59 1.371c-1.012 0.219-0.656 1.707 0.324 1.496 2.824-0.594 5.266 2.063 4.363 4.844-0.289 0.945 1.137 1.445 1.461 0.469 1.246-3.898-2.152-7.652-6.148-6.809zM10.523 13.52c-0.668 1.516-2.609 2.344-4.262 1.809-1.594-0.512-2.266-2.086-1.574-3.504 0.691-1.383 2.465-2.164 4.039-1.762 1.641 0.422 2.465 1.961 1.797 3.457zM7.152 12.348c-0.504-0.211-1.172 0.012-1.484 0.504-0.324 0.504-0.168 1.094 0.336 1.328 0.512 0.234 1.203 0.012 1.527-0.504 0.313-0.512 0.145-1.105-0.379-1.328zM8.426 11.824c-0.199-0.066-0.445 0.023-0.559 0.211-0.113 0.199-0.055 0.414 0.145 0.504 0.199 0.078 0.457-0.012 0.57-0.211 0.109-0.203 0.043-0.426-0.156-0.504z"></path>
</svg>
