<svg xmlns="http://www.w3.org/2000/svg" width="18" height="20" viewBox="0 0 18 20">
<path d="M15.625 1.25h-13.75c-1.035 0-1.875 0.84-1.875 1.875v13.75c0 1.035 0.84 1.875 1.875 1.875h13.75c1.035 0 1.875-0.84 1.875-1.875v-13.75c0-1.035-0.84-1.875-1.875-1.875zM5.484 12.508h-1.82c-0.215 0-0.34-0.207-0.234-0.402l1.926-3.387c0.004 0 0.004-0.004 0-0.008l-1.227-2.109c-0.117-0.219 0.008-0.395 0.234-0.395h1.82c0.203 0 0.371 0.113 0.504 0.34l1.246 2.16c-0.051 0.090-0.703 1.238-1.957 3.445-0.137 0.242-0.301 0.355-0.492 0.355zM14.066 4.145l-4.016 7.059v0.008l2.559 4.648c0.109 0.199 0.004 0.395-0.234 0.395h-1.82c-0.215 0-0.379-0.113-0.504-0.34l-2.578-4.699c0.090-0.16 1.438-2.535 4.039-7.121 0.129-0.227 0.289-0.34 0.488-0.34h1.832c0.223-0.004 0.344 0.184 0.234 0.391z"></path>
</svg>
