<svg xmlns="http://www.w3.org/2000/svg" width="20" height="20" viewBox="0 0 20 20">
<path d="M14.449 12.43c1.73 2.121 2.527 3.859 2.125 4.637-0.309 0.59-2.215 1.742-3.617 2.184-1.156 0.363-2.672 0.52-3.922 0.398-1.492-0.145-3.004-0.68-4.301-1.523-1.090-0.711-1.336-1.004-1.336-1.586 0-1.168 1.285-3.215 3.484-5.551 1.25-1.324 2.988-2.879 3.18-2.836 0.367 0.082 3.293 2.934 4.387 4.277zM7.367 5.617c-1.16-1.051-2.27-2.105-3.375-2.477-0.594-0.199-0.637-0.187-1.121 0.316-1.141 1.188-2.090 3.113-2.355 4.781-0.211 1.336-0.238 1.711-0.164 2.363 0.219 1.973 0.676 3.336 1.582 4.723 0.371 0.57 0.473 0.676 0.363 0.387-0.164-0.43-0.012-1.465 0.371-2.5 0.559-1.523 2.105-4.41 4.699-7.594zM19.539 8.098c-0.66-3.125-2.637-5.090-2.914-5.090-0.285 0-0.945 0.254-1.406 0.543-0.91 0.566-1.602 1.227-2.512 2.063 1.656 2.082 3.992 5.445 4.801 7.902 0.266 0.809 0.379 1.605 0.289 2.043-0.066 0.332-0.066 0.332 0.055 0.18 0.238-0.301 0.777-1.223 0.992-1.699 0.289-0.633 0.586-1.57 0.727-2.293 0.168-0.879 0.152-2.766-0.031-3.648zM5.52 1.68c1.863-0.098 4.285 1.348 4.465 1.383 0.027 0.004 0.406-0.164 0.844-0.379 2.496-1.215 3.672-1.008 4.195-0.984-2.496-1.535-5.965-1.953-9.137-0.457-0.914 0.434-0.938 0.465-0.367 0.438z"></path>
</svg>
