<svg xmlns="http://www.w3.org/2000/svg" width="15" height="20" viewBox="0 0 15 20">
<path d="M6.355 8.203c-0.070 0.129-0.984 1.734-2.738 4.824-0.191 0.324-0.422 0.488-0.691 0.488h-2.543c-0.301 0-0.473-0.293-0.332-0.563l2.695-4.738c0.008 0 0.008-0.004 0-0.012l-1.715-2.953c-0.168-0.305 0.012-0.551 0.332-0.551h2.543c0.285 0 0.52 0.16 0.703 0.477l1.746 3.027zM14.945 1.801l-5.625 9.883v0.012l3.578 6.508c0.152 0.277 0.008 0.551-0.332 0.551h-2.547c-0.297 0-0.531-0.156-0.703-0.477l-3.609-6.582c0.129-0.227 2.012-3.547 5.656-9.969 0.18-0.316 0.406-0.477 0.684-0.477h2.566c0.313 0 0.48 0.262 0.332 0.551z"></path>
</svg>
