<svg xmlns="http://www.w3.org/2000/svg" width="15" height="20" viewBox="0 0 15 20">
<path d="M5.348 12.813c-0.039 0.012-4.266 1.395-4.523 1.395-0.594-0.035-0.723-0.633-0.777-1.219-0.059-0.555-0.055-1.164 0.012-1.828 0.074-0.734 0.215-1.762 0.945-1.719 0.188 0 2.621 1.012 4.402 1.734 0.668 0.266 0.727 1.398-0.059 1.637zM7.609 8.363c0.070 1.492-0.996 1.895-1.844 0.559l-4.152-6.563c-0.059-0.258 0.012-0.484 0.207-0.68 0.609-0.645 3.883-1.555 4.746-1.332 0.293 0.074 0.473 0.238 0.539 0.492 0.051 0.324 0.449 6.539 0.504 7.523zM7.555 14.801c0 0.18 0.008 4.547-0.066 4.746-0.090 0.234-0.273 0.379-0.559 0.438-0.395 0.066-1.059-0.074-1.992-0.418-0.859-0.316-2.215-0.84-1.926-1.66 0.109-0.27 2.008-2.453 3.020-3.656 0.469-0.594 1.555-0.215 1.523 0.551zM14.594 10.199c-0.219 0.145-4.328 1.102-4.613 1.195l0.012-0.023c-0.707 0.184-1.383-0.723-0.91-1.352 0.145-0.145 2.574-3.609 2.844-3.789 0.203-0.141 0.441-0.148 0.715-0.023 0.719 0.344 2.152 2.465 2.242 3.305-0.004 0.113 0.047 0.457-0.289 0.688zM14.988 15.305c-0.105 0.805-1.738 2.867-2.492 3.164-0.27 0.102-0.504 0.078-0.691-0.078-0.195-0.137-2.414-3.793-2.535-3.996-0.426-0.633 0.266-1.555 1-1.297 0 0 4.316 1.395 4.48 1.539 0.203 0.16 0.281 0.383 0.238 0.668z"></path>
</svg>
