<svg xmlns="http://www.w3.org/2000/svg" width="23" height="20" viewBox="0 0 23 20">
<path d="M21.471 4.847c-0.245-0.924-0.968-1.651-1.886-1.898-1.664-0.449-8.335-0.449-8.335-0.449s-6.671 0-8.335 0.449c-0.918 0.247-1.641 0.974-1.886 1.898-0.446 1.674-0.446 5.168-0.446 5.168s0 3.494 0.446 5.168c0.245 0.924 0.968 1.621 1.886 1.868 1.664 0.449 8.335 0.449 8.335 0.449s6.671 0 8.335-0.449c0.918-0.247 1.641-0.944 1.886-1.868 0.446-1.674 0.446-5.168 0.446-5.168s0-3.494-0.446-5.168zM9.068 13.187v-6.344l5.576 3.172-5.576 3.172z"></path>
</svg>
