<svg xmlns="http://www.w3.org/2000/svg" width="18" height="20" viewBox="0 0 18 20">
<path d="M7.297 7.895l3.719 2.113-3.719 2.113v-4.227zM17.5 3.125v13.75c0 1.035-0.84 1.875-1.875 1.875h-13.75c-1.035 0-1.875-0.84-1.875-1.875v-13.75c0-1.035 0.84-1.875 1.875-1.875h13.75c1.035 0 1.875 0.84 1.875 1.875zM15.859 10.012s0-2.328-0.297-3.445c-0.164-0.617-0.645-1.102-1.258-1.266-1.105-0.301-5.555-0.301-5.555-0.301s-4.449 0-5.555 0.301c-0.613 0.164-1.094 0.648-1.258 1.266-0.297 1.113-0.297 3.445-0.297 3.445s0 2.328 0.297 3.445c0.164 0.617 0.645 1.082 1.258 1.246 1.105 0.297 5.555 0.297 5.555 0.297s4.449 0 5.555-0.301c0.613-0.164 1.094-0.629 1.258-1.246 0.297-1.113 0.297-3.441 0.297-3.441z"></path>
</svg>
